<svg id="Layer_1" data-name="Layer 1" xmlns="http://www.w3.org/2000/svg" viewBox="0 0 313.07 222.23"><defs><style>.cls-1,.cls-7{fill:#f9f9f9;}.cls-2{fill:#cedaef;}.cls-3{fill:#89a6f5;}.cls-3,.cls-5{stroke:#000;}.cls-3,.cls-5,.cls-7{stroke-miterlimit:10;}.cls-3,.cls-4,.cls-5{stroke-width:1.5px;}.cls-4,.cls-6{fill:none;stroke-linecap:round;stroke-linejoin:round;}.cls-4,.cls-6,.cls-7{stroke:#202123;}.cls-5{fill:#f5c43c;}.cls-6,.cls-7{stroke-width:3px;}</style></defs><title>2_mail</title><circle class="cls-1" cx="160.11" cy="111.03" r="109.68"/><path class="cls-2" d="M185.63,235.93S180,333,266,320s90,28,89,50-59.81,56.61-106.91,43.8-78.72-44.8-85.91-86.3S169.26,257.85,185.63,235.93Z" transform="translate(-109.68 -195.26)"/><circle class="cls-3" cx="193.43" cy="191.99" r="4.68"/><line class="cls-4" x1="23.32" y1="28.74" x2="34.32" y2="28.74"/><line class="cls-4" x1="28.32" y1="22.74" x2="28.32" y2="34.74"/><line class="cls-4" x1="301.32" y1="74.74" x2="312.32" y2="74.74"/><line class="cls-4" x1="306.32" y1="68.74" x2="306.32" y2="80.74"/><circle class="cls-5" cx="5.43" cy="62.99" r="4.68"/><path d="M255.79,286.85H233.46a2.88,2.88,0,0,1,0-5.76h22.33a2.88,2.88,0,1,1,0,5.76Z" transform="translate(-109.68 -195.26)"/><path d="M255.79,298.78h-5.64a2.89,2.89,0,1,1,0-5.77h5.64a2.89,2.89,0,1,1,0,5.77Z" transform="translate(-109.68 -195.26)"/><path d="M227.56,298.78H200.3a2.89,2.89,0,0,1,0-5.77h27.26a2.89,2.89,0,0,1,0,5.77Z" transform="translate(-109.68 -195.26)"/><path d="M255.79,310.71H233.46a2.89,2.89,0,0,1,0-5.77h22.33a2.89,2.89,0,1,1,0,5.77Z" transform="translate(-109.68 -195.26)"/><path d="M219.6,310.71H208.44a2.89,2.89,0,1,1,0-5.77H219.6a2.89,2.89,0,0,1,0,5.77Z" transform="translate(-109.68 -195.26)"/><path d="M255.79,322.64h-28a2.89,2.89,0,1,1,0-5.77h28a2.89,2.89,0,1,1,0,5.77Z" transform="translate(-109.68 -195.26)"/><path d="M255.79,334.56h-6.93a2.88,2.88,0,0,1,0-5.76h6.93a2.88,2.88,0,1,1,0,5.76Z" transform="translate(-109.68 -195.26)"/><path d="M240.39,334.56H216.52a2.88,2.88,0,0,1,0-5.76h23.87a2.88,2.88,0,1,1,0,5.76Z" transform="translate(-109.68 -195.26)"/><path d="M255.79,346.49h-15.4a2.88,2.88,0,0,1,0-5.76h15.4a2.88,2.88,0,1,1,0,5.76Z" transform="translate(-109.68 -195.26)"/><path class="cls-6" d="M367.33,356.57a109.94,109.94,0,0,1-196.53-2.74" transform="translate(-109.68 -195.26)"/><path class="cls-6" d="M275.68,196.76A109.8,109.8,0,0,1,379.43,301.23" transform="translate(-109.68 -195.26)"/><path class="cls-6" d="M166.41,269a115.11,115.11,0,0,1,5.83-12.93,109.36,109.36,0,0,1,61.07-53.18" transform="translate(-109.68 -195.26)"/><rect class="cls-7" x="161.44" y="77.74" width="132.25" height="79.5" rx="7.25"/><path class="cls-6" d="M274,275.38l57.08,45.83a9.53,9.53,0,0,0,12,.08l57.39-45.78" transform="translate(-109.68 -195.26)"/><line class="cls-6" x1="164.08" y1="153.11" x2="209.67" y2="117.31"/><line class="cls-6" x1="290.06" y1="154.11" x2="245.71" y2="117.55"/></svg>