<svg id="Layer_1" data-name="Layer 1" xmlns="http://www.w3.org/2000/svg" viewBox="0 0 288.09 243.2"><defs><style>.cls-1{fill:#fff;}.cls-2,.cls-4{fill:#64c3d9;}.cls-12,.cls-16,.cls-3,.cls-8{fill:none;}.cls-10,.cls-16,.cls-3,.cls-4{stroke:#202123;}.cls-16,.cls-3,.cls-4,.cls-8{stroke-linecap:round;stroke-linejoin:round;}.cls-5{font-size:13px;}.cls-11,.cls-15,.cls-5{fill:#202123;}.cls-11,.cls-5{font-family:NotoSansCJKkr-Bold-KSCpc-EUC-H, Noto Sans CJK KR;}.cls-6{letter-spacing:-0.04em;}.cls-7{letter-spacing:0.02em;}.cls-8{stroke:#ebf5f7;}.cls-12,.cls-16,.cls-8{stroke-width:2px;}.cls-11,.cls-9{font-size:9px;letter-spacing:-0.02em;}.cls-9{fill:#969696;font-family:NotoSansCJKkr-Medium-KSCpc-EUC-H, Noto Sans CJK KR;}.cls-10,.cls-14{fill:#f5c43c;}.cls-10,.cls-12{stroke-miterlimit:10;}.cls-12{stroke:#e4eced;}.cls-13{fill:#231f20;}</style></defs><title>4_Newmail</title><rect class="cls-1" x="1" y="1" width="286.09" height="241.2" rx="9.69"/><path class="cls-2" d="M11.38.86H277a10.67,10.67,0,0,1,10.67,10.67V31.86a0,0,0,0,1,0,0H.71a0,0,0,0,1,0,0V11.53A10.67,10.67,0,0,1,11.38.86Z"/><line class="cls-3" x1="275.71" y1="19.86" x2="280.95" y2="25.1"/><line class="cls-3" x1="280.95" y1="19.86" x2="275.71" y2="25.1"/><line class="cls-3" x1="251.71" y1="25.36" x2="256.71" y2="25.36"/><rect class="cls-3" x="264.51" y="20" width="4.76" height="4.11" rx="0.5"/><rect class="cls-4" x="262.53" y="21.76" width="4.76" height="4.11" rx="0.5"/><text class="cls-5" transform="translate(129 21.72)"><tspan class="cls-6">메</tspan><tspan class="cls-7" x="11.44" y="0">일쓰</tspan><tspan x="35.88" y="0">기</tspan></text><line class="cls-8" x1="9.71" y1="52.36" x2="276.71" y2="52.36"/><line class="cls-8" x1="9.71" y1="77.36" x2="276.71" y2="77.36"/><text class="cls-9" transform="translate(9.71 47.36)">받는사람</text><text class="cls-9" transform="translate(9.71 72.86)">제목</text><rect class="cls-10" x="236.15" y="211.62" width="34" height="15" rx="2.5"/><text class="cls-11" transform="translate(240.73 222.46)">보내기</text><rect class="cls-12" x="9.71" y="89.86" width="268" height="107" rx="6.17"/><rect class="cls-13" x="106.67" y="10.25" width="18.21" height="13.02" rx="3.2"/><rect class="cls-14" x="106.67" y="10.25" width="18.21" height="13.02" rx="2.43"/><path class="cls-15" d="M854.36,643.86h-14.6a2.25,2.25,0,0,1-2.25-2.25V632.2a2.26,2.26,0,0,1,2.25-2.26h14.6a2.26,2.26,0,0,1,2.25,2.26v9.41A2.25,2.25,0,0,1,854.36,643.86Zm-14.6-13a1.36,1.36,0,0,0-1.35,1.36v9.41a1.36,1.36,0,0,0,1.35,1.35h14.6a1.36,1.36,0,0,0,1.35-1.35V632.2a1.36,1.36,0,0,0-1.35-1.36Z" transform="translate(-731.29 -620.14)"/><path class="cls-15" d="M846.82,639.13a.44.44,0,0,1-.29-.11l-6.31-5.43a.44.44,0,0,1,0-.63.44.44,0,0,1,.63-.05l6,5.18,6.22-5.05a.44.44,0,0,1,.63.07.45.45,0,0,1-.06.63L847.1,639A.42.42,0,0,1,846.82,639.13Z" transform="translate(-731.29 -620.14)"/><line class="cls-15" x1="111.82" y1="17.77" x2="108.99" y2="20.53"/><path class="cls-15" d="M840.27,641.12a.45.45,0,0,1-.31-.77l2.83-2.77a.46.46,0,0,1,.64,0,.45.45,0,0,1,0,.64L840.59,641A.47.47,0,0,1,840.27,641.12Z" transform="translate(-731.29 -620.14)"/><line class="cls-15" x1="119.45" y1="17.77" x2="122.29" y2="20.78"/><path class="cls-15" d="M853.58,641.37a.47.47,0,0,1-.33-.14l-2.84-3a.45.45,0,0,1,.66-.62l2.84,3a.46.46,0,0,1,0,.64A.47.47,0,0,1,853.58,641.37Z" transform="translate(-731.29 -620.14)"/><rect class="cls-16" x="1" y="1" width="286.09" height="241.2" rx="9.69"/></svg>