<svg id="Layer_1" data-name="Layer 1" xmlns="http://www.w3.org/2000/svg" viewBox="0 0 777.33 446"><defs><style>.cls-1{fill:#d9d7e4;}.cls-2{fill:#fff;}.cls-3{fill:#ebf5f7;}.cls-4{fill:#d7e2f2;stroke:#a6b4c9;}.cls-14,.cls-15,.cls-16,.cls-17,.cls-18,.cls-20,.cls-24,.cls-4,.cls-7,.cls-9{stroke-miterlimit:10;}.cls-22,.cls-4{stroke-width:3px;}.cls-14,.cls-15,.cls-16,.cls-17,.cls-18,.cls-19,.cls-20,.cls-22,.cls-5,.cls-7,.cls-9{fill:none;}.cls-22,.cls-5{stroke:#dedede;}.cls-15,.cls-16,.cls-17,.cls-18,.cls-19,.cls-22,.cls-5,.cls-7{stroke-linecap:round;}.cls-19,.cls-22,.cls-5{stroke-linejoin:round;}.cls-20,.cls-5,.cls-7,.cls-9{stroke-width:2px;}.cls-6{fill:#dedede;}.cls-16,.cls-17,.cls-7{stroke:#b3b5b7;}.cls-8{fill:#b3b5b7;}.cls-9{stroke:#b4b3bc;}.cls-10{fill:#5c4799;}.cls-11{fill:#64c3d9;}.cls-12{fill:#aaa;}.cls-13{fill:#e2e2e2;}.cls-14,.cls-15{stroke:#aaa;}.cls-16,.cls-18,.cls-19{stroke-width:1.5px;}.cls-18,.cls-19{stroke:#fff;}.cls-20{stroke:#c1c1c1;}.cls-21{fill:#c1c1c1;}.cls-23,.cls-25{fill:#202123;}.cls-24{fill:#f53b69;stroke:#202123;}.cls-25{font-size:13.36px;font-family:NotoSansCJKkr-Regular-KSCpc-EUC-H, Noto Sans CJK KR;letter-spacing:-0.02em;}</style></defs><title>4_site</title><rect class="cls-1" x="1" y="2" width="775.33" height="444" rx="16.67"/><rect class="cls-2" x="16" y="44.98" width="741.33" height="387" rx="4.5"/><rect class="cls-3" x="60.17" y="44.33" width="157.5" height="387"/><rect class="cls-3" x="228.33" y="114.33" width="515.33" height="60" rx="3.83"/><circle class="cls-2" cx="22.67" cy="22.67" r="5.33"/><circle class="cls-2" cx="41.67" cy="22.67" r="5.33"/><circle class="cls-2" cx="60.67" cy="22.67" r="5.33"/><rect class="cls-2" x="85.33" y="17.67" width="214.33" height="9.33" rx="4.67"/><path class="cls-4" d="M271,689" transform="translate(-200.33 -542.67)"/><line class="cls-5" x1="228.67" y1="100.83" x2="743.67" y2="100.83"/><rect class="cls-6" x="668.5" y="679.51" width="216.62" height="17.19" rx="8.6" transform="translate(1353.29 833.55) rotate(-180)"/><circle class="cls-7" cx="709.22" cy="145.44" r="17.38"/><path class="cls-8" d="M909.57,690.29a6.09,6.09,0,1,1,6.07-6.06A6.09,6.09,0,0,1,909.57,690.29Z" transform="translate(-200.33 -542.67)"/><path class="cls-8" d="M898.66,701.65c2-5.3,5.17-9.78,10.91-9.78s8.89,4.48,10.87,9.79a17.38,17.38,0,0,1-21.78,0Z" transform="translate(-200.33 -542.67)"/><rect class="cls-6" x="250.67" y="78.86" width="181.67" height="16" rx="6.25"/><rect class="cls-2" x="70.67" y="91.39" width="132.67" height="22" rx="5.53"/><circle class="cls-5" cx="190.79" cy="100.57" r="4.71"/><line class="cls-5" x1="193.94" y1="104.07" x2="197.29" y2="107.59"/><rect class="cls-6" x="279.98" y="213.55" width="139.68" height="17.19" rx="8.6"/><circle class="cls-7" cx="255.55" cy="222.15" r="17.38"/><path class="cls-8" d="M455.86,767a6.09,6.09,0,1,0-6.06-6.07A6.08,6.08,0,0,0,455.86,767Z" transform="translate(-200.33 -542.67)"/><path class="cls-8" d="M466.78,778.36c-2-5.3-5.18-9.78-10.92-9.78S447,773.06,445,778.36a17.36,17.36,0,0,0,21.78,0Z" transform="translate(-200.33 -542.67)"/><polygon class="cls-6" points="282.67 257.33 282.67 288.33 309.67 288.33 309.67 283.22 309.67 265.66 298.62 257.33 282.67 257.33"/><line class="cls-7" x1="316.58" y1="267.54" x2="356.47" y2="267.54"/><line class="cls-7" x1="316.58" y1="277.19" x2="366.99" y2="277.19"/><line class="cls-7" x1="316.58" y1="286.83" x2="356.47" y2="286.83"/><polygon class="cls-6" points="414.67 257.33 414.67 288.33 440.67 288.33 440.67 283.22 440.67 265.66 430.25 257.33 414.67 257.33"/><line class="cls-7" x1="449.58" y1="267.54" x2="489.47" y2="267.54"/><line class="cls-7" x1="449.58" y1="277.19" x2="465.55" y2="277.19"/><line class="cls-7" x1="449.58" y1="286.83" x2="461.92" y2="286.83"/><rect class="cls-9" x="1" y="1" width="775.33" height="444" rx="16.67"/><path class="cls-10" d="M231.74,619.94a3.66,3.66,0,0,0,.53-1.91,3.77,3.77,0,1,0-1.61,3.08l5.31,5.31,1.13-1.13Z" transform="translate(-200.33 -542.67)"/><path class="cls-11" d="M237,608.27a3.76,3.76,0,1,1,1.09,1.17l-5.31,5.3-1.13-1.12Z" transform="translate(-200.33 -542.67)"/><path class="cls-10" d="M248.69,615.45a3.72,3.72,0,1,0,1.08-1.17l-5.31-5.3-1.12,1.12Z" transform="translate(-200.33 -542.67)"/><path class="cls-11" d="M243.42,627.13a3.75,3.75,0,1,1-1.08-1.17l5.3-5.31,1.13,1.13Z" transform="translate(-200.33 -542.67)"/><path class="cls-11" d="M236.61,618.65a1.58,1.58,0,0,0,.22-.81,1.6,1.6,0,1,0-1.6,1.6,1.62,1.62,0,0,0,.92-.29l2.26,2.26.48-.48Z" transform="translate(-200.33 -542.67)"/><path class="cls-10" d="M238.85,613.68a1.61,1.61,0,0,1-.22-.81,1.6,1.6,0,1,1,1.6,1.6,1.62,1.62,0,0,1-.92-.29l-2.26,2.26-.48-.48Z" transform="translate(-200.33 -542.67)"/><path class="cls-11" d="M243.83,616.74a1.53,1.53,0,0,0-.23.81,1.61,1.61,0,1,0,.69-1.31L242,614l-.47.48Z" transform="translate(-200.33 -542.67)"/><path class="cls-10" d="M241.58,621.71a1.62,1.62,0,0,1,.22.82,1.6,1.6,0,1,1-.68-1.31l2.26-2.27.48.48Z" transform="translate(-200.33 -542.67)"/><rect class="cls-2" x="27.19" y="187.18" width="23.53" height="19.43" rx="2.17"/><path class="cls-12" d="M227.08,747.11V732a2.61,2.61,0,0,1,2.61-2.61h19.19a2.6,2.6,0,0,1,2.6,2.61v15.09a2.6,2.6,0,0,1-2.6,2.61H229.69A2.61,2.61,0,0,1,227.08,747.11ZM250.61,732a1.74,1.74,0,0,0-1.73-1.73H229.69A1.73,1.73,0,0,0,228,732v15.09a1.73,1.73,0,0,0,1.73,1.73h19.19a1.74,1.74,0,0,0,1.73-1.73Z" transform="translate(-200.33 -542.67)"/><path class="cls-13" d="M251.05,733.66H227.52V732a2.17,2.17,0,0,1,2.17-2.17h19.19a2.17,2.17,0,0,1,2.17,2.17Z" transform="translate(-200.33 -542.67)"/><path class="cls-12" d="M227.08,733.66V732a2.61,2.61,0,0,1,2.61-2.61h19.19a2.6,2.6,0,0,1,2.6,2.61v1.64a.44.44,0,0,1-.43.44H227.52A.44.44,0,0,1,227.08,733.66ZM250.61,732a1.74,1.74,0,0,0-1.73-1.73H229.69A1.73,1.73,0,0,0,228,732v1.2h22.65Z" transform="translate(-200.33 -542.67)"/><path class="cls-12" d="M247.42,731.17v0Z" transform="translate(-200.33 -542.67)"/><path class="cls-12" d="M247,731.17v-2.6a.44.44,0,0,1,.44-.44.44.44,0,0,1,.43.44v2.6a.43.43,0,0,1-.43.44A.44.44,0,0,1,247,731.17Z" transform="translate(-200.33 -542.67)"/><path class="cls-12" d="M244.16,731.17v0Z" transform="translate(-200.33 -542.67)"/><path class="cls-12" d="M243.73,731.17v-2.6a.44.44,0,1,1,.87,0v2.6a.44.44,0,1,1-.87,0Z" transform="translate(-200.33 -542.67)"/><path class="cls-12" d="M240.91,731.17v0Z" transform="translate(-200.33 -542.67)"/><path class="cls-12" d="M240.47,731.17v-2.6a.44.44,0,0,1,.88,0v2.6a.44.44,0,0,1-.88,0Z" transform="translate(-200.33 -542.67)"/><path class="cls-12" d="M237.66,731.17v0Z" transform="translate(-200.33 -542.67)"/><path class="cls-12" d="M237.22,731.17v-2.6a.44.44,0,1,1,.87,0v2.6a.44.44,0,1,1-.87,0Z" transform="translate(-200.33 -542.67)"/><path class="cls-12" d="M234.4,731.17v0Z" transform="translate(-200.33 -542.67)"/><path class="cls-12" d="M234,731.17v-2.6a.44.44,0,0,1,.88,0v2.6a.44.44,0,0,1-.88,0Z" transform="translate(-200.33 -542.67)"/><path class="cls-12" d="M231.15,731.17v0Z" transform="translate(-200.33 -542.67)"/><path class="cls-12" d="M230.71,731.17v-2.6a.44.44,0,0,1,.88,0v2.6a.44.44,0,0,1-.88,0Z" transform="translate(-200.33 -542.67)"/><path class="cls-14" d="M231.56,797.55l6.69-2,8.6-11.45a1.53,1.53,0,0,0-.3-2.13l-2.21-1.65L244,780l-1.78-1.33a1.51,1.51,0,0,0-2.12.3l-8.6,11.46-.08,7Z" transform="translate(-200.33 -542.67)"/><line class="cls-15" x1="31.08" y1="254.89" x2="45.5" y2="254.89"/><rect class="cls-13" x="27.67" y="290.04" width="16.16" height="13.92"/><path class="cls-12" d="M244.16,847.08H228a.47.47,0,0,1-.46-.46V832.7a.46.46,0,0,1,.46-.45h16.15a.45.45,0,0,1,.45.45v13.92A.46.46,0,0,1,244.16,847.08Zm-15.7-.91h15.25v-13H228.46Z" transform="translate(-200.33 -542.67)"/><rect class="cls-2" x="34.07" y="284.75" width="16.16" height="13.92"/><path class="cls-12" d="M250.56,841.79H234.41a.46.46,0,0,1-.46-.45V827.42a.47.47,0,0,1,.46-.46h16.15a.46.46,0,0,1,.45.46v13.92A.45.45,0,0,1,250.56,841.79Zm-15.7-.9h15.25v-13H234.86Z" transform="translate(-200.33 -542.67)"/><line class="cls-16" x1="76.67" y1="140.51" x2="88.67" y2="140.51"/><line class="cls-16" x1="76.67" y1="146.16" x2="88.67" y2="146.16"/><line class="cls-16" x1="79.84" y1="149.33" x2="79.84" y2="137.33"/><line class="cls-16" x1="85.49" y1="149.33" x2="85.49" y2="137.33"/><line class="cls-16" x1="229.67" y1="83.04" x2="241.67" y2="83.04"/><line class="cls-16" x1="229.67" y1="88.68" x2="241.67" y2="88.68"/><line class="cls-16" x1="232.84" y1="91.86" x2="232.84" y2="79.86"/><line class="cls-16" x1="238.49" y1="91.86" x2="238.49" y2="79.86"/><line class="cls-17" x1="77.67" y1="181.98" x2="87.67" y2="181.98"/><line class="cls-17" x1="77.67" y1="186.69" x2="87.67" y2="186.69"/><line class="cls-17" x1="80.31" y1="189.33" x2="80.31" y2="179.33"/><line class="cls-17" x1="85.02" y1="189.33" x2="85.02" y2="179.33"/><line class="cls-17" x1="77.67" y1="222.98" x2="87.67" y2="222.98"/><line class="cls-17" x1="77.67" y1="227.69" x2="87.67" y2="227.69"/><line class="cls-17" x1="80.31" y1="230.33" x2="80.31" y2="220.33"/><line class="cls-17" x1="85.02" y1="230.33" x2="85.02" y2="220.33"/><line class="cls-17" x1="77.67" y1="263.98" x2="87.67" y2="263.98"/><line class="cls-17" x1="77.67" y1="268.69" x2="87.67" y2="268.69"/><line class="cls-17" x1="80.31" y1="271.33" x2="80.31" y2="261.33"/><line class="cls-17" x1="85.02" y1="271.33" x2="85.02" y2="261.33"/><line class="cls-17" x1="77.67" y1="304.98" x2="87.67" y2="304.98"/><line class="cls-17" x1="77.67" y1="309.69" x2="87.67" y2="309.69"/><line class="cls-17" x1="80.31" y1="312.33" x2="80.31" y2="302.33"/><line class="cls-17" x1="85.02" y1="312.33" x2="85.02" y2="302.33"/><rect class="cls-10" x="120" y="53.39" width="83.33" height="22" rx="11"/><rect class="cls-11" x="70.67" y="53.39" width="72" height="22" rx="11"/><line class="cls-18" x1="100.67" y1="61.51" x2="112.67" y2="61.51"/><line class="cls-18" x1="100.67" y1="67.16" x2="112.67" y2="67.16"/><line class="cls-18" x1="103.84" y1="70.33" x2="103.84" y2="58.33"/><line class="cls-18" x1="109.49" y1="70.33" x2="109.49" y2="58.33"/><path class="cls-19" d="M373.36,611.26a6.47,6.47,0,1,0-10.53-2l-.65,4.08,4.09-.65h0A6.45,6.45,0,0,0,373.36,611.26Z" transform="translate(-200.33 -542.67)"/><circle class="cls-2" cx="165.96" cy="64.02" r="0.89"/><circle class="cls-2" cx="168.74" cy="64.02" r="0.89"/><circle class="cls-2" cx="171.52" cy="64.02" r="0.89"/><rect class="cls-20" x="237.67" y="365.33" width="491" height="31" rx="2.83"/><circle class="cls-20" cx="255.67" cy="380.33" r="7.54"/><rect class="cls-21" x="255.1" y="376.42" width="1.54" height="8" rx="0.77"/><rect class="cls-21" x="251.87" y="379.64" width="8" height="1.54" rx="0.77"/><path class="cls-8" d="M265.75,683.5h3.07a.25.25,0,0,1,.22.37l-1.54,2.63L266,689.15a.25.25,0,0,1-.43,0L264,686.51l-1.54-2.64a.24.24,0,0,1,.21-.37Z" transform="translate(-200.33 -542.67)"/><rect class="cls-6" x="100.33" y="180" width="93" height="9.33" rx="2.33"/><rect class="cls-6" x="100.33" y="221" width="93" height="9.33" rx="2.33"/><rect class="cls-6" x="100.33" y="262" width="93" height="9.33" rx="2.33"/><rect class="cls-6" x="100.33" y="303" width="93" height="9.33" rx="2.33"/><line class="cls-22" x1="102.67" y1="194.33" x2="178.67" y2="194.33"/><line class="cls-22" x1="102.67" y1="201.33" x2="147.67" y2="201.33"/><line class="cls-22" x1="102.67" y1="236.33" x2="146.67" y2="236.33"/><line class="cls-22" x1="102.67" y1="243.33" x2="170.67" y2="243.33"/><line class="cls-22" x1="102.67" y1="276.33" x2="136.17" y2="276.33"/><line class="cls-22" x1="102.67" y1="283.33" x2="147.67" y2="283.33"/><line class="cls-22" x1="102.67" y1="319.33" x2="135.67" y2="319.33"/><line class="cls-22" x1="102.67" y1="326.33" x2="170.67" y2="326.33"/><rect class="cls-2" x="27.72" y="138.42" width="22.02" height="15.75" rx="3.2"/><rect class="cls-2" x="27.72" y="138.42" width="22.02" height="15.75" rx="2.43"/><path class="cls-23" d="M247.89,697.39H230.24a2.73,2.73,0,0,1-2.73-2.73V683.27a2.73,2.73,0,0,1,2.73-2.73h17.65a2.73,2.73,0,0,1,2.72,2.73v11.39A2.73,2.73,0,0,1,247.89,697.39Zm-17.65-15.75a1.63,1.63,0,0,0-1.64,1.63v11.39a1.63,1.63,0,0,0,1.64,1.63h17.65a1.63,1.63,0,0,0,1.63-1.63V683.27a1.63,1.63,0,0,0-1.63-1.63Z" transform="translate(-200.33 -542.67)"/><path class="cls-23" d="M238.77,691.78a.55.55,0,0,1-.36-.13l-7.62-6.56a.55.55,0,0,1-.06-.77.54.54,0,0,1,.77-.06l7.28,6.27,7.52-6.11a.55.55,0,0,1,.69.85l-7.88,6.39A.54.54,0,0,1,238.77,691.78Z" transform="translate(-200.33 -542.67)"/><line class="cls-23" x1="33.95" y1="147.64" x2="30.52" y2="150.98"/><path class="cls-23" d="M230.85,694.2a.56.56,0,0,1-.39-.17.55.55,0,0,1,0-.77l3.43-3.35a.55.55,0,0,1,.76.79L231.23,694A.55.55,0,0,1,230.85,694.2Z" transform="translate(-200.33 -542.67)"/><line class="cls-23" x1="43.18" y1="147.64" x2="46.61" y2="151.28"/><path class="cls-23" d="M246.94,694.49a.58.58,0,0,1-.4-.17l-3.43-3.64a.55.55,0,0,1,0-.77.54.54,0,0,1,.77,0l3.43,3.64a.55.55,0,0,1-.4.92Z" transform="translate(-200.33 -542.67)"/><circle class="cls-24" cx="252.25" cy="678.75" r="6.75" transform="translate(-666.7 225.05) rotate(-76.67)"/><path class="cls-23" d="M253.49,681.88h-1.88v-3.62c0-.44,0-.85,0-1.21a4.38,4.38,0,0,1-.43.44l-.78.64-1-1.18,2.35-1.91h1.67Z" transform="translate(-200.33 -542.67)"/><rect class="cls-9" x="16" y="44.98" width="741.33" height="387" rx="4.5"/><text class="cls-25" transform="translate(267.34 384.74)">/메일쓰기</text></svg>