<svg id="Layer_1" data-name="Layer 1" xmlns="http://www.w3.org/2000/svg" viewBox="0 0 260.5 274.95"><defs><style>.cls-1{fill:#fff;}.cls-2{fill:#64c3d9;}.cls-3,.cls-4,.cls-5,.cls-6{fill:none;}.cls-4{stroke:#202123;stroke-linejoin:round;stroke-width:3px;}.cls-4,.cls-5,.cls-6{stroke-linecap:round;}.cls-5{stroke:#b3b5b7;}.cls-5,.cls-6{stroke-miterlimit:10;stroke-width:2px;}.cls-6{stroke:#f53b69;}.cls-10,.cls-7,.cls-9{fill:#202123;}.cls-8{fill:#f5c43c;}.cls-10,.cls-9{font-size:16px;}.cls-9{font-family:NotoSansCJKkr-Bold-KSCpc-EUC-H, Noto Sans CJK KR;}.cls-10{font-family:NotoSansCJKkr-Medium-KSCpc-EUC-H, Noto Sans CJK KR;}</style></defs><title>2_alram</title><rect class="cls-1" x="2.31" y="2.93" width="257.5" height="271.95" rx="17.49"/><path class="cls-2" d="M1312.92,466H1055.43V441.25a16.08,16.08,0,0,1,16.08-16.08h225.33a16.08,16.08,0,0,1,16.08,16.08Z" transform="translate(-1054.11 -422.24)"/><rect class="cls-3" x="1.5" y="1.5" width="257.5" height="271.95" rx="6.05"/><rect class="cls-4" x="1.5" y="1.5" width="257.5" height="271.95" rx="17.49"/><path class="cls-5" d="M1105.26,567.56a6.48,6.48,0,0,1-6.48,6.48h-12.31a6.48,6.48,0,0,1-6.48-6.48V555.24a6.48,6.48,0,0,1,6.48-6.48h12.31a6.47,6.47,0,0,1,3.13.8" transform="translate(-1054.11 -422.24)"/><line class="cls-5" x1="62.89" y1="131.76" x2="211.89" y2="131.76"/><line class="cls-5" x1="62.89" y1="139.76" x2="181.89" y2="139.76"/><line class="cls-5" x1="62.89" y1="147.76" x2="193.89" y2="147.76"/><polyline class="cls-6" points="57.07 118 38.92 144 31.96 134.45"/><path class="cls-5" d="M1105.26,605.73a6.48,6.48,0,0,1-6.48,6.48h-12.31a6.48,6.48,0,0,1-6.48-6.48V593.41a6.48,6.48,0,0,1,6.48-6.48h12.31a6.47,6.47,0,0,1,3.13.8" transform="translate(-1054.11 -422.24)"/><line class="cls-5" x1="62.89" y1="169.76" x2="151.89" y2="169.76"/><line class="cls-5" x1="62.89" y1="177.76" x2="171.89" y2="177.76"/><line class="cls-5" x1="62.89" y1="185.76" x2="188.89" y2="185.76"/><polyline class="cls-6" points="57.07 156.17 38.92 182.16 31.96 172.62"/><path class="cls-5" d="M1105.26,644.55a6.49,6.49,0,0,1-6.48,6.49h-12.31a6.49,6.49,0,0,1-6.48-6.49V632.24a6.48,6.48,0,0,1,6.48-6.48h12.31a6.47,6.47,0,0,1,3.13.8" transform="translate(-1054.11 -422.24)"/><line class="cls-5" x1="62.89" y1="207.76" x2="145.89" y2="207.76"/><line class="cls-5" x1="62.89" y1="216.76" x2="200.89" y2="216.76"/><line class="cls-5" x1="62.89" y1="224.76" x2="163.89" y2="224.76"/><polyline class="cls-6" points="57.07 195 38.92 220.99 31.96 211.45"/><path class="cls-1" d="M1160.88,440.75l.09,6.75a3,3,0,0,1-2.2,2.81c-2.32.82-13.57.07-13.57.07a2.64,2.64,0,0,1-1.38-2.57c0-2-.07-1.25-.07-1.25l-3.81-2.62,3.94-2.06.25-2.82L1146,438h13l1.56,1.06Z" transform="translate(-1054.11 -422.24)"/><path class="cls-7" d="M1158.26,450.8H1146.2a2.94,2.94,0,0,1-2.93-2.93v-1.31l-3.6-2.06a.41.41,0,0,1,0-.72l3.6-2.06v-1.31a2.94,2.94,0,0,1,2.93-2.93h12.06a2.93,2.93,0,0,1,2.93,2.93v7.46A2.93,2.93,0,0,1,1158.26,450.8Zm-17.54-6.66,3.18,1.82a.41.41,0,0,1,.21.36v1.55a2.1,2.1,0,0,0,2.09,2.09h12.06a2.09,2.09,0,0,0,2.09-2.09v-7.46a2.09,2.09,0,0,0-2.09-2.09H1146.2a2.1,2.1,0,0,0-2.09,2.09V442a.41.41,0,0,1-.21.36Z" transform="translate(-1054.11 -422.24)"/><path class="cls-8" d="M1165.54,454.68v-1.55l3.81-2.18-3.81-2.18v-1.55a2.51,2.51,0,0,0-2.51-2.51H1151a2.5,2.5,0,0,0-2.5,2.51v7.46a2.51,2.51,0,0,0,2.5,2.51H1163A2.52,2.52,0,0,0,1165.54,454.68Z" transform="translate(-1054.11 -422.24)"/><path class="cls-7" d="M1163,457.6H1151a2.92,2.92,0,0,1-2.92-2.92v-7.46a2.93,2.93,0,0,1,2.92-2.93H1163a2.93,2.93,0,0,1,2.92,2.93v1.31l3.61,2.06a.41.41,0,0,1,0,.72l-3.61,2.06v1.31A2.92,2.92,0,0,1,1163,457.6ZM1151,445.13a2.1,2.1,0,0,0-2.09,2.09v7.46a2.1,2.1,0,0,0,2.09,2.09H1163a2.1,2.1,0,0,0,2.09-2.09v-1.55a.44.44,0,0,1,.21-.37l3.18-1.81-3.18-1.82a.41.41,0,0,1-.21-.36v-1.55a2.1,2.1,0,0,0-2.09-2.09Z" transform="translate(-1054.11 -422.24)"/><circle class="cls-7" cx="107.05" cy="28.6" r="1.76"/><circle class="cls-7" cx="102.92" cy="28.6" r="1.76"/><circle class="cls-7" cx="98.79" cy="28.6" r="1.76"/><text class="cls-9" transform="translate(118.39 32.15)">알림챗</text><text class="cls-10" transform="translate(76.66 82.15)">좋은아침입니다.</text></svg>