<svg id="Layer_1" data-name="Layer 1" xmlns="http://www.w3.org/2000/svg" viewBox="0 0 392.55 392.28"><defs><style>.cls-1{fill:#0c6bf4;}.cls-2,.cls-3,.cls-6{fill:#fff;}.cls-11,.cls-3,.cls-5,.cls-6{stroke:#202123;stroke-linecap:round;stroke-linejoin:round;}.cls-3,.cls-5,.cls-8,.cls-9{stroke-width:3px;}.cls-4{fill:#89a6f5;}.cls-5{fill:none;}.cls-11,.cls-12,.cls-6{stroke-width:2px;}.cls-7{fill:#e8e8e8;}.cls-12,.cls-8,.cls-9{fill:#f53b69;stroke-miterlimit:10;}.cls-12,.cls-8{stroke:#000;}.cls-9{stroke:#fff;}.cls-10{fill:#202123;}.cls-11{fill:#f5c43c;}</style></defs><title>3_human</title><path class="cls-1" d="M787.1,778.36" transform="translate(-358.53 -457.12)"/><circle class="cls-2" cx="195.26" cy="195.17" r="194.68"/><circle class="cls-3" cx="152.17" cy="112.49" r="9.9"/><circle class="cls-3" cx="236.17" cy="112.49" r="9.9"/><path class="cls-4" d="M577.66,639s51.61-5.34,67.58,48.12,21.76,121,21.76,121H440.64s5.43-67.57,21.4-121S529.28,639,529.28,639Z" transform="translate(-358.53 -457.12)"/><line class="cls-5" x1="189.31" y1="247.16" x2="171.27" y2="182.61"/><line class="cls-5" x1="200.63" y1="247.16" x2="218.67" y2="182.61"/><line class="cls-5" x1="267.22" y1="231.55" x2="267.22" y2="242.41"/><path class="cls-3" d="M529.53,609v30.11s2.44,13.19,22.58,13.19,24-13.88,24-13.88V607.89Z" transform="translate(-358.53 -457.12)"/><path class="cls-6" d="M506.37,578" transform="translate(-358.53 -457.12)"/><path class="cls-6" d="M506.37,556.2" transform="translate(-358.53 -457.12)"/><path class="cls-6" d="M597.4,556.3" transform="translate(-358.53 -457.12)"/><path class="cls-7" d="M531.82,609.52s3.16,21.28,21,21.28c18.63,0,22.42-21.28,22.42-21.28Z" transform="translate(-358.53 -457.12)"/><path class="cls-8" d="M476,810.65l-1.36-99.52A13.46,13.46,0,0,1,488,697.7H623.18a13.46,13.46,0,0,1,13.43,13.43l-1.36,99.52" transform="translate(-358.53 -457.12)"/><circle class="cls-9" cx="195.35" cy="313.18" r="9.08"/><path class="cls-5" d="M577.66,637.58s51.61-3.85,67.58,49.61S667,809.71,667,809.71H440.64s5.43-69.05,21.4-122.52,67.24-49,67.24-49" transform="translate(-358.53 -457.12)"/><path class="cls-3" d="M552.46,621.28c-14.66-.26-41.66-19.79-41.66-44V539.57c0-8.83,6.16-16.05,13.68-16.05h56c7.52,0,13.68,7.22,13.68,16.05v35.6C594.12,600.53,569.28,621.58,552.46,621.28Z" transform="translate(-358.53 -457.12)"/><path class="cls-10" d="M509.13,559.83c.46,1,2.14,1.43,2.63.4,6.76-14.24,9.33-22.57,12.08-27.11a80.61,80.61,0,0,0,4.89-9.19l.85,3.19c7.28,11.43,32.24,14.6,32.24,14.6,16.92,3.31,25.6,11.41,28.25,17.14.25.54.49,1.1.73,1.67,1.09,2.6,3.76,1.6,5.32-.75,2.22-3.36,3.76-16.22,3.76-16.22,1-6.11,1-22,2-32.67.6-6.71,3.49-12.89-7.3-13.75-8.49-.68-25.29-3.17-32-4.2-18.84-3.5-27.16,3.87-27.16,3.87-1.76,2.44-4.25,4.87-6.15,7.77-.16-.08-.3-.18-.47-.25a15.22,15.22,0,0,0-2.41-.78l.07-.27-1.57,0a12.32,12.32,0,0,0-2.78.13c-4.27.25-10.67.85-14.51,2.33-6.15,2.36-9.18,4.94-7.72,15.94.56,4.18,1,8.51,1.35,12.28a14.64,14.64,0,0,0,.65,3.13Z" transform="translate(-358.53 -457.12)"/><path class="cls-5" d="M749.53,649.12c2.28,107.49-83,196.45-190.49,198.73a193.93,193.93,0,0,1-118.4-36.56" transform="translate(-358.53 -457.12)"/><path class="cls-5" d="M471.22,477.44a194.94,194.94,0,0,1,250.31,75.12" transform="translate(-358.53 -457.12)"/><path class="cls-5" d="M361.94,682.65a201.27,201.27,0,0,1-1.87-25.1A194.17,194.17,0,0,1,410.3,522.86" transform="translate(-358.53 -457.12)"/><circle class="cls-11" cx="326.59" cy="211.13" r="4.68"/><path class="cls-10" d="M430,630.5h-4.5V626a1,1,0,0,0-2,0v4.5H419a1,1,0,0,0,0,2h4.5V638a1,1,0,0,0,2,0v-5.5H430a1,1,0,0,0,0-2Z" transform="translate(-358.53 -457.12)"/><circle class="cls-12" cx="40.59" cy="147.13" r="4.68"/></svg>