<svg id="Layer_1" data-name="Layer 1" xmlns="http://www.w3.org/2000/svg" viewBox="0 0 313.85 272.56"><defs><style>.cls-1{fill:#fff;}.cls-2,.cls-4{fill:none;}.cls-10,.cls-2,.cls-3,.cls-7,.cls-9{stroke:#202123;}.cls-2,.cls-4,.cls-9{stroke-linecap:round;}.cls-2,.cls-4,.cls-7,.cls-9{stroke-linejoin:round;}.cls-10,.cls-2,.cls-3,.cls-7,.cls-8,.cls-9{stroke-width:3px;}.cls-3{fill:#5b5bf5;}.cls-10,.cls-3,.cls-8{stroke-miterlimit:10;}.cls-4{stroke:#a5a5a5;stroke-width:2px;}.cls-5{opacity:0.3;}.cls-6{fill:#aaa;}.cls-10,.cls-7,.cls-8{fill:#89a6f5;}.cls-8{stroke:#fff;}.cls-9{fill:#33b0ef;}</style></defs><title>4_robotalram</title><path class="cls-1" d="M1483.48,389.2a134.36,134.36,0,0,0-208.61,117.19l-4.18,3.31-37.84,29.95,44.89,14.69,9.17,2.78A134.46,134.46,0,1,0,1483.48,389.2Z" transform="translate(-1231.35 -366.8)"/><path class="cls-2" d="M1511.09,415.49a134.62,134.62,0,0,1,10.21,162.15,134.52,134.52,0,0,1-186.44,37.82S1317,603.29,1305.54,587" transform="translate(-1231.35 -366.8)"/><path class="cls-2" d="M1483.48,391.2a134.36,134.36,0,0,0-208.61,117.19l-4.18,3.31-37.84,29.95,44.89,14.69,9.17,2.78" transform="translate(-1231.35 -366.8)"/><ellipse class="cls-3" cx="125.4" cy="153.02" rx="23.06" ry="62.86"/><ellipse class="cls-3" cx="226.15" cy="152.02" rx="23.06" ry="62.86"/><path class="cls-1" d="M1443.7,587s31.3,2.22,31.3-37.24V483s3-42-57.86-42h-15.8c-60.81,0-62.34,42-62.34,42v66.78c0,39.46,35.87,37.24,35.87,37.24Z" transform="translate(-1231.35 -366.8)"/><path class="cls-1" d="M1416.7,580h27.15c8.34,0,8.15-10.55,8.15-10.55s.19-19.41,0-58.33c-.17-35.67-40.59-35.12-40.59-35.12h-9.91s-42.49-.79-42.5,34.87c0,38.38,0,58.91,0,58.91s.31,10.22,10.56,10.22h47.14Z" transform="translate(-1231.35 -366.8)"/><path class="cls-4" d="M1360.31,465.47S1347,471.36,1347,489.12V576" transform="translate(-1231.35 -366.8)"/><path class="cls-4" d="M1453.69,465.47s12.31,5.89,12.31,23.65V576" transform="translate(-1231.35 -366.8)"/><g class="cls-5"><path class="cls-6" d="M1440.27,479.05l-70.66,96,54.39.14,19.26,1.3A14.2,14.2,0,0,0,1456,562.71l-1.9-50S1456.33,490.37,1440.27,479.05Z" transform="translate(-1231.35 -366.8)"/></g><path class="cls-4" d="M1462,456.77s-3.45,9.23-11.14,9.23h-87.52c-7.69,0-10.1-10.66-10.1-10.66" transform="translate(-1231.35 -366.8)"/><path class="cls-7" d="M1441.52,517.91c0-11.7-15.09-21.18-34-21.18s-34.06,9.48-34.06,21.18,15.34,21.18,34.21,21.18a49.53,49.53,0,0,0,11.46-1.31l10.32,10.87V533.81C1436.5,529.93,1441.52,524.25,1441.52,517.91Z" transform="translate(-1231.35 -366.8)"/><path class="cls-2" d="M1442.21,586.5s32.29,3.72,32.29-35.74V484s2-43.48-58.85-43.48h-15.8c-60.8,0-61.35,43.48-61.35,43.48v66.78c0,39.46,34.88,35.74,34.88,35.74Z" transform="translate(-1231.35 -366.8)"/><circle class="cls-8" cx="160.65" cy="153.02" r="5"/><circle class="cls-8" cx="176.65" cy="153.02" r="5"/><circle class="cls-8" cx="192.65" cy="153.02" r="5"/><path class="cls-2" d="M1418.7,576.5h27.15c8.34,0,8.15-10.3,8.15-10.3s.19-19.53,0-58.45c-.17-35.67-40.59-35.25-40.59-35.25h-9.91S1361,472,1361,507.62c0,38.38,0,58.79,0,58.79s.31,10.09,10.56,10.09h47.14Z" transform="translate(-1231.35 -366.8)"/><line class="cls-9" x1="175.15" y1="73.2" x2="175.15" y2="47.2"/><circle class="cls-10" cx="175.15" cy="45.2" r="7"/></svg>