<svg id="Layer_1" data-name="Layer 1" xmlns="http://www.w3.org/2000/svg" xmlns:xlink="http://www.w3.org/1999/xlink" viewBox="0 0 771.51 367.91"><defs><style>.cls-1,.cls-24,.cls-26,.cls-3{fill:none;}.cls-2,.cls-20,.cls-25,.cls-28{fill:#d9d7e4;}.cls-20,.cls-24,.cls-25,.cls-26,.cls-28,.cls-29,.cls-3,.cls-5{stroke:#b4b3bc;}.cls-13,.cls-20,.cls-24,.cls-25,.cls-26,.cls-28,.cls-29,.cls-3,.cls-5{stroke-miterlimit:10;}.cls-20,.cls-3,.cls-5{stroke-width:2px;}.cls-29,.cls-4,.cls-5{fill:#f9f9f9;}.cls-6{fill:#b4b3bc;}.cls-7{fill:#fff;}.cls-8{fill:#ebf5f7;}.cls-9{fill:#dedede;}.cls-10{fill:#b3b5b7;}.cls-11{fill:#5c4799;}.cls-12{fill:#64c3d9;}.cls-13{fill:#d7e2f2;stroke:#a6b4c9;stroke-width:3px;}.cls-14{fill:#a3a3a3;}.cls-15{fill:#aaa;}.cls-16{fill:#e2e2e2;}.cls-17{fill:#c1c1c1;}.cls-18{fill:#b5b5b5;}.cls-19{fill:#6d6d6d;}.cls-21{clip-path:url(#clip-path);}.cls-22{fill:#ccc;}.cls-23{clip-path:url(#clip-path-2);}.cls-24,.cls-28{stroke-width:1.5px;}.cls-25,.cls-26,.cls-29{stroke-width:0.8px;}.cls-27{clip-path:url(#clip-path-3);}.cls-30{clip-path:url(#clip-path-4);}.cls-31{clip-path:url(#clip-path-5);}</style><clipPath id="clip-path" transform="translate(-561.05 -356.27)"><rect class="cls-1" x="583.45" y="472.74" width="178.66" height="134.14"/></clipPath><clipPath id="clip-path-2" transform="translate(-561.05 -356.27)"><rect class="cls-1" x="592.34" y="463.78" width="121.48" height="239.52" rx="15.17"/></clipPath><clipPath id="clip-path-3" transform="translate(-561.05 -356.27)"><rect class="cls-1" x="866.07" y="600.89" width="50.74" height="81.93"/></clipPath><clipPath id="clip-path-4" transform="translate(-561.05 -356.27)"><rect class="cls-1" x="762.23" y="563.65" width="80.35" height="115.57"/></clipPath><clipPath id="clip-path-5" transform="translate(-561.05 -356.27)"><rect class="cls-1" x="761.34" y="558.26" width="83.49" height="164.61" rx="15.17"/></clipPath></defs><title>1_device</title><path class="cls-2" d="M1110.07,357.27H768.79a8.94,8.94,0,0,0-8.93,9V574.17a8.93,8.93,0,0,0,8.93,8.93h341.28a9,9,0,0,0,9-8.93V366.22A9,9,0,0,0,1110.07,357.27Z" transform="translate(-561.05 -356.27)"/><path class="cls-3" d="M1110.07,357.27H768.79a8.94,8.94,0,0,0-8.93,9V574.17a8.93,8.93,0,0,0,8.93,8.93h341.28a9,9,0,0,0,9-8.93V366.22A9,9,0,0,0,1110.07,357.27Z" transform="translate(-561.05 -356.27)"/><rect class="cls-2" x="217.29" y="18.76" width="322.21" height="188.58"/><rect class="cls-4" x="217.29" y="18.76" width="322.21" height="188.58"/><rect class="cls-3" x="217.29" y="18.76" width="322.21" height="188.58"/><path class="cls-5" d="M942.51,366.44a3.07,3.07,0,1,1-3.07-3.07A3.07,3.07,0,0,1,942.51,366.44Z" transform="translate(-561.05 -356.27)"/><path class="cls-2" d="M949.41,583.1c0,.26,0,.53,0,.81v24.36a10,10,0,0,1-20,0V583.91c0-.28,0-.55,0-.81H915.21v47.24h48.47V583.1Z" transform="translate(-561.05 -356.27)"/><path class="cls-3" d="M949.41,583.1c0,.26,0,.53,0,.81v24.36a10,10,0,0,1-20,0V583.91c0-.28,0-.55,0-.81H915.21v47.24h48.47V583.1Z" transform="translate(-561.05 -356.27)"/><rect class="cls-2" x="304.97" y="271.98" width="146.84" height="11.69"/><rect class="cls-3" x="304.97" y="271.98" width="146.84" height="11.69"/><rect class="cls-4" x="217.29" y="196.78" width="322.21" height="10.7"/><rect class="cls-3" x="217.29" y="196.78" width="322.21" height="10.7"/><path class="cls-6" d="M1096.79,558.4a2.49,2.49,0,1,1-2.49-2.49A2.49,2.49,0,0,1,1096.79,558.4Z" transform="translate(-561.05 -356.27)"/><path class="cls-6" d="M1088.88,558.4a2.49,2.49,0,1,1-2.48-2.49A2.49,2.49,0,0,1,1088.88,558.4Z" transform="translate(-561.05 -356.27)"/><rect class="cls-6" x="224.32" y="201.03" width="15.15" height="2.22"/><rect class="cls-2" x="253.27" y="35.76" width="250.43" height="143.41" rx="5.38"/><rect class="cls-7" x="258.12" y="49.64" width="239.44" height="125" rx="1.45"/><rect class="cls-8" x="326.91" y="73.33" width="166.48" height="19.38" rx="1.24"/><rect class="cls-9" x="333.91" y="60.26" width="58.68" height="5.17" rx="2.02"/><path class="cls-10" d="M892.06,418.3h-3.88a.33.33,0,0,1,0-.65h3.88a.33.33,0,0,1,0,.65Z" transform="translate(-561.05 -356.27)"/><path class="cls-10" d="M892.06,419.91h-3.88a.32.32,0,0,1,0-.64h3.88a.32.32,0,0,1,0,.64Z" transform="translate(-561.05 -356.27)"/><path class="cls-10" d="M889.15,421.05a.32.32,0,0,1-.32-.32v-3.88a.32.32,0,0,1,.64,0v3.88A.32.32,0,0,1,889.15,421.05Z" transform="translate(-561.05 -356.27)"/><path class="cls-10" d="M891.09,421.05a.32.32,0,0,1-.33-.32v-3.88a.32.32,0,0,1,.33-.32.32.32,0,0,1,.32.32v3.88A.32.32,0,0,1,891.09,421.05Z" transform="translate(-561.05 -356.27)"/><rect class="cls-8" x="272.38" y="49.75" width="50.87" height="125"/><circle class="cls-7" cx="260.27" cy="42.76" r="1.72"/><circle class="cls-7" cx="266.41" cy="42.76" r="1.72"/><circle class="cls-7" cx="272.54" cy="42.76" r="1.72"/><rect class="cls-7" x="280.51" y="41.14" width="69.23" height="3.01" rx="1.51"/><rect class="cls-11" x="291.71" y="52.68" width="26.92" height="7.11" rx="3.55"/><rect class="cls-7" x="275.77" y="64.95" width="42.85" height="7.11" rx="1.79"/><rect class="cls-12" x="275.77" y="52.68" width="23.26" height="7.11" rx="3.55"/><path class="cls-13" d="M836.82,439" transform="translate(-561.05 -356.27)"/><path class="cls-9" d="M1054.2,425h0Z" transform="translate(-561.05 -356.27)"/><rect class="cls-9" x="341.44" y="101.83" width="45.12" height="5.55" rx="2.78"/><path class="cls-10" d="M894.6,466.81a5.94,5.94,0,1,1,5.94-5.94A5.94,5.94,0,0,1,894.6,466.81Zm0-11.23a5.29,5.29,0,1,0,5.29,5.29A5.3,5.3,0,0,0,894.6,455.58Z" transform="translate(-561.05 -356.27)"/><path class="cls-10" d="M894.6,461.58a2,2,0,1,0-2-2A2,2,0,0,0,894.6,461.58Z" transform="translate(-561.05 -356.27)"/><path class="cls-10" d="M898.12,465.25c-.64-1.71-1.67-3.16-3.52-3.16s-2.88,1.45-3.51,3.16a5.6,5.6,0,0,0,7,0Z" transform="translate(-561.05 -356.27)"/><rect class="cls-9" x="401.58" y="80.28" width="69.97" height="5.55" rx="2.78"/><path class="cls-10" d="M1040.49,445.26a5.94,5.94,0,1,1,5.93-5.93A5.94,5.94,0,0,1,1040.49,445.26Zm0-11.22a5.29,5.29,0,1,0,5.29,5.29A5.29,5.29,0,0,0,1040.49,434Z" transform="translate(-561.05 -356.27)"/><path class="cls-10" d="M1040.49,440a2,2,0,1,1,2-2A2,2,0,0,1,1040.49,440Z" transform="translate(-561.05 -356.27)"/><path class="cls-10" d="M1037,443.7c.64-1.71,1.67-3.16,3.52-3.16s2.88,1.45,3.51,3.16a5.6,5.6,0,0,1-7,0Z" transform="translate(-561.05 -356.27)"/><path class="cls-9" d="M875.63,426a1.85,1.85,0,1,1,1.84-1.84A1.84,1.84,0,0,1,875.63,426Zm0-3a1.2,1.2,0,1,0,1.19,1.2A1.2,1.2,0,0,0,875.63,423Z" transform="translate(-561.05 -356.27)"/><path class="cls-9" d="M877.72,426.78a.34.34,0,0,1-.23-.1l-1.08-1.14a.32.32,0,1,1,.47-.44l1.08,1.13a.33.33,0,0,1,0,.46A.31.31,0,0,1,877.72,426.78Z" transform="translate(-561.05 -356.27)"/><polygon class="cls-9" points="342.31 115.97 342.31 125.98 351.03 125.98 351.03 124.33 351.03 118.66 347.46 115.97 342.31 115.97"/><polygon class="cls-9" points="384.95 115.97 384.95 125.98 393.34 125.98 393.34 124.33 393.34 118.66 389.98 115.97 384.95 115.97"/><path class="cls-14" d="M1059.37,535.76H819.71a5.71,5.71,0,0,1-5.71-5.71V397.41a5.71,5.71,0,0,1,5.71-5.71h239.66a5.71,5.71,0,0,1,5.7,5.71V530.05A5.71,5.71,0,0,1,1059.37,535.76ZM819.71,392.35a5.07,5.07,0,0,0-5.06,5.06V530.05a5.07,5.07,0,0,0,5.06,5.06h239.66a5.07,5.07,0,0,0,5.06-5.06V397.41a5.07,5.07,0,0,0-5.06-5.06Z" transform="translate(-561.05 -356.27)"/><path class="cls-11" d="M823.82,419.25a1.18,1.18,0,0,0,.17-.62,1.21,1.21,0,1,0-1.21,1.21,1.16,1.16,0,0,0,.69-.22l1.72,1.72.36-.36Z" transform="translate(-561.05 -356.27)"/><path class="cls-12" d="M825.52,415.48a1.27,1.27,0,0,1-.16-.62,1.2,1.2,0,1,1,.51,1l-1.71,1.72-.36-.36Z" transform="translate(-561.05 -356.27)"/><path class="cls-11" d="M829.29,417.8a1.26,1.26,0,0,0-.16.61,1.2,1.2,0,1,0,.51-1l-1.71-1.71-.36.36Z" transform="translate(-561.05 -356.27)"/><path class="cls-12" d="M827.59,421.57a1.17,1.17,0,0,1,.17.61,1.21,1.21,0,1,1-1.21-1.21,1.16,1.16,0,0,1,.69.22l1.72-1.71.36.36Z" transform="translate(-561.05 -356.27)"/><path class="cls-12" d="M825.39,418.83a.5.5,0,0,0,.08-.26.52.52,0,0,0-.52-.52.52.52,0,0,0-.52.52.52.52,0,0,0,.52.52.48.48,0,0,0,.29-.1l.73.73.16-.15Z" transform="translate(-561.05 -356.27)"/><path class="cls-11" d="M826.12,417.22a.44.44,0,0,1-.07-.26.52.52,0,1,1,.51.52.55.55,0,0,1-.29-.09l-.73.73-.16-.16Z" transform="translate(-561.05 -356.27)"/><path class="cls-12" d="M827.72,418.21a.6.6,0,0,0-.07.27.51.51,0,0,0,.52.51.52.52,0,1,0,0-1,.53.53,0,0,0-.3.09l-.73-.73-.15.16Z" transform="translate(-561.05 -356.27)"/><path class="cls-11" d="M827,419.82a.48.48,0,0,1,.07.26.52.52,0,1,1-.51-.51.48.48,0,0,1,.29.09l.73-.73.16.15Z" transform="translate(-561.05 -356.27)"/><rect class="cls-7" x="261.73" y="95.89" width="7.6" height="6.27" rx="0.7"/><path class="cls-15" d="M822.64,457.74v-4.88a.85.85,0,0,1,.84-.84h6.2a.85.85,0,0,1,.84.84v4.88a.85.85,0,0,1-.84.84h-6.2A.85.85,0,0,1,822.64,457.74Zm7.6-4.88a.56.56,0,0,0-.56-.55h-6.2a.56.56,0,0,0-.56.55v4.88a.56.56,0,0,0,.56.56h6.2a.56.56,0,0,0,.56-.56Z" transform="translate(-561.05 -356.27)"/><path class="cls-16" d="M830.38,453.39h-7.6v-.53a.7.7,0,0,1,.7-.7h6.2a.7.7,0,0,1,.7.7Z" transform="translate(-561.05 -356.27)"/><path class="cls-15" d="M822.64,453.39v-.53a.85.85,0,0,1,.84-.84h6.2a.85.85,0,0,1,.84.84v.53a.15.15,0,0,1-.14.15h-7.6A.15.15,0,0,1,822.64,453.39Zm7.6-.53a.56.56,0,0,0-.56-.55h-6.2a.56.56,0,0,0-.56.55v.39h7.32Z" transform="translate(-561.05 -356.27)"/><path class="cls-15" d="M829.21,452.59v0Z" transform="translate(-561.05 -356.27)"/><path class="cls-15" d="M829.07,452.59v-.84a.14.14,0,0,1,.28,0v.84a.14.14,0,1,1-.28,0Z" transform="translate(-561.05 -356.27)"/><path class="cls-15" d="M828.16,452.59v0Z" transform="translate(-561.05 -356.27)"/><path class="cls-15" d="M828,452.59v-.84a.14.14,0,0,1,.14-.14.14.14,0,0,1,.14.14v.84a.14.14,0,0,1-.14.14A.14.14,0,0,1,828,452.59Z" transform="translate(-561.05 -356.27)"/><path class="cls-15" d="M827.11,452.59v0Z" transform="translate(-561.05 -356.27)"/><path class="cls-15" d="M827,452.59v-.84a.15.15,0,0,1,.15-.14.14.14,0,0,1,.14.14v.84a.14.14,0,0,1-.14.14A.15.15,0,0,1,827,452.59Z" transform="translate(-561.05 -356.27)"/><path class="cls-15" d="M826.06,452.59v0Z" transform="translate(-561.05 -356.27)"/><path class="cls-15" d="M825.91,452.59v-.84a.15.15,0,0,1,.15-.14.14.14,0,0,1,.14.14v.84a.14.14,0,0,1-.14.14A.15.15,0,0,1,825.91,452.59Z" transform="translate(-561.05 -356.27)"/><path class="cls-15" d="M825,452.59v0Z" transform="translate(-561.05 -356.27)"/><path class="cls-15" d="M824.86,452.59v-.84a.14.14,0,0,1,.14-.14.15.15,0,0,1,.15.14v.84a.15.15,0,0,1-.15.14A.14.14,0,0,1,824.86,452.59Z" transform="translate(-561.05 -356.27)"/><path class="cls-15" d="M824,452.59v0Z" transform="translate(-561.05 -356.27)"/><path class="cls-15" d="M823.81,452.59v-.84a.14.14,0,0,1,.14-.14.14.14,0,0,1,.14.14v.84a.14.14,0,0,1-.14.14A.14.14,0,0,1,823.81,452.59Z" transform="translate(-561.05 -356.27)"/><path class="cls-15" d="M824.05,474.21l-.17-.13,0-2.4,2.81-3.74a.64.64,0,0,1,.43-.25.63.63,0,0,1,.48.12l1.4,1.05a.67.67,0,0,1,.26.43.64.64,0,0,1-.13.48l-2.81,3.74Zm.17-2.42,0,2,1.95-.59,2.75-3.66a.35.35,0,0,0,.06-.24.32.32,0,0,0-.13-.22l-1.4-1.05a.34.34,0,0,0-.46.06Z" transform="translate(-561.05 -356.27)"/><path class="cls-15" d="M828.7,474.19H824a.16.16,0,0,1,0-.32h4.66a.16.16,0,0,1,0,.32Z" transform="translate(-561.05 -356.27)"/><rect class="cls-16" x="261.89" y="129.11" width="5.22" height="4.5"/><path class="cls-15" d="M828.16,490h-5.22a.15.15,0,0,1-.15-.15v-4.5a.15.15,0,0,1,.15-.14h5.22a.14.14,0,0,1,.14.14v4.5A.15.15,0,0,1,828.16,490Zm-5.08-.3H828v-4.2h-4.93Z" transform="translate(-561.05 -356.27)"/><rect class="cls-7" x="263.95" y="127.41" width="5.22" height="4.5"/><path class="cls-15" d="M830.22,488.32H825a.15.15,0,0,1-.14-.15v-4.49a.15.15,0,0,1,.14-.15h5.22a.15.15,0,0,1,.15.15v4.49A.15.15,0,0,1,830.22,488.32Zm-5.07-.29h4.93v-4.21h-4.93Z" transform="translate(-561.05 -356.27)"/><path class="cls-7" d="M850.39,411.84h-3.88a.33.33,0,0,1,0-.65h3.88a.33.33,0,0,1,0,.65Z" transform="translate(-561.05 -356.27)"/><path class="cls-7" d="M850.39,413.78h-3.88a.33.33,0,0,1-.32-.33.32.32,0,0,1,.32-.32h3.88a.32.32,0,0,1,.32.32A.32.32,0,0,1,850.39,413.78Z" transform="translate(-561.05 -356.27)"/><path class="cls-7" d="M847.48,414.74a.32.32,0,0,1-.32-.32v-3.87a.33.33,0,1,1,.65,0v3.87A.32.32,0,0,1,847.48,414.74Z" transform="translate(-561.05 -356.27)"/><path class="cls-7" d="M849.42,414.74a.32.32,0,0,1-.32-.32v-3.87a.32.32,0,1,1,.64,0v3.87A.32.32,0,0,1,849.42,414.74Z" transform="translate(-561.05 -356.27)"/><path class="cls-7" d="M866.28,414.76a.24.24,0,0,1-.17-.07.25.25,0,0,1-.07-.21l.2-1.26a2.31,2.31,0,0,1,.52-2.49,2.33,2.33,0,0,1,3.3,3.3h0a2.33,2.33,0,0,1-2.49.53l-1.26.19Zm1.32-.7.09,0a1.84,1.84,0,0,0,2-.39h0a1.89,1.89,0,0,0,.54-1.31,1.85,1.85,0,0,0-3.16-1.3,1.83,1.83,0,0,0-.39,2,.2.2,0,0,1,0,.13l-.15,1,1-.15Z" transform="translate(-561.05 -356.27)"/><circle class="cls-7" cx="306.55" cy="56.11" r="0.29"/><circle class="cls-7" cx="307.45" cy="56.11" r="0.29"/><circle class="cls-7" cx="308.35" cy="56.11" r="0.29"/><rect class="cls-7" x="261.9" y="80.14" width="7.11" height="5.09" rx="1.95"/><rect class="cls-7" x="261.9" y="80.14" width="7.11" height="5.09" rx="1.95"/><path class="cls-15" d="M829.36,441.68h-5.7a.88.88,0,0,1-.88-.88v-3.68a.87.87,0,0,1,.88-.88h5.7a.87.87,0,0,1,.88.88v3.68A.88.88,0,0,1,829.36,441.68Zm-5.7-5.09a.53.53,0,0,0-.53.53v3.68a.53.53,0,0,0,.53.53h5.7a.53.53,0,0,0,.53-.53v-3.68a.53.53,0,0,0-.53-.53Z" transform="translate(-561.05 -356.27)"/><path class="cls-15" d="M826.41,439.87a.21.21,0,0,1-.11,0l-2.46-2.12a.18.18,0,0,1,0-.25.17.17,0,0,1,.25,0l2.35,2,2.43-2a.18.18,0,0,1,.25,0,.17.17,0,0,1,0,.24l-2.54,2.07A.28.28,0,0,1,826.41,439.87Z" transform="translate(-561.05 -356.27)"/><line class="cls-15" x1="263.91" y1="83.12" x2="262.81" y2="84.2"/><path class="cls-15" d="M823.86,440.65a.19.19,0,0,1-.13-.31l1.11-1.08a.18.18,0,0,1,.25,0,.18.18,0,0,1,0,.25L824,440.6A.18.18,0,0,1,823.86,440.65Z" transform="translate(-561.05 -356.27)"/><line class="cls-15" x1="266.9" y1="83.12" x2="268" y2="84.3"/><path class="cls-15" d="M829.05,440.74a.18.18,0,0,1-.12-.05l-1.11-1.18a.17.17,0,0,1,0-.25.17.17,0,0,1,.24,0l1.11,1.18a.17.17,0,0,1,0,.25A.16.16,0,0,1,829.05,440.74Z" transform="translate(-561.05 -356.27)"/><path class="cls-17" d="M1053.28,516.81H889a1.24,1.24,0,0,1-1.24-1.24v-8.18a1.24,1.24,0,0,1,1.24-1.24h164.33a1.24,1.24,0,0,1,1.24,1.24v8.18A1.24,1.24,0,0,1,1053.28,516.81ZM889,506.8a.59.59,0,0,0-.6.59v8.18a.59.59,0,0,0,.6.59h164.33a.59.59,0,0,0,.6-.59v-8.18a.59.59,0,0,0-.6-.59Z" transform="translate(-561.05 -356.27)"/><path class="cls-17" d="M893.26,514a2.68,2.68,0,1,1,2.78-2.68A2.73,2.73,0,0,1,893.26,514Zm0-4.87a2.19,2.19,0,1,0,2.3,2.19A2.24,2.24,0,0,0,893.26,509.13Z" transform="translate(-561.05 -356.27)"/><rect class="cls-17" x="332.02" y="153.78" width="0.52" height="2.58" rx="0.25"/><rect class="cls-17" x="330.94" y="154.83" width="2.69" height="0.5" rx="0.25"/><path class="cls-13" d="M839.73,437.68" transform="translate(-561.05 -356.27)"/><path class="cls-10" d="M845.55,436.06h-3.88a.32.32,0,0,1,0-.64h3.88a.32.32,0,0,1,0,.64Z" transform="translate(-561.05 -356.27)"/><path class="cls-10" d="M845.55,438h-3.88a.32.32,0,0,1-.32-.32.32.32,0,0,1,.32-.33h3.88a.33.33,0,0,1,.32.33A.32.32,0,0,1,845.55,438Z" transform="translate(-561.05 -356.27)"/><path class="cls-10" d="M842.64,439a.32.32,0,0,1-.32-.32v-3.88a.32.32,0,1,1,.64,0v3.88A.32.32,0,0,1,842.64,439Z" transform="translate(-561.05 -356.27)"/><path class="cls-10" d="M844.58,439a.33.33,0,0,1-.33-.32v-3.88a.32.32,0,0,1,.33-.32.32.32,0,0,1,.32.32v3.88A.32.32,0,0,1,844.58,439Z" transform="translate(-561.05 -356.27)"/><path class="cls-10" d="M845.22,449.3H842c-.13,0-.24,0-.24-.16s.11-.16.24-.16h3.23c.14,0,.24,0,.24.16S845.36,449.3,845.22,449.3Z" transform="translate(-561.05 -356.27)"/><path class="cls-10" d="M845.22,450.92H842c-.13,0-.24,0-.24-.16s.11-.16.24-.16h3.23c.14,0,.24,0,.24.16S845.36,450.92,845.22,450.92Z" transform="translate(-561.05 -356.27)"/><path class="cls-10" d="M842.8,451.81c-.13,0-.16-.11-.16-.24v-3.23c0-.14,0-.25.16-.25s.16.11.16.25v3.23C843,451.7,842.93,451.81,842.8,451.81Z" transform="translate(-561.05 -356.27)"/><path class="cls-10" d="M844.42,451.81c-.14,0-.17-.11-.17-.24v-3.23c0-.14,0-.25.17-.25s.16.11.16.25v3.23C844.58,451.7,844.55,451.81,844.42,451.81Z" transform="translate(-561.05 -356.27)"/><path class="cls-10" d="M845.22,462.55H842c-.13,0-.24,0-.24-.16s.11-.17.24-.17h3.23c.14,0,.24,0,.24.17S845.36,462.55,845.22,462.55Z" transform="translate(-561.05 -356.27)"/><path class="cls-10" d="M845.22,464.16H842c-.13,0-.24,0-.24-.16s.11-.16.24-.16h3.23c.14,0,.24,0,.24.16S845.36,464.16,845.22,464.16Z" transform="translate(-561.05 -356.27)"/><path class="cls-10" d="M842.8,465.05c-.13,0-.16-.11-.16-.24v-3.23c0-.14,0-.24.16-.24s.16.1.16.24v3.23C843,464.94,842.93,465.05,842.8,465.05Z" transform="translate(-561.05 -356.27)"/><path class="cls-10" d="M844.42,465.05c-.14,0-.17-.11-.17-.24v-3.23c0-.14,0-.24.17-.24s.16.1.16.24v3.23C844.58,464.94,844.55,465.05,844.42,465.05Z" transform="translate(-561.05 -356.27)"/><path class="cls-10" d="M845.22,475.79H842c-.13,0-.24,0-.24-.16s.11-.16.24-.16h3.23c.14,0,.24,0,.24.16S845.36,475.79,845.22,475.79Z" transform="translate(-561.05 -356.27)"/><path class="cls-10" d="M845.22,477.41H842c-.13,0-.24,0-.24-.17s.11-.16.24-.16h3.23c.14,0,.24,0,.24.16S845.36,477.41,845.22,477.41Z" transform="translate(-561.05 -356.27)"/><path class="cls-10" d="M842.8,478.29c-.13,0-.16-.11-.16-.24v-3.23c0-.13,0-.24.16-.24s.16.11.16.24v3.23C843,478.18,842.93,478.29,842.8,478.29Z" transform="translate(-561.05 -356.27)"/><path class="cls-10" d="M844.42,478.29c-.14,0-.17-.11-.17-.24v-3.23c0-.13,0-.24.17-.24s.16.11.16.24v3.23C844.58,478.18,844.55,478.29,844.42,478.29Z" transform="translate(-561.05 -356.27)"/><path class="cls-10" d="M845.22,489H842c-.13,0-.24,0-.24-.16s.11-.16.24-.16h3.23c.14,0,.24,0,.24.16S845.36,489,845.22,489Z" transform="translate(-561.05 -356.27)"/><path class="cls-10" d="M845.22,490.65H842c-.13,0-.24,0-.24-.16s.11-.17.24-.17h3.23c.14,0,.24,0,.24.17S845.36,490.65,845.22,490.65Z" transform="translate(-561.05 -356.27)"/><path class="cls-10" d="M842.8,491.54c-.13,0-.16-.11-.16-.25v-3.23c0-.13,0-.24.16-.24s.16.11.16.24v3.23C843,491.43,842.93,491.54,842.8,491.54Z" transform="translate(-561.05 -356.27)"/><path class="cls-10" d="M844.42,491.54c-.14,0-.17-.11-.17-.25v-3.23c0-.13,0-.24.17-.24s.16.11.16.24v3.23C844.58,491.43,844.55,491.54,844.42,491.54Z" transform="translate(-561.05 -356.27)"/><path class="cls-10" d="M838,435.9h1a.08.08,0,0,1,.07.12l-.5.85-.5.86a.08.08,0,0,1-.13,0l-.5-.86L837,436a.08.08,0,0,1,.07-.12Z" transform="translate(-561.05 -356.27)"/><rect class="cls-9" x="288.26" y="92.28" width="30.04" height="3.01" rx="0.75"/><rect class="cls-9" x="288.26" y="105.52" width="30.04" height="3.01" rx="0.75"/><rect class="cls-9" x="288.26" y="118.77" width="30.04" height="3.01" rx="0.75"/><rect class="cls-9" x="288.26" y="132.01" width="30.04" height="3.01" rx="0.75"/><path class="cls-9" d="M874.61,453h0Z" transform="translate(-561.05 -356.27)"/><path class="cls-9" d="M864.6,455H850.07c-.27,0-.49.27-.49,0s.22,0,.49,0H864.6c.27,0,.49-.27.49,0S864.87,455,864.6,455Z" transform="translate(-561.05 -356.27)"/><path class="cls-9" d="M864.28,468H850.07a.5.5,0,0,1,0-1h14.21a.5.5,0,0,1,0,1Z" transform="translate(-561.05 -356.27)"/><path class="cls-9" d="M872,468h-22c-.27,0-.49,1-.49,0h22.94C872.52,469,872.3,468,872,468Z" transform="translate(-561.05 -356.27)"/><path class="cls-9" d="M860.89,480H850.07a.5.5,0,0,1,0-1h10.82a.5.5,0,0,1,0,1Z" transform="translate(-561.05 -356.27)"/><path class="cls-9" d="M872,494h-22a.5.5,0,0,1,0-1h22a.5.5,0,0,1,0,1Z" transform="translate(-561.05 -356.27)"/><path class="cls-9" d="M872,454h-22a.5.5,0,0,1,0-1h22a.5.5,0,0,1,0,1Z" transform="translate(-561.05 -356.27)"/><rect class="cls-8" x="414.52" y="130.18" width="78.87" height="10.5" rx="0.81"/><path class="cls-18" d="M1053.39,489.91a.23.23,0,0,1-.17-.07l-2-2a.24.24,0,0,1,0-.35.25.25,0,0,1,.34,0l2,2a.23.23,0,0,1,0,.34A.23.23,0,0,1,1053.39,489.91Z" transform="translate(-561.05 -356.27)"/><path class="cls-18" d="M1051.36,489.91a.21.21,0,0,1-.17-.07.23.23,0,0,1,0-.34l2-2a.25.25,0,0,1,.34,0,.24.24,0,0,1,0,.35l-2,2A.23.23,0,0,1,1051.36,489.91Z" transform="translate(-561.05 -356.27)"/><circle class="cls-10" cx="421.32" cy="132.79" r="0.47"/><path class="cls-19" d="M982.37,489.69a.63.63,0,0,1-.63-.63.63.63,0,0,1,.63-.63.64.64,0,0,1,.63.63A.63.63,0,0,1,982.37,489.69Zm0-.93a.3.3,0,0,0-.31.3.31.31,0,0,0,.31.31.3.3,0,0,0,.3-.31A.29.29,0,0,0,982.37,488.76Z" transform="translate(-561.05 -356.27)"/><ellipse class="cls-7" cx="421.32" cy="137.85" rx="0.98" ry="1.15"/><path class="cls-19" d="M982.37,495.43a1.33,1.33,0,1,1,1.14-1.31A1.24,1.24,0,0,1,982.37,495.43Zm0-2.31a1,1,0,0,0,0,2,1,1,0,0,0,0-2Z" transform="translate(-561.05 -356.27)"/><path class="cls-10" d="M982.77,494.45h2a.38.38,0,0,0,.33-.57l-.59-1a.75.75,0,0,1-.1-.36v-1.36a1.68,1.68,0,0,0-.18-.77,2,2,0,0,0-1.66-1.06h-.26a2,2,0,0,0-1.65,1.06,1.57,1.57,0,0,0-.19.77v1.36a.74.74,0,0,1-.09.36l-.59,1a.38.38,0,0,0,.32.57h2.71Z" transform="translate(-561.05 -356.27)"/><path class="cls-19" d="M984.72,494.61h-4.66a.53.53,0,0,1-.46-.81l.59-1a.6.6,0,0,0,.07-.27v-1.36a1.9,1.9,0,0,1,.2-.85,2.15,2.15,0,0,1,1.8-1.14h.26a2.14,2.14,0,0,1,1.8,1.14,1.9,1.9,0,0,1,.2.85v1.36a.5.5,0,0,0,.08.27l.59,1a.52.52,0,0,1,0,.54A.53.53,0,0,1,984.72,494.61Zm-2.2-5.12h-.26a1.81,1.81,0,0,0-1.51,1,1.51,1.51,0,0,0-.17.7v1.36a.93.93,0,0,1-.11.44l-.59,1a.24.24,0,0,0,0,.22.21.21,0,0,0,.19.11h4.66a.21.21,0,0,0,.19-.11.22.22,0,0,0,0-.22l-.59-1a.83.83,0,0,1-.12-.44v-1.36a1.63,1.63,0,0,0-.16-.7A1.83,1.83,0,0,0,982.52,489.49Z" transform="translate(-561.05 -356.27)"/><path class="cls-7" d="M1021,493H990.21a.5.5,0,0,1,0-1H1021a.5.5,0,0,1,0,1Z" transform="translate(-561.05 -356.27)"/><path class="cls-7" d="M1137,482.28a1.5,1.5,0,0,0,0-3,1.5,1.5,0,0,0,0,3Z" transform="translate(-561.05 -356.27)"/><path class="cls-20" d="M562.05,464.08V615.53a11,11,0,0,0,11,11H781.26a11,11,0,0,0,11-11V464.08a11,11,0,0,0-11-11H573.09A11,11,0,0,0,562.05,464.08Z" transform="translate(-561.05 -356.27)"/><path class="cls-6" d="M783.83,538.86a6.72,6.72,0,1,1-6.72-6.72A6.73,6.73,0,0,1,783.83,538.86Z" transform="translate(-561.05 -356.27)"/><path class="cls-20" d="M772.44,538.86a4.67,4.67,0,1,0,4.67-4.66A4.67,4.67,0,0,0,772.44,538.86Z" transform="translate(-561.05 -356.27)"/><path class="cls-6" d="M575,538.86a2.44,2.44,0,1,1-2.43-2.44A2.43,2.43,0,0,1,575,538.86Z" transform="translate(-561.05 -356.27)"/><rect class="cls-8" x="22.4" y="116.47" width="178.66" height="134.14"/><g class="cls-21"><path class="cls-7" d="M759.47,703.17H583.17c-5.15,0-9.34-2.6-9.34-5.82V469.47c0-3.22,4.19-5.82,9.34-5.82h176.3c5.16,0,9.34,2.6,9.34,5.82V697.35C768.81,700.57,764.63,703.17,759.47,703.17Z" transform="translate(-561.05 -356.27)"/><path class="cls-11" d="M602.12,483.88a1.7,1.7,0,0,0,.23-.84,1.65,1.65,0,1,0-.7,1.35l2.32,2.33.5-.5Z" transform="translate(-561.05 -356.27)"/><path class="cls-12" d="M604.43,478.76a1.57,1.57,0,0,1-.23-.83,1.65,1.65,0,1,1,1.64,1.64,1.62,1.62,0,0,1-.94-.3l-2.32,2.33-.5-.49Z" transform="translate(-561.05 -356.27)"/><path class="cls-11" d="M609.55,481.91a1.6,1.6,0,0,0-.23.84,1.65,1.65,0,0,0,3.29,0A1.65,1.65,0,0,0,611,481.1a1.62,1.62,0,0,0-.94.3l-2.33-2.33-.49.5Z" transform="translate(-561.05 -356.27)"/><path class="cls-12" d="M607.24,487a1.64,1.64,0,0,1-1.42,2.48,1.65,1.65,0,0,1,0-3.29,1.6,1.6,0,0,1,.94.3l2.33-2.33.49.49Z" transform="translate(-561.05 -356.27)"/><path class="cls-12" d="M604.25,483.31a.68.68,0,0,0,.1-.35.7.7,0,1,0-.7.7.68.68,0,0,0,.4-.13l1,1,.21-.21Z" transform="translate(-561.05 -356.27)"/><path class="cls-11" d="M605.24,481.13a.6.6,0,0,1-.1-.35.7.7,0,1,1,.7.7.68.68,0,0,1-.4-.13l-1,1-.21-.21Z" transform="translate(-561.05 -356.27)"/><path class="cls-12" d="M607.42,482.48a.6.6,0,0,0-.1.35.7.7,0,1,0,.7-.7.68.68,0,0,0-.4.13l-1-1-.21.21Z" transform="translate(-561.05 -356.27)"/><path class="cls-11" d="M606.43,484.66a.68.68,0,0,1,.1.35.7.7,0,1,1-.7-.7.68.68,0,0,1,.4.13l1-1,.21.21Z" transform="translate(-561.05 -356.27)"/><path class="cls-22" d="M733.12,484.75a3,3,0,1,1,3-3A3,3,0,0,1,733.12,484.75Zm0-4.92a1.94,1.94,0,1,0,1.94,1.94A1.93,1.93,0,0,0,733.12,479.83Z" transform="translate(-561.05 -356.27)"/><path class="cls-22" d="M736.51,486a.51.51,0,0,1-.38-.16L734.39,484a.52.52,0,0,1,.75-.71l1.75,1.83a.53.53,0,0,1,0,.74A.54.54,0,0,1,736.51,486Z" transform="translate(-561.05 -356.27)"/><path class="cls-22" d="M741.26,486.19a.58.58,0,0,1-.58-.55v-6.55a.58.58,0,0,1,.58-.55.57.57,0,0,1,.57.55v6.55A.57.57,0,0,1,741.26,486.19Z" transform="translate(-561.05 -356.27)"/><path class="cls-22" d="M744.33,486.19a.58.58,0,0,1-.58-.55v-6.55a.58.58,0,0,1,.58-.55.57.57,0,0,1,.57.55v6.55A.57.57,0,0,1,744.33,486.19Z" transform="translate(-561.05 -356.27)"/><path class="cls-22" d="M747.4,486.19a.57.57,0,0,1-.58-.55v-6.55a.58.58,0,0,1,1.15,0v6.55A.57.57,0,0,1,747.4,486.19Z" transform="translate(-561.05 -356.27)"/><circle class="cls-7" cx="180.23" cy="127.63" r="1.03"/><path class="cls-22" d="M741.28,485.27a1.37,1.37,0,1,1,1.37-1.37A1.37,1.37,0,0,1,741.28,485.27Zm0-2.07a.7.7,0,1,0,.7.7A.7.7,0,0,0,741.28,483.2Z" transform="translate(-561.05 -356.27)"/><circle class="cls-7" cx="183.3" cy="124.18" r="1.03"/><path class="cls-22" d="M744.35,481.81a1.37,1.37,0,1,1,1.37-1.36A1.36,1.36,0,0,1,744.35,481.81Zm0-2.06a.7.7,0,1,0,.69.7A.7.7,0,0,0,744.35,479.75Z" transform="translate(-561.05 -356.27)"/><circle class="cls-7" cx="186.37" cy="126.48" r="1.03"/><path class="cls-22" d="M747.42,484.12a1.37,1.37,0,1,1,1.37-1.37A1.37,1.37,0,0,1,747.42,484.12Zm0-2.07a.7.7,0,1,0,.69.7A.7.7,0,0,0,747.42,482.05Z" transform="translate(-561.05 -356.27)"/><path class="cls-22" d="M755.7,479.29l.17.52a1.6,1.6,0,0,0,1.52,1.12H758a.68.68,0,0,1,.41,1.22l-.5.37a1.64,1.64,0,0,0-.57,1.8l.19.56a.68.68,0,0,1-1,.76l-.45-.33a1.61,1.61,0,0,0-1.88,0l-.45.33a.68.68,0,0,1-1-.76l.19-.58a1.61,1.61,0,0,0-.58-1.79l-.49-.36a.68.68,0,0,1,.4-1.23h.58a1.6,1.6,0,0,0,1.52-1.12l.17-.52A.67.67,0,0,1,755.7,479.29Z" transform="translate(-561.05 -356.27)"/><ellipse class="cls-7" cx="193.98" cy="126.26" rx="1.19" ry="1.2"/><rect class="cls-11" x="83.88" y="138.6" width="61.12" height="8.44" rx="4.22"/><rect class="cls-12" x="38.87" y="138.6" width="53.71" height="8.44" rx="4.22"/><path class="cls-7" d="M627.92,498.3h-4.6a.39.39,0,1,1,0-.77h4.6a.39.39,0,0,1,0,.77Z" transform="translate(-561.05 -356.27)"/><path class="cls-7" d="M627.92,500.6h-4.6a.39.39,0,1,1,0-.77h4.6a.39.39,0,0,1,0,.77Z" transform="translate(-561.05 -356.27)"/><path class="cls-7" d="M624.47,501.75a.38.38,0,0,1-.38-.38v-4.61a.38.38,0,0,1,.76,0v4.61A.38.38,0,0,1,624.47,501.75Z" transform="translate(-561.05 -356.27)"/><path class="cls-7" d="M626.77,501.75a.38.38,0,0,1-.38-.38v-4.61a.38.38,0,0,1,.76,0v4.61A.38.38,0,0,1,626.77,501.75Z" transform="translate(-561.05 -356.27)"/><path class="cls-7" d="M676.33,501.76a.32.32,0,0,1-.21-.08.33.33,0,0,1-.08-.25l.24-1.49a2.76,2.76,0,0,1,.62-3,2.77,2.77,0,0,1,4.73,2,2.77,2.77,0,0,1-3.77,2.59l-1.49.23Zm1.56-.82.12,0a2.17,2.17,0,0,0,2.4-.47,2.14,2.14,0,0,0,.64-1.55,2.19,2.19,0,0,0-2.19-2.19,2.19,2.19,0,0,0-2,3.05.29.29,0,0,1,0,.16l-.19,1.17,1.18-.19Z" transform="translate(-561.05 -356.27)"/><circle class="cls-7" cx="116.85" cy="142.68" r="0.34"/><circle class="cls-7" cx="117.92" cy="142.68" r="0.34"/><circle class="cls-7" cx="118.99" cy="142.68" r="0.34"/><path class="cls-10" d="M604.3,517.93h1.18a.1.1,0,0,1,.08.14l-.59,1-.59,1a.1.1,0,0,1-.17,0l-.59-1-.59-1a.1.1,0,0,1,.09-.14Z" transform="translate(-561.05 -356.27)"/><path class="cls-10" d="M613.34,518.25h-4.6a.39.39,0,0,1-.38-.39.38.38,0,0,1,.38-.38h4.6a.38.38,0,0,1,.39.38A.39.39,0,0,1,613.34,518.25Z" transform="translate(-561.05 -356.27)"/><path class="cls-10" d="M613.34,520.55h-4.6a.39.39,0,0,1,0-.77h4.6a.39.39,0,1,1,0,.77Z" transform="translate(-561.05 -356.27)"/><path class="cls-10" d="M609.89,521.7a.38.38,0,0,1-.38-.39v-4.6a.38.38,0,1,1,.76,0v4.6A.38.38,0,0,1,609.89,521.7Z" transform="translate(-561.05 -356.27)"/><path class="cls-10" d="M612.19,521.7a.38.38,0,0,1-.38-.39v-4.6a.38.38,0,0,1,.38-.38.39.39,0,0,1,.39.38v4.6A.39.39,0,0,1,612.19,521.7Z" transform="translate(-561.05 -356.27)"/><path class="cls-10" d="M603.19,598.05v-1.18a.09.09,0,0,1,.14-.08l1,.59,1,.59a.09.09,0,0,1,0,.16l-1,.59-1,.59a.09.09,0,0,1-.14-.08Z" transform="translate(-561.05 -356.27)"/><path class="cls-10" d="M613.34,597.27h-4.6a.39.39,0,0,1,0-.77h4.6a.39.39,0,1,1,0,.77Z" transform="translate(-561.05 -356.27)"/><path class="cls-10" d="M613.34,599.57h-4.6a.38.38,0,0,1-.38-.38.39.39,0,0,1,.38-.39h4.6a.39.39,0,0,1,.39.39A.38.38,0,0,1,613.34,599.57Z" transform="translate(-561.05 -356.27)"/><path class="cls-10" d="M609.89,600.72a.38.38,0,0,1-.38-.38v-4.6a.38.38,0,1,1,.76,0v4.6A.38.38,0,0,1,609.89,600.72Z" transform="translate(-561.05 -356.27)"/><path class="cls-10" d="M612.19,600.72a.38.38,0,0,1-.38-.38v-4.6a.38.38,0,0,1,.38-.39.39.39,0,0,1,.39.39v4.6A.39.39,0,0,1,612.19,600.72Z" transform="translate(-561.05 -356.27)"/><path class="cls-10" d="M603.19,609.17V608a.09.09,0,0,1,.14-.08l1,.59,1,.59a.09.09,0,0,1,0,.16l-1,.59-1,.59a.09.09,0,0,1-.14-.08Z" transform="translate(-561.05 -356.27)"/><path class="cls-10" d="M613.34,608.39h-4.6a.38.38,0,0,1,0-.76h4.6a.38.38,0,1,1,0,.76Z" transform="translate(-561.05 -356.27)"/><path class="cls-10" d="M613.34,610.7h-4.6a.39.39,0,0,1-.38-.39.38.38,0,0,1,.38-.38h4.6a.38.38,0,0,1,.39.38A.39.39,0,0,1,613.34,610.7Z" transform="translate(-561.05 -356.27)"/><path class="cls-10" d="M609.89,611.85a.38.38,0,0,1-.38-.39v-4.6a.38.38,0,0,1,.76,0v4.6A.38.38,0,0,1,609.89,611.85Z" transform="translate(-561.05 -356.27)"/><path class="cls-10" d="M612.19,611.85a.38.38,0,0,1-.38-.39v-4.6a.38.38,0,0,1,.38-.38.39.39,0,0,1,.39.38v4.6A.39.39,0,0,1,612.19,611.85Z" transform="translate(-561.05 -356.27)"/><path class="cls-10" d="M603.19,620.3v-1.18a.09.09,0,0,1,.14-.08l1,.58,1,.6a.09.09,0,0,1,0,.16l-1,.59-1,.59a.1.1,0,0,1-.14-.08Z" transform="translate(-561.05 -356.27)"/><path class="cls-10" d="M613.34,619.52h-4.6a.39.39,0,0,1,0-.77h4.6a.39.39,0,1,1,0,.77Z" transform="translate(-561.05 -356.27)"/><path class="cls-10" d="M613.34,621.82h-4.6a.38.38,0,0,1-.38-.38.39.39,0,0,1,.38-.39h4.6a.39.39,0,0,1,.39.39A.38.38,0,0,1,613.34,621.82Z" transform="translate(-561.05 -356.27)"/><path class="cls-10" d="M609.89,623a.38.38,0,0,1-.38-.38V618a.38.38,0,1,1,.76,0v4.6A.38.38,0,0,1,609.89,623Z" transform="translate(-561.05 -356.27)"/><path class="cls-10" d="M612.19,623a.38.38,0,0,1-.38-.38V618a.38.38,0,0,1,.38-.39.39.39,0,0,1,.39.39v4.6A.39.39,0,0,1,612.19,623Z" transform="translate(-561.05 -356.27)"/><path class="cls-10" d="M603.19,631.42v-1.18a.09.09,0,0,1,.14-.08l1,.59,1,.59a.09.09,0,0,1,0,.16l-1,.59-1,.59a.09.09,0,0,1-.14-.08Z" transform="translate(-561.05 -356.27)"/><path class="cls-10" d="M613.34,630.64h-4.6a.38.38,0,0,1,0-.76h4.6a.38.38,0,1,1,0,.76Z" transform="translate(-561.05 -356.27)"/><path class="cls-10" d="M613.34,633h-4.6a.39.39,0,0,1-.38-.39.38.38,0,0,1,.38-.38h4.6a.38.38,0,0,1,.39.38A.39.39,0,0,1,613.34,633Z" transform="translate(-561.05 -356.27)"/><path class="cls-10" d="M609.89,634.1a.38.38,0,0,1-.38-.39v-4.6a.38.38,0,0,1,.76,0v4.6A.38.38,0,0,1,609.89,634.1Z" transform="translate(-561.05 -356.27)"/><path class="cls-10" d="M612.19,634.1a.38.38,0,0,1-.38-.39v-4.6a.38.38,0,0,1,.38-.38.39.39,0,0,1,.39.38v4.6A.39.39,0,0,1,612.19,634.1Z" transform="translate(-561.05 -356.27)"/><path class="cls-10" d="M603.19,642.55v-1.18a.09.09,0,0,1,.14-.08l1,.58,1,.59a.1.1,0,0,1,0,.17l-1,.59-1,.59a.1.1,0,0,1-.14-.08Z" transform="translate(-561.05 -356.27)"/><path class="cls-10" d="M613.34,641.77h-4.6a.39.39,0,0,1,0-.77h4.6a.39.39,0,1,1,0,.77Z" transform="translate(-561.05 -356.27)"/><path class="cls-10" d="M613.34,644.07h-4.6a.38.38,0,0,1-.38-.38.39.39,0,0,1,.38-.39h4.6a.39.39,0,0,1,.39.39A.38.38,0,0,1,613.34,644.07Z" transform="translate(-561.05 -356.27)"/><path class="cls-10" d="M609.89,645.22a.38.38,0,0,1-.38-.38v-4.61a.38.38,0,1,1,.76,0v4.61A.38.38,0,0,1,609.89,645.22Z" transform="translate(-561.05 -356.27)"/><path class="cls-10" d="M612.19,645.22a.38.38,0,0,1-.38-.38v-4.61a.38.38,0,0,1,.38-.38.39.39,0,0,1,.39.38v4.61A.39.39,0,0,1,612.19,645.22Z" transform="translate(-561.05 -356.27)"/><path class="cls-10" d="M613.34,530.52h-3.83c-.16,0-.29,0-.29-.19s.13-.19.29-.19h3.83c.16,0,.29,0,.29.19S613.5,530.52,613.34,530.52Z" transform="translate(-561.05 -356.27)"/><path class="cls-10" d="M613.34,532.44h-3.83c-.16,0-.29,0-.29-.19s.13-.19.29-.19h3.83c.16,0,.29,0,.29.19S613.5,532.44,613.34,532.44Z" transform="translate(-561.05 -356.27)"/><path class="cls-10" d="M610.47,533.49c-.16,0-.2-.12-.2-.28v-3.84c0-.16,0-.29.2-.29s.19.13.19.29v3.84C610.66,533.37,610.63,533.49,610.47,533.49Z" transform="translate(-561.05 -356.27)"/><path class="cls-10" d="M612.38,533.49c-.15,0-.19-.12-.19-.28v-3.84c0-.16,0-.29.19-.29s.2.13.2.29v3.84C612.58,533.37,612.54,533.49,612.38,533.49Z" transform="translate(-561.05 -356.27)"/><path class="cls-10" d="M613.34,546.25h-3.83c-.16,0-.29,0-.29-.19s.13-.19.29-.19h3.83c.16,0,.29,0,.29.19S613.5,546.25,613.34,546.25Z" transform="translate(-561.05 -356.27)"/><path class="cls-10" d="M613.34,548.17h-3.83c-.16,0-.29,0-.29-.19s.13-.2.29-.2h3.83c.16,0,.29,0,.29.2S613.5,548.17,613.34,548.17Z" transform="translate(-561.05 -356.27)"/><path class="cls-10" d="M610.47,549.22c-.16,0-.2-.13-.2-.29V545.1c0-.16,0-.29.2-.29s.19.13.19.29v3.83C610.66,549.09,610.63,549.22,610.47,549.22Z" transform="translate(-561.05 -356.27)"/><path class="cls-10" d="M612.38,549.22c-.15,0-.19-.13-.19-.29V545.1c0-.16,0-.29.19-.29s.2.13.2.29v3.83C612.58,549.09,612.54,549.22,612.38,549.22Z" transform="translate(-561.05 -356.27)"/><path class="cls-10" d="M613.34,562h-3.83c-.16,0-.29,0-.29-.19s.13-.2.29-.2h3.83c.16,0,.29,0,.29.2S613.5,562,613.34,562Z" transform="translate(-561.05 -356.27)"/><path class="cls-10" d="M613.34,563.9h-3.83c-.16,0-.29,0-.29-.2s.13-.19.29-.19h3.83c.16,0,.29,0,.29.19S613.5,563.9,613.34,563.9Z" transform="translate(-561.05 -356.27)"/><path class="cls-10" d="M610.47,565c-.16,0-.2-.13-.2-.29v-3.83c0-.16,0-.29.2-.29s.19.13.19.29v3.83C610.66,564.82,610.63,565,610.47,565Z" transform="translate(-561.05 -356.27)"/><path class="cls-10" d="M612.38,565c-.15,0-.19-.13-.19-.29v-3.83c0-.16,0-.29.19-.29s.2.13.2.29v3.83C612.58,564.82,612.54,565,612.38,565Z" transform="translate(-561.05 -356.27)"/><path class="cls-10" d="M613.34,577.71h-3.83c-.16,0-.29,0-.29-.2s.13-.19.29-.19h3.83c.16,0,.29,0,.29.19S613.5,577.71,613.34,577.71Z" transform="translate(-561.05 -356.27)"/><path class="cls-10" d="M613.34,579.62h-3.83c-.16,0-.29,0-.29-.19s.13-.19.29-.19h3.83c.16,0,.29,0,.29.19S613.5,579.62,613.34,579.62Z" transform="translate(-561.05 -356.27)"/><path class="cls-10" d="M610.47,580.68c-.16,0-.2-.13-.2-.29v-3.84c0-.15,0-.28.2-.28s.19.13.19.28v3.84C610.66,580.55,610.63,580.68,610.47,580.68Z" transform="translate(-561.05 -356.27)"/><path class="cls-10" d="M612.38,580.68c-.15,0-.19-.13-.19-.29v-3.84c0-.15,0-.28.19-.28s.2.13.2.28v3.84C612.58,580.55,612.54,580.68,612.38,580.68Z" transform="translate(-561.05 -356.27)"/><rect class="cls-9" x="57.15" y="173.36" width="35.68" height="3.58" rx="0.9"/><rect class="cls-9" x="57.15" y="189.08" width="35.68" height="3.58" rx="0.9"/><rect class="cls-9" x="57.15" y="204.81" width="35.68" height="3.58" rx="0.9"/><rect class="cls-9" x="57.15" y="220.54" width="35.68" height="3.58" rx="0.9"/><path class="cls-9" d="M636.36,536H619.1a.51.51,0,1,1,0-1h17.26a.51.51,0,1,1,0,1Z" transform="translate(-561.05 -356.27)"/><path class="cls-9" d="M636.36,552H619.1a.51.51,0,1,1,0-1h17.26a.51.51,0,1,1,0,1Z" transform="translate(-561.05 -356.27)"/><path class="cls-9" d="M636.36,567H619.1a.51.51,0,1,1,0-1h17.26a.51.51,0,1,1,0,1Z" transform="translate(-561.05 -356.27)"/><path class="cls-9" d="M631.76,584H619.1a.51.51,0,1,1,0-1h12.66a.5.5,0,1,1,0,1Z" transform="translate(-561.05 -356.27)"/><path class="cls-9" d="M645.18,586H619.1a.51.51,0,1,1,0-1h26.08a.51.51,0,1,1,0,1Z" transform="translate(-561.05 -356.27)"/><rect class="cls-22" x="57.36" y="160.82" width="57.54" height="4.6" rx="1.96"/><rect class="cls-22" x="57.36" y="239.47" width="68.33" height="4.6" rx="1.96"/><rect class="cls-22" x="57.36" y="250.59" width="38.41" height="4.6" rx="1.96"/><rect class="cls-22" x="57.36" y="261.72" width="52.6" height="4.6" rx="1.96"/><rect class="cls-22" x="57.36" y="273.22" width="77.67" height="4.6" rx="1.96"/><rect class="cls-22" x="57.36" y="283.97" width="33.81" height="4.6" rx="1.96"/><g class="cls-23"><path class="cls-11" d="M708.17,705.19H596.22a5.89,5.89,0,0,1-5.89-5.88V682.56H714.05v16.75A5.88,5.88,0,0,1,708.17,705.19Z" transform="translate(-561.05 -356.27)"/></g><path class="cls-7" d="M599.41,695.14l-.14,0a.43.43,0,0,1-.3-.41v-4.83a.79.79,0,0,1,.8-.79h5.06a.66.66,0,0,1,.66.66v3.15a.84.84,0,0,1-.84.83h-3.82a.36.36,0,0,0-.29.15l-.73,1A.48.48,0,0,1,599.41,695.14Zm.36-5.67a.41.41,0,0,0-.41.41v4.83s0,0,0,0a.11.11,0,0,0,.11,0l.73-1.05a.75.75,0,0,1,.6-.31h3.82a.45.45,0,0,0,.45-.45v-3.15a.28.28,0,0,0-.27-.28Z" transform="translate(-561.05 -356.27)"/><circle class="cls-7" cx="39.73" cy="335.27" r="0.38"/><circle class="cls-7" cx="41.06" cy="335.27" r="0.38"/><circle class="cls-7" cx="42.39" cy="335.27" r="0.38"/><path class="cls-7" d="M655.67,694.36h-4.83a.77.77,0,0,1-.77-.78V690a.77.77,0,0,1,.77-.77h4.83a.78.78,0,0,1,.78.77v3.6A.78.78,0,0,1,655.67,694.36Zm-4.83-4.77a.4.4,0,0,0-.39.39v3.6a.39.39,0,0,0,.39.39h4.83a.38.38,0,0,0,.39-.39V690a.39.39,0,0,0-.39-.39Z" transform="translate(-561.05 -356.27)"/><path class="cls-7" d="M653.26,691.84a.71.71,0,0,1-.44-.15l-2.41-1.9.23-.3,2.42,1.9a.33.33,0,0,0,.4,0l2.27-1.93.25.29-2.28,1.94A.73.73,0,0,1,653.26,691.84Z" transform="translate(-561.05 -356.27)"/><path class="cls-7" d="M677.59,690.3c-.11,0-.33-.09-.33-.2v-1.53c0-.11.22-.19.33-.19s.33.08.33.19v1.53C677.92,690.21,677.69,690.3,677.59,690.3Z" transform="translate(-561.05 -356.27)"/><path class="cls-7" d="M680.21,690.3c-.11,0-.33-.09-.33-.2v-1.53c0-.11.22-.19.33-.19s.33.08.33.19v1.53C680.54,690.21,680.31,690.3,680.21,690.3Z" transform="translate(-561.05 -356.27)"/><path class="cls-7" d="M680.47,695.09h-3.38a1.17,1.17,0,0,1-1.17-1.16v-4a.61.61,0,0,1,.61-.61H681a.61.61,0,0,1,.62.61v4A1.17,1.17,0,0,1,680.47,695.09Zm-3.94-5.4a.23.23,0,0,0-.22.23v4a.78.78,0,0,0,.78.78h3.38a.78.78,0,0,0,.78-.78v-4a.23.23,0,0,0-.23-.23Z" transform="translate(-561.05 -356.27)"/><polygon class="cls-7" points="120.92 335.73 114.98 335.73 114.98 335.73 120.92 335.73 120.92 335.73"/><rect class="cls-7" x="115.93" y="336.66" width="3.6" height="0.9" rx="0.45"/><path class="cls-7" d="M705.76,694.62H702.2a1,1,0,0,1-1-1v-3.56a1,1,0,0,1,1-1h3.4v.38h-3.4a.6.6,0,0,0-.59.6v3.56a.6.6,0,0,0,.59.59h3.56a.6.6,0,0,0,.6-.59v-2.17h.38v2.17A1,1,0,0,1,705.76,694.62Z" transform="translate(-561.05 -356.27)"/><path class="cls-7" d="M704,692.91l-1-1a.29.29,0,1,1,.41-.41l.56.56,3-3.12a.29.29,0,1,1,.41.4Z" transform="translate(-561.05 -356.27)"/><circle class="cls-11" cx="66.7" cy="337.73" r="0.79"/><path class="cls-7" d="M627.75,695a1,1,0,1,1,1-1A1,1,0,0,1,627.75,695Zm0-1.57a.6.6,0,1,0,0,1.19.6.6,0,0,0,0-1.19Z" transform="translate(-561.05 -356.27)"/><path class="cls-11" d="M630.12,693.61l-.46-.83V690.6a1.43,1.43,0,0,0-1.32-1.45h-1.12a1.43,1.43,0,0,0-1.32,1.45v2.18l-.53.82a.19.19,0,0,0,.16.3H630A.19.19,0,0,0,630.12,693.61Z" transform="translate(-561.05 -356.27)"/><path class="cls-7" d="M630,694.1h-4.42a.39.39,0,0,1-.34-.21.37.37,0,0,1,0-.39l.5-.78V690.6A1.62,1.62,0,0,1,627.2,689h1.14a1.61,1.61,0,0,1,1.51,1.65v2.13l.44.79a.39.39,0,0,1-.34.58Zm-1.62-4.76h-1.11a1.23,1.23,0,0,0-1.13,1.26v2.23l-.56.88H630l-.49-.88V690.6A1.23,1.23,0,0,0,628.33,689.34Z" transform="translate(-561.05 -356.27)"/></g><rect class="cls-24" x="22.4" y="116.47" width="178.66" height="134.14"/><path class="cls-20" d="M1299.51,503.77H1040.85a6.77,6.77,0,0,0-6.77,6.78V668.16a6.77,6.77,0,0,0,6.77,6.77h258.66a6.79,6.79,0,0,0,6.79-6.77V510.55A6.79,6.79,0,0,0,1299.51,503.77Z" transform="translate(-561.05 -356.27)"/><rect class="cls-5" x="489.88" y="163.81" width="238.51" height="138.18"/><path class="cls-5" d="M1172.51,512.62a2.33,2.33,0,1,1-2.32-2.33A2.32,2.32,0,0,1,1172.51,512.62Z" transform="translate(-561.05 -356.27)"/><path class="cls-5" d="M1331.39,671.06H1219.82a4.48,4.48,0,0,1-4.43,4.09H1125a4.49,4.49,0,0,1-4.44-4.09H1009a15.17,15.17,0,0,0-.16,1.64v4.88a14.69,14.69,0,0,0,14.67,14.68h293.4a14.69,14.69,0,0,0,14.67-14.68V672.7A11.4,11.4,0,0,0,1331.39,671.06Z" transform="translate(-561.05 -356.27)"/><path class="cls-20" d="M1023.49,692.26h293.4a14.64,14.64,0,0,0,13.18-8.28H1010.3A14.68,14.68,0,0,0,1023.49,692.26Z" transform="translate(-561.05 -356.27)"/><rect class="cls-2" x="513.19" y="181.09" width="186.59" height="106.85" rx="4.01"/><rect class="cls-7" x="516.8" y="191.43" width="178.41" height="93.14" rx="1.08"/><rect class="cls-8" x="568.06" y="209.08" width="124.04" height="14.44" rx="0.92"/><rect class="cls-9" x="573.28" y="199.34" width="43.72" height="3.85" rx="1.5"/><path class="cls-10" d="M1132.16,556.93h-2.89a.24.24,0,0,1,0-.48h2.89a.24.24,0,1,1,0,.48Z" transform="translate(-561.05 -356.27)"/><path class="cls-10" d="M1132.16,558.13h-2.89a.24.24,0,0,1,0-.48h2.89a.24.24,0,1,1,0,.48Z" transform="translate(-561.05 -356.27)"/><path class="cls-10" d="M1130,559a.24.24,0,0,1-.24-.24v-2.89a.24.24,0,0,1,.24-.24.24.24,0,0,1,.24.24v2.89A.24.24,0,0,1,1130,559Z" transform="translate(-561.05 -356.27)"/><path class="cls-10" d="M1131.44,559a.24.24,0,0,1-.24-.24v-2.89a.24.24,0,0,1,.24-.24.24.24,0,0,1,.24.24v2.89A.24.24,0,0,1,1131.44,559Z" transform="translate(-561.05 -356.27)"/><rect class="cls-8" x="527.43" y="191.51" width="37.9" height="93.14"/><circle class="cls-7" cx="518.4" cy="186.3" r="1.28"/><circle class="cls-7" cx="522.98" cy="186.3" r="1.28"/><circle class="cls-7" cx="527.55" cy="186.3" r="1.28"/><rect class="cls-7" x="533.49" y="185.1" width="51.58" height="2.25" rx="1.12"/><rect class="cls-11" x="541.83" y="193.69" width="20.05" height="5.29" rx="2.65"/><rect class="cls-7" x="529.96" y="202.84" width="31.93" height="5.29" rx="1.33"/><rect class="cls-12" x="529.96" y="193.69" width="17.33" height="5.29" rx="2.65"/><path class="cls-13" d="M1091,572.33" transform="translate(-561.05 -356.27)"/><path class="cls-9" d="M1253,562h0Z" transform="translate(-561.05 -356.27)"/><rect class="cls-9" x="578.89" y="230.31" width="33.62" height="4.14" rx="2.07"/><path class="cls-10" d="M1134.06,593.08a4.43,4.43,0,1,1,4.42-4.43A4.44,4.44,0,0,1,1134.06,593.08Zm0-8.37a3.94,3.94,0,1,0,3.94,3.94A3.95,3.95,0,0,0,1134.06,584.71Z" transform="translate(-561.05 -356.27)"/><path class="cls-10" d="M1134.05,589.18a1.47,1.47,0,1,0-1.46-1.46A1.46,1.46,0,0,0,1134.05,589.18Z" transform="translate(-561.05 -356.27)"/><path class="cls-10" d="M1136.68,591.91c-.48-1.27-1.25-2.35-2.63-2.35s-2.14,1.08-2.61,2.35a4.19,4.19,0,0,0,5.24,0Z" transform="translate(-561.05 -356.27)"/><rect class="cls-9" x="623.69" y="214.26" width="52.13" height="4.14" rx="2.07"/><path class="cls-10" d="M1242.75,577a4.43,4.43,0,1,1,4.43-4.42A4.43,4.43,0,0,1,1242.75,577Zm0-8.36a3.94,3.94,0,1,0,4,3.94A3.94,3.94,0,0,0,1242.75,568.66Z" transform="translate(-561.05 -356.27)"/><path class="cls-10" d="M1242.76,573.12a1.47,1.47,0,1,1,1.46-1.46A1.46,1.46,0,0,1,1242.76,573.12Z" transform="translate(-561.05 -356.27)"/><path class="cls-10" d="M1240.13,575.86c.48-1.28,1.25-2.36,2.63-2.36s2.14,1.08,2.61,2.36a4.17,4.17,0,0,1-2.62.92A4.21,4.21,0,0,1,1240.13,575.86Z" transform="translate(-561.05 -356.27)"/><path class="cls-9" d="M1119.92,562.69a1.38,1.38,0,1,1,1.37-1.37A1.37,1.37,0,0,1,1119.92,562.69Zm0-2.27a.9.9,0,1,0,0,1.79.9.9,0,0,0,0-1.79Z" transform="translate(-561.05 -356.27)"/><path class="cls-9" d="M1121.48,563.25a.27.27,0,0,1-.18-.08l-.8-.84a.24.24,0,0,1,.35-.34l.8.85a.24.24,0,0,1,0,.34A.2.2,0,0,1,1121.48,563.25Z" transform="translate(-561.05 -356.27)"/><polygon class="cls-9" points="579.53 240.85 579.53 248.31 586.03 248.31 586.03 247.08 586.03 242.85 583.37 240.85 579.53 240.85"/><polygon class="cls-9" points="611.3 240.85 611.3 248.31 617.56 248.31 617.56 247.08 617.56 242.85 615.05 240.85 611.3 240.85"/><path class="cls-14" d="M1256.82,644.45H1078.25a4.26,4.26,0,0,1-4.25-4.25V541.37a4.26,4.26,0,0,1,4.25-4.26h178.57a4.25,4.25,0,0,1,4.25,4.26V640.2A4.25,4.25,0,0,1,1256.82,644.45ZM1078.25,537.6a3.77,3.77,0,0,0-3.77,3.77V640.2a3.77,3.77,0,0,0,3.77,3.77h178.57a3.77,3.77,0,0,0,3.77-3.77V541.37a3.77,3.77,0,0,0-3.77-3.77Z" transform="translate(-561.05 -356.27)"/><path class="cls-11" d="M1081.32,557.64a.9.9,0,1,0-1.68-.46.9.9,0,0,0,.9.9.94.94,0,0,0,.52-.16l1.28,1.27.27-.27Z" transform="translate(-561.05 -356.27)"/><path class="cls-12" d="M1082.59,554.83a.9.9,0,1,1,.77.44.88.88,0,0,1-.51-.16l-1.28,1.28-.27-.28Z" transform="translate(-561.05 -356.27)"/><path class="cls-11" d="M1085.4,556.56a.88.88,0,0,0-.13.46.91.91,0,0,0,1.81,0,.91.91,0,0,0-.91-.91.82.82,0,0,0-.51.17l-1.28-1.28-.27.27Z" transform="translate(-561.05 -356.27)"/><path class="cls-12" d="M1084.13,559.37a.87.87,0,0,1,.12.45.9.9,0,1,1-.9-.9.94.94,0,0,1,.52.16l1.28-1.27.27.27Z" transform="translate(-561.05 -356.27)"/><path class="cls-12" d="M1082.49,557.33a.46.46,0,0,0,0-.2.38.38,0,0,0-.38-.38.39.39,0,0,0-.39.38.4.4,0,0,0,.39.39.41.41,0,0,0,.22-.07l.54.54.12-.11Z" transform="translate(-561.05 -356.27)"/><path class="cls-11" d="M1083,556.13a.42.42,0,0,1,0-.2.38.38,0,0,1,.38-.38.39.39,0,1,1,0,.77.41.41,0,0,1-.22-.07l-.54.54-.12-.11Z" transform="translate(-561.05 -356.27)"/><path class="cls-12" d="M1084.23,556.87a.31.31,0,0,0-.06.19.39.39,0,1,0,.77,0,.38.38,0,0,0-.38-.38.34.34,0,0,0-.22.07l-.55-.55-.11.12Z" transform="translate(-561.05 -356.27)"/><path class="cls-11" d="M1083.69,558.06a.46.46,0,0,1,0,.2.39.39,0,0,1-.77,0,.39.39,0,0,1,.38-.39.45.45,0,0,1,.23.07l.54-.54.11.11Z" transform="translate(-561.05 -356.27)"/><rect class="cls-7" x="519.49" y="225.89" width="5.66" height="4.68" rx="0.52"/><path class="cls-15" d="M1080.44,586.32v-3.64a.62.62,0,0,1,.62-.62h4.62a.63.63,0,0,1,.63.62v3.64a.63.63,0,0,1-.63.62h-4.62A.62.62,0,0,1,1080.44,586.32Zm5.66-3.64a.41.41,0,0,0-.42-.41h-4.62a.41.41,0,0,0-.41.41v3.64a.41.41,0,0,0,.41.41h4.62a.41.41,0,0,0,.42-.41Z" transform="translate(-561.05 -356.27)"/><path class="cls-16" d="M1086.2,583.08h-5.66v-.4a.53.53,0,0,1,.52-.52h4.62a.52.52,0,0,1,.52.52Z" transform="translate(-561.05 -356.27)"/><path class="cls-15" d="M1080.44,583.08v-.4a.62.62,0,0,1,.62-.62h4.62a.63.63,0,0,1,.63.62v.4a.1.1,0,0,1-.11.1h-5.66A.09.09,0,0,1,1080.44,583.08Zm5.66-.4a.41.41,0,0,0-.42-.41h-4.62a.41.41,0,0,0-.41.41V583h5.45Z" transform="translate(-561.05 -356.27)"/><path class="cls-15" d="M1085.33,582.48v0Z" transform="translate(-561.05 -356.27)"/><path class="cls-15" d="M1085.23,582.48v-.63a.1.1,0,0,1,.1-.1.11.11,0,0,1,.11.1v.63a.11.11,0,0,1-.11.11A.1.1,0,0,1,1085.23,582.48Z" transform="translate(-561.05 -356.27)"/><path class="cls-15" d="M1084.55,582.48v0Z" transform="translate(-561.05 -356.27)"/><path class="cls-15" d="M1084.44,582.48v-.63a.11.11,0,0,1,.11-.1.1.1,0,0,1,.1.1v.63a.1.1,0,0,1-.1.11A.11.11,0,0,1,1084.44,582.48Z" transform="translate(-561.05 -356.27)"/><path class="cls-15" d="M1083.77,582.48v0Z" transform="translate(-561.05 -356.27)"/><path class="cls-15" d="M1083.66,582.48v-.63a.11.11,0,0,1,.11-.1.11.11,0,0,1,.1.1v.63a.11.11,0,0,1-.1.11A.11.11,0,0,1,1083.66,582.48Z" transform="translate(-561.05 -356.27)"/><path class="cls-15" d="M1083,582.48v0Z" transform="translate(-561.05 -356.27)"/><path class="cls-15" d="M1082.88,582.48v-.63a.1.1,0,0,1,.1-.1.11.11,0,0,1,.11.1v.63a.11.11,0,0,1-.11.11A.1.1,0,0,1,1082.88,582.48Z" transform="translate(-561.05 -356.27)"/><path class="cls-15" d="M1082.2,582.48v0Z" transform="translate(-561.05 -356.27)"/><path class="cls-15" d="M1082.09,582.48v-.63a.11.11,0,0,1,.11-.1.1.1,0,0,1,.1.1v.63a.1.1,0,0,1-.1.11A.11.11,0,0,1,1082.09,582.48Z" transform="translate(-561.05 -356.27)"/><path class="cls-15" d="M1081.42,582.48v0Z" transform="translate(-561.05 -356.27)"/><path class="cls-15" d="M1081.31,582.48v-.63a.11.11,0,0,1,.11-.1.11.11,0,0,1,.1.1v.63a.11.11,0,0,1-.1.11A.11.11,0,0,1,1081.31,582.48Z" transform="translate(-561.05 -356.27)"/><path class="cls-15" d="M1081.49,598.59l-.13-.1,0-1.78,2.09-2.79a.47.47,0,0,1,.32-.19.46.46,0,0,1,.36.09l1,.78a.43.43,0,0,1,.19.32.46.46,0,0,1-.09.36l-2.09,2.79Zm.13-1.8,0,1.51,1.45-.44,2-2.72a.29.29,0,0,0,.05-.18.23.23,0,0,0-.1-.16l-1-.79a.24.24,0,0,0-.18,0,.26.26,0,0,0-.17.09Z" transform="translate(-561.05 -356.27)"/><path class="cls-15" d="M1085,598.58h-3.47a.12.12,0,0,1-.12-.12.12.12,0,0,1,.12-.12H1085a.12.12,0,0,1,.12.12A.12.12,0,0,1,1085,598.58Z" transform="translate(-561.05 -356.27)"/><rect class="cls-16" x="519.61" y="250.64" width="3.89" height="3.35"/><path class="cls-15" d="M1084.55,610.37h-3.89a.11.11,0,0,1-.11-.11v-3.35a.1.1,0,0,1,.11-.1h3.89a.1.1,0,0,1,.11.1v3.35A.11.11,0,0,1,1084.55,610.37Zm-3.78-.21h3.67V607h-3.67Z" transform="translate(-561.05 -356.27)"/><rect class="cls-7" x="521.15" y="249.37" width="3.89" height="3.35"/><path class="cls-15" d="M1086.09,609.1h-3.89a.11.11,0,0,1-.11-.11v-3.35a.11.11,0,0,1,.11-.11h3.89a.11.11,0,0,1,.11.11V609A.11.11,0,0,1,1086.09,609.1Zm-3.78-.22H1086v-3.13h-3.67Z" transform="translate(-561.05 -356.27)"/><path class="cls-7" d="M1101.11,552.12h-2.88a.24.24,0,0,1-.24-.24.24.24,0,0,1,.24-.25h2.88a.25.25,0,1,1,0,.49Z" transform="translate(-561.05 -356.27)"/><path class="cls-7" d="M1101.11,553.56h-2.88a.24.24,0,0,1,0-.48h2.88a.24.24,0,1,1,0,.48Z" transform="translate(-561.05 -356.27)"/><path class="cls-7" d="M1099,554.28a.24.24,0,0,1-.24-.24v-2.89a.24.24,0,0,1,.48,0V554A.24.24,0,0,1,1099,554.28Z" transform="translate(-561.05 -356.27)"/><path class="cls-7" d="M1100.39,554.28a.24.24,0,0,1-.24-.24v-2.89a.24.24,0,0,1,.24-.24.24.24,0,0,1,.24.24V554A.24.24,0,0,1,1100.39,554.28Z" transform="translate(-561.05 -356.27)"/><path class="cls-7" d="M1113,554.29a.21.21,0,0,1-.13,0,.18.18,0,0,1,0-.16l.15-.93a1.74,1.74,0,0,1,.39-1.86,1.76,1.76,0,0,1,2.46,0,1.74,1.74,0,0,1,0,2.46h0a1.74,1.74,0,0,1-1.86.39l-.93.15Zm1-.52.07,0a1.37,1.37,0,0,0,1.51-.3h0a1.37,1.37,0,1,0-2.24-.43.11.11,0,0,1,0,.1l-.11.73.74-.11Z" transform="translate(-561.05 -356.27)"/><circle class="cls-7" cx="552.89" cy="196.25" r="0.21"/><circle class="cls-7" cx="553.56" cy="196.25" r="0.21"/><circle class="cls-7" cx="554.23" cy="196.25" r="0.21"/><rect class="cls-7" x="519.62" y="214.16" width="5.3" height="3.79" rx="1.9"/><rect class="cls-7" x="519.62" y="214.16" width="5.3" height="3.79" rx="1.9"/><path class="cls-15" d="M1085.44,574.35h-4.24a.66.66,0,0,1-.66-.66V571a.65.65,0,0,1,.66-.65h4.24a.65.65,0,0,1,.66.65v2.74A.66.66,0,0,1,1085.44,574.35Zm-4.24-3.79a.4.4,0,0,0-.4.39v2.74a.4.4,0,0,0,.4.4h4.24a.4.4,0,0,0,.4-.4V571a.4.4,0,0,0-.4-.39Z" transform="translate(-561.05 -356.27)"/><path class="cls-15" d="M1083.25,573l-.09,0-1.83-1.58a.14.14,0,0,1,0-.19.13.13,0,0,1,.18,0l1.75,1.51,1.81-1.47a.13.13,0,0,1,.19,0,.14.14,0,0,1,0,.18l-1.9,1.54A.11.11,0,0,1,1083.25,573Z" transform="translate(-561.05 -356.27)"/><line class="cls-15" x1="521.12" y1="216.38" x2="520.29" y2="217.18"/><path class="cls-15" d="M1081.34,573.58a.12.12,0,0,1-.09,0,.13.13,0,0,1,0-.18l.83-.81a.13.13,0,0,1,.18,0,.14.14,0,0,1,0,.19l-.82.8A.13.13,0,0,1,1081.34,573.58Z" transform="translate(-561.05 -356.27)"/><line class="cls-15" x1="523.34" y1="216.38" x2="524.17" y2="217.25"/><path class="cls-15" d="M1085.22,573.65a.13.13,0,0,1-.1,0l-.82-.87a.14.14,0,0,1,0-.19.13.13,0,0,1,.19,0l.82.87a.14.14,0,0,1,0,.19Z" transform="translate(-561.05 -356.27)"/><path class="cls-17" d="M1252.29,630.33H1129.84a.92.92,0,0,1-.92-.92v-6.1a.92.92,0,0,1,.92-.92h122.45a.92.92,0,0,1,.92.92v6.1A.92.92,0,0,1,1252.29,630.33Zm-122.45-7.46a.44.44,0,0,0-.44.44v6.1a.44.44,0,0,0,.44.44h122.45a.44.44,0,0,0,.44-.44v-6.1a.44.44,0,0,0-.44-.44Z" transform="translate(-561.05 -356.27)"/><path class="cls-17" d="M1133.06,628.23a2,2,0,1,1,2.07-2A2,2,0,0,1,1133.06,628.23Zm0-3.63a1.64,1.64,0,1,0,1.71,1.64A1.68,1.68,0,0,0,1133.06,624.6Z" transform="translate(-561.05 -356.27)"/><rect class="cls-17" x="571.87" y="269.03" width="0.39" height="1.93" rx="0.19"/><rect class="cls-17" x="571.06" y="269.8" width="2" height="0.37" rx="0.19"/><path class="cls-13" d="M1093.17,571.37" transform="translate(-561.05 -356.27)"/><path class="cls-10" d="M1097.5,570.17h-2.88a.24.24,0,0,1-.24-.25.24.24,0,0,1,.24-.24h2.88a.25.25,0,1,1,0,.49Z" transform="translate(-561.05 -356.27)"/><path class="cls-10" d="M1097.5,571.61h-2.88a.24.24,0,1,1,0-.48h2.88a.24.24,0,1,1,0,.48Z" transform="translate(-561.05 -356.27)"/><path class="cls-10" d="M1095.34,572.33a.24.24,0,0,1-.24-.24V569.2a.24.24,0,0,1,.48,0v2.89A.24.24,0,0,1,1095.34,572.33Z" transform="translate(-561.05 -356.27)"/><path class="cls-10" d="M1096.78,572.33a.24.24,0,0,1-.24-.24V569.2a.24.24,0,0,1,.24-.24.24.24,0,0,1,.24.24v2.89A.24.24,0,0,1,1096.78,572.33Z" transform="translate(-561.05 -356.27)"/><path class="cls-10" d="M1097.26,580h-2.4c-.1,0-.18,0-.18-.12s.08-.12.18-.12h2.4c.1,0,.18,0,.18.12S1097.36,580,1097.26,580Z" transform="translate(-561.05 -356.27)"/><path class="cls-10" d="M1097.26,581.24h-2.4c-.1,0-.18,0-.18-.12s.08-.13.18-.13h2.4c.1,0,.18,0,.18.13S1097.36,581.24,1097.26,581.24Z" transform="translate(-561.05 -356.27)"/><path class="cls-10" d="M1095.46,581.9c-.1,0-.12-.08-.12-.18v-2.41c0-.1,0-.18.12-.18s.12.08.12.18v2.41C1095.58,581.82,1095.56,581.9,1095.46,581.9Z" transform="translate(-561.05 -356.27)"/><path class="cls-10" d="M1096.66,581.9c-.1,0-.12-.08-.12-.18v-2.41c0-.1,0-.18.12-.18s.12.08.12.18v2.41C1096.78,581.82,1096.76,581.9,1096.66,581.9Z" transform="translate(-561.05 -356.27)"/><path class="cls-10" d="M1097.26,589.9h-2.4c-.1,0-.18,0-.18-.12s.08-.12.18-.12h2.4c.1,0,.18,0,.18.12S1097.36,589.9,1097.26,589.9Z" transform="translate(-561.05 -356.27)"/><path class="cls-10" d="M1097.26,591.1h-2.4c-.1,0-.18,0-.18-.12s.08-.12.18-.12h2.4c.1,0,.18,0,.18.12S1097.36,591.1,1097.26,591.1Z" transform="translate(-561.05 -356.27)"/><path class="cls-10" d="M1095.46,591.76c-.1,0-.12-.08-.12-.18v-2.4c0-.1,0-.18.12-.18s.12.08.12.18v2.4C1095.58,591.68,1095.56,591.76,1095.46,591.76Z" transform="translate(-561.05 -356.27)"/><path class="cls-10" d="M1096.66,591.76c-.1,0-.12-.08-.12-.18v-2.4c0-.1,0-.18.12-.18s.12.08.12.18v2.4C1096.78,591.68,1096.76,591.76,1096.66,591.76Z" transform="translate(-561.05 -356.27)"/><path class="cls-10" d="M1097.26,599.77h-2.4c-.1,0-.18,0-.18-.12s.08-.12.18-.12h2.4c.1,0,.18,0,.18.12S1097.36,599.77,1097.26,599.77Z" transform="translate(-561.05 -356.27)"/><path class="cls-10" d="M1097.26,601h-2.4c-.1,0-.18,0-.18-.12s.08-.12.18-.12h2.4c.1,0,.18,0,.18.12S1097.36,601,1097.26,601Z" transform="translate(-561.05 -356.27)"/><path class="cls-10" d="M1095.46,601.63c-.1,0-.12-.08-.12-.18V599c0-.1,0-.18.12-.18s.12.08.12.18v2.41C1095.58,601.55,1095.56,601.63,1095.46,601.63Z" transform="translate(-561.05 -356.27)"/><path class="cls-10" d="M1096.66,601.63c-.1,0-.12-.08-.12-.18V599c0-.1,0-.18.12-.18s.12.08.12.18v2.41C1096.78,601.55,1096.76,601.63,1096.66,601.63Z" transform="translate(-561.05 -356.27)"/><path class="cls-10" d="M1097.26,609.63h-2.4c-.1,0-.18,0-.18-.12s.08-.12.18-.12h2.4c.1,0,.18,0,.18.12S1097.36,609.63,1097.26,609.63Z" transform="translate(-561.05 -356.27)"/><path class="cls-10" d="M1097.26,610.84h-2.4c-.1,0-.18,0-.18-.12s.08-.12.18-.12h2.4c.1,0,.18,0,.18.12S1097.36,610.84,1097.26,610.84Z" transform="translate(-561.05 -356.27)"/><path class="cls-10" d="M1095.46,611.5c-.1,0-.12-.08-.12-.18v-2.41c0-.1,0-.18.12-.18s.12.08.12.18v2.41C1095.58,611.42,1095.56,611.5,1095.46,611.5Z" transform="translate(-561.05 -356.27)"/><path class="cls-10" d="M1096.66,611.5c-.1,0-.12-.08-.12-.18v-2.41c0-.1,0-.18.12-.18s.12.08.12.18v2.41C1096.78,611.42,1096.76,611.5,1096.66,611.5Z" transform="translate(-561.05 -356.27)"/><path class="cls-10" d="M1091.91,570h.74a.06.06,0,0,1,0,.09l-.37.64-.37.63a.06.06,0,0,1-.1,0l-.37-.63-.37-.64a.06.06,0,0,1,.05-.09Z" transform="translate(-561.05 -356.27)"/><rect class="cls-9" x="539.26" y="223.2" width="22.38" height="2.25" rx="0.56"/><rect class="cls-9" x="539.26" y="233.07" width="22.38" height="2.25" rx="0.56"/><rect class="cls-9" x="539.26" y="242.93" width="22.38" height="2.25" rx="0.56"/><rect class="cls-9" x="539.26" y="252.8" width="22.38" height="2.25" rx="0.56"/><path class="cls-9" d="M1119.16,583h0Z" transform="translate(-561.05 -356.27)"/><path class="cls-9" d="M1111.7,584h-10.83c-.2,0-.36.2-.36,0s.16,0,.36,0h10.83c.2,0,.36-.2.36,0S1111.9,584,1111.7,584Z" transform="translate(-561.05 -356.27)"/><path class="cls-9" d="M1111.46,594h-10.59c-.2,0-.36-.3-.36-.5s.16-.5.36-.5h10.59c.2,0,.36.3.36.5S1111.66,594,1111.46,594Z" transform="translate(-561.05 -356.27)"/><path class="cls-9" d="M1117.24,594h-16.37c-.2,0-.36,1-.36,0h17.09C1117.6,595,1117.44,594,1117.24,594Z" transform="translate(-561.05 -356.27)"/><path class="cls-9" d="M1108.94,603h-8.07c-.2,0-.36-.3-.36-.5s.16-.5.36-.5h8.07c.2,0,.36.3.36.5S1109.14,603,1108.94,603Z" transform="translate(-561.05 -356.27)"/><path class="cls-9" d="M1108.82,613h0Z" transform="translate(-561.05 -356.27)"/><path class="cls-9" d="M1117.24,615h-16.37c-.2,0-.36-.3-.36-.5s.16-.5.36-.5h16.37c.2,0,.36.3.36.5S1117.44,615,1117.24,615Z" transform="translate(-561.05 -356.27)"/><rect class="cls-8" x="633.33" y="251.44" width="58.77" height="7.82" rx="0.6"/><path class="cls-18" d="M1252.37,610.29a.18.18,0,0,1-.13-.06l-1.51-1.51a.19.19,0,0,1,0-.26.18.18,0,0,1,.25,0l1.52,1.52a.18.18,0,0,1,0,.25A.19.19,0,0,1,1252.37,610.29Z" transform="translate(-561.05 -356.27)"/><path class="cls-18" d="M1250.85,610.29a.16.16,0,0,1-.12-.06.18.18,0,0,1,0-.25l1.51-1.52a.18.18,0,0,1,.26.26l-1.52,1.51A.16.16,0,0,1,1250.85,610.29Z" transform="translate(-561.05 -356.27)"/><circle class="cls-10" cx="638.4" cy="253.38" r="0.35"/><path class="cls-19" d="M1199.45,610.12a.47.47,0,1,1,.47-.47A.47.47,0,0,1,1199.45,610.12Zm0-.69a.23.23,0,1,0,.23.22A.22.22,0,0,0,1199.45,609.43Z" transform="translate(-561.05 -356.27)"/><ellipse class="cls-7" cx="638.4" cy="257.15" rx="0.73" ry="0.86"/><path class="cls-19" d="M1199.45,614.4a1,1,0,1,1,.85-1A.92.92,0,0,1,1199.45,614.4Zm0-1.72a.75.75,0,0,0,0,1.48.75.75,0,0,0,0-1.48Z" transform="translate(-561.05 -356.27)"/><path class="cls-10" d="M1199.75,613.67h1.45a.28.28,0,0,0,.25-.42l-.44-.75a.5.5,0,0,1-.07-.27v-1a1.3,1.3,0,0,0-.14-.58,1.49,1.49,0,0,0-1.23-.78h-.2a1.48,1.48,0,0,0-1.23.78,1.3,1.3,0,0,0-.14.58v1a.5.5,0,0,1-.07.27l-.44.75a.28.28,0,0,0,.24.42h2Z" transform="translate(-561.05 -356.27)"/><path class="cls-19" d="M1201.2,613.79h-3.47a.43.43,0,0,1-.35-.2.38.38,0,0,1,0-.4l.43-.75a.42.42,0,0,0,.06-.21v-1a1.36,1.36,0,0,1,.15-.63,1.59,1.59,0,0,1,1.34-.85h.2a1.6,1.6,0,0,1,1.34.85,1.5,1.5,0,0,1,.15.63v1a.54.54,0,0,0,0,.21l.44.75a.4.4,0,0,1-.35.6Zm-1.64-3.81h-.19a1.35,1.35,0,0,0-1.13.72,1.11,1.11,0,0,0-.12.52v1a.63.63,0,0,1-.09.33l-.44.75a.17.17,0,0,0,0,.16.16.16,0,0,0,.14.08h3.47a.16.16,0,0,0,.14-.08.15.15,0,0,0,0-.16l-.44-.75a.73.73,0,0,1-.08-.33v-1a1.11,1.11,0,0,0-.13-.52A1.34,1.34,0,0,0,1199.56,610Z" transform="translate(-561.05 -356.27)"/><path class="cls-7" d="M1235.3,612h-30.82a.5.5,0,0,1,0-1h30.82a.5.5,0,0,1,0,1Z" transform="translate(-561.05 -356.27)"/><rect class="cls-25" x="302.42" y="234.47" width="56.2" height="106.15" rx="9.37"/><rect class="cls-4" x="323.2" y="238.37" width="14.76" height="1.89" rx="0.6"/><rect class="cls-26" x="323.2" y="238.37" width="14.76" height="1.89" rx="0.6"/><path class="cls-4" d="M897.28,689.92c0,1.06-.65,1.92-1.44,1.92H887.4c-.79,0-1.44-.86-1.44-1.92v-1.36c0-1,.65-1.91,1.44-1.91h8.44c.79,0,1.44.86,1.44,1.91Z" transform="translate(-561.05 -356.27)"/><path class="cls-26" d="M897.28,689.92c0,1.06-.65,1.92-1.44,1.92H887.4c-.79,0-1.44-.86-1.44-1.92v-1.36c0-1,.65-1.91,1.44-1.91h8.44c.79,0,1.44.86,1.44,1.91Z" transform="translate(-561.05 -356.27)"/><path class="cls-4" d="M912.21,595.64a1,1,0,1,1-1-1A1,1,0,0,1,912.21,595.64Z" transform="translate(-561.05 -356.27)"/><path class="cls-26" d="M912.21,595.64a1,1,0,1,1-1-1A1,1,0,0,1,912.21,595.64Z" transform="translate(-561.05 -356.27)"/><g class="cls-27"><rect class="cls-7" x="305.5" y="242.73" width="49.88" height="98.34" rx="2.39"/><path class="cls-11" d="M870.57,607.31a.71.71,0,0,0,.1-.35.68.68,0,1,0-.68.68.75.75,0,0,0,.39-.12l1,1,.2-.2Z" transform="translate(-561.05 -356.27)"/><path class="cls-12" d="M871.52,605.2a.64.64,0,0,1-.09-.34.67.67,0,0,1,.67-.67.68.68,0,0,1,.68.67.69.69,0,0,1-.68.68.68.68,0,0,1-.39-.13l-1,1-.2-.2Z" transform="translate(-561.05 -356.27)"/><path class="cls-11" d="M873.62,606.5a.67.67,0,0,0-.09.34.68.68,0,0,0,.67.68.69.69,0,0,0,.68-.68.68.68,0,0,0-.68-.67.62.62,0,0,0-.38.12l-1-1-.2.2Z" transform="translate(-561.05 -356.27)"/><path class="cls-12" d="M872.67,608.6a.67.67,0,0,1,.1.34.69.69,0,0,1-.68.68.68.68,0,0,1-.67-.68.67.67,0,0,1,.67-.67.65.65,0,0,1,.39.12l.95-1,.21.21Z" transform="translate(-561.05 -356.27)"/><path class="cls-12" d="M871.45,607.07a.33.33,0,0,0,0-.14.29.29,0,1,0-.29.29.23.23,0,0,0,.16-.06l.41.41.09-.09Z" transform="translate(-561.05 -356.27)"/><path class="cls-11" d="M871.85,606.18a.24.24,0,0,1,0-.15.29.29,0,1,1,.29.29.34.34,0,0,1-.17-.05l-.4.41-.09-.09Z" transform="translate(-561.05 -356.27)"/><path class="cls-12" d="M872.75,606.73a.24.24,0,0,0,0,.15.28.28,0,0,0,.28.28.29.29,0,1,0,0-.57.3.3,0,0,0-.16,0l-.41-.41-.08.09Z" transform="translate(-561.05 -356.27)"/><path class="cls-11" d="M872.34,607.62a.28.28,0,0,1,0,.15.29.29,0,0,1-.29.29.29.29,0,0,1,0-.58.25.25,0,0,1,.17.06l.41-.41.08.08Z" transform="translate(-561.05 -356.27)"/><path class="cls-22" d="M903.42,607.66a1.22,1.22,0,1,1,1.22-1.22A1.22,1.22,0,0,1,903.42,607.66Zm0-2a.8.8,0,0,0-.8.8.79.79,0,0,0,.8.79.79.79,0,0,0,.79-.79A.79.79,0,0,0,903.42,605.64Z" transform="translate(-561.05 -356.27)"/><path class="cls-22" d="M904.81,608.16a.26.26,0,0,1-.16-.07l-.71-.75a.22.22,0,0,1,0-.31.22.22,0,0,1,.3,0l.71.75a.22.22,0,0,1,0,.31A.24.24,0,0,1,904.81,608.16Z" transform="translate(-561.05 -356.27)"/><path class="cls-22" d="M906.76,608.25a.24.24,0,0,1-.24-.22v-2.69a.24.24,0,0,1,.48,0V608A.24.24,0,0,1,906.76,608.25Z" transform="translate(-561.05 -356.27)"/><path class="cls-22" d="M908,608.25a.24.24,0,0,1-.24-.22v-2.69a.24.24,0,0,1,.48,0V608A.24.24,0,0,1,908,608.25Z" transform="translate(-561.05 -356.27)"/><path class="cls-22" d="M909.28,608.25A.24.24,0,0,1,909,608v-2.69a.24.24,0,0,1,.48,0V608A.24.24,0,0,1,909.28,608.25Z" transform="translate(-561.05 -356.27)"/><circle class="cls-7" cx="345.72" cy="251.04" r="0.42"/><path class="cls-22" d="M906.77,607.88a.57.57,0,0,1-.56-.57.56.56,0,1,1,1.12,0A.57.57,0,0,1,906.77,607.88Zm0-.85a.29.29,0,1,0,0,.57.29.29,0,0,0,0-.57Z" transform="translate(-561.05 -356.27)"/><circle class="cls-7" cx="346.98" cy="249.63" r="0.42"/><path class="cls-22" d="M908,606.46a.56.56,0,0,1-.56-.56.56.56,0,1,1,1.12,0A.56.56,0,0,1,908,606.46Zm0-.85a.29.29,0,1,0,0,.57.29.29,0,0,0,0-.57Z" transform="translate(-561.05 -356.27)"/><circle class="cls-7" cx="348.24" cy="250.57" r="0.42"/><path class="cls-22" d="M909.29,607.4a.56.56,0,1,1,.56-.56A.56.56,0,0,1,909.29,607.4Zm0-.85a.29.29,0,0,0,0,.58.29.29,0,0,0,0-.58Z" transform="translate(-561.05 -356.27)"/><path class="cls-22" d="M912.69,605.42l.07.22a.65.65,0,0,0,.62.45h.24a.28.28,0,0,1,.16.51l-.2.15a.65.65,0,0,0-.23.73l.07.24a.28.28,0,0,1-.42.31l-.19-.14a.66.66,0,0,0-.77,0l-.18.13a.28.28,0,0,1-.43-.31l.07-.24a.65.65,0,0,0-.23-.73l-.2-.15a.28.28,0,0,1,.16-.51h.24a.65.65,0,0,0,.62-.45l.07-.22A.28.28,0,0,1,912.69,605.42Z" transform="translate(-561.05 -356.27)"/><ellipse class="cls-7" cx="351.36" cy="250.48" rx="0.49" ry="0.49"/><rect class="cls-11" x="327.1" y="255.55" width="25.1" height="3.47" rx="1.73"/><rect class="cls-12" x="308.62" y="255.55" width="22.05" height="3.47" rx="1.73"/><path class="cls-7" d="M881.16,613.23h-1.89a.16.16,0,0,1-.15-.16.16.16,0,0,1,.15-.16h1.89a.16.16,0,0,1,.16.16A.16.16,0,0,1,881.16,613.23Z" transform="translate(-561.05 -356.27)"/><path class="cls-7" d="M881.16,614.17h-1.89a.16.16,0,0,1-.15-.16.15.15,0,0,1,.15-.15h1.89a.16.16,0,0,1,.16.15A.16.16,0,0,1,881.16,614.17Z" transform="translate(-561.05 -356.27)"/><path class="cls-7" d="M879.75,614.64a.16.16,0,0,1-.16-.15V612.6a.16.16,0,0,1,.16-.16.16.16,0,0,1,.15.16v1.89A.15.15,0,0,1,879.75,614.64Z" transform="translate(-561.05 -356.27)"/><path class="cls-7" d="M880.69,614.64a.16.16,0,0,1-.16-.15V612.6a.16.16,0,0,1,.16-.16.16.16,0,0,1,.16.16v1.89A.16.16,0,0,1,880.69,614.64Z" transform="translate(-561.05 -356.27)"/><path class="cls-7" d="M901,614.65a.09.09,0,0,1-.08,0,.12.12,0,0,1,0-.1l.1-.61a1.13,1.13,0,1,1,.65.65l-.61.1Zm.64-.34h.05a.91.91,0,1,0-.48-.48.15.15,0,0,1,0,.07l-.08.48.48-.08Z" transform="translate(-561.05 -356.27)"/><circle class="cls-7" cx="340.64" cy="257.22" r="0.14"/><circle class="cls-7" cx="341.07" cy="257.22" r="0.14"/><circle class="cls-7" cx="341.51" cy="257.22" r="0.14"/><path class="cls-10" d="M871.46,621.28H872s0,0,0,.06l-.24.42-.24.41a0,0,0,0,1-.07,0l-.24-.41-.24-.42s0-.06,0-.06Z" transform="translate(-561.05 -356.27)"/><path class="cls-10" d="M875.18,621.42h-1.89a.16.16,0,0,1,0-.32h1.89a.16.16,0,1,1,0,.32Z" transform="translate(-561.05 -356.27)"/><path class="cls-10" d="M875.18,622.36h-1.89a.16.16,0,0,1-.16-.16.16.16,0,0,1,.16-.15h1.89a.16.16,0,0,1,.16.15A.16.16,0,0,1,875.18,622.36Z" transform="translate(-561.05 -356.27)"/><path class="cls-10" d="M873.76,622.83a.16.16,0,0,1-.16-.15v-1.89a.16.16,0,0,1,.16-.16.16.16,0,0,1,.16.16v1.89A.16.16,0,0,1,873.76,622.83Z" transform="translate(-561.05 -356.27)"/><path class="cls-10" d="M874.71,622.83a.16.16,0,0,1-.16-.15v-1.89a.16.16,0,0,1,.16-.16.16.16,0,0,1,.15.16v1.89A.15.15,0,0,1,874.71,622.83Z" transform="translate(-561.05 -356.27)"/><path class="cls-10" d="M871,654.18v-.48a0,0,0,0,1,.06,0l.41.24.42.25a0,0,0,0,1,0,.06l-.42.25-.41.24a0,0,0,0,1-.06,0Z" transform="translate(-561.05 -356.27)"/><path class="cls-10" d="M875.18,653.86h-1.89a.16.16,0,0,1-.16-.16.16.16,0,0,1,.16-.15h1.89a.16.16,0,0,1,.16.15A.16.16,0,0,1,875.18,653.86Z" transform="translate(-561.05 -356.27)"/><path class="cls-10" d="M875.18,654.81h-1.89a.16.16,0,0,1,0-.32h1.89a.16.16,0,1,1,0,.32Z" transform="translate(-561.05 -356.27)"/><path class="cls-10" d="M873.76,655.28a.16.16,0,0,1-.16-.16v-1.89a.16.16,0,0,1,.16-.16.16.16,0,0,1,.16.16v1.89A.16.16,0,0,1,873.76,655.28Z" transform="translate(-561.05 -356.27)"/><path class="cls-10" d="M874.71,655.28a.16.16,0,0,1-.16-.16v-1.89a.16.16,0,0,1,.16-.16.16.16,0,0,1,.15.16v1.89A.16.16,0,0,1,874.71,655.28Z" transform="translate(-561.05 -356.27)"/><path class="cls-10" d="M871,658.75v-.49s0,0,.06,0l.41.24.42.24s0,.06,0,.07l-.42.24-.41.25a0,0,0,0,1-.06,0Z" transform="translate(-561.05 -356.27)"/><path class="cls-10" d="M875.18,658.43h-1.89a.16.16,0,0,1,0-.32h1.89a.16.16,0,1,1,0,.32Z" transform="translate(-561.05 -356.27)"/><path class="cls-10" d="M875.18,659.37h-1.89a.16.16,0,0,1-.16-.15.16.16,0,0,1,.16-.16h1.89a.16.16,0,0,1,.16.16A.16.16,0,0,1,875.18,659.37Z" transform="translate(-561.05 -356.27)"/><path class="cls-10" d="M873.76,659.85a.16.16,0,0,1-.16-.16V657.8a.16.16,0,0,1,.16-.16.16.16,0,0,1,.16.16v1.89A.16.16,0,0,1,873.76,659.85Z" transform="translate(-561.05 -356.27)"/><path class="cls-10" d="M874.71,659.85a.16.16,0,0,1-.16-.16V657.8a.16.16,0,0,1,.16-.16.16.16,0,0,1,.15.16v1.89A.16.16,0,0,1,874.71,659.85Z" transform="translate(-561.05 -356.27)"/><path class="cls-10" d="M871,663.32v-.49a0,0,0,0,1,.06,0l.41.24.42.24a0,0,0,0,1,0,.07l-.42.24-.41.24a0,0,0,0,1-.06,0Z" transform="translate(-561.05 -356.27)"/><path class="cls-10" d="M875.18,663h-1.89a.16.16,0,0,1,0-.32h1.89a.16.16,0,0,1,0,.32Z" transform="translate(-561.05 -356.27)"/><path class="cls-10" d="M875.18,663.94h-1.89a.16.16,0,0,1-.16-.16.16.16,0,0,1,.16-.15h1.89a.16.16,0,0,1,.16.15A.16.16,0,0,1,875.18,663.94Z" transform="translate(-561.05 -356.27)"/><path class="cls-10" d="M873.76,664.41a.16.16,0,0,1-.16-.15v-1.89a.16.16,0,0,1,.16-.16.16.16,0,0,1,.16.16v1.89A.16.16,0,0,1,873.76,664.41Z" transform="translate(-561.05 -356.27)"/><path class="cls-10" d="M874.71,664.41a.16.16,0,0,1-.16-.15v-1.89a.16.16,0,0,1,.16-.16.16.16,0,0,1,.15.16v1.89A.15.15,0,0,1,874.71,664.41Z" transform="translate(-561.05 -356.27)"/><path class="cls-10" d="M871,667.88v-.48a0,0,0,0,1,.06,0l.41.24.42.24s0,0,0,.07l-.42.24-.41.24a0,0,0,0,1-.06,0Z" transform="translate(-561.05 -356.27)"/><path class="cls-10" d="M875.18,667.56h-1.89a.16.16,0,0,1-.16-.15.16.16,0,0,1,.16-.16h1.89a.16.16,0,0,1,.16.16A.16.16,0,0,1,875.18,667.56Z" transform="translate(-561.05 -356.27)"/><path class="cls-10" d="M875.18,668.51h-1.89a.16.16,0,0,1,0-.32h1.89a.16.16,0,1,1,0,.32Z" transform="translate(-561.05 -356.27)"/><path class="cls-10" d="M873.76,669a.16.16,0,0,1-.16-.16v-1.89a.16.16,0,0,1,.16-.15.16.16,0,0,1,.16.15v1.89A.16.16,0,0,1,873.76,669Z" transform="translate(-561.05 -356.27)"/><path class="cls-10" d="M874.71,669a.16.16,0,0,1-.16-.16v-1.89a.16.16,0,0,1,.16-.15.15.15,0,0,1,.15.15v1.89A.16.16,0,0,1,874.71,669Z" transform="translate(-561.05 -356.27)"/><path class="cls-10" d="M871,672.45V672a0,0,0,0,1,.06,0l.41.24.42.25a0,0,0,0,1,0,.06l-.42.25-.41.24s-.06,0-.06,0Z" transform="translate(-561.05 -356.27)"/><path class="cls-10" d="M875.18,672.13h-1.89a.16.16,0,0,1-.16-.16.16.16,0,0,1,.16-.15h1.89a.16.16,0,0,1,.16.15A.16.16,0,0,1,875.18,672.13Z" transform="translate(-561.05 -356.27)"/><path class="cls-10" d="M875.18,673.08h-1.89a.16.16,0,1,1,0-.32h1.89a.16.16,0,1,1,0,.32Z" transform="translate(-561.05 -356.27)"/><path class="cls-10" d="M873.76,673.55a.16.16,0,0,1-.16-.16V671.5a.16.16,0,0,1,.16-.16.16.16,0,0,1,.16.16v1.89A.16.16,0,0,1,873.76,673.55Z" transform="translate(-561.05 -356.27)"/><path class="cls-10" d="M874.71,673.55a.16.16,0,0,1-.16-.16V671.5a.16.16,0,0,1,.16-.16.16.16,0,0,1,.15.16v1.89A.16.16,0,0,1,874.71,673.55Z" transform="translate(-561.05 -356.27)"/><path class="cls-10" d="M875.18,626.46H873.6c-.06,0-.11,0-.11-.08s0-.08.11-.08h1.58c.06,0,.12,0,.12.08S875.24,626.46,875.18,626.46Z" transform="translate(-561.05 -356.27)"/><path class="cls-10" d="M875.18,627.24H873.6c-.06,0-.11,0-.11-.08s0-.07.11-.07h1.58c.06,0,.12,0,.12.07S875.24,627.24,875.18,627.24Z" transform="translate(-561.05 -356.27)"/><path class="cls-10" d="M874,627.68c-.07,0-.08-.06-.08-.12V626c0-.06,0-.11.08-.11s.08,0,.08.11v1.58C874.08,627.62,874.06,627.68,874,627.68Z" transform="translate(-561.05 -356.27)"/><path class="cls-10" d="M874.79,627.68c-.07,0-.08-.06-.08-.12V626c0-.06,0-.11.08-.11s.07,0,.07.11v1.58C874.86,627.62,874.85,627.68,874.79,627.68Z" transform="translate(-561.05 -356.27)"/><path class="cls-10" d="M875.18,632.91H873.6c-.06,0-.11,0-.11-.08s0-.07.11-.07h1.58c.06,0,.12,0,.12.07S875.24,632.91,875.18,632.91Z" transform="translate(-561.05 -356.27)"/><path class="cls-10" d="M875.18,633.7H873.6c-.06,0-.11,0-.11-.08s0-.08.11-.08h1.58c.06,0,.12,0,.12.08S875.24,633.7,875.18,633.7Z" transform="translate(-561.05 -356.27)"/><path class="cls-10" d="M874,634.13c-.07,0-.08,0-.08-.11v-1.58c0-.06,0-.12.08-.12s.08.06.08.12V634C874.08,634.08,874.06,634.13,874,634.13Z" transform="translate(-561.05 -356.27)"/><path class="cls-10" d="M874.79,634.13c-.07,0-.08,0-.08-.11v-1.58c0-.06,0-.12.08-.12s.07.06.07.12V634C874.86,634.08,874.85,634.13,874.79,634.13Z" transform="translate(-561.05 -356.27)"/><path class="cls-10" d="M875.18,639.37H873.6c-.06,0-.11,0-.11-.08s0-.08.11-.08h1.58c.06,0,.12,0,.12.08S875.24,639.37,875.18,639.37Z" transform="translate(-561.05 -356.27)"/><path class="cls-10" d="M875.18,640.16H873.6c-.06,0-.11,0-.11-.08s0-.08.11-.08h1.58c.06,0,.12,0,.12.08S875.24,640.16,875.18,640.16Z" transform="translate(-561.05 -356.27)"/><path class="cls-10" d="M874,640.59c-.07,0-.08-.05-.08-.12V638.9c0-.07,0-.12.08-.12s.08.05.08.12v1.57C874.08,640.54,874.06,640.59,874,640.59Z" transform="translate(-561.05 -356.27)"/><path class="cls-10" d="M874.79,640.59c-.07,0-.08-.05-.08-.12V638.9c0-.07,0-.12.08-.12s.07.05.07.12v1.57C874.86,640.54,874.85,640.59,874.79,640.59Z" transform="translate(-561.05 -356.27)"/><path class="cls-10" d="M875.18,645.83H873.6c-.06,0-.11,0-.11-.08s0-.08.11-.08h1.58c.06,0,.12,0,.12.08S875.24,645.83,875.18,645.83Z" transform="translate(-561.05 -356.27)"/><path class="cls-10" d="M875.18,646.62H873.6c-.06,0-.11,0-.11-.08s0-.08.11-.08h1.58c.06,0,.12,0,.12.08S875.24,646.62,875.18,646.62Z" transform="translate(-561.05 -356.27)"/><path class="cls-10" d="M874,647.05c-.07,0-.08,0-.08-.12v-1.57c0-.07,0-.12.08-.12s.08,0,.08.12v1.57C874.08,647,874.06,647.05,874,647.05Z" transform="translate(-561.05 -356.27)"/><path class="cls-10" d="M874.79,647.05c-.07,0-.08,0-.08-.12v-1.57c0-.07,0-.12.08-.12s.07,0,.07.12v1.57C874.86,647,874.85,647.05,874.79,647.05Z" transform="translate(-561.05 -356.27)"/><path class="cls-9" d="M882.74,648.17h0Z" transform="translate(-561.05 -356.27)"/><rect class="cls-22" x="316.21" y="264.67" width="23.63" height="1.89" rx="0.8"/><rect class="cls-22" x="316.59" y="270.08" width="8.08" height="0.65" rx="0.27"/><rect class="cls-22" x="316.59" y="276.76" width="8.08" height="0.65" rx="0.27"/><rect class="cls-22" x="316.59" y="283.37" width="8.08" height="0.65" rx="0.27"/><rect class="cls-22" x="316.59" y="289.66" width="8.08" height="0.65" rx="0.27"/><rect class="cls-22" x="316.21" y="296.96" width="28.06" height="1.89" rx="0.8"/><rect class="cls-22" x="316.21" y="301.53" width="15.77" height="1.89" rx="0.8"/><rect class="cls-22" x="316.21" y="306.1" width="21.6" height="1.89" rx="0.8"/><rect class="cls-22" x="316.21" y="310.82" width="31.89" height="1.89" rx="0.8"/><rect class="cls-22" x="316.21" y="315.23" width="13.88" height="1.89" rx="0.8"/><path class="cls-11" d="M914.11,698.17h-46a2.41,2.41,0,0,1-2.42-2.41v-6.88h50.8v6.88A2.41,2.41,0,0,1,914.11,698.17Z" transform="translate(-561.05 -356.27)"/><rect class="cls-1" x="305.51" y="242.78" width="49.88" height="98.34" rx="14.37"/><path class="cls-7" d="M869.46,694h-.06a.18.18,0,0,1-.12-.17v-2a.33.33,0,0,1,.32-.32h2.08a.27.27,0,0,1,.27.27v1.29a.35.35,0,0,1-.34.35H870a.14.14,0,0,0-.12.06l-.3.43A.21.21,0,0,1,869.46,694Zm.14-2.32a.16.16,0,0,0-.16.16v2a.06.06,0,0,0,0,0l.3-.43a.28.28,0,0,1,.24-.13h1.57a.19.19,0,0,0,.19-.19v-1.29a.12.12,0,0,0-.12-.11Z" transform="translate(-561.05 -356.27)"/><circle class="cls-7" cx="308.97" cy="336.3" r="0.15"/><circle class="cls-7" cx="309.52" cy="336.3" r="0.15"/><circle class="cls-7" cx="310.06" cy="336.3" r="0.15"/><path class="cls-7" d="M892.56,693.72h-2a.31.31,0,0,1-.31-.31v-1.48a.31.31,0,0,1,.31-.32h2a.32.32,0,0,1,.32.32v1.48A.32.32,0,0,1,892.56,693.72Zm-2-2a.16.16,0,0,0-.16.16v1.48a.17.17,0,0,0,.16.16h2a.16.16,0,0,0,.16-.16v-1.48a.16.16,0,0,0-.16-.16Z" transform="translate(-561.05 -356.27)"/><path class="cls-7" d="M891.57,692.69a.28.28,0,0,1-.18-.06l-1-.78.09-.13,1,.78a.12.12,0,0,0,.16,0l.93-.79.1.12-.93.8A.32.32,0,0,1,891.57,692.69Z" transform="translate(-561.05 -356.27)"/><path class="cls-7" d="M901.56,692.06s-.14,0-.14-.08v-.63c0-.05.09-.08.14-.08s.13,0,.13.08V692S901.6,692.06,901.56,692.06Z" transform="translate(-561.05 -356.27)"/><path class="cls-7" d="M902.63,692.06s-.13,0-.13-.08v-.63c0-.05.09-.08.13-.08s.14,0,.14.08V692S902.68,692.06,902.63,692.06Z" transform="translate(-561.05 -356.27)"/><path class="cls-7" d="M902.74,694h-1.39a.48.48,0,0,1-.48-.47V691.9a.25.25,0,0,1,.25-.25H903a.25.25,0,0,1,.25.25v1.65A.48.48,0,0,1,902.74,694Zm-1.62-2.21a.09.09,0,0,0-.09.09v1.65a.32.32,0,0,0,.32.32h1.39a.32.32,0,0,0,.32-.32V691.9a.09.09,0,0,0-.09-.09Z" transform="translate(-561.05 -356.27)"/><polygon class="cls-7" points="342.3 336.64 339.87 336.64 339.87 336.64 342.3 336.64 342.3 336.64"/><rect class="cls-7" x="340.26" y="336.87" width="1.48" height="0.37" rx="0.11"/><path class="cls-7" d="M913.13,693.83h-1.47a.4.4,0,0,1-.4-.4V692a.4.4,0,0,1,.4-.4h1.4v.16h-1.4a.24.24,0,0,0-.24.24v1.46a.24.24,0,0,0,.24.24h1.47a.24.24,0,0,0,.24-.24v-.89h.16v.89A.4.4,0,0,1,913.13,693.83Z" transform="translate(-561.05 -356.27)"/><path class="cls-7" d="M912.38,693.13l-.4-.4a.12.12,0,0,1,.17-.17l.23.23,1.23-1.28a.1.1,0,0,1,.16,0,.12.12,0,0,1,0,.17Z" transform="translate(-561.05 -356.27)"/><circle class="cls-11" cx="320.04" cy="337.31" r="0.32"/><path class="cls-7" d="M881.09,694a.41.41,0,0,1,0-.81.41.41,0,1,1,0,.81Zm0-.65a.25.25,0,1,0,.25.25A.25.25,0,0,0,881.09,693.33Z" transform="translate(-561.05 -356.27)"/><path class="cls-11" d="M882.07,693.42l-.19-.35v-.89a.59.59,0,0,0-.54-.6h-.46a.59.59,0,0,0-.54.6v.89l-.22.34a.08.08,0,0,0,.06.13H882A.08.08,0,0,0,882.07,693.42Z" transform="translate(-561.05 -356.27)"/><path class="cls-7" d="M882,693.62h-1.82a.18.18,0,0,1-.14-.09.18.18,0,0,1,0-.16l.21-.32v-.87a.67.67,0,0,1,.61-.68h.47a.67.67,0,0,1,.62.68v.87l.18.33a.18.18,0,0,1,0,.16A.16.16,0,0,1,882,693.62Zm-.67-2h-.45a.51.51,0,0,0-.47.52v.92l-.23.36H882l-.2-.36v-.92A.51.51,0,0,0,881.33,691.66Z" transform="translate(-561.05 -356.27)"/></g><rect class="cls-26" x="305.02" y="244.62" width="50.74" height="81.93"/><path class="cls-28" d="M841.77,549.8H763.06a7.15,7.15,0,0,0-7.15,7.14V687.76a7.14,7.14,0,0,0,7.15,7.13h78.71a7.13,7.13,0,0,0,7.13-7.13V556.94A7.14,7.14,0,0,0,841.77,549.8Z" transform="translate(-561.05 -356.27)"/><path class="cls-6" d="M795.75,556.21h13.32a.68.68,0,1,1,0,1.36H795.75a.68.68,0,0,1,0-1.36Z" transform="translate(-561.05 -356.27)"/><path class="cls-29" d="M808.07,687.83c0,1-.65,1.91-1.44,1.91h-8.44c-.79,0-1.44-.86-1.44-1.91v-1.36c0-1.06.65-1.92,1.44-1.92h8.44c.79,0,1.44.86,1.44,1.92Z" transform="translate(-561.05 -356.27)"/><g class="cls-30"><rect class="cls-7" x="200.28" y="201.9" width="83.49" height="164.61" rx="4"/><path class="cls-11" d="M768.06,572.08a1.15,1.15,0,0,0,.16-.58,1.13,1.13,0,1,0-2.26,0,1.12,1.12,0,0,0,1.13,1.13,1.08,1.08,0,0,0,.64-.2l1.6,1.6.34-.34Z" transform="translate(-561.05 -356.27)"/><path class="cls-12" d="M769.65,568.56a1.11,1.11,0,0,1-.16-.57,1.14,1.14,0,1,1,.48.92l-1.6,1.6-.34-.34Z" transform="translate(-561.05 -356.27)"/><path class="cls-11" d="M773.16,570.72a1.14,1.14,0,1,0,1-.55,1.11,1.11,0,0,0-.65.2l-1.6-1.6-.34.34Z" transform="translate(-561.05 -356.27)"/><path class="cls-12" d="M771.58,574.24a1.13,1.13,0,1,1-1-.56,1.12,1.12,0,0,1,.65.21l1.6-1.6.34.34Z" transform="translate(-561.05 -356.27)"/><path class="cls-12" d="M769.52,571.69a.43.43,0,0,0,.07-.25.48.48,0,1,0-.48.49.55.55,0,0,0,.28-.09l.68.68.14-.14Z" transform="translate(-561.05 -356.27)"/><path class="cls-11" d="M770.2,570.19a.52.52,0,0,1-.07-.25.49.49,0,1,1,.48.49.51.51,0,0,1-.27-.09l-.68.68-.15-.14Z" transform="translate(-561.05 -356.27)"/><path class="cls-12" d="M771.7,571.11a.52.52,0,0,0-.07.25.49.49,0,1,0,.48-.48.5.5,0,0,0-.27.08l-.68-.68-.15.15Z" transform="translate(-561.05 -356.27)"/><path class="cls-11" d="M771,572.61a.43.43,0,0,1,.07.25.49.49,0,0,1-.48.48.49.49,0,1,1,.27-.88l.69-.68.14.14Z" transform="translate(-561.05 -356.27)"/><path class="cls-22" d="M823,572.67a2,2,0,1,1,2.05-2A2,2,0,0,1,823,572.67Zm0-3.37a1.33,1.33,0,1,0,1.33,1.33A1.33,1.33,0,0,0,823,569.3Z" transform="translate(-561.05 -356.27)"/><path class="cls-22" d="M825.37,573.5a.36.36,0,0,1-.26-.11l-1.2-1.26a.36.36,0,0,1,.52-.5l1.2,1.26a.37.37,0,0,1,0,.51A.35.35,0,0,1,825.37,573.5Z" transform="translate(-561.05 -356.27)"/><path class="cls-22" d="M828.63,573.66a.39.39,0,0,1-.39-.37v-4.51a.4.4,0,0,1,.79,0v4.51A.4.4,0,0,1,828.63,573.66Z" transform="translate(-561.05 -356.27)"/><path class="cls-22" d="M830.74,573.66a.39.39,0,0,1-.39-.37v-4.51a.4.4,0,0,1,.79,0v4.51A.4.4,0,0,1,830.74,573.66Z" transform="translate(-561.05 -356.27)"/><path class="cls-22" d="M832.85,573.66a.39.39,0,0,1-.39-.37v-4.51a.39.39,0,0,1,.39-.37.4.4,0,0,1,.4.37v4.51A.4.4,0,0,1,832.85,573.66Z" transform="translate(-561.05 -356.27)"/><circle class="cls-7" cx="267.6" cy="215.82" r="0.71"/><path class="cls-22" d="M828.65,573a.94.94,0,1,1,.94-.94A.94.94,0,0,1,828.65,573Zm0-1.42a.48.48,0,0,0,0,1,.48.48,0,0,0,0-1Z" transform="translate(-561.05 -356.27)"/><circle class="cls-7" cx="269.71" cy="213.45" r="0.71"/><path class="cls-22" d="M830.76,570.66a.94.94,0,1,1,.94-.94A.95.95,0,0,1,830.76,570.66Zm0-1.42a.48.48,0,1,0,.48.48A.48.48,0,0,0,830.76,569.24Z" transform="translate(-561.05 -356.27)"/><circle class="cls-7" cx="271.82" cy="215.03" r="0.71"/><path class="cls-22" d="M832.87,572.24a.94.94,0,1,1,.94-.94A.94.94,0,0,1,832.87,572.24Zm0-1.42a.47.47,0,0,0-.48.48.48.48,0,1,0,1,0A.47.47,0,0,0,832.87,570.82Z" transform="translate(-561.05 -356.27)"/><path class="cls-22" d="M838.56,568.92l.11.36a1.1,1.1,0,0,0,1.05.77h.4a.47.47,0,0,1,.27.84l-.34.25a1.13,1.13,0,0,0-.39,1.24l.13.39a.47.47,0,0,1-.72.52l-.31-.23a1.1,1.1,0,0,0-1.29,0l-.31.23a.46.46,0,0,1-.71-.52l.13-.4a1.13,1.13,0,0,0-.4-1.23l-.33-.25a.47.47,0,0,1,.27-.84h.4a1.1,1.1,0,0,0,1-.77l.12-.36A.46.46,0,0,1,838.56,568.92Z" transform="translate(-561.05 -356.27)"/><ellipse class="cls-7" cx="277.05" cy="214.88" rx="0.82" ry="0.82"/><rect class="cls-11" x="236.43" y="223.36" width="42.01" height="5.8" rx="2.9"/><rect class="cls-12" x="205.5" y="223.36" width="36.91" height="5.8" rx="2.9"/><path class="cls-7" d="M785.79,582h-3.16a.27.27,0,1,1,0-.53h3.16a.27.27,0,1,1,0,.53Z" transform="translate(-561.05 -356.27)"/><path class="cls-7" d="M785.79,583.57h-3.16a.27.27,0,1,1,0-.53h3.16a.27.27,0,1,1,0,.53Z" transform="translate(-561.05 -356.27)"/><path class="cls-7" d="M783.42,584.36a.26.26,0,0,1-.26-.27v-3.16a.26.26,0,0,1,.26-.26.26.26,0,0,1,.26.26v3.16A.27.27,0,0,1,783.42,584.36Z" transform="translate(-561.05 -356.27)"/><path class="cls-7" d="M785,584.36a.27.27,0,0,1-.26-.27v-3.16a.26.26,0,0,1,.26-.26.26.26,0,0,1,.26.26v3.16A.26.26,0,0,1,785,584.36Z" transform="translate(-561.05 -356.27)"/><path class="cls-7" d="M819.06,584.37a.2.2,0,0,1-.14-.06.18.18,0,0,1-.06-.17l.17-1a1.9,1.9,0,1,1,3.67-.69,1.85,1.85,0,0,1-.55,1.34,1.89,1.89,0,0,1-2,.43l-1,.17Zm1.08-.57.07,0a1.52,1.52,0,0,0,1.66-.32,1.51,1.51,0,0,0-2.14-2.14,1.52,1.52,0,0,0-.32,1.66.14.14,0,0,1,0,.11l-.12.8.8-.13Z" transform="translate(-561.05 -356.27)"/><circle class="cls-7" cx="259.09" cy="226.16" r="0.24"/><circle class="cls-7" cx="259.83" cy="226.16" r="0.24"/><circle class="cls-7" cx="260.56" cy="226.16" r="0.24"/><path class="cls-10" d="M769.56,595.48h.81a.06.06,0,0,1,0,.09l-.4.7-.41.69a.06.06,0,0,1-.11,0l-.41-.69-.4-.7a.06.06,0,0,1,0-.09Z" transform="translate(-561.05 -356.27)"/><path class="cls-10" d="M775.77,595.69h-3.16a.25.25,0,0,1-.26-.26.26.26,0,0,1,.26-.26h3.16a.27.27,0,0,1,.27.26A.26.26,0,0,1,775.77,595.69Z" transform="translate(-561.05 -356.27)"/><path class="cls-10" d="M775.77,597.28h-3.16a.27.27,0,0,1,0-.53h3.16a.27.27,0,1,1,0,.53Z" transform="translate(-561.05 -356.27)"/><path class="cls-10" d="M773.4,598.07a.26.26,0,0,1-.26-.27v-3.16a.26.26,0,0,1,.52,0v3.16A.26.26,0,0,1,773.4,598.07Z" transform="translate(-561.05 -356.27)"/><path class="cls-10" d="M775,598.07a.27.27,0,0,1-.26-.27v-3.16a.27.27,0,0,1,.53,0v3.16A.27.27,0,0,1,775,598.07Z" transform="translate(-561.05 -356.27)"/><path class="cls-10" d="M768.79,650.54v-.81a.07.07,0,0,1,.1-.06l.7.41.69.4a.07.07,0,0,1,0,.12l-.69.4-.7.41a.07.07,0,0,1-.1-.06Z" transform="translate(-561.05 -356.27)"/><path class="cls-10" d="M775.77,650h-3.16a.25.25,0,0,1-.26-.26.26.26,0,0,1,.26-.26h3.16a.27.27,0,0,1,.27.26A.26.26,0,0,1,775.77,650Z" transform="translate(-561.05 -356.27)"/><path class="cls-10" d="M775.77,651.59h-3.16a.27.27,0,0,1,0-.53h3.16a.27.27,0,1,1,0,.53Z" transform="translate(-561.05 -356.27)"/><path class="cls-10" d="M773.4,652.38a.26.26,0,0,1-.26-.27V649a.26.26,0,0,1,.52,0v3.16A.26.26,0,0,1,773.4,652.38Z" transform="translate(-561.05 -356.27)"/><path class="cls-10" d="M775,652.38a.27.27,0,0,1-.26-.27V649a.27.27,0,0,1,.53,0v3.16A.27.27,0,0,1,775,652.38Z" transform="translate(-561.05 -356.27)"/><path class="cls-10" d="M768.79,658.18v-.81a.06.06,0,0,1,.1,0l.7.4.69.41a.06.06,0,0,1,0,.11l-.69.41-.7.4a.06.06,0,0,1-.1,0Z" transform="translate(-561.05 -356.27)"/><path class="cls-10" d="M775.77,657.65h-3.16a.27.27,0,0,1,0-.53h3.16a.27.27,0,1,1,0,.53Z" transform="translate(-561.05 -356.27)"/><path class="cls-10" d="M775.77,659.23h-3.16a.26.26,0,0,1-.26-.26.25.25,0,0,1,.26-.26h3.16a.26.26,0,0,1,.27.26A.27.27,0,0,1,775.77,659.23Z" transform="translate(-561.05 -356.27)"/><path class="cls-10" d="M773.4,660a.25.25,0,0,1-.26-.26V656.6a.26.26,0,1,1,.52,0v3.16A.25.25,0,0,1,773.4,660Z" transform="translate(-561.05 -356.27)"/><path class="cls-10" d="M775,660a.26.26,0,0,1-.26-.26V656.6a.27.27,0,1,1,.53,0v3.16A.26.26,0,0,1,775,660Z" transform="translate(-561.05 -356.27)"/><path class="cls-10" d="M768.79,665.83V665a.07.07,0,0,1,.1-.06l.7.41.69.4a.07.07,0,0,1,0,.12l-.69.4-.7.41a.07.07,0,0,1-.1-.06Z" transform="translate(-561.05 -356.27)"/><path class="cls-10" d="M775.77,665.3h-3.16a.27.27,0,0,1,0-.53h3.16a.27.27,0,1,1,0,.53Z" transform="translate(-561.05 -356.27)"/><path class="cls-10" d="M775.77,666.88h-3.16a.27.27,0,0,1,0-.53h3.16a.27.27,0,1,1,0,.53Z" transform="translate(-561.05 -356.27)"/><path class="cls-10" d="M773.4,667.67a.26.26,0,0,1-.26-.26v-3.17a.26.26,0,0,1,.52,0v3.17A.26.26,0,0,1,773.4,667.67Z" transform="translate(-561.05 -356.27)"/><path class="cls-10" d="M775,667.67a.26.26,0,0,1-.26-.26v-3.17a.27.27,0,0,1,.53,0v3.17A.27.27,0,0,1,775,667.67Z" transform="translate(-561.05 -356.27)"/><path class="cls-10" d="M768.79,673.48v-.81s.06-.09.1-.06l.7.4.69.41a.06.06,0,0,1,0,.11l-.69.41-.7.4a.06.06,0,0,1-.1-.05Z" transform="translate(-561.05 -356.27)"/><path class="cls-10" d="M775.77,672.94h-3.16a.27.27,0,0,1,0-.53h3.16a.27.27,0,1,1,0,.53Z" transform="translate(-561.05 -356.27)"/><path class="cls-10" d="M775.77,674.52h-3.16a.26.26,0,1,1,0-.52h3.16a.26.26,0,1,1,0,.52Z" transform="translate(-561.05 -356.27)"/><path class="cls-10" d="M773.4,675.31a.25.25,0,0,1-.26-.26v-3.16a.26.26,0,1,1,.52,0v3.16A.25.25,0,0,1,773.4,675.31Z" transform="translate(-561.05 -356.27)"/><path class="cls-10" d="M775,675.31a.26.26,0,0,1-.26-.26v-3.16a.27.27,0,1,1,.53,0v3.16A.26.26,0,0,1,775,675.31Z" transform="translate(-561.05 -356.27)"/><path class="cls-10" d="M768.79,681.12v-.81a.06.06,0,0,1,.1,0l.7.4.69.41c.05,0,.05.08,0,.11l-.69.4-.7.41a.07.07,0,0,1-.1-.06Z" transform="translate(-561.05 -356.27)"/><path class="cls-10" d="M775.77,680.59h-3.16a.27.27,0,0,1,0-.53h3.16a.27.27,0,1,1,0,.53Z" transform="translate(-561.05 -356.27)"/><path class="cls-10" d="M775.77,682.17h-3.16a.27.27,0,0,1,0-.53h3.16a.27.27,0,1,1,0,.53Z" transform="translate(-561.05 -356.27)"/><path class="cls-10" d="M773.4,683a.26.26,0,0,1-.26-.26v-3.17a.26.26,0,0,1,.52,0v3.17A.26.26,0,0,1,773.4,683Z" transform="translate(-561.05 -356.27)"/><path class="cls-10" d="M775,683a.26.26,0,0,1-.26-.26v-3.17a.27.27,0,0,1,.53,0v3.17A.27.27,0,0,1,775,683Z" transform="translate(-561.05 -356.27)"/><path class="cls-10" d="M775.77,604.13h-2.63c-.11,0-.2,0-.2-.13s.09-.13.2-.13h2.63c.11,0,.2,0,.2.13S775.88,604.13,775.77,604.13Z" transform="translate(-561.05 -356.27)"/><path class="cls-10" d="M775.77,605.45h-2.63c-.11,0-.2,0-.2-.13s.09-.13.2-.13h2.63c.11,0,.2,0,.2.13S775.88,605.45,775.77,605.45Z" transform="translate(-561.05 -356.27)"/><path class="cls-10" d="M773.8,606.17c-.11,0-.14-.08-.14-.19v-2.64c0-.11,0-.2.14-.2s.13.09.13.2V606C773.93,606.09,773.91,606.17,773.8,606.17Z" transform="translate(-561.05 -356.27)"/><path class="cls-10" d="M775.11,606.17c-.1,0-.13-.08-.13-.19v-2.64c0-.11,0-.2.13-.2s.14.09.14.2V606C775.25,606.09,775.22,606.17,775.11,606.17Z" transform="translate(-561.05 -356.27)"/><path class="cls-10" d="M775.77,614.94h-2.63c-.11,0-.2,0-.2-.13s.09-.13.2-.13h2.63c.11,0,.2,0,.2.13S775.88,614.94,775.77,614.94Z" transform="translate(-561.05 -356.27)"/><path class="cls-10" d="M775.77,616.26h-2.63c-.11,0-.2,0-.2-.13s.09-.13.2-.13h2.63c.11,0,.2,0,.2.13S775.88,616.26,775.77,616.26Z" transform="translate(-561.05 -356.27)"/><path class="cls-10" d="M773.8,617c-.11,0-.14-.08-.14-.19v-2.64c0-.11,0-.2.14-.2s.13.09.13.2v2.64C773.93,616.9,773.91,617,773.8,617Z" transform="translate(-561.05 -356.27)"/><path class="cls-10" d="M775.11,617c-.1,0-.13-.08-.13-.19v-2.64c0-.11,0-.2.13-.2s.14.09.14.2v2.64C775.25,616.9,775.22,617,775.11,617Z" transform="translate(-561.05 -356.27)"/><path class="cls-10" d="M775.77,625.75h-2.63c-.11,0-.2,0-.2-.13s.09-.13.2-.13h2.63c.11,0,.2,0,.2.13S775.88,625.75,775.77,625.75Z" transform="translate(-561.05 -356.27)"/><path class="cls-10" d="M775.77,627.07h-2.63c-.11,0-.2,0-.2-.13s.09-.14.2-.14h2.63c.11,0,.2,0,.2.14S775.88,627.07,775.77,627.07Z" transform="translate(-561.05 -356.27)"/><path class="cls-10" d="M773.8,627.79c-.11,0-.14-.09-.14-.19V625c0-.11,0-.2.14-.2s.13.09.13.2v2.64C773.93,627.7,773.91,627.79,773.8,627.79Z" transform="translate(-561.05 -356.27)"/><path class="cls-10" d="M775.11,627.79c-.1,0-.13-.09-.13-.19V625c0-.11,0-.2.13-.2s.14.09.14.2v2.64C775.25,627.7,775.22,627.79,775.11,627.79Z" transform="translate(-561.05 -356.27)"/><path class="cls-10" d="M775.77,636.56h-2.63c-.11,0-.2,0-.2-.13s.09-.13.2-.13h2.63c.11,0,.2,0,.2.13S775.88,636.56,775.77,636.56Z" transform="translate(-561.05 -356.27)"/><path class="cls-10" d="M775.77,637.88h-2.63c-.11,0-.2,0-.2-.13s.09-.14.2-.14h2.63c.11,0,.2,0,.2.14S775.88,637.88,775.77,637.88Z" transform="translate(-561.05 -356.27)"/><path class="cls-10" d="M773.8,638.6c-.11,0-.14-.09-.14-.2v-2.63c0-.11,0-.2.14-.2s.13.09.13.2v2.63C773.93,638.51,773.91,638.6,773.8,638.6Z" transform="translate(-561.05 -356.27)"/><path class="cls-10" d="M775.11,638.6c-.1,0-.13-.09-.13-.2v-2.63c0-.11,0-.2.13-.2s.14.09.14.2v2.63C775.25,638.51,775.22,638.6,775.11,638.6Z" transform="translate(-561.05 -356.27)"/><path class="cls-9" d="M791.59,619H779.73c-.22,0-.4,1-.4,0H792C792,620,791.81,619,791.59,619Z" transform="translate(-561.05 -356.27)"/><rect class="cls-22" x="218.2" y="238.63" width="39.55" height="3.16" rx="1.35"/><rect class="cls-22" x="219.01" y="247.91" width="15.57" height="1.25" rx="0.53"/><rect class="cls-22" x="219.01" y="258.53" width="15.57" height="1.25" rx="0.53"/><rect class="cls-22" x="219.01" y="269.16" width="15.57" height="1.25" rx="0.53"/><rect class="cls-22" x="219.01" y="280.03" width="15.57" height="1.25" rx="0.53"/><rect class="cls-22" x="218.2" y="292.68" width="46.96" height="3.16" rx="1.35"/><rect class="cls-22" x="218.2" y="300.33" width="26.4" height="3.16" rx="1.35"/><rect class="cls-22" x="218.2" y="307.97" width="36.15" height="3.16" rx="1.35"/><rect class="cls-22" x="218.2" y="315.88" width="53.38" height="3.16" rx="1.35"/><rect class="cls-22" x="218.2" y="323.26" width="23.23" height="3.16" rx="1.35"/><g class="cls-31"><path class="cls-11" d="M840.94,724.18H764a4,4,0,0,1-4-4V708.62h85v11.51A4,4,0,0,1,840.94,724.18Z" transform="translate(-561.05 -356.27)"/></g><path class="cls-7" d="M766.2,717.27l-.1,0a.29.29,0,0,1-.2-.28v-3.32a.54.54,0,0,1,.54-.54h3.48a.45.45,0,0,1,.45.45v2.17a.58.58,0,0,1-.57.57h-2.63a.23.23,0,0,0-.19.1l-.51.72A.32.32,0,0,1,766.2,717.27Zm.24-3.9a.29.29,0,0,0-.28.28V717s0,0,0,0a.07.07,0,0,0,.08,0l.5-.72a.51.51,0,0,1,.41-.21h2.63a.31.31,0,0,0,.31-.31v-2.17a.2.2,0,0,0-.19-.19Z" transform="translate(-561.05 -356.27)"/><circle class="cls-7" cx="206.09" cy="358.52" r="0.26"/><circle class="cls-7" cx="207" cy="358.52" r="0.26"/><circle class="cls-7" cx="207.92" cy="358.52" r="0.26"/><path class="cls-7" d="M804.86,716.73h-3.32a.53.53,0,0,1-.53-.53v-2.48a.53.53,0,0,1,.53-.53h3.32a.53.53,0,0,1,.53.53v2.48A.53.53,0,0,1,804.86,716.73Zm-3.32-3.27a.26.26,0,0,0-.26.26v2.48a.26.26,0,0,0,.26.26h3.32a.27.27,0,0,0,.27-.26v-2.48a.27.27,0,0,0-.27-.26Z" transform="translate(-561.05 -356.27)"/><path class="cls-7" d="M803.21,715a.46.46,0,0,1-.3-.11l-1.66-1.3.16-.21,1.66,1.31a.22.22,0,0,0,.27,0l1.56-1.33.17.2-1.56,1.33A.5.5,0,0,1,803.21,715Z" transform="translate(-561.05 -356.27)"/><path class="cls-7" d="M819.93,713.94c-.08,0-.23-.06-.23-.13v-1.06c0-.07.15-.13.23-.13s.22.06.22.13v1.06C820.15,713.88,820,713.94,819.93,713.94Z" transform="translate(-561.05 -356.27)"/><path class="cls-7" d="M821.73,713.94c-.08,0-.23-.06-.23-.13v-1.06c0-.07.15-.13.23-.13s.22.06.22.13v1.06C822,713.88,821.8,713.94,821.73,713.94Z" transform="translate(-561.05 -356.27)"/><path class="cls-7" d="M821.91,717.23h-2.33a.8.8,0,0,1-.8-.8v-2.75a.42.42,0,0,1,.42-.42h3.09a.42.42,0,0,1,.42.42v2.75A.8.8,0,0,1,821.91,717.23Zm-2.71-3.71a.16.16,0,0,0-.15.16v2.75a.54.54,0,0,0,.53.54h2.33a.54.54,0,0,0,.53-.54v-2.75a.16.16,0,0,0-.15-.16Z" transform="translate(-561.05 -356.27)"/><polygon class="cls-7" points="261.88 359.73 257.8 359.73 257.8 359.73 261.88 359.73 261.88 359.73"/><rect class="cls-7" x="258.46" y="359.48" width="2.47" height="0.62" rx="0.15"/><path class="cls-7" d="M839.29,716.91h-2.45a.67.67,0,0,1-.67-.67v-2.45a.67.67,0,0,1,.67-.67h2.34v.27h-2.34a.4.4,0,0,0-.4.4v2.45a.4.4,0,0,0,.4.41h2.45a.41.41,0,0,0,.41-.41v-1.49H840v1.49A.67.67,0,0,1,839.29,716.91Z" transform="translate(-561.05 -356.27)"/><path class="cls-7" d="M838.05,715.73l-.67-.66a.2.2,0,0,1,.28-.28l.38.38L840.1,713a.2.2,0,0,1,.28,0,.19.19,0,0,1,0,.28Z" transform="translate(-561.05 -356.27)"/><circle class="cls-11" cx="224.62" cy="360.21" r="0.54"/><path class="cls-7" d="M785.67,717.15a.67.67,0,1,1,.67-.67A.67.67,0,0,1,785.67,717.15Zm0-1.08a.42.42,0,0,0-.41.41.41.41,0,0,0,.41.41.41.41,0,0,0,.41-.41A.41.41,0,0,0,785.67,716.07Z" transform="translate(-561.05 -356.27)"/><path class="cls-11" d="M787.31,716.22l-.32-.58v-1.49a1,1,0,0,0-.91-1h-.77a1,1,0,0,0-.91,1v1.49l-.36.57a.13.13,0,0,0,.11.21h3A.14.14,0,0,0,787.31,716.22Z" transform="translate(-561.05 -356.27)"/><path class="cls-7" d="M787.19,716.55h-3a.27.27,0,0,1-.22-.41l.34-.54v-1.45a1.1,1.1,0,0,1,1-1.13h.78a1.1,1.1,0,0,1,1,1.13v1.46l.3.54a.26.26,0,0,1,0,.27A.28.28,0,0,1,787.19,716.55Zm-1.12-3.27h-.76a.85.85,0,0,0-.77.87v1.53l-.39.6h3l-.34-.6v-1.53A.85.85,0,0,0,786.07,713.28Z" transform="translate(-561.05 -356.27)"/></g><rect class="cls-26" x="201.18" y="207.38" width="80.35" height="115.57"/></svg>