<svg id="Layer_1" data-name="Layer 1" xmlns="http://www.w3.org/2000/svg" xmlns:xlink="http://www.w3.org/1999/xlink" viewBox="0 0 414.02 319.88"><defs><style>.cls-1,.cls-8{fill:none;}.cls-2,.cls-4{fill:#fff;}.cls-12,.cls-2,.cls-8{stroke:#202123;}.cls-2,.cls-8{stroke-linecap:round;stroke-linejoin:round;stroke-width:4px;}.cls-3{fill:#0c6bf4;}.cls-5{clip-path:url(#clip-path);}.cls-6{fill:#9daad1;}.cls-7{clip-path:url(#clip-path-2);}.cls-9{fill:#202123;}.cls-10{fill:#ebf5f7;}.cls-11{fill:#f53b69;stroke-width:2.3px;}.cls-11,.cls-13{stroke:#000;}.cls-11,.cls-12,.cls-13,.cls-14{stroke-miterlimit:10;}.cls-12{fill:#89a6f5;}.cls-12,.cls-13,.cls-14{stroke-width:2px;}.cls-13{fill:#f5c43c;}.cls-14{fill:#64c3d9;stroke:#050505;}</style><clipPath id="clip-path" transform="translate(-406.32 -167.46)"><circle class="cls-1" cx="574.05" cy="327.54" r="157.92"/></clipPath><clipPath id="clip-path-2" transform="translate(-406.32 -167.46)"><path class="cls-2" d="M786.81,463.12H501.55c-15.21,0-27.53-10.71-27.53-23.91V227.27c0-13.21,12.32-23.91,27.53-23.91H786.81c15.2,0,27.53,10.7,27.53,23.91V439.21c0,13.2-12.33,23.91-27.53,23.91"/></clipPath></defs><title>2_carlendar</title><path class="cls-3" d="M750.52,482.83" transform="translate(-406.32 -167.46)"/><circle class="cls-4" cx="167.73" cy="160.07" r="157.92"/><g class="cls-5"><path class="cls-6" d="M786.81,463.12H501.55c-15.21,0-27.53-10.71-27.53-23.91V227.27c0-13.21,12.32-23.91,27.53-23.91H786.81c15.2,0,27.53,10.7,27.53,23.91V439.21c0,13.2-12.33,23.91-27.53,23.91" transform="translate(-406.32 -167.46)"/><path class="cls-4" d="M786.81,463.12H501.55c-15.21,0-27.53-10.71-27.53-23.91V227.27c0-13.21,12.32-23.91,27.53-23.91H786.81c15.2,0,27.53,10.7,27.53,23.91V439.21c0,13.2-12.33,23.91-27.53,23.91" transform="translate(-406.32 -167.46)"/><g class="cls-7"><rect class="cls-2" x="67.68" y="33.14" width="344.34" height="50.86"/></g><path class="cls-8" d="M786.81,463.12H501.55c-15.21,0-27.53-10.71-27.53-23.91V227.27c0-13.21,12.32-23.91,27.53-23.91H786.81c15.2,0,27.53,10.7,27.53,23.91V439.21c0,13.2-12.33,23.91-27.53,23.91" transform="translate(-406.32 -167.46)"/><rect class="cls-4" x="85.34" y="99.61" width="304.87" height="178.22" rx="11.28"/><rect class="cls-9" x="126.5" y="98.08" width="2.67" height="185.33"/><rect class="cls-9" x="217.37" y="98.08" width="2.67" height="185.33"/><rect class="cls-9" x="259.89" y="98.08" width="2.67" height="185.33"/><rect class="cls-9" x="302.98" y="98.08" width="2.67" height="185.33"/><rect class="cls-9" x="346.59" y="98.08" width="2.67" height="185.33"/><rect class="cls-9" x="172.03" y="98.08" width="2.66" height="185.33"/><rect class="cls-9" x="85.34" y="96.47" width="309.57" height="2.78"/><rect class="cls-9" x="85.34" y="191.22" width="309.57" height="2.78"/><rect class="cls-9" x="85.34" y="235.56" width="309.57" height="2.78"/><rect class="cls-9" x="85.34" y="280.49" width="309.57" height="2.78"/><rect class="cls-9" x="85.34" y="143.94" width="309.57" height="2.78"/><path class="cls-10" d="M532.82,267.07H503a11.28,11.28,0,0,0-11.29,11.28v33.06h41.16Z" transform="translate(-406.32 -167.46)"/><rect class="cls-10" x="305.64" y="146.72" width="40.95" height="44.5"/><rect class="cls-10" x="129.16" y="146.55" width="42.86" height="44.5"/><rect class="cls-10" x="220.19" y="238.34" width="39.86" height="39.49"/><rect class="cls-10" x="349.26" y="194" width="40.95" height="41.56"/><rect class="cls-10" x="220.03" y="146.72" width="39.86" height="44.02"/><path class="cls-2" d="M578.71,217.84a11.41,11.41,0,1,1-11.41-11.41,11.41,11.41,0,0,1,11.41,11.41" transform="translate(-406.32 -167.46)"/><path class="cls-9" d="M567.26,222.86h0a5.69,5.69,0,0,1-5.67-5.68V195.61a5.68,5.68,0,1,1,11.35,0v21.57a5.7,5.7,0,0,1-5.68,5.68" transform="translate(-406.32 -167.46)"/><path class="cls-2" d="M740.63,217.84a11.41,11.41,0,1,1-11.41-11.41,11.41,11.41,0,0,1,11.41,11.41" transform="translate(-406.32 -167.46)"/><path class="cls-9" d="M729.19,222.86h0a5.7,5.7,0,0,1-5.68-5.68V195.61a5.68,5.68,0,1,1,11.36,0v21.57a5.7,5.7,0,0,1-5.68,5.68" transform="translate(-406.32 -167.46)"/><path class="cls-2" d="M794,217.84a11.41,11.41,0,1,1-11.41-11.41A11.41,11.41,0,0,1,794,217.84" transform="translate(-406.32 -167.46)"/><path class="cls-9" d="M782.55,222.86h0a5.7,5.7,0,0,1-5.68-5.68V195.61a5.68,5.68,0,1,1,11.35,0v21.57a5.69,5.69,0,0,1-5.67,5.68" transform="translate(-406.32 -167.46)"/><path class="cls-2" d="M525,217.84a11.41,11.41,0,1,1-11.41-11.41A11.41,11.41,0,0,1,525,217.84" transform="translate(-406.32 -167.46)"/><path class="cls-9" d="M513.52,222.86h0a5.7,5.7,0,0,1-5.68-5.68V195.61a5.68,5.68,0,1,1,11.35,0v21.57a5.69,5.69,0,0,1-5.67,5.68" transform="translate(-406.32 -167.46)"/></g><path class="cls-8" d="M670.1,453.66A158.3,158.3,0,0,1,417,327" transform="translate(-406.32 -167.46)"/><path class="cls-8" d="M651.41,189.08a158.13,158.13,0,0,1,69,200.43" transform="translate(-406.32 -167.46)"/><path class="cls-8" d="M464.5,214.25a163.48,163.48,0,0,1,15.65-13.11,157.49,157.49,0,0,1,112.5-30.69" transform="translate(-406.32 -167.46)"/><path class="cls-11" d="M783,300.94H727.5a7.27,7.27,0,0,0-7.27,7.27V319a7.27,7.27,0,0,0,7.27,7.26H728l-3.71,5.08a1.12,1.12,0,0,0,1.47,1.63l11.49-6.71H783a7.26,7.26,0,0,0,7.26-7.26V308.21A7.27,7.27,0,0,0,783,300.94Z" transform="translate(-406.32 -167.46)"/><path class="cls-4" d="M776.89,322.52a8.85,8.85,0,1,1,8.85-8.85A8.86,8.86,0,0,1,776.89,322.52Zm0-15.74a6.9,6.9,0,1,0,6.89,6.89A6.9,6.9,0,0,0,776.89,306.78Z" transform="translate(-406.32 -167.46)"/><path class="cls-4" d="M765.87,310.07h-39a1,1,0,0,1,0-2h39a1,1,0,0,1,0,2Z" transform="translate(-406.32 -167.46)"/><path class="cls-4" d="M765.87,314.69h-39a1,1,0,0,1,0-2h39a1,1,0,0,1,0,2Z" transform="translate(-406.32 -167.46)"/><path class="cls-4" d="M765.87,319.23h-39a1,1,0,1,1,0-2h39a1,1,0,0,1,0,2Z" transform="translate(-406.32 -167.46)"/><path class="cls-11" d="M440,254h55.47a7.26,7.26,0,0,1,7.26,7.27V272a7.26,7.26,0,0,1-7.26,7.26h-.53l4.59,6.3a.81.81,0,0,1-1.06,1.17l-12.78-7.47H440a7.26,7.26,0,0,1-7.26-7.26V261.24A7.27,7.27,0,0,1,440,254Z" transform="translate(-406.32 -167.46)"/><path class="cls-4" d="M446,275.55a8.85,8.85,0,1,1,8.85-8.85A8.86,8.86,0,0,1,446,275.55Zm0-15.74a6.9,6.9,0,1,0,6.9,6.89A6.9,6.9,0,0,0,446,259.81Z" transform="translate(-406.32 -167.46)"/><path class="cls-4" d="M496.06,263.1h-39a1,1,0,0,1,0-2h39a1,1,0,1,1,0,2Z" transform="translate(-406.32 -167.46)"/><path class="cls-4" d="M496.06,267.72h-39a1,1,0,1,1,0-2h39a1,1,0,1,1,0,2Z" transform="translate(-406.32 -167.46)"/><path class="cls-4" d="M496.06,272.26h-39a1,1,0,1,1,0-1.95h39a1,1,0,1,1,0,1.95Z" transform="translate(-406.32 -167.46)"/><path class="cls-12" d="M539.08,391h55.47a7.26,7.26,0,0,1,7.26,7.27v10.76a7.26,7.26,0,0,1-7.26,7.26H594l3.63,5a1.15,1.15,0,0,1-1.51,1.67l-11.37-6.64h-45.7a7.26,7.26,0,0,1-7.26-7.26V398.29A7.26,7.26,0,0,1,539.08,391Z" transform="translate(-406.32 -167.46)"/><path class="cls-4" d="M545.16,412.6a8.85,8.85,0,1,1,8.85-8.85A8.86,8.86,0,0,1,545.16,412.6Zm0-15.74a6.9,6.9,0,1,0,6.9,6.89A6.91,6.91,0,0,0,545.16,396.86Z" transform="translate(-406.32 -167.46)"/><path class="cls-4" d="M595.18,400.15h-39a1,1,0,0,1,0-2h39a1,1,0,1,1,0,2Z" transform="translate(-406.32 -167.46)"/><path class="cls-4" d="M595.18,404.77h-39a1,1,0,0,1,0-2h39a1,1,0,1,1,0,2Z" transform="translate(-406.32 -167.46)"/><path class="cls-4" d="M595.18,409.31h-39a1,1,0,1,1,0-1.95h39a1,1,0,1,1,0,1.95Z" transform="translate(-406.32 -167.46)"/><path class="cls-13" d="M595.49,326.65a13.72,13.72,0,0,1-2,.05,5.75,5.75,0,0,0-3.42.64,4,4,0,0,0-1.47,3.06,8.41,8.41,0,0,0,0,1.15,1.71,1.71,0,0,1-2.1,2.15,2.24,2.24,0,0,1-.39-.08c-.93-.26-2.27-1.72-3.16-2.68-.14-.14-.26-.28-.38-.41s-.52-.57-.79-.89c-1-1.15-2-2.35-3.37-2.63a4.81,4.81,0,0,0-.71-.11,18.6,18.6,0,0,0-2.29-.06c-.57,0-1.17,0-1.83,0h0l-13.65.11c-.2,0-.41,0-.61,0a5.25,5.25,0,0,1-4.69-5.18l-.18-21.48a5.28,5.28,0,0,1,5.22-5.3l35.2-.28c.2,0,.41,0,.61,0a5.25,5.25,0,0,1,4.69,5.18l.18,21.47a5.26,5.26,0,0,1-4.6,5.26Z" transform="translate(-406.32 -167.46)"/><path class="cls-4" d="M587.29,309.29a2.07,2.07,0,0,1,1.84,2,2.07,2.07,0,0,1-2,2.08h-.24a2.07,2.07,0,0,1-1.26-3.5,2,2,0,0,1,1.46-.62h.24" transform="translate(-406.32 -167.46)"/><path class="cls-4" d="M578.08,309.38a2.07,2.07,0,0,1,1.26,3.5,2.07,2.07,0,0,1-1.46.62h-.24a2.07,2.07,0,0,1-1.85-2,2,2,0,0,1,.6-1.46,2,2,0,0,1,1.45-.62h.24" transform="translate(-406.32 -167.46)"/><path class="cls-4" d="M568.87,309.47a2.06,2.06,0,0,1,1.85,2,2.09,2.09,0,0,1-.59,1.47,2.05,2.05,0,0,1-1.46.62h-.24a2.07,2.07,0,0,1-1.84-2,2.07,2.07,0,0,1,2-2.08h.24" transform="translate(-406.32 -167.46)"/><circle class="cls-13" cx="248.66" cy="65.64" r="6.89"/><path class="cls-9" d="M444,323h-4v-4a1,1,0,0,0-2,0v4h-4a1,1,0,0,0,0,2h4v5a1,1,0,0,0,2,0v-5h4a1,1,0,0,0,0-2Z" transform="translate(-406.32 -167.46)"/><circle class="cls-14" cx="5.42" cy="140.98" r="4.42"/></svg>