<svg id="Layer_1" data-name="Layer 1" xmlns="http://www.w3.org/2000/svg" xmlns:xlink="http://www.w3.org/1999/xlink" viewBox="0 0 347.91 319.96"><defs><style>.cls-1,.cls-4,.cls-7{fill:none;}.cls-2{fill:#0c6bf4;}.cls-3,.cls-6{fill:#fff;}.cls-4,.cls-6{stroke:#202123;stroke-width:4px;}.cls-4,.cls-6,.cls-7{stroke-linecap:round;stroke-linejoin:round;}.cls-5{clip-path:url(#clip-path);}.cls-7{stroke:#f53b69;stroke-width:8px;}.cls-8{fill:#f5c43c;stroke:#000;}.cls-10,.cls-8{stroke-miterlimit:10;stroke-width:2px;}.cls-9{fill:#202123;}.cls-10{fill:#64c3d9;stroke:#050505;}</style><clipPath id="clip-path" transform="translate(-351.09 -576.87)"><circle class="cls-1" cx="514.24" cy="736.03" r="157.92"/></clipPath></defs><title>2_mail</title><path class="cls-2" d="M690.52,891.83" transform="translate(-351.09 -576.87)"/><circle class="cls-3" cx="163.15" cy="159.16" r="157.92"/><path class="cls-4" d="M588.82,876.53A158.3,158.3,0,0,1,359,711.44" transform="translate(-351.09 -576.87)"/><path class="cls-4" d="M612.19,612.32a158.1,158.1,0,0,1,36.48,208.82" transform="translate(-351.09 -576.87)"/><path class="cls-4" d="M423.66,607.63a163.19,163.19,0,0,1,17.52-10.48,157.5,157.5,0,0,1,115.94-12.51" transform="translate(-351.09 -576.87)"/><g class="cls-5"><path class="cls-3" d="M451.74,690.2a10.2,10.2,0,0,1-10.2,10.19H422.18A10.19,10.19,0,0,1,412,690.2V670.83a10.19,10.19,0,0,1,10.19-10.19h19.36a10.22,10.22,0,0,1,4.92,1.26" transform="translate(-351.09 -576.87)"/><path class="cls-4" d="M451.74,690.2a10.2,10.2,0,0,1-10.2,10.19H422.18A10.19,10.19,0,0,1,412,690.2V670.83a10.19,10.19,0,0,1,10.19-10.19h19.36a10.22,10.22,0,0,1,4.92,1.26" transform="translate(-351.09 -576.87)"/><line class="cls-6" x1="118.91" y1="92.13" x2="285.91" y2="92.13"/><line class="cls-6" x1="118.91" y1="104.13" x2="305.91" y2="104.13"/><line class="cls-6" x1="118.91" y1="117.13" x2="345.91" y2="117.13"/><polyline class="cls-7" points="109.95 70.37 81.41 111.25 70.46 96.24"/><path class="cls-3" d="M451.74,750.22a10.2,10.2,0,0,1-10.2,10.19H422.18A10.19,10.19,0,0,1,412,750.22V730.85a10.19,10.19,0,0,1,10.19-10.19h19.36a10.22,10.22,0,0,1,4.92,1.26" transform="translate(-351.09 -576.87)"/><path class="cls-4" d="M451.74,750.22a10.2,10.2,0,0,1-10.2,10.19H422.18A10.19,10.19,0,0,1,412,750.22V730.85a10.19,10.19,0,0,1,10.19-10.19h19.36a10.22,10.22,0,0,1,4.92,1.26" transform="translate(-351.09 -576.87)"/><line class="cls-6" x1="118.91" y1="152.13" x2="258.91" y2="152.13"/><line class="cls-6" x1="118.91" y1="164.13" x2="290.91" y2="164.13"/><line class="cls-6" x1="118.91" y1="177.13" x2="316.91" y2="177.13"/><polyline class="cls-7" points="109.95 130.39 81.41 171.27 70.46 156.26"/><path class="cls-3" d="M451.74,811.27a10.2,10.2,0,0,1-10.2,10.2H422.18A10.2,10.2,0,0,1,412,811.27V791.91a10.19,10.19,0,0,1,10.19-10.19h19.36a10.11,10.11,0,0,1,4.92,1.26" transform="translate(-351.09 -576.87)"/><path class="cls-4" d="M451.74,811.27a10.2,10.2,0,0,1-10.2,10.2H422.18A10.2,10.2,0,0,1,412,811.27V791.91a10.19,10.19,0,0,1,10.19-10.19h19.36a10.11,10.11,0,0,1,4.92,1.26" transform="translate(-351.09 -576.87)"/><line class="cls-6" x1="118.91" y1="211.13" x2="249.91" y2="211.13"/><line class="cls-6" x1="118.91" y1="226.13" x2="335.91" y2="226.13"/><line class="cls-6" x1="118.91" y1="238.13" x2="277.91" y2="238.13"/><polyline class="cls-7" points="109.95 191.45 81.41 232.33 70.46 217.32"/></g><circle class="cls-8" cx="7.89" cy="36.24" r="6.89"/><path class="cls-9" d="M626,849h-4v-4a1,1,0,0,0-2,0v4h-4a1,1,0,0,0,0,2h4v5a1,1,0,0,0,2,0v-5h4a1,1,0,0,0,0-2Z" transform="translate(-351.09 -576.87)"/><circle class="cls-10" cx="40.65" cy="59.57" r="4.42"/></svg>