<svg id="Layer_1" data-name="Layer 1" xmlns="http://www.w3.org/2000/svg" xmlns:xlink="http://www.w3.org/1999/xlink" viewBox="0 0 470.2 525.03"><defs><style>.cls-1,.cls-10,.cls-15,.cls-9{fill:none;}.cls-2{fill:#0c6bf4;}.cls-12,.cls-3{fill:#f9f9f9;}.cls-4{clip-path:url(#clip-path);}.cls-5{font-size:14.89px;fill:#3b4369;font-family:NotoSansCJKkr-Medium-KSCpc-EUC-H, Noto Sans CJK KR;}.cls-18,.cls-6{fill:#64c3d9;}.cls-10,.cls-12,.cls-14,.cls-15,.cls-6,.cls-7{stroke:#202123;}.cls-12,.cls-18,.cls-6,.cls-7,.cls-8,.cls-9{stroke-miterlimit:10;}.cls-12,.cls-14,.cls-18,.cls-6,.cls-7{stroke-width:2px;}.cls-14,.cls-7{fill:#ebf5f7;}.cls-8{fill:#f53b69;stroke-width:2.3px;}.cls-16,.cls-8{stroke:#000;}.cls-9{stroke:#dde7f0;}.cls-10,.cls-14,.cls-15,.cls-16{stroke-linecap:round;stroke-linejoin:round;}.cls-10{stroke-width:4px;}.cls-11{clip-path:url(#clip-path-2);}.cls-13{fill:#202123;}.cls-15,.cls-16{stroke-width:3px;}.cls-16{fill:#f5c43c;}.cls-17{font-size:28px;font-family:NotoSansCJKkr-Bold-KSCpc-EUC-H, Noto Sans CJK KR;}.cls-18{stroke:#050505;}</style><clipPath id="clip-path" transform="translate(-965.7 -142.35)"><ellipse class="cls-1" cx="1269.12" cy="309.34" rx="164.81" ry="164.75" transform="translate(285.91 1169.37) rotate(-54.87)"/></clipPath><clipPath id="clip-path-2" transform="translate(-965.7 -142.35)"><circle class="cls-1" cx="1059" cy="330" r="80.61"/></clipPath></defs><title>2_reservation</title><path class="cls-2" d="M1470,516.47" transform="translate(-965.7 -142.35)"/><circle class="cls-3" cx="303.48" cy="167.02" r="164.81"/><g class="cls-4"><text class="cls-5" transform="translate(192.73 77.72)">시간</text><text class="cls-5" transform="translate(190.87 143.1)">날짜</text><rect class="cls-6" x="190.87" y="88.31" width="62.17" height="30.35" rx="4.78"/><rect class="cls-6" x="190.87" y="153.38" width="25.24" height="10.01" rx="1.8"/><rect class="cls-6" x="225.47" y="153.38" width="25.24" height="10.01" rx="1.8"/><rect class="cls-6" x="260.07" y="153.38" width="25.24" height="10.01" rx="1.8"/><rect class="cls-6" x="294.67" y="153.38" width="25.24" height="10.01" rx="1.8"/><rect class="cls-6" x="329.27" y="153.38" width="25.24" height="10.01" rx="1.8"/><rect class="cls-6" x="363.87" y="153.38" width="25.24" height="10.01" rx="1.8"/><rect class="cls-6" x="398.47" y="153.38" width="25.24" height="10.01" rx="1.8"/><rect class="cls-7" x="225.47" y="180.1" width="25.24" height="10.01" rx="1.8"/><rect class="cls-7" x="260.07" y="180.1" width="25.24" height="10.01" rx="1.8"/><rect class="cls-7" x="294.67" y="180.1" width="25.24" height="10.01" rx="1.8"/><rect class="cls-7" x="329.27" y="180.1" width="25.24" height="10.01" rx="1.8"/><rect class="cls-7" x="363.87" y="180.1" width="25.24" height="10.01" rx="1.8"/><rect class="cls-7" x="398.47" y="180.1" width="25.24" height="10.01" rx="1.8"/><rect class="cls-7" x="225.47" y="206.81" width="25.24" height="10.01" rx="1.8"/><rect class="cls-7" x="190.87" y="206.81" width="25.24" height="10.01" rx="1.8"/><rect class="cls-7" x="260.07" y="206.81" width="25.24" height="10.01" rx="1.8"/><rect class="cls-7" x="294.67" y="206.81" width="25.24" height="10.01" rx="1.8"/><rect class="cls-7" x="329.27" y="206.81" width="25.24" height="10.01" rx="1.8"/><rect class="cls-7" x="363.87" y="206.81" width="25.24" height="10.01" rx="1.8"/><rect class="cls-7" x="398.47" y="206.81" width="25.24" height="10.01" rx="1.8"/><rect class="cls-7" x="225.47" y="233.53" width="25.24" height="10.01" rx="1.8"/><rect class="cls-7" x="190.87" y="233.53" width="25.24" height="10.01" rx="1.8"/><rect class="cls-7" x="260.07" y="233.53" width="25.24" height="10.01" rx="1.8"/><rect class="cls-8" x="294.67" y="233.53" width="25.24" height="10.01" rx="1.8"/><rect class="cls-7" x="329.27" y="233.53" width="25.24" height="10.01" rx="1.8"/><rect class="cls-7" x="363.87" y="233.53" width="25.24" height="10.01" rx="1.8"/><rect class="cls-7" x="398.47" y="233.53" width="25.24" height="10.01" rx="1.8"/><rect class="cls-7" x="225.47" y="260.25" width="25.24" height="10.01" rx="1.8"/><rect class="cls-7" x="190.87" y="260.25" width="25.24" height="10.01" rx="1.8"/><rect class="cls-7" x="260.07" y="260.25" width="25.24" height="10.01" rx="1.8"/><rect class="cls-7" x="294.67" y="260.25" width="25.24" height="10.01" rx="1.8"/><rect class="cls-7" x="329.27" y="260.25" width="25.24" height="10.01" rx="1.8"/><rect class="cls-7" x="363.87" y="260.25" width="25.24" height="10.01" rx="1.8"/><rect class="cls-7" x="398.47" y="260.25" width="25.24" height="10.01" rx="1.8"/><rect class="cls-7" x="225.47" y="286.97" width="25.24" height="10.01" rx="1.8"/><rect class="cls-7" x="190.87" y="286.97" width="25.24" height="10.01" rx="1.8"/><rect class="cls-7" x="260.07" y="286.97" width="25.24" height="10.01" rx="1.8"/><rect class="cls-7" x="294.67" y="286.97" width="25.24" height="10.01" rx="1.8"/><rect class="cls-7" x="329.27" y="286.97" width="25.24" height="10.01" rx="1.8"/><rect class="cls-7" x="363.87" y="286.97" width="25.24" height="10.01" rx="1.8"/><rect class="cls-7" x="398.47" y="286.97" width="25.24" height="10.01" rx="1.8"/><rect class="cls-7" x="262.63" y="88.31" width="62.17" height="30.35" rx="4.78"/><rect class="cls-7" x="338.21" y="88.31" width="62.17" height="30.35" rx="4.78"/><line class="cls-9" x1="190.87" y1="474.14" x2="423.71" y2="474.14"/><line class="cls-9" x1="190.87" y1="499.33" x2="423.71" y2="499.33"/><line class="cls-9" x1="190.87" y1="524.53" x2="423.71" y2="524.53"/></g><path class="cls-10" d="M1433.9,330.08a165.21,165.21,0,0,1-279,97.08" transform="translate(-965.7 -142.35)"/><path class="cls-10" d="M1222.39,151.47a165.06,165.06,0,0,1,200.17,94.26" transform="translate(-965.7 -142.35)"/><path class="cls-10" d="M1105.18,309.59a168.73,168.73,0,0,1,1.58-21.25,164.36,164.36,0,0,1,58.93-106.47" transform="translate(-965.7 -142.35)"/><circle class="cls-3" cx="93.3" cy="187.65" r="80.61"/><g class="cls-11"><rect class="cls-12" x="60.46" y="124.6" width="62.38" height="57.06"/><rect class="cls-12" x="57.98" y="123.55" width="67.36" height="3.99"/><rect class="cls-12" x="57.98" y="179.87" width="67.36" height="3.99"/><path class="cls-6" d="M986.38,336.2a5.29,5.29,0,0,1,1.92,3.13l4.56,19.29a1.54,1.54,0,0,0,1.5,1.22h19.57a2.19,2.19,0,0,1,0,4.37H992.07a3.08,3.08,0,0,1-3-2.44l-5-25.45C983.78,335.14,985.47,335.52,986.38,336.2Z" transform="translate(-965.7 -142.35)"/><path class="cls-3" d="M986.63,386.06a.77.77,0,0,1-.77-.77v-1a.78.78,0,0,1,.77-.77h20.83V357a5.44,5.44,0,0,0-5.44-5.43H988.65a.77.77,0,0,1-.77-.78v-1a.77.77,0,0,1,.77-.78H1002a8,8,0,0,1,8,7.95v26.73a2.37,2.37,0,0,1-2.37,2.37Z" transform="translate(-965.7 -142.35)"/><path class="cls-13" d="M1002,349.42a7.55,7.55,0,0,1,7.55,7.54v26.73a2,2,0,0,1-2,2h-21a.37.37,0,0,1-.37-.37v-1a.38.38,0,0,1,.37-.37h21a.26.26,0,0,0,.26-.26V357a5.84,5.84,0,0,0-5.84-5.83H988.65a.38.38,0,0,1-.37-.38v-1a.37.37,0,0,1,.37-.37H1002m0-.81H988.65a1.17,1.17,0,0,0-1.17,1.18v1a1.17,1.17,0,0,0,1.17,1.18H1002a5,5,0,0,1,5,5v26.19H986.63a1.18,1.18,0,0,0-1.17,1.17v1a1.18,1.18,0,0,0,1.17,1.18h21a2.78,2.78,0,0,0,2.77-2.78V357a8.36,8.36,0,0,0-8.35-8.35Z" transform="translate(-965.7 -142.35)"/><path class="cls-6" d="M1128.6,336.2a5.29,5.29,0,0,0-1.92,3.13l-4.56,19.29a1.54,1.54,0,0,1-1.5,1.22h-19.57a2.19,2.19,0,0,0,0,4.37h21.86a3.09,3.09,0,0,0,3-2.44l5-25.45C1131.2,335.14,1129.51,335.52,1128.6,336.2Z" transform="translate(-965.7 -142.35)"/><path class="cls-3" d="M1128.34,386.06a.77.77,0,0,0,.78-.77v-1a.78.78,0,0,0-.78-.77h-20.82V357a5.44,5.44,0,0,1,5.44-5.43h13.37a.78.78,0,0,0,.77-.78v-1a.78.78,0,0,0-.77-.78H1113a8,8,0,0,0-8,7.95v26.73a2.37,2.37,0,0,0,2.37,2.37Z" transform="translate(-965.7 -142.35)"/><path class="cls-13" d="M1113,349.42h13.37a.37.37,0,0,1,.37.37v1a.38.38,0,0,1-.37.38H1113a5.84,5.84,0,0,0-5.84,5.83v26.73a.26.26,0,0,0,.26.26h21a.38.38,0,0,1,.38.37v1a.37.37,0,0,1-.38.37h-21a2,2,0,0,1-2-2V357a7.55,7.55,0,0,1,7.55-7.54m0-.81a8.36,8.36,0,0,0-8.35,8.35v26.73a2.78,2.78,0,0,0,2.77,2.78h21a1.18,1.18,0,0,0,1.18-1.18v-1a1.18,1.18,0,0,0-1.18-1.17h-20.42V357a5,5,0,0,1,5-5h13.37a1.17,1.17,0,0,0,1.17-1.18v-1a1.17,1.17,0,0,0-1.17-1.18Z" transform="translate(-965.7 -142.35)"/><rect class="cls-12" x="69.45" y="203.18" width="46.63" height="40.61"/><rect class="cls-12" x="104.81" y="201.12" width="20.38" height="42.61"/><rect class="cls-12" x="58.77" y="201.12" width="20.38" height="42.61"/><rect class="cls-12" x="55.82" y="198.76" width="72.32" height="4.74"/><line class="cls-14" x1="178.3" y1="244.02" x2="1" y2="244.02"/></g><path class="cls-15" d="M978.39,330a80.61,80.61,0,0,1,132.19-61.95" transform="translate(-965.7 -142.35)"/><path class="cls-15" d="M1132.91,297.77a80.63,80.63,0,0,1-144.7,70.83" transform="translate(-965.7 -142.35)"/><rect class="cls-16" x="134.16" y="164.4" width="128.93" height="59.06" rx="16.5"/><text class="cls-17" transform="translate(146.34 204.6)">예약완료</text><circle class="cls-18" cx="284.64" cy="138.65" r="3.67"/><path class="cls-12" d="M1206.4,349.31l23,7.62a.75.75,0,0,1,.14,1.36l-6,3.48,6.7,6.24a1.19,1.19,0,0,1,.07,1.66l-2.81,3.09a1.18,1.18,0,0,1-1.68.07l-6.92-6.44-2.85,6.86a.75.75,0,0,1-1.38,0l-9.58-22.48A1.1,1.1,0,0,1,1206.4,349.31Z" transform="translate(-965.7 -142.35)"/><circle class="cls-8" cx="134.64" cy="90.65" r="6.67"/></svg>