<svg id="Layer_1" data-name="Layer 1" xmlns="http://www.w3.org/2000/svg" xmlns:xlink="http://www.w3.org/1999/xlink" viewBox="0 0 435.52 341.62"><defs><style>.cls-1,.cls-10,.cls-15,.cls-8,.cls-9{fill:none;}.cls-2{fill:#0c6bf4;}.cls-3{clip-path:url(#clip-path);}.cls-4{fill:#ebf5f7;}.cls-4,.cls-8{stroke:#202123;}.cls-10,.cls-11,.cls-13,.cls-15,.cls-4,.cls-5,.cls-6,.cls-9{stroke-miterlimit:10;}.cls-13,.cls-4,.cls-5,.cls-6{stroke-width:2px;}.cls-5{fill:#fff;}.cls-10,.cls-11,.cls-15,.cls-5,.cls-6,.cls-9{stroke:#000;}.cls-6{fill:#f5c43c;}.cls-7{fill:#dedede;}.cls-10,.cls-8,.cls-9{stroke-linecap:round;}.cls-8{stroke-linejoin:round;stroke-width:4px;}.cls-10,.cls-15,.cls-9{stroke-width:3px;}.cls-10{stroke-dasharray:12.02 12.02;}.cls-11{fill:#f53b69;stroke-width:2.3px;}.cls-12{fill:#202123;}.cls-13{fill:#64c3d9;stroke:#050505;}.cls-14{fill:#f9f9f9;}</style><clipPath id="clip-path" transform="translate(-1124.5 -555.02)"><circle class="cls-1" cx="1354.01" cy="736.43" r="158.44"/></clipPath></defs><title>2_rmail</title><path class="cls-2" d="M1470,516.47" transform="translate(-1124.5 -555.02)"/><g class="cls-3"><rect class="cls-4" x="55.38" y="59.95" width="357.1" height="74.05"/><rect class="cls-4" x="113.35" y="85.85" width="22.24" height="22.24"/><polygon class="cls-5" points="230.09 108.1 207.84 108.1 216.91 96.98 207.84 85.85 230.09 85.85 239.16 96.98 230.09 108.1"/><path class="cls-6" d="M1298.32,642.68l2.72,5.52,6.1.89a1,1,0,0,1,.55,1.69l-4.41,4.29,1,6.07a1,1,0,0,1-1.44,1.05l-5.45-2.87-5.45,2.87a1,1,0,0,1-1.44-1.05l1-6.07-4.72-4.6a.77.77,0,0,1,.43-1.32l6.52-.95,2.73-5.52A1,1,0,0,1,1298.32,642.68Z" transform="translate(-1124.5 -555.02)"/><rect class="cls-7" x="255.12" y="92.45" width="177.2" height="9.05"/><rect class="cls-4" x="113.35" y="159.91" width="22.24" height="22.24"/><polygon class="cls-5" points="230.09 182.15 207.84 182.15 216.91 171.03 207.84 159.91 230.09 159.91 239.16 171.03 230.09 182.15"/><path class="cls-6" d="M1298.35,716.79l2.69,5.46,6,.88a1,1,0,0,1,.57,1.75l-4.36,4.25,1,6a1,1,0,0,1-1.48,1.08l-5.39-2.83-5.39,2.83a1,1,0,0,1-1.49-1.08l1-6-4.36-4.25a1,1,0,0,1,.57-1.75l6-.88,2.7-5.46A1,1,0,0,1,1298.35,716.79Z" transform="translate(-1124.5 -555.02)"/><rect class="cls-7" x="255.12" y="166.51" width="177.2" height="9.05"/><rect class="cls-4" x="55.38" y="208.06" width="357.1" height="74.05"/><rect class="cls-4" x="113.35" y="233.96" width="22.24" height="22.24"/><polygon class="cls-5" points="230.09 256.2 207.84 256.2 216.91 245.08 207.84 233.96 230.09 233.96 239.16 245.08 230.09 256.2"/><rect class="cls-7" x="255.12" y="240.56" width="177.2" height="9.05"/><rect class="cls-4" x="113.35" y="308.01" width="22.24" height="22.24"/><polygon class="cls-5" points="230.09 330.26 207.84 330.26 216.91 319.13 207.84 308.01 230.09 308.01 239.16 319.13 230.09 330.26"/><path class="cls-6" d="M1298.3,864.8l2.74,5.56,6.13.89a1,1,0,0,1,.54,1.66l-4.43,4.32,1,6.11a1,1,0,0,1-1.41,1l-5.48-2.88-5.48,2.88a1,1,0,0,1-1.42-1l1-6.11-4.43-4.32a1,1,0,0,1,.54-1.66l6.12-.89,2.75-5.56A1,1,0,0,1,1298.3,864.8Z" transform="translate(-1124.5 -555.02)"/><rect class="cls-7" x="255.12" y="314.61" width="177.2" height="9.05"/><circle class="cls-1" cx="229.74" cy="180" r="157.92"/><path class="cls-5" d="M1298.35,790.67l2.69,5.46,6,.87a1,1,0,0,1,.57,1.75l-4.36,4.25,1,6a1,1,0,0,1-1.48,1.08l-5.39-2.83-5.39,2.83a1,1,0,0,1-1.49-1.08l1-6-4.36-4.25a1,1,0,0,1,.57-1.75l6-.87,2.7-5.46A1,1,0,0,1,1298.35,790.67Z" transform="translate(-1124.5 -555.02)"/><path class="cls-2" d="M1529.52,889.83" transform="translate(-1124.5 -555.02)"/></g><path class="cls-8" d="M1347,894.65a158.29,158.29,0,0,1-114.72-258.71" transform="translate(-1124.5 -555.02)"/><path class="cls-8" d="M1500.84,678.58a158.14,158.14,0,0,1-74.21,198.58" transform="translate(-1124.5 -555.02)"/><path class="cls-8" d="M1340.6,579.14A161.33,161.33,0,0,1,1361,579a157.48,157.48,0,0,1,106.33,47.87" transform="translate(-1124.5 -555.02)"/><path class="cls-9" d="M1476,656s.36,2.15.64,6" transform="translate(-1124.5 -555.02)"/><path class="cls-10" d="M1476.88,674c-.94,35.79-17.18,115-137.88,144-105.06,25.27-178.61-40.92-206.44-79.93" transform="translate(-1124.5 -555.02)"/><path class="cls-9" d="M1129.16,733.1c-1.17-1.78-2.22-3.49-3.16-5.1" transform="translate(-1124.5 -555.02)"/><circle class="cls-11" cx="427.48" cy="140.08" r="6.89"/><path class="cls-12" d="M1189,822h-4v-4a1,1,0,0,0-2,0v4h-4a1,1,0,0,0,0,2h4v5a1,1,0,0,0,2,0v-5h4a1,1,0,0,0,0-2Z" transform="translate(-1124.5 -555.02)"/><circle class="cls-13" cx="291.24" cy="5.42" r="4.42"/><path class="cls-14" d="M1527,668.92l-.39,0-94.26-10.4a3.5,3.5,0,0,1-3.09-3.87l6.19-56.14a3.51,3.51,0,0,1,3.48-3.12l.39,0,94.26,10.41a3.51,3.51,0,0,1,3.1,3.87l-6.2,56.14A3.5,3.5,0,0,1,1527,668.92Z" transform="translate(-1124.5 -555.02)"/><path d="M1438.91,596.86h.23l94.26,10.41a2,2,0,0,1,1.34.74,2,2,0,0,1,.43,1.47l-6.2,56.14a2,2,0,0,1-2,1.79l-.22,0L1432.5,657a2,2,0,0,1-1.77-2.21l6.19-56.14a2,2,0,0,1,2-1.79m0-3a5,5,0,0,0-5,4.46l-6.2,56.14a5,5,0,0,0,4.43,5.52l94.26,10.41.55,0a5,5,0,0,0,5-4.46l6.2-56.14a5,5,0,0,0-4.42-5.52l-94.26-10.41-.56,0Z" transform="translate(-1124.5 -555.02)"/><polyline class="cls-15" points="312.92 41.11 357.37 89.22 409.71 52.53"/><line class="cls-15" x1="347.26" y1="78.26" x2="303.92" y2="101.75"/><line class="cls-15" x1="370.14" y1="80.83" x2="406.07" y2="113.31"/></svg>