<?xml version="1.0" encoding="utf-8"?>
<!-- Generator: Adobe Illustrator 25.4.0, SVG Export Plug-In . SVG Version: 6.00 Build 0)  -->
<svg version="1.1" id="Layer_1" xmlns="http://www.w3.org/2000/svg" xmlns:xlink="http://www.w3.org/1999/xlink" x="0px" y="0px"
	 viewBox="0 0 291.6 293.4" style="enable-background:new 0 0 291.6 293.4;" xml:space="preserve">
<style type="text/css">
	.st0{fill:#FFFFFF;}
	.st1{fill:#F9F9F9;stroke:#202123;stroke-width:1.492;stroke-miterlimit:9.9464;}
	.st2{fill:none;stroke:#202123;stroke-width:1.5;stroke-linecap:round;stroke-linejoin:round;}
	.st3{fill:#89A6F5;}
	.st4{fill:none;stroke:#202123;stroke-width:2.3;stroke-linecap:round;stroke-linejoin:round;}
	.st5{fill:none;stroke:#202123;stroke-width:2;stroke-linecap:round;stroke-linejoin:round;}
	.st6{fill:#FFFFFF;stroke:#202123;stroke-width:2;stroke-linecap:round;stroke-linejoin:round;}
	.st7{fill:#E8E8E8;}
	.st8{fill:url(#SVGID_1_);}
	.st9{fill:none;stroke:#202123;stroke-linecap:round;stroke-linejoin:round;}
	.st10{fill:none;stroke:#202123;stroke-width:2;stroke-miterlimit:10;}
	.st11{fill:#F53B69;stroke:#202123;stroke-width:2.3;stroke-miterlimit:10;}
	.st12{fill:#F53B69;stroke:#FFFFFF;stroke-width:3;stroke-miterlimit:10;}
	.st13{fill:#FFFFFF;stroke:#202123;stroke-width:2.3;stroke-linecap:round;stroke-linejoin:round;}
	.st14{fill:#F5C43C;stroke:#202123;stroke-miterlimit:10;}
	.st15{fill:#64C3D9;stroke:#202123;stroke-miterlimit:10;}
	.st16{fill:#202123;}
	.st17{fill:#F9F9F9;stroke:#202123;stroke-width:2;stroke-miterlimit:10;}
</style>
<circle class="st0" cx="145.3" cy="144.6" r="144.6"/>
<path class="st1" d="M220,151.9l35.7,8.1c2.6,0.6,4.2,3.2,3.7,5.8l-5.5,24.3c-0.6,2.6-3.2,4.2-5.8,3.7l-35.7-8.1
	c-2.6-0.6-4.2-3.2-3.7-5.8l5.5-24.3C214.8,153,217.4,151.3,220,151.9z"/>
<path class="st2" d="M216.1,154.6l15,24.5c0.8,1.5,2.5,2,3.9,1.2c0.1,0,0.2-0.1,0.3-0.2l23.9-15.3"/>
<line class="st2" x1="209.9" y1="187.6" x2="228.4" y2="176"/>
<line class="st2" x1="249.7" y1="193.9" x2="239.7" y2="177.3"/>
<path class="st3" d="M162.4,137c0,0,37.3-1.6,49,37.6s16,88.8,16,88.8h-166c0,0,4-49.6,15.7-88.8s48.3-37.6,48.3-37.6H162.4z"/>
<line class="st4" x1="140" y1="186.2" x2="125.4" y2="138"/>
<path class="st5" d="M161.4,136c0,0,38.3-1.5,50,37.7s16,89.9,16,89.9h-166c0,0,4-50.6,15.7-89.9s49.3-36.7,49.3-36.7"/>
<path class="st6" d="M72.9,263.5h26.3c0,0-1.7-14.2-13.3-14.2S72.9,263.5,72.9,263.5z"/>
<path class="st6" d="M186.7,263.5h26.3c0,0-1.7-14.2-13.3-14.2S186.7,263.5,186.7,263.5z"/>
<line class="st4" x1="148.3" y1="186.2" x2="161.4" y2="137"/>
<line class="st5" x1="90.1" y1="175.9" x2="90.1" y2="183.9"/>
<line class="st5" x1="197.1" y1="174.7" x2="197.1" y2="182.7"/>
<path class="st7" d="M128.2,116.7c0,0,2.3,15.6,15.4,15.6c13.7,0,16.4-15.6,16.4-15.6H128.2z"/>
<linearGradient id="SVGID_1_" gradientUnits="userSpaceOnUse" x1="145.44" y1="-15.74" x2="145.44" y2="180.91" gradientTransform="matrix(1 0 0 -1 0 296)">
	<stop  offset="0" style="stop-color:#F5C43C"/>
	<stop  offset="0.27" style="stop-color:#F5C43C;stop-opacity:0.7"/>
	<stop  offset="0.63" style="stop-color:#F5C43C;stop-opacity:0.33"/>
	<stop  offset="0.88" style="stop-color:#F5C43C;stop-opacity:9.000000e-02"/>
	<stop  offset="1" style="stop-color:#F5C43C;stop-opacity:0"/>
</linearGradient>
<polyline class="st8" points="200.5,265 268.5,98 152.4,98 138.5,98 22.4,98 90.4,265 "/>
<line class="st9" x1="22.4" y1="98" x2="31.6" y2="120.7"/>
<line class="st9" x1="257" y1="126.3" x2="268.5" y2="98"/>
<line class="st9" x1="223.3" y1="208.9" x2="226.5" y2="201.1"/>
<line class="st9" x1="200.5" y1="265" x2="212.9" y2="234.4"/>
<polyline class="st9" points="68.1,210.4 76.7,231.5 90.4,265 "/>
<path class="st10" d="M38.7,138"/>
<path class="st11" d="M87.2,264.2l-1-73c0-5.4,4.4-9.8,9.8-9.8h99.1c5.4,0,9.8,4.4,9.8,9.8l-1,73"/>
<circle class="st12" cx="144.4" cy="234.6" r="6.7"/>
<path class="st13" d="M127.1,117c0,0,18,14.7,33.8-1.5"/>
<circle class="st14" cx="208.5" cy="135.4" r="3.5"/>
<circle class="st15" cx="266.5" cy="182.8" r="3.5"/>
<circle class="st15" cx="31.5" cy="130.8" r="3.5"/>
<line class="st9" x1="68.4" y1="79.9" x2="76.2" y2="79.9"/>
<line class="st9" x1="72.3" y1="76" x2="72.3" y2="83.8"/>
<line class="st9" x1="234.4" y1="81.9" x2="242.2" y2="81.9"/>
<line class="st9" x1="238.3" y1="78" x2="238.3" y2="85.8"/>
<circle class="st6" cx="113.2" cy="89" r="7.1"/>
<circle class="st6" cx="173.3" cy="89" r="7.1"/>
<path class="st6" d="M126.7,117.1v21.5c0,0,1.8,9.4,16.1,9.4s17.2-9.9,17.2-9.9v-21.8L126.7,117.1z"/>
<path class="st7" d="M128.3,117.5c0,0,2.2,15.2,15,15.2c13.3,0,16-15.2,16-15.2H128.3z"/>
<path class="st6" d="M143.1,126c-10.5-0.2-29.8-14.2-29.8-31.5v-27c0-6.3,4.4-11.5,9.8-11.5h40c5.4,0,9.8,5.2,9.8,11.5V93
	C172.9,111.1,155.1,126.2,143.1,126z"/>
<path class="st16" d="M110.1,82.7c0.4,0.8,1.6,1.1,2,0.3c5.2-11,7.2-17.4,9.3-20.9c1.4-2.3,2.7-4.6,3.8-7.1l0.7,2.5
	c5.6,8.8,24.8,11.2,24.8,11.2c13,2.5,19.7,8.8,21.8,13.2c0.2,0.4,0.4,0.8,0.6,1.3c0.8,2,2.9,1.2,4.1-0.6c1.7-2.6,2.9-12.5,2.9-12.5
	c0.7-4.7,0.8-17,1.5-25.2c0.5-5.2,2.7-9.9-5.6-10.6c-6.5-0.5-19.5-2.4-24.7-3.2c-14.5-2.7-20.9,3-20.9,3c-1.4,1.9-3.3,3.8-4.7,6
	c-0.1-0.1-0.2-0.1-0.4-0.2c-0.6-0.3-1.2-0.5-1.9-0.6l0.1-0.2c0,0-0.5,0-1.2,0c-0.7-0.1-1.4,0-2.1,0.1c-3.3,0.2-8.2,0.7-11.2,1.8
	c-4.7,1.8-7.1,3.8-5.9,12.3c0.4,3.2,0.8,6.5,1,9.5c0.1,0.8,0.2,1.6,0.5,2.4L110.1,82.7z"/>
<path class="st17" d="M51.5,132l47.1-13.4c3.9-1.1,7.9,1.1,9,5l7.8,27.5c1.1,3.9-1.1,7.9-5,9l-47.1,13.4c-3.9,1.1-7.9-1.1-9-5
	L46.5,141C45.4,137.1,47.6,133.1,51.5,132z"/>
<path class="st5" d="M47.2,135.5l32.2,15.7c2,1.1,4.4,0.4,5.6-1.5l19.2-30.4"/>
<line class="st5" x1="57.7" y1="172.3" x2="72.7" y2="148.2"/>
<line class="st5" x1="113.7" y1="156.4" x2="89.3" y2="143.6"/>
</svg>
