<?xml version="1.0" encoding="iso-8859-1"?>
<!-- Generator: Adobe Illustrator 23.0.0, SVG Export Plug-In . SVG Version: 6.00 Build 0)  -->
<svg version="1.1" id="&#xB808;&#xC774;&#xC5B4;_1" xmlns="http://www.w3.org/2000/svg" xmlns:xlink="http://www.w3.org/1999/xlink"
	 x="0px" y="0px" viewBox="0 0 37 338.8" style="enable-background:new 0 0 37 338.8;" xml:space="preserve">
<title>logo_m1</title>
<g>
	<g id="&#xB808;&#xC774;&#xC5B4;_5">
		<path style="fill:#4CB26F;" d="M37,18.4c0-9.9-8-18-17.9-18s-18,8-18,17.9s8,18,17.9,18c0,0,0,0,0.1,0
			C28.9,36.3,36.9,28.3,37,18.4z"/>
		<path style="fill:#FFFFFF;" d="M24.2,33.6c-1,0-2-0.4-2.7-1.1c-0.8-0.7-1.2-1.7-1.1-2.7c0-1,0.4-2,1.1-2.7
			c0.7-0.7,1.7-1.1,2.8-1.1c1,0,2,0.3,2.8,1.1c1.5,1.5,1.5,3.8,0.1,5.3l-0.1,0.1C26.3,33.2,25.3,33.6,24.2,33.6 M24.2,31.6
			c0.5,0,1-0.2,1.4-0.5c0.7-0.6,0.8-1.6,0.2-2.3c-0.1-0.1-0.1-0.2-0.2-0.2c-0.8-0.7-1.9-0.7-2.7,0c-0.4,0.3-0.6,0.8-0.6,1.3
			s0.2,1,0.6,1.3C23.3,31.4,23.8,31.6,24.2,31.6"/>
		<rect x="20.3" y="5.1" style="fill:#FFFFFF;" width="7.7" height="2.1"/>
		<polygon style="fill:#FFFFFF;" points="28,13.8 23.3,13.8 28,10.6 28,8.6 20.3,8.6 20.3,10.6 25.1,10.6 20.3,13.8 20.3,15.9 
			28,15.9 		"/>
		<polygon style="fill:#FFFFFF;" points="28,22.5 23.3,22.5 28,19.4 28,17.3 20.3,17.3 20.3,19.4 25.1,19.4 20.3,22.5 20.3,24.6 
			28,24.6 		"/>
		<path style="fill:#FFFFFF;" d="M11.3,10.4c-0.7-0.5-1-1.4-1-2.2s0.3-1.6,1-2.1c0.7-0.5,1.5-0.7,2.3-0.7s1.6,0.2,2.3,0.7
			c0.7,0.5,1,1.4,1,2.2c0,0.4,0,0.9-0.2,1.3c-0.1,0.3-0.3,0.6-0.6,0.8l-0.6-0.5l0.1-0.1c0.2-0.2,0.3-0.3,0.4-0.5
			c0.2-0.3,0.2-0.7,0.2-1c0-0.6-0.3-1.2-0.8-1.6c-0.5-0.3-1.1-0.5-1.7-0.4c-0.6,0-1.2,0.1-1.8,0.5c-0.5,0.4-0.9,1-0.8,1.6
			c0,0.5,0.2,1.1,0.6,1.4c0.4,0.3,0.8,0.4,1.3,0.4h0.4V8.7h0.7v1.7c0,0.2,0,0.3-0.1,0.4c-0.1,0.1-0.3,0.2-0.5,0.1
			C12.7,11,11.9,10.8,11.3,10.4z"/>
		<path style="fill:#FFFFFF;" d="M10.3,15l2.7-2.5c0.1-0.1,0.1-0.1,0-0.2c-0.1,0-0.2,0-0.2,0h-2.5v-0.8h6.1c0.1,0,0.2,0,0.3,0.1
			c0.1,0.1,0.1,0.2,0.1,0.3v1.5c0,0.5-0.2,1-0.5,1.4s-0.8,0.6-1.3,0.6c-0.9,0.1-1.7-0.6-1.8-1.5c0-0.1,0-0.2,0-0.3
			c0-0.1,0-0.2-0.1-0.2s-0.1,0-0.2,0.1l-2.2,2L10.3,15z M15.8,14.2c0.2-0.2,0.3-0.5,0.3-0.9v-0.7c0-0.1,0-0.2-0.1-0.3
			c-0.1,0-0.2-0.1-0.3-0.1h-1.6c-0.1,0-0.2,0-0.3,0.1c0,0-0.1,0.1-0.1,0.3v0.8c0,0.3,0.1,0.7,0.3,0.9c0.2,0.2,0.6,0.3,0.9,0.3
			C15.3,14.6,15.6,14.5,15.8,14.2L15.8,14.2z"/>
		<path style="fill:#FFFFFF;" d="M11.3,20.7c-1.2-0.9-1.4-2.6-0.4-3.8c0.1-0.2,0.3-0.3,0.4-0.4c1.4-1,3.2-1,4.5,0
			c1.2,0.9,1.4,2.7,0.4,3.8c-0.1,0.2-0.3,0.3-0.4,0.4C14.5,21.6,12.7,21.6,11.3,20.7z M15.4,20.1c0.8-0.6,1.1-1.7,0.5-2.5
			c-0.1-0.2-0.3-0.4-0.5-0.5c-1.1-0.6-2.4-0.6-3.5,0c-0.8,0.5-1.1,1.7-0.5,2.5c0.1,0.2,0.3,0.4,0.5,0.5
			C12.9,20.7,14.3,20.7,15.4,20.1z"/>
		<path style="fill:#FFFFFF;" d="M10.8,26.2c-0.3-0.5-0.5-1.1-0.5-1.7s0.1-1.2,0.5-1.7c0.5-0.6,1.3-0.9,2.1-0.8h3.9v0.8h-4.2
			c-0.4,0-0.9,0.2-1.2,0.5c-0.3,0.3-0.5,0.8-0.4,1.2c0,0.4,0.1,0.9,0.4,1.2c0.3,0.3,0.7,0.5,1.2,0.5h4.3V27H13
			C12.1,27.1,11.3,26.8,10.8,26.2z"/>
		<path style="fill:#FFFFFF;" d="M13.4,31.4c-0.4-0.4-0.6-0.9-0.6-1.5v-1.2h-2.5v-0.8h6.1c0.1,0,0.2,0,0.3,0.1
			c0.1,0.1,0.1,0.2,0.1,0.3v1.6c0,0.6-0.2,1.1-0.6,1.5S15.3,32,14.8,32C14.3,32,13.7,31.8,13.4,31.4z M15.7,30.9
			c0.3-0.3,0.4-0.7,0.4-1.1V29c0-0.1,0-0.2-0.1-0.3s-0.2-0.1-0.3-0.1h-1.9c-0.1,0-0.2,0-0.3,0.1c-0.1,0.1-0.1,0.2-0.1,0.3v0.8
			c0,0.4,0.1,0.7,0.4,1c0.3,0.2,0.6,0.4,1,0.4C15.2,31.2,15.5,31.1,15.7,30.9z"/>
		<rect x="18.1" y="5.2" style="fill:#FFFFFF;" width="0.2" height="27.3"/>
	</g>
</g>
<g>
	<path style="fill:#272829;" d="M30.2,169.5l-20.3-7.8l20.3-2.7v-2.9L15.6,150l14.7-6.6v-2.7l-22.2-2v3.9l10.8,0.9l-11,5v2.2
		l11.6,4.9l-11.4,1.2v8.3l6.8,2.6v5.5l-6.8,2.5v5.5l22.1-8.8V169.5z M18.6,171.8V169l3.9,1.4L18.6,171.8z"/>
	<polygon style="fill:#272829;" points="16.7,194.3 29.9,183.6 29.9,181.2 8,181.2 8,184.8 21.2,184.8 7.9,195.6 7.9,197.9 
		29.8,197.9 29.8,194.3 	"/>
	<path style="fill:#272829;" d="M30.2,206.7L8,198.2v4.1l6.8,2.6v5.5L8,212.9v5.5l22.2-8.7V206.7z M18.6,209v-2.8l3.9,1.4L18.6,209z
		"/>
	<path style="fill:#272829;" d="M26.6,227.7c0,1.2-0.3,2.3-0.9,3.3c-0.6,0.8-1.3,1.5-2.2,2l-2.1,1.5l5.2,2.2l0.7-0.7
		c1-1,1.8-2.3,2.3-3.7c0.5-1.5,0.7-3.2,0.7-4.8c0.1-2.8-1.2-5.4-3.3-7.1c-2.2-1.8-5-2.7-7.9-2.6c-3.4,0-6.1,0.8-8,2.5
		s-3,4.2-2.9,6.8l0,0c0,1.5,0.2,3,0.5,4.4s1.1,2.7,2.2,3.6l0.4,0.2H20v-4.5h-7.6c-0.1-0.1-0.1-0.2-0.2-0.4c-0.3-1.1-0.5-2.2-0.4-3.3
		c0-1.2,0.6-2.4,1.5-3.1c1.4-1.2,3.4-1.8,6.1-1.8c1.9-0.1,3.8,0.5,5.4,1.6C25.9,224.8,26.6,226.2,26.6,227.7z"/>
	<polygon style="fill:#272829;" points="30.2,269.7 15.6,263.6 30.3,257 30.3,254.3 8.3,252.3 11.7,252.3 11.7,242.6 17.3,242.6 
		17.3,251.4 21,251.4 21,242.6 26.1,242.6 26.1,251.8 29.8,251.8 29.8,238 8,238 8,252.3 8,252.3 8,256.2 18.8,257.1 7.8,262 
		7.8,264.3 19.5,269.2 8,270.5 8,275.6 30.2,272.6 	"/>
	<polygon style="fill:#272829;" points="17.3,280.8 17.3,289.6 21,289.6 21,280.8 26.1,280.8 26.1,290 29.8,290 29.8,276.3 8,276.3 
		8,290.6 11.7,290.6 11.7,280.8 	"/>
	<polygon style="fill:#272829;" points="16.7,304.7 29.9,294.1 29.9,291.6 8,291.6 8,295.3 21.2,295.3 7.9,306 7.9,308.4 
		29.8,308.4 29.8,304.7 	"/>
	<polygon style="fill:#272829;" points="29.8,309.2 26.1,309.2 26.1,315.8 8,315.8 8,320.4 26.1,320.4 26.1,327 29.8,327 	"/>
	<path style="fill:#272829;" d="M26.8,128.1c4.5-4.3,4.6-11.5,0.3-16c-2.2-2.2-5.1-3.5-8.2-3.4c-2.9-0.1-5.8,1.1-7.9,3.2
		c-4.3,4.6-4.3,11.7,0,16.3c2.1,2.1,5,3.2,7.9,3.1C21.9,131.3,24.7,130.2,26.8,128.1z M22.6,116.4c1,0.9,1.6,2.2,1.6,3.6
		s-0.5,2.7-1.6,3.6c-2.1,1.8-5.2,1.8-7.3-0.1c-1-0.9-1.6-2.2-1.6-3.6s0.5-2.7,1.5-3.7c1-0.9,2.3-1.4,3.7-1.3
		C20.2,115,21.6,115.5,22.6,116.4z"/>
	<rect x="8" y="47.5" style="fill:#272829;" width="22.1" height="6.5"/>
	<polygon style="fill:#272829;" points="17.1,73.5 30.1,64.3 30.1,57.9 7.9,57.9 7.9,64.4 20.9,64.4 7.9,73.5 7.9,80 30.1,80 
		30.1,73.5 	"/>
	<polygon style="fill:#272829;" points="17.1,99.5 30.1,90.3 30.1,83.9 7.9,83.9 7.9,90.4 20.9,90.4 7.9,99.6 7.9,106 30.1,106 
		30.1,99.5 	"/>
</g>
</svg>
