<?xml version="1.0" encoding="iso-8859-1"?>
<!-- Generator: Adobe Illustrator 23.0.0, SVG Export Plug-In . SVG Version: 6.00 Build 0)  -->
<svg version="1.1" id="&#xB808;&#xC774;&#xC5B4;_1" xmlns="http://www.w3.org/2000/svg" xmlns:xlink="http://www.w3.org/1999/xlink"
	 x="0px" y="0px" viewBox="0 0 328.819 36.85" style="enable-background:new 0 0 328.819 36.85;" xml:space="preserve">
<g>
	<g id="&#xB808;&#xC774;&#xC5B4;_5">
		<path style="fill:#4CB26F;" d="M19.397,0.892c-9.9,0-18,8-18,17.9s8,18,17.9,18s18-8,18-17.9c0,0,0,0,0-0.1
			C37.297,8.992,29.297,0.992,19.397,0.892z"/>
		<path style="fill:#FFFFFF;" d="M34.597,13.692c0,1-0.4,2-1.1,2.7c-0.7,0.8-1.7,1.2-2.7,1.1c-1,0-2-0.4-2.7-1.1
			c-0.7-0.7-1.1-1.7-1.1-2.8c0-1,0.3-2,1.1-2.8c1.5-1.5,3.8-1.5,5.3-0.1l0.1,0.1C34.197,11.592,34.597,12.592,34.597,13.692
			 M32.597,13.692c0-0.5-0.2-1-0.5-1.4c-0.6-0.7-1.6-0.8-2.3-0.2c-0.1,0.1-0.2,0.1-0.2,0.2c-0.7,0.8-0.7,1.9,0,2.7
			c0.3,0.4,0.8,0.6,1.3,0.6s1-0.2,1.3-0.6C32.397,14.592,32.597,14.092,32.597,13.692"/>
		<rect x="6.097" y="9.892" style="fill:#FFFFFF;" width="2.1" height="7.7"/>
		<polygon style="fill:#FFFFFF;" points="14.797,9.892 14.797,14.592 11.597,9.892 9.597,9.892 9.597,17.592 11.597,17.592 
			11.597,12.792 14.797,17.592 16.897,17.592 16.897,9.892 		"/>
		<polygon style="fill:#FFFFFF;" points="23.497,9.892 23.497,14.592 20.397,9.892 18.297,9.892 18.297,17.592 20.397,17.592 
			20.397,12.792 23.497,17.592 25.597,17.592 25.597,9.892 		"/>
		<path style="fill:#FFFFFF;" d="M11.397,26.592c-0.5,0.7-1.4,1-2.2,1s-1.6-0.3-2.1-1c-0.5-0.7-0.7-1.5-0.7-2.3s0.2-1.6,0.7-2.3
			c0.5-0.7,1.4-1,2.2-1c0.4,0,0.9,0,1.3,0.2c0.3,0.1,0.6,0.3,0.8,0.6l-0.5,0.6l-0.1-0.1c-0.2-0.2-0.3-0.3-0.5-0.4
			c-0.3-0.2-0.7-0.2-1-0.2c-0.6,0-1.2,0.3-1.6,0.8c-0.3,0.5-0.5,1.1-0.4,1.7c0,0.6,0.1,1.2,0.5,1.8c0.4,0.5,1,0.9,1.6,0.8
			c0.5,0,1.1-0.2,1.4-0.6c0.3-0.4,0.4-0.8,0.4-1.3v-0.4h-1.5v-0.7h1.7c0.2,0,0.3,0,0.4,0.1c0.1,0.1,0.2,0.3,0.1,0.5
			C11.997,25.192,11.797,25.992,11.397,26.592z"/>
		<path style="fill:#FFFFFF;" d="M15.997,27.592l-2.5-2.7c-0.1-0.1-0.1-0.1-0.2,0c0,0.1,0,0.2,0,0.2v2.5h-0.8v-6.1
			c0-0.1,0-0.2,0.1-0.3c0.1-0.1,0.2-0.1,0.3-0.1h1.5c0.5,0,1,0.2,1.4,0.5c0.4,0.3,0.6,0.8,0.6,1.3c0.1,0.9-0.6,1.7-1.5,1.8
			c-0.1,0-0.2,0-0.3,0c-0.1,0-0.2,0-0.2,0.1s0,0.1,0.1,0.2l2,2.2L15.997,27.592z M15.197,22.092c-0.2-0.2-0.5-0.3-0.9-0.3h-0.7
			c-0.1,0-0.2,0-0.3,0.1c0,0.1-0.1,0.2-0.1,0.3v1.6c0,0.1,0,0.2,0.1,0.3c0,0,0.1,0.1,0.3,0.1h0.8c0.3,0,0.7-0.1,0.9-0.3
			c0.2-0.2,0.3-0.6,0.3-0.9C15.597,22.592,15.497,22.292,15.197,22.092L15.197,22.092z"/>
		<path style="fill:#FFFFFF;" d="M21.697,26.592c-0.9,1.2-2.6,1.4-3.8,0.4c-0.2-0.1-0.3-0.3-0.4-0.4c-1-1.4-1-3.2,0-4.5
			c0.9-1.2,2.7-1.4,3.8-0.4c0.2,0.1,0.3,0.3,0.4,0.4C22.597,23.392,22.597,25.192,21.697,26.592z M21.097,22.492
			c-0.6-0.8-1.7-1.1-2.5-0.5c-0.2,0.1-0.4,0.3-0.5,0.5c-0.6,1.1-0.6,2.4,0,3.5c0.5,0.8,1.7,1.1,2.5,0.5c0.2-0.1,0.4-0.3,0.5-0.5
			C21.697,24.992,21.697,23.592,21.097,22.492z"/>
		<path style="fill:#FFFFFF;" d="M27.197,27.092c-0.5,0.3-1.1,0.5-1.7,0.5s-1.2-0.1-1.7-0.5c-0.6-0.5-0.9-1.3-0.8-2.1v-3.9h0.8v4.2
			c0,0.4,0.2,0.9,0.5,1.2c0.3,0.3,0.8,0.5,1.2,0.4c0.4,0,0.9-0.1,1.2-0.4c0.3-0.3,0.5-0.7,0.5-1.2v-4.3h0.8v3.9
			C28.097,25.792,27.797,26.592,27.197,27.092z"/>
		<path style="fill:#FFFFFF;" d="M32.397,24.492c-0.4,0.4-0.9,0.6-1.5,0.6h-1.2v2.5h-0.8v-6.1c0-0.1,0-0.2,0.1-0.3
			c0.1-0.1,0.2-0.1,0.3-0.1h1.6c0.6,0,1.1,0.2,1.5,0.6c0.4,0.4,0.6,0.9,0.6,1.4C32.997,23.592,32.797,24.192,32.397,24.492z
			 M31.897,22.192c-0.3-0.3-0.7-0.4-1.1-0.4h-0.8c-0.1,0-0.2,0-0.3,0.1s-0.1,0.2-0.1,0.3v1.9c0,0.1,0,0.2,0.1,0.3
			c0.1,0.1,0.2,0.1,0.3,0.1h0.8c0.4,0,0.7-0.1,1-0.4c0.2-0.3,0.4-0.6,0.4-1C32.197,22.692,32.097,22.392,31.897,22.192z"/>
		<rect x="6.197" y="19.592" style="fill:#FFFFFF;" width="27.3" height="0.2"/>
	</g>
</g>
<g>
	<path style="fill:#272829;" d="M170.497,7.692l-7.8,20.3l-2.7-20.3h-2.9l-6.1,14.6l-6.6-14.7h-2.7l-2,22.2h3.9l0.9-10.8l5,11h2.2
		l4.9-11.6l1.2,11.4h8.3l2.6-6.8h5.5l2.5,6.8h5.5l-8.8-22.1H170.497z M172.797,19.292h-2.8l1.4-3.9L172.797,19.292z"/>
	<polygon style="fill:#272829;" points="195.297,21.192 184.597,7.992 182.197,7.992 182.197,29.892 185.797,29.892 185.797,16.692 
		196.597,29.992 198.897,29.992 198.897,8.092 195.297,8.092 	"/>
	<path style="fill:#272829;" d="M207.697,7.692l-8.5,22.2h4.1l2.6-6.8h5.5l2.5,6.8h5.5l-8.7-22.2H207.697z M209.997,19.292h-2.8
		l1.4-3.9L209.997,19.292z"/>
	<path style="fill:#272829;" d="M228.697,11.292c1.2,0,2.3,0.3,3.3,0.9c0.8,0.6,1.5,1.3,2,2.2l1.5,2.1l2.2-5.2l-0.7-0.7
		c-1-1-2.3-1.8-3.7-2.3c-1.5-0.5-3.2-0.7-4.8-0.7c-2.8-0.1-5.4,1.2-7.1,3.3c-1.8,2.2-2.7,5-2.6,7.9c0,3.4,0.8,6.1,2.5,8
		s4.2,3,6.8,2.9l0,0c1.5,0,3-0.2,4.4-0.5s2.7-1.1,3.6-2.2l0.2-0.4v-8.7h-4.5v7.6c-0.1,0.1-0.2,0.1-0.4,0.2c-1.1,0.3-2.2,0.5-3.3,0.4
		c-1.2,0-2.4-0.6-3.1-1.5c-1.2-1.4-1.8-3.4-1.8-6.1c-0.1-1.9,0.5-3.8,1.6-5.4C225.797,11.992,227.197,11.292,228.697,11.292z"/>
	<polygon style="fill:#272829;" points="270.697,7.692 264.597,22.292 257.997,7.592 255.297,7.592 253.297,29.592 253.297,26.192 
		243.597,26.192 243.597,20.592 252.397,20.592 252.397,16.892 243.597,16.892 243.597,11.792 252.797,11.792 252.797,8.092 
		238.997,8.092 238.997,29.892 253.297,29.892 253.297,29.892 257.197,29.892 258.097,19.092 262.997,30.092 265.297,30.092 
		270.197,18.392 271.497,29.892 276.597,29.892 273.597,7.692 	"/>
	<polygon style="fill:#272829;" points="281.797,20.592 290.597,20.592 290.597,16.892 281.797,16.892 281.797,11.792 
		290.997,11.792 290.997,8.092 277.297,8.092 277.297,29.892 291.597,29.892 291.597,26.192 281.797,26.192 	"/>
	<polygon style="fill:#272829;" points="305.697,21.192 295.097,7.992 292.597,7.992 292.597,29.892 296.297,29.892 296.297,16.692 
		306.997,29.992 309.397,29.992 309.397,8.092 305.697,8.092 	"/>
	<polygon style="fill:#272829;" points="310.197,8.092 310.197,11.792 316.797,11.792 316.797,29.892 321.397,29.892 
		321.397,11.792 327.997,11.792 327.997,8.092 	"/>
	<path style="fill:#272829;" d="M129.097,11.092c-4.3-4.5-11.5-4.6-16-0.3c-2.2,2.2-3.5,5.1-3.4,8.2c-0.1,2.9,1.1,5.8,3.2,7.9
		c4.6,4.3,11.7,4.3,16.3,0c2.1-2.1,3.2-5,3.1-7.9C132.297,15.992,131.197,13.192,129.097,11.092z M117.397,15.292
		c0.9-1,2.2-1.6,3.6-1.6s2.7,0.5,3.6,1.6c1.8,2.1,1.8,5.2-0.1,7.3c-0.9,1-2.2,1.6-3.6,1.6s-2.7-0.5-3.7-1.5c-0.9-1-1.4-2.3-1.3-3.7
		C115.997,17.692,116.497,16.292,117.397,15.292z"/>
	<rect x="48.497" y="7.792" style="fill:#272829;" width="6.5" height="22.1"/>
	<polygon style="fill:#272829;" points="74.497,20.792 65.297,7.792 58.897,7.792 58.897,29.992 65.397,29.992 65.397,16.992 
		74.497,29.992 80.997,29.992 80.997,7.792 74.497,7.792 	"/>
	<polygon style="fill:#272829;" points="100.497,20.792 91.297,7.792 84.897,7.792 84.897,29.992 91.397,29.992 91.397,16.992 
		100.597,29.992 106.997,29.992 106.997,7.792 100.497,7.792 	"/>
</g>
</svg>
