<svg id="레이어_1" data-name="레이어 1" xmlns="http://www.w3.org/2000/svg" viewBox="0 0 17 21"><defs><style>.cls-1{fill:#fff;}</style></defs><title>user-face</title><g id="레이어_1-2" data-name="레이어 1-2"><path class="cls-1" d="M2.86,21H0V18.4a7.06,7.06,0,0,1,.56-2.76,7.58,7.58,0,0,1,1.53-2.26,7.2,7.2,0,0,1,2.26-1.52,7.06,7.06,0,0,1,2.76-.53H9.93a6.93,6.93,0,0,1,5,2.05,7.58,7.58,0,0,1,1.53,2.26A7.26,7.26,0,0,1,17,18.4V21ZM8.5,9.93A4.82,4.82,0,0,1,3.55,5.24h0V5A4.84,4.84,0,0,1,5,1.43,4.79,4.79,0,0,1,8.5,0a4.89,4.89,0,0,1,5,4.78h0V5a4.75,4.75,0,0,1-1.43,3.54A4.85,4.85,0,0,1,8.5,9.93Z" transform="translate(0 0)"/></g></svg>