<svg id="Layer_1" data-name="Layer 1" xmlns="http://www.w3.org/2000/svg" viewBox="0 0 93.95 77.2"><defs><style>.cls-1{fill:#f5c43c;}.cls-1,.cls-2,.cls-3{stroke:#202123;stroke-miterlimit:10;stroke-width:3px;}.cls-2{fill:#fff;}.cls-3{fill:none;stroke-linecap:round;}</style></defs><title>3_bell</title><circle class="cls-1" cx="46.89" cy="6.68" r="5.18"/><ellipse class="cls-2" cx="46.89" cy="62.86" rx="10.86" ry="12.83"/><path class="cls-1" d="M744.37,627.3h21.75a4.19,4.19,0,0,0,3.62-6.3l-6.56-11.19a7.85,7.85,0,0,1-1.06-3.93V590.71a18.79,18.79,0,0,0-2-8.58c-5.92-11.54-18.4-11.72-18.4-11.72h-2.93s-12.48.18-18.4,11.72a18.79,18.79,0,0,0-2,8.58v15.17a7.85,7.85,0,0,1-1.06,3.93L710.7,621a4.18,4.18,0,0,0,3.61,6.3h30.06Z" transform="translate(-693.53 -561.72)"/><path class="cls-3" d="M716.14,575.94s-15.41,10.37-8.35,29.67" transform="translate(-693.53 -561.72)"/><path class="cls-3" d="M711,566.58s-24.28,16.85-13,44.94" transform="translate(-693.53 -561.72)"/><path class="cls-3" d="M764.87,575.94s15.41,10.37,8.35,29.67" transform="translate(-693.53 -561.72)"/><path class="cls-3" d="M770,566.58s24.28,16.85,13,44.94" transform="translate(-693.53 -561.72)"/></svg>