<svg id="Layer_1" data-name="Layer 1" xmlns="http://www.w3.org/2000/svg" viewBox="0 0 777.33 446"><defs><style>.cls-1{fill:#d9d7e4;}.cls-2,.cls-34{fill:#fff;}.cls-3{fill:#ebf5f7;}.cls-4{fill:#dedede;}.cls-10,.cls-12,.cls-15,.cls-16,.cls-17,.cls-18,.cls-19,.cls-20,.cls-22,.cls-23,.cls-32,.cls-5,.cls-9{fill:none;}.cls-10,.cls-22,.cls-5{stroke:#b3b5b7;}.cls-10,.cls-16,.cls-17,.cls-18,.cls-22,.cls-23,.cls-32,.cls-5,.cls-9{stroke-linecap:round;}.cls-10,.cls-12,.cls-15,.cls-16,.cls-17,.cls-19,.cls-20,.cls-22,.cls-33,.cls-34,.cls-5,.cls-8{stroke-miterlimit:10;}.cls-17,.cls-18,.cls-20,.cls-32,.cls-5{stroke-width:1.5px;}.cls-6{fill:#5c4799;}.cls-7{fill:#64c3d9;}.cls-8{fill:#d7e2f2;stroke:#a6b4c9;}.cls-23,.cls-8{stroke-width:3px;}.cls-23,.cls-9{stroke:#dedede;}.cls-18,.cls-23,.cls-32,.cls-9{stroke-linejoin:round;}.cls-10,.cls-12,.cls-19,.cls-9{stroke-width:2px;}.cls-11,.cls-33{fill:#b3b5b7;}.cls-12{stroke:#b4b3bc;}.cls-13{fill:#aaa;}.cls-14{fill:#e2e2e2;}.cls-15,.cls-16{stroke:#aaa;}.cls-17,.cls-18{stroke:#fff;}.cls-19,.cls-20{stroke:#c1c1c1;}.cls-21{fill:#c1c1c1;}.cls-24{font-size:14.3px;fill:#231f20;font-family:NotoSansCJKkr-Regular-KSCpc-EUC-H, Noto Sans CJK KR;}.cls-25,.cls-31{letter-spacing:0.02em;}.cls-26,.cls-29{letter-spacing:-0.08em;}.cls-27{letter-spacing:-0.02em;}.cls-28,.cls-29,.cls-30,.cls-31{fill:#969696;}.cls-30{letter-spacing:-0.06em;}.cls-32{stroke:#b5b5b5;}.cls-33,.cls-34{stroke:#6d6d6d;}</style></defs><title>1_site</title><rect class="cls-1" x="1" y="1" width="775.33" height="444" rx="16.67"/><rect class="cls-2" x="16" y="43.98" width="741.33" height="387" rx="4.5"/><rect class="cls-3" x="229" y="117.33" width="515.43" height="60" rx="3.83"/><rect class="cls-4" x="250.67" y="76.86" width="181.67" height="16" rx="6.25"/><line class="cls-5" x1="229.67" y1="81.04" x2="241.67" y2="81.04"/><line class="cls-5" x1="229.67" y1="86.68" x2="241.67" y2="86.68"/><line class="cls-5" x1="232.84" y1="89.86" x2="232.84" y2="77.86"/><line class="cls-5" x1="238.49" y1="89.86" x2="238.49" y2="77.86"/><rect class="cls-3" x="60.17" y="44.33" width="157.5" height="387"/><circle class="cls-2" cx="22.67" cy="22.67" r="5.33"/><circle class="cls-2" cx="41.67" cy="22.67" r="5.33"/><circle class="cls-2" cx="60.67" cy="22.67" r="5.33"/><rect class="cls-2" x="85.33" y="17.67" width="214.33" height="9.33" rx="4.67"/><rect class="cls-6" x="120" y="53.39" width="83.33" height="22" rx="11"/><rect class="cls-2" x="70.67" y="91.39" width="132.67" height="22" rx="5.53"/><rect class="cls-7" x="70.67" y="53.39" width="72" height="22" rx="11"/><path class="cls-8" d="M490,275" transform="translate(-419.33 -128.67)"/><line class="cls-9" x1="228.67" y1="100.83" x2="743.67" y2="100.83"/><rect class="cls-4" x="273.98" y="205.55" width="139.68" height="17.19" rx="8.6"/><circle class="cls-10" cx="249.55" cy="214.15" r="17.38"/><path class="cls-11" d="M668.86,345a6.09,6.09,0,1,0-6.06-6.07A6.08,6.08,0,0,0,668.86,345Z" transform="translate(-419.33 -128.67)"/><path class="cls-11" d="M679.78,356.36c-2-5.3-5.18-9.78-10.92-9.78S660,351.06,658,356.36a17.36,17.36,0,0,0,21.78,0Z" transform="translate(-419.33 -128.67)"/><rect class="cls-4" x="879.5" y="267.51" width="216.62" height="17.19" rx="8.6" transform="translate(1556.29 423.55) rotate(-180)"/><circle class="cls-10" cx="701.22" cy="147.44" r="17.38"/><path class="cls-11" d="M1120.57,278.29a6.09,6.09,0,1,1,6.07-6.06A6.09,6.09,0,0,1,1120.57,278.29Z" transform="translate(-419.33 -128.67)"/><path class="cls-11" d="M1109.66,289.65c2-5.3,5.17-9.78,10.91-9.78s8.89,4.48,10.87,9.79a17.38,17.38,0,0,1-21.78,0Z" transform="translate(-419.33 -128.67)"/><circle class="cls-9" cx="190.79" cy="100.57" r="4.71"/><line class="cls-9" x1="193.94" y1="104.07" x2="197.29" y2="107.59"/><polygon class="cls-4" points="277.17 248.83 277.17 279.83 303.34 279.83 303.34 275.22 303.34 257.66 292.62 248.83 277.17 248.83"/><line class="cls-10" x1="310.58" y1="259.54" x2="350.47" y2="259.54"/><line class="cls-10" x1="310.58" y1="269.19" x2="360.99" y2="269.19"/><line class="cls-10" x1="310.58" y1="278.83" x2="350.47" y2="278.83"/><polygon class="cls-4" points="408.79 248.83 408.79 279.83 434.97 279.83 434.97 275.22 434.97 257.66 424.25 248.83 408.79 248.83"/><line class="cls-10" x1="443.58" y1="259.54" x2="483.47" y2="259.54"/><line class="cls-10" x1="443.58" y1="269.19" x2="459.55" y2="269.19"/><line class="cls-10" x1="443.58" y1="278.83" x2="455.92" y2="278.83"/><rect class="cls-12" x="1" y="1" width="775.33" height="444" rx="16.67"/><path class="cls-6" d="M449.74,213.94a3.66,3.66,0,0,0,.53-1.91,3.77,3.77,0,1,0-1.61,3.08l5.31,5.31,1.13-1.13Z" transform="translate(-419.33 -128.67)"/><path class="cls-7" d="M455,202.27a3.76,3.76,0,1,1,1.09,1.17l-5.31,5.3-1.13-1.12Z" transform="translate(-419.33 -128.67)"/><path class="cls-6" d="M466.69,209.45a3.72,3.72,0,1,0,1.08-1.17l-5.31-5.3-1.12,1.12Z" transform="translate(-419.33 -128.67)"/><path class="cls-7" d="M461.42,221.13a3.75,3.75,0,1,1-1.08-1.17l5.3-5.31,1.13,1.13Z" transform="translate(-419.33 -128.67)"/><path class="cls-7" d="M454.61,212.65a1.58,1.58,0,0,0,.22-.81,1.6,1.6,0,1,0-1.6,1.6,1.62,1.62,0,0,0,.92-.29l2.26,2.26.48-.48Z" transform="translate(-419.33 -128.67)"/><path class="cls-6" d="M456.85,207.68a1.61,1.61,0,0,1-.22-.81,1.6,1.6,0,1,1,1.6,1.6,1.62,1.62,0,0,1-.92-.29l-2.26,2.26-.48-.48Z" transform="translate(-419.33 -128.67)"/><path class="cls-7" d="M461.83,210.74a1.53,1.53,0,0,0-.23.81,1.61,1.61,0,1,0,.69-1.31L460,208l-.47.48Z" transform="translate(-419.33 -128.67)"/><path class="cls-6" d="M459.58,215.71a1.62,1.62,0,0,1,.22.82,1.6,1.6,0,1,1-.68-1.31l2.26-2.27.48.48Z" transform="translate(-419.33 -128.67)"/><rect class="cls-2" x="27.19" y="187.18" width="23.53" height="19.43" rx="2.17"/><path class="cls-13" d="M446.08,333.11V318a2.61,2.61,0,0,1,2.61-2.61h19.19a2.6,2.6,0,0,1,2.6,2.61v15.09a2.6,2.6,0,0,1-2.6,2.61H448.69A2.61,2.61,0,0,1,446.08,333.11ZM469.61,318a1.74,1.74,0,0,0-1.73-1.73H448.69A1.73,1.73,0,0,0,447,318v15.09a1.73,1.73,0,0,0,1.73,1.73h19.19a1.74,1.74,0,0,0,1.73-1.73Z" transform="translate(-419.33 -128.67)"/><path class="cls-14" d="M470.05,319.66H446.52V318a2.17,2.17,0,0,1,2.17-2.17h19.19a2.17,2.17,0,0,1,2.17,2.17Z" transform="translate(-419.33 -128.67)"/><path class="cls-13" d="M446.08,319.66V318a2.61,2.61,0,0,1,2.61-2.61h19.19a2.6,2.6,0,0,1,2.6,2.61v1.64a.44.44,0,0,1-.43.44H446.52A.44.44,0,0,1,446.08,319.66ZM469.61,318a1.74,1.74,0,0,0-1.73-1.73H448.69A1.73,1.73,0,0,0,447,318v1.2h22.65Z" transform="translate(-419.33 -128.67)"/><path class="cls-13" d="M466.42,317.17v0Z" transform="translate(-419.33 -128.67)"/><path class="cls-13" d="M466,317.17v-2.6a.44.44,0,0,1,.44-.44.44.44,0,0,1,.43.44v2.6a.43.43,0,0,1-.43.44A.44.44,0,0,1,466,317.17Z" transform="translate(-419.33 -128.67)"/><path class="cls-13" d="M463.16,317.17v0Z" transform="translate(-419.33 -128.67)"/><path class="cls-13" d="M462.73,317.17v-2.6a.44.44,0,1,1,.87,0v2.6a.44.44,0,1,1-.87,0Z" transform="translate(-419.33 -128.67)"/><path class="cls-13" d="M459.91,317.17v0Z" transform="translate(-419.33 -128.67)"/><path class="cls-13" d="M459.47,317.17v-2.6a.44.44,0,0,1,.88,0v2.6a.44.44,0,0,1-.88,0Z" transform="translate(-419.33 -128.67)"/><path class="cls-13" d="M456.66,317.17v0Z" transform="translate(-419.33 -128.67)"/><path class="cls-13" d="M456.22,317.17v-2.6a.44.44,0,1,1,.87,0v2.6a.44.44,0,1,1-.87,0Z" transform="translate(-419.33 -128.67)"/><path class="cls-13" d="M453.4,317.17v0Z" transform="translate(-419.33 -128.67)"/><path class="cls-13" d="M453,317.17v-2.6a.44.44,0,0,1,.88,0v2.6a.44.44,0,0,1-.88,0Z" transform="translate(-419.33 -128.67)"/><path class="cls-13" d="M450.15,317.17v0Z" transform="translate(-419.33 -128.67)"/><path class="cls-13" d="M449.71,317.17v-2.6a.44.44,0,0,1,.88,0v2.6a.44.44,0,0,1-.88,0Z" transform="translate(-419.33 -128.67)"/><path class="cls-15" d="M450.56,383.55l6.69-2,8.6-11.45a1.53,1.53,0,0,0-.3-2.13l-2.21-1.65L463,366l-1.78-1.33a1.51,1.51,0,0,0-2.12.3l-8.6,11.46-.08,7Z" transform="translate(-419.33 -128.67)"/><line class="cls-16" x1="31.08" y1="254.89" x2="45.5" y2="254.89"/><rect class="cls-14" x="27.67" y="290.04" width="16.16" height="13.92"/><path class="cls-13" d="M463.16,433.08H447a.47.47,0,0,1-.46-.46V418.7a.46.46,0,0,1,.46-.45h16.15a.45.45,0,0,1,.45.45v13.92A.46.46,0,0,1,463.16,433.08Zm-15.7-.91h15.25v-13H447.46Z" transform="translate(-419.33 -128.67)"/><rect class="cls-2" x="34.07" y="284.75" width="16.16" height="13.92"/><path class="cls-13" d="M469.56,427.79H453.41a.46.46,0,0,1-.46-.45V413.42a.47.47,0,0,1,.46-.46h16.15a.46.46,0,0,1,.45.46v13.92A.45.45,0,0,1,469.56,427.79Zm-15.7-.9h15.25v-13H453.86Z" transform="translate(-419.33 -128.67)"/><line class="cls-17" x1="100.67" y1="61.51" x2="112.67" y2="61.51"/><line class="cls-17" x1="100.67" y1="67.16" x2="112.67" y2="67.16"/><line class="cls-17" x1="103.84" y1="70.33" x2="103.84" y2="58.33"/><line class="cls-17" x1="109.49" y1="70.33" x2="109.49" y2="58.33"/><path class="cls-18" d="M592.36,197.26a6.47,6.47,0,1,0-10.53-2l-.65,4.08,4.09-.65h0A6.45,6.45,0,0,0,592.36,197.26Z" transform="translate(-419.33 -128.67)"/><circle class="cls-2" cx="165.96" cy="64.02" r="0.89"/><circle class="cls-2" cx="168.74" cy="64.02" r="0.89"/><circle class="cls-2" cx="171.52" cy="64.02" r="0.89"/><rect class="cls-2" x="27.72" y="138.42" width="22.02" height="15.75" rx="3.2"/><rect class="cls-2" x="27.72" y="138.42" width="22.02" height="15.75" rx="2.43"/><path class="cls-13" d="M466.89,283.39H449.24a2.73,2.73,0,0,1-2.73-2.73V269.27a2.73,2.73,0,0,1,2.73-2.73h17.65a2.73,2.73,0,0,1,2.72,2.73v11.39A2.73,2.73,0,0,1,466.89,283.39Zm-17.65-15.75a1.63,1.63,0,0,0-1.64,1.63v11.39a1.63,1.63,0,0,0,1.64,1.63h17.65a1.63,1.63,0,0,0,1.63-1.63V269.27a1.63,1.63,0,0,0-1.63-1.63Z" transform="translate(-419.33 -128.67)"/><path class="cls-13" d="M457.77,277.78a.55.55,0,0,1-.36-.13l-7.62-6.56a.55.55,0,0,1-.06-.77.54.54,0,0,1,.77-.06l7.28,6.27,7.52-6.11a.55.55,0,0,1,.69.85l-7.88,6.39A.54.54,0,0,1,457.77,277.78Z" transform="translate(-419.33 -128.67)"/><line class="cls-13" x1="33.95" y1="147.64" x2="30.52" y2="150.98"/><path class="cls-13" d="M449.85,280.2a.56.56,0,0,1-.39-.17.55.55,0,0,1,0-.77l3.43-3.35a.55.55,0,0,1,.76.79L450.23,280A.55.55,0,0,1,449.85,280.2Z" transform="translate(-419.33 -128.67)"/><line class="cls-13" x1="43.18" y1="147.64" x2="46.61" y2="151.28"/><path class="cls-13" d="M465.94,280.49a.58.58,0,0,1-.4-.17l-3.43-3.64a.55.55,0,0,1,0-.77.54.54,0,0,1,.77,0l3.43,3.64a.55.55,0,0,1-.4.92Z" transform="translate(-419.33 -128.67)"/><rect class="cls-19" x="229.2" y="355.33" width="514.46" height="31" rx="2.83"/><ellipse class="cls-20" cx="245.4" cy="370.33" rx="7.85" ry="7.54"/><rect class="cls-21" x="244.81" y="366.42" width="1.61" height="8" rx="0.77"/><rect class="cls-21" x="241.45" y="369.64" width="8.33" height="1.54" rx="0.77"/><path class="cls-8" d="M499,271" transform="translate(-419.33 -128.67)"/><line class="cls-5" x1="85.67" y1="136.51" x2="97.67" y2="136.51"/><line class="cls-5" x1="85.67" y1="142.16" x2="97.67" y2="142.16"/><line class="cls-5" x1="88.84" y1="145.33" x2="88.84" y2="133.33"/><line class="cls-5" x1="94.49" y1="145.33" x2="94.49" y2="133.33"/><line class="cls-22" x1="86.67" y1="177.98" x2="96.67" y2="177.98"/><line class="cls-22" x1="86.67" y1="182.69" x2="96.67" y2="182.69"/><line class="cls-22" x1="89.31" y1="185.33" x2="89.31" y2="175.33"/><line class="cls-22" x1="94.02" y1="185.33" x2="94.02" y2="175.33"/><line class="cls-22" x1="86.67" y1="218.98" x2="96.67" y2="218.98"/><line class="cls-22" x1="86.67" y1="223.69" x2="96.67" y2="223.69"/><line class="cls-22" x1="89.31" y1="226.33" x2="89.31" y2="216.33"/><line class="cls-22" x1="94.02" y1="226.33" x2="94.02" y2="216.33"/><line class="cls-22" x1="86.67" y1="259.98" x2="96.67" y2="259.98"/><line class="cls-22" x1="86.67" y1="264.69" x2="96.67" y2="264.69"/><line class="cls-22" x1="89.31" y1="267.33" x2="89.31" y2="257.33"/><line class="cls-22" x1="94.02" y1="267.33" x2="94.02" y2="257.33"/><line class="cls-22" x1="86.67" y1="300.98" x2="96.67" y2="300.98"/><line class="cls-22" x1="86.67" y1="305.69" x2="96.67" y2="305.69"/><line class="cls-22" x1="89.31" y1="308.33" x2="89.31" y2="298.33"/><line class="cls-22" x1="94.02" y1="308.33" x2="94.02" y2="298.33"/><path class="cls-11" d="M493.75,265.5h3.07a.25.25,0,0,1,.22.37l-1.54,2.63L494,271.15a.25.25,0,0,1-.43,0L492,268.51l-1.54-2.64a.24.24,0,0,1,.21-.37Z" transform="translate(-419.33 -128.67)"/><rect class="cls-4" x="109.33" y="176" width="93" height="9.33" rx="2.33"/><rect class="cls-4" x="109.33" y="217" width="93" height="9.33" rx="2.33"/><rect class="cls-4" x="109.33" y="258" width="93" height="9.33" rx="2.33"/><rect class="cls-4" x="109.33" y="299" width="93" height="9.33" rx="2.33"/><line class="cls-23" x1="111.67" y1="190.33" x2="187.67" y2="190.33"/><line class="cls-23" x1="111.67" y1="197.33" x2="156.67" y2="197.33"/><line class="cls-23" x1="111.67" y1="232.33" x2="155.67" y2="232.33"/><line class="cls-23" x1="111.67" y1="239.33" x2="179.67" y2="239.33"/><line class="cls-23" x1="111.67" y1="272.33" x2="145.17" y2="272.33"/><line class="cls-23" x1="111.67" y1="279.33" x2="156.67" y2="279.33"/><line class="cls-23" x1="111.67" y1="315.33" x2="144.67" y2="315.33"/><line class="cls-23" x1="111.67" y1="322.33" x2="179.67" y2="322.33"/><rect class="cls-12" x="16" y="43.98" width="741.33" height="387" rx="4.5"/><rect class="cls-3" x="500.22" y="293.33" width="244.18" height="32.5" rx="2.5"/><text class="cls-24" transform="translate(537.68 316.03)"><tspan class="cls-25">새로</tspan><tspan x="26.88" y="0">운</tspan><tspan class="cls-26" x="40.03" y="0"> </tspan><tspan class="cls-27" x="42.89" y="0">메</tspan><tspan x="55.76" y="0">일</tspan><tspan class="cls-28" x="68.91" y="0">이</tspan><tspan class="cls-29" x="82.07" y="0"> </tspan><tspan class="cls-30" x="84.92" y="0">도</tspan><tspan class="cls-31" x="97.22" y="0">착</tspan><tspan class="cls-28" x="110.66" y="0">하였습니다.</tspan></text><line class="cls-32" x1="734.87" y1="297.01" x2="741.17" y2="303.3"/><line class="cls-32" x1="741.17" y1="297.01" x2="734.87" y2="303.3"/><circle class="cls-33" cx="521.28" cy="301.42" r="1.44"/><ellipse class="cls-34" cx="521.28" cy="317.07" rx="3.02" ry="3.57"/><path class="cls-33" d="M941.84,446.77h6.06a1.17,1.17,0,0,0,1-1.76l-1.83-3.11a2.21,2.21,0,0,1-.3-1.1v-4.22a5.35,5.35,0,0,0-.56-2.39,6.23,6.23,0,0,0-5.13-3.27h-.82a6.22,6.22,0,0,0-5.12,3.27,5.23,5.23,0,0,0-.57,2.39v4.22a2.2,2.2,0,0,1-.29,1.1L932.46,445a1.17,1.17,0,0,0,1,1.76h8.37Z" transform="translate(-419.33 -128.67)"/></svg>