<svg id="Layer_1" data-name="Layer 1" xmlns="http://www.w3.org/2000/svg" xmlns:xlink="http://www.w3.org/1999/xlink" viewBox="0 0 622.05 555.54"><defs><style>.cls-1,.cls-10,.cls-12,.cls-13,.cls-15,.cls-17,.cls-18,.cls-22,.cls-32,.cls-4,.cls-9{fill:none;}.cls-2{fill:#d9d7e4;}.cls-3{fill:#f9f9f9;}.cls-4{stroke:#a3a3a3;}.cls-10,.cls-12,.cls-13,.cls-15,.cls-18,.cls-32,.cls-4,.cls-9{stroke-linecap:round;}.cls-10,.cls-15,.cls-32,.cls-4{stroke-linejoin:round;}.cls-12,.cls-32,.cls-4,.cls-9{stroke-width:2px;}.cls-19,.cls-5{fill:#5c4799;}.cls-6{fill:#64c3d9;}.cls-7{fill:#ccc;}.cls-26,.cls-8{fill:#fff;}.cls-10,.cls-17,.cls-18,.cls-19,.cls-9{stroke:#fff;}.cls-12,.cls-13,.cls-17,.cls-18,.cls-19,.cls-22,.cls-9{stroke-miterlimit:10;}.cls-10,.cls-13,.cls-18{stroke-width:1.5px;}.cls-11{fill:#b3b5b7;}.cls-12,.cls-13{stroke:#b3b5b7;}.cls-14{fill:#dedede;}.cls-15,.cls-32{stroke:#dedede;}.cls-15{stroke-width:3px;}.cls-16{clip-path:url(#clip-path);}.cls-20{clip-path:url(#clip-path-2);}.cls-21{clip-path:url(#clip-path-3);}.cls-22{stroke:#ccc;}.cls-23{clip-path:url(#clip-path-4);}.cls-24{clip-path:url(#clip-path-5);}.cls-25{clip-path:url(#clip-path-6);}.cls-26{font-size:6.47px;font-family:YDIYGO330;}.cls-27{clip-path:url(#clip-path-7);}.cls-28{clip-path:url(#clip-path-8);}.cls-29{clip-path:url(#clip-path-9);}.cls-30{clip-path:url(#clip-path-10);}.cls-31{clip-path:url(#clip-path-11);}.cls-33{fill:#f53b69;}</style><clipPath id="clip-path" transform="translate(-814.95 -297.84)"><rect class="cls-1" x="829.72" y="310.81" width="267.49" height="527.41" rx="15.17"/></clipPath><clipPath id="clip-path-2" transform="translate(-814.95 -297.84)"><rect class="cls-1" x="1154.09" y="310.81" width="267.49" height="527.41" rx="15.17"/></clipPath><clipPath id="clip-path-3" transform="translate(-814.95 -297.84)"><circle class="cls-1" cx="1186.22" cy="436.26" r="6"/></clipPath><clipPath id="clip-path-4" transform="translate(-814.95 -297.84)"><circle class="cls-1" cx="1199.74" cy="436.26" r="6"/></clipPath><clipPath id="clip-path-5" transform="translate(-814.95 -297.84)"><circle class="cls-1" cx="1186.22" cy="449.77" r="6"/></clipPath><clipPath id="clip-path-6" transform="translate(-814.95 -297.84)"><circle class="cls-1" cx="1199.74" cy="449.77" r="6"/></clipPath><clipPath id="clip-path-7" transform="translate(-814.95 -297.84)"><circle class="cls-1" cx="1192.24" cy="502.87" r="12.02"/></clipPath><clipPath id="clip-path-8" transform="translate(-814.95 -297.84)"><circle class="cls-1" cx="1192.24" cy="542.57" r="12.02"/></clipPath><clipPath id="clip-path-9" transform="translate(-814.95 -297.84)"><circle class="cls-1" cx="1192.24" cy="582.27" r="12.02"/></clipPath><clipPath id="clip-path-10" transform="translate(-814.95 -297.84)"><circle class="cls-1" cx="1192.24" cy="621.98" r="12.02"/></clipPath><clipPath id="clip-path-11" transform="translate(-814.95 -297.84)"><circle class="cls-1" cx="1192.24" cy="699.69" r="12.02"/></clipPath></defs><title>2_handphone</title><rect class="cls-2" x="1" y="1" width="295.68" height="553.54" rx="19"/><rect class="cls-3" x="14.75" y="12.69" width="267.49" height="527.41" rx="15.17"/><rect class="cls-4" x="1" y="1" width="295.68" height="553.54" rx="19"/><path class="cls-2" d="M94.52,11.69H203.85a0,0,0,0,1,0,0V20.9a8.67,8.67,0,0,1-8.67,8.67h-92a8.67,8.67,0,0,1-8.67-8.67V11.69a0,0,0,0,1,0,0Z"/><path class="cls-5" d="M851.25,355.08a3.65,3.65,0,1,0-1,1.12l5.12,5.13,1.09-1.09Z" transform="translate(-814.95 -297.84)"/><path class="cls-6" d="M856.34,343.81a3.59,3.59,0,1,1,1,1.13l-5.12,5.12L851.17,349Z" transform="translate(-814.95 -297.84)"/><path class="cls-5" d="M867.61,350.74a3.65,3.65,0,1,0,1-1.12l-5.12-5.13-1.09,1.09Z" transform="translate(-814.95 -297.84)"/><path class="cls-6" d="M862.52,362a3.62,3.62,0,1,1-3.12-1.78,3.64,3.64,0,0,1,2.08.65l5.12-5.12,1.08,1.09Z" transform="translate(-814.95 -297.84)"/><path class="cls-6" d="M855.94,353.83a1.48,1.48,0,0,0,.22-.78,1.55,1.55,0,1,0-1.54,1.54,1.51,1.51,0,0,0,.88-.28l2.18,2.19.47-.47Z" transform="translate(-814.95 -297.84)"/><path class="cls-5" d="M858.11,349a1.6,1.6,0,0,1-.21-.78,1.54,1.54,0,1,1,1.54,1.54,1.49,1.49,0,0,1-.88-.28l-2.19,2.19-.46-.47Z" transform="translate(-814.95 -297.84)"/><path class="cls-6" d="M862.91,352a1.57,1.57,0,0,0-.21.78,1.54,1.54,0,1,0,1.54-1.54,1.49,1.49,0,0,0-.88.28l-2.19-2.19-.46.47Z" transform="translate(-814.95 -297.84)"/><path class="cls-5" d="M860.75,356.79a1.6,1.6,0,0,1,.21.78,1.55,1.55,0,1,1-1.54-1.54,1.49,1.49,0,0,1,.88.28l2.18-2.19.47.47Z" transform="translate(-814.95 -297.84)"/><path class="cls-7" d="M1027.41,357a6.56,6.56,0,1,1,6.56-6.56A6.57,6.57,0,0,1,1027.41,357Zm0-10.82a4.26,4.26,0,1,0,4.27,4.26A4.26,4.26,0,0,0,1027.41,346.17Z" transform="translate(-814.95 -297.84)"/><path class="cls-7" d="M1034.87,359.64a1.11,1.11,0,0,1-.83-.36l-3.84-4a1.15,1.15,0,1,1,1.66-1.58l3.84,4a1.14,1.14,0,0,1,0,1.62A1.16,1.16,0,0,1,1034.87,359.64Z" transform="translate(-814.95 -297.84)"/><path class="cls-7" d="M1045.33,360.15a1.26,1.26,0,0,1-1.27-1.2V344.52a1.27,1.27,0,0,1,2.54,0V359A1.26,1.26,0,0,1,1045.33,360.15Z" transform="translate(-814.95 -297.84)"/><path class="cls-7" d="M1052.09,360.15a1.25,1.25,0,0,1-1.27-1.2V344.52a1.27,1.27,0,0,1,2.53,0V359A1.25,1.25,0,0,1,1052.09,360.15Z" transform="translate(-814.95 -297.84)"/><path class="cls-7" d="M1058.84,360.15a1.25,1.25,0,0,1-1.26-1.2V344.52a1.27,1.27,0,0,1,2.53,0V359A1.25,1.25,0,0,1,1058.84,360.15Z" transform="translate(-814.95 -297.84)"/><circle class="cls-8" cx="230.42" cy="57.27" r="2.27"/><path class="cls-7" d="M1045.37,358.13a3,3,0,1,1,3-3A3,3,0,0,1,1045.37,358.13Zm0-4.55a1.54,1.54,0,1,0,1.54,1.54A1.54,1.54,0,0,0,1045.37,353.58Z" transform="translate(-814.95 -297.84)"/><circle class="cls-8" cx="237.18" cy="49.67" r="2.27"/><path class="cls-7" d="M1052.13,350.53a3,3,0,1,1,3-3A3,3,0,0,1,1052.13,350.53Zm0-4.55a1.54,1.54,0,1,0,1.53,1.53A1.54,1.54,0,0,0,1052.13,346Z" transform="translate(-814.95 -297.84)"/><circle class="cls-8" cx="243.94" cy="54.74" r="2.27"/><path class="cls-7" d="M1058.89,355.6a3,3,0,1,1,3-3A3,3,0,0,1,1058.89,355.6Zm0-4.55a1.53,1.53,0,1,0,1.53,1.53A1.54,1.54,0,0,0,1058.89,351.05Z" transform="translate(-814.95 -297.84)"/><path class="cls-7" d="M1077.13,345l.37,1.15a3.52,3.52,0,0,0,3.35,2.46h1.27a1.5,1.5,0,0,1,.88,2.7l-1.08.81a3.55,3.55,0,0,0-1.26,4l.4,1.24a1.49,1.49,0,0,1-2.28,1.68l-1-.72a3.51,3.51,0,0,0-4.14,0l-1,.73a1.49,1.49,0,0,1-2.29-1.67l.41-1.27a3.59,3.59,0,0,0-1.26-3.95l-1.08-.8a1.5,1.5,0,0,1,.88-2.7h1.27a3.51,3.51,0,0,0,3.34-2.46l.38-1.15A1.48,1.48,0,0,1,1077.13,345Z" transform="translate(-814.95 -297.84)"/><ellipse class="cls-8" cx="260.71" cy="54.26" rx="2.62" ry="2.64"/><rect class="cls-5" x="130.56" y="81.42" width="134.59" height="18.58" rx="9.29"/><rect class="cls-6" x="31.45" y="81.42" width="118.26" height="18.58" rx="9.29"/><line class="cls-9" x1="82.98" y1="88.29" x2="93.11" y2="88.29"/><line class="cls-9" x1="82.98" y1="93.06" x2="93.11" y2="93.06"/><line class="cls-9" x1="85.66" y1="95.74" x2="85.66" y2="85.6"/><line class="cls-9" x1="90.43" y1="95.74" x2="90.43" y2="85.6"/><path class="cls-10" d="M1024.1,392.11a5.47,5.47,0,1,0-8.9-1.73l-.55,3.44,3.45-.54h0A5.48,5.48,0,0,0,1024.1,392.11Z" transform="translate(-814.95 -297.84)"/><circle class="cls-8" cx="203.17" cy="90.41" r="0.75"/><circle class="cls-8" cx="205.52" cy="90.41" r="0.75"/><circle class="cls-8" cx="207.87" cy="90.41" r="0.75"/><path class="cls-11" d="M856,430.05h2.6a.21.21,0,0,1,.18.31l-1.3,2.22-1.3,2.24a.21.21,0,0,1-.36,0l-1.3-2.23-1.29-2.23a.21.21,0,0,1,.18-.31Z" transform="translate(-814.95 -297.84)"/><line class="cls-12" x1="50.88" y1="132.21" x2="61.01" y2="132.21"/><line class="cls-12" x1="50.88" y1="136.98" x2="61.01" y2="136.98"/><line class="cls-12" x1="53.56" y1="139.66" x2="53.56" y2="129.53"/><line class="cls-12" x1="58.33" y1="139.66" x2="58.33" y2="129.53"/><path class="cls-11" d="M853.61,606.47v-2.6a.21.21,0,0,1,.31-.18l2.22,1.3,2.24,1.3a.21.21,0,0,1,0,.36l-2.23,1.3-2.23,1.3a.21.21,0,0,1-.31-.18Z" transform="translate(-814.95 -297.84)"/><line class="cls-12" x1="50.88" y1="306.22" x2="61.01" y2="306.22"/><line class="cls-12" x1="50.88" y1="310.99" x2="61.01" y2="310.99"/><line class="cls-12" x1="53.56" y1="313.67" x2="53.56" y2="303.54"/><line class="cls-12" x1="58.33" y1="313.67" x2="58.33" y2="303.54"/><path class="cls-11" d="M853.61,631v-2.6a.21.21,0,0,1,.31-.18l2.22,1.3,2.24,1.3a.21.21,0,0,1,0,.36l-2.23,1.3-2.23,1.29a.21.21,0,0,1-.31-.18Z" transform="translate(-814.95 -297.84)"/><line class="cls-12" x1="50.88" y1="330.72" x2="61.01" y2="330.72"/><line class="cls-12" x1="50.88" y1="335.49" x2="61.01" y2="335.49"/><line class="cls-12" x1="53.56" y1="338.17" x2="53.56" y2="328.03"/><line class="cls-12" x1="58.33" y1="338.17" x2="58.33" y2="328.03"/><path class="cls-11" d="M853.61,655.46v-2.59a.2.2,0,0,1,.31-.18l2.22,1.29,2.24,1.3a.21.21,0,0,1,0,.36l-2.23,1.3-2.23,1.3a.21.21,0,0,1-.31-.18Z" transform="translate(-814.95 -297.84)"/><line class="cls-12" x1="50.88" y1="355.21" x2="61.01" y2="355.21"/><line class="cls-12" x1="50.88" y1="359.98" x2="61.01" y2="359.98"/><line class="cls-12" x1="53.56" y1="362.66" x2="53.56" y2="352.53"/><line class="cls-12" x1="58.33" y1="362.66" x2="58.33" y2="352.53"/><path class="cls-11" d="M853.61,680v-2.6a.21.21,0,0,1,.31-.18l2.22,1.3,2.24,1.3a.21.21,0,0,1,0,.36l-2.23,1.3-2.23,1.3a.21.21,0,0,1-.31-.18Z" transform="translate(-814.95 -297.84)"/><line class="cls-12" x1="50.88" y1="379.71" x2="61.01" y2="379.71"/><line class="cls-12" x1="50.88" y1="384.48" x2="61.01" y2="384.48"/><line class="cls-12" x1="53.56" y1="387.16" x2="53.56" y2="377.02"/><line class="cls-12" x1="58.33" y1="387.16" x2="58.33" y2="377.02"/><path class="cls-11" d="M853.61,704.45v-2.59a.21.21,0,0,1,.31-.18l2.22,1.29,2.24,1.3a.21.21,0,0,1,0,.36l-2.23,1.3-2.23,1.3a.21.21,0,0,1-.31-.18Z" transform="translate(-814.95 -297.84)"/><line class="cls-12" x1="50.88" y1="404.2" x2="61.01" y2="404.2"/><line class="cls-12" x1="50.88" y1="408.97" x2="61.01" y2="408.97"/><line class="cls-12" x1="53.56" y1="411.66" x2="53.56" y2="401.52"/><line class="cls-12" x1="58.33" y1="411.66" x2="58.33" y2="401.52"/><line class="cls-13" x1="52.57" y1="159.64" x2="61.01" y2="159.64"/><line class="cls-13" x1="52.57" y1="163.61" x2="61.01" y2="163.61"/><line class="cls-13" x1="54.8" y1="165.85" x2="54.8" y2="157.4"/><line class="cls-13" x1="58.78" y1="165.85" x2="58.78" y2="157.4"/><line class="cls-13" x1="52.57" y1="194.27" x2="61.01" y2="194.27"/><line class="cls-13" x1="52.57" y1="198.25" x2="61.01" y2="198.25"/><line class="cls-13" x1="54.8" y1="200.48" x2="54.8" y2="192.04"/><line class="cls-13" x1="58.78" y1="200.48" x2="58.78" y2="192.04"/><line class="cls-13" x1="52.57" y1="228.9" x2="61.01" y2="228.9"/><line class="cls-13" x1="52.57" y1="232.88" x2="61.01" y2="232.88"/><line class="cls-13" x1="54.8" y1="235.11" x2="54.8" y2="226.67"/><line class="cls-13" x1="58.78" y1="235.11" x2="58.78" y2="226.67"/><line class="cls-13" x1="52.57" y1="263.54" x2="61.01" y2="263.54"/><line class="cls-13" x1="52.57" y1="267.51" x2="61.01" y2="267.51"/><line class="cls-13" x1="54.8" y1="269.75" x2="54.8" y2="261.3"/><line class="cls-13" x1="58.78" y1="269.75" x2="58.78" y2="261.3"/><rect class="cls-14" x="71.71" y="157.97" width="78.56" height="7.88" rx="2.33"/><rect class="cls-14" x="71.71" y="192.6" width="78.56" height="7.88" rx="2.33"/><rect class="cls-14" x="71.71" y="227.23" width="78.56" height="7.88" rx="2.33"/><rect class="cls-14" x="71.71" y="261.86" width="78.56" height="7.88" rx="2.33"/><line class="cls-15" x1="73.68" y1="170.07" x2="137.88" y2="170.07"/><line class="cls-15" x1="73.68" y1="175.99" x2="111.7" y2="175.99"/><line class="cls-15" x1="73.68" y1="205.55" x2="110.85" y2="205.55"/><line class="cls-15" x1="73.68" y1="211.46" x2="131.12" y2="211.46"/><line class="cls-15" x1="73.68" y1="239.34" x2="101.98" y2="239.34"/><line class="cls-15" x1="73.68" y1="245.25" x2="111.7" y2="245.25"/><line class="cls-15" x1="73.68" y1="275.66" x2="101.56" y2="275.66"/><line class="cls-15" x1="73.68" y1="281.57" x2="131.12" y2="281.57"/><rect class="cls-7" x="72.17" y="130.37" width="126.71" height="10.14" rx="5.07"/><rect class="cls-7" x="72.17" y="303.54" width="150.46" height="10.14" rx="5.07"/><rect class="cls-7" x="72.17" y="328.03" width="84.58" height="10.14" rx="5.07"/><rect class="cls-7" x="72.17" y="352.53" width="115.83" height="10.14" rx="5.07"/><rect class="cls-7" x="72.17" y="377.87" width="171.02" height="10.14" rx="5.07"/><rect class="cls-7" x="72.17" y="401.52" width="74.44" height="10.14" rx="5.07"/><g class="cls-16"><path class="cls-5" d="M10.35,494.72H282.77a0,0,0,0,1,0,0v34.5a15.33,15.33,0,0,1-15.33,15.33H25.68a15.33,15.33,0,0,1-15.33-15.33v-34.5A0,0,0,0,1,10.35,494.72Z"/></g><path class="cls-17" d="M857.21,807.36H846.07a1.32,1.32,0,0,0-1.32,1.32v10.63a.57.57,0,0,0,1.07.25l1.62-2.31a1.16,1.16,0,0,1,1-.5h8.42a1.43,1.43,0,0,0,1.42-1.42v-6.94A1,1,0,0,0,857.21,807.36Z" transform="translate(-814.95 -297.84)"/><circle class="cls-8" cx="33.34" cy="514.49" r="0.83"/><circle class="cls-8" cx="36.27" cy="514.49" r="0.83"/><circle class="cls-8" cx="39.21" cy="514.49" r="0.83"/><rect class="cls-17" x="142.3" y="509.79" width="13.2" height="10.49" rx="1.51"/><path class="cls-17" d="M957.84,808.14l5.32,4.19a1.14,1.14,0,0,0,1.39,0l5-4.27" transform="translate(-814.95 -297.84)"/><path class="cls-8" d="M1017.45,809.6a.42.42,0,0,1-.42-.42V805.8a.43.43,0,1,1,.85,0v3.38A.42.42,0,0,1,1017.45,809.6Z" transform="translate(-814.95 -297.84)"/><path class="cls-8" d="M1022.52,809.6a.42.42,0,0,1-.42-.42V805.8a.42.42,0,0,1,.42-.43.42.42,0,0,1,.42.43v3.38A.42.42,0,0,1,1022.52,809.6Z" transform="translate(-814.95 -297.84)"/><path class="cls-17" d="M200.33,510h9.55A1.09,1.09,0,0,1,211,511.1v8.26a2.53,2.53,0,0,1-2.53,2.53h-6.67a2.53,2.53,0,0,1-2.53-2.53V511.1A1.09,1.09,0,0,1,200.33,510Z"/><line class="cls-17" x1="199.54" y1="515.98" x2="211.37" y2="515.98"/><rect class="cls-8" x="201.14" y="517.56" width="7.92" height="1.98" rx="0.99"/><path class="cls-17" d="M1081.2,812.21V817a1.73,1.73,0,0,1-1.73,1.72h-7.84a1.73,1.73,0,0,1-1.73-1.72v-7.85a1.73,1.73,0,0,1,1.73-1.72h7.48" transform="translate(-814.95 -297.84)"/><polyline class="cls-18" points="258.84 514.92 260.52 516.61 267.56 509.27"/><circle class="cls-19" cx="92.73" cy="519.9" r="1.73"/><path class="cls-19" d="M912.92,816.9l-1-1.84v-4.79a3.15,3.15,0,0,0-2.89-3.21h-2.49a3.15,3.15,0,0,0-2.89,3.21v4.79l-1.18,1.82a.43.43,0,0,0,.37.66h9.73A.43.43,0,0,0,912.92,816.9Z" transform="translate(-814.95 -297.84)"/><rect class="cls-2" x="325.37" y="1" width="295.68" height="553.54" rx="19"/><rect class="cls-3" x="339.12" y="12.69" width="267.49" height="527.41" rx="15.17"/><rect class="cls-4" x="325.37" y="1" width="295.68" height="553.54" rx="19"/><path class="cls-2" d="M418.88,11.69H528.22a0,0,0,0,1,0,0V20.9a8.67,8.67,0,0,1-8.67,8.67h-92a8.67,8.67,0,0,1-8.67-8.67V11.69a0,0,0,0,1,0,0Z"/><path class="cls-5" d="M1175.62,355.08a3.69,3.69,0,1,0-1,1.12l5.13,5.13,1.08-1.09Z" transform="translate(-814.95 -297.84)"/><path class="cls-6" d="M1180.7,343.81a3.63,3.63,0,1,1,1,1.13l-5.13,5.12-1.08-1.09Z" transform="translate(-814.95 -297.84)"/><path class="cls-5" d="M1192,350.74a3.62,3.62,0,1,0,3.12-1.78,3.65,3.65,0,0,0-2.08.66l-5.12-5.13-1.08,1.09Z" transform="translate(-814.95 -297.84)"/><path class="cls-6" d="M1186.88,362a3.59,3.59,0,1,1-1-1.13l5.12-5.12,1.09,1.09Z" transform="translate(-814.95 -297.84)"/><path class="cls-6" d="M1180.31,353.83a1.47,1.47,0,0,0,.21-.78,1.54,1.54,0,1,0-1.54,1.54,1.49,1.49,0,0,0,.88-.28l2.19,2.19.46-.47Z" transform="translate(-814.95 -297.84)"/><path class="cls-5" d="M1182.48,349a1.5,1.5,0,0,1-.22-.78,1.55,1.55,0,1,1,1.54,1.54,1.51,1.51,0,0,1-.88-.28l-2.18,2.19-.46-.47Z" transform="translate(-814.95 -297.84)"/><path class="cls-6" d="M1187.28,352a1.48,1.48,0,0,0-.22.78,1.55,1.55,0,1,0,1.55-1.54,1.52,1.52,0,0,0-.89.28l-2.18-2.19-.46.47Z" transform="translate(-814.95 -297.84)"/><path class="cls-5" d="M1185.11,356.79a1.5,1.5,0,0,1,.22.78,1.55,1.55,0,1,1-1.55-1.54,1.52,1.52,0,0,1,.89.28l2.18-2.19.46.47Z" transform="translate(-814.95 -297.84)"/><path class="cls-7" d="M1351.78,357a6.56,6.56,0,1,1,6.56-6.56A6.56,6.56,0,0,1,1351.78,357Zm0-10.82a4.26,4.26,0,1,0,4.26,4.26A4.27,4.27,0,0,0,1351.78,346.17Z" transform="translate(-814.95 -297.84)"/><path class="cls-7" d="M1359.23,359.64a1.15,1.15,0,0,1-.83-.36l-3.84-4a1.15,1.15,0,0,1,1.67-1.58l3.83,4a1.15,1.15,0,0,1-.83,1.94Z" transform="translate(-814.95 -297.84)"/><path class="cls-7" d="M1369.69,360.15a1.25,1.25,0,0,1-1.26-1.2V344.52a1.27,1.27,0,0,1,2.53,0V359A1.25,1.25,0,0,1,1369.69,360.15Z" transform="translate(-814.95 -297.84)"/><path class="cls-7" d="M1376.45,360.15a1.26,1.26,0,0,1-1.27-1.2V344.52a1.27,1.27,0,0,1,2.54,0V359A1.25,1.25,0,0,1,1376.45,360.15Z" transform="translate(-814.95 -297.84)"/><path class="cls-7" d="M1383.21,360.15a1.26,1.26,0,0,1-1.27-1.2V344.52a1.27,1.27,0,0,1,2.54,0V359A1.26,1.26,0,0,1,1383.21,360.15Z" transform="translate(-814.95 -297.84)"/><circle class="cls-8" cx="554.79" cy="57.27" r="2.27"/><path class="cls-7" d="M1369.74,358.13a3,3,0,1,1,3-3A3,3,0,0,1,1369.74,358.13Zm0-4.55a1.54,1.54,0,1,0,1.53,1.54A1.54,1.54,0,0,0,1369.74,353.58Z" transform="translate(-814.95 -297.84)"/><circle class="cls-8" cx="561.54" cy="49.67" r="2.27"/><path class="cls-7" d="M1376.5,350.53a3,3,0,1,1,3-3A3,3,0,0,1,1376.5,350.53Zm0-4.55a1.54,1.54,0,1,0,1.53,1.53A1.53,1.53,0,0,0,1376.5,346Z" transform="translate(-814.95 -297.84)"/><circle class="cls-8" cx="568.3" cy="54.74" r="2.27"/><path class="cls-7" d="M1383.25,355.6a3,3,0,1,1,3-3A3,3,0,0,1,1383.25,355.6Zm0-4.55a1.53,1.53,0,1,0,1.54,1.53A1.54,1.54,0,0,0,1383.25,351.05Z" transform="translate(-814.95 -297.84)"/><path class="cls-7" d="M1402.34,345l.37,1.15a3.52,3.52,0,0,0,3.35,2.46h1.27a1.5,1.5,0,0,1,.88,2.7l-1.08.81a3.55,3.55,0,0,0-1.26,4l.4,1.24A1.49,1.49,0,0,1,1404,359l-1-.72a3.51,3.51,0,0,0-4.14,0l-1,.73a1.49,1.49,0,0,1-2.29-1.67L1396,356a3.59,3.59,0,0,0-1.26-3.95l-1.08-.8a1.5,1.5,0,0,1,.88-2.7h1.27a3.51,3.51,0,0,0,3.34-2.46l.38-1.15A1.48,1.48,0,0,1,1402.34,345Z" transform="translate(-814.95 -297.84)"/><ellipse class="cls-8" cx="585.92" cy="54.26" rx="2.62" ry="2.64"/><rect class="cls-5" x="355.81" y="81.42" width="118.26" height="18.58" rx="9.29"/><line class="cls-9" x1="407.34" y1="88.29" x2="417.48" y2="88.29"/><line class="cls-9" x1="407.34" y1="93.06" x2="417.48" y2="93.06"/><line class="cls-9" x1="410.02" y1="95.74" x2="410.02" y2="85.6"/><line class="cls-9" x1="414.79" y1="95.74" x2="414.79" y2="85.6"/><g class="cls-20"><path class="cls-5" d="M334.71,494.72H607.13a0,0,0,0,1,0,0v34.5a15.33,15.33,0,0,1-15.33,15.33H350a15.33,15.33,0,0,1-15.33-15.33v-34.5A0,0,0,0,1,334.71,494.72Z"/></g><path class="cls-17" d="M1181.58,807.36h-11.15a1.32,1.32,0,0,0-1.32,1.32v10.63a.58.58,0,0,0,1.08.25l1.61-2.31a1.16,1.16,0,0,1,1-.5h8.42a1.42,1.42,0,0,0,1.41-1.42v-6.94A1,1,0,0,0,1181.58,807.36Z" transform="translate(-814.95 -297.84)"/><circle class="cls-8" cx="357.7" cy="514.49" r="0.83"/><circle class="cls-8" cx="360.64" cy="514.49" r="0.83"/><circle class="cls-8" cx="363.57" cy="514.49" r="0.83"/><rect class="cls-17" x="466.67" y="509.79" width="13.2" height="10.49" rx="1.51"/><path class="cls-17" d="M1282.2,808.14l5.33,4.19a1.14,1.14,0,0,0,1.39,0l5-4.27" transform="translate(-814.95 -297.84)"/><path class="cls-8" d="M1341.82,809.6a.42.42,0,0,1-.42-.42V805.8a.42.42,0,1,1,.84,0v3.38A.42.42,0,0,1,1341.82,809.6Z" transform="translate(-814.95 -297.84)"/><path class="cls-8" d="M1346.89,809.6a.42.42,0,0,1-.43-.42V805.8a.43.43,0,1,1,.85,0v3.38A.42.42,0,0,1,1346.89,809.6Z" transform="translate(-814.95 -297.84)"/><path class="cls-17" d="M524.69,510h9.55a1.09,1.09,0,0,1,1.09,1.09v8.26a2.53,2.53,0,0,1-2.53,2.53h-6.67a2.53,2.53,0,0,1-2.53-2.53V511.1A1.09,1.09,0,0,1,524.69,510Z"/><line class="cls-17" x1="523.91" y1="515.98" x2="535.74" y2="515.98"/><rect class="cls-8" x="525.51" y="517.56" width="7.92" height="1.98" rx="0.99"/><path class="cls-17" d="M1405.56,812.21V817a1.72,1.72,0,0,1-1.72,1.72H1396a1.72,1.72,0,0,1-1.72-1.72v-7.85a1.72,1.72,0,0,1,1.72-1.72h7.48" transform="translate(-814.95 -297.84)"/><polyline class="cls-18" points="583.2 514.92 584.89 516.61 591.93 509.27"/><circle class="cls-19" cx="417.1" cy="519.9" r="1.73"/><path class="cls-19" d="M1237.28,816.9l-1-1.84v-4.79a3.16,3.16,0,0,0-2.9-3.21h-2.48a3.16,3.16,0,0,0-2.9,3.21v4.79l-1.17,1.82a.43.43,0,0,0,.36.66h9.73A.43.43,0,0,0,1237.28,816.9Z" transform="translate(-814.95 -297.84)"/><rect class="cls-6" x="454.93" y="81.42" width="134.59" height="18.58" rx="9.29"/><path class="cls-10" d="M1342.55,392.11a5.47,5.47,0,1,0-8.9-1.73l-.54,3.44,3.44-.54h0A5.48,5.48,0,0,0,1342.55,392.11Z" transform="translate(-814.95 -297.84)"/><circle class="cls-8" cx="521.62" cy="90.41" r="0.75"/><circle class="cls-8" cx="523.97" cy="90.41" r="0.75"/><circle class="cls-8" cx="526.32" cy="90.41" r="0.75"/><circle class="cls-8" cx="371.27" cy="138.41" r="6"/><g class="cls-21"><circle class="cls-7" cx="1186.22" cy="435.47" r="2.36" transform="translate(-310.46 1201.59) rotate(-77.51)"/><path class="cls-7" d="M1189.25,442.38h-6v-.89a3,3,0,0,1,3-3h0a3,3,0,0,1,3,3Z" transform="translate(-814.95 -297.84)"/></g><circle class="cls-22" cx="371.27" cy="138.41" r="6"/><circle class="cls-8" cx="384.79" cy="138.41" r="6"/><g class="cls-23"><circle class="cls-7" cx="1199.74" cy="435.47" r="2.36" transform="translate(-299.87 1214.78) rotate(-77.51)"/><path class="cls-7" d="M1202.76,442.38h-6v-.89a3,3,0,0,1,3-3h0a3,3,0,0,1,3,3Z" transform="translate(-814.95 -297.84)"/></g><circle class="cls-22" cx="384.79" cy="138.41" r="6"/><circle class="cls-8" cx="371.27" cy="151.93" r="6"/><g class="cls-24"><circle class="cls-7" cx="1186.22" cy="448.99" r="2.36" transform="translate(-323.65 1212.18) rotate(-77.51)"/><path class="cls-7" d="M1189.25,455.89h-6V455a3,3,0,0,1,3-3h0a3,3,0,0,1,3,3Z" transform="translate(-814.95 -297.84)"/></g><circle class="cls-22" cx="371.27" cy="151.93" r="6"/><circle class="cls-8" cx="384.79" cy="151.93" r="6"/><g class="cls-25"><circle class="cls-7" cx="1199.74" cy="448.99" r="2.36" transform="translate(-313.06 1225.37) rotate(-77.51)"/><path class="cls-7" d="M1202.76,455.89h-6V455a3,3,0,0,1,3-3h0a3,3,0,0,1,3,3Z" transform="translate(-814.95 -297.84)"/></g><circle class="cls-22" cx="384.79" cy="151.93" r="6"/><rect class="cls-5" x="459.73" y="136" width="20.88" height="10.42" rx="5.21"/><circle class="cls-8" cx="1281.05" cy="437.14" r="1.66" transform="translate(-237.78 1295.47) rotate(-77.51)"/><path class="cls-8" d="M1283.18,442h-4.27v-.63a2.14,2.14,0,0,1,2.14-2.14h0a2.13,2.13,0,0,1,2.13,2.14Z" transform="translate(-814.95 -297.84)"/><text class="cls-26" transform="translate(469.64 142.91)">26</text><rect class="cls-14" x="396.36" y="149.57" width="55.75" height="4.65" rx="2.32"/><rect class="cls-7" x="396.36" y="136" width="50.68" height="9.29" rx="4"/><circle class="cls-8" cx="377.29" cy="205.03" r="12.02"/><g class="cls-27"><circle class="cls-7" cx="1192.24" cy="501.3" r="4.72" transform="translate(-370.01 1259.05) rotate(-77.51)"/><path class="cls-7" d="M1198.3,515.13h-12.12v-1.79a6.06,6.06,0,0,1,6.06-6.05h0a6.05,6.05,0,0,1,6.06,6.05Z" transform="translate(-814.95 -297.84)"/></g><circle class="cls-22" cx="377.29" cy="205.03" r="12.02"/><rect class="cls-14" x="396.36" y="210.68" width="76.87" height="4.65" rx="2.32"/><rect class="cls-7" x="396.36" y="197.1" width="50.68" height="9.29" rx="3.33"/><circle class="cls-8" cx="377.29" cy="244.73" r="12.02"/><g class="cls-28"><circle class="cls-7" cx="1192.24" cy="541" r="4.72" transform="translate(-408.77 1290.16) rotate(-77.51)"/><path class="cls-7" d="M1198.3,554.83h-12.12V553a6.06,6.06,0,0,1,6.06-6h0a6.05,6.05,0,0,1,6.06,6Z" transform="translate(-814.95 -297.84)"/></g><circle class="cls-22" cx="377.29" cy="244.73" r="12.02"/><rect class="cls-14" x="396.36" y="250.38" width="63.35" height="4.65" rx="2.32"/><circle class="cls-8" cx="377.29" cy="284.43" r="12.02"/><g class="cls-29"><circle class="cls-7" cx="1192.24" cy="580.7" r="4.72" transform="translate(-447.53 1321.28) rotate(-77.51)"/><path class="cls-7" d="M1198.3,594.53h-12.12v-1.78a6.06,6.06,0,0,1,6.06-6.06h0a6.06,6.06,0,0,1,6.06,6.06Z" transform="translate(-814.95 -297.84)"/></g><circle class="cls-22" cx="377.29" cy="284.43" r="12.02"/><rect class="cls-14" x="396.36" y="290.08" width="76.23" height="4.65" rx="2.32"/><rect class="cls-7" x="396.36" y="276.51" width="50.68" height="9.29" rx="3.33"/><circle class="cls-8" cx="377.29" cy="324.13" r="12.02"/><g class="cls-30"><circle class="cls-7" cx="1192.24" cy="620.4" r="4.72" transform="translate(-486.29 1352.39) rotate(-77.51)"/><path class="cls-7" d="M1198.3,634.23h-12.12v-1.78a6.06,6.06,0,0,1,6.06-6.06h0a6.06,6.06,0,0,1,6.06,6.06Z" transform="translate(-814.95 -297.84)"/></g><circle class="cls-22" cx="377.29" cy="324.13" r="12.02"/><rect class="cls-14" x="396.36" y="329.78" width="25.34" height="4.65" rx="2.32"/><rect class="cls-7" x="396.36" y="316.21" width="50.68" height="9.29" rx="3.33"/><circle class="cls-8" cx="377.29" cy="401.84" r="12.02"/><g class="cls-31"><circle class="cls-7" cx="1192.24" cy="698.11" r="4.72" transform="translate(-562.17 1413.3) rotate(-77.51)"/><path class="cls-7" d="M1198.3,711.94h-12.12v-1.78a6.06,6.06,0,0,1,6.06-6.06h0a6.06,6.06,0,0,1,6.06,6.06Z" transform="translate(-814.95 -297.84)"/></g><circle class="cls-22" cx="377.29" cy="401.84" r="12.02"/><rect class="cls-14" x="396.36" y="407.49" width="55.75" height="4.65" rx="2.32"/><rect class="cls-7" x="396.36" y="393.92" width="96.3" height="9.29" rx="3.33"/><line class="cls-32" x1="360.04" y1="166.69" x2="586.42" y2="166.69"/><line class="cls-32" x1="360.04" y1="371.96" x2="586.42" y2="371.96"/><circle class="cls-33" cx="1388.91" cy="442.57" r="8.45" transform="translate(-176.91 1394.19) rotate(-76.67)"/><path class="cls-8" d="M1390.46,446.5h-2.35V442c0-.55,0-1.06,0-1.51a6.86,6.86,0,0,1-.54.55l-1,.8-1.2-1.48,3-2.39h2.08Z" transform="translate(-814.95 -297.84)"/><circle class="cls-33" cx="1389.71" cy="701.33" r="7.65" transform="translate(-428.08 1594.07) rotate(-76.67)"/><path class="cls-8" d="M1391.11,704.89H1389v-4.11c0-.5,0-1,0-1.37a5.65,5.65,0,0,1-.49.5l-.88.72-1.09-1.33,2.66-2.18h1.89Z" transform="translate(-814.95 -297.84)"/><rect class="cls-7" x="396.36" y="236.8" width="50.68" height="9.29" rx="3.33"/></svg>