<svg id="Layer_1" data-name="Layer 1" xmlns="http://www.w3.org/2000/svg" viewBox="0 0 825.56 635.02"><defs><style>.cls-1,.cls-3{fill:none;stroke:#202123;}.cls-1{stroke-miterlimit:10;stroke-width:5px;}.cls-2{fill:#f9f9f9;}.cls-3{stroke-linecap:round;stroke-linejoin:round;stroke-width:3px;}</style></defs><title>2_circle</title><line class="cls-1" x1="407.6" y1="353.03" x2="407.6" y2="212.03"/><line class="cls-1" x1="178.59" y1="459.37" x2="384.1" y2="397.53"/><line class="cls-1" x1="435.6" y1="408.03" x2="590.6" y2="454.03"/><circle class="cls-2" cx="127.3" cy="509.26" r="125.76"/><path class="cls-3" d="M536.16,631.16a125.81,125.81,0,0,1,146.73-44" transform="translate(-510.9 -195.47)"/><path class="cls-3" d="M514.86,729.37A125.21,125.21,0,0,1,520.64,660" transform="translate(-510.9 -195.47)"/><path class="cls-3" d="M593.52,822.28a125.37,125.37,0,0,1-69.47-64.76" transform="translate(-510.9 -195.47)"/><path class="cls-3" d="M744.5,637.5a125.79,125.79,0,0,1-40.84,174.62" transform="translate(-510.9 -195.47)"/><circle class="cls-2" cx="698.3" cy="474.26" r="125.76"/><path class="cls-3" d="M1142.4,563.14a125.8,125.8,0,0,1,152.48,14.52" transform="translate(-510.9 -195.47)"/><path class="cls-3" d="M1085.66,646.09a125.14,125.14,0,0,1,31.48-62" transform="translate(-510.9 -195.47)"/><path class="cls-3" d="M1123.52,761.79a125.32,125.32,0,0,1-39.94-86.17" transform="translate(-510.9 -195.47)"/><path class="cls-3" d="M1333,647.5a125.77,125.77,0,0,1-103.61,146.37" transform="translate(-510.9 -195.47)"/><circle class="cls-2" cx="407.3" cy="127.26" r="125.76"/><path class="cls-3" d="M1011.85,238.73a125.82,125.82,0,0,1,11.67,152.73" transform="translate(-510.9 -195.47)"/><path class="cls-3" d="M920.44,197a125.15,125.15,0,0,1,66.5,20.44" transform="translate(-510.9 -195.47)"/><path class="cls-3" d="M812.88,254A125.42,125.42,0,0,1,891,199.94" transform="translate(-510.9 -195.47)"/><path class="cls-3" d="M961.21,440.92a125.78,125.78,0,0,1-161.89-77.16" transform="translate(-510.9 -195.47)"/></svg>