<svg id="Layer_1" data-name="Layer 1" xmlns="http://www.w3.org/2000/svg" viewBox="0 0 189.83 118.97"><defs><style>.cls-1{fill:#ebf5f7;}.cls-1,.cls-2{stroke:#000;stroke-miterlimit:10;stroke-width:2px;}.cls-2{fill:#f9f9f9;}.cls-3{fill:#89a6f5;}.cls-4{fill:#f53b69;}.cls-5{fill:#f5c43c;}</style></defs><title>2_computer</title><rect class="cls-1" x="12.13" y="1" width="169.04" height="103.65" rx="15.88"/><rect class="cls-2" x="19.78" y="7.63" width="153.74" height="90.4" rx="6.75"/><rect class="cls-1" x="824.17" y="387.03" width="187.83" height="8.04" rx="4.02" transform="translate(1013 505) rotate(180)"/><rect class="cls-2" x="58.32" y="50.2" width="32.17" height="42.68" rx="3.64"/><path class="cls-2" d="M874.36,327.31H857.23c-1.38,0-2.51,1.63-2.51,3.64v35.4c0,2,1.13,3.64,2.51,3.64h17.13c1.38,0,2.5-1.63,2.5-3.64V331C876.86,328.94,875.74,327.31,874.36,327.31Z" transform="translate(-823.17 -277.11)"/><circle class="cls-2" cx="108.53" cy="28" r="9.14"/><circle class="cls-2" cx="131.25" cy="28" r="9.14"/><circle class="cls-2" cx="977.14" cy="305.41" r="9.14" transform="translate(-210.96 984.81) rotate(-86.47)"/><path class="cls-3" d="M937.34,303.79a5.42,5.42,0,0,1,.23,1.57,5.88,5.88,0,1,1-11.75.05,5.88,5.88,0,0,1,5.88-5.88H932v-1.49h0a7.36,7.36,0,1,0,7.07,7.36,7.48,7.48,0,0,0-.28-2,.76.76,0,0,0-1-.48h0A.75.75,0,0,0,937.34,303.79Z" transform="translate(-823.17 -277.11)"/><path class="cls-4" d="M957.45,310.38a5.88,5.88,0,1,1-3.13-10.85h.3v-1.49h-.3a7.36,7.36,0,0,0,0,14.72,7.28,7.28,0,0,0,3.87-1.1Z" transform="translate(-823.17 -277.11)"/><path class="cls-5" d="M982.05,308.71a5.87,5.87,0,1,1-4.86-9.18h.3v-1.49h-.3a7.36,7.36,0,1,0,6.06,11.53Z" transform="translate(-823.17 -277.11)"/><path class="cls-2" d="M939.15,318.12h-14.9a1.7,1.7,0,1,0,0,3.39h14.9a1.7,1.7,0,0,0,0-3.39Z" transform="translate(-823.17 -277.11)"/><path class="cls-2" d="M961.87,318.12H947a1.7,1.7,0,0,0,0,3.39h14.9a1.7,1.7,0,0,0,0-3.39Z" transform="translate(-823.17 -277.11)"/><path class="cls-2" d="M969.7,321.51h14.89a1.7,1.7,0,1,0,0-3.39H969.7a1.7,1.7,0,1,0,0,3.39Z" transform="translate(-823.17 -277.11)"/><rect class="cls-2" x="99.38" y="47.67" width="18.29" height="13.36" rx="1.69"/><rect class="cls-2" x="122.11" y="47.67" width="18.29" height="13.36" rx="1.69"/><rect class="cls-2" x="144.83" y="47.67" width="18.29" height="13.36" rx="1.69"/><path class="cls-5" d="M884.39,350.09v13.44a3.81,3.81,0,0,0,3.8,3.81H906.6a3.91,3.91,0,0,0,3.9-3.91V343.2a1.85,1.85,0,0,0-3.23-1.24l-3.56,4a3.92,3.92,0,0,1-5.31.5l-.34-.26a3.34,3.34,0,0,0-4.22.1l-2,1.66a5.16,5.16,0,0,1-5.4.79h0A1.5,1.5,0,0,0,884.39,350.09Z" transform="translate(-823.17 -277.11)"/><rect class="cls-5" x="100.29" y="78.92" width="3.08" height="13.96"/><rect class="cls-5" x="105.44" y="83.72" width="3.08" height="9.16"/><rect class="cls-5" x="110.59" y="71.86" width="3.08" height="21.02"/><rect class="cls-5" x="115.75" y="87.83" width="3.08" height="5.05"/><rect class="cls-5" x="120.9" y="74.67" width="3.08" height="18.21"/><rect class="cls-5" x="126.06" y="77.82" width="3.08" height="15.06"/><rect class="cls-5" x="131.21" y="81.25" width="3.08" height="11.63"/><rect class="cls-5" x="136.36" y="67.61" width="3.08" height="25.27"/><rect class="cls-5" x="141.52" y="70.28" width="3.08" height="22.6"/><rect class="cls-5" x="146.67" y="74.32" width="3.08" height="18.55"/><rect class="cls-5" x="151.83" y="88.3" width="3.08" height="4.58"/><rect class="cls-5" x="156.98" y="79.4" width="3.08" height="13.48"/><path class="cls-3" d="M931.53,344.72H918a1.08,1.08,0,0,0,0,2.16h13.57a1.08,1.08,0,1,0,0-2.16Z" transform="translate(-823.17 -277.11)"/><path class="cls-3" d="M931.53,341.34H918a1.08,1.08,0,0,0,0,2.16h13.57a1.08,1.08,0,1,0,0-2.16Z" transform="translate(-823.17 -277.11)"/><path class="cls-3" d="M956,344.72H942.44a1.08,1.08,0,0,0,0,2.16H956a1.08,1.08,0,0,0,0-2.16Z" transform="translate(-823.17 -277.11)"/><path class="cls-3" d="M956,341.34H942.44a1.08,1.08,0,0,0,0,2.16H956a1.08,1.08,0,0,0,0-2.16Z" transform="translate(-823.17 -277.11)"/><rect class="cls-2" x="31.39" y="17" width="57.99" height="27.4" rx="8.33"/></svg>