<svg id="Layer_1" data-name="Layer 1" xmlns="http://www.w3.org/2000/svg" viewBox="0 0 201.64 187.97"><defs><style>.cls-1{fill:#202123;}.cls-12,.cls-2,.cls-6,.cls-9{fill:#89a6f5;}.cls-10,.cls-11,.cls-12,.cls-2,.cls-3,.cls-6{stroke:#000;}.cls-2,.cls-4,.cls-6{stroke-linecap:round;stroke-linejoin:round;}.cls-2,.cls-3,.cls-4{stroke-width:2px;}.cls-10,.cls-3{fill:#f53b69;}.cls-10,.cls-11,.cls-12,.cls-3{stroke-miterlimit:10;}.cls-4{fill:#fff;stroke:#202123;}.cls-5{fill:#00a6f7;}.cls-7{fill:#0d1c2a;}.cls-8{fill:#403d57;}.cls-11{fill:#f5c43c;}</style></defs><title>2_icons</title><path class="cls-1" d="M1153.72,625.94h0a.88.88,0,0,1-.86-.88l.41-25.89a.87.87,0,0,1,.86-.86h0a.88.88,0,0,1,.86.88l-.41,25.89A.87.87,0,0,1,1153.72,625.94Z" transform="translate(-1110.86 -576.42)"/><path class="cls-1" d="M1189.12,642.65a1.39,1.39,0,0,1-.52-.11l-34.41-15.1a1.31,1.31,0,0,1-.16-2.3l27.28-17a1.3,1.3,0,1,1,1.37,2.21l-25.18,15.68,32.15,14.1a1.31,1.31,0,0,1-.53,2.5Z" transform="translate(-1110.86 -576.42)"/><path class="cls-1" d="M1158.56,672.85a1.37,1.37,0,0,1-.65-.17L1131,657.45a1.3,1.3,0,0,1-.63-.85,1.33,1.33,0,0,1,.21-1l21.09-30.06a1.3,1.3,0,0,1,1.81-.32,1.31,1.31,0,0,1,.32,1.82l-20.27,28.89,24.73,14,11.58-14.55a1.31,1.31,0,0,1,2,1.63l-12.28,15.42A1.28,1.28,0,0,1,1158.56,672.85Z" transform="translate(-1110.86 -576.42)"/><path class="cls-1" d="M1125.91,634.33a.42.42,0,0,1-.3-.12l-12.22-11.43a.45.45,0,0,1,0-.62.44.44,0,0,1,.61,0l12,11.27,27.58-7.58a.43.43,0,0,1,.53.3.44.44,0,0,1-.3.54L1126,634.32Z" transform="translate(-1110.86 -576.42)"/><path class="cls-1" d="M1148.78,623.05a.44.44,0,0,1-.38-.22L1135.15,599a.43.43,0,1,1,.76-.42l13.25,23.84a.43.43,0,0,1-.17.59A.38.38,0,0,1,1148.78,623.05Z" transform="translate(-1110.86 -576.42)"/><path class="cls-1" d="M1146.6,625.07a.86.86,0,0,1-.41-.1l-20.74-11.1a.87.87,0,1,1,.82-1.53l20.74,11.1a.86.86,0,0,1,.35,1.17A.84.84,0,0,1,1146.6,625.07Z" transform="translate(-1110.86 -576.42)"/><circle class="cls-2" cx="41.84" cy="49.83" r="9.33"/><circle class="cls-2" cx="78.26" cy="64.92" r="5.88"/><path class="cls-2" d="M1174,656.12a3.2,3.2,0,1,1-3.21-3.19A3.21,3.21,0,0,1,1174,656.12Z" transform="translate(-1110.86 -576.42)"/><path class="cls-2" d="M1128.56,613.09a2.71,2.71,0,1,1-2.71-2.7A2.7,2.7,0,0,1,1128.56,613.09Z" transform="translate(-1110.86 -576.42)"/><circle class="cls-2" cx="19.54" cy="79.81" r="10.95"/><path class="cls-3" d="M1186.91,609.26a4.92,4.92,0,1,1-4.93-4.91A4.91,4.91,0,0,1,1186.91,609.26Z" transform="translate(-1110.86 -576.42)"/><circle class="cls-2" cx="43.27" cy="22.76" r="2.69"/><path class="cls-3" d="M1137.12,598.77a1.6,1.6,0,1,1-1.6-1.59A1.6,1.6,0,0,1,1137.12,598.77Z" transform="translate(-1110.86 -576.42)"/><circle class="cls-3" cx="2.83" cy="46.04" r="1.83"/><path class="cls-4" d="M1278.21,640.12v.62c0,1.45-7,2.62-15.6,2.62s-15.59-1.17-15.59-2.62v-9.53h31.19Z" transform="translate(-1110.86 -576.42)"/><ellipse class="cls-4" cx="151.75" cy="54.7" rx="15.89" ry="3.4"/><path class="cls-5" d="M1269.37,631.21c0,.63-3,1.14-6.76,1.14s-6.76-.51-6.76-1.14,3-1.13,6.76-1.13S1269.37,630.58,1269.37,631.21Z" transform="translate(-1110.86 -576.42)"/><path class="cls-2" d="M1272.73,632.27v.43c0,1-4.83,1.81-10.8,1.81s-10.8-.81-10.8-1.81v-6.6h21.6Z" transform="translate(-1110.86 -576.42)"/><path class="cls-4" d="M1277.53,624.15v.62c0,1.45-7,2.62-15.6,2.62s-15.59-1.17-15.59-2.62v-9.53h31.19Z" transform="translate(-1110.86 -576.42)"/><path class="cls-4" d="M1277.82,615c0,1.8-7.11,3.25-15.89,3.25s-15.88-1.45-15.88-3.25,7.11-3.26,15.88-3.26S1277.82,613.2,1277.82,615Z" transform="translate(-1110.86 -576.42)"/><ellipse class="cls-5" cx="151.08" cy="39.87" rx="6.76" ry="1.14"/><path class="cls-2" d="M1272.73,616.28v.43c0,1-4.83,1.81-10.8,1.81s-10.8-.81-10.8-1.81v-6.6h21.6Z" transform="translate(-1110.86 -576.42)"/><path class="cls-4" d="M1277.53,608.16v.62c0,1.45-7,2.62-15.6,2.62s-15.59-1.17-15.59-2.62v-9.53h31.19Z" transform="translate(-1110.86 -576.42)"/><path class="cls-4" d="M1277.82,598.86c0,1.72-7.11,3.11-15.89,3.11s-15.88-1.39-15.88-3.11,7.11-3.11,15.88-3.11S1277.82,597.14,1277.82,598.86Z" transform="translate(-1110.86 -576.42)"/><ellipse class="cls-6" cx="151.08" cy="22.83" rx="6.76" ry="1.14"/><path class="cls-4" d="M1259,659.29v.62c0,1.45-7,2.62-15.6,2.62s-15.59-1.17-15.59-2.62v-9.53H1259Z" transform="translate(-1110.86 -576.42)"/><ellipse class="cls-4" cx="132.59" cy="73.86" rx="15.89" ry="3.4"/><path class="cls-5" d="M1250.2,650.38c0,.63-3,1.13-6.75,1.13s-6.76-.5-6.76-1.13,3-1.14,6.76-1.14S1250.2,649.75,1250.2,650.38Z" transform="translate(-1110.86 -576.42)"/><path class="cls-2" d="M1253.57,651.44v.43c0,1-4.84,1.81-10.81,1.81s-10.79-.81-10.79-1.81v-6.6h21.6Z" transform="translate(-1110.86 -576.42)"/><path class="cls-4" d="M1258.36,643.32v.62c0,1.44-7,2.62-15.6,2.62s-15.59-1.18-15.59-2.62v-9.53h31.19Z" transform="translate(-1110.86 -576.42)"/><path class="cls-4" d="M1258.65,634.17c0,1.79-7.11,3.25-15.88,3.25s-15.89-1.46-15.89-3.25,7.11-3.26,15.89-3.26S1258.65,632.37,1258.65,634.17Z" transform="translate(-1110.86 -576.42)"/><ellipse class="cls-5" cx="131.91" cy="59.03" rx="6.76" ry="1.14"/><path class="cls-2" d="M1253.57,635.45v.43c0,1-4.84,1.81-10.81,1.81s-10.79-.81-10.79-1.81v-6.6h21.6Z" transform="translate(-1110.86 -576.42)"/><path class="cls-4" d="M1258.36,627.33V628c0,1.44-7,2.62-15.6,2.62s-15.59-1.18-15.59-2.62v-9.53h31.19Z" transform="translate(-1110.86 -576.42)"/><path class="cls-4" d="M1258.65,618c0,1.71-7.11,3.1-15.88,3.1s-15.89-1.39-15.89-3.1,7.11-3.11,15.89-3.11S1258.65,616.31,1258.65,618Z" transform="translate(-1110.86 -576.42)"/><ellipse class="cls-6" cx="131.91" cy="42" rx="6.76" ry="1.14"/><path class="cls-4" d="M1297.38,659.29v.62c0,1.45-7,2.62-15.61,2.62s-15.59-1.17-15.59-2.62v-9.53h31.2Z" transform="translate(-1110.86 -576.42)"/><ellipse class="cls-4" cx="170.92" cy="73.86" rx="15.89" ry="3.4"/><path class="cls-5" d="M1288.54,650.38c0,.63-3,1.13-6.76,1.13s-6.76-.5-6.76-1.13,3-1.14,6.76-1.14S1288.54,649.75,1288.54,650.38Z" transform="translate(-1110.86 -576.42)"/><path class="cls-2" d="M1291.9,651.44v.43c0,1-4.83,1.81-10.8,1.81s-10.8-.81-10.8-1.81v-6.6h21.6Z" transform="translate(-1110.86 -576.42)"/><path class="cls-4" d="M1296.7,643.32v.62c0,1.44-7,2.62-15.6,2.62s-15.6-1.18-15.6-2.62v-9.53h31.2Z" transform="translate(-1110.86 -576.42)"/><path class="cls-4" d="M1297,634.17c0,1.79-7.11,3.25-15.89,3.25s-15.89-1.46-15.89-3.25,7.12-3.26,15.89-3.26S1297,632.37,1297,634.17Z" transform="translate(-1110.86 -576.42)"/><ellipse class="cls-5" cx="170.24" cy="59.03" rx="6.76" ry="1.14"/><path class="cls-2" d="M1291.9,635.45v.43c0,1-4.83,1.81-10.8,1.81s-10.8-.81-10.8-1.81v-6.6h21.6Z" transform="translate(-1110.86 -576.42)"/><path class="cls-4" d="M1296.7,627.33V628c0,1.44-7,2.62-15.6,2.62s-15.6-1.18-15.6-2.62v-9.53h31.2Z" transform="translate(-1110.86 -576.42)"/><path class="cls-4" d="M1297,618c0,1.71-7.11,3.1-15.89,3.1s-15.89-1.39-15.89-3.1,7.12-3.11,15.89-3.11S1297,616.31,1297,618Z" transform="translate(-1110.86 -576.42)"/><ellipse class="cls-6" cx="170.24" cy="42" rx="6.76" ry="1.14"/><line class="cls-7" x1="155.42" y1="109.83" x2="163.91" y2="141.67"/><rect class="cls-8" x="1269.81" y="685.7" width="1.42" height="32.95" transform="translate(-1248.89 -225.31) rotate(-14.93)"/><line class="cls-7" x1="53.84" y1="136.92" x2="62.33" y2="168.76"/><rect class="cls-8" x="1168.23" y="712.79" width="1.42" height="32.95" transform="translate(-1259.3 -250.58) rotate(-14.93)"/><line class="cls-7" x1="117.72" y1="116.5" x2="128.46" y2="156.77"/><rect class="cls-8" x="1233.24" y="692.21" width="1.42" height="41.69" transform="translate(-1252.93 -234.37) rotate(-14.93)"/><line class="cls-7" x1="101.44" y1="123.1" x2="110.77" y2="158.1"/><rect class="cls-8" x="1216.26" y="698.91" width="1.42" height="36.23" transform="matrix(0.97, -0.26, 0.26, 0.97, -1254.53, -238.6)"/><line class="cls-7" x1="108.92" y1="118.84" x2="119.66" y2="159.12"/><rect class="cls-8" x="1224.44" y="694.56" width="1.42" height="41.69" transform="translate(-1253.84 -236.53) rotate(-14.93)"/><line class="cls-7" x1="148.81" y1="117.25" x2="155.05" y2="140.64"/><rect class="cls-8" x="1262.08" y="693.26" width="1.42" height="24.21" transform="translate(-1249.98 -227.19) rotate(-14.93)"/><line class="cls-7" x1="81.98" y1="133.94" x2="88.5" y2="158.39"/><rect class="cls-8" x="1195.39" y="709.93" width="1.42" height="25.3" transform="translate(-1256.67 -243.78) rotate(-14.93)"/><line class="cls-7" x1="73.96" y1="136.08" x2="80.2" y2="159.47"/><rect class="cls-8" x="1187.23" y="712.09" width="1.42" height="24.21" transform="translate(-1257.35 -245.85) rotate(-14.93)"/><line class="cls-7" x1="128.76" y1="122.59" x2="135" y2="145.99"/><rect class="cls-8" x="1242.03" y="698.6" width="1.42" height="24.21" transform="translate(-1252.03 -232.19) rotate(-14.93)"/><path class="cls-2" d="M1167.55,748.67a2.5,2.5,0,0,1-.15-.38,2.19,2.19,0,0,1,1.45-2.73c6-1.83,6.77-7.65,7.35-17,.56-9.08,1.2-19.36,12-22.22,8.71-2.32,15.27,5.51,21.62,13.08,6.78,8.09,13.79,16.45,23.45,13.87,10.39-2.77,12.92-13.72,15.15-23.39a84,84,0,0,1,2.2-8.3c5.56-16.29,19.39-18.58,20-18.67a2.19,2.19,0,0,1,.66,4.32c-.52.09-11.84,2.08-16.51,15.76-.78,2.28-1.41,5-2.07,7.87-2.38,10.33-5.35,23.19-18.29,26.64-12.34,3.29-20.61-6.58-27.92-15.29-6-7.12-11.12-13.27-17.15-11.67-7.19,1.91-8.09,8.18-8.71,18.27-.52,8.47-1.12,18.08-10.43,20.93A2.2,2.2,0,0,1,1167.55,748.67Z" transform="translate(-1110.86 -576.42)"/><path class="cls-4" d="M1158.44,714.48a2,2,0,0,1-.2-.53,2.17,2.17,0,0,1,1.64-2.61c9.47-2.16,14.76,5.88,19.44,13,5.56,8.44,9.45,13.43,16.62,11.52,6-1.6,7.4-9.5,9-18.64,2-11.18,4.21-23.85,16.52-27.12,12.9-3.43,21.86,6.24,29.06,14,2,2.16,3.9,4.21,5.71,5.8,10.87,9.56,21.67,5.64,22.12,5.47a2.18,2.18,0,0,1,1.58,4.07c-.56.22-13.65,5.1-26.57-6.26-2-1.74-3.94-3.87-6-6.12-6.74-7.27-14.38-15.52-24.74-12.76-9.63,2.56-11.53,13.29-13.36,23.67-1.72,9.72-3.5,19.77-12.18,22.09-10.71,2.86-16.38-5.75-21.39-13.34-5.16-7.84-8.74-12.5-14.83-11.12A2.18,2.18,0,0,1,1158.44,714.48Z" transform="translate(-1110.86 -576.42)"/><path class="cls-9" d="M1202,694.94a3.58,3.58,0,1,1,4.88-1.3A3.57,3.57,0,0,1,1202,694.94Z" transform="translate(-1110.86 -576.42)"/><path class="cls-9" d="M1190.85,763.91a3.58,3.58,0,1,1,4.88-1.31A3.59,3.59,0,0,1,1190.85,763.91Z" transform="translate(-1110.86 -576.42)"/><path class="cls-9" d="M1249.34,689.82a1.08,1.08,0,0,1-.39-1.49,1.09,1.09,0,0,1,1.49-.4,1.11,1.11,0,0,1,.4,1.5A1.09,1.09,0,0,1,1249.34,689.82Z" transform="translate(-1110.86 -576.42)"/><path class="cls-9" d="M1211.62,749.59a1.09,1.09,0,1,1,1.49-.39A1.08,1.08,0,0,1,1211.62,749.59Z" transform="translate(-1110.86 -576.42)"/><path class="cls-9" d="M1260.08,678.39a1.08,1.08,0,0,1-.39-1.49,1.09,1.09,0,0,1,1.89,1.09A1.11,1.11,0,0,1,1260.08,678.39Z" transform="translate(-1110.86 -576.42)"/><path class="cls-9" d="M1250.15,677.65a1.64,1.64,0,1,1,2.24-.6A1.65,1.65,0,0,1,1250.15,677.65Z" transform="translate(-1110.86 -576.42)"/><path class="cls-9" d="M1199.43,703.39a1.64,1.64,0,1,1,2.24-.6A1.64,1.64,0,0,1,1199.43,703.39Z" transform="translate(-1110.86 -576.42)"/><path class="cls-9" d="M1194.56,751.39a1.64,1.64,0,1,1,2.24-.6A1.65,1.65,0,0,1,1194.56,751.39Z" transform="translate(-1110.86 -576.42)"/><path class="cls-9" d="M1179,758.3a1.09,1.09,0,1,1,1.49-.4A1.09,1.09,0,0,1,1179,758.3Z" transform="translate(-1110.86 -576.42)"/><path class="cls-9" d="M1213.17,679.56a1.1,1.1,0,0,1,1.1-1.9,1.1,1.1,0,0,1-1.1,1.9Z" transform="translate(-1110.86 -576.42)"/><path d="M1220,666.39h-2.87v-2.87a.43.43,0,1,0-.86,0v2.87h-2.87a.43.43,0,0,0,0,.86h2.87v2.87a.43.43,0,1,0,.86,0v-2.87H1220a.43.43,0,1,0,0-.86Z" transform="translate(-1110.86 -576.42)"/><circle class="cls-10" cx="25.11" cy="110.23" r="4.1"/><circle class="cls-11" cx="196.53" cy="112.35" r="4.61"/><circle class="cls-12" cx="98.42" cy="5.42" r="4.92"/></svg>