<svg id="Layer_1" data-name="Layer 1" xmlns="http://www.w3.org/2000/svg" viewBox="0 0 490.63 475.56"><defs><style>.cls-1,.cls-13,.cls-16{fill:#fff;}.cls-2{fill:#64c3d9;}.cls-17,.cls-19,.cls-3{fill:none;}.cls-13,.cls-14,.cls-16,.cls-19,.cls-3{stroke:#202123;}.cls-13,.cls-17,.cls-19,.cls-3{stroke-linecap:round;}.cls-19,.cls-3{stroke-linejoin:round;}.cls-3{stroke-width:3px;}.cls-4{fill:#dce4e5;}.cls-5{font-size:20px;}.cls-10,.cls-12,.cls-15,.cls-20,.cls-21,.cls-5,.cls-9{fill:#231f20;}.cls-15,.cls-5{font-family:NotoSansCJKkr-Bold-KSCpc-EUC-H, Noto Sans CJK KR;}.cls-6{letter-spacing:-0.16em;}.cls-7{letter-spacing:0em;}.cls-8{fill:#ebf5f7;}.cls-9{font-size:16.17px;}.cls-10,.cls-12,.cls-9{font-family:NotoSansCJKkr-Medium-KSCpc-EUC-H, Noto Sans CJK KR;}.cls-10{font-size:13.68px;}.cls-11{fill:#b8c0c1;}.cls-12{font-size:9.85px;}.cls-13,.cls-14,.cls-16,.cls-17{stroke-miterlimit:10;}.cls-14{fill:#89a6f5;}.cls-14,.cls-16,.cls-19{stroke-width:1.5px;}.cls-15{font-size:14px;}.cls-17{stroke:#f53b69;stroke-width:2px;}.cls-18{fill:#dfe9ea;}.cls-20{font-size:14.68px;}.cls-20,.cls-21{font-family:NotoSansCJKkr-Regular-KSCpc-EUC-H, Noto Sans CJK KR;}.cls-21{font-size:10px;}</style></defs><title>2_popup</title><rect class="cls-1" x="1.5" y="1.5" width="487.63" height="472.56" rx="9.21"/><path class="cls-2" d="M12.35,1.14H479.9a9.22,9.22,0,0,1,9.22,9.22V61.14a0,0,0,0,1,0,0H3.13a0,0,0,0,1,0,0V10.36A9.22,9.22,0,0,1,12.35,1.14Z"/><rect class="cls-3" x="1.5" y="1.5" width="487.63" height="472.56" rx="9.69"/><path class="cls-4" d="M933.32,288.89h220.34V258.44c0-5.16,4.69-9.35,9.95-9.35h205.62a9.45,9.45,0,0,1,9.53,9.35V586a5.06,5.06,0,0,1-4.75,5.06H933.32a5.06,5.06,0,0,1-4.76-5.06V292.73C928.56,290.16,930.69,288.89,933.32,288.89Z" transform="translate(-908.87 -173.86)"/><text class="cls-5" transform="translate(188.17 39.49)">개인<tspan class="cls-6" x="36.8" y="0"> </tspan><tspan class="cls-7" x="39.2" y="0">알림설정</tspan></text><path class="cls-8" d="M1374,288.89H1153.66V258.44c0-5.16-4.68-9.35-10-9.35H938.1a9.45,9.45,0,0,0-9.54,9.35V586a5.06,5.06,0,0,0,4.76,5.06H1374a5.06,5.06,0,0,0,4.75-5.06V292.73C1378.76,290.16,1376.63,288.89,1374,288.89Z" transform="translate(-908.87 -173.86)"/><text class="cls-9" transform="translate(96.66 101.44)">알림설정</text><text class="cls-10" transform="translate(94.93 215.86)">채널알람설정</text><text class="cls-10" transform="translate(97.06 278.04)">DM알람설정</text><text class="cls-10" transform="translate(307.65 278.04)">DM알람설정</text><text class="cls-9" transform="translate(313.42 101.44)">개인환경설정</text><rect class="cls-11" x="103.21" y="131.02" width="64.08" height="44.06" rx="2.28"/><rect class="cls-8" x="107.25" y="136.11" width="55.5" height="33.89" rx="1.01"/><rect class="cls-11" x="123.02" y="173.22" width="24.6" height="6.81"/><path class="cls-11" d="M112.76,178.13H158.5a2.86,2.86,0,0,1,2.86,2.86v4.71a0,0,0,0,1,0,0H109.9a0,0,0,0,1,0,0V181a2.86,2.86,0,0,1,2.86-2.86Z"/><rect class="cls-11" x="326.18" y="130.32" width="33.23" height="54.93" rx="2.22"/><rect class="cls-8" x="329.53" y="137.42" width="26.53" height="41.54" rx="0.54"/><rect class="cls-8" x="336.11" y="133.37" width="13.37" height="1.71" rx="0.44"/><circle class="cls-8" cx="342.61" cy="182.44" r="1.71"/><text class="cls-9" transform="translate(205.54 342.39)">알람거부시간</text><text class="cls-10" transform="translate(305.49 215.86)">채널알람설정</text><text class="cls-12" transform="translate(310.54 238.24)">메세지</text><text class="cls-12" transform="translate(360.65 238.24)">시스템</text><rect class="cls-13" x="298.74" y="229.83" width="8.43" height="8.69" rx="0.38"/><rect class="cls-13" x="348.29" y="229.83" width="8.43" height="8.69" rx="0.33"/><text class="cls-12" transform="translate(335.69 294.56)">메세지</text><rect class="cls-13" x="323.71" y="286.14" width="8.43" height="8.69" rx="0.46"/><rect class="cls-14" x="417.48" y="430" width="52.59" height="24.76" rx="2.5"/><text class="cls-15" transform="translate(430.06 448.13)">저장</text><rect class="cls-16" x="359.16" y="430" width="52.59" height="24.76" rx="2.5"/><text class="cls-15" transform="translate(371.74 448.13)">취소</text><text class="cls-12" transform="translate(99.22 238.24)">메세지</text><text class="cls-12" transform="translate(149.32 238.24)">시스템</text><rect class="cls-13" x="88.41" y="229.83" width="8.43" height="8.69" rx="0.38"/><rect class="cls-13" x="137.96" y="229.83" width="8.43" height="8.69" rx="0.33"/><polyline class="cls-17" points="98.13 227.07 92.67 234.89 90.57 232.02"/><polyline class="cls-17" points="308.44 228.31 302.97 236.13 300.88 233.26"/><polyline class="cls-17" points="358.56 228.31 353.1 236.13 351 233.26"/><text class="cls-12" transform="translate(127.11 295.89)">메세지</text><rect class="cls-13" x="115.13" y="287.48" width="8.43" height="8.69" rx="0.46"/><polyline class="cls-17" points="124.32 285.52 118.86 293.34 116.76 290.47"/><rect class="cls-18" x="133.76" y="353.77" width="45.7" height="21.41" rx="3.5"/><polyline class="cls-19" points="166.53 363.32 170.47 367.26 174.29 363.32"/><rect class="cls-18" x="191.16" y="353.77" width="45.7" height="21.41" rx="3.5"/><polyline class="cls-19" points="223.93 363.32 227.87 367.26 231.69 363.32"/><text class="cls-20" transform="translate(182.68 369.26)">:</text><rect class="cls-18" x="261.9" y="353.77" width="45.7" height="21.41" rx="3.5"/><polyline class="cls-19" points="294.67 363.32 298.61 367.26 302.43 363.32"/><rect class="cls-18" x="319.29" y="353.77" width="45.7" height="21.41" rx="3.5"/><polyline class="cls-19" points="352.06 363.32 356 367.26 359.82 363.32"/><text class="cls-20" transform="translate(310.81 369.26)">:</text><text class="cls-20" transform="translate(243.08 370.26)">~</text><text class="cls-20" transform="translate(141.31 370.04)">00</text><text class="cls-20" transform="translate(198.03 370.04)">00</text><text class="cls-20" transform="translate(268.44 370.04)">00</text><text class="cls-20" transform="translate(326.5 370.04)">00</text><text class="cls-21" transform="translate(146.31 392.94)">월</text><text class="cls-21" transform="translate(181.52 392.94)">화</text><text class="cls-21" transform="translate(216.73 392.94)">수</text><text class="cls-21" transform="translate(251.94 392.94)">목</text><text class="cls-21" transform="translate(287.15 392.94)">금</text><text class="cls-21" transform="translate(322.36 392.94)">토</text><text class="cls-21" transform="translate(357.57 392.94)">일</text><rect class="cls-13" x="135.32" y="384.53" width="8.44" height="8.7" rx="0.33"/><rect class="cls-13" x="170.7" y="384.53" width="8.44" height="8.7" rx="0.23"/><rect class="cls-13" x="205.36" y="384.53" width="8.44" height="8.7" rx="0.3"/><rect class="cls-13" x="240.58" y="384.53" width="8.44" height="8.7" rx="0.3"/><rect class="cls-13" x="276.18" y="384.53" width="8.44" height="8.7" rx="0.3"/><rect class="cls-13" x="311.29" y="384.53" width="8.44" height="8.7" rx="0.23"/><rect class="cls-13" x="346.84" y="384.53" width="8.44" height="8.7" rx="0.27"/></svg>