<svg id="Layer_1" data-name="Layer 1" xmlns="http://www.w3.org/2000/svg" viewBox="0 0 315.81 272.56"><defs><style>.cls-1{fill:#fff;}.cls-2{fill:none;}.cls-2,.cls-3,.cls-5{stroke:#202123;stroke-linecap:round;stroke-linejoin:round;}.cls-2,.cls-3,.cls-4,.cls-5{stroke-width:3px;}.cls-3{fill:#89a6f5;}.cls-4{fill:#f53b69;stroke:#000;stroke-miterlimit:10;}.cls-5{fill:#33b0ef;}</style></defs><title>3_alrambg</title><path class="cls-1" d="M646.23,111.37a134.35,134.35,0,0,1,208.6,117.19l4.18,3.31,37.85,29.95L852,276.51l-9.17,2.77A134.46,134.46,0,1,1,646.23,111.37Z" transform="translate(-582.55 -88.97)"/><path class="cls-2" d="M618.61,137.66a134.54,134.54,0,0,0,176.23,200s17.86-12.17,29.33-28.44" transform="translate(-582.55 -88.97)"/><path class="cls-2" d="M646.23,113.37a134.35,134.35,0,0,1,208.6,117.19l4.18,3.31,37.85,29.95L852,278.51l-9.17,2.77" transform="translate(-582.55 -88.97)"/><path class="cls-3" d="M836.67,136.67H805.32c-4.66,0-8.12,3.06-8.12,7.72v18.09a8.77,8.77,0,0,0,8,8.42v11.27l11-10.5h20.5c4.66,0,8.53-4.53,8.53-9.19V144.39C845.2,139.73,841.33,136.67,836.67,136.67Z" transform="translate(-582.55 -88.97)"/><line class="cls-2" x1="229.6" y1="59.44" x2="247.69" y2="59.44"/><line class="cls-2" x1="229.6" y1="67.88" x2="247.69" y2="67.88"/><rect class="cls-1" x="584.05" y="258.15" width="48.98" height="35.04" rx="6" transform="translate(634.53 462.37) rotate(-180)"/><rect class="cls-4" x="584.05" y="258.15" width="48.98" height="35.04" rx="6" transform="translate(634.53 462.37) rotate(-180)"/><polyline class="cls-2" points="43.51 176.9 26.55 191.5 9.04 177.28"/><line class="cls-5" x1="36.54" y1="189.43" x2="44.17" y2="196.87"/><line class="cls-5" x1="16.01" y1="189.43" x2="8.38" y2="197.53"/></svg>