<svg id="Layer_1" data-name="Layer 1" xmlns="http://www.w3.org/2000/svg" viewBox="0 0 590.02 486"><defs><style>.cls-1{fill:#f9f9f9;stroke:#000;stroke-width:2px;}.cls-1,.cls-29{stroke-miterlimit:10;}.cls-2{fill:#ebf5f7;}.cls-3{fill:#202123;}.cls-11,.cls-4{font-size:8.55px;font-family:NotoSansCJKkr-DemiLight-KSCpc-EUC-H, Noto Sans CJK KR;}.cls-11,.cls-5{letter-spacing:-0.01em;}.cls-6{letter-spacing:-0.03em;}.cls-7{letter-spacing:-0.01em;}.cls-8{letter-spacing:-0.04em;}.cls-9{letter-spacing:-0.06em;}.cls-10{letter-spacing:0em;}.cls-12{letter-spacing:0em;}.cls-13{letter-spacing:-0.02em;}.cls-14{letter-spacing:-0.02em;}.cls-15{letter-spacing:-0.03em;}.cls-16{letter-spacing:-0.02em;}.cls-17{letter-spacing:-0.02em;}.cls-18{letter-spacing:-0.02em;}.cls-19{letter-spacing:-0.02em;}.cls-20{letter-spacing:-0.01em;}.cls-21{letter-spacing:-0.02em;}.cls-22{letter-spacing:-0.03em;}.cls-23{letter-spacing:0.02em;}.cls-24{letter-spacing:-0.03em;}.cls-25{letter-spacing:0em;}.cls-26{letter-spacing:-0.01em;}.cls-27{letter-spacing:0em;}.cls-28{letter-spacing:-0.02em;}.cls-29{fill:#f5c43c;stroke:#202123;stroke-width:3px;}</style></defs><title>2_tool</title><rect class="cls-1" x="152.02" y="1" width="437" height="484" rx="20"/><rect class="cls-2" x="168.61" y="25.5" width="199.53" height="31.04" rx="4.42"/><path class="cls-3" d="M1216.2,286a3.43,3.43,0,0,1,3.43,3.42v22.19a3.44,3.44,0,0,1-3.43,3.43H1025.51a3.43,3.43,0,0,1-3.42-3.43V289.42a3.42,3.42,0,0,1,3.42-3.42H1216.2m0-2H1025.51a5.42,5.42,0,0,0-5.42,5.42v22.19a5.43,5.43,0,0,0,5.42,5.43H1216.2a5.43,5.43,0,0,0,5.43-5.43V289.42a5.43,5.43,0,0,0-5.43-5.42Z" transform="translate(-852.48 -259.5)"/><rect class="cls-2" x="168.61" y="65.15" width="50.86" height="65.18" rx="4.42"/><path class="cls-3" d="M1067.53,325.65a3.42,3.42,0,0,1,3.42,3.42V385.4a3.42,3.42,0,0,1-3.42,3.42h-42a3.42,3.42,0,0,1-3.42-3.42V329.07a3.42,3.42,0,0,1,3.42-3.42h42m0-2h-42a5.42,5.42,0,0,0-5.42,5.42V385.4a5.42,5.42,0,0,0,5.42,5.42h42a5.41,5.41,0,0,0,5.42-5.42V329.07a5.41,5.41,0,0,0-5.42-5.42Z" transform="translate(-852.48 -259.5)"/><rect class="cls-2" x="168.61" y="138.93" width="50.86" height="50.86" rx="4.42"/><path class="cls-3" d="M1067.53,399.43a3.42,3.42,0,0,1,3.42,3.42v42a3.42,3.42,0,0,1-3.42,3.42h-42a3.42,3.42,0,0,1-3.42-3.42v-42a3.43,3.43,0,0,1,3.42-3.42h42m0-2h-42a5.42,5.42,0,0,0-5.42,5.42v42a5.42,5.42,0,0,0,5.42,5.42h42a5.41,5.41,0,0,0,5.42-5.42v-42a5.42,5.42,0,0,0-5.42-5.42Z" transform="translate(-852.48 -259.5)"/><rect class="cls-2" x="517.72" y="138.93" width="56.37" height="50.86" rx="4.42"/><path class="cls-3" d="M1422.14,399.43a3.43,3.43,0,0,1,3.43,3.42v42a3.43,3.43,0,0,1-3.43,3.42h-47.52a3.42,3.42,0,0,1-3.42-3.42v-42a3.42,3.42,0,0,1,3.42-3.42h47.52m0-2h-47.52a5.42,5.42,0,0,0-5.42,5.42v42a5.41,5.41,0,0,0,5.42,5.42h47.52a5.42,5.42,0,0,0,5.43-5.42v-42a5.43,5.43,0,0,0-5.43-5.42Z" transform="translate(-852.48 -259.5)"/><rect class="cls-2" x="517.72" y="198.4" width="56.37" height="39.85" rx="4.42"/><path class="cls-3" d="M1422.14,458.9a3.43,3.43,0,0,1,3.43,3.42v31a3.43,3.43,0,0,1-3.43,3.42h-47.52a3.42,3.42,0,0,1-3.42-3.42v-31a3.42,3.42,0,0,1,3.42-3.42h47.52m0-2h-47.52a5.42,5.42,0,0,0-5.42,5.42v31a5.42,5.42,0,0,0,5.42,5.42h47.52a5.43,5.43,0,0,0,5.43-5.42v-31a5.43,5.43,0,0,0-5.43-5.42Z" transform="translate(-852.48 -259.5)"/><rect class="cls-2" x="517.72" y="246.86" width="56.37" height="39.85" rx="4.42"/><path class="cls-3" d="M1422.14,507.36a3.43,3.43,0,0,1,3.43,3.42v31a3.44,3.44,0,0,1-3.43,3.43h-47.52a3.43,3.43,0,0,1-3.42-3.43v-31a3.42,3.42,0,0,1,3.42-3.42h47.52m0-2h-47.52a5.41,5.41,0,0,0-5.42,5.42v31a5.42,5.42,0,0,0,5.42,5.43h47.52a5.43,5.43,0,0,0,5.43-5.43v-31a5.42,5.42,0,0,0-5.43-5.42Z" transform="translate(-852.48 -259.5)"/><rect class="cls-2" x="517.72" y="294.21" width="56.37" height="55.27" rx="4.42"/><path class="cls-3" d="M1422.14,554.71a3.43,3.43,0,0,1,3.43,3.42v46.43a3.43,3.43,0,0,1-3.43,3.42h-47.52a3.42,3.42,0,0,1-3.42-3.42V558.13a3.42,3.42,0,0,1,3.42-3.42h47.52m0-2h-47.52a5.42,5.42,0,0,0-5.42,5.42v46.43a5.42,5.42,0,0,0,5.42,5.42h47.52a5.43,5.43,0,0,0,5.43-5.42V558.13a5.43,5.43,0,0,0-5.43-5.42Z" transform="translate(-852.48 -259.5)"/><rect class="cls-2" x="168.61" y="199.5" width="50.86" height="149.98" rx="4.42"/><path class="cls-3" d="M1067.53,460a3.42,3.42,0,0,1,3.42,3.42V604.56a3.42,3.42,0,0,1-3.42,3.42h-42a3.43,3.43,0,0,1-3.42-3.42V463.42a3.43,3.43,0,0,1,3.42-3.42h42m0-2h-42a5.42,5.42,0,0,0-5.42,5.42V604.56a5.42,5.42,0,0,0,5.42,5.42h42a5.42,5.42,0,0,0,5.42-5.42V463.42a5.42,5.42,0,0,0-5.42-5.42Z" transform="translate(-852.48 -259.5)"/><rect class="cls-2" x="517.72" y="65.15" width="56.37" height="65.18" rx="4.42"/><path class="cls-3" d="M1422.14,325.65a3.43,3.43,0,0,1,3.43,3.42V385.4a3.43,3.43,0,0,1-3.43,3.42h-47.52a3.42,3.42,0,0,1-3.42-3.42V329.07a3.42,3.42,0,0,1,3.42-3.42h47.52m0-2h-47.52a5.41,5.41,0,0,0-5.42,5.42V385.4a5.41,5.41,0,0,0,5.42,5.42h47.52a5.42,5.42,0,0,0,5.43-5.42V329.07a5.42,5.42,0,0,0-5.43-5.42Z" transform="translate(-852.48 -259.5)"/><rect class="cls-2" x="229.18" y="65.15" width="87.2" height="65.18" rx="4.42"/><path class="cls-3" d="M1164.44,325.65a3.43,3.43,0,0,1,3.43,3.42V385.4a3.43,3.43,0,0,1-3.43,3.42h-78.36a3.42,3.42,0,0,1-3.42-3.42V329.07a3.42,3.42,0,0,1,3.42-3.42h78.36m0-2h-78.36a5.42,5.42,0,0,0-5.42,5.42V385.4a5.42,5.42,0,0,0,5.42,5.42h78.36a5.42,5.42,0,0,0,5.43-5.42V329.07a5.42,5.42,0,0,0-5.43-5.42Z" transform="translate(-852.48 -259.5)"/><rect class="cls-2" x="229.18" y="138.93" width="87.2" height="31.04" rx="4.42"/><path class="cls-3" d="M1164.44,399.43a3.43,3.43,0,0,1,3.43,3.42v22.2a3.43,3.43,0,0,1-3.43,3.42h-78.36a3.42,3.42,0,0,1-3.42-3.42v-22.2a3.43,3.43,0,0,1,3.42-3.42h78.36m0-2h-78.36a5.42,5.42,0,0,0-5.42,5.42v22.2a5.42,5.42,0,0,0,5.42,5.42h78.36a5.43,5.43,0,0,0,5.43-5.42v-22.2a5.43,5.43,0,0,0-5.43-5.42Z" transform="translate(-852.48 -259.5)"/><rect class="cls-2" x="229.18" y="179.68" width="87.2" height="37.65" rx="4.42"/><path class="cls-3" d="M1164.44,440.18a3.43,3.43,0,0,1,3.43,3.42v28.8a3.44,3.44,0,0,1-3.43,3.43h-78.36a3.43,3.43,0,0,1-3.42-3.43V443.6a3.42,3.42,0,0,1,3.42-3.42h78.36m0-2h-78.36a5.42,5.42,0,0,0-5.42,5.42v28.8a5.43,5.43,0,0,0,5.42,5.43h78.36a5.43,5.43,0,0,0,5.43-5.43V443.6a5.43,5.43,0,0,0-5.43-5.42Z" transform="translate(-852.48 -259.5)"/><rect class="cls-2" x="229.18" y="228.14" width="87.2" height="37.65" rx="4.42"/><path class="cls-3" d="M1164.44,488.64a3.43,3.43,0,0,1,3.43,3.42v28.8a3.43,3.43,0,0,1-3.43,3.42h-78.36a3.42,3.42,0,0,1-3.42-3.42v-28.8a3.42,3.42,0,0,1,3.42-3.42h78.36m0-2h-78.36a5.42,5.42,0,0,0-5.42,5.42v28.8a5.42,5.42,0,0,0,5.42,5.42h78.36a5.43,5.43,0,0,0,5.43-5.42v-28.8a5.42,5.42,0,0,0-5.43-5.42Z" transform="translate(-852.48 -259.5)"/><rect class="cls-2" x="229.18" y="275.49" width="87.2" height="32.14" rx="4.42"/><path class="cls-3" d="M1164.44,536a3.43,3.43,0,0,1,3.43,3.42v23.3a3.43,3.43,0,0,1-3.43,3.42h-78.36a3.43,3.43,0,0,1-3.42-3.42v-23.3a3.43,3.43,0,0,1,3.42-3.42h78.36m0-2h-78.36a5.42,5.42,0,0,0-5.42,5.42v23.3a5.42,5.42,0,0,0,5.42,5.42h78.36a5.43,5.43,0,0,0,5.43-5.42v-23.3a5.43,5.43,0,0,0-5.43-5.42Z" transform="translate(-852.48 -259.5)"/><rect class="cls-2" x="326.1" y="138.93" width="87.2" height="31.04" rx="4.42"/><path class="cls-3" d="M1261.36,399.43a3.43,3.43,0,0,1,3.42,3.42v22.2a3.42,3.42,0,0,1-3.42,3.42H1183a3.43,3.43,0,0,1-3.43-3.42v-22.2a3.43,3.43,0,0,1,3.43-3.42h78.36m0-2H1183a5.43,5.43,0,0,0-5.43,5.42v22.2a5.43,5.43,0,0,0,5.43,5.42h78.36a5.42,5.42,0,0,0,5.42-5.42v-22.2a5.42,5.42,0,0,0-5.42-5.42Z" transform="translate(-852.48 -259.5)"/><rect class="cls-2" x="326.1" y="179.68" width="87.2" height="37.65" rx="4.42"/><path class="cls-3" d="M1261.36,440.18a3.42,3.42,0,0,1,3.42,3.42v28.8a3.43,3.43,0,0,1-3.42,3.43H1183a3.44,3.44,0,0,1-3.43-3.43V443.6a3.43,3.43,0,0,1,3.43-3.42h78.36m0-2H1183a5.43,5.43,0,0,0-5.43,5.42v28.8a5.43,5.43,0,0,0,5.43,5.43h78.36a5.43,5.43,0,0,0,5.42-5.43V443.6a5.42,5.42,0,0,0-5.42-5.42Z" transform="translate(-852.48 -259.5)"/><rect class="cls-2" x="326.1" y="228.14" width="87.2" height="37.65" rx="4.42"/><path class="cls-3" d="M1261.36,488.64a3.42,3.42,0,0,1,3.42,3.42v28.8a3.42,3.42,0,0,1-3.42,3.42H1183a3.43,3.43,0,0,1-3.43-3.42v-28.8a3.43,3.43,0,0,1,3.43-3.42h78.36m0-2H1183a5.42,5.42,0,0,0-5.43,5.42v28.8a5.43,5.43,0,0,0,5.43,5.42h78.36a5.42,5.42,0,0,0,5.42-5.42v-28.8a5.42,5.42,0,0,0-5.42-5.42Z" transform="translate(-852.48 -259.5)"/><rect class="cls-2" x="326.1" y="275.49" width="87.2" height="32.14" rx="4.42"/><path class="cls-3" d="M1261.36,536a3.43,3.43,0,0,1,3.42,3.42v23.3a3.43,3.43,0,0,1-3.42,3.42H1183a3.43,3.43,0,0,1-3.43-3.42v-23.3A3.43,3.43,0,0,1,1183,536h78.36m0-2H1183a5.43,5.43,0,0,0-5.43,5.42v23.3a5.43,5.43,0,0,0,5.43,5.42h78.36a5.42,5.42,0,0,0,5.42-5.42v-23.3a5.42,5.42,0,0,0-5.42-5.42Z" transform="translate(-852.48 -259.5)"/><rect class="cls-2" x="423.01" y="138.93" width="87.2" height="31.04" rx="4.42"/><path class="cls-3" d="M1358.27,399.43a3.42,3.42,0,0,1,3.42,3.42v22.2a3.42,3.42,0,0,1-3.42,3.42h-78.36a3.42,3.42,0,0,1-3.42-3.42v-22.2a3.42,3.42,0,0,1,3.42-3.42h78.36m0-2h-78.36a5.42,5.42,0,0,0-5.42,5.42v22.2a5.42,5.42,0,0,0,5.42,5.42h78.36a5.42,5.42,0,0,0,5.42-5.42v-22.2a5.42,5.42,0,0,0-5.42-5.42Z" transform="translate(-852.48 -259.5)"/><rect class="cls-2" x="423.01" y="179.68" width="87.2" height="37.65" rx="4.42"/><path class="cls-3" d="M1358.27,440.18a3.42,3.42,0,0,1,3.42,3.42v28.8a3.43,3.43,0,0,1-3.42,3.43h-78.36a3.43,3.43,0,0,1-3.42-3.43V443.6a3.42,3.42,0,0,1,3.42-3.42h78.36m0-2h-78.36a5.42,5.42,0,0,0-5.42,5.42v28.8a5.42,5.42,0,0,0,5.42,5.43h78.36a5.43,5.43,0,0,0,5.42-5.43V443.6a5.42,5.42,0,0,0-5.42-5.42Z" transform="translate(-852.48 -259.5)"/><rect class="cls-2" x="423.01" y="228.14" width="87.2" height="37.65" rx="4.42"/><path class="cls-3" d="M1358.27,488.64a3.42,3.42,0,0,1,3.42,3.42v28.8a3.42,3.42,0,0,1-3.42,3.42h-78.36a3.42,3.42,0,0,1-3.42-3.42v-28.8a3.42,3.42,0,0,1,3.42-3.42h78.36m0-2h-78.36a5.41,5.41,0,0,0-5.42,5.42v28.8a5.42,5.42,0,0,0,5.42,5.42h78.36a5.42,5.42,0,0,0,5.42-5.42v-28.8a5.42,5.42,0,0,0-5.42-5.42Z" transform="translate(-852.48 -259.5)"/><rect class="cls-2" x="423.01" y="275.49" width="87.2" height="32.14" rx="4.42"/><path class="cls-3" d="M1358.27,536a3.42,3.42,0,0,1,3.42,3.42v23.3a3.42,3.42,0,0,1-3.42,3.42h-78.36a3.42,3.42,0,0,1-3.42-3.42v-23.3a3.42,3.42,0,0,1,3.42-3.42h78.36m0-2h-78.36a5.42,5.42,0,0,0-5.42,5.42v23.3a5.42,5.42,0,0,0,5.42,5.42h78.36a5.42,5.42,0,0,0,5.42-5.42v-23.3a5.42,5.42,0,0,0-5.42-5.42Z" transform="translate(-852.48 -259.5)"/><rect class="cls-2" x="229.18" y="317.34" width="281.03" height="32.14" rx="4.42"/><path class="cls-3" d="M1358.27,577.84a3.42,3.42,0,0,1,3.42,3.42v23.3a3.42,3.42,0,0,1-3.42,3.42H1086.08a3.43,3.43,0,0,1-3.42-3.42v-23.3a3.42,3.42,0,0,1,3.42-3.42h272.19m0-2H1086.08a5.42,5.42,0,0,0-5.42,5.42v23.3a5.42,5.42,0,0,0,5.42,5.42h272.19a5.42,5.42,0,0,0,5.42-5.42v-23.3a5.42,5.42,0,0,0-5.42-5.42Z" transform="translate(-852.48 -259.5)"/><rect class="cls-2" x="167.61" y="380.02" width="96.26" height="20.16" rx="9.06"/><path class="cls-3" d="M1107.29,640.52a8.07,8.07,0,0,1,8.06,8.06v2a8.07,8.07,0,0,1-8.06,8.06h-78.14a8.07,8.07,0,0,1-8.06-8.06v-2a8.07,8.07,0,0,1,8.06-8.06h78.14m0-2h-78.14a10.05,10.05,0,0,0-10.06,10.06v2a10.05,10.05,0,0,0,10.06,10.06h78.14a10.06,10.06,0,0,0,10.06-10.06v-2a10.06,10.06,0,0,0-10.06-10.06Z" transform="translate(-852.48 -259.5)"/><rect class="cls-2" x="271.68" y="380.11" width="96.26" height="20.16" rx="9.06"/><path class="cls-3" d="M1211.36,640.61a8.07,8.07,0,0,1,8.06,8.06v2a8.07,8.07,0,0,1-8.06,8.06h-78.14a8.07,8.07,0,0,1-8.06-8.06v-2a8.07,8.07,0,0,1,8.06-8.06h78.14m0-2h-78.14a10.07,10.07,0,0,0-10.06,10.06v2a10.07,10.07,0,0,0,10.06,10.06h78.14a10.06,10.06,0,0,0,10.06-10.06v-2a10.06,10.06,0,0,0-10.06-10.06Z" transform="translate(-852.48 -259.5)"/><rect class="cls-2" x="374.76" y="380.11" width="96.26" height="20.16" rx="9.06"/><path class="cls-3" d="M1314.43,640.61a8.07,8.07,0,0,1,8.06,8.06v2a8.07,8.07,0,0,1-8.06,8.06H1236.3a8.07,8.07,0,0,1-8.06-8.06v-2a8.07,8.07,0,0,1,8.06-8.06h78.13m0-2H1236.3a10.06,10.06,0,0,0-10.06,10.06v2a10.06,10.06,0,0,0,10.06,10.06h78.13a10.06,10.06,0,0,0,10.06-10.06v-2a10.06,10.06,0,0,0-10.06-10.06Z" transform="translate(-852.48 -259.5)"/><rect class="cls-2" x="477.83" y="380.11" width="96.26" height="20.16" rx="9.06"/><path class="cls-3" d="M1417.51,640.61a8.07,8.07,0,0,1,8.06,8.06v2a8.07,8.07,0,0,1-8.06,8.06h-78.14a8.07,8.07,0,0,1-8.06-8.06v-2a8.07,8.07,0,0,1,8.06-8.06h78.14m0-2h-78.14a10.06,10.06,0,0,0-10.06,10.06v2a10.06,10.06,0,0,0,10.06,10.06h78.14a10.07,10.07,0,0,0,10.06-10.06v-2a10.07,10.07,0,0,0-10.06-10.06Z" transform="translate(-852.48 -259.5)"/><rect class="cls-2" x="326.1" y="65.15" width="184.12" height="28.84" rx="4.42"/><path class="cls-3" d="M1358.27,325.65a3.42,3.42,0,0,1,3.42,3.42v20a3.42,3.42,0,0,1-3.42,3.42H1183a3.43,3.43,0,0,1-3.43-3.42v-20a3.43,3.43,0,0,1,3.43-3.42h175.27m0-2H1183a5.42,5.42,0,0,0-5.43,5.42v20a5.43,5.43,0,0,0,5.43,5.42h175.27a5.42,5.42,0,0,0,5.42-5.42v-20a5.42,5.42,0,0,0-5.42-5.42Z" transform="translate(-852.48 -259.5)"/><rect class="cls-2" x="326.1" y="101.49" width="184.12" height="28.84" rx="4.42"/><path class="cls-3" d="M1358.27,362a3.42,3.42,0,0,1,3.42,3.42v20a3.42,3.42,0,0,1-3.42,3.42H1183a3.43,3.43,0,0,1-3.43-3.42v-20A3.43,3.43,0,0,1,1183,362h175.27m0-2H1183a5.43,5.43,0,0,0-5.43,5.42v20a5.42,5.42,0,0,0,5.43,5.42h175.27a5.42,5.42,0,0,0,5.42-5.42v-20a5.42,5.42,0,0,0-5.42-5.42Z" transform="translate(-852.48 -259.5)"/><rect class="cls-2" x="374.55" y="25.5" width="199.53" height="31.04" rx="4.42"/><path class="cls-3" d="M1422.14,286a3.43,3.43,0,0,1,3.43,3.42v22.2a3.43,3.43,0,0,1-3.43,3.42H1231.45a3.43,3.43,0,0,1-3.42-3.42v-22.2a3.43,3.43,0,0,1,3.42-3.42h190.69m0-2H1231.45a5.42,5.42,0,0,0-5.42,5.42v22.2a5.42,5.42,0,0,0,5.42,5.42h190.69a5.43,5.43,0,0,0,5.43-5.42v-22.2a5.43,5.43,0,0,0-5.43-5.42Z" transform="translate(-852.48 -259.5)"/><text class="cls-4" transform="translate(344.98 36.49)">HUE</text><text class="cls-4" transform="translate(192.88 78.34)">Kaf<tspan class="cls-5" x="12.96" y="0">k</tspan><tspan x="17.51" y="0">a</tspan></text><text class="cls-4" transform="translate(189.38 151.03)">Sqoop</text><text class="cls-4" transform="translate(281.87 151.03)">Mahout</text><text class="cls-4" transform="translate(296.94 192.87)">PIG</text><text class="cls-4" transform="translate(285.21 239.13)">HBase</text><text class="cls-4" transform="translate(282.01 286.48)">MESOS</text><text class="cls-4" transform="translate(386.65 151.03)">DRILL</text><text class="cls-4" transform="translate(390.22 192.87)">HIVE</text><text class="cls-4" transform="translate(367.12 239.13)">Cassand<tspan class="cls-6" x="33.33" y="0">r</tspan><tspan x="36.35" y="0">a</tspan></text><text class="cls-4" transform="translate(387.73 286.48)"><tspan class="cls-7">Y</tspan><tspan x="4.34" y="0">ARN</tspan></text><text class="cls-4" transform="translate(485.77 151.03)"><tspan class="cls-8">T</tspan><tspan x="4.7" y="0">AJO</tspan></text><text class="cls-4" transform="translate(476.45 192.87)">IM<tspan class="cls-9" x="9.33" y="0">P</tspan><tspan x="14.2" y="0">A</tspan><tspan class="cls-10" x="19.34" y="0">L</tspan><tspan x="23.96" y="0">A</tspan></text><text class="cls-11" transform="translate(484.2 239.13)">R<tspan class="cls-12" x="5.27" y="0">edis</tspan></text><text class="cls-4" transform="translate(459.37 286.48)">Map<tspan class="cls-5" x="16.92" y="0">R</tspan><tspan class="cls-12" x="22.18" y="0">edu</tspan><tspan class="cls-13" x="37.29" y="0">c</tspan><tspan x="41.42" y="0">e</tspan></text><text class="cls-4" transform="translate(484.34 328.33)">HD<tspan class="cls-14" x="12.02" y="0">F</tspan><tspan x="16.5" y="0">S</tspan></text><text class="cls-4" transform="translate(173.56 212.71)"><tspan class="cls-15">Z</tspan><tspan x="4.93" y="0">oo</tspan><tspan class="cls-16" x="15.22" y="0">k</tspan><tspan x="19.7" y="0">eeper</tspan></text><text class="cls-4" transform="translate(200.99 393.31)"><tspan class="cls-17">t</tspan><tspan x="2.95" y="0">abl</tspan><tspan class="cls-18" x="15.37" y="0">e</tspan><tspan x="19.93" y="0">au</tspan></text><text class="cls-4" transform="translate(305.61 393.31)">Sp<tspan class="cls-19" x="10.32" y="0">o</tspan><tspan x="15.32" y="0">tfi</tspan><tspan class="cls-20" x="23.66" y="0">r</tspan><tspan x="26.81" y="0">e</tspan></text><text class="cls-4" transform="translate(392.61 393.31)">Mi<tspan class="cls-21" x="9.18" y="0">c</tspan><tspan x="13.31" y="0">o</tspan><tspan class="cls-20" x="18.46" y="0">r</tspan><tspan x="21.6" y="0">o</tspan><tspan class="cls-22" x="26.75" y="0">S</tspan><tspan x="31.59" y="0">t</tspan><tspan class="cls-6" x="34.75" y="0">r</tspan><tspan class="cls-7" x="37.76" y="0">at</tspan><tspan class="cls-5" x="45.44" y="0">e</tspan><tspan class="cls-23" x="50.05" y="0">g</tspan><tspan class="cls-12" x="54.96" y="0">y</tspan></text><text class="cls-4" transform="translate(507.15 393.31)"><tspan class="cls-24">P</tspan><tspan class="cls-25" x="5.12" y="0">ow</tspan><tspan x="16.97" y="0">er BI</tspan></text><text class="cls-4" transform="translate(288.76 78.34)">O<tspan class="cls-26" x="6.3" y="0">o</tspan><tspan x="11.41" y="0">zie</tspan></text><text class="cls-4" transform="translate(549.54 76.14)">Flink</text><text class="cls-4" transform="translate(545.6 151.03)"><tspan class="cls-7">A</tspan><tspan x="5.01" y="0">VRO</tspan></text><text class="cls-4" transform="translate(552.71 210.5)">TEZ</text><text class="cls-4" transform="translate(536.24 257.85)">Chuk<tspan class="cls-5" x="20.36" y="0">w</tspan><tspan x="27.03" y="0">a</tspan></text><text class="cls-4" transform="translate(544.47 305.21)">Flume</text><text class="cls-4" transform="translate(472.75 76.14)"><tspan class="cls-15">Z</tspan><tspan x="4.93" y="0">eppelin</tspan></text><text class="cls-4" transform="translate(483.02 111.38)">S<tspan class="cls-18" x="5.06" y="0">p</tspan><tspan x="10.19" y="0">ark</tspan></text><text class="cls-4" transform="translate(540.32 36.49)">Am<tspan class="cls-18" x="13" y="0">b</tspan><tspan x="18.11" y="0">ari</tspan></text><path class="cls-2" d="M1053.13,722a23.92,23.92,0,1,1,23.92-23.92A23.95,23.95,0,0,1,1053.13,722Z" transform="translate(-852.48 -259.5)"/><path class="cls-3" d="M1053.13,675.16a22.92,22.92,0,1,1-22.92,22.92,22.94,22.94,0,0,1,22.92-22.92m0-2a24.92,24.92,0,1,0,24.92,24.92,24.92,24.92,0,0,0-24.92-24.92Z" transform="translate(-852.48 -259.5)"/><text class="cls-4" transform="translate(193.99 441.31)">sas</text><path class="cls-2" d="M1141.58,722a23.92,23.92,0,1,1,23.92-23.92A23.95,23.95,0,0,1,1141.58,722Z" transform="translate(-852.48 -259.5)"/><path class="cls-3" d="M1141.58,675.16a22.92,22.92,0,1,1-22.92,22.92,22.94,22.94,0,0,1,22.92-22.92m0-2a24.92,24.92,0,1,0,24.92,24.92,24.92,24.92,0,0,0-24.92-24.92Z" transform="translate(-852.48 -259.5)"/><text class="cls-4" transform="translate(286.97 441.31)">R</text><path class="cls-2" d="M1230,722A23.92,23.92,0,1,1,1254,698.08,23.94,23.94,0,0,1,1230,722Z" transform="translate(-852.48 -259.5)"/><path class="cls-3" d="M1230,675.16a22.92,22.92,0,1,1-22.91,22.92A22.94,22.94,0,0,1,1230,675.16m0-2A24.92,24.92,0,1,0,1255,698.08,24.92,24.92,0,0,0,1230,673.16Z" transform="translate(-852.48 -259.5)"/><text class="cls-4" transform="translate(362.58 441.31)">Ju<tspan class="cls-27" x="9.68" y="0">p</tspan><tspan class="cls-12" x="14.91" y="0">y</tspan><tspan class="cls-7" x="19.28" y="0">t</tspan><tspan x="22.31" y="0">er</tspan></text><circle class="cls-2" cx="466.01" cy="438.58" r="23.92"/><path class="cls-3" d="M1318.49,675.16a22.92,22.92,0,1,1-22.92,22.92,22.95,22.95,0,0,1,22.92-22.92m0-2a24.92,24.92,0,1,0,24.92,24.92,24.92,24.92,0,0,0-24.92-24.92Z" transform="translate(-852.48 -259.5)"/><text class="cls-4" transform="translate(450.19 441.31)">G<tspan class="cls-6" x="5.85" y="0">r</tspan><tspan x="8.87" y="0">a</tspan><tspan class="cls-28" x="13.65" y="0">f</tspan><tspan x="16.17" y="0">ana</tspan></text><circle class="cls-2" cx="554.46" cy="438.58" r="23.92"/><path class="cls-3" d="M1406.94,675.16A22.92,22.92,0,1,1,1384,698.08a22.94,22.94,0,0,1,22.92-22.92m0-2a24.92,24.92,0,1,0,24.92,24.92,24.92,24.92,0,0,0-24.92-24.92Z" transform="translate(-852.48 -259.5)"/><text class="cls-4" transform="translate(547.28 441.31)">ELK</text><path class="cls-29" d="M971.35,452.31l-22.22-12.75a3.66,3.66,0,0,0-5.49,3.17v10.14a2.64,2.64,0,0,1-2.64,2.64l-82.81.06a4.22,4.22,0,0,0-4.22,4.22v16.88a4.22,4.22,0,0,0,4.22,4.22l82.82-.06a2.64,2.64,0,0,1,2.64,2.63v10.31a3.66,3.66,0,0,0,5.49,3.17l22.17-12.78,22.15-12.77a3.66,3.66,0,0,0,0-6.34Z" transform="translate(-852.48 -259.5)"/></svg>