<svg id="Layer_1" data-name="Layer 1" xmlns="http://www.w3.org/2000/svg" xmlns:xlink="http://www.w3.org/1999/xlink" viewBox="0 0 555.69 520.31"><defs><style>.cls-1,.cls-12,.cls-16,.cls-9{fill:#f9f9f9;}.cls-11,.cls-2{fill:none;}.cls-3{clip-path:url(#clip-path);}.cls-4{clip-path:url(#clip-path-2);}.cls-14,.cls-5{fill:#fff;}.cls-11,.cls-5,.cls-9{stroke:#202123;}.cls-10,.cls-11,.cls-12,.cls-5,.cls-8,.cls-9{stroke-linecap:round;stroke-linejoin:round;}.cls-10,.cls-11,.cls-12,.cls-16,.cls-17,.cls-18,.cls-19,.cls-20,.cls-22,.cls-5,.cls-8,.cls-9{stroke-width:2px;}.cls-6{fill:#e8e8e8;}.cls-7{fill:#202123;}.cls-18,.cls-8{fill:#f5c43c;}.cls-10,.cls-12,.cls-16,.cls-18,.cls-19,.cls-20,.cls-22,.cls-8{stroke:#000;}.cls-10,.cls-22{fill:#89a6f5;}.cls-13{font-size:15.67px;font-family:NotoSansCJKkr-Medium-KSCpc-EUC-H, Noto Sans CJK KR;}.cls-15{clip-path:url(#clip-path-3);}.cls-16,.cls-17,.cls-18,.cls-19,.cls-20,.cls-22{stroke-miterlimit:10;}.cls-17,.cls-19{fill:#f53b69;}.cls-17{stroke:#fff;}.cls-21{clip-path:url(#clip-path-4);}</style><clipPath id="clip-path" transform="translate(-649.28 -257.72)"><circle class="cls-1" cx="1049.37" cy="614.87" r="111.99"/></clipPath><clipPath id="clip-path-2" transform="translate(-649.28 -257.72)"><circle class="cls-2" cx="1049.37" cy="614.87" r="111.99"/></clipPath><clipPath id="clip-path-3" transform="translate(-649.28 -257.72)"><circle class="cls-2" cx="802.41" cy="614.88" r="111.99"/></clipPath><clipPath id="clip-path-4" transform="translate(-649.28 -257.72)"><circle class="cls-2" cx="925.89" cy="383.19" r="124.43"/></clipPath></defs><title>1_human</title><circle class="cls-1" cx="400.08" cy="357.15" r="111.99"/><g class="cls-3"><path class="cls-1" d="M1026.33,630.16c-.33,7.13-1.36,24.66-3.8,34.93a5.25,5.25,0,0,1-2.13,3.1L1005,679a5.33,5.33,0,0,0,2.25,9.64L1087,700.53a5.32,5.32,0,0,0,5.11-8.38L1075,668.58a5.26,5.26,0,0,1-.91-2.1c-1.24-6.37-6.95-37.39-3.39-49.67,3.39-11.68-31,3.87-41.37,8.78A5.31,5.31,0,0,0,1026.33,630.16Z" transform="translate(-649.28 -257.72)"/><path class="cls-1" d="M1026.3,630.81s8.35,20.09,24.06,19.65,19.3-18.22,19.3-18.22Z" transform="translate(-649.28 -257.72)"/><path class="cls-1" d="M1016.92,614.55s-5.08-25.34-8.62-33-6.49-41.91,32.77-43.69c0,0,15,1.78,23.32-3.24,0,0,0,5-2.07,6.79a26.1,26.1,0,0,1,24.21,8.56c10.62,11.8-7.09,53.13-6.2,62.87Z" transform="translate(-649.28 -257.72)"/><path class="cls-1" d="M1048.56,642.69c-11.38-.2-32.35-15.36-32.35-34.14V579.24c0-6.86,4.78-12.47,10.63-12.47h43.45c5.84,0,10.63,5.61,10.63,12.47v27.65C1080.92,626.58,1061.63,642.92,1048.56,642.69Z" transform="translate(-649.28 -257.72)"/><path class="cls-1" d="M1119.61,750.93H971.94l-.75-.82c3.77-33.67,11.71-73.84,18.08-76.51,0,0,.73-.27,2.14-.71h0a143.65,143.65,0,0,1,20.77-4.59h.08c3-.46,6.22-.88,9.72-1.24a53.09,53.09,0,0,0,8.46,10.05,25.55,25.55,0,0,0,34.15,1.18,66.25,66.25,0,0,0,9.72-10.65c3.23.38,6.54.82,9.92,1.34,8.23,1.27,16.9,3,26,5.28,1.07.26,2.15.54,3.24.83h0c.44.1.86.22,1.29.34,0,0,.11.44.36,3.09h0C1115.67,684.54,1117,701.87,1119.61,750.93Z" transform="translate(-649.28 -257.72)"/><path class="cls-1" d="M990.44,673.08a.2.2,0,0,0-.11,0,19.25,19.25,0,0,0-2.26.65l-.16,0a.38.38,0,0,1-.13,0l-.09,0c-7.42,2.58-25.5,11.69-50.77,43.26a10.58,10.58,0,0,0-1.22,11.31,40.42,40.42,0,0,0,34.6,22.45l.8,0h40c.42-25,.73-46.72.91-61.62.09-6.58.14-11.82.19-15.43s.06-5.58.06-5.58h-.08A155.86,155.86,0,0,0,990.44,673.08Z" transform="translate(-649.28 -257.72)"/><path class="cls-1" d="M1114.75,675.43a23,23,0,0,0-4-1.16h0a238.66,238.66,0,0,0-26.44-5.28h0c0,.22,0,4.72.09,12.49h0c0,5,.1,11.31.16,18.7.14,13.77.33,31.26.58,50.76h42.44c.67,0,1.33,0,2,0a40.46,40.46,0,0,0,34-22,11.68,11.68,0,0,0-1.38-12.58C1138.93,687.25,1122.29,678.21,1114.75,675.43Z" transform="translate(-649.28 -257.72)"/><line class="cls-1" x1="368.68" y1="411.01" x2="391.48" y2="493.1"/><line class="cls-1" x1="430.7" y1="411.01" x2="403.34" y2="493.1"/></g><g class="cls-4"><path class="cls-5" d="M1026.33,630.16c-.33,7.13-1.36,24.66-3.8,34.93a5.25,5.25,0,0,1-2.13,3.1L1005,679a5.33,5.33,0,0,0,2.25,9.64L1087,700.53a5.32,5.32,0,0,0,5.11-8.38L1075,668.58a5.26,5.26,0,0,1-.91-2.1c-1.24-6.37-6.95-37.39-3.39-49.67,3.39-11.68-31,3.87-41.37,8.78A5.31,5.31,0,0,0,1026.33,630.16Z" transform="translate(-649.28 -257.72)"/><path class="cls-6" d="M1026.3,630.81s8.35,20.09,24.06,19.65,19.3-18.22,19.3-18.22Z" transform="translate(-649.28 -257.72)"/><path class="cls-7" d="M1016.92,614.55s-5.08-25.34-8.62-33-6.49-41.91,32.77-43.69c0,0,15,1.78,23.32-3.24,0,0,0,5-2.07,6.79a26.1,26.1,0,0,1,24.21,8.56c10.62,11.8-7.09,53.13-6.2,62.87Z" transform="translate(-649.28 -257.72)"/><path class="cls-5" d="M1048.56,642.69c-11.38-.2-32.35-15.36-32.35-34.14V579.24c0-6.86,4.78-12.47,10.63-12.47h43.45c5.84,0,10.63,5.61,10.63,12.47v27.65C1080.92,626.58,1061.63,642.92,1048.56,642.69Z" transform="translate(-649.28 -257.72)"/><path class="cls-8" d="M1119.61,750.93H971.94l-.75-.82c3.77-33.67,11.71-73.84,18.08-76.51,0,0,.73-.27,2.14-.71h0a143.65,143.65,0,0,1,20.77-4.59h.08c3-.46,6.22-.88,9.72-1.24a53.09,53.09,0,0,0,8.46,10.05,25.55,25.55,0,0,0,34.15,1.18,66.25,66.25,0,0,0,9.72-10.65c3.23.38,6.54.82,9.92,1.34,8.23,1.27,16.9,3,26,5.28,1.07.26,2.15.54,3.24.83h0c.44.1.86.22,1.29.34,0,0,.11.44.36,3.09h0C1115.67,684.54,1117,701.87,1119.61,750.93Z" transform="translate(-649.28 -257.72)"/><path class="cls-9" d="M990.44,673.08a.2.2,0,0,0-.11,0,19.25,19.25,0,0,0-2.26.65l-.16,0a.38.38,0,0,1-.13,0l-.09,0c-7.42,2.58-25.5,11.69-50.77,43.26a10.58,10.58,0,0,0-1.22,11.31,40.42,40.42,0,0,0,34.6,22.45l.8,0h40c.42-25,.73-46.72.91-61.62.09-6.58.14-11.82.19-15.43s.06-5.58.06-5.58h-.08A155.86,155.86,0,0,0,990.44,673.08Z" transform="translate(-649.28 -257.72)"/><path class="cls-9" d="M1114.75,675.43a23,23,0,0,0-4-1.16h0a238.66,238.66,0,0,0-26.44-5.28h0c0,.22,0,4.72.09,12.49h0c0,5,.1,11.31.16,18.7.14,13.77.33,31.26.58,50.76h42.44c.67,0,1.33,0,2,0a40.46,40.46,0,0,0,34-22,11.68,11.68,0,0,0-1.38-12.58C1138.93,687.25,1122.29,678.21,1114.75,675.43Z" transform="translate(-649.28 -257.72)"/><line class="cls-10" x1="368.68" y1="411.01" x2="391.48" y2="493.1"/><line class="cls-10" x1="430.7" y1="411.01" x2="403.34" y2="493.1"/></g><path class="cls-11" d="M1054.32,726.78a112,112,0,0,1-111.75-78.21" transform="translate(-649.28 -257.72)"/><path class="cls-11" d="M1134.69,687.43a111.44,111.44,0,0,1-51.62,34.24" transform="translate(-649.28 -257.72)"/><path class="cls-11" d="M1156.16,581.17a111.6,111.6,0,0,1-6.88,84.29" transform="translate(-649.28 -257.72)"/><path class="cls-11" d="M943.71,577.74a112,112,0,0,1,144.54-67.9" transform="translate(-649.28 -257.72)"/><rect class="cls-12" x="446.95" y="267.21" width="107.74" height="37.92" rx="9.01"/><text class="cls-13" transform="translate(457.57 291.37) scale(0.98 1)">데이터분석가</text><circle class="cls-14" cx="153.12" cy="357.16" r="111.99"/><g class="cls-15"><path class="cls-5" d="M779.83,620.15c-.33,7.13-1.35,24.66-3.79,34.93a5.25,5.25,0,0,1-2.13,3.1L758.46,669a5.33,5.33,0,0,0,2.26,9.63l79.77,11.93a5.32,5.32,0,0,0,5.1-8.38l-17.05-23.57a5.12,5.12,0,0,1-.91-2.1c-1.24-6.37-7-37.39-3.39-49.67,3.39-11.68-31,3.87-41.37,8.78A5.35,5.35,0,0,0,779.83,620.15Z" transform="translate(-649.28 -257.72)"/><path class="cls-6" d="M779.81,620.8s8.35,20.09,24.06,19.65,19.3-18.22,19.3-18.22Z" transform="translate(-649.28 -257.72)"/><path class="cls-7" d="M770.43,604.54s-5.08-25.34-8.62-33-6.49-41.91,32.77-43.68c0,0,15,1.77,23.32-3.25,0,0,0,5-2.07,6.79a26.08,26.08,0,0,1,24.2,8.56c10.63,11.81-7.08,53.13-6.19,62.87Z" transform="translate(-649.28 -257.72)"/><path class="cls-5" d="M802.07,632.69c-11.39-.21-32.35-15.37-32.35-34.15V569.23c0-6.86,4.78-12.47,10.63-12.47H823.8c5.84,0,10.63,5.61,10.63,12.47v27.65C834.43,616.57,815.13,632.92,802.07,632.69Z" transform="translate(-649.28 -257.72)"/><path class="cls-7" d="M769.72,584.88s.06-17.61,14-20.32,45.16,8.59,49.59-4.25-60.34-12.62-63.6-4.43S769.72,584.88,769.72,584.88Z" transform="translate(-649.28 -257.72)"/><path class="cls-9" d="M873.12,740.93H725.44l-.74-.83c3.77-33.67,11.71-73.84,18.07-76.51,0,0,.74-.27,2.15-.71h0a145.07,145.07,0,0,1,20.77-4.59h.08c3-.46,6.22-.88,9.72-1.24A53.09,53.09,0,0,0,784,667.1a25.54,25.54,0,0,0,34.15,1.18,66.25,66.25,0,0,0,9.72-10.65c3.23.38,6.54.82,9.92,1.35,8.23,1.26,16.89,3,26,5.27,1.07.26,2.15.54,3.24.83h0c.43.1.86.22,1.29.34,0,0,.1.44.36,3.09h0C869.18,674.53,870.5,691.86,873.12,740.93Z" transform="translate(-649.28 -257.72)"/><path class="cls-10" d="M744,663.07a.35.35,0,0,0-.11,0,19.25,19.25,0,0,0-2.26.65l-.16,0-.13,0-.09,0c-7.43,2.58-25.5,11.69-50.77,43.26a10.58,10.58,0,0,0-1.22,11.31,40.42,40.42,0,0,0,34.6,22.45l.8,0c.28,0,.56,0,.83,0h39.21c.42-25,.72-46.73.91-61.62.08-6.59.14-11.83.19-15.44s.06-5.58.06-5.58h-.08A155.86,155.86,0,0,0,744,663.07Z" transform="translate(-649.28 -257.72)"/><path class="cls-10" d="M868.26,665.42a23.24,23.24,0,0,0-4-1.16h0A237.93,237.93,0,0,0,837.78,659h0c0,.21,0,4.71.09,12.48h0c0,5,.1,11.31.16,18.7.14,13.77.33,31.26.58,50.77h42.44c.67,0,1.33,0,2-.06a40.43,40.43,0,0,0,34-22,11.66,11.66,0,0,0-1.37-12.58C892.43,677.24,875.8,668.2,868.26,665.42Z" transform="translate(-649.28 -257.72)"/><path class="cls-9" d="M803.59,674s13.68-2.74,14.6,12.77L830,657.55s1.83-6.38-3.65-10Z" transform="translate(-649.28 -257.72)"/><path class="cls-9" d="M801.15,674s-16.09-.91-15.8,11.85l-11.56-28.27s-1.83-6.38,3.64-10Z" transform="translate(-649.28 -257.72)"/><path class="cls-16" d="M732.22,778,731,690.46a11.85,11.85,0,0,1,11.81-11.81H861.75a11.85,11.85,0,0,1,11.81,11.81L872.36,778" transform="translate(-649.28 -257.72)"/><circle class="cls-17" cx="151.49" cy="484.79" r="7.99"/></g><path class="cls-11" d="M857.38,517.28a112,112,0,0,1,53.49,125.47" transform="translate(-649.28 -257.72)"/><path class="cls-11" d="M768.35,508.18a111.46,111.46,0,0,1,61.93-1.76" transform="translate(-649.28 -257.72)"/><path class="cls-11" d="M693.94,587a111.64,111.64,0,0,1,50.42-67.9" transform="translate(-649.28 -257.72)"/><path class="cls-11" d="M872.45,702.27a112,112,0,0,1-158.58-18.8" transform="translate(-649.28 -257.72)"/><circle class="cls-18" cx="230.01" cy="373.15" r="6.84"/><circle class="cls-19" cx="75.86" cy="303.83" r="5.02"/><path class="cls-20" d="M744,593h-4.91v-4.91a.74.74,0,1,0-1.48,0V593h-4.91a.74.74,0,0,0,0,1.47h4.91v4.91a.74.74,0,0,0,1.48,0v-4.91H744a.74.74,0,1,0,0-1.47Z" transform="translate(-649.28 -257.72)"/><rect class="cls-16" x="1" y="354.67" width="93.85" height="37.92" rx="9.01"/><text class="cls-13" transform="translate(11.62 378.83) scale(0.98 1)">운영사용자</text><circle class="cls-1" cx="276.6" cy="125.47" r="124.43"/><g class="cls-21"><path class="cls-5" d="M900.33,388.19s-1,30.25-4.85,43.81l-30.65,21.37,115.36,17.27-27.51-38s-8.31-40.56-3.95-55.57S900.33,388.19,900.33,388.19Z" transform="translate(-649.28 -257.72)"/><path class="cls-6" d="M900.16,392.37s9.12,22,26.3,21.48,21.09-19.92,21.09-19.92Z" transform="translate(-649.28 -257.72)"/><path class="cls-7" d="M931.79,290.75c42.92,1.82,39.69,39.36,35.82,47.75s-7.49,27.75-7.49,27.75l-70.94,1c1-10.65-19.26-37.05-5.06-58.78a29.51,29.51,0,0,1,24.44-13.86S919.88,290.24,931.79,290.75Z" transform="translate(-649.28 -257.72)"/><path class="cls-5" d="M924.49,405.36c-12.45-.22-35.36-16.8-35.36-37.33V336c0-7.5,5.22-13.63,11.61-13.63h47.5c6.39,0,11.62,6.13,11.62,13.63v30.22C959.86,387.75,938.77,405.61,924.49,405.36Z" transform="translate(-649.28 -257.72)"/><path class="cls-7" d="M962.15,341.92s-5-6.16-20.27-9.12-54-4.39-48.64-18.24c12.16-31.41,60.5-2.11,64.06,6.84S962.15,341.92,962.15,341.92Z" transform="translate(-649.28 -257.72)"/><path class="cls-9" d="M996.85,441.15l-.05,0a21.07,21.07,0,0,0-4.91-1.33v.06a302.81,302.81,0,0,0-35.48-6.77c-1.26-.17-2.5-.31-3.73-.46-7.57,10.05-13.63,14.64-20,17.84-1.42.71-2.84,1.35-4.3,2-1.27.53-2.56,1.05-3.89,1.58a24,24,0,0,1-4.91-1.24c-.91-.33-1.81-.7-2.71-1.13-12.19-5.75-21.41-19.29-21.41-19.65-1.7.17-3.37.36-5,.57a168.52,168.52,0,0,0-28.45,5.79h0c-.89.11-32.3,4.43-80.37,77.07a50.22,50.22,0,0,0,47.27,33.23h193.24a51,51,0,0,0,6.81-.46,50.27,50.27,0,0,0,40.67-33.36C1033.25,459.6,1007.21,445,996.85,441.15Z" transform="translate(-649.28 -257.72)"/><path class="cls-8" d="M909.86,557.28h26.5c-2.78-34.24-5.64-68.46-7.08-85.65-.29-3.55-.53-6.37-.7-8.31h0c3-2.11,5.6-6.2,7.1-8.89a2.07,2.07,0,0,0-1.58-3.07c-7.45-.75-19.68.48-19.68.48-4.07.31.08,7.07,5.05,10.66-.19,1.64-.47,4.21-.85,7.55C916.79,486.5,913,521.7,909.86,557.28Z" transform="translate(-649.28 -257.72)"/><path class="cls-9" d="M926.17,450.87s15.21-3,16.22,14.18l13.17-32.43s2-7.09-4-11.14Z" transform="translate(-649.28 -257.72)"/><path class="cls-9" d="M923.46,450.87s-17.88-1-17.55,13.17l-12.85-31.42s-2-7.09,4.05-11.14Z" transform="translate(-649.28 -257.72)"/></g><path class="cls-11" d="M824.93,310.4A124.47,124.47,0,0,1,970.1,266.88" transform="translate(-649.28 -257.72)"/><path class="cls-11" d="M803.85,407.57A123.86,123.86,0,0,1,809.57,339" transform="translate(-649.28 -257.72)"/><path class="cls-11" d="M881.67,499.5A124,124,0,0,1,813,435.42" transform="translate(-649.28 -257.72)"/><path class="cls-11" d="M1031.06,316.67a124.47,124.47,0,0,1-40.41,172.78" transform="translate(-649.28 -257.72)"/><path class="cls-7" d="M929.16,403.63l.22,0c.63-.12,1.26-.27,1.9-.44l.26-.07c.63-.18,1.28-.39,1.92-.63l.25-.09c.66-.24,1.32-.51,2-.8l.19-.09c.69-.31,1.37-.65,2-1l.09,0a46.56,46.56,0,0,0,20.07-21.69c-8.07,5.88-16.43,1.09-16.43,1.09h-.07a13.85,13.85,0,0,0-13.07-9.42h-5.75a13.85,13.85,0,0,0-13.06,9.42h0c-7.61,4.87-19.12-4.95-19.12-4.95l.12.39,0,.14c3.14,9.38,10.51,17.34,18.24,22.46h0l.11.06a46,46,0,0,0,6.32,3.51l.06,0a31.94,31.94,0,0,0,6,2l.14,0c.6.13,1.18.23,1.76.31l.16,0a16.61,16.61,0,0,0,1.67.12,17.6,17.6,0,0,0,1.91-.07h.14Q928.2,403.81,929.16,403.63Z" transform="translate(-649.28 -257.72)"/><path class="cls-14" d="M929.09,382.52H922.2c-1.58,0-3.59-2.58-3.59-4.16,0,0,2-1.58,3.59-1.58h6.89c1.58,0,3.89,1.31,4.27,2.25C933.36,379,932.4,382.52,929.09,382.52Z" transform="translate(-649.28 -257.72)"/><circle class="cls-18" cx="341.24" cy="101.68" r="7.6"/><circle class="cls-22" cx="183.14" cy="60.89" r="5.57"/><path class="cls-20" d="M1018.31,341.85h-3.9V338a.59.59,0,1,0-1.17,0v3.9h-3.9a.58.58,0,0,0-.58.58.59.59,0,0,0,.58.59h3.9v3.89a.59.59,0,1,0,1.17,0V343h3.9a.59.59,0,0,0,.58-.59A.58.58,0,0,0,1018.31,341.85Z" transform="translate(-649.28 -257.72)"/><path class="cls-20" d="M852.11,413.8h-3.9v-3.9a.59.59,0,0,0-1.17,0v3.9h-3.9a.59.59,0,0,0,0,1.17H847v3.9a.59.59,0,0,0,1.17,0V415h3.9a.59.59,0,0,0,0-1.17Z" transform="translate(-649.28 -257.72)"/><rect class="cls-16" x="331.41" y="6.98" width="89.38" height="36.68" rx="9.01"/><text class="cls-13" transform="translate(340.57 30.38) scale(0.98 1)">협업사용자</text></svg>