<svg id="Layer_1" data-name="Layer 1" xmlns="http://www.w3.org/2000/svg" viewBox="0 0 813.15 481.98"><defs><style>.cls-1{fill:#fff;}.cls-2,.cls-20,.cls-22,.cls-28{fill:none;}.cls-2,.cls-23{stroke:#202123;}.cls-2,.cls-20,.cls-22,.cls-23,.cls-25,.cls-28{stroke-linecap:round;stroke-linejoin:round;}.cls-14,.cls-15,.cls-2,.cls-20,.cls-22,.cls-23,.cls-24,.cls-25,.cls-27,.cls-28{stroke-width:2px;}.cls-3{fill:#b7b9bd;}.cls-4{fill:#246abf;}.cls-5{fill:#202123;}.cls-6{fill:red;}.cls-7{fill:#e70000;}.cls-8{fill:#ef0000;}.cls-9{fill:#f37726;}.cls-10{fill:#616262;}.cls-11{fill:#767677;}.cls-12{fill:#9e9e9e;}.cls-13{fill:#4e4e4e;}.cls-14{fill:#ebf5f7;}.cls-14,.cls-15,.cls-22,.cls-24,.cls-25,.cls-27{stroke:#000;}.cls-14,.cls-15,.cls-24,.cls-27{stroke-miterlimit:10;}.cls-15,.cls-23{fill:#f9f9f9;}.cls-16,.cls-25{fill:#89a6f5;}.cls-17,.cls-24{fill:#f53b69;}.cls-18,.cls-27{fill:#f5c43c;}.cls-19{fill:#1a2e35;}.cls-20{stroke:#474a4f;}.cls-21{fill:#e1e1e1;}.cls-26{fill:#ff735d;}.cls-28{stroke:#aaa;}.cls-29{font-size:10.33px;font-family:YDIYGO330;letter-spacing:0.02em;}</style></defs><title>2_contents</title><circle class="cls-1" cx="748.47" cy="409.23" r="64.53"/><path class="cls-2" d="M1260.69,687.71a65.67,65.67,0,0,1-4.11,5.61,64.42,64.42,0,0,1-111.31-60.07s3.22-9.83,9.18-17.27" transform="translate(-459 -243.48)"/><path class="cls-2" d="M1268.19,671.78a64.34,64.34,0,0,0-81.66-80.36" transform="translate(-459 -243.48)"/><path class="cls-3" d="M1228.65,616.15c-12.56,0-22.75,6.88-22.75,15.38s10.19,15.37,22.75,15.37,22.76-6.88,22.76-15.37S1241.22,616.15,1228.65,616.15Zm3.08,27.06c-9.51,0-17.22-4.68-17.22-10.45s7.71-10.46,17.22-10.46S1249,627,1249,632.76,1241.24,643.21,1231.73,643.21Z" transform="translate(-459 -243.48)"/><path class="cls-4" d="M1241,640.14s6.76.61,6.76-6.77-6.15-7.38-6.15-7.38h-17.22v25.83H1233V642h3.69a19.22,19.22,0,0,1,4.92,9.84h7a1.07,1.07,0,0,0,1-1.49C1245.92,641.79,1241,640.14,1241,640.14Zm-.62-6.58a2.27,2.27,0,0,1-2.27,2.27H1233v-4.92h5.11a2.27,2.27,0,0,1,2.27,2.27Z" transform="translate(-459 -243.48)"/><path class="cls-5" d="M1165,631.6l14.16,2.46,13.71-4.38s1.39-1.91-1.76-3.8S1165,631.6,1165,631.6Z" transform="translate(-459 -243.48)"/><path class="cls-5" d="M1165,645.71l14.16,3.46,13.71-4.39s1.39-1.91-1.76-3.79S1165,645.71,1165,645.71Z" transform="translate(-459 -243.48)"/><path class="cls-6" d="M1164.38,622.24v8.31a1.17,1.17,0,0,0,1.29,1.17c5.24-.54,24.65-2.79,27.43-6.39a1.17,1.17,0,0,0,.23-.7v-7.69a1.18,1.18,0,0,0-1.69-1.06,40.65,40.65,0,0,1-7.43,2.46,146.24,146.24,0,0,1-18.75,2.73A1.18,1.18,0,0,0,1164.38,622.24Z" transform="translate(-459 -243.48)"/><path class="cls-7" d="M1164.7,636.09v8.31a1.18,1.18,0,0,0,1.29,1.18c5.23-.55,24.65-2.81,27.42-6.42a1.11,1.11,0,0,0,.23-.7v-7.68a1.18,1.18,0,0,0-1.69-1.06,41.46,41.46,0,0,1-7.43,2.46c-6.21,1.55-15.6,2.46-18.75,2.74A1.17,1.17,0,0,0,1164.7,636.09Z" transform="translate(-459 -243.48)"/><path class="cls-8" d="M1165,649.93v8.32a1.17,1.17,0,0,0,1.3,1.17c5.23-.55,24.65-2.81,27.42-6.41a1.18,1.18,0,0,0,.23-.71v-7.68a1.18,1.18,0,0,0-1.69-1.06,40.55,40.55,0,0,1-7.44,2.46,142.82,142.82,0,0,1-18.75,2.74A1.18,1.18,0,0,0,1165,649.93Z" transform="translate(-459 -243.48)"/><path class="cls-9" d="M1197.24,673.72a.25.25,0,0,1-.37-.32c1.78-2.84,6.23-8.53,13.37-8.53,8.72,0,12.94,4.5,15.41,8.92a.25.25,0,0,1-.38.32,24.15,24.15,0,0,0-14.74-4.79C1203.49,669.32,1199.2,672.06,1197.24,673.72Z" transform="translate(-459 -243.48)"/><path class="cls-9" d="M1197.24,687.28a.25.25,0,0,0-.37.32c1.78,2.84,6.23,8.53,13.37,8.53,8.72,0,12.94-4.5,15.41-8.92a.25.25,0,0,0-.38-.32,24.15,24.15,0,0,1-14.74,4.79C1203.49,691.68,1199.2,688.94,1197.24,687.28Z" transform="translate(-459 -243.48)"/><circle class="cls-10" cx="737.58" cy="423.17" r="1.68"/><circle class="cls-11" cx="763.7" cy="420.2" r="2.52"/><circle class="cls-12" cx="739.96" cy="455.23" r="3.36"/><path class="cls-13" d="M1197.39,682.05a1.75,1.75,0,0,1-.62,1.45,2.34,2.34,0,0,1-2.93,0,1.66,1.66,0,0,1-.6-1.46v-.61h.91v.44a1.2,1.2,0,0,0,.35,1,1.24,1.24,0,0,0,.79.29,1.26,1.26,0,0,0,.81-.29,1.23,1.23,0,0,0,.35-1v-5.31h.93Z" transform="translate(-459 -243.48)"/><path class="cls-13" d="M1202.42,683.82v-.65a2.06,2.06,0,0,1-.72.58,2.34,2.34,0,0,1-1.09.26,2,2,0,0,1-1.27-.49,1.79,1.79,0,0,1-.59-1.47v-3.48h.93v3.17a1.41,1.41,0,0,0,.34,1,1.22,1.22,0,0,0,1,.31,1.51,1.51,0,0,0,1-.43,1.54,1.54,0,0,0,.41-1.14v-3h1v5.25Z" transform="translate(-459 -243.48)"/><path class="cls-13" d="M1209.37,679.11a3.41,3.41,0,0,1,0,4.14,2.4,2.4,0,0,1-1.83.76,2.44,2.44,0,0,1-1-.2,2.8,2.8,0,0,1-.81-.56v2h-.93v-6.72h.93v.54a2.59,2.59,0,0,1,.81-.55,2.43,2.43,0,0,1,1-.19A2.4,2.4,0,0,1,1209.37,679.11Zm-.74,3.56a2.69,2.69,0,0,0,0-3,1.72,1.72,0,0,0-2.48,0,2.74,2.74,0,0,0,0,3,1.72,1.72,0,0,0,2.48,0Z" transform="translate(-459 -243.48)"/><path class="cls-13" d="M1213.12,684.37a1.31,1.31,0,0,1-.28.45,1.79,1.79,0,0,1-.38.3,1.45,1.45,0,0,1-.46.15,3.49,3.49,0,0,1-.46,0h-.32v-.77h.48a.67.67,0,0,0,.38-.14.86.86,0,0,0,.22-.29l.23-.5-2.16-5h1l1.63,3.85,1.64-3.84h1Z" transform="translate(-459 -243.48)"/><path class="cls-13" d="M1218,683.81a.91.91,0,0,1-.5-.13,1.27,1.27,0,0,1-.34-.31.89.89,0,0,1-.18-.38,2.94,2.94,0,0,1,0-.61v-3h-.67v-.76h.67V677h.93v1.65h.79v.76h-.79v2.87c0,.12,0,.23,0,.34a.39.39,0,0,0,.17.29.53.53,0,0,0,.3.14,1.9,1.9,0,0,0,.31,0v.77Z" transform="translate(-459 -243.48)"/><path class="cls-13" d="M1220.22,681.45a1.85,1.85,0,0,0,.52,1.29,1.56,1.56,0,0,0,1.15.5,1.45,1.45,0,0,0,1-.29,1.33,1.33,0,0,0,.41-.54h1a2.3,2.3,0,0,1-2.38,1.54,2.48,2.48,0,0,1-1.89-.78,3.08,3.08,0,0,1,0-4,2.46,2.46,0,0,1,1.91-.77,2.65,2.65,0,0,1,1.84.71,2.94,2.94,0,0,1,.77,2.31Zm3.3-.7a1.69,1.69,0,0,0-.47-1.17,1.54,1.54,0,0,0-1.16-.44,1.61,1.61,0,0,0-1.13.4,1.73,1.73,0,0,0-.51,1.21Z" transform="translate(-459 -243.48)"/><path class="cls-13" d="M1228.31,679.34a3.18,3.18,0,0,0-.47,0,1,1,0,0,0-.39.12,1.59,1.59,0,0,0-.71.67,2.44,2.44,0,0,0-.24,1.18v2.47h-.93v-5.23h.93v.74l.06,0a1.89,1.89,0,0,1,.41-.5,2.65,2.65,0,0,1,.55-.32,1.08,1.08,0,0,1,.5-.12h.29Z" transform="translate(-459 -243.48)"/><rect class="cls-14" x="16.8" y="314.89" width="240.04" height="147.18" rx="15.88"/><rect class="cls-15" x="27.67" y="324.3" width="218.3" height="128.36" rx="6.75"/><rect class="cls-14" x="460" y="713.04" width="266.71" height="11.42" rx="4.84" transform="translate(727.71 1194.02) rotate(180)"/><rect class="cls-15" x="82.39" y="384.75" width="45.69" height="60.6" rx="5.17"/><path class="cls-15" d="M531.26,628.23H506.94c-2,0-3.56,2.32-3.56,5.17v50.26c0,2.86,1.59,5.17,3.56,5.17h24.32c2,0,3.56-2.31,3.56-5.17V633.4C534.82,630.55,533.22,628.23,531.26,628.23Z" transform="translate(-459 -243.48)"/><circle class="cls-15" cx="153.68" cy="353.23" r="12.98"/><circle class="cls-15" cx="185.95" cy="353.23" r="12.98"/><circle class="cls-15" cx="677.21" cy="597.13" r="12.98" transform="translate(-419.44 992.85) rotate(-86.47)"/><path class="cls-16" d="M620.4,594a8.34,8.34,0,1,1-7.72-5.17h.42v-2.11h-.42a10.42,10.42,0,1,0,9.66,6.44Z" transform="translate(-459 -243.48)"/><path class="cls-17" d="M649.25,604.19a8.34,8.34,0,1,1-4.44-15.4h.42v-2.11h-.42A10.45,10.45,0,1,0,650.3,606Z" transform="translate(-459 -243.48)"/><path class="cls-18" d="M684.17,601.82a8.34,8.34,0,1,1-6.89-13h.42v-2.11h-.42a10.45,10.45,0,1,0,8.61,16.38Z" transform="translate(-459 -243.48)"/><path class="cls-15" d="M623.26,615.19H602.1a2.41,2.41,0,0,0,0,4.81h21.16a2.41,2.41,0,0,0,0-4.81Z" transform="translate(-459 -243.48)"/><path class="cls-15" d="M655.53,615.19H634.37a2.41,2.41,0,0,0,0,4.81h21.16a2.41,2.41,0,0,0,0-4.81Z" transform="translate(-459 -243.48)"/><path class="cls-15" d="M666.64,620h21.15a2.41,2.41,0,1,0,0-4.81H666.64a2.41,2.41,0,1,0,0,4.81Z" transform="translate(-459 -243.48)"/><rect class="cls-15" x="140.7" y="381.17" width="25.97" height="18.97" rx="2.4"/><rect class="cls-15" x="172.97" y="381.17" width="25.97" height="18.97" rx="2.4"/><rect class="cls-15" x="205.23" y="381.17" width="25.97" height="18.97" rx="2.4"/><path class="cls-18" d="M545.5,660.59v19.08a5.41,5.41,0,0,0,5.41,5.4H577a5.55,5.55,0,0,0,5.55-5.55V650.79A2.63,2.63,0,0,0,578,649l-5,5.64a5.56,5.56,0,0,1-7.54.7l-.49-.37a4.76,4.76,0,0,0-6,.15l-2.77,2.35a7.3,7.3,0,0,1-7.66,1.13h0A2.13,2.13,0,0,0,545.5,660.59Z" transform="translate(-459 -243.48)"/><rect class="cls-18" x="141.98" y="425.53" width="4.38" height="19.82"/><rect class="cls-18" x="149.3" y="432.34" width="4.38" height="13.01"/><rect class="cls-18" x="156.62" y="415.5" width="4.38" height="29.85"/><rect class="cls-18" x="163.94" y="438.18" width="4.38" height="7.17"/><rect class="cls-18" x="171.26" y="419.49" width="4.38" height="25.86"/><rect class="cls-18" x="178.58" y="423.97" width="4.38" height="21.38"/><rect class="cls-18" x="185.89" y="428.84" width="4.38" height="16.51"/><rect class="cls-18" x="193.21" y="409.47" width="4.38" height="35.88"/><rect class="cls-18" x="200.53" y="413.27" width="4.38" height="32.09"/><rect class="cls-18" x="207.85" y="419.01" width="4.38" height="26.35"/><rect class="cls-18" x="215.17" y="438.85" width="4.38" height="6.51"/><rect class="cls-18" x="222.49" y="426.21" width="4.38" height="19.14"/><path class="cls-16" d="M612.44,653H593.17a1.54,1.54,0,0,0,0,3.07h19.27a1.54,1.54,0,1,0,0-3.07Z" transform="translate(-459 -243.48)"/><path class="cls-16" d="M612.44,648.15H593.17a1.54,1.54,0,0,0,0,3.07h19.27a1.54,1.54,0,1,0,0-3.07Z" transform="translate(-459 -243.48)"/><path class="cls-16" d="M647.21,653H627.94a1.54,1.54,0,0,0,0,3.07h19.27a1.54,1.54,0,0,0,0-3.07Z" transform="translate(-459 -243.48)"/><path class="cls-16" d="M647.21,648.15H627.94a1.54,1.54,0,0,0,0,3.07h19.27a1.54,1.54,0,0,0,0-3.07Z" transform="translate(-459 -243.48)"/><rect class="cls-15" x="44.15" y="337.61" width="82.34" height="38.91" rx="8.33"/><path class="cls-15" d="M952.27,340.13v92.78a7.8,7.8,0,0,0,7.8,7.8h218.84a7.8,7.8,0,0,0,7.8-7.8V340.13a7.8,7.8,0,0,0-7.8-7.8H960.07A7.8,7.8,0,0,0,952.27,340.13Z" transform="translate(-459 -243.48)"/><path class="cls-19" d="M968.76,407.19v3.42h-.35V407.5h-.81v-.31Z" transform="translate(-459 -243.48)"/><path class="cls-19" d="M969.58,408.9c0-1.09.57-1.74,1.37-1.74s1.36.65,1.36,1.74-.57,1.74-1.36,1.74S969.58,410,969.58,408.9Zm2.37,0c0-.91-.41-1.42-1-1.42s-1,.51-1,1.42.41,1.42,1,1.42S972,409.82,972,408.9Z" transform="translate(-459 -243.48)"/><path class="cls-19" d="M970.15,389v.32h-2.4v-.25l1.42-1.4c.39-.38.46-.61.46-.84,0-.4-.28-.64-.8-.64a1.14,1.14,0,0,0-.93.38l-.25-.21a1.51,1.51,0,0,1,1.21-.49c.69,0,1.13.35,1.13.92a1.4,1.4,0,0,1-.56,1.07L968.27,389Z" transform="translate(-459 -243.48)"/><path class="cls-19" d="M970.58,387.63c0-1.09.57-1.74,1.36-1.74s1.37.65,1.37,1.74-.58,1.74-1.37,1.74S970.58,388.72,970.58,387.63Zm2.37,0c0-.92-.41-1.42-1-1.42s-1,.5-1,1.42.41,1.41,1,1.41S973,388.54,973,387.63Z" transform="translate(-459 -243.48)"/><path class="cls-19" d="M970.08,367.08c0,.57-.42,1-1.24,1a1.8,1.8,0,0,1-1.24-.44l.17-.28a1.51,1.51,0,0,0,1.07.4c.56,0,.88-.27.88-.69s-.29-.68-.93-.68h-.24v-.26l.94-1.19h-1.75v-.31h2.2v.25l-1,1.21C969.71,366.14,970.08,366.53,970.08,367.08Z" transform="translate(-459 -243.48)"/><path class="cls-19" d="M970.58,366.35c0-1.09.57-1.74,1.36-1.74s1.37.65,1.37,1.74-.58,1.74-1.37,1.74S970.58,367.44,970.58,366.35Zm2.37,0c0-.91-.41-1.42-1-1.42s-1,.51-1,1.42.41,1.42,1,1.42S973,367.26,973,366.35Z" transform="translate(-459 -243.48)"/><path class="cls-19" d="M983.87,420.13c0-1.09.57-1.74,1.36-1.74s1.37.65,1.37,1.74-.58,1.74-1.37,1.74S983.87,421.22,983.87,420.13Zm2.37,0c0-.92-.41-1.42-1-1.42s-1,.5-1,1.42.42,1.42,1,1.42S986.24,421,986.24,420.13Z" transform="translate(-459 -243.48)"/><path class="cls-19" d="M1009.2,418.42v3.42h-.36v-3.11h-.8v-.31Z" transform="translate(-459 -243.48)"/><path class="cls-19" d="M1035.89,421.53v.31h-2.4v-.25l1.42-1.39c.39-.38.46-.61.46-.85,0-.39-.28-.64-.8-.64a1.14,1.14,0,0,0-.93.38l-.25-.21a1.51,1.51,0,0,1,1.21-.49c.69,0,1.13.35,1.13.92a1.4,1.4,0,0,1-.56,1.07l-1.16,1.15Z" transform="translate(-459 -243.48)"/><path class="cls-19" d="M1061.13,420.86c0,.57-.42,1-1.25,1a1.79,1.79,0,0,1-1.23-.44l.17-.28a1.51,1.51,0,0,0,1.06.4c.57,0,.88-.27.88-.69s-.28-.68-.92-.68h-.24v-.26l.94-1.19h-1.75v-.31h2.2v.25l-1,1.21C1060.76,419.92,1061.13,420.31,1061.13,420.86Z" transform="translate(-459 -243.48)"/><path class="cls-19" d="M1087.08,420.94h-.69v.9H1086v-.9h-1.93v-.25l1.82-2.27h.39l-1.75,2.21h1.48v-.79h.34v.79h.69Z" transform="translate(-459 -243.48)"/><path class="cls-19" d="M1111.8,420.83c0,.58-.41,1-1.24,1a1.79,1.79,0,0,1-1.23-.44l.17-.28a1.48,1.48,0,0,0,1,.4c.58,0,.89-.29.89-.7s-.27-.72-1.14-.72h-.73l.18-1.71h1.87v.31h-1.56l-.12,1.09h.44C1111.41,419.82,1111.8,420.23,1111.8,420.83Z" transform="translate(-459 -243.48)"/><path class="cls-19" d="M1137.36,420.82a1.07,1.07,0,0,1-1.17,1.05c-.91,0-1.4-.63-1.4-1.71s.63-1.77,1.56-1.77a1.57,1.57,0,0,1,.81.18l-.14.29a1.18,1.18,0,0,0-.66-.16c-.74,0-1.22.47-1.22,1.4,0,.08,0,.18,0,.28a1.08,1.08,0,0,1,1-.59A1,1,0,0,1,1137.36,420.82Zm-.35,0c0-.45-.33-.74-.86-.74a.79.79,0,0,0-.88.75c0,.37.31.73.9.73A.75.75,0,0,0,1137,420.83Z" transform="translate(-459 -243.48)"/><path class="cls-19" d="M1162.51,418.42v.25l-1.43,3.17h-.39l1.41-3.11h-1.76v.64H1160v-.95Z" transform="translate(-459 -243.48)"/><line class="cls-20" x1="527.94" y1="165.58" x2="705.02" y2="165.58"/><path class="cls-16" d="M988.11,409.06a1.13,1.13,0,1,1-1.13-1.14A1.13,1.13,0,0,1,988.11,409.06Z" transform="translate(-459 -243.48)"/><path class="cls-16" d="M1013.37,409.06a1.13,1.13,0,1,1-1.13-1.14A1.14,1.14,0,0,1,1013.37,409.06Z" transform="translate(-459 -243.48)"/><path class="cls-16" d="M1038.63,409.06a1.13,1.13,0,1,1-1.13-1.14A1.14,1.14,0,0,1,1038.63,409.06Z" transform="translate(-459 -243.48)"/><path class="cls-16" d="M1063.88,409.06a1.13,1.13,0,1,1-1.13-1.14A1.13,1.13,0,0,1,1063.88,409.06Z" transform="translate(-459 -243.48)"/><path class="cls-16" d="M1089.14,409.06a1.13,1.13,0,1,1-1.13-1.14A1.14,1.14,0,0,1,1089.14,409.06Z" transform="translate(-459 -243.48)"/><path class="cls-16" d="M1139.65,409.06a1.13,1.13,0,1,1-1.13-1.14A1.13,1.13,0,0,1,1139.65,409.06Z" transform="translate(-459 -243.48)"/><path class="cls-16" d="M1114.39,409.06a1.13,1.13,0,1,1-1.12-1.14A1.13,1.13,0,0,1,1114.39,409.06Z" transform="translate(-459 -243.48)"/><path class="cls-16" d="M1164.91,409.06a1.13,1.13,0,1,1-1.13-1.14A1.14,1.14,0,0,1,1164.91,409.06Z" transform="translate(-459 -243.48)"/><path class="cls-21" d="M997.37,409.06a.76.76,0,0,1-.75.75.75.75,0,0,1,0-1.5A.76.76,0,0,1,997.37,409.06Z" transform="translate(-459 -243.48)"/><path class="cls-21" d="M1022.9,409.06a.75.75,0,1,1-.75-.75A.75.75,0,0,1,1022.9,409.06Z" transform="translate(-459 -243.48)"/><path class="cls-21" d="M1048.43,409.06a.75.75,0,1,1-.74-.75A.75.75,0,0,1,1048.43,409.06Z" transform="translate(-459 -243.48)"/><path class="cls-21" d="M1074,409.06a.75.75,0,0,1-.74.75.75.75,0,0,1,0-1.5A.75.75,0,0,1,1074,409.06Z" transform="translate(-459 -243.48)"/><path class="cls-21" d="M1099.49,409.06a.75.75,0,0,1-.74.75.75.75,0,0,1,0-1.5A.75.75,0,0,1,1099.49,409.06Z" transform="translate(-459 -243.48)"/><path class="cls-21" d="M1125,409.06a.75.75,0,1,1-.75-.75A.76.76,0,0,1,1125,409.06Z" transform="translate(-459 -243.48)"/><path class="cls-21" d="M1150.56,409.06a.76.76,0,0,1-.75.75.75.75,0,0,1,0-1.5A.76.76,0,0,1,1150.56,409.06Z" transform="translate(-459 -243.48)"/><line class="cls-20" x1="526.86" y1="122.69" x2="703.94" y2="122.69"/><line class="cls-20" x1="527.4" y1="143.74" x2="704.48" y2="143.74"/><path class="cls-17" d="M1012.86,399.61a2.79,2.79,0,1,1-2.78-2.78A2.78,2.78,0,0,1,1012.86,399.61Z" transform="translate(-459 -243.48)"/><path class="cls-17" d="M1035.06,386.52a2.79,2.79,0,1,1-2.79-2.79A2.78,2.78,0,0,1,1035.06,386.52Z" transform="translate(-459 -243.48)"/><path class="cls-17" d="M1062.6,387.68a2.79,2.79,0,1,1-2.79-2.78A2.79,2.79,0,0,1,1062.6,387.68Z" transform="translate(-459 -243.48)"/><path class="cls-17" d="M1089.49,363.88a2.79,2.79,0,1,1-2.79-2.79A2.79,2.79,0,0,1,1089.49,363.88Z" transform="translate(-459 -243.48)"/><path class="cls-17" d="M1114.61,379a2.79,2.79,0,1,1-2.79-2.79A2.78,2.78,0,0,1,1114.61,379Z" transform="translate(-459 -243.48)"/><path class="cls-17" d="M1140,383.05a2.79,2.79,0,1,1-2.78-2.79A2.78,2.78,0,0,1,1140,383.05Z" transform="translate(-459 -243.48)"/><path class="cls-17" d="M1163.83,399.61a3.64,3.64,0,0,1-.66,0,13.78,13.78,0,0,1-1.9-.25,14.35,14.35,0,0,1-6.61-3.15,13.68,13.68,0,0,1-3.25-4.22,30.3,30.3,0,0,0-3.41-5.27,11.16,11.16,0,0,0-5.75-4,7.24,7.24,0,0,0-3.8.13,10.22,10.22,0,0,0-3.53,2c-2.17,1.81-3.76,4.38-5.87,6.72a11.51,11.51,0,0,1-3.82,3,7.69,7.69,0,0,1-5,.41,6.28,6.28,0,0,1-3.82-3.51,24.14,24.14,0,0,1-1.65-5.08,30.17,30.17,0,0,0-1.51-5.15,4.08,4.08,0,0,0-1.63-1.95,5.29,5.29,0,0,0-2.57-.5,41.21,41.21,0,0,0-5.6,1,15.86,15.86,0,0,1-3,.33,6.5,6.5,0,0,1-3-.58,6.15,6.15,0,0,1-2.39-2,15,15,0,0,1-1.45-2.71c-.81-1.88-1.35-3.86-2.08-5.75a14.15,14.15,0,0,0-1.34-2.7,5,5,0,0,0-2.21-1.84l-.69-.21-.74-.06a2.66,2.66,0,0,0-1.36.27,5.73,5.73,0,0,0-2,2.13,26.15,26.15,0,0,0-2.36,5.85c-.61,2-1.12,4.15-1.61,6.27-.81,3.51-1.54,7-2.44,10.43a51.73,51.73,0,0,1-1.56,5.05,13.15,13.15,0,0,1-2.65,4.59,3.7,3.7,0,0,1-2.51,1.12,5.1,5.1,0,0,1-2.57-.78,12.22,12.22,0,0,1-3.61-3.66,43.85,43.85,0,0,1-4.36-8.86c-1.22-2.94-2.6-5.84-4.88-7.84a9.13,9.13,0,0,0-8.17-2,13.84,13.84,0,0,0-3.89,1.71,26.32,26.32,0,0,0-3.4,2.46,44.85,44.85,0,0,0-5.67,5.7v0h0a61,61,0,0,1-8.4,7,41.1,41.1,0,0,1-8.61,4.66,18.81,18.81,0,0,1-8.42,1.41,29.72,29.72,0,0,1-7-1.7,65.66,65.66,0,0,1-9.11-4.17c-1-.55-1.77-1-2.27-1.3s-.75-.49-.75-.49l.79.42,2.31,1.23a70.16,70.16,0,0,0,9.13,4,29.69,29.69,0,0,0,7,1.61,18.55,18.55,0,0,0,8.24-1.43,40.84,40.84,0,0,0,8.49-4.66,61.61,61.61,0,0,0,8.29-7h0a46.06,46.06,0,0,1,5.73-5.8,26.92,26.92,0,0,1,3.46-2.52,14.27,14.27,0,0,1,4-1.79,9.7,9.7,0,0,1,8.72,2.1c2.42,2.11,3.82,5.11,5.06,8.06a44,44,0,0,0,4.31,8.73,11.64,11.64,0,0,0,3.41,3.47,4.45,4.45,0,0,0,2.25.68,3,3,0,0,0,2-.93,12.69,12.69,0,0,0,2.48-4.35,50.7,50.7,0,0,0,1.54-5c.9-3.4,1.62-6.9,2.43-10.41.5-2.13,1-4.24,1.63-6.31a26.49,26.49,0,0,1,2.43-6,6.28,6.28,0,0,1,2.31-2.38,3.28,3.28,0,0,1,1.68-.34l.83.08c.27.06.54.16.8.24a5.59,5.59,0,0,1,2.52,2.08,14.65,14.65,0,0,1,1.41,2.83c.74,1.94,1.28,3.91,2.06,5.74s1.77,3.63,3.51,4.37,3.72.53,5.57.21a43.08,43.08,0,0,1,5.69-1,5.8,5.8,0,0,1,2.88.58,4.67,4.67,0,0,1,1.88,2.23,30,30,0,0,1,1.54,5.27,23.38,23.38,0,0,0,1.59,5,5.69,5.69,0,0,0,3.47,3.23A7.06,7.06,0,0,0,1125,394a10.86,10.86,0,0,0,3.65-2.83c2.08-2.27,3.7-4.86,5.95-6.73a10.78,10.78,0,0,1,3.7-2.07,7.79,7.79,0,0,1,4-.12,11.63,11.63,0,0,1,5.94,4.19,31.1,31.1,0,0,1,3.4,5.36,13.53,13.53,0,0,0,3.14,4.18,14.62,14.62,0,0,0,6.47,3.21,15.8,15.8,0,0,0,1.88.31Z" transform="translate(-459 -243.48)"/><line class="cls-22" x1="509.58" y1="103.25" x2="553.85" y2="103.25"/><path class="cls-15" d="M1118.33,251.54v91.85a7.06,7.06,0,0,0,7.05,7.06H1224a7.06,7.06,0,0,0,7.06-7.06V251.54a7.06,7.06,0,0,0-7.06-7.06h-98.64A7.06,7.06,0,0,0,1118.33,251.54Z" transform="translate(-459 -243.48)"/><path class="cls-23" d="M1174.2,256.49A34.79,34.79,0,1,0,1209,291.28,34.8,34.8,0,0,0,1174.2,256.49Zm.53,55.64a21.38,21.38,0,1,1,21.37-21.37A21.37,21.37,0,0,1,1174.73,312.13Z" transform="translate(-459 -243.48)"/><path class="cls-24" d="M1174.74,256.5c0,3.7,0,8.7,0,12.88a21.4,21.4,0,0,1,20.37,27.86l12.61,3.42a34.81,34.81,0,0,0-33-44.16Z" transform="translate(-459 -243.48)"/><path class="cls-25" d="M1153.36,290.76A21.36,21.36,0,0,1,1166,271.24l-5.35-12a34.8,34.8,0,0,0-21.26,32.06c0,.49,0,1,0,1.46h14Q1153.36,291.77,1153.36,290.76Z" transform="translate(-459 -243.48)"/><path class="cls-26" d="M1174.73,312.13a21,21,0,0,1-4.52-.49c-.54,3.11-1.56,9.11-2.35,13.84a34.75,34.75,0,0,0,39.85-24.82l-12.61-3.42A21.39,21.39,0,0,1,1174.73,312.13Z" transform="translate(-459 -243.48)"/><path class="cls-27" d="M1174.73,312.13a21,21,0,0,1-4.52-.49c-.54,3.11-1.56,9.11-2.35,13.84a34.75,34.75,0,0,0,39.85-24.82l-12.61-3.42A21.39,21.39,0,0,1,1174.73,312.13Z" transform="translate(-459 -243.48)"/><line class="cls-28" x1="690.98" y1="91.37" x2="739.57" y2="91.37"/><line class="cls-28" x1="703.94" y1="96.77" x2="723.38" y2="96.77"/><text class="cls-29" transform="translate(706.58 51.05)">50%</text></svg>