<?xml version="1.0" encoding="utf-8"?>
<!-- Generator: Adobe Illustrator 25.4.0, SVG Export Plug-In . SVG Version: 6.00 Build 0)  -->
<svg version="1.1" id="Layer_1" xmlns="http://www.w3.org/2000/svg" xmlns:xlink="http://www.w3.org/1999/xlink" x="0px" y="0px"
	 viewBox="0 0 97.3 43.4" style="enable-background:new 0 0 97.3 43.4;" xml:space="preserve">
<style type="text/css">
	.st0{fill:#F5C43C;}
	.st1{fill:#89A6F5;}
</style>
<rect x="11" y="22.4" class="st0" width="4.4" height="19.8"/>
<rect x="18.3" y="29.2" class="st0" width="4.4" height="13"/>
<rect x="25.6" y="12.4" class="st0" width="4.4" height="29.9"/>
<rect x="32.9" y="35.1" class="st0" width="4.4" height="7.2"/>
<rect x="40.3" y="16.4" class="st0" width="4.4" height="25.9"/>
<rect x="47.6" y="20.9" class="st0" width="4.4" height="21.4"/>
<rect x="54.9" y="25.7" class="st0" width="4.4" height="16.5"/>
<rect x="62.2" y="6.4" class="st0" width="4.4" height="35.9"/>
<rect x="69.5" y="10.2" class="st0" width="4.4" height="32.1"/>
<rect x="76.9" y="15.9" class="st0" width="4.4" height="26.4"/>
<rect x="84.2" y="35.8" class="st0" width="4.4" height="6.5"/>
<rect x="91.5" y="23.1" class="st0" width="4.4" height="19.1"/>
<path class="st1" d="M22.4,6.4H3.1C2.3,6.5,1.6,7.2,1.7,8.1c0.1,0.8,0.7,1.4,1.4,1.4h19.3c0.8,0.1,1.6-0.6,1.7-1.4
	c0.1-0.8-0.6-1.6-1.4-1.7C22.6,6.4,22.5,6.4,22.4,6.4z"/>
<path class="st1" d="M22.4,1.6H3.1C2.3,1.7,1.6,2.4,1.7,3.3c0.1,0.8,0.7,1.4,1.4,1.4h19.3c0.8,0.1,1.6-0.6,1.7-1.4
	c0.1-0.8-0.6-1.6-1.4-1.7C22.6,1.6,22.5,1.6,22.4,1.6z"/>
<path class="st1" d="M57.2,6.4H37.9c-0.8,0.1-1.5,0.8-1.4,1.7c0.1,0.8,0.7,1.4,1.4,1.4h19.3c0.8-0.1,1.5-0.8,1.4-1.7
	C58.6,7.1,58,6.5,57.2,6.4z"/>
<path class="st1" d="M57.2,1.6H37.9c-0.8,0.1-1.5,0.8-1.4,1.7c0.1,0.8,0.7,1.4,1.4,1.4h19.3C58,4.6,58.7,3.9,58.6,3
	C58.6,2.2,58,1.6,57.2,1.6z"/>
</svg>
