<?xml version="1.0" encoding="utf-8"?>
<!-- Generator: Adobe Illustrator 25.4.0, SVG Export Plug-In . SVG Version: 6.00 Build 0)  -->
<svg version="1.1" id="Layer_1" xmlns="http://www.w3.org/2000/svg" xmlns:xlink="http://www.w3.org/1999/xlink" x="0px" y="0px"
	 viewBox="0 0 273 170.6" style="enable-background:new 0 0 273 170.6;" xml:space="preserve">
<style type="text/css">
	.st0{fill:#EBF5F7;stroke:#000000;stroke-width:2;stroke-miterlimit:10;}
	.st1{fill:#F9F9F9;stroke:#000000;stroke-width:2;stroke-miterlimit:10;}
</style>
<path class="st0" d="M32.7,3.5H241c8.8,0,15.9,7.1,15.9,15.9v115.4c0,8.8-7.1,15.9-15.9,15.9H32.7c-8.8,0-15.9-7.1-15.9-15.9V19.4
	C16.8,10.6,23.9,3.5,32.7,3.5z"/>
<path class="st1" d="M34.4,12.9h204.8c3.7,0,6.8,3,6.8,6.8v114.9c0,3.7-3,6.8-6.8,6.8H34.4c-3.7,0-6.7-3-6.7-6.8v-115
	C27.7,15.9,30.7,12.9,34.4,12.9z"/>
<path class="st0" d="M262.9,169.6H5.8c-2.7,0-4.8-2.2-4.8-4.8v-1.7c0-2.7,2.2-4.8,4.8-4.8h257c2.7,0,4.8,2.2,4.8,4.8v1.7
	C267.7,167.4,265.5,169.6,262.9,169.6z"/>
</svg>
