<?xml version="1.0" encoding="utf-8"?>
<!-- Generator: Adobe Illustrator 25.4.0, SVG Export Plug-In . SVG Version: 6.00 Build 0)  -->
<svg version="1.1" id="Layer_1" xmlns="http://www.w3.org/2000/svg" xmlns:xlink="http://www.w3.org/1999/xlink" x="0px" y="0px"
	 viewBox="0 0 592.3 253" style="enable-background:new 0 0 592.3 253;" xml:space="preserve">
<style type="text/css">
	.st0{clip-path:url(#SVGID_00000096023132483940704650000002469809140360318863_);}
	.st1{fill:#FFFFFF;stroke:#202123;stroke-width:2;stroke-linecap:round;stroke-linejoin:round;}
	.st2{fill:#E8E8E8;}
	.st3{fill:#202123;}
	.st4{fill:#F9F9F9;stroke:#202123;stroke-width:2;stroke-linecap:round;stroke-linejoin:round;}
	.st5{fill:#89A6F5;stroke:#000000;stroke-width:2;stroke-linecap:round;stroke-linejoin:round;}
	.st6{fill:none;stroke:#202123;stroke-width:2;stroke-linecap:round;stroke-linejoin:round;}
	.st7{fill:#F5C43C;stroke:#000000;stroke-width:2;stroke-miterlimit:10;}
	.st8{fill:#F53B69;stroke:#000000;stroke-width:2;stroke-miterlimit:10;}
	.st9{stroke:#000000;stroke-width:2;stroke-miterlimit:10;}
	.st10{clip-path:url(#SVGID_00000020360476614325523370000015886372399522972862_);}
	.st11{fill:#F5C43C;stroke:#000000;stroke-width:2;stroke-linecap:round;stroke-linejoin:round;}
	.st12{fill:#FFFFFF;}
	.st13{fill:#89A6F5;stroke:#000000;stroke-width:2;stroke-miterlimit:10;}
	.st14{fill:#F9F9F9;stroke:#202123;stroke-width:2;stroke-miterlimit:10;}
</style>
<g>
	<defs>
		<circle id="SVGID_1_" cx="477" cy="123.8" r="110.5"/>
	</defs>
	<clipPath id="SVGID_00000148632827750022733650000000857406864022475907_">
		<use xlink:href="#SVGID_1_"  style="overflow:visible;"/>
	</clipPath>
	<g style="clip-path:url(#SVGID_00000148632827750022733650000000857406864022475907_);">
		<path class="st1" d="M454.7,129c-0.3,7-1.3,24.3-3.8,34.5c-0.3,1.2-1,2.3-2.1,3.1l-15.3,10.6c-2.4,1.7-3,4.9-1.3,7.3
			c0.8,1.2,2.1,2,3.5,2.2l78.8,11.8c2.9,0.4,5.5-1.6,5.9-4.5c0.2-1.3-0.1-2.7-0.9-3.8l-16.8-23.2c-0.4-0.6-0.7-1.3-0.9-2.1
			c-1.2-6.3-6.9-36.9-3.3-49c3.3-11.5-30.6,3.8-40.8,8.7C455.9,125.4,454.8,127.1,454.7,129z"/>
		<path class="st2" d="M454.7,129.7c0,0,8.2,19.8,23.8,19.4s19-18,19-18L454.7,129.7z"/>
		<path class="st3" d="M445.4,113.6c0,0-5-25-8.5-32.6s-6.4-41.4,32.3-43.1c0,0,14.9,1.8,23-3.2c0,0,0,5-2,6.7
			c8.9-1.6,18,1.6,23.9,8.5c10.5,11.6-7,52.4-6.1,62L445.4,113.6z"/>
		<path class="st1" d="M476.6,141.4c-11.2-0.2-31.9-15.2-31.9-33.7V78.8c0-6.8,4.7-12.3,10.5-12.3h42.9c5.8,0,10.5,5.5,10.5,12.3
			v27.3C508.6,125.5,489.6,141.6,476.6,141.4z"/>
		<path class="st3" d="M444.7,94.2c0,0,0.1-17.4,13.8-20s44.6,8.5,48.9-4.2s-59.5-12.5-62.8-4.4S444.7,94.2,444.7,94.2z"/>
		<path class="st4" d="M546.8,248.2H401l-0.7-0.8c3.7-33.2,11.6-72.9,17.8-75.5c0,0,0.7-0.3,2.1-0.7l0,0c6.7-2,13.6-3.5,20.5-4.5
			h0.1c2.9-0.5,6.1-0.9,9.6-1.2c2.4,3.6,5.2,7,8.3,9.9c9.3,9,23.8,9.5,33.7,1.2c3.6-3.1,6.8-6.7,9.6-10.5c3.2,0.4,6.5,0.8,9.8,1.3
			c8.1,1.2,16.7,3,25.6,5.2c1.1,0.3,2.1,0.5,3.2,0.8l0,0c0.4,0.1,0.8,0.2,1.3,0.3c0,0,0.1,0.4,0.4,3.1l0,0
			C542.8,182.7,544.2,199.8,546.8,248.2z"/>
		<path class="st5" d="M419.3,171.4h-0.1c-0.8,0.2-1.5,0.4-2.2,0.6l-0.2,0h-0.1h-0.1c-7.3,2.5-25.2,11.5-50.1,42.7
			c-2.5,3.2-3,7.5-1.2,11.1c6.5,13.1,19.6,21.6,34.2,22.2h0.8h39.5c0.4-24.6,0.7-46.1,0.9-60.8c0.1-6.5,0.1-11.7,0.2-15.2
			s0.1-5.5,0.1-5.5h-0.1C433.5,167.6,426.3,169.2,419.3,171.4z"/>
		<path class="st5" d="M541.9,173.7c-1.3-0.5-2.6-0.9-4-1.1l0,0c-8.6-2.2-17.3-4-26.1-5.2l0,0c0,0.2,0,4.6,0.1,12.3l0,0
			c0,4.9,0.1,11.2,0.2,18.5c0.1,13.6,0.3,30.9,0.6,50.1h41.9c0.7,0,1.3,0,2,0c14.3-0.7,27.1-9,33.6-21.7c2-4,1.5-8.9-1.4-12.4
			C565.8,185.4,549.4,176.4,541.9,173.7z"/>
	</g>
</g>
<path class="st6" d="M531.2,27.5c43.6,24.6,65.3,75.4,52.8,123.8"/>
<path class="st6" d="M443.4,18.5c19.8-6.3,41-6.9,61.1-1.7"/>
<path class="st6" d="M369.9,96.4c7.1-28,25-52.1,49.8-67"/>
<path class="st6" d="M546.1,210.1c-47.6,38.2-117.2,30.5-155.4-17.1c-0.4-0.5-0.8-1-1.1-1.4"/>
<path class="st4" d="M478.1,182.1c0,0,13.5-2.7,14.4,12.6l11.7-28.8c0,0,1.8-6.3-3.6-9.9L478.1,182.1z"/>
<path class="st4" d="M475.7,182.1c0,0-15.9-0.9-15.6,11.7l-11.4-27.9c0,0-1.8-6.3,3.6-9.9L475.7,182.1z"/>
<circle class="st7" cx="394.4" cy="51.4" r="6.8"/>
<circle class="st8" cx="356.6" cy="184.6" r="5"/>
<path class="st9" d="M557.9,115.7h-4.8v-4.8c0-0.4-0.3-0.7-0.7-0.7c-0.4,0-0.7,0.3-0.7,0.7v4.8h-4.8c-0.4,0-0.7,0.3-0.7,0.7
	c0,0.4,0.3,0.7,0.7,0.7h4.8v4.8c0,0.4,0.3,0.7,0.7,0.7c0.4,0,0.7-0.3,0.7-0.7v-4.8h4.8c0.4,0,0.7-0.3,0.7-0.7
	C558.7,116,558.4,115.7,557.9,115.7z"/>
<g>
	<defs>
		<circle id="SVGID_00000053542468567113548060000007573330998243114421_" cx="143.3" cy="123.8" r="122.8"/>
	</defs>
	<clipPath id="SVGID_00000093878451655740289880000014356164996820045212_">
		<use xlink:href="#SVGID_00000053542468567113548060000007573330998243114421_"  style="overflow:visible;"/>
	</clipPath>
	<g style="clip-path:url(#SVGID_00000093878451655740289880000014356164996820045212_);">
		<path class="st1" d="M118.1,128.8c0,0-1,29.9-4.8,43.2l-30.2,21.1l113.8,17l-27.1-37.5c0,0-8.2-40-3.9-54.8
			S118.1,128.8,118.1,128.8z"/>
		<path class="st2" d="M117.9,132.9c0,0,9,21.7,26,21.2s20.8-19.6,20.8-19.6L117.9,132.9z"/>
		<path class="st3" d="M149.1,32.6c42.4,1.8,39.2,38.9,35.3,47.1s-7.4,27.4-7.4,27.4l-70,1c1-10.5-19-36.6-5-58
			c5.2-8.3,14.3-13.5,24.1-13.7C126.2,36.4,137.4,32.1,149.1,32.6z"/>
		<path class="st1" d="M141.9,145.7c-12.3-0.2-34.9-16.6-34.9-36.8V77.2c0-7.4,5.2-13.5,11.5-13.5h46.9c6.3,0,11.5,6.1,11.5,13.5
			v29.8C176.8,128.4,156,146,141.9,145.7z"/>
		<path class="st3" d="M179.1,83.1c0,0-5-6.1-20-9s-53.3-4.3-48-18c12-31,59.7-2.1,63.2,6.8S179.1,83.1,179.1,83.1z"/>
		<path class="st4" d="M213.3,181L213.3,181c-1.6-0.6-3.2-1.1-4.8-1.3v0c-11.5-2.9-23.2-5.1-35-6.7c-1.2-0.2-2.5-0.3-3.7-0.5
			c-7.5,9.9-13.5,14.5-19.7,17.6c-1.4,0.7-2.8,1.3-4.2,1.9c-1.2,0.5-2.5,1-3.8,1.6c-1.7-0.2-3.3-0.6-4.8-1.2
			c-0.9-0.3-1.8-0.7-2.7-1.1c-12-5.7-21.1-19-21.1-19.4c-1.7,0.2-3.3,0.4-4.9,0.6c-9.5,1.1-18.9,3-28.1,5.7l0,0
			c-0.9,0.1-31.9,4.4-79.3,76c7.1,19.7,25.7,32.8,46.6,32.8h190.6c2.2,0,4.5-0.2,6.7-0.5c18.5-2.5,34-15.3,40.1-32.9
			C249.2,199.2,223.6,184.8,213.3,181z"/>
		<path class="st11" d="M127.5,295.6h26.1c-2.8-33.8-5.6-67.5-7-84.5c-0.3-3.5-0.5-6.3-0.7-8.2l0,0c3-2.1,5.5-6.1,7-8.8
			c0.6-1,0.2-2.2-0.7-2.7c-0.3-0.1-0.5-0.2-0.8-0.3c-7.4-0.7-19.4,0.5-19.4,0.5c-4,0.3,0.1,7,5,10.5c-0.2,1.6-0.5,4.1-0.9,7.5
			C134.3,225.8,130.6,260.5,127.5,295.6z"/>
		<path class="st4" d="M143.6,190.6c0,0,15-3,16,14l13-32c0,0,2-7-4-11L143.6,190.6z"/>
		<path class="st4" d="M140.9,190.6c0,0-17.6-1-17.3,13l-12.7-31c0,0-2-7,4-11L140.9,190.6z"/>
	</g>
</g>
<path class="st6" d="M139.2,1.1c55.6-1.9,105.4,33.8,121.6,87"/>
<path class="st6" d="M50.6,43.3c15.1-17.4,34.9-30.2,57-36.9"/>
<path class="st6" d="M25.8,159.5c-9.4-30.7-6.3-63.9,8.5-92.3"/>
<path class="st6" d="M258.7,165.8c-23.2,63.7-93.6,96.6-157.3,73.5c-0.6-0.2-1.3-0.5-1.9-0.7"/>
<path class="st3" d="M146.6,144h0.2c0.6-0.1,1.2-0.3,1.9-0.4l0.2-0.1c0.6-0.2,1.3-0.4,1.9-0.6l0.2-0.1c0.6-0.2,1.3-0.5,1.9-0.8
	l0.2-0.1c0.7-0.3,1.4-0.6,2-1l0.1,0c8.7-4.8,15.7-12.3,19.8-21.4c-8,5.8-16.2,1.1-16.2,1.1h-0.1c-1.9-5.5-7-9.3-12.9-9.3h-5.7
	c-5.8,0-11,3.8-12.9,9.3l0,0c-7.5,4.8-18.9-4.9-18.9-4.9l0.1,0.4l0,0.1c3.1,9.2,10.4,17.1,18,22.2l0,0l0.1,0.1
	c2,1.3,4.1,2.5,6.2,3.5h0.1c1.9,0.9,3.9,1.5,5.9,2h0.1c0.6,0.1,1.2,0.2,1.7,0.3h0.2c0.5,0.1,1.1,0.1,1.6,0.1c0.6,0,1.3,0,1.9-0.1
	h0.1C145.3,144.2,145.9,144.1,146.6,144z"/>
<path class="st12" d="M146.5,123.2h-6.8c-1.6,0-3.5-2.5-3.5-4.1c0,0,2-1.6,3.5-1.6h6.8c1.6,0,3.8,1.3,4.2,2.2
	C150.7,119.7,149.7,123.2,146.5,123.2z"/>
<circle class="st7" cx="242.1" cy="128.1" r="7.5"/>
<circle class="st13" cx="51.1" cy="60.1" r="5.5"/>
<path class="st9" d="M263.5,112h-3.8v-3.8c0-0.3-0.3-0.6-0.6-0.6c-0.3,0-0.6,0.3-0.6,0.6c0,0,0,0,0,0v3.8h-3.8
	c-0.3,0-0.6,0.3-0.6,0.6c0,0.3,0.3,0.6,0.6,0.6h3.8v3.8c0,0.3,0.3,0.6,0.6,0.6c0.3,0,0.6-0.3,0.6-0.6v-3.8h3.8
	c0.3,0,0.6-0.3,0.6-0.6C264.1,112.3,263.8,112,263.5,112z"/>
<path class="st9" d="M42.5,180h-3.8v-3.8c0-0.3-0.3-0.6-0.6-0.6c-0.3,0-0.6,0.3-0.6,0.6v3.8h-3.8c-0.3,0-0.6,0.3-0.6,0.6
	c0,0.3,0.3,0.6,0.6,0.6h3.8v3.8c0,0.3,0.3,0.6,0.6,0.6c0.3,0,0.6-0.3,0.6-0.6l0,0v-3.8h3.8c0.3,0,0.6-0.3,0.6-0.6
	C43.1,180.3,42.8,180,42.5,180z"/>
<path d="M302.9,123.1h-15.2c-1.1-0.2-1.8-1.3-1.5-2.4c0.2-0.8,0.8-1.4,1.5-1.5h15.2c1.1-0.2,2.1,0.5,2.4,1.5
	c0.2,1.1-0.5,2.1-1.5,2.4C303.5,123.1,303.2,123.1,302.9,123.1z"/>
<path d="M302.9,131.1h-3.8c-1.1-0.2-1.8-1.3-1.5-2.4c0.2-0.8,0.8-1.4,1.5-1.5h3.8c1.1-0.2,2.1,0.5,2.4,1.5c0.2,1.1-0.5,2.1-1.5,2.4
	C303.5,131.2,303.2,131.2,302.9,131.1z"/>
<path d="M283.8,131.1h-18.5c-1.1,0.2-2.1-0.5-2.4-1.5c-0.2-1.1,0.5-2.1,1.5-2.4c0.3-0.1,0.6-0.1,0.8,0h18.5c1.1,0.2,1.8,1.3,1.5,2.4
	C285.2,130.4,284.6,131,283.8,131.1z"/>
<path d="M302.9,139.2h-15.2c-1.1-0.2-1.8-1.3-1.6-2.4c0.2-0.8,0.8-1.4,1.6-1.6h15.2c1.1-0.2,2.1,0.5,2.4,1.6s-0.5,2.1-1.6,2.4
	C303.5,139.3,303.2,139.3,302.9,139.2z"/>
<path d="M278.4,139.2h-7.6c-1.1-0.2-1.8-1.3-1.6-2.4c0.2-0.8,0.8-1.4,1.6-1.6h7.6c1.1,0.2,1.8,1.3,1.6,2.4
	C279.8,138.5,279.2,139.1,278.4,139.2z"/>
<path d="M302.9,147.4h-19c-1.1-0.2-1.8-1.3-1.5-2.4c0.2-0.8,0.8-1.4,1.5-1.5h19c1.1-0.2,2.1,0.5,2.4,1.5c0.2,1.1-0.5,2.1-1.5,2.4
	C303.5,147.4,303.2,147.4,302.9,147.4z"/>
<path d="M302.9,155.4h-4.7c-1.1-0.2-1.8-1.3-1.5-2.4c0.2-0.8,0.8-1.4,1.5-1.5h4.7c1.1-0.2,2.1,0.5,2.4,1.5c0.2,1.1-0.5,2.1-1.5,2.4
	C303.5,155.5,303.2,155.5,302.9,155.4z"/>
<path d="M292.5,155.4h-16.2c-1.1-0.2-1.8-1.3-1.5-2.4c0.2-0.8,0.8-1.4,1.5-1.5h16.2c1.1,0.2,1.8,1.3,1.5,2.4
	C293.9,154.7,293.3,155.3,292.5,155.4z"/>
<path d="M302.9,163.5h-10.4c-1.1,0.2-2.1-0.5-2.4-1.5c-0.2-1.1,0.5-2.1,1.5-2.4c0.3-0.1,0.6-0.1,0.8,0h10.4c1.1-0.2,2.1,0.5,2.4,1.5
	c0.2,1.1-0.5,2.1-1.5,2.4C303.5,163.6,303.2,163.6,302.9,163.5z"/>
<path class="st14" d="M320.6,113.7h75.2c4,0,7.2,3.2,7.2,7.2v39.4c0,4-3.2,7.2-7.2,7.2h-75.2c-4,0-7.2-3.2-7.2-7.2v-39.4
	C313.4,116.9,316.6,113.7,320.6,113.7z"/>
<path class="st6" d="M315.3,115.3l38.7,31.1c2.4,1.9,5.8,2,8.2,0l38.9-31"/>
<line class="st6" x1="315.1" y1="164.8" x2="346.1" y2="140.5"/>
<line class="st6" x1="400.6" y1="165.5" x2="370.5" y2="140.7"/>
</svg>
