<svg id="Layer_1" data-name="Layer 1" xmlns="http://www.w3.org/2000/svg" viewBox="0 0 89.92 38.31"><defs><style>.cls-1{fill:#89a6f5;stroke:#000;stroke-miterlimit:10;stroke-width:2px;}</style></defs><title>1_arrowBlue</title><path class="cls-1" d="M670.55,294.59l-13.81-7.94a2.28,2.28,0,0,0-3.42,2v6.3a1.63,1.63,0,0,1-1.64,1.64H600.17a2.63,2.63,0,0,0-2.63,2.63v10.5a2.63,2.63,0,0,0,2.63,2.62h51.51a1.63,1.63,0,0,1,1.64,1.64v6.41a2.28,2.28,0,0,0,3.42,2l13.79-7.94,13.79-7.94a2.28,2.28,0,0,0,0-4Z" transform="translate(-596.54 -285.34)"/></svg>