<svg id="Layer_1" data-name="Layer 1" xmlns="http://www.w3.org/2000/svg" viewBox="0 0 89.92 38.31"><defs><style>.cls-1{fill:#f5c43c;stroke:#000;stroke-miterlimit:10;stroke-width:2px;}</style></defs><title>1_arrowYellow</title><path class="cls-1" d="M612.45,676.6l13.81-8a2.28,2.28,0,0,1,3.42,2v6.3a1.63,1.63,0,0,0,1.64,1.64h51.51a2.63,2.63,0,0,1,2.63,2.63v10.5a2.62,2.62,0,0,1-2.63,2.62H631.32a1.64,1.64,0,0,0-1.64,1.64v6.41a2.28,2.28,0,0,1-3.42,2l-13.79-7.94-13.79-7.93a2.28,2.28,0,0,1,0-4Z" transform="translate(-596.54 -667.35)"/></svg>