<svg id="Layer_1" data-name="Layer 1" xmlns="http://www.w3.org/2000/svg" xmlns:xlink="http://www.w3.org/1999/xlink" viewBox="0 0 592.34 594.6"><defs><style>.cls-1,.cls-8{fill:none;}.cls-2{clip-path:url(#clip-path);}.cls-14,.cls-3{fill:#fff;}.cls-16,.cls-19,.cls-20,.cls-3,.cls-6,.cls-8{stroke:#202123;}.cls-13,.cls-3,.cls-6,.cls-7,.cls-8{stroke-linecap:round;stroke-linejoin:round;}.cls-10,.cls-11,.cls-13,.cls-15,.cls-16,.cls-19,.cls-20,.cls-3,.cls-6,.cls-7,.cls-8,.cls-9{stroke-width:2px;}.cls-4{fill:#e8e8e8;}.cls-5{fill:#202123;}.cls-16,.cls-6{fill:#f9f9f9;}.cls-15,.cls-19,.cls-7{fill:#89a6f5;}.cls-10,.cls-11,.cls-13,.cls-15,.cls-7,.cls-9{stroke:#000;}.cls-13,.cls-20,.cls-9{fill:#f5c43c;}.cls-10,.cls-11,.cls-15,.cls-16,.cls-19,.cls-20,.cls-9{stroke-miterlimit:10;}.cls-10{fill:#f53b69;}.cls-12{clip-path:url(#clip-path-2);}.cls-17{clip-path:url(#clip-path-3);}.cls-18{clip-path:url(#clip-path-4);}</style><clipPath id="clip-path" transform="translate(-323.42 -222.65)"><circle class="cls-1" cx="800.39" cy="346.47" r="110.51"/></clipPath><clipPath id="clip-path-2" transform="translate(-323.42 -222.65)"><circle class="cls-1" cx="466.72" cy="346.47" r="122.78"/></clipPath><clipPath id="clip-path-3" transform="translate(-323.42 -222.65)"><circle class="cls-1" cx="794.21" cy="644.47" r="110.51"/></clipPath><clipPath id="clip-path-4" transform="translate(-323.42 -222.65)"><circle class="cls-1" cx="466.72" cy="644.47" r="122.78"/></clipPath></defs><title>1_human</title><g class="cls-2"><path class="cls-3" d="M778.12,351.66c-.33,7-1.34,24.34-3.75,34.47a5.16,5.16,0,0,1-2.1,3.06L757,399.83a5.25,5.25,0,0,0,2.23,9.5L838,421.11a5.26,5.26,0,0,0,5-8.28l-16.83-23.25a5.4,5.4,0,0,1-.9-2.07c-1.22-6.29-6.86-36.9-3.34-49,3.35-11.52-30.6,3.82-40.82,8.67A5.23,5.23,0,0,0,778.12,351.66Z" transform="translate(-323.42 -222.65)"/><path class="cls-4" d="M778.09,352.31s8.24,19.82,23.75,19.39,19-18,19-18Z" transform="translate(-323.42 -222.65)"/><path class="cls-5" d="M768.83,336.26s-5-25-8.5-32.58-6.41-41.36,32.33-43.11c0,0,14.86,1.75,23-3.2,0,0,0,4.95-2,6.7a25.77,25.77,0,0,1,23.89,8.45c10.48,11.65-7,52.43-6.12,62Z" transform="translate(-323.42 -222.65)"/><path class="cls-3" d="M800.06,364c-11.24-.2-31.93-15.17-31.93-33.7V301.42c0-6.76,4.72-12.3,10.49-12.3H821.5c5.76,0,10.48,5.54,10.48,12.3V328.7C832,348.14,813,364.26,800.06,364Z" transform="translate(-323.42 -222.65)"/><path class="cls-5" d="M768.13,316.86s.06-17.37,13.83-20,44.56,8.46,48.93-4.21-59.54-12.45-62.76-4.36S768.13,316.86,768.13,316.86Z" transform="translate(-323.42 -222.65)"/><path class="cls-6" d="M870.17,470.84H724.45l-.74-.81c3.72-33.22,11.56-72.86,17.84-75.49,0,0,.72-.27,2.11-.71h0a143.19,143.19,0,0,1,20.5-4.52h.07q4.41-.69,9.6-1.22a52,52,0,0,0,8.34,9.91,25.2,25.2,0,0,0,33.7,1.17,64.87,64.87,0,0,0,9.59-10.51q4.79.56,9.79,1.33c8.12,1.25,16.67,2.95,25.61,5.2,1.06.26,2.12.53,3.19.82h0c.43.1.85.22,1.27.33,0,0,.1.44.36,3.06h0C866.27,405.33,867.58,422.43,870.17,470.84Z" transform="translate(-323.42 -222.65)"/><path class="cls-7" d="M742.7,394l-.11,0a21.25,21.25,0,0,0-2.22.65l-.16.05-.13,0-.09,0c-7.32,2.54-25.16,11.53-50.1,42.69a10.42,10.42,0,0,0-1.2,11.15,39.88,39.88,0,0,0,34.15,22.16l.78,0h39.51c.42-24.65.72-46.1.9-60.8.08-6.5.14-11.67.18-15.23s.06-5.51.06-5.51h-.07A153.26,153.26,0,0,0,742.7,394Z" transform="translate(-323.42 -222.65)"/><path class="cls-7" d="M865.37,396.33a24.12,24.12,0,0,0-4-1.14h0A234.35,234.35,0,0,0,835.29,390h0c0,.21,0,4.65.09,12.31h0c0,4.91.1,11.16.16,18.45.13,13.59.32,30.85.58,50.09H878c.66,0,1.31,0,2,0a39.92,39.92,0,0,0,33.59-21.69,11.55,11.55,0,0,0-1.36-12.42C889.22,408,872.81,399.08,865.37,396.33Z" transform="translate(-323.42 -222.65)"/></g><path class="cls-8" d="M854.63,250.16A110.55,110.55,0,0,1,907.42,374" transform="translate(-323.42 -222.65)"/><path class="cls-8" d="M766.79,241.18a110,110,0,0,1,61.1-1.74" transform="translate(-323.42 -222.65)"/><path class="cls-8" d="M693.36,319a110.08,110.08,0,0,1,49.75-67" transform="translate(-323.42 -222.65)"/><path class="cls-8" d="M869.5,432.7A110.52,110.52,0,0,1,713,414.14" transform="translate(-323.42 -222.65)"/><path class="cls-6" d="M801.56,404.77s13.5-2.7,14.4,12.6l11.7-28.8s1.8-6.3-3.6-9.9Z" transform="translate(-323.42 -222.65)"/><path class="cls-6" d="M799.15,404.77s-15.88-.9-15.59,11.7l-11.41-27.9s-1.8-6.3,3.6-9.9Z" transform="translate(-323.42 -222.65)"/><circle class="cls-9" cx="394.43" cy="51.39" r="6.75"/><circle class="cls-10" cx="356.63" cy="184.59" r="4.95"/><path class="cls-11" d="M881.37,338.34h-4.84V333.5a.73.73,0,0,0-1.46,0v4.84h-4.84a.73.73,0,0,0,0,1.46h4.84v4.84a.73.73,0,1,0,1.46,0V339.8h4.84a.73.73,0,0,0,0-1.46Z" transform="translate(-323.42 -222.65)"/><g class="cls-12"><path class="cls-3" d="M441.5,351.41s-1,29.85-4.78,43.22l-30.24,21.09,113.82,17-27.14-37.51s-8.2-40-3.9-54.83S441.5,351.41,441.5,351.41Z" transform="translate(-323.42 -222.65)"/><path class="cls-4" d="M441.34,355.53s9,21.67,26,21.19,20.81-19.65,20.81-19.65Z" transform="translate(-323.42 -222.65)"/><path class="cls-5" d="M472.55,255.25c42.36,1.8,39.17,38.85,35.34,47.12s-7.38,27.38-7.38,27.38l-70,1c.95-10.51-19-36.56-5-58a29.12,29.12,0,0,1,24.12-13.68S460.8,254.75,472.55,255.25Z" transform="translate(-323.42 -222.65)"/><path class="cls-3" d="M465.35,368.35c-12.29-.22-34.9-16.58-34.9-36.84V299.9c0-7.39,5.16-13.45,11.46-13.45h46.87c6.31,0,11.47,6.06,11.47,13.45v29.83C500.25,351,479.44,368.6,465.35,368.35Z" transform="translate(-323.42 -222.65)"/><path class="cls-5" d="M502.51,305.75s-5-6.08-20-9-53.29-4.34-48-18c12-31,59.69-2.09,63.21,6.75S502.51,305.75,502.51,305.75Z" transform="translate(-323.42 -222.65)"/><path class="cls-6" d="M536.75,403.66l0,0a21,21,0,0,0-4.85-1.31v.05a300.33,300.33,0,0,0-35-6.67c-1.25-.17-2.48-.31-3.69-.46-7.47,9.93-13.45,14.45-19.73,17.61-1.39.7-2.79,1.33-4.24,1.94-1.25.52-2.52,1-3.84,1.56a24,24,0,0,1-4.84-1.22c-.9-.32-1.79-.7-2.67-1.11-12-5.68-21.13-19-21.13-19.4-1.68.17-3.32.36-4.9.56a165.74,165.74,0,0,0-28.07,5.72h0c-.88.11-31.88,4.37-79.31,76a49.56,49.56,0,0,0,46.64,32.79H561.75a51.21,51.21,0,0,0,6.71-.45,49.62,49.62,0,0,0,40.14-32.92C572.66,421.86,547,407.44,536.75,403.66Z" transform="translate(-323.42 -222.65)"/><path class="cls-13" d="M450.91,518.25h26.15c-2.75-33.78-5.57-67.55-7-84.52-.29-3.49-.52-6.27-.69-8.19h0c3-2.09,5.53-6.12,7-8.78a2,2,0,0,0-1.56-3c-7.35-.74-19.42.47-19.42.47-4,.31.08,7,5,10.52-.19,1.62-.48,4.15-.85,7.45C457.75,448.41,454,483.14,450.91,518.25Z" transform="translate(-323.42 -222.65)"/><path class="cls-6" d="M467,413.25s15-3,16,14l13-32s2-7-4-11Z" transform="translate(-323.42 -222.65)"/><path class="cls-6" d="M464.33,413.25s-17.64-1-17.32,13l-12.68-31s-2-7,4-11Z" transform="translate(-323.42 -222.65)"/></g><path class="cls-8" d="M462.59,223.72a122.84,122.84,0,0,1,121.61,87" transform="translate(-323.42 -222.65)"/><path class="cls-8" d="M374,265.93A122.29,122.29,0,0,1,431,229" transform="translate(-323.42 -222.65)"/><path class="cls-8" d="M349.25,382.18a122.43,122.43,0,0,1,8.52-92.34" transform="translate(-323.42 -222.65)"/><path class="cls-8" d="M582.13,388.41a122.79,122.79,0,0,1-159.25,72.75" transform="translate(-323.42 -222.65)"/><path class="cls-5" d="M470,366.64l.22,0c.62-.12,1.25-.26,1.88-.44l.25-.07c.63-.18,1.26-.38,1.9-.61l.25-.09c.64-.24,1.29-.51,1.94-.8l.2-.09c.67-.3,1.35-.63,2-1l.09-.05a46,46,0,0,0,19.8-21.4c-8,5.8-16.22,1.08-16.22,1.08h-.07a13.64,13.64,0,0,0-12.89-9.3h-5.67a13.64,13.64,0,0,0-12.89,9.3h0c-7.51,4.79-18.86-4.89-18.86-4.89l.11.39.05.13c3.09,9.25,10.36,17.11,18,22.17h0l.11.07a45.28,45.28,0,0,0,6.24,3.46l.06,0a30.24,30.24,0,0,0,5.94,2l.13,0q.89.19,1.74.3l.16,0a16.12,16.12,0,0,0,1.65.13,17.2,17.2,0,0,0,1.88-.08h.14Q469,366.82,470,366.64Z" transform="translate(-323.42 -222.65)"/><path class="cls-14" d="M469.89,345.81h-6.8c-1.56,0-3.55-2.55-3.55-4.11,0,0,2-1.56,3.55-1.56h6.8c1.56,0,3.84,1.3,4.2,2.22C474.09,342.36,473.15,345.81,469.89,345.81Z" transform="translate(-323.42 -222.65)"/><circle class="cls-9" cx="242.08" cy="128.1" r="7.5"/><circle class="cls-15" cx="51.08" cy="60.1" r="5.5"/><path class="cls-11" d="M586.92,334.67h-3.84v-3.84a.58.58,0,1,0-1.16,0v3.84h-3.84a.58.58,0,1,0,0,1.16h3.84v3.84a.58.58,0,0,0,1.16,0v-3.84h3.84a.58.58,0,0,0,0-1.16Z" transform="translate(-323.42 -222.65)"/><path class="cls-11" d="M365.92,402.67h-3.84v-3.84a.58.58,0,1,0-1.16,0v3.84h-3.84a.58.58,0,1,0,0,1.16h3.84v3.84a.58.58,0,1,0,1.16,0v-3.84h3.84a.58.58,0,1,0,0-1.16Z" transform="translate(-323.42 -222.65)"/><path d="M626.37,345.71H611.22a2,2,0,0,1,0-3.91h15.15a2,2,0,1,1,0,3.91Z" transform="translate(-323.42 -222.65)"/><path d="M626.37,353.8h-3.83a2,2,0,0,1,0-3.91h3.83a2,2,0,1,1,0,3.91Z" transform="translate(-323.42 -222.65)"/><path d="M607.22,353.8H588.73a2,2,0,1,1,0-3.91h18.49a2,2,0,0,1,0,3.91Z" transform="translate(-323.42 -222.65)"/><path d="M626.37,361.9H611.22a2,2,0,0,1,0-3.92h15.15a2,2,0,1,1,0,3.92Z" transform="translate(-323.42 -222.65)"/><path d="M601.82,361.9h-7.57a2,2,0,0,1,0-3.92h7.57a2,2,0,0,1,0,3.92Z" transform="translate(-323.42 -222.65)"/><path d="M626.37,370h-19a2,2,0,0,1,0-3.91h19a2,2,0,1,1,0,3.91Z" transform="translate(-323.42 -222.65)"/><path d="M626.37,378.08h-4.7a2,2,0,0,1,0-3.91h4.7a2,2,0,1,1,0,3.91Z" transform="translate(-323.42 -222.65)"/><path d="M615.93,378.08h-16.2a2,2,0,0,1,0-3.91h16.2a2,2,0,0,1,0,3.91Z" transform="translate(-323.42 -222.65)"/><path d="M626.37,386.17H615.93a2,2,0,1,1,0-3.91h10.44a2,2,0,1,1,0,3.91Z" transform="translate(-323.42 -222.65)"/><rect class="cls-16" x="313.36" y="113.66" width="89.72" height="53.94" rx="7.25"/><path class="cls-8" d="M638.73,337.93,677.46,369a6.46,6.46,0,0,0,8.15.05L724.54,338" transform="translate(-323.42 -222.65)"/><line class="cls-8" x1="315.15" y1="164.8" x2="346.08" y2="140.5"/><line class="cls-8" x1="400.61" y1="165.47" x2="370.53" y2="140.67"/><g class="cls-17"><path class="cls-3" d="M771.94,649.66c-.33,7.05-1.34,24.34-3.75,34.48a5.17,5.17,0,0,1-2.1,3.05l-15.24,10.64a5.25,5.25,0,0,0,2.23,9.5l78.71,11.78a5.25,5.25,0,0,0,5-8.27L820,687.58a5.12,5.12,0,0,1-.9-2.07c-1.23-6.29-6.86-36.89-3.34-49,3.34-11.52-30.6,3.82-40.83,8.67A5.23,5.23,0,0,0,771.94,649.66Z" transform="translate(-323.42 -222.65)"/><path class="cls-4" d="M771.91,650.31s8.24,19.82,23.75,19.39,19-18,19-18Z" transform="translate(-323.42 -222.65)"/><path class="cls-5" d="M762.66,634.26s-5-25-8.51-32.58-6.41-41.36,32.33-43.1c0,0,14.86,1.74,23-3.21,0,0,0,5-2,6.7a25.77,25.77,0,0,1,23.89,8.45c10.48,11.65-7,52.43-6.12,62Z" transform="translate(-323.42 -222.65)"/><path class="cls-3" d="M793.88,662c-11.24-.2-31.92-15.17-31.92-33.7V599.42c0-6.76,4.72-12.3,10.48-12.3h42.88c5.77,0,10.48,5.54,10.48,12.3v27.29C825.8,646.14,806.77,662.26,793.88,662Z" transform="translate(-323.42 -222.65)"/><path class="cls-5" d="M762,614.86s.06-17.37,13.82-20,44.56,8.47,48.93-4.2-59.54-12.46-62.75-4.37S762,614.86,762,614.86Z" transform="translate(-323.42 -222.65)"/><path class="cls-6" d="M864,768.84H718.27l-.74-.81c3.73-33.22,11.56-72.86,17.84-75.49,0,0,.72-.27,2.11-.7h0a143.53,143.53,0,0,1,20.5-4.52h.07c2.94-.45,6.14-.87,9.6-1.22A52.38,52.38,0,0,0,776,696a25.21,25.21,0,0,0,33.7,1.16,64.87,64.87,0,0,0,9.59-10.51c3.19.38,6.46.81,9.79,1.33,8.12,1.25,16.68,2.95,25.61,5.2,1.06.26,2.13.54,3.19.82h0l1.27.34s.1.44.36,3h0C860.1,703.33,861.4,720.43,864,768.84Z" transform="translate(-323.42 -222.65)"/><path class="cls-7" d="M736.52,692l-.11,0a19.17,19.17,0,0,0-2.22.64l-.16,0a.38.38,0,0,1-.13,0l-.09,0c-7.32,2.54-25.16,11.54-50.09,42.69a10.41,10.41,0,0,0-1.21,11.15,39.89,39.89,0,0,0,34.15,22.16l.78,0H757c.42-24.65.72-46.1.9-60.8.08-6.49.14-11.67.19-15.23s.05-5.51.05-5.51H758A153.59,153.59,0,0,0,736.52,692Z" transform="translate(-323.42 -222.65)"/><path class="cls-7" d="M859.19,694.34a22,22,0,0,0-4-1.14h0A234.35,234.35,0,0,0,829.11,688h0c0,.21,0,4.65.09,12.32h0c0,4.92.1,11.16.17,18.45.13,13.59.31,30.85.57,50.09h41.87c.66,0,1.31,0,2-.05a39.9,39.9,0,0,0,33.59-21.69A11.57,11.57,0,0,0,906,734.68C883.05,706,866.63,697.08,859.19,694.34Z" transform="translate(-323.42 -222.65)"/></g><path class="cls-8" d="M848.45,548.16A110.55,110.55,0,0,1,901.24,672" transform="translate(-323.42 -222.65)"/><path class="cls-8" d="M760.61,539.18a110,110,0,0,1,61.1-1.74" transform="translate(-323.42 -222.65)"/><path class="cls-8" d="M687.18,617a110.14,110.14,0,0,1,49.75-67" transform="translate(-323.42 -222.65)"/><path class="cls-8" d="M863.32,730.7a110.53,110.53,0,0,1-156.48-18.55" transform="translate(-323.42 -222.65)"/><path class="cls-6" d="M795.38,702.77s13.5-2.7,14.4,12.6l11.7-28.8s1.8-6.3-3.6-9.9Z" transform="translate(-323.42 -222.65)"/><path class="cls-6" d="M793,702.77s-15.88-.9-15.59,11.7L766,686.57s-1.8-6.3,3.6-9.9Z" transform="translate(-323.42 -222.65)"/><circle class="cls-9" cx="533.65" cy="437.6" r="6.75"/><circle class="cls-10" cx="403.55" cy="366.2" r="4.95"/><path class="cls-11" d="M888.6,637.85h-4.85V633a.73.73,0,0,0-.73-.73.73.73,0,0,0-.72.73v4.85h-4.85a.73.73,0,0,0-.73.72.73.73,0,0,0,.73.73h4.85v4.85a.72.72,0,0,0,.72.72.73.73,0,0,0,.73-.72V639.3h4.85a.73.73,0,0,0,.72-.73A.72.72,0,0,0,888.6,637.85Z" transform="translate(-323.42 -222.65)"/><g class="cls-18"><path class="cls-3" d="M441.5,649.41s-1,29.85-4.78,43.22l-30.24,21.1,113.82,17-27.14-37.51s-8.2-40-3.9-54.83S441.5,649.41,441.5,649.41Z" transform="translate(-323.42 -222.65)"/><path class="cls-4" d="M441.34,653.53s9,21.67,26,21.19,20.81-19.65,20.81-19.65Z" transform="translate(-323.42 -222.65)"/><path class="cls-5" d="M472.55,553.25c42.36,1.8,39.17,38.85,35.35,47.13s-7.39,27.37-7.39,27.37l-70,1c.95-10.51-19-36.55-5-58a29.15,29.15,0,0,1,24.12-13.68S460.8,552.76,472.55,553.25Z" transform="translate(-323.42 -222.65)"/><path class="cls-3" d="M465.35,666.35c-12.29-.22-34.9-16.58-34.9-36.83V597.91c0-7.4,5.16-13.45,11.46-13.45h46.87c6.31,0,11.47,6,11.47,13.45v29.82C500.25,649,479.44,666.6,465.35,666.35Z" transform="translate(-323.42 -222.65)"/><path class="cls-5" d="M502.51,603.75s-5-6.08-20-9-53.29-4.34-48-18c12-31,59.69-2.09,63.21,6.75S502.51,603.75,502.51,603.75Z" transform="translate(-323.42 -222.65)"/><path class="cls-6" d="M536.75,701.66h0a20.79,20.79,0,0,0-4.85-1.32v.06a298.39,298.39,0,0,0-35-6.68l-3.69-.45c-7.47,9.92-13.45,14.45-19.73,17.6-1.39.7-2.79,1.33-4.24,1.94-1.25.52-2.52,1-3.84,1.56a24,24,0,0,1-4.84-1.22,27.88,27.88,0,0,1-2.67-1.11c-12-5.68-21.13-19-21.13-19.4-1.68.17-3.32.36-4.9.56a167,167,0,0,0-28.07,5.72h0c-.88.11-31.88,4.38-79.31,76.05a49.56,49.56,0,0,0,46.64,32.79H561.75a49.5,49.5,0,0,0,46.85-33.37C572.66,719.87,547,705.44,536.75,701.66Z" transform="translate(-323.42 -222.65)"/><path class="cls-13" d="M450.91,816.25h26.15c-2.75-33.78-5.56-67.55-7-84.51-.29-3.5-.52-6.28-.69-8.2h0c3-2.09,5.53-6.12,7-8.77a2,2,0,0,0-1.56-3c-7.35-.74-19.42.47-19.42.47-4,.31.08,7,5,10.52-.19,1.62-.48,4.15-.85,7.45C457.75,746.41,454,781.14,450.91,816.25Z" transform="translate(-323.42 -222.65)"/><path class="cls-6" d="M467,711.25s15-3,16,14l13-32s2-7-4-11Z" transform="translate(-323.42 -222.65)"/><path class="cls-6" d="M464.33,711.25s-17.64-1-17.32,13l-12.68-31s-2-7,4-11Z" transform="translate(-323.42 -222.65)"/></g><path class="cls-8" d="M367.1,572.64A122.83,122.83,0,0,1,510.35,529.7" transform="translate(-323.42 -222.65)"/><path class="cls-8" d="M346.3,668.53A122.32,122.32,0,0,1,352,600.84" transform="translate(-323.42 -222.65)"/><path class="cls-8" d="M423.1,759.24A122.38,122.38,0,0,1,355.28,696" transform="translate(-323.42 -222.65)"/><path class="cls-8" d="M570.5,578.84a122.79,122.79,0,0,1-39.87,170.48" transform="translate(-323.42 -222.65)"/><path class="cls-5" d="M470,664.64l.22,0c.62-.12,1.25-.27,1.88-.45l.25-.06c.63-.18,1.26-.39,1.9-.62l.25-.09c.64-.24,1.29-.51,1.94-.8l.2-.08c.67-.31,1.35-.64,2-1l.09,0a46,46,0,0,0,19.8-21.4c-8,5.8-16.22,1.08-16.22,1.08h-.06a13.66,13.66,0,0,0-12.9-9.3h-5.67a13.64,13.64,0,0,0-12.89,9.3h0c-7.51,4.8-18.86-4.89-18.86-4.89l.11.39.05.13c3.09,9.26,10.36,17.11,18,22.17h0l.11.07a45.28,45.28,0,0,0,6.24,3.46l.06,0a30.24,30.24,0,0,0,5.94,2l.13,0c.59.13,1.17.23,1.74.31h.16a16.12,16.12,0,0,0,1.65.13c.61,0,1.24,0,1.88-.07h.14Q469,664.82,470,664.64Z" transform="translate(-323.42 -222.65)"/><path class="cls-14" d="M469.89,643.81h-6.8c-1.56,0-3.55-2.55-3.55-4.11,0,0,2-1.56,3.55-1.56h6.8c1.56,0,3.84,1.3,4.2,2.22C474.09,640.36,473.15,643.81,469.89,643.81Z" transform="translate(-323.42 -222.65)"/><circle class="cls-9" cx="207.08" cy="398.35" r="7.5"/><circle class="cls-15" cx="51.08" cy="358.1" r="5.5"/><path class="cls-11" d="M557.92,603.67h-3.84v-3.84a.58.58,0,1,0-1.16,0v3.84h-3.84a.58.58,0,1,0,0,1.16h3.84v3.84a.58.58,0,1,0,1.16,0v-3.84h3.84a.58.58,0,1,0,0-1.16Z" transform="translate(-323.42 -222.65)"/><path class="cls-11" d="M393.92,674.67h-3.84v-3.84a.58.58,0,1,0-1.16,0v3.84h-3.84a.58.58,0,1,0,0,1.16h3.84v3.84a.58.58,0,0,0,1.16,0v-3.84h3.84a.58.58,0,0,0,0-1.16Z" transform="translate(-323.42 -222.65)"/><path class="cls-19" d="M723.69,624.54H682.3a4.91,4.91,0,0,0-4.9,4.9v39.47c0,2.14,2.74,2.67,4,.93l6-8.58a4.39,4.39,0,0,1,3.59-1.87h31.26a5.28,5.28,0,0,0,5.26-5.26V628.35A3.82,3.82,0,0,0,723.69,624.54Z" transform="translate(-323.42 -222.65)"/><circle class="cls-14" cx="366.59" cy="419.27" r="3.08"/><circle class="cls-14" cx="377.48" cy="419.27" r="3.08"/><circle class="cls-14" cx="388.37" cy="419.27" r="3.08"/><path class="cls-20" d="M600.59,573h55.23a6.54,6.54,0,0,1,6.54,6.54v52.67c0,2.86-3.66,3.56-5.34,1.24l-8-11.44a5.83,5.83,0,0,0-4.79-2.5H602.52a7,7,0,0,1-7-7v-34.4A5.09,5.09,0,0,1,600.59,573Z" transform="translate(-323.42 -222.65)"/><circle class="cls-14" cx="322.11" cy="373.58" r="4.11"/><circle class="cls-14" cx="307.58" cy="373.58" r="4.11"/><circle class="cls-14" cx="293.04" cy="373.58" r="4.11"/></svg>