<svg id="Layer_1" data-name="Layer 1" xmlns="http://www.w3.org/2000/svg" xmlns:xlink="http://www.w3.org/1999/xlink" viewBox="0 0 591.6 609.41"><defs><style>.cls-1,.cls-10{fill:none;}.cls-2,.cls-8{fill:#f9f9f9;}.cls-3,.cls-5{fill:#fff;}.cls-4{clip-path:url(#clip-path);}.cls-10,.cls-5,.cls-8{stroke:#202123;}.cls-10,.cls-15,.cls-5,.cls-8,.cls-9{stroke-linecap:round;stroke-linejoin:round;}.cls-10,.cls-11,.cls-12,.cls-13,.cls-15,.cls-16,.cls-5,.cls-8,.cls-9{stroke-width:2px;}.cls-6{fill:#e8e8e8;}.cls-7{fill:#202123;}.cls-16,.cls-9{fill:#89a6f5;}.cls-11,.cls-12,.cls-13,.cls-15,.cls-16,.cls-9{stroke:#000;}.cls-11,.cls-15{fill:#f5c43c;}.cls-11,.cls-12,.cls-13,.cls-16{stroke-miterlimit:10;}.cls-12{fill:#f53b69;}.cls-14{clip-path:url(#clip-path-2);}.cls-17{clip-path:url(#clip-path-3);}.cls-18{clip-path:url(#clip-path-4);}.cls-19{clip-path:url(#clip-path-5);}</style><clipPath id="clip-path" transform="translate(-1073.84 -193.45)"><circle class="cls-1" cx="1367.42" cy="685.14" r="103.71"/></clipPath><clipPath id="clip-path-2" transform="translate(-1073.84 -193.45)"><circle class="cls-1" cx="1367.43" cy="309.72" r="115.24"/></clipPath><clipPath id="clip-path-3" transform="translate(-1073.84 -193.45)"><circle class="cls-1" cx="1553.73" cy="497.44" r="103.71"/></clipPath><clipPath id="clip-path-4" transform="translate(-1073.84 -193.45)"><circle class="cls-2" cx="1181.13" cy="497.44" r="103.71"/></clipPath><clipPath id="clip-path-5" transform="translate(-1073.84 -193.45)"><circle class="cls-1" cx="1181.13" cy="497.44" r="103.71"/></clipPath></defs><title>2_human</title><circle class="cls-3" cx="293.58" cy="491.68" r="103.71"/><g class="cls-4"><path class="cls-5" d="M1346.52,690c-.31,6.61-1.26,22.84-3.52,32.35a4.8,4.8,0,0,1-2,2.87l-14.3,10a4.93,4.93,0,0,0,2.09,8.92l73.87,11.06a4.93,4.93,0,0,0,4.73-7.77l-15.8-21.82a4.85,4.85,0,0,1-.84-2c-1.15-5.9-6.44-34.62-3.14-46,3.14-10.81-28.72,3.59-38.32,8.13A4.93,4.93,0,0,0,1346.52,690Z" transform="translate(-1073.84 -193.45)"/><path class="cls-6" d="M1346.49,690.62s7.73,18.6,22.29,18.19,17.87-16.87,17.87-16.87Z" transform="translate(-1073.84 -193.45)"/><path class="cls-7" d="M1337.81,675.55s-4.7-23.46-8-30.57-6-38.82,30.35-40.46c0,0,13.94,1.64,21.59-3,0,0,0,4.65-1.91,6.29a24.16,24.16,0,0,1,22.42,7.93c9.84,10.93-6.56,49.21-5.74,58.23Z" transform="translate(-1073.84 -193.45)"/><path class="cls-5" d="M1367.11,701.62c-10.55-.18-30-14.23-30-31.62V642.86c0-6.35,4.43-11.55,9.84-11.55h40.24c5.41,0,9.84,5.2,9.84,11.55v25.6C1397.07,686.7,1379.21,701.84,1367.11,701.62Z" transform="translate(-1073.84 -193.45)"/><path class="cls-7" d="M1337.15,657.35s.06-16.31,13-18.82,41.83,8,45.93-3.94-55.88-11.68-58.9-4.1S1337.15,657.35,1337.15,657.35Z" transform="translate(-1073.84 -193.45)"/><path class="cls-8" d="M1432.91,801.87H1296.15l-.69-.77c3.49-31.18,10.84-68.38,16.73-70.85,0,0,.68-.25,2-.66h0a133.88,133.88,0,0,1,19.25-4.24h.06c2.76-.42,5.77-.81,9-1.14a49.43,49.43,0,0,0,7.83,9.3,23.66,23.66,0,0,0,31.63,1.1,60.66,60.66,0,0,0,9-9.87c3,.36,6.06.76,9.19,1.25,7.62,1.17,15.65,2.77,24,4.88,1,.25,2,.5,3,.77h0l1.19.32s.09.41.33,2.86h0C1429.26,740.38,1430.48,756.43,1432.91,801.87Z" transform="translate(-1073.84 -193.45)"/><path class="cls-9" d="M1313.28,729.76a.29.29,0,0,0-.1,0,18.58,18.58,0,0,0-2.09.6l-.15.05-.12,0-.08,0c-6.88,2.38-23.62,10.82-47,40.06a9.8,9.8,0,0,0-1.14,10.47,37.45,37.45,0,0,0,32.05,20.79l.74,0c.26,0,.52,0,.78,0h36.3c.4-23.14.67-43.27.85-57.07.08-6.1.13-10.95.17-14.29s0-5.18,0-5.18h-.06A143,143,0,0,0,1313.28,729.76Z" transform="translate(-1073.84 -193.45)"/><path class="cls-9" d="M1428.41,731.94a20.11,20.11,0,0,0-3.72-1.07h0a219.7,219.7,0,0,0-24.48-4.9h0c0,.2,0,4.37.08,11.56h0c0,4.61.09,10.47.16,17.31.12,12.76.29,28.95.53,47h39.3c.62,0,1.23,0,1.84,0a37.47,37.47,0,0,0,31.53-20.37,10.81,10.81,0,0,0-1.28-11.64C1450.8,742.89,1435.39,734.52,1428.41,731.94Z" transform="translate(-1073.84 -193.45)"/></g><path class="cls-10" d="M1418.33,594.75A103.75,103.75,0,0,1,1467.87,711" transform="translate(-1073.84 -193.45)"/><path class="cls-10" d="M1335.88,586.32a103.2,103.2,0,0,1,57.35-1.64" transform="translate(-1073.84 -193.45)"/><path class="cls-10" d="M1267,659.32a103.37,103.37,0,0,1,46.69-62.88" transform="translate(-1073.84 -193.45)"/><path class="cls-10" d="M1432.29,766.07a103.73,103.73,0,0,1-146.87-17.42" transform="translate(-1073.84 -193.45)"/><path class="cls-8" d="M1368.52,739.85s12.67-2.53,13.51,11.83l11-27s1.69-5.91-3.37-9.29Z" transform="translate(-1073.84 -193.45)"/><path class="cls-8" d="M1366.25,739.85s-14.9-.84-14.63,11l-10.71-26.19s-1.69-5.91,3.38-9.29Z" transform="translate(-1073.84 -193.45)"/><circle class="cls-11" cx="364.78" cy="506.49" r="6.34"/><circle class="cls-12" cx="222.02" cy="442.29" r="4.65"/><path class="cls-13" d="M1313.35,664.84h-4.55v-4.55a.69.69,0,0,0-1.37,0v4.55h-4.54a.68.68,0,1,0,0,1.36h4.54v4.55a.69.69,0,1,0,1.37,0V666.2h4.55a.68.68,0,0,0,0-1.36Z" transform="translate(-1073.84 -193.45)"/><circle class="cls-2" cx="293.59" cy="116.27" r="115.24"/><g class="cls-14"><path class="cls-5" d="M1343.76,314.36s-.91,28-4.49,40.56l-28.38,19.8,106.83,16-25.48-35.21s-7.69-37.56-3.66-51.45S1343.76,314.36,1343.76,314.36Z" transform="translate(-1073.84 -193.45)"/><path class="cls-6" d="M1343.61,318.23s8.44,20.33,24.36,19.88,19.53-18.44,19.53-18.44Z" transform="translate(-1073.84 -193.45)"/><path class="cls-7" d="M1372.9,224.11c39.75,1.68,36.76,36.46,33.17,44.23s-6.93,25.69-6.93,25.69l-65.7.94c.9-9.86-17.84-34.31-4.69-54.44a27.34,27.34,0,0,1,22.64-12.83S1361.87,223.64,1372.9,224.11Z" transform="translate(-1073.84 -193.45)"/><path class="cls-5" d="M1366.14,330.25c-11.53-.2-32.75-15.55-32.75-34.56V266c0-6.94,4.84-12.62,10.76-12.62h44c5.91,0,10.75,5.68,10.75,12.62v28C1398.89,313.94,1379.37,330.49,1366.14,330.25Z" transform="translate(-1073.84 -193.45)"/><path class="cls-7" d="M1401,271.5s-4.65-5.7-18.77-8.44-50-4.07-45-16.9c11.26-29.09,56-1.95,59.32,6.34S1401,271.5,1401,271.5Z" transform="translate(-1073.84 -193.45)"/><path class="cls-8" d="M1433.15,363.4a.05.05,0,0,0,0,0,19.68,19.68,0,0,0-4.55-1.23v.05a283.16,283.16,0,0,0-32.86-6.27l-3.46-.42c-7,9.31-12.62,13.56-18.51,16.52-1.31.66-2.63,1.25-4,1.82-1.17.49-2.37,1-3.6,1.46a21.82,21.82,0,0,1-4.55-1.14,25.85,25.85,0,0,1-2.5-1c-11.3-5.33-19.83-17.87-19.83-18.21-1.59.16-3.12.34-4.6.53a155.33,155.33,0,0,0-26.35,5.37h0c-.83.1-29.92,4.1-74.43,71.37A46.51,46.51,0,0,0,1277.65,463h179a46.54,46.54,0,0,0,44-31.32C1466.86,380.48,1442.74,367,1433.15,363.4Z" transform="translate(-1073.84 -193.45)"/><path class="cls-15" d="M1352.59,470.94h24.54c-2.58-31.7-5.22-63.4-6.55-79.32-.28-3.28-.5-5.89-.65-7.69h0c2.77-2,5.19-5.74,6.57-8.23a1.91,1.91,0,0,0-1.46-2.84c-6.9-.7-18.23.44-18.23.44-3.76.29.08,6.55,4.68,9.87-.17,1.52-.44,3.9-.79,7C1359,405.4,1355.48,438,1352.59,470.94Z" transform="translate(-1073.84 -193.45)"/><path class="cls-8" d="M1367.7,372.4s14.08-2.82,15,13.14l12.2-30s1.87-6.57-3.76-10.32Z" transform="translate(-1073.84 -193.45)"/><path class="cls-8" d="M1365.18,372.4s-16.55-.94-16.25,12.2L1337,355.5s-1.88-6.57,3.75-10.32Z" transform="translate(-1073.84 -193.45)"/></g><path class="cls-10" d="M1273.93,242.31A115.3,115.3,0,0,1,1408.38,202" transform="translate(-1073.84 -193.45)"/><path class="cls-10" d="M1254.41,332.3a114.73,114.73,0,0,1,5.3-63.52" transform="translate(-1073.84 -193.45)"/><path class="cls-10" d="M1326.49,417.44a114.83,114.83,0,0,1-63.65-59.35" transform="translate(-1073.84 -193.45)"/><path class="cls-10" d="M1464.83,248.12a115.26,115.26,0,0,1-37.42,160" transform="translate(-1073.84 -193.45)"/><path class="cls-7" d="M1370.46,328.66l.21,0c.58-.11,1.17-.25,1.76-.41l.23-.07c.6-.17,1.19-.36,1.79-.58l.23-.08q.91-.35,1.83-.75l.18-.08c.63-.29,1.27-.6,1.9-.93l.08-.05a43.23,43.23,0,0,0,18.59-20.08c-7.48,5.43-15.22,1-15.22,1H1382a12.81,12.81,0,0,0-12.1-8.73h-5.32a12.81,12.81,0,0,0-12.1,8.73h0c-7,4.5-17.7-4.59-17.7-4.59l.1.36.05.13c2.9,8.68,9.72,16.06,16.89,20.8h0a.47.47,0,0,1,.09.06,43.45,43.45,0,0,0,5.86,3.24l.06,0a29.56,29.56,0,0,0,5.57,1.89l.13,0a16.36,16.36,0,0,0,1.63.28l.15,0a14,14,0,0,0,1.55.12,17.61,17.61,0,0,0,1.76-.07h.13C1369.29,328.85,1369.87,328.76,1370.46,328.66Z" transform="translate(-1073.84 -193.45)"/><path class="cls-3" d="M1370.4,309.1H1364c-1.47,0-3.33-2.39-3.33-3.85a7,7,0,0,1,3.33-1.47h6.38c1.47,0,3.61,1.22,3.95,2.09C1374.35,305.87,1373.46,309.1,1370.4,309.1Z" transform="translate(-1073.84 -193.45)"/><circle class="cls-11" cx="353.44" cy="94.24" r="7.04"/><circle class="cls-16" cx="207.03" cy="56.47" r="5.16"/><path class="cls-13" d="M1453,271.43h-3.61v-3.61a.55.55,0,0,0-1.09,0v3.61h-3.61a.55.55,0,0,0,0,1.09h3.61v3.61a.55.55,0,0,0,1.09,0v-3.61H1453a.55.55,0,0,0,0-1.09Z" transform="translate(-1073.84 -193.45)"/><path class="cls-13" d="M1299.11,338.07h-3.61v-3.61a.55.55,0,0,0-1.09,0v3.61h-3.61a.54.54,0,0,0,0,1.08h3.61v3.61a.55.55,0,0,0,1.09,0v-3.61h3.61a.54.54,0,1,0,0-1.08Z" transform="translate(-1073.84 -193.45)"/><circle class="cls-2" cx="479.89" cy="303.99" r="103.71"/><g class="cls-17"><path class="cls-7" d="M1602.79,539.54c-4.75-5.7-7.6-43.69-7.6-79.78S1571.45,418,1562,418s-15.19,1.9-18.65,6.88c-9.84-1.18-32.64,9.27-28.84,34.91,4.11,27.72-5.69,78.83-5.69,78.83h64l.56,1.9Z" transform="translate(-1073.84 -193.45)"/><path class="cls-5" d="M1534.78,496.64s-.77,23.85-3.82,34.53L1506.8,548l90.94,13.61-21.69-30s-6.54-32-3.11-43.81S1534.78,496.64,1534.78,496.64Z" transform="translate(-1073.84 -193.45)"/><path class="cls-6" d="M1534.65,499.93s7.19,17.31,20.74,16.93,16.63-15.7,16.63-15.7Z" transform="translate(-1073.84 -193.45)"/><path class="cls-5" d="M1553.83,510.17C1544,510,1526,496.93,1526,480.74V455.49c0-5.91,4.12-10.75,9.16-10.75h37.45c5,0,9.16,4.84,9.16,10.75v23.82C1581.72,496.29,1565.09,510.37,1553.83,510.17Z" transform="translate(-1073.84 -193.45)"/><path class="cls-15" d="M1607,537.75h0a245.19,245.19,0,0,0-30.92-6.08c-8.44,11.2-14.49,14.2-22.22,17.25-12.41-1.72-22.87-17.4-22.87-17.75a128.08,128.08,0,0,0-26.35,5.4h0c-1.09.14-25.26,3.89-62.2,59a41.89,41.89,0,0,0,27.77,10.45h145c0-.13,0-.25,0-.38h17.1a42,42,0,0,0,32.17-14.92C1638.48,546.21,1607,537.75,1607,537.75Z" transform="translate(-1073.84 -193.45)"/><path class="cls-7" d="M1523.07,465.73s7.44-20.8,31.8-17.55,26.48,8,29.07,13.54-1.88-18.11-1.88-18.11l-19.27-9.94s-34.78,3.63-37.28,9L1523,448Z" transform="translate(-1073.84 -193.45)"/></g><path class="cls-10" d="M1469.58,436.77a103.78,103.78,0,0,1,121-36.28" transform="translate(-1073.84 -193.45)"/><path class="cls-10" d="M1452,517.76a103.35,103.35,0,0,1,4.77-57.17" transform="translate(-1073.84 -193.45)"/><path class="cls-10" d="M1516.88,594.39A103.38,103.38,0,0,1,1459.6,541" transform="translate(-1073.84 -193.45)"/><path class="cls-10" d="M1641.39,442a103.73,103.73,0,0,1-33.68,144" transform="translate(-1073.84 -193.45)"/><circle class="cls-12" cx="401.39" cy="266.45" r="5.49"/><circle class="cls-16" cx="544.99" cy="231.82" r="4.65"/><path class="cls-13" d="M1492.24,523H1489V519.7a.49.49,0,0,0-1,0V523h-3.24a.49.49,0,0,0,0,1H1488v3.25a.49.49,0,0,0,1,0v-3.25h3.25a.49.49,0,1,0,0-1Z" transform="translate(-1073.84 -193.45)"/><circle class="cls-2" cx="107.29" cy="303.99" r="103.71"/><g class="cls-18"><path class="cls-2" d="M1159.79,511.6c-.3,6.61-1.25,22.84-3.51,32.35a4.92,4.92,0,0,1-2,2.87l-14.31,10a4.93,4.93,0,0,0,2.09,8.92L1216,576.78a4.93,4.93,0,0,0,4.72-7.77l-15.79-21.83a5,5,0,0,1-.85-1.94c-1.14-5.9-6.43-34.63-3.13-46,3.14-10.81-28.72,3.59-38.32,8.14A4.92,4.92,0,0,0,1159.79,511.6Z" transform="translate(-1073.84 -193.45)"/><path class="cls-2" d="M1159.77,512.21s7.73,18.6,22.29,18.19,17.87-16.87,17.87-16.87Z" transform="translate(-1073.84 -193.45)"/><path class="cls-2" d="M1151.08,497.14s-4.7-23.47-8-30.57-6-38.82,30.35-40.46c0,0,13.94,1.64,21.59-3,0,0,0,4.65-1.91,6.29a24.17,24.17,0,0,1,22.42,7.93c9.84,10.93-6.57,49.2-5.75,58.22Z" transform="translate(-1073.84 -193.45)"/><path class="cls-2" d="M1180.39,523.21c-10.55-.19-30-14.23-30-31.62V464.45c0-6.36,4.43-11.55,9.84-11.55h40.24c5.41,0,9.84,5.19,9.84,11.55v25.6C1210.35,508.29,1192.49,523.42,1180.39,523.21Z" transform="translate(-1073.84 -193.45)"/><path class="cls-2" d="M1246.19,623.45H1109.42l-.69-.76c3.5-31.18,10.85-68.39,16.74-70.86,0,0,.68-.24,2-.65h0a133.64,133.64,0,0,1,19.24-4.24h.07q4.14-.64,9-1.15a49,49,0,0,0,7.83,9.31,23.65,23.65,0,0,0,31.62,1.1,61.08,61.08,0,0,0,9-9.87c3,.35,6,.76,9.19,1.25,7.62,1.17,15.64,2.76,24,4.88,1,.24,2,.5,3,.77h0l1.2.31s.09.42.33,2.87h0C1242.53,562,1243.76,578,1246.19,623.45Z" transform="translate(-1073.84 -193.45)"/><path class="cls-2" d="M1126.56,551.35l-.11,0a19.64,19.64,0,0,0-2.08.61l-.15,0-.12,0-.09,0c-6.87,2.39-23.61,10.83-47,40.07a9.8,9.8,0,0,0-1.14,10.47,37.45,37.45,0,0,0,32.05,20.79l.74,0h37.08c.39-23.14.67-43.27.85-57.06.07-6.1.13-10.95.17-14.3s0-5.17,0-5.17h-.07A143.12,143.12,0,0,0,1126.56,551.35Z" transform="translate(-1073.84 -193.45)"/><path class="cls-2" d="M1241.69,553.52a21.69,21.69,0,0,0-3.73-1.07h0a219.7,219.7,0,0,0-24.48-4.9h0c0,.19,0,4.36.08,11.56h0c0,4.61.09,10.47.15,17.32.12,12.75.3,28.95.54,47h39.3c.62,0,1.23,0,1.84,0A37.47,37.47,0,0,0,1286.89,603a10.81,10.81,0,0,0-1.27-11.65C1264.07,564.48,1248.67,556.1,1241.69,553.52Z" transform="translate(-1073.84 -193.45)"/><line class="cls-2" x1="78.2" y1="353.87" x2="99.32" y2="429.9"/><line class="cls-2" x1="135.64" y1="353.87" x2="110.3" y2="429.9"/></g><g class="cls-19"><path class="cls-5" d="M1159.79,511.6c-.3,6.61-1.25,22.84-3.51,32.35a4.92,4.92,0,0,1-2,2.87l-14.31,10a4.93,4.93,0,0,0,2.09,8.92L1216,576.78a4.93,4.93,0,0,0,4.72-7.77l-15.79-21.83a5,5,0,0,1-.85-1.94c-1.14-5.9-6.43-34.63-3.13-46,3.14-10.81-28.72,3.59-38.32,8.14A4.92,4.92,0,0,0,1159.79,511.6Z" transform="translate(-1073.84 -193.45)"/><path class="cls-6" d="M1159.77,512.21s7.73,18.6,22.29,18.19,17.87-16.87,17.87-16.87Z" transform="translate(-1073.84 -193.45)"/><path class="cls-7" d="M1151.08,497.14s-4.7-23.47-8-30.57-6-38.82,30.35-40.46c0,0,13.94,1.64,21.59-3,0,0,0,4.65-1.91,6.29a24.17,24.17,0,0,1,22.42,7.93c9.84,10.93-6.57,49.2-5.75,58.22Z" transform="translate(-1073.84 -193.45)"/><path class="cls-5" d="M1180.39,523.21c-10.55-.19-30-14.23-30-31.62V464.45c0-6.36,4.43-11.55,9.84-11.55h40.24c5.41,0,9.84,5.19,9.84,11.55v25.6C1210.35,508.29,1192.49,523.42,1180.39,523.21Z" transform="translate(-1073.84 -193.45)"/><path class="cls-15" d="M1246.19,623.45H1109.42l-.69-.76c3.5-31.18,10.85-68.39,16.74-70.86,0,0,.68-.24,2-.65h0a133.64,133.64,0,0,1,19.24-4.24h.07q4.14-.64,9-1.15a49,49,0,0,0,7.83,9.31,23.65,23.65,0,0,0,31.62,1.1,61.08,61.08,0,0,0,9-9.87c3,.35,6,.76,9.19,1.25,7.62,1.17,15.64,2.76,24,4.88,1,.24,2,.5,3,.77h0l1.2.31s.09.42.33,2.87h0C1242.53,562,1243.76,578,1246.19,623.45Z" transform="translate(-1073.84 -193.45)"/><path class="cls-8" d="M1126.56,551.35l-.11,0a19.64,19.64,0,0,0-2.08.61l-.15,0-.12,0-.09,0c-6.87,2.39-23.61,10.83-47,40.07a9.8,9.8,0,0,0-1.14,10.47,37.45,37.45,0,0,0,32.05,20.79l.74,0h37.08c.39-23.14.67-43.27.85-57.06.07-6.1.13-10.95.17-14.3s0-5.17,0-5.17h-.07A143.12,143.12,0,0,0,1126.56,551.35Z" transform="translate(-1073.84 -193.45)"/><path class="cls-8" d="M1241.69,553.52a21.69,21.69,0,0,0-3.73-1.07h0a219.7,219.7,0,0,0-24.48-4.9h0c0,.19,0,4.36.08,11.56h0c0,4.61.09,10.47.15,17.32.12,12.75.3,28.95.54,47h39.3c.62,0,1.23,0,1.84,0A37.47,37.47,0,0,0,1286.89,603a10.81,10.81,0,0,0-1.27-11.65C1264.07,564.48,1248.67,556.1,1241.69,553.52Z" transform="translate(-1073.84 -193.45)"/><line class="cls-9" x1="78.2" y1="353.87" x2="99.32" y2="429.9"/><line class="cls-9" x1="135.64" y1="353.87" x2="110.3" y2="429.9"/></g><path class="cls-10" d="M1188.86,394A103.77,103.77,0,0,1,1283,478.18" transform="translate(-1073.84 -193.45)"/><path class="cls-10" d="M1110.63,421.36a103.29,103.29,0,0,1,51.24-25.83" transform="translate(-1073.84 -193.45)"/><path class="cls-10" d="M1079.22,516.71A103.43,103.43,0,0,1,1094.81,440" transform="translate(-1073.84 -193.45)"/><path class="cls-10" d="M1274.22,543.19a103.74,103.74,0,0,1-140.37,46.57" transform="translate(-1073.84 -193.45)"/><circle class="cls-11" cx="41.46" cy="265.61" r="3.8"/><circle class="cls-16" cx="205.33" cy="320.51" r="4.65"/><path class="cls-13" d="M1102.74,427.51h-3.24v-3.25a.49.49,0,0,0-1,0v3.25h-3.25a.49.49,0,0,0,0,1h3.25v3.25a.49.49,0,0,0,1,0v-3.25h3.24a.49.49,0,1,0,0-1Z" transform="translate(-1073.84 -193.45)"/></svg>