<svg id="Layer_1" data-name="Layer 1" xmlns="http://www.w3.org/2000/svg" viewBox="0 0 428.12 428.12"><defs><style>.cls-1,.cls-2{fill:#89a6f5;stroke:#000;stroke-width:2px;}.cls-1{stroke-miterlimit:10;}.cls-2{stroke-linecap:round;stroke-linejoin:round;}</style></defs><title>2_rotationArrow</title><path class="cls-1" d="M1367.5,710.56c-117.48,0-213.06-95.58-213.06-213.06S1250,284.44,1367.5,284.44,1580.56,380,1580.56,497.5,1485,710.56,1367.5,710.56Zm0-410.12c-108.66,0-197.06,88.4-197.06,197.06s88.4,197.06,197.06,197.06,197.06-88.4,197.06-197.06S1476.16,300.44,1367.5,300.44Z" transform="translate(-1153.44 -283.44)"/><path class="cls-2" d="M1510.61,339.94l7.54-7.15a2.06,2.06,0,0,1,3.41,1l4,16.72,4,16.71a2.05,2.05,0,0,1-2.58,2.45l-16.48-4.89L1494,359.91a2.05,2.05,0,0,1-.83-3.46l6.07-5.76" transform="translate(-1153.44 -283.44)"/><path class="cls-2" d="M1524.31,640.19l7.14,7.53a2.05,2.05,0,0,1-1,3.41l-16.71,4-16.71,4a2.05,2.05,0,0,1-2.45-2.58l4.88-16.48,4.89-16.48a2.06,2.06,0,0,1,3.46-.83l5.75,6.07" transform="translate(-1153.44 -283.44)"/><path class="cls-2" d="M1226.45,656.72l-7.36,7.32a2.06,2.06,0,0,1-3.44-.93l-4.39-16.62-4.4-16.61a2.05,2.05,0,0,1,2.52-2.51l16.59,4.5,16.59,4.5a2.06,2.06,0,0,1,.91,3.44l-5.94,5.9" transform="translate(-1153.44 -283.44)"/><path class="cls-2" d="M1210.53,354l-7.32-7.37a2.06,2.06,0,0,1,.93-3.44l16.61-4.39,16.62-4.4a2.06,2.06,0,0,1,2.51,2.53l-4.5,16.58-4.5,16.59a2.05,2.05,0,0,1-3.44.91l-5.9-5.93" transform="translate(-1153.44 -283.44)"/></svg>