<svg id="Layer_1" data-name="Layer 1" xmlns="http://www.w3.org/2000/svg" viewBox="0 0 730.17 457"><defs><style>.cls-1{fill:#ebf5f7;stroke:#000;}.cls-1,.cls-2,.cls-26{stroke-miterlimit:10;}.cls-1,.cls-2{stroke-width:2px;}.cls-2,.cls-26{fill:#f9f9f9;stroke:#202123;}.cls-3{fill:#4e4e4e;}.cls-4{fill:#767677;}.cls-5{fill:#f37726;}.cls-6{fill:#9e9e9e;}.cls-7{fill:#616262;}.cls-8{fill:#a5aaaa;fill-opacity:0.39;fill-rule:evenodd;}.cls-9{fill:#f6bd3a;}.cls-10{fill:#eb8c23;}.cls-11{fill:#e35a2b;}.cls-12{fill:#ef6639;}.cls-13{fill:#a6a7a9;}.cls-14{fill:#b7b9bd;}.cls-15{fill:#246abf;}.cls-16{fill:#75aadb;}.cls-17{fill:#4d4d4d;}.cls-18{fill:#fff;}.cls-19{fill:#e25a1c;}.cls-20{fill:#3c3a3e;}.cls-21{fill:#df5843;}.cls-22{fill:#7b6b7c;}.cls-23{fill:#f2fbff;}.cls-24{fill:#3071a9;}.cls-25{fill:#fdffff;}.cls-26{stroke-width:3px;}</style></defs><title>2_program</title><rect class="cls-1" x="228.17" y="1" width="501" height="455" rx="20"/><rect class="cls-2" x="246.67" y="18" width="223.12" height="69.78" rx="21.5"/><path class="cls-3" d="M1201.9,341.94V326.17h3.44v17a10.31,10.31,0,0,1-2.26,7.7,8.75,8.75,0,0,1-5.85,2.12l-.36-2.56a5.58,5.58,0,0,0,3.75-1.44C1201.54,347.89,1201.9,346.43,1201.9,341.94Zm25.62-2a50.19,50.19,0,0,0,.16,5.12h-3.06l-.2-3.05a7.09,7.09,0,0,1-6.23,3.49c-3,0-6.51-1.62-6.51-8.2V326.33h3.43v10.25c0,3.57,1.1,5.95,4.21,5.95a4.73,4.73,0,0,0,1.86-.35,4.78,4.78,0,0,0,3-4.49V326.2h3.44v13.61Zm6.51-7.49c0-2.39,0-4.34-.15-6.1H1237l.15,3.2a7.44,7.44,0,0,1,6.72-3.64c4.56,0,8,3.82,8,9.51,0,6.72-4.13,10.05-8.59,10.05a6.63,6.63,0,0,1-3.3-.71,6.56,6.56,0,0,1-2.52-2.24v10.26H1234V332.43Zm3.39,5a8,8,0,0,0,.15,1.38,5.28,5.28,0,0,0,5.13,4c3.62,0,5.74-3,5.74-7.23,0-3.75-2-6.95-5.61-6.95a5.88,5.88,0,0,0-5.41,5.61ZM1258,326.31l4.13,11.05c.43,1.23.89,2.72,1.2,3.82.36-1.13.75-2.56,1.21-3.9l3.74-11h3.62l-5.13,13.33c-2.57,6.41-4.13,9.72-6.49,11.72a9.41,9.41,0,0,1-4.2,2.2l-.85-2.87a8.86,8.86,0,0,0,3-1.67,10.21,10.21,0,0,0,2.9-3.79,2.66,2.66,0,0,0,.28-.82,3.14,3.14,0,0,0-.23-.9l-7-17.25h3.75Zm23-5.38v5.38h4.92v2.57H1281V339c0,2.31.66,3.64,2.56,3.64a7.92,7.92,0,0,0,2-.23l.15,2.56a8.32,8.32,0,0,1-3,.46,4.61,4.61,0,0,1-2-.31,4.71,4.71,0,0,1-1.7-1.12,6.87,6.87,0,0,1-1.34-4.87V328.85h-2.92v-2.56h3v-4.57Zm11.25,15.35a6,6,0,0,0,.35,2.56,6,6,0,0,0,6.14,3.92,12.51,12.51,0,0,0,5.12-1l.59,2.56a15.37,15.37,0,0,1-6.28,1.16,8.72,8.72,0,0,1-6.81-2.59,8.74,8.74,0,0,1-2.47-6.85c0-5.64,3.36-10.1,8.85-10.1,6.15,0,7.69,5.38,7.69,8.82a14.06,14.06,0,0,1,0,1.59h-13.26Zm10-2.57a4.85,4.85,0,0,0-2.76-5.09,5,5,0,0,0-2-.45,5.67,5.67,0,0,0-5.26,5.54Zm8.34-1.57c0-2.21,0-4.1-.15-5.85h3.07V330h.16a5.63,5.63,0,0,1,1.91-2.87,5.55,5.55,0,0,1,3.21-1.23,3.22,3.22,0,0,1,1,0v3.2a5.82,5.82,0,0,0-1.18,0,4.8,4.8,0,0,0-4.59,4.36,8.56,8.56,0,0,0-.15,1.59v10h-3.39V332.16Z" transform="translate(-872.83 -284)"/><path class="cls-4" d="M1187.88,314.35a3.12,3.12,0,0,1-.42,1.77,3.16,3.16,0,0,1-1.33,1.23,3.11,3.11,0,0,1-1.8.28,3.16,3.16,0,0,1-1.64-.77,3.11,3.11,0,0,1-.85-3.37,3.11,3.11,0,0,1,6,.86Z" transform="translate(-872.83 -284)"/><path class="cls-5" d="M1169.7,350.36c-8.27,0-15.54-3-19.3-7.35a20.58,20.58,0,0,0,38.61,0C1185.26,347.39,1178,350.36,1169.7,350.36Z" transform="translate(-872.83 -284)"/><path class="cls-5" d="M1169.7,321.84c8.28,0,15.55,3,19.31,7.36a20.58,20.58,0,0,0-38.61,0C1154.16,324.81,1161.39,321.84,1169.7,321.84Z" transform="translate(-872.83 -284)"/><path class="cls-6" d="M1158.31,358.9a3.95,3.95,0,0,1-2.21,3.78,4,4,0,0,1-2.26.35,3.94,3.94,0,0,1-2.07-1,3.9,3.9,0,0,1-1.18-2,3.91,3.91,0,0,1,3.63-4.88,4,4,0,0,1,2.81,1,3.88,3.88,0,0,1,1.28,2.69Z" transform="translate(-872.83 -284)"/><path class="cls-7" d="M1151.34,320.85a2.28,2.28,0,0,1-1.27-.35,2.36,2.36,0,0,1-.86-1,2.28,2.28,0,0,1-.17-1.29,2.27,2.27,0,0,1,1.71-1.84,2.34,2.34,0,0,1,1.31.08,2.22,2.22,0,0,1,1,.8,2.13,2.13,0,0,1,.43,1.23,2.29,2.29,0,0,1-.61,1.63A2.32,2.32,0,0,1,1151.34,320.85Z" transform="translate(-872.83 -284)"/><rect class="cls-2" x="488.71" y="18" width="223.12" height="69.78" rx="21.5"/><path class="cls-8" d="M1422.43,315.22l16.83,9.52.18,6.64-11.17-5.47-.13,4.73,6,2.82.25,7.07-5.84-2.21.43,11.23-6.51-3.5Z" transform="translate(-872.83 -284)"/><path class="cls-8" d="M1378.28,327.17l21.7-12.38.47,6.3-6.78,4,.35,24.41-5.84,3.07-1-23.53-8.31,4.78-.53-6.37Z" transform="translate(-872.83 -284)"/><path class="cls-9" d="M1406.64,343.26l4.6-2.66,4.53,2.66-4.53,2.62-4.6-2.56Z" transform="translate(-872.83 -284)"/><path class="cls-9" d="M1392.83,335.37l18.41-10.46,13.7,7.79-4.56,7.9-9.14-5.23-13.8,7.83Z" transform="translate(-872.83 -284)"/><path class="cls-10" d="M1406.64,353.71V348.5l4.54-2.62,4.59-2.62v5.24l-4.53,2.61v5.21l-4.6,2.67Zm0-10.45-4.6-2.61-4.6,2.55V338l13.8-7.84V340.6Zm13.68-5.28v-2.61l4.62-2.67,0,5.23-4.6,2.67Z" transform="translate(-872.83 -284)"/><path class="cls-11" d="M1402,356.22V340.65l4.54-2.55.06,5.16,4.6,2.57v5.28l-4.6-2.45V359Zm-6.94-14.38-2.27-1.35v-5.12l4.61,2.61v5.22Zm16.14-6.47v-5.23l9.08,5.23.06,5.23Z" transform="translate(-872.83 -284)"/><path class="cls-12" d="M1456.44,328.83v16.26h-2.86V328.83H1448V326h14v2.81Z" transform="translate(-872.83 -284)"/><path class="cls-12" d="M1471.47,334.75a7.26,7.26,0,0,1,.23,2.14l-9.23,2.76a1.39,1.39,0,0,0,.27.89,3.45,3.45,0,0,0,1.91,1.94,3.59,3.59,0,0,0,1.25.23,4,4,0,0,0,1.64-.31,5.77,5.77,0,0,0,1.46-.83l1.67,1.77a6.65,6.65,0,0,1-4.94,1.89,5.55,5.55,0,0,1-2.38-.49,5.81,5.81,0,0,1-2-1.43A7,7,0,0,1,1460,341a9.38,9.38,0,0,1-.49-3.17,10,10,0,0,1,.46-3.24,7,7,0,0,1,1.28-2.32,5.32,5.32,0,0,1,2-1.42,6.36,6.36,0,0,1,2.56-.5,5.78,5.78,0,0,1,2.65.57,5.22,5.22,0,0,1,1.88,1.56A6.33,6.33,0,0,1,1471.47,334.75Zm-2.68.62a3.11,3.11,0,0,0-.66-1.44,2.22,2.22,0,0,0-1-.78,3.67,3.67,0,0,0-1.5-.21,3.23,3.23,0,0,0-2.5,1.08,5.65,5.65,0,0,0-.66,3.24Zm13.06,9.58v-8.11a4.6,4.6,0,0,0-.78-3.06,2.75,2.75,0,0,0-2.17-.87,2.68,2.68,0,0,0-2.17.94,4.21,4.21,0,0,0-.76,2.7V345h-2.81V330.62H1476V332a3.49,3.49,0,0,1,1.51-1.23,5,5,0,0,1,2.08-.44,4.55,4.55,0,0,1,3.8,1.62,7.45,7.45,0,0,1,1.3,4.8V345Zm14.35-3.77a4.29,4.29,0,0,1-.44,2,4.15,4.15,0,0,1-1.2,1.3,5.65,5.65,0,0,1-1.7.71,11.08,11.08,0,0,1-2,.21,8.57,8.57,0,0,1-2.93-.54,9.47,9.47,0,0,1-2.56-1.3l1.28-2.11a7.79,7.79,0,0,0,2.1,1.05,6.49,6.49,0,0,0,2.07.36c1.75,0,2.63-.53,2.63-1.58a1.51,1.51,0,0,0-.88-1.32,19.62,19.62,0,0,0-2.46-1.08,14.23,14.23,0,0,1-1.93-.89,5.21,5.21,0,0,1-1.32-1,3.21,3.21,0,0,1-.73-1.16,4.91,4.91,0,0,1-.21-1.47,3.7,3.7,0,0,1,.36-1.69,3.08,3.08,0,0,1,1-1.22,4,4,0,0,1,1.54-.75,7.78,7.78,0,0,1,2-.25,8.15,8.15,0,0,1,2.63.44,8.6,8.6,0,0,1,2.22,1.14l-1.22,2.15a7.55,7.55,0,0,0-1.78-.92,6.5,6.5,0,0,0-1.94-.29,2.34,2.34,0,0,0-1.49.37,1.14,1.14,0,0,0-.47.95.91.91,0,0,0,.11.47,1,1,0,0,0,.41.48,3.57,3.57,0,0,0,.8.52,14,14,0,0,0,1.32.59c.81.29,1.51.61,2.11.87a7.53,7.53,0,0,1,1.51,1,3.39,3.39,0,0,1,.91,1.26,4.22,4.22,0,0,1,.3,1.71Zm13.06-3.31a9.23,9.23,0,0,1-.5,3.18,6.74,6.74,0,0,1-1.35,2.39,6.13,6.13,0,0,1-2.05,1.45,6.55,6.55,0,0,1-2.57.52,5.94,5.94,0,0,1-2.5-.55,5.33,5.33,0,0,1-2-1.52A6.65,6.65,0,0,1,1497,341a8.76,8.76,0,0,1-.48-3.05,9.32,9.32,0,0,1,.49-3.14,7.13,7.13,0,0,1,1.34-2.34,5.87,5.87,0,0,1,2-1.48,6.34,6.34,0,0,1,2.52-.51,6.18,6.18,0,0,1,2.54.53,6.47,6.47,0,0,1,2,1.49,7,7,0,0,1,1.33,2.33,9,9,0,0,1,.48,3Zm-2.84.08a5.77,5.77,0,0,0-1-3.51,3.24,3.24,0,0,0-2.68-1.29,3,3,0,0,0-2.53,1.29,5.8,5.8,0,0,0-.92,3.43,5.71,5.71,0,0,0,1,3.61,3.15,3.15,0,0,0,2.58,1.27,2.77,2.77,0,0,0,1.46-.4,4.28,4.28,0,0,0,1.12-1,5.74,5.74,0,0,0,.7-1.52A6.66,6.66,0,0,0,1506.42,338Zm11.9-4.2a7.93,7.93,0,0,0-1-.37,4.16,4.16,0,0,0-1.2-.14,2.49,2.49,0,0,0-2.08.94,4.4,4.4,0,0,0-.73,2.73v8.18h-2.81V330.78h2.81v1.37a4,4,0,0,1,3.27-1.67,5.73,5.73,0,0,1,1.44.16,2.84,2.84,0,0,1,1,.44Z" transform="translate(-872.83 -284)"/><path class="cls-13" d="M1523,328.83v5h5.5v2.81H1523v8.46h-2.83V326h12.3v2.81Zm9.93,16.26v-18.4l2.81-1.47v19.87Zm17.13-7.22a9.24,9.24,0,0,1-.48,3.18,7.44,7.44,0,0,1-1.37,2.39,6,6,0,0,1-2,1.45,6.68,6.68,0,0,1-2.58.52,5.81,5.81,0,0,1-2.5-.55,5.18,5.18,0,0,1-2-1.52,7,7,0,0,1-1.34-2.34,9.25,9.25,0,0,1-.48-3.05,9.57,9.57,0,0,1,.5-3.14,6.53,6.53,0,0,1,1.36-2.34,5.92,5.92,0,0,1,2-1.48,6.63,6.63,0,0,1,2.55-.51,6,6,0,0,1,2.52.53,6.22,6.22,0,0,1,2,1.49,6.79,6.79,0,0,1,1.31,2.33,8.51,8.51,0,0,1,.48,3Zm-2.82.08a6,6,0,0,0-1-3.51,3.26,3.26,0,0,0-2.68-1.29,3,3,0,0,0-2.55,1.29,5.94,5.94,0,0,0-.91,3.43,5.53,5.53,0,0,0,1,3.61,3.14,3.14,0,0,0,2.59,1.27,2.66,2.66,0,0,0,1.43-.4,4.36,4.36,0,0,0,1.14-1,6.09,6.09,0,0,0,.71-1.52A8,8,0,0,0,1547.25,338Zm16.69,7.14h-2.4l-1.94-7.22c-.16-.54-.29-1.09-.41-1.68s-.24-1-.34-1.38c-.09.47-.19.93-.3,1.39s-.29,1.16-.41,1.71l-1.92,7.18h-2.41l-3.91-14.31h2.77l1.71,7c.13.57.26,1.16.38,1.74s.23,1.06.33,1.4l.36-1.4c.12-.58.26-1.17.42-1.74l1.92-7H1560l2,7c.13.55.26,1.12.4,1.7s.26,1,.34,1.4q.15-.53.33-1.41c.11-.57.23-1.16.38-1.73l1.71-7h2.77Z" transform="translate(-872.83 -284)"/><rect class="cls-2" x="488.71" y="104.15" width="223.12" height="69.78" rx="21.5"/><rect class="cls-2" x="488.71" y="190.29" width="223.12" height="69.78" rx="21.5"/><path class="cls-14" d="M1463.65,484c-17.13,0-31,9.38-31,21s13.88,20.95,31,20.95,31-9.38,31-20.95S1480.78,484,1463.65,484Zm4.19,36.88c-13,0-23.47-6.38-23.47-14.25s10.51-14.25,23.47-14.25,23.47,6.38,23.47,14.25S1480.81,520.89,1467.84,520.89Z" transform="translate(-872.83 -284)"/><path class="cls-15" d="M1480.42,516.7s9.22.84,9.22-9.22-8.39-10.06-8.39-10.06h-23.46v35.21h11.73V519.22h5a26.11,26.11,0,0,1,6.7,13.41h9.59a1.46,1.46,0,0,0,1.33-2C1487.18,519,1480.42,516.7,1480.42,516.7Zm-.84-9a3.09,3.09,0,0,1-3.1,3.09h-7v-6.7h7a3.1,3.1,0,0,1,3.1,3.1Z" transform="translate(-872.83 -284)"/><rect class="cls-2" x="488.71" y="275.58" width="223.12" height="69.78" rx="21.5"/><path class="cls-14" d="M1463.65,569.3c-17.13,0-31,9.38-31,21s13.88,21,31,21,31-9.39,31-21S1480.78,569.3,1463.65,569.3Zm4.19,36.88c-13,0-23.47-6.38-23.47-14.25s10.51-14.25,23.47-14.25,23.47,6.38,23.47,14.25S1480.81,606.18,1467.84,606.18Z" transform="translate(-872.83 -284)"/><path class="cls-15" d="M1480.42,602s9.22.83,9.22-9.22-8.39-10.06-8.39-10.06h-23.46v35.2h11.73V604.5h5a26.11,26.11,0,0,1,6.7,13.41h9.59a1.46,1.46,0,0,0,1.33-2C1487.18,604.24,1480.42,602,1480.42,602Zm-.84-9a3.1,3.1,0,0,1-3.1,3.1h-7v-6.71h7a3.1,3.1,0,0,1,3.1,3.1Z" transform="translate(-872.83 -284)"/><rect class="cls-2" x="246.67" y="104.15" width="223.12" height="69.78" rx="21.5"/><path class="cls-3" d="M1201.9,428.08V412.32h3.44v17a10.43,10.43,0,0,1-.35,4.08,10.29,10.29,0,0,1-1.91,3.61,8.76,8.76,0,0,1-5.85,2.13l-.36-2.56a5.63,5.63,0,0,0,3.75-1.44C1201.54,434,1201.9,432.57,1201.9,428.08Zm25.62-2a50.4,50.4,0,0,0,.16,5.13h-3.06l-.2-3.05a7.15,7.15,0,0,1-6.23,3.49c-3,0-6.51-1.62-6.51-8.21V412.47h3.43v10.26c0,3.56,1.1,5.95,4.21,5.95a4.93,4.93,0,0,0,1.86-.36,4.8,4.8,0,0,0,1.58-1.05,4.76,4.76,0,0,0,1.4-3.44V412.35h3.44V426Zm6.51-7.49c0-2.38,0-4.33-.15-6.1H1237l.15,3.21a7.44,7.44,0,0,1,6.72-3.64c4.56,0,8,3.82,8,9.51,0,6.72-4.13,10.05-8.59,10.05a6.74,6.74,0,0,1-3.3-.71,6.64,6.64,0,0,1-2.52-2.24v10.26H1234V418.57Zm3.39,5a8.1,8.1,0,0,0,.15,1.39,5.29,5.29,0,0,0,5.13,4c3.62,0,5.74-2.95,5.74-7.23,0-3.74-2-6.95-5.61-6.95a6,6,0,0,0-3.77,1.79,5.88,5.88,0,0,0-1.64,3.83ZM1258,412.45l4.13,11.05c.43,1.24.89,2.72,1.2,3.83.36-1.13.75-2.57,1.21-3.9l3.74-11h3.62l-5.13,13.34c-2.57,6.41-4.13,9.71-6.49,11.71a9.33,9.33,0,0,1-4.2,2.21l-.85-2.87a9,9,0,0,0,3-1.67,10.37,10.37,0,0,0,2.9-3.79,2.75,2.75,0,0,0,.28-.82,3.06,3.06,0,0,0-.23-.9l-7-17.26h3.75Zm23-5.37v5.38h4.92V415H1281v10.11c0,2.3.66,3.64,2.56,3.64a7.92,7.92,0,0,0,2-.23l.15,2.56a8.32,8.32,0,0,1-3,.46,4.74,4.74,0,0,1-3.71-1.44,6.84,6.84,0,0,1-1.34-4.87V415h-2.92v-2.57h3v-4.56Zm11.25,15.34a6,6,0,0,0,3.92,6.14,6.08,6.08,0,0,0,2.57.35,12.36,12.36,0,0,0,5.12-1l.59,2.57a15.36,15.36,0,0,1-6.28,1.15,8.77,8.77,0,0,1-3.69-.54,8.89,8.89,0,0,1-3.12-2,8.78,8.78,0,0,1-2.47-6.85c0-5.64,3.36-10.11,8.85-10.11,6.15,0,7.69,5.39,7.69,8.82a14.06,14.06,0,0,1,0,1.59h-13.26Zm10-2.56a4.88,4.88,0,0,0-.14-2.05,5,5,0,0,0-1-1.81,5.06,5.06,0,0,0-1.64-1.23,4.83,4.83,0,0,0-2-.45,5.67,5.67,0,0,0-5.26,5.54Zm8.34-1.58c0-2.2,0-4.1-.15-5.84h3.07v3.67h.16a5.69,5.69,0,0,1,5.12-4.11,4,4,0,0,1,1,0v3.21a4.66,4.66,0,0,0-1.18,0,4.78,4.78,0,0,0-4.59,4.36,8.4,8.4,0,0,0-.15,1.59v10h-3.39V418.31Z" transform="translate(-872.83 -284)"/><path class="cls-4" d="M1187.88,400.5a3.11,3.11,0,0,1-1.75,3,3.2,3.2,0,0,1-1.8.28,3.13,3.13,0,0,1-2.58-2.33,3.1,3.1,0,0,1,.09-1.81,3.16,3.16,0,0,1,1.08-1.46,3.06,3.06,0,0,1,1.72-.6,2.85,2.85,0,0,1,1.19.17,3,3,0,0,1,1,.61,3.07,3.07,0,0,1,1,2.14Z" transform="translate(-872.83 -284)"/><path class="cls-5" d="M1169.7,436.51c-8.27,0-15.54-3-19.3-7.36a20.58,20.58,0,0,0,38.61,0C1185.26,433.54,1178,436.51,1169.7,436.51Z" transform="translate(-872.83 -284)"/><path class="cls-5" d="M1169.7,408c8.28,0,15.55,3,19.31,7.36a20.58,20.58,0,0,0-38.61,0C1154.16,411,1161.39,408,1169.7,408Z" transform="translate(-872.83 -284)"/><path class="cls-6" d="M1158.31,445a3.92,3.92,0,0,1-2.21,3.78,3.92,3.92,0,0,1-5.51-2.57,3.92,3.92,0,0,1,1.47-4.12,3.93,3.93,0,0,1,2.16-.77,4,4,0,0,1,1.5.22,3.71,3.71,0,0,1,1.31.78,3.86,3.86,0,0,1,.91,1.21A3.75,3.75,0,0,1,1158.31,445Z" transform="translate(-872.83 -284)"/><path class="cls-7" d="M1151.34,407a2.24,2.24,0,0,1-2.13-1.33,2.25,2.25,0,0,1,.41-2.47,2.26,2.26,0,0,1,2.44-.58,2.2,2.2,0,0,1,1,.79,2.14,2.14,0,0,1,.43,1.24,2.27,2.27,0,0,1-2.19,2.35Z" transform="translate(-872.83 -284)"/><rect class="cls-2" x="246.67" y="190.29" width="223.12" height="69.78" rx="21.5"/><path class="cls-3" d="M1201.9,514.23V498.46h3.44v17a10.3,10.3,0,0,1-2.26,7.69,8.81,8.81,0,0,1-5.85,2.13l-.36-2.57a5.62,5.62,0,0,0,3.75-1.43C1201.54,520.18,1201.9,518.72,1201.9,514.23Zm25.62-2a50.5,50.5,0,0,0,.16,5.13h-3.06l-.2-3.06a7.09,7.09,0,0,1-6.23,3.49c-3,0-6.51-1.61-6.51-8.2V498.62h3.43v10.26c0,3.56,1.1,5.94,4.21,5.94a4.73,4.73,0,0,0,1.86-.35,4.8,4.8,0,0,0,2.63-2.63,4.73,4.73,0,0,0,.35-1.86V498.49h3.44v13.62Zm6.51-7.49c0-2.39,0-4.33-.15-6.1H1237l.15,3.2a7.44,7.44,0,0,1,6.72-3.64c4.56,0,8,3.82,8,9.51,0,6.72-4.13,10.05-8.59,10.05a6.63,6.63,0,0,1-3.3-.71,6.53,6.53,0,0,1-2.52-2.23v10.25H1234V504.72Zm3.39,5a8,8,0,0,0,.15,1.38,5.28,5.28,0,0,0,5.13,4c3.62,0,5.74-3,5.74-7.23,0-3.75-2-7-5.61-7a5.88,5.88,0,0,0-5.41,5.61ZM1258,498.6l4.13,11c.43,1.23.89,2.72,1.2,3.82.36-1.13.75-2.56,1.21-3.9l3.74-11h3.62l-5.13,13.33c-2.57,6.41-4.13,9.72-6.49,11.72a9.41,9.41,0,0,1-4.2,2.2l-.85-2.87a9,9,0,0,0,3-1.66,10.32,10.32,0,0,0,2.9-3.8,2.57,2.57,0,0,0,.28-.82,3.14,3.14,0,0,0-.23-.9l-7-17.25h3.75Zm23-5.38v5.39h4.92v2.56H1281v10.1c0,2.31.66,3.64,2.56,3.64a7.49,7.49,0,0,0,2-.23l.15,2.57a8.76,8.76,0,0,1-3,.46,4.93,4.93,0,0,1-2-.31,4.87,4.87,0,0,1-1.7-1.13,6.87,6.87,0,0,1-1.34-4.87V501.14h-2.92v-2.56h3V494Zm11.25,15.35a6,6,0,0,0,.35,2.56,6.11,6.11,0,0,0,1.39,2.18,6,6,0,0,0,2.18,1.39,6.08,6.08,0,0,0,2.57.35,12.51,12.51,0,0,0,5.12-1l.59,2.56a15.37,15.37,0,0,1-6.28,1.16,8.78,8.78,0,0,1-3.69-.55,8.73,8.73,0,0,1-5.59-8.89c0-5.64,3.36-10.1,8.85-10.1,6.15,0,7.69,5.38,7.69,8.82a14.06,14.06,0,0,1,0,1.59h-13.26Zm10-2.57a4.85,4.85,0,0,0-2.76-5.09,4.82,4.82,0,0,0-2-.44,5.67,5.67,0,0,0-5.26,5.53Zm8.34-1.57c0-2.2,0-4.1-.15-5.85h3.07v3.67h.16a5.66,5.66,0,0,1,5.12-4.1,4,4,0,0,1,1,0v3.2a5.82,5.82,0,0,0-1.18,0,4.8,4.8,0,0,0-4.59,4.36,8.56,8.56,0,0,0-.15,1.59v10h-3.39V504.46Z" transform="translate(-872.83 -284)"/><path class="cls-4" d="M1187.88,486.65a3.11,3.11,0,1,1-5-2.32,3.15,3.15,0,0,1,1.72-.61,3.07,3.07,0,0,1,2.23.79,3.15,3.15,0,0,1,.72,1A3.1,3.1,0,0,1,1187.88,486.65Z" transform="translate(-872.83 -284)"/><path class="cls-5" d="M1169.7,522.65c-8.27,0-15.54-3-19.3-7.35a20.58,20.58,0,0,0,38.61,0C1185.26,519.68,1178,522.65,1169.7,522.65Z" transform="translate(-872.83 -284)"/><path class="cls-5" d="M1169.7,494.14c8.28,0,15.55,3,19.31,7.35a20.58,20.58,0,0,0-38.61,0C1154.16,497.1,1161.39,494.14,1169.7,494.14Z" transform="translate(-872.83 -284)"/><path class="cls-6" d="M1158.31,531.19a3.95,3.95,0,0,1-2.21,3.78,3.93,3.93,0,0,1-5.4-4.86,4,4,0,0,1,1.36-1.84,4,4,0,0,1,2.16-.76,4,4,0,0,1,2.81,1,3.9,3.9,0,0,1,.91,1.22A3.75,3.75,0,0,1,1158.31,531.19Z" transform="translate(-872.83 -284)"/><path class="cls-7" d="M1151.34,493.14a2.28,2.28,0,0,1-1.27-.35,2.25,2.25,0,0,1-1-2.28,2.39,2.39,0,0,1,.58-1.18,2.31,2.31,0,0,1,1.13-.65,2.17,2.17,0,0,1,1.31.08,2.2,2.2,0,0,1,1,.79,2.13,2.13,0,0,1,.43,1.23,2.27,2.27,0,0,1-.61,1.63A2.32,2.32,0,0,1,1151.34,493.14Z" transform="translate(-872.83 -284)"/><rect class="cls-2" x="488.71" y="361.72" width="223.12" height="69.78" rx="21.5"/><rect class="cls-2" x="246.67" y="275.58" width="223.12" height="69.78" rx="21.5"/><g id="Blue_Gradient_Letters" data-name="Blue Gradient Letters"><circle class="cls-16" cx="305.65" cy="309.51" r="26.61"/><path class="cls-17" d="M1210.75,601.4a10.42,10.42,0,0,0,5.49,1.56c3.15,0,5-1.67,5-4.07,0-2.19-1.27-3.51-4.49-4.71-3.89-1.42-6.3-3.47-6.3-6.8,0-3.72,3.08-6.47,7.72-6.47a10.62,10.62,0,0,1,5.24,1.17l-.85,2.51a8.87,8.87,0,0,0-4.5-1.13c-3.25,0-4.49,1.95-4.49,3.57,0,2.24,1.45,3.33,4.74,4.61,4,1.55,6.06,3.5,6.06,7,0,3.67-2.69,6.9-8.32,6.9A12.34,12.34,0,0,1,1210,604Z" transform="translate(-872.83 -284)"/><path class="cls-17" d="M1232.13,583.92V588h4.46v2.37h-4.46v9.24c0,2.12.61,3.32,2.34,3.32a5.56,5.56,0,0,0,1.81-.22l.13,2.38a8.51,8.51,0,0,1-2.75.42,4.43,4.43,0,0,1-3.36-1.31c-.85-1-1.21-2.47-1.21-4.49V590.4h-2.65V588h2.65v-3.19Z" transform="translate(-872.83 -284)"/><path class="cls-17" d="M1254.43,600.45c0,1.81,0,3.36.14,4.71h-2.76l-.18-2.79h-.07a6.4,6.4,0,0,1-5.66,3.18c-2.69,0-5.91-1.52-5.91-7.5V588h3.12v9.45c0,3.25,1,5.49,3.82,5.49a4.46,4.46,0,0,0,4.1-2.87,4,4,0,0,0,.29-1.59V588h3.12v12.42Z" transform="translate(-872.83 -284)"/><path class="cls-17" d="M1274.36,580v20.7c0,1.53.07,3.26.14,4.43h-2.76l-.14-3h-.1a6.21,6.21,0,0,1-5.78,3.36c-4.14,0-7.36-3.51-7.36-8.72,0-5.69,3.54-9.16,7.68-9.16a5.75,5.75,0,0,1,5.17,2.58h.07V580Zm-3.09,15a5.82,5.82,0,0,0-.13-1.31,4.59,4.59,0,0,0-4.5-3.57c-3.22,0-5.12,2.83-5.12,6.58,0,3.47,1.73,6.34,5.06,6.34a4.72,4.72,0,0,0,4.56-3.72,5.73,5.73,0,0,0,.13-1.35Z" transform="translate(-872.83 -284)"/><path class="cls-17" d="M1283,583.21a1.86,1.86,0,0,1-2,1.91,1.83,1.83,0,0,1-1.87-1.91,1.93,1.93,0,1,1,3.86,0Zm-3.47,21.95V588h3.11v17.13Z" transform="translate(-872.83 -284)"/><path class="cls-17" d="M1303.34,596.45c0,6.33-4.42,9.1-8.53,9.1-4.6,0-8.21-3.41-8.21-8.82,0-5.69,3.79-9.06,8.5-9.06C1300,587.68,1303.34,591.25,1303.34,596.45Zm-13.55.18c0,3.75,2.12,6.58,5.17,6.58s5.21-2.79,5.21-6.66c0-2.9-1.46-6.55-5.13-6.55S1289.79,593.41,1289.79,596.63Z" transform="translate(-872.83 -284)"/><path class="cls-18" d="M1187.58,602h2.89v2.24h-4.41l-7.3-11h-3.89V602h3.8v2.24h-9.57V602h3.29V582.72l-3.29-.4v-2.13a15.2,15.2,0,0,0,3.68.49c2,0,4.13-.49,6.18-.49,4,0,7.65,1.81,7.65,6.22,0,3.41-2,5.57-5.21,6.49Zm-12.71-10.87,2.09,0c5.09.08,7-1.88,7-4.49,0-3.05-2.21-4.25-5-4.25a37.7,37.7,0,0,0-4.13.28Z" transform="translate(-872.83 -284)"/><path class="cls-17" d="M1301.59,581.27a2,2,0,1,0,2,2A2,2,0,0,0,1301.59,581.27Zm1.69,2a1.68,1.68,0,1,1-1.68-1.68A1.68,1.68,0,0,1,1303.28,583.28Z" transform="translate(-872.83 -284)"/><path class="cls-17" d="M1302.3,584.09l-.49-.73a.6.6,0,0,0,.43-.6c0-.44-.37-.59-.73-.59a1.24,1.24,0,0,0-.27,0H1301a1,1,0,0,1-.31,0h-.06v.28l.3,0v1.61h-.3v.3h.94v-.3h-.34v-.67h.28l.63.94v0h.46v-.29Zm-.38-1.3a.33.33,0,0,1-.12.25.74.74,0,0,1-.43.1h-.17v-.66l.32,0C1301.7,582.46,1301.92,582.52,1301.92,582.79Z" transform="translate(-872.83 -284)"/></g><rect class="cls-2" x="246.67" y="361.72" width="223.12" height="69.78" rx="21.5"/><path class="cls-19" d="M1513.82,681.05c-.09-.18-.12-.26-.17-.35-1.2-2.29-2.4-4.58-3.62-6.86a.43.43,0,0,1,.06-.56c1.92-2.23,3.82-4.48,5.73-6.72a.7.7,0,0,0,.15-.3l-1.67.43-6.94,1.85a.32.32,0,0,1-.42-.18q-2-3.3-4-6.57a.84.84,0,0,0-.28-.32c-.11.58-.22,1.16-.32,1.75-.37,2.06-.74,4.13-1.1,6.19,0,.22-.1.44-.12.67s-.12.29-.32.35l-8.16,2.58a1,1,0,0,0-.37.2l6.72,2.67-.2.16-4.18,2.7a.42.42,0,0,1-.48,0l-5-2.23a5.12,5.12,0,0,1-1.94-1.41,2.58,2.58,0,0,1,.63-4.11,7.28,7.28,0,0,1,1.68-.76c2.67-.87,5.35-1.71,8-2.55a.46.46,0,0,0,.37-.42c.36-2.06.72-4.13,1.1-6.19a10.68,10.68,0,0,1,.84-3.24,5.44,5.44,0,0,1,.74-1.1,2.38,2.38,0,0,1,3.67-.1,6.91,6.91,0,0,1,1,1.29q1.86,3,3.67,6.08a.4.4,0,0,0,.54.22l9-2.38a4.22,4.22,0,0,1,1.87-.1,1.84,1.84,0,0,1,1.51,2.63,5,5,0,0,1-1,1.61l-6.25,7.35a.42.42,0,0,0-.06.57c1.25,2.35,2.48,4.71,3.73,7.06a4.08,4.08,0,0,1,.53,1.8,2.9,2.9,0,0,1-2.53,2.89,5.21,5.21,0,0,1-2.35-.29c-1.87-.58-3.75-1.15-5.62-1.71a.31.31,0,0,1-.27-.31c-.22-1.32-.45-2.64-.68-4a.48.48,0,0,1,0-.16l6.46,1.78" transform="translate(-872.83 -284)"/><path class="cls-20" d="M1510.17,700.28h-5.07a.49.49,0,0,1-.47-.26l-6-9.12-.25-.35c-.43,3.28-.85,6.49-1.28,9.71h-4.42c0-.43.1-.85.16-1.26l1.29-9.89c.42-3.15.83-6.3,1.25-9.45a.39.39,0,0,1,.15-.26l4.57-3,.14,0-1.38,10.51.05,0,7.24-8,.19,1.1c.17,1,.34,2,.52,3a.47.47,0,0,1-.15.46l-4.64,4.87c-.06.08-.13.15-.2.23s.09.16.14.23l8,11.21a1.53,1.53,0,0,0,.18.18v.06m-52.4-9.72a11.5,11.5,0,0,0-.27-1.32,4.57,4.57,0,0,0-5.51-3,6.14,6.14,0,0,0-4.84,5.43,4.41,4.41,0,0,0,2.89,4.67,5.23,5.23,0,0,0,4.63-.53A6.14,6.14,0,0,0,1457.77,690.56Zm-11.69,8.49c-.13,1-.26,1.91-.38,2.84l-.48,3.7c0,.14-.06.2-.21.2h-3.65l-.12,0c.07-.58.15-1.16.22-1.74l.81-6.13c.31-2.34.56-4.69,1-7a10.94,10.94,0,0,1,8.28-8.53,8.52,8.52,0,0,1,6.71,1.06,7.47,7.47,0,0,1,3.52,5.69,10.05,10.05,0,0,1-3.32,8.65,10.34,10.34,0,0,1-5.73,2.86,8.4,8.4,0,0,1-6.34-1.38l-.27-.17m-2-19.53-4,3c-.22-.34-.41-.67-.63-1a3.06,3.06,0,0,0-2.31-1.47,2.59,2.59,0,0,0-2.18.85,1.53,1.53,0,0,0-.11,2c.54.7,1.13,1.37,1.73,2,1,1.08,2,2.12,3,3.21a6.77,6.77,0,0,1,1.84,3.45,7,7,0,0,1-.81,4.55,9.15,9.15,0,0,1-10.39,4.4,5.67,5.67,0,0,1-3.59-3.14c-.26-.54-.46-1.12-.7-1.71l4.33-2.32a2.63,2.63,0,0,0,.13.32,14.49,14.49,0,0,0,.75,1.47,3,3,0,0,0,3.85,1.09,4.6,4.6,0,0,0,1.06-.69,2.25,2.25,0,0,0,.42-3.09,14.4,14.4,0,0,0-1.4-1.72c-1.18-1.31-2.41-2.58-3.57-3.91a6.32,6.32,0,0,1-1.51-3.23,5.57,5.57,0,0,1,.79-3.75,8.12,8.12,0,0,1,7.62-4.16,6,6,0,0,1,4.61,2.44c.34.44.67.9,1,1.37m32.34,15.13c-.22,1.69-.43,3.31-.65,4.92a.32.32,0,0,1-.15.22c-3.29,1.53-7.63,1.32-10.34-1.76a8,8,0,0,1-2-5.79,10.91,10.91,0,0,1,9.4-10.06,8.05,8.05,0,0,1,7.47,2.7,7.51,7.51,0,0,1,1.88,5.43c-.06,1.35-.27,2.69-.44,4-.24,1.9-.5,3.79-.75,5.69,0,.07,0,.13,0,.22h-3.94c0-.44.1-.86.16-1.29.28-2.19.6-4.38.85-6.57a7.11,7.11,0,0,0-.57-4,3.87,3.87,0,0,0-3.25-2.22,6.16,6.16,0,0,0-6.57,4.78,4.57,4.57,0,0,0,1.82,4.91,5,5,0,0,0,4.84.36,6.55,6.55,0,0,0,2.25-1.58m16.6-12.09-.54,4.09H1490a1.53,1.53,0,0,0-1.46,1.05,3.82,3.82,0,0,0-.14.75q-.63,4.71-1.24,9.42c-.11.79-.21,1.58-.31,2.39h-4.1c.07-.61.14-1.19.22-1.78q.4-3,.8-6.1c.24-1.76.45-3.52.72-5.27a5.7,5.7,0,0,1,5.08-4.54c1.13-.05,2.27,0,3.44,0" transform="translate(-872.83 -284)"/><path class="cls-20" d="M1515,700.26v-1.74h0l-.68,1.74h-.21l-.68-1.74h0v1.74h-.34v-2.08h.52l.62,1.58.61-1.58h.53v2.08Zm-3-1.8v1.8h-.34v-1.8H1511v-.28h1.64v.28H1512m-62.39-21.85h1l-.24-1.54Zm1.17,1h-1.69l-.54,1.06h-1.2l2.65-4.94h1.15l.9,4.94h-1.11l-.16-1.06m6.06-2.89h-.6l-.21,1.14h.61a.63.63,0,0,0,.65-.69A.42.42,0,0,0,1456.83,674.71Zm-1.46-1H1457a1.28,1.28,0,0,1,1.41,1.34,1.72,1.72,0,0,1-1.83,1.79h-.68l-.32,1.81h-1l.87-4.94m6.5,2.89h1l-.24-1.54Zm1.17,1h-1.69l-.54,1.06h-1.2l2.65-4.94h1.15l.9,4.94h-1.11l-.16-1.06m6.69.88a2.66,2.66,0,0,1-1.11.26,2.08,2.08,0,0,1-2.13-2.21,2.92,2.92,0,0,1,2.89-2.89,2.16,2.16,0,0,1,1,.25l-.15,1.19a1.32,1.32,0,0,0-1-.41,1.77,1.77,0,0,0-1.7,1.76,1.17,1.17,0,0,0,1.16,1.28,1.85,1.85,0,0,0,1.14-.4l-.14,1.17m6.31-1.81h-2.15l-.35,2h-1l.87-4.94h1l-.35,1.95h2.15l.35-1.95h1l-.87,4.94h-1l.35-2m3.78,2,.87-4.94h2.74l-.17,1h-1.71l-.17,1h1.56l-.17,1h-1.57l-.17,1h1.7l-.17,1h-2.74" transform="translate(-872.83 -284)"/><path d="M1412.1,419.09a6.22,6.22,0,0,0-6.22-5.65h-9.38v22.87l4.2.16V427.4h5a6.21,6.21,0,0,0,5.86-4.09,9.89,9.89,0,0,0,.53-3.31C1412.13,419.68,1412.12,419.38,1412.1,419.09Zm-4.18,3.75-.16.24a2.24,2.24,0,0,1-1.84.95h-5.22v-6.72h5.46a2.23,2.23,0,0,1,1.92,1.09h0A4.07,4.07,0,0,1,1407.92,422.84Z" transform="translate(-872.83 -284)"/><polygon points="546.7 129.28 553.76 142.39 553.76 152.47 558.13 152.47 558.13 142.39 565.87 129.28 560.82 129.28 556.12 138.02 551.07 129.28 546.7 129.28"/><polygon points="571.58 129.28 571.58 133.31 577.97 133.31 577.97 152.47 582.68 152.47 582.68 133.31 588.06 133.31 588.06 129.28 571.58 129.28"/><path class="cls-21" d="M1478,425a19.06,19.06,0,0,0-3.2-8.47.46.46,0,0,0-.8.1l-1.27,3a.49.49,0,0,1-.89,0l-3.67-8.38a.52.52,0,0,0-1,.06c-.62,2.14-1.87,6.41-3.3,10.69-2,6.05-1.34,7.73-1.34,7.73a7.73,7.73,0,0,0,14.86,3h0S1479,431.43,1478,425Z" transform="translate(-872.83 -284)"/><path class="cls-22" d="M1472.93,408.21a.34.34,0,0,0-.55,0,4.9,4.9,0,0,0-.74,2.68c0,2,1.35,1.68,1.35,1.68s1,0,1-1.68A4.61,4.61,0,0,0,1472.93,408.21Z" transform="translate(-872.83 -284)"/><circle class="cls-23" cx="597.47" cy="144.74" r="4.71"/><path d="M1494.93,427a.52.52,0,0,1,.17-.89,6.2,6.2,0,0,0,4.45-6.47,6.66,6.66,0,0,0-2.88-5.5,5.64,5.64,0,0,0-3.09-.89h-10.84v23.2h4.37v-9.53a.22.22,0,0,1,.22-.22h1.33a2.24,2.24,0,0,1,1.55.62,20.15,20.15,0,0,1,3.29,4.43c2.35,4,2.35,4.37,2.35,4.37h5.72A30,30,0,0,0,1494.93,427Zm-2.33-3.66h-5.83v-6.05h5.81a3.06,3.06,0,0,1,2.14.88v0a3,3,0,0,1-2.13,5.15Z" transform="translate(-872.83 -284)"/><path d="M1523,419.93a1.12,1.12,0,0,1-1.1-.67c-.41-.89-1.51-2.29-4.48-2.29-4.37,0-4.54,4.54-4.54,4.54v6.84a4.4,4.4,0,0,0,.8,2.58,4.73,4.73,0,0,0,4.08,1.85c3,0,4.24-2.36,4.74-3.85a1.09,1.09,0,0,1,1.49-.66l1.61.74a1.09,1.09,0,0,1,.57,1.39,9.15,9.15,0,0,1-8.75,6.07,8.16,8.16,0,0,1-7.23-4.45,12.75,12.75,0,0,1-1.68-6.42V422s.17-9.08,8.91-9.08c6.26,0,8,3.45,8.54,5.4a1.13,1.13,0,0,1-1,1.42Z" transform="translate(-872.83 -284)"/><polygon points="662.02 129.28 666.73 129.28 666.73 138.69 675.14 138.69 675.14 129.28 679.17 129.28 679.17 152.14 674.8 152.14 674.8 142.05 666.73 142.05 666.73 152.14 662.02 152.14 662.02 129.28"/><path class="cls-24" d="M1195.24,690.53l1.07,2.5s-5.66,1.5-8.59,2.07a.29.29,0,0,1-.23-.51A56.66,56.66,0,0,1,1195.24,690.53Z" transform="translate(-872.83 -284)"/><path class="cls-24" d="M1222.11,696v1.49s-20.92,4.24-25.29-6.65,13.21-22.54,19.52-28c6.13-5.29,29.68-18.16,43.32-1.8a8.93,8.93,0,0,1,1.75,3.27c3.25,11.46-8,22.29-8,22.29s-2.06,3-10.33,6c0,0,.13-1.57-3-1.62s-5.47,0-6.56.44a32.16,32.16,0,0,1-5.78,2.85A53.52,53.52,0,0,1,1222.11,696Z" transform="translate(-872.83 -284)"/><path class="cls-24" d="M1240.67,691.81a13.44,13.44,0,0,0-8.19,1.41,22.53,22.53,0,0,1-5.77,2.53c-1.4.4-3.77,1-3.77,1l.53.74h16.23s1,.09,1.32-.74,1-3.63,1-3.63S1242.37,692.25,1240.67,691.81Zm-.57,4.38s-10.15.1-10,0c1.05-.79,9.4-1.75,10.28-.87S1240.1,696.19,1240.1,696.19Zm.59-2.32c-1.11,0-8.91.39-8.86.18.08-.4.61-.31,1.88-.62s6.56-.87,7.52-.61S1241.8,693.82,1240.69,693.87Z" transform="translate(-872.83 -284)"/><path class="cls-25" d="M1244.6,683.5s-2.56,2.89-9.87,7.62a19.12,19.12,0,0,0,6.81-3.55C1244.56,685,1244.69,684,1244.6,683.5Z" transform="translate(-872.83 -284)"/><path class="cls-25" d="M1239.67,679.17a46.22,46.22,0,0,1-15,9c-9.5,3.54-11.29,4.11-19,5.29,0,0,10.81-3.67,18.64-6.91S1239.67,679.17,1239.67,679.17Z" transform="translate(-872.83 -284)"/><path class="cls-25" d="M1237.16,672.08c-.3.09-12.34,4.68-18.72,7.44s-18.91,8.49-18.91,8.49,4.55-4.25,18.38-9.89S1237.16,672.08,1237.16,672.08Z" transform="translate(-872.83 -284)"/><path class="cls-25" d="M1199.79,680.74A120.69,120.69,0,0,1,1217,670.59c8.49-3.89,14-5.69,19.85-5.56,0,0-3.69-1.75-14.13,1.32S1200,679.21,1199.79,680.74Z" transform="translate(-872.83 -284)"/><path class="cls-24" d="M1202.46,673.39a23.54,23.54,0,0,1,4.2-3.52s-.87-1.74-2.1-1.52S1202.16,671.65,1202.46,673.39Z" transform="translate(-872.83 -284)"/><path class="cls-24" d="M1199.24,710.3l-.58-1.41h-2.82l-.57,1.4h-.76l2.3-5.65h.88l2.31,5.66Zm-2-4.91-1.14,2.82h2.28Z" transform="translate(-872.83 -284)"/><path class="cls-24" d="M1203.88,706.63a2.63,2.63,0,0,1,0,3.22,1.82,1.82,0,0,1-1.42.59,1.94,1.94,0,0,1-.76-.15,2.24,2.24,0,0,1-.63-.44v1.59h-.72V706.2h.72v.42a2,2,0,0,1,.63-.43,1.94,1.94,0,0,1,.76-.15A1.82,1.82,0,0,1,1203.88,706.63Zm-.57,2.77a1.76,1.76,0,0,0,.35-1.16,1.75,1.75,0,0,0-.35-1.16,1.34,1.34,0,0,0-1.93,0,1.75,1.75,0,0,0-.35,1.16,1.76,1.76,0,0,0,.35,1.16,1.34,1.34,0,0,0,1.93,0Z" transform="translate(-872.83 -284)"/><path class="cls-24" d="M1208,710.3a.71.71,0,0,1-.1-.28c0-.12,0-.22,0-.31a2.27,2.27,0,0,1-.63.48,2.15,2.15,0,0,1-2,0,1,1,0,0,1-.53-.8,1,1,0,0,1,.21-.89,1.49,1.49,0,0,1,.75-.44,3.18,3.18,0,0,1,.77-.14,6.82,6.82,0,0,0,.79-.1,3.48,3.48,0,0,0,.41-.1c.14,0,.2-.15.2-.34a.7.7,0,0,0-.23-.51,1.11,1.11,0,0,0-.83-.25,1.39,1.39,0,0,0-.86.22.6.6,0,0,0-.23.55H1205a1,1,0,0,1,.49-1,2.38,2.38,0,0,1,1.33-.35,2.26,2.26,0,0,1,1.26.35,1.09,1.09,0,0,1,.56,1v2.26a1.24,1.24,0,0,0,.08.47l.08.19Zm-.14-2.14a1,1,0,0,1-.19.12l-.24.08-.64.09a2.29,2.29,0,0,0-.6.1,1.48,1.48,0,0,0-.55.27.5.5,0,0,0-.14.49.49.49,0,0,0,.32.44,1.51,1.51,0,0,0,.6.09,1.6,1.6,0,0,0,1.08-.42,1,1,0,0,0,.36-.68Z" transform="translate(-872.83 -284)"/><path class="cls-24" d="M1213.18,709a2,2,0,0,1-.62,1,1.84,1.84,0,0,1-1.3.43,1.92,1.92,0,0,1-1.52-.62,2.49,2.49,0,0,1,0-3.15,1.92,1.92,0,0,1,1.52-.62,1.82,1.82,0,0,1,1.33.47,1.79,1.79,0,0,1,.59,1h-.8a1.29,1.29,0,0,0-.32-.52,1.06,1.06,0,0,0-.8-.27,1.13,1.13,0,0,0-.93.44,1.71,1.71,0,0,0-.34,1.11,1.77,1.77,0,0,0,.34,1.13,1.13,1.13,0,0,0,.93.44,1.08,1.08,0,0,0,.75-.25,1.17,1.17,0,0,0,.37-.55Z" transform="translate(-872.83 -284)"/><path class="cls-24" d="M1216.69,710.29v-2.47a1.11,1.11,0,0,0-.23-.8.94.94,0,0,0-.72-.25,1.15,1.15,0,0,0-.85.34,1.18,1.18,0,0,0-.33.85v2.33h-.73v-5.65h.73v2a3.25,3.25,0,0,1,.68-.47,1.7,1.7,0,0,1,1-.14,1.21,1.21,0,0,1,1,.55,1.73,1.73,0,0,1,.29.89v2.79Z" transform="translate(-872.83 -284)"/><path class="cls-24" d="M1218.82,708.45a1.45,1.45,0,0,0,.4,1,1.24,1.24,0,0,0,.9.39,1.14,1.14,0,0,0,.77-.23,1,1,0,0,0,.31-.42h.78a1.77,1.77,0,0,1-1.85,1.2,2,2,0,0,1-1.48-.61,2.2,2.2,0,0,1-.57-1.55,2.26,2.26,0,0,1,.55-1.55,1.94,1.94,0,0,1,1.49-.6,2.09,2.09,0,0,1,1.44.56,2.31,2.31,0,0,1,.59,1.8Zm2.58-.55a1.42,1.42,0,0,0-.37-.91,1.21,1.21,0,0,0-.91-.34,1.25,1.25,0,0,0-.88.31,1.33,1.33,0,0,0-.4.94Z" transform="translate(-872.83 -284)"/><path class="cls-24" d="M1225.12,710.29v-.6l3.33-4.39h-3.07v-.66h4.07v.55l-3.36,4.46h3.44v.65Z" transform="translate(-872.83 -284)"/><path class="cls-24" d="M1230.16,708.45a1.4,1.4,0,0,0,.4,1,1.2,1.2,0,0,0,.9.39,1.11,1.11,0,0,0,.76-.23,1,1,0,0,0,.32-.42h.78a1.89,1.89,0,0,1-.56.81,2.2,2.2,0,0,1-2.77-.22,2.43,2.43,0,0,1,0-3.1,1.94,1.94,0,0,1,1.49-.6,2.09,2.09,0,0,1,1.44.56,2.31,2.31,0,0,1,.59,1.8Zm2.57-.55a1.37,1.37,0,0,0-.36-.91,1.22,1.22,0,0,0-.91-.34,1.25,1.25,0,0,0-.88.31,1.33,1.33,0,0,0-.4.94Z" transform="translate(-872.83 -284)"/><path class="cls-24" d="M1237.7,706.63a2.63,2.63,0,0,1,0,3.22,1.82,1.82,0,0,1-1.42.59,1.86,1.86,0,0,1-.75-.15,2.15,2.15,0,0,1-.64-.44v1.59h-.72V706.2h.72v.42a2,2,0,0,1,.64-.43,1.86,1.86,0,0,1,.75-.15A1.82,1.82,0,0,1,1237.7,706.63Zm-.57,2.77a1.76,1.76,0,0,0,.35-1.16,1.75,1.75,0,0,0-.35-1.16,1.34,1.34,0,0,0-1.93,0,1.75,1.75,0,0,0-.35,1.16,1.76,1.76,0,0,0,.35,1.16,1.34,1.34,0,0,0,1.93,0Z" transform="translate(-872.83 -284)"/><path class="cls-24" d="M1242.48,706.63a2.63,2.63,0,0,1,0,3.22,1.84,1.84,0,0,1-1.43.59,1.9,1.9,0,0,1-.75-.15,2.15,2.15,0,0,1-.64-.44v1.59h-.72V706.2h.72v.42a2,2,0,0,1,.64-.43,1.9,1.9,0,0,1,.75-.15A1.84,1.84,0,0,1,1242.48,706.63Zm-.58,2.77a1.71,1.71,0,0,0,.35-1.16,1.69,1.69,0,0,0-.35-1.16,1.17,1.17,0,0,0-1-.41,1.19,1.19,0,0,0-1,.41,1.75,1.75,0,0,0-.35,1.16,1.76,1.76,0,0,0,.35,1.16,1.19,1.19,0,0,0,1,.41A1.17,1.17,0,0,0,1241.9,709.4Z" transform="translate(-872.83 -284)"/><path class="cls-24" d="M1244.2,708.45a1.4,1.4,0,0,0,.4,1,1.2,1.2,0,0,0,.9.39,1.11,1.11,0,0,0,.76-.23,1,1,0,0,0,.32-.42h.78a1.89,1.89,0,0,1-.56.81,2.2,2.2,0,0,1-2.77-.22,2.43,2.43,0,0,1,0-3.1,1.94,1.94,0,0,1,1.49-.6,2,2,0,0,1,1.43.56,2.28,2.28,0,0,1,.6,1.8Zm2.57-.55a1.37,1.37,0,0,0-.36-.91,1.22,1.22,0,0,0-.91-.34,1.25,1.25,0,0,0-.88.31,1.38,1.38,0,0,0-.41.94Z" transform="translate(-872.83 -284)"/><path class="cls-24" d="M1248.21,710.28v-5.64h.71v5.64Z" transform="translate(-872.83 -284)"/><path class="cls-24" d="M1249.93,705.32v-.75h.73v.75Zm0,5v-4.11h.72v4.11Z" transform="translate(-872.83 -284)"/><path class="cls-24" d="M1254.51,710.29v-2.47a1.11,1.11,0,0,0-.24-.8.91.91,0,0,0-.72-.25,1.11,1.11,0,0,0-.84.34,1.15,1.15,0,0,0-.34.85v2.33h-.72V706.2h.72v.47a3.25,3.25,0,0,1,.68-.47,1.73,1.73,0,0,1,1-.14,1.19,1.19,0,0,1,.94.55,1.64,1.64,0,0,1,.29.89v2.79Z" transform="translate(-872.83 -284)"/><path class="cls-26" d="M1053.7,439.56l-22.22-12.76A3.67,3.67,0,0,0,1026,430v10.14a2.64,2.64,0,0,1-2.64,2.64l-144.81.06a4.21,4.21,0,0,0-4.22,4.22v16.88a4.22,4.22,0,0,0,4.22,4.22l144.82-.06a2.64,2.64,0,0,1,2.64,2.63V481a3.67,3.67,0,0,0,5.5,3.17l22.17-12.78,22.15-12.77a3.67,3.67,0,0,0,0-6.35Z" transform="translate(-872.83 -284)"/></svg>