<svg id="Layer_1" data-name="Layer 1" xmlns="http://www.w3.org/2000/svg" viewBox="0 0 614.5 352.75"><defs><style>.cls-1{fill:#d9d7e4;}.cls-2,.cls-5{fill:none;}.cls-2,.cls-5,.cls-6{stroke:#b4b3bc;}.cls-2,.cls-4{stroke-miterlimit:10;}.cls-2{stroke-width:2px;}.cls-3,.cls-4,.cls-6{fill:#f9f9f9;}.cls-4{stroke:#7a7a7a;}.cls-5,.cls-6{stroke-linecap:round;stroke-linejoin:round;}.cls-7{fill:#b4b3bc;}</style></defs><title>2_took</title><rect class="cls-1" x="1" y="1" width="612.5" height="350.75" rx="16.67"/><rect class="cls-2" x="1" y="1" width="612.5" height="350.75" rx="16.67"/><rect class="cls-3" x="189.5" y="20.58" width="404.55" height="313.59" rx="8.17"/><rect class="cls-2" x="189.5" y="20.58" width="404.55" height="313.59" rx="8.17"/><rect class="cls-3" x="189.5" y="20.58" width="404.55" height="313.59" rx="8.17"/><rect class="cls-2" x="189.5" y="20.58" width="404.55" height="313.59" rx="8.17"/><rect class="cls-3" x="19.5" y="20.58" width="159" height="313.59" rx="8.17"/><rect class="cls-2" x="19.5" y="20.58" width="159" height="313.59" rx="8.17"/><rect class="cls-3" x="19.5" y="20.58" width="159" height="313.59" rx="8.17"/><rect class="cls-2" x="19.5" y="20.58" width="159" height="313.59" rx="8.17"/><ellipse class="cls-4" cx="245" cy="210.08" rx="39.6" ry="22"/><rect class="cls-4" x="271" y="56.08" width="71.52" height="33.66" rx="6.94"/><rect class="cls-4" x="386.99" y="56.08" width="71.52" height="33.66" rx="7.42"/><rect class="cls-4" x="499.98" y="56.08" width="71.52" height="33.66" rx="7.5"/><rect class="cls-4" x="271" y="128.75" width="71.52" height="33.66" rx="7.61"/><rect class="cls-4" x="386.99" y="128.75" width="71.52" height="33.66" rx="6.9"/><path class="cls-4" d="M1217.73,465.82l-3-1.75a.5.5,0,0,0-.75.43v1.39a.36.36,0,0,1-.36.36h-22.35a.58.58,0,0,0-.58.58v2.31a.58.58,0,0,0,.58.58h22.35a.36.36,0,0,1,.36.36v1.42a.5.5,0,0,0,.75.43l3-1.75,3-1.74a.51.51,0,0,0,0-.87Z" transform="translate(-842.5 -395.42)"/><path class="cls-4" d="M1217.73,536.82l-3-1.75a.5.5,0,0,0-.75.43v1.39a.36.36,0,0,1-.36.36h-22.35a.58.58,0,0,0-.58.58v2.31a.58.58,0,0,0,.58.58h22.35a.36.36,0,0,1,.36.36v1.42a.5.5,0,0,0,.75.43l3-1.75,3-1.74a.51.51,0,0,0,0-.87Z" transform="translate(-842.5 -395.42)"/><path class="cls-4" d="M1332.73,465.82l-3-1.75a.5.5,0,0,0-.75.43v1.39a.36.36,0,0,1-.36.36h-22.35a.58.58,0,0,0-.58.58v2.31a.58.58,0,0,0,.58.58h22.35a.36.36,0,0,1,.36.36v1.42a.5.5,0,0,0,.75.43l3-1.75,3-1.74a.51.51,0,0,0,0-.87Z" transform="translate(-842.5 -395.42)"/><path class="cls-4" d="M1380.5,501.82v-13a.31.31,0,0,0-.31-.31h-3.38a.31.31,0,0,0-.31.31v12.7a.31.31,0,0,1-.31.31H1148.62a.53.53,0,0,0-.53.53V514.8a.3.3,0,0,1-.31.3H1146a.32.32,0,0,0-.27.47l1.92,3.33,1.92,3.32a.3.3,0,0,0,.53,0l1.92-3.32,1.91-3.33a.31.31,0,0,0-.26-.47h-1.81a.29.29,0,0,1-.3-.3v-8.68a.29.29,0,0,1,.3-.3h227.77a.87.87,0,0,0,.87-.87Z" transform="translate(-842.5 -395.42)"/><path class="cls-4" d="M1086.21,580a.74.74,0,0,1-.74-.74V465a.54.54,0,0,1,.54-.53h12.44a.31.31,0,0,0,.31-.31v-1.78a.31.31,0,0,1,.46-.26l3.34,1.91,3.32,1.92a.3.3,0,0,1,0,.53l-3.33,1.92-3.33,1.92a.31.31,0,0,1-.46-.27v-1.8a.31.31,0,0,0-.31-.31h-8.67a.31.31,0,0,0-.31.31v111a.73.73,0,0,1-.73.73Z" transform="translate(-842.5 -395.42)"/><polyline class="cls-5" points="40.6 84.47 32.99 84.49 33.03 102.23 40.64 102.22"/><polyline class="cls-5" points="64.05 84.47 60.25 84.48 60.29 102.23 64.09 102.22"/><line class="cls-5" x1="60.27" y1="92.72" x2="56.46" y2="92.73"/><path class="cls-5" d="M921.21,483.69l-2.68,2.69a1.87,1.87,0,0,0-.55,1.35v4.92a1.88,1.88,0,0,0,1.9,1.89l15.21,0a1.91,1.91,0,0,0,1.9-1.91l0-7.6a1.9,1.9,0,0,0-1.9-1.9l-12.53,0A1.89,1.89,0,0,0,921.21,483.69Z" transform="translate(-842.5 -395.42)"/><path class="cls-5" d="M943.7,480.55l13.16,0a.68.68,0,0,1,.49,1.17l-7.05,7.08-7.08-7A.68.68,0,0,1,943.7,480.55Z" transform="translate(-842.5 -395.42)"/><path class="cls-5" d="M943.74,497l13.16,0a.68.68,0,0,0,.48-1.17l-7.08-7.05-7,7.08A.69.69,0,0,0,943.74,497Z" transform="translate(-842.5 -395.42)"/><path class="cls-5" d="M969.77,483.38l-5.66,10.24a.58.58,0,0,0,.51.87l12.56,0a.57.57,0,0,0,.54-.35l4.52-10.24a.58.58,0,0,0-.53-.82l-11.43,0A.58.58,0,0,0,969.77,483.38Z" transform="translate(-842.5 -395.42)"/><path class="cls-5" d="M989,483.23l0,11.9c0,1.4,4,2.52,8.88,2.51s8.87-1.15,8.86-2.55l0-11.9Z" transform="translate(-842.5 -395.42)"/><ellipse class="cls-6" cx="997.82" cy="482.43" rx="8.87" ry="2.54" transform="translate(-843.61 -393.11) rotate(-0.13)"/><rect class="cls-5" x="873.73" y="504.34" width="12.55" height="12.55" transform="translate(-945.21 378.67) rotate(-45.13)"/><path class="cls-5" d="M893.93,505.07l0,11.13a.78.78,0,0,0,.77.77l14.28,0a2.53,2.53,0,0,0,2.16-1.24l.52-.86a9.32,9.32,0,0,0-.52-9.57h0a2.53,2.53,0,0,0-2-1l-14.43,0A.79.79,0,0,0,893.93,505.07Z" transform="translate(-842.5 -395.42)"/><path class="cls-5" d="M918,505.07l0,11.13a.78.78,0,0,0,.78.77l14.27,0a2.55,2.55,0,0,0,2.17-1.24l.51-.86a9.28,9.28,0,0,0-.52-9.57h0a2.52,2.52,0,0,0-2-1l-14.44,0A.78.78,0,0,0,918,505.07Z" transform="translate(-842.5 -395.42)"/><line class="cls-5" x1="90.72" y1="108.86" x2="90.75" y2="121.54"/><path class="cls-5" d="M946.75,504.71l-4.89,4.91a1.45,1.45,0,0,0,0,2l4.91,4.88a1.46,1.46,0,0,0,1,.42l8.57,0a1.45,1.45,0,0,0,1.34-.9l.47-1.19a11.46,11.46,0,0,0,0-8.5l-.48-1.18a1.43,1.43,0,0,0-1.34-.9l-8.57,0A1.42,1.42,0,0,0,946.75,504.71Z" transform="translate(-842.5 -395.42)"/><rect class="cls-5" x="963.66" y="504.28" width="19.01" height="12.68" transform="translate(-843.68 -393.17) rotate(-0.13)"/><ellipse class="cls-5" cx="997.88" cy="510.62" rx="10.14" ry="5.7" transform="translate(-843.68 -393.11) rotate(-0.13)"/><rect class="cls-7" x="27.5" y="56.08" width="42" height="15" rx="5.36"/></svg>