<svg id="Layer_1" data-name="Layer 1" xmlns="http://www.w3.org/2000/svg" viewBox="0 0 74.64 120.21"><defs><style>.cls-1{fill:#f53b69;stroke:#000;stroke-miterlimit:10;stroke-width:2px;}</style></defs><title>1_questionmark</title><path class="cls-1" d="M541.91,463.77A15.84,15.84,0,0,0,525.6,448.3l-.76,0a15.85,15.85,0,1,0,17.07,15.43Zm21.93-70a29.05,29.05,0,0,0-5.21-15.94,33.93,33.93,0,0,0-9.79-9.32,44.59,44.59,0,0,0-25.12-6.73,53,53,0,0,0-6.16.53,39.65,39.65,0,0,0-11.71,3.56h0a33.72,33.72,0,0,0-12.4,10.4A11.5,11.5,0,0,0,512,389.91a15.49,15.49,0,0,1,7.87-5.74,15.89,15.89,0,0,1,4.33-.7,11,11,0,0,1,11.5,11c.25,9.38-6.91,10.37-14.78,15.32-.37.24-.74.48-1.11.74-6.12,4.17-6.26,9.15-6.1,15.23l.09,3.63a11.46,11.46,0,0,0,11.44,11.14h.31a11.46,11.46,0,0,0,10.28-7,11.31,11.31,0,0,0,.79-3.19,14.89,14.89,0,0,1,1.69-6.13h0a4.65,4.65,0,0,1,3-2.33c6-2.75,11.3-6,15.27-10.07A23.94,23.94,0,0,0,563.84,393.75Z" transform="translate(-490.22 -360.75)"/></svg>