<?xml version="1.0" encoding="utf-8"?>
<!-- Generator: Adobe Illustrator 25.4.0, SVG Export Plug-In . SVG Version: 6.00 Build 0)  -->
<svg version="1.1" id="Layer_1" xmlns="http://www.w3.org/2000/svg" xmlns:xlink="http://www.w3.org/1999/xlink" x="0px" y="0px"
	 viewBox="0 0 626 293" style="enable-background:new 0 0 626 293;" xml:space="preserve">
<style type="text/css">
	.st0{fill:#F9F9F9;}
	.st1{fill:none;stroke:#202123;stroke-width:2;stroke-linecap:round;stroke-linejoin:round;}
	.st2{font-family:'NotoSansCJKkr-Medium-KSCpc-EUC-H';}
	.st3{font-size:18.24px;}
	.st4{font-family:'NotoSansCJKkr-Light-KSCpc-EUC-H';}
	.st5{font-size:14.83px;}
	.st6{fill:none;stroke:#F5C43C;stroke-width:2;stroke-linecap:round;stroke-linejoin:round;stroke-dasharray:4.96,4.96;}
	.st7{fill:none;stroke:#89A6F5;stroke-width:2;stroke-linecap:round;stroke-linejoin:round;stroke-dasharray:4.95,4.95;}
	.st8{fill:#F5C43C;stroke:#000000;stroke-width:2;stroke-miterlimit:10;}
	.st9{fill:#EBF5F7;stroke:#202123;stroke-width:2;stroke-miterlimit:10;}
	.st10{fill:#89A6F5;stroke:#000000;stroke-width:2;stroke-miterlimit:10;}
</style>
<circle class="st0" cx="483.6" cy="148.5" r="135.4"/>
<path class="st1" d="M511.6,281c-60,12.6-120.9-16.6-148.7-71.2"/>
<path class="st1" d="M599.7,218.2c-13.1,21.8-32.1,39.5-54.8,51"/>
<path class="st1" d="M604.3,87.3c16.1,31.5,19.1,68.1,8.4,101.9"/>
<path class="st1" d="M350.3,125.1c13-73.6,83.2-122.8,156.8-109.8c0.7,0.1,1.5,0.3,2.2,0.4"/>
<text transform="matrix(1 0 0 1 419.4923 63.35)" class="st2 st3">해외주식 이용안내</text>
<text transform="matrix(1 0 0 1 418.6823 219.67)" class="st2 st3">A</text>
<text transform="matrix(1 0 0 1 430.0224 219.67)" class="st2 st3">R</text>
<text transform="matrix(1 0 0 1 441.6924 219.67)" class="st2 st3">S/지점안내</text>
<text transform="matrix(1 0 0 1 428.5923 88.03)" class="st4 st5">계좌개설</text>
<text transform="matrix(1 0 0 1 428.5923 110.77)" class="st4 st5">공동인증서 발급/등록</text>
<text transform="matrix(1 0 0 1 428.5923 133.5)" class="st4 st5">해외주식거래 신청</text>
<text transform="matrix(1 0 0 1 428.5923 156.24)" class="st4 st5">투자자금 입금</text>
<text transform="matrix(1 0 0 1 428.5923 178.97)" class="st4 st5">환전신청</text>
<text transform="matrix(1 0 0 1 428.5923 244.35)" class="st4 st5">지점안내</text>
<path class="st6" d="M419.9,43.5H557c12.4,0,22.5,10.1,22.5,22.5v5.6c0,12.4-10.1,22.5-22.5,22.5H419.9c-12.4,0-22.5-10.1-22.5-22.5
	V66C397.4,53.6,407.4,43.5,419.9,43.5z"/>
<path class="st7" d="M430,194.7h96.7c12.4,0,22.5,10.1,22.5,22.5v15.7c0,12.4-10.1,22.5-22.5,22.5H430c-12.4,0-22.5-10.1-22.5-22.5
	v-15.7C407.5,204.8,417.5,194.7,430,194.7z"/>
<path class="st8" d="M28.5,13h269c12.5,0,22.6,10.1,22.6,22.6v5.6c0,12.5-10.1,22.6-22.6,22.6h-269C16,63.8,5.9,53.7,5.9,41.2v-5.6
	C5.9,23.1,16,13,28.5,13z"/>
<text transform="matrix(1 0 0 1 36.1223 45.15)" class="st2 st3">“어떻게</text>
<text transform="matrix(1 0 0 1 95.9023 45.15)" class="st2 st3"> </text>
<text transform="matrix(1 0 0 1 99.5523 45.15)" class="st2 st3">하나요”- 방법 - 이용안내</text>
<path class="st9" d="M89.5,119.4h147.1c12.5,0,22.6,10.1,22.6,22.6v5.6c0,12.5-10.1,22.6-22.6,22.6H89.5
	c-12.5,0-22.6-10.1-22.6-22.6V142C66.9,129.5,77,119.4,89.5,119.4z"/>
<text transform="matrix(1 0 0 1 87.0623 153.57)" class="st2 st3">해외주식+계좌개설</text>
<path class="st10" d="M28.5,228h269c12.5,0,22.6,10.1,22.6,22.6v5.6c0,12.5-10.1,22.6-22.6,22.6h-269c-12.5,0-22.6-10.1-22.6-22.6
	v-5.6C5.9,238.1,16,228,28.5,228z"/>
<text transform="matrix(1 0 0 1 42.7823 261.6)" class="st2 st3">“어디서</text>
<text transform="matrix(1 0 0 1 102.5623 261.6)" class="st2 st3"> </text>
<text transform="matrix(1 0 0 1 106.2123 261.6)" class="st2 st3">하나요”- 장소 - 지점</text>
</svg>
