<svg id="Layer_1" data-name="Layer 1" xmlns="http://www.w3.org/2000/svg" viewBox="0 0 202.73 191.32"><defs><style>.cls-1,.cls-11,.cls-13,.cls-14,.cls-16,.cls-2,.cls-3,.cls-4{stroke:#000;}.cls-1,.cls-13,.cls-16,.cls-2,.cls-3,.cls-4{stroke-miterlimit:10;}.cls-10,.cls-13,.cls-2{fill:#f53b69;}.cls-11,.cls-12,.cls-14,.cls-17,.cls-2,.cls-3,.cls-4{stroke-width:2px;}.cls-16,.cls-3{fill:#f5c43c;}.cls-12,.cls-4{fill:#f9f9f9;}.cls-5{fill:#1a2e35;}.cls-11,.cls-17,.cls-6,.cls-9{fill:none;}.cls-6,.cls-9{stroke:#474a4f;}.cls-11,.cls-12,.cls-14,.cls-17,.cls-6,.cls-9{stroke-linecap:round;stroke-linejoin:round;}.cls-6{stroke-width:0.5px;}.cls-14,.cls-7{fill:#89a6f5;}.cls-8{fill:#e1e1e1;}.cls-12{stroke:#202123;}.cls-15{fill:#ff735d;}.cls-17{stroke:#aaa;}.cls-18{font-size:7.43px;font-family:NotoSansCJKkr-Bold-KSCpc-EUC-H, Noto Sans CJK KR;letter-spacing:0.02em;}</style></defs><title>2_chart</title><path class="cls-1" d="M571.2,654.18h-7.43v-7.43a1.12,1.12,0,0,0-2.23,0v7.43h-7.43a1.12,1.12,0,0,0,0,2.23h7.43v7.43a1.12,1.12,0,1,0,2.23,0v-7.43h7.43a1.12,1.12,0,1,0,0-2.23Z" transform="translate(-537.36 -609.11)"/><circle class="cls-2" cx="185.93" cy="5.65" r="4.65"/><path class="cls-3" d="M584.53,794.21a5.22,5.22,0,1,1-5.22-5.22A5.22,5.22,0,0,1,584.53,794.21Z" transform="translate(-537.36 -609.11)"/><path class="cls-4" d="M538.36,700.37v66.77a5.62,5.62,0,0,0,5.62,5.61H701.53a5.61,5.61,0,0,0,5.62-5.61V700.37a5.61,5.61,0,0,0-5.62-5.61H544A5.62,5.62,0,0,0,538.36,700.37Z" transform="translate(-537.36 -609.11)"/><path class="cls-5" d="M550.24,748.63v2.46H550v-2.23h-.58v-.23Z" transform="translate(-537.36 -609.11)"/><path class="cls-5" d="M550.83,749.86c0-.78.41-1.25,1-1.25s1,.47,1,1.25-.41,1.26-1,1.26S550.83,750.65,550.83,749.86Zm1.7,0c0-.65-.29-1-.72-1s-.73.37-.73,1,.3,1,.73,1S552.53,750.52,552.53,749.86Z" transform="translate(-537.36 -609.11)"/><path class="cls-5" d="M551.24,735.56v.22h-1.73v-.18l1-1a.8.8,0,0,0,.33-.61c0-.28-.2-.46-.57-.46a.85.85,0,0,0-.68.28l-.18-.16a1.13,1.13,0,0,1,.88-.35c.5,0,.81.25.81.66a1,1,0,0,1-.4.77l-.84.83Z" transform="translate(-537.36 -609.11)"/><path class="cls-5" d="M551.54,734.55c0-.78.41-1.25,1-1.25s1,.47,1,1.25-.42,1.25-1,1.25S551.54,735.34,551.54,734.55Zm1.71,0c0-.66-.3-1-.73-1s-.72.36-.72,1,.3,1,.72,1S553.25,735.21,553.25,734.55Z" transform="translate(-537.36 -609.11)"/><path class="cls-5" d="M551.18,719.76c0,.42-.3.73-.89.73a1.29,1.29,0,0,1-.89-.31l.13-.21a1,1,0,0,0,.76.29c.41,0,.63-.19.63-.5s-.21-.49-.66-.49h-.18v-.18l.68-.86H549.5V718h1.59v.18l-.7.87C550.92,719.09,551.18,719.37,551.18,719.76Z" transform="translate(-537.36 -609.11)"/><path class="cls-5" d="M551.54,719.24c0-.78.41-1.25,1-1.25s1,.47,1,1.25-.42,1.25-1,1.25S551.54,720,551.54,719.24Zm1.71,0c0-.66-.3-1-.73-1s-.72.36-.72,1,.3,1,.72,1S553.25,719.9,553.25,719.24Z" transform="translate(-537.36 -609.11)"/><path class="cls-5" d="M561.11,757.94c0-.78.41-1.25,1-1.25s1,.47,1,1.25-.42,1.25-1,1.25S561.11,758.73,561.11,757.94Zm1.71,0c0-.66-.3-1-.73-1s-.72.36-.72,1,.29,1,.72,1S562.82,758.6,562.82,757.94Z" transform="translate(-537.36 -609.11)"/><path class="cls-5" d="M579.35,756.71v2.46h-.26v-2.23h-.58v-.23Z" transform="translate(-537.36 -609.11)"/><path class="cls-5" d="M598.57,759v.22h-1.73V759l1-1a.8.8,0,0,0,.33-.61c0-.28-.2-.46-.57-.46a.85.85,0,0,0-.68.28l-.18-.16a1.13,1.13,0,0,1,.88-.35c.5,0,.81.25.81.66a1,1,0,0,1-.4.78l-.84.82Z" transform="translate(-537.36 -609.11)"/><path class="cls-5" d="M616.73,758.47c0,.41-.3.72-.89.72a1.29,1.29,0,0,1-.89-.31l.13-.2a1.08,1.08,0,0,0,.76.28c.41,0,.63-.19.63-.49s-.2-.49-.66-.49h-.18v-.19l.68-.85h-1.26v-.23h1.59v.18l-.7.88C616.47,757.79,616.73,758.07,616.73,758.47Z" transform="translate(-537.36 -609.11)"/><path class="cls-5" d="M635.42,758.53h-.49v.64h-.26v-.64h-1.39v-.19l1.31-1.63h.28l-1.26,1.59h1.07v-.57h.25v.57h.49Z" transform="translate(-537.36 -609.11)"/><path class="cls-5" d="M653.22,758.45c0,.42-.3.74-.9.74a1.29,1.29,0,0,1-.88-.31l.12-.2a1.1,1.1,0,0,0,.76.28c.42,0,.64-.2.64-.5s-.2-.51-.82-.51h-.53l.13-1.24h1.35v.23H652l-.08.78h.31C652.93,757.72,653.22,758,653.22,758.45Z" transform="translate(-537.36 -609.11)"/><path class="cls-5" d="M671.62,758.44a.77.77,0,0,1-.84.75c-.66,0-1-.45-1-1.23s.46-1.27,1.13-1.27a1.22,1.22,0,0,1,.59.13l-.11.21a.8.8,0,0,0-.48-.12c-.53,0-.87.34-.87,1,0,.06,0,.13,0,.2a.8.8,0,0,1,.76-.42A.75.75,0,0,1,671.62,758.44Zm-.25,0c0-.33-.24-.54-.62-.54a.54.54,0,1,0,0,1.07A.54.54,0,0,0,671.37,758.45Z" transform="translate(-537.36 -609.11)"/><path class="cls-5" d="M689.72,756.71v.18l-1,2.28h-.27l1-2.23h-1.27v.46h-.25v-.69Z" transform="translate(-537.36 -609.11)"/><line class="cls-6" x1="25.96" y1="140.87" x2="153.45" y2="140.87"/><path class="cls-7" d="M564.17,750a.82.82,0,0,1-1.63,0,.82.82,0,1,1,1.63,0Z" transform="translate(-537.36 -609.11)"/><path class="cls-7" d="M582.35,750a.81.81,0,1,1-1.62,0,.81.81,0,1,1,1.62,0Z" transform="translate(-537.36 -609.11)"/><path class="cls-7" d="M600.53,750a.81.81,0,0,1-1.62,0,.81.81,0,1,1,1.62,0Z" transform="translate(-537.36 -609.11)"/><path class="cls-7" d="M618.72,750a.82.82,0,0,1-1.63,0,.82.82,0,1,1,1.63,0Z" transform="translate(-537.36 -609.11)"/><path class="cls-7" d="M636.9,750a.81.81,0,0,1-1.62,0,.81.81,0,1,1,1.62,0Z" transform="translate(-537.36 -609.11)"/><path class="cls-7" d="M673.27,750a.82.82,0,0,1-1.63,0,.82.82,0,1,1,1.63,0Z" transform="translate(-537.36 -609.11)"/><path class="cls-7" d="M655.08,750a.81.81,0,1,1-1.62,0,.81.81,0,1,1,1.62,0Z" transform="translate(-537.36 -609.11)"/><path class="cls-7" d="M691.45,750a.81.81,0,1,1-1.62,0,.81.81,0,1,1,1.62,0Z" transform="translate(-537.36 -609.11)"/><path class="cls-8" d="M570.83,750a.54.54,0,1,1-.54-.54A.54.54,0,0,1,570.83,750Z" transform="translate(-537.36 -609.11)"/><path class="cls-8" d="M589.21,750a.54.54,0,1,1-.53-.54A.53.53,0,0,1,589.21,750Z" transform="translate(-537.36 -609.11)"/><path class="cls-8" d="M607.59,750a.54.54,0,1,1-.53-.54A.53.53,0,0,1,607.59,750Z" transform="translate(-537.36 -609.11)"/><path class="cls-8" d="M626,750a.54.54,0,1,1-.54-.54A.54.54,0,0,1,626,750Z" transform="translate(-537.36 -609.11)"/><path class="cls-8" d="M644.36,750a.54.54,0,1,1-.54-.54A.54.54,0,0,1,644.36,750Z" transform="translate(-537.36 -609.11)"/><path class="cls-8" d="M662.74,750a.54.54,0,1,1-.54-.54A.54.54,0,0,1,662.74,750Z" transform="translate(-537.36 -609.11)"/><path class="cls-8" d="M681.12,750a.54.54,0,1,1-.54-.54A.54.54,0,0,1,681.12,750Z" transform="translate(-537.36 -609.11)"/><line class="cls-9" x1="25.18" y1="110" x2="152.67" y2="110"/><line class="cls-9" x1="25.57" y1="125.16" x2="153.06" y2="125.16"/><path class="cls-10" d="M582,743.18a2,2,0,1,1-2-2A2,2,0,0,1,582,743.18Z" transform="translate(-537.36 -609.11)"/><path class="cls-10" d="M598,733.75a2,2,0,1,1-2-2A2,2,0,0,1,598,733.75Z" transform="translate(-537.36 -609.11)"/><path class="cls-10" d="M617.79,734.59a2,2,0,1,1-2-2A2,2,0,0,1,617.79,734.59Z" transform="translate(-537.36 -609.11)"/><path class="cls-10" d="M637.15,717.46a2,2,0,1,1-2-2A2,2,0,0,1,637.15,717.46Z" transform="translate(-537.36 -609.11)"/><path class="cls-10" d="M655.24,728.36a2,2,0,1,1-2-2A2,2,0,0,1,655.24,728.36Z" transform="translate(-537.36 -609.11)"/><path class="cls-10" d="M673.55,731.26a2,2,0,1,1-2-2A2,2,0,0,1,673.55,731.26Z" transform="translate(-537.36 -609.11)"/><path class="cls-10" d="M690.67,743.18a2.79,2.79,0,0,1-.47,0,9,9,0,0,1-1.37-.19,10.27,10.27,0,0,1-4.76-2.26,10,10,0,0,1-2.34-3,22.05,22.05,0,0,0-2.45-3.79,8.07,8.07,0,0,0-4.14-2.89,5.33,5.33,0,0,0-2.74.1,7.34,7.34,0,0,0-2.54,1.44c-1.56,1.3-2.71,3.15-4.22,4.83a8.33,8.33,0,0,1-2.75,2.14,5.53,5.53,0,0,1-3.62.3,4.58,4.58,0,0,1-2.75-2.53,17.71,17.71,0,0,1-1.19-3.65,20.54,20.54,0,0,0-1.09-3.71,2.87,2.87,0,0,0-1.17-1.41,4,4,0,0,0-1.85-.36,31.61,31.61,0,0,0-4,.71,11.38,11.38,0,0,1-2.12.25,4.93,4.93,0,0,1-2.16-.42,4.42,4.42,0,0,1-1.71-1.44,9.92,9.92,0,0,1-1.05-2c-.58-1.35-1-2.77-1.5-4.14a10.3,10.3,0,0,0-1-1.94,3.57,3.57,0,0,0-1.59-1.32c-.17,0-.33-.11-.5-.15l-.53,0a1.94,1.94,0,0,0-1,.2,4.09,4.09,0,0,0-1.47,1.53,18.75,18.75,0,0,0-1.7,4.21c-.44,1.48-.8,3-1.16,4.51-.58,2.53-1.11,5-1.76,7.51a35.57,35.57,0,0,1-1.12,3.64,9.51,9.51,0,0,1-1.9,3.3,2.68,2.68,0,0,1-1.81.8,3.68,3.68,0,0,1-1.85-.56,8.8,8.8,0,0,1-2.6-2.63,32.31,32.31,0,0,1-3.15-6.38,14.76,14.76,0,0,0-3.5-5.64,6.58,6.58,0,0,0-5.89-1.43,9.75,9.75,0,0,0-2.8,1.23,18.86,18.86,0,0,0-2.45,1.77,32.22,32.22,0,0,0-4.08,4.1h0a44.33,44.33,0,0,1-6.05,5,29.2,29.2,0,0,1-6.2,3.35,13.49,13.49,0,0,1-6.06,1,20.88,20.88,0,0,1-5-1.22,46.47,46.47,0,0,1-6.56-3c-.73-.39-1.27-.71-1.64-.93a6.44,6.44,0,0,1-.54-.36l.57.31L567,739a50.08,50.08,0,0,0,6.58,2.9,21,21,0,0,0,5,1.16,13.39,13.39,0,0,0,5.94-1,29.52,29.52,0,0,0,6.1-3.35,44,44,0,0,0,6-5v0a33.13,33.13,0,0,1,4.12-4.18,20.59,20.59,0,0,1,2.49-1.81,10.23,10.23,0,0,1,2.92-1.29,7,7,0,0,1,6.27,1.51,15.16,15.16,0,0,1,3.64,5.8A31.11,31.11,0,0,0,619.1,740a8.35,8.35,0,0,0,2.45,2.5,3.26,3.26,0,0,0,1.62.49,2.18,2.18,0,0,0,1.48-.67,9,9,0,0,0,1.78-3.13,35.58,35.58,0,0,0,1.11-3.59c.65-2.45,1.17-5,1.76-7.49.35-1.53.72-3,1.16-4.55a19,19,0,0,1,1.76-4.32,4.44,4.44,0,0,1,1.66-1.7,2.3,2.3,0,0,1,1.21-.25l.59.06a5.54,5.54,0,0,1,.58.17,4,4,0,0,1,1.81,1.5,10.43,10.43,0,0,1,1,2c.54,1.4.92,2.82,1.48,4.13a5.52,5.52,0,0,0,2.53,3.15,6.67,6.67,0,0,0,4,.15,30.93,30.93,0,0,1,4.09-.71,4.3,4.3,0,0,1,2.08.42,3.32,3.32,0,0,1,1.35,1.6,20.2,20.2,0,0,1,1.11,3.8,17.33,17.33,0,0,0,1.15,3.57,4.14,4.14,0,0,0,2.49,2.33,5.19,5.19,0,0,0,3.35-.27,7.84,7.84,0,0,0,2.63-2c1.5-1.64,2.66-3.5,4.28-4.84a7.68,7.68,0,0,1,2.67-1.49,5.61,5.61,0,0,1,2.9-.09,8.4,8.4,0,0,1,4.28,3,22.19,22.19,0,0,1,2.44,3.86,9.89,9.89,0,0,0,2.26,3,10.48,10.48,0,0,0,4.66,2.31,11.92,11.92,0,0,0,1.36.23Z" transform="translate(-537.36 -609.11)"/><line class="cls-11" x1="12.74" y1="96.02" x2="44.62" y2="96.02"/><path class="cls-4" d="M657.91,636.62v66.1A5.09,5.09,0,0,0,663,707.8h71a5.08,5.08,0,0,0,5.08-5.08v-66.1a5.07,5.07,0,0,0-5.08-5.08H663A5.08,5.08,0,0,0,657.91,636.62Z" transform="translate(-537.36 -609.11)"/><path class="cls-12" d="M698.14,640.18a25,25,0,1,0,25.05,25A25,25,0,0,0,698.14,640.18Zm.38,40a15.38,15.38,0,1,1,15.39-15.38A15.39,15.39,0,0,1,698.52,680.22Z" transform="translate(-537.36 -609.11)"/><path class="cls-13" d="M698.53,640.19c0,2.66,0,6.25,0,9.27a15.38,15.38,0,0,1,15.39,15.38,15.61,15.61,0,0,1-.72,4.66l9.07,2.46a25,25,0,0,0-23.73-31.77Z" transform="translate(-537.36 -609.11)"/><path class="cls-14" d="M683.13,664.84a15.38,15.38,0,0,1,9.13-14.05l-3.86-8.65a25,25,0,0,0-15.3,23.08c0,.35,0,.7,0,1H683.2C683.16,665.8,683.13,665.32,683.13,664.84Z" transform="translate(-537.36 -609.11)"/><path class="cls-15" d="M698.52,680.22a15.12,15.12,0,0,1-3.25-.35c-.39,2.23-1.12,6.56-1.7,10a25.55,25.55,0,0,0,4.57.42A25,25,0,0,0,722.26,672l-9.07-2.46A15.4,15.4,0,0,1,698.52,680.22Z" transform="translate(-537.36 -609.11)"/><path class="cls-16" d="M698.52,680.22a15.12,15.12,0,0,1-3.25-.35c-.39,2.23-1.12,6.56-1.7,10a25.55,25.55,0,0,0,4.57.42A25,25,0,0,0,722.26,672l-9.07-2.46A15.4,15.4,0,0,1,698.52,680.22Z" transform="translate(-537.36 -609.11)"/><line class="cls-17" x1="143.34" y1="87.47" x2="178.33" y2="87.47"/><line class="cls-17" x1="152.67" y1="91.35" x2="166.67" y2="91.35"/><text class="cls-18" transform="translate(154.57 59.45)">50%</text></svg>