<?xml version="1.0" encoding="utf-8"?>
<!-- Generator: Adobe Illustrator 25.4.0, SVG Export Plug-In . SVG Version: 6.00 Build 0)  -->
<svg version="1.1" id="Layer_1" xmlns="http://www.w3.org/2000/svg" xmlns:xlink="http://www.w3.org/1999/xlink" x="0px" y="0px"
	 viewBox="0 0 277.4 277.2" style="enable-background:new 0 0 277.4 277.2;" xml:space="preserve">
<style type="text/css">
	.st0{clip-path:url(#SVGID_00000121980150162957642270000013179694848904985492_);}
	.st1{fill:#F9F9F9;}
	.st2{fill:#F9F9F9;stroke:#000000;stroke-width:3;stroke-miterlimit:10;}
	.st3{fill:#89A6F5;stroke:#000000;stroke-width:3;stroke-miterlimit:10;}
	.st4{fill:#DBAD3A;stroke:#000000;stroke-width:3;stroke-miterlimit:10;}
	.st5{fill:#F5C43C;stroke:#000000;stroke-width:3;stroke-miterlimit:10;}
	.st6{fill:#FFFFFF;stroke:#202123;stroke-width:3;stroke-linecap:round;stroke-linejoin:round;}
	.st7{fill:#FFFFFF;}
	.st8{fill:#0C6BF4;}
	.st9{fill:#F53B69;stroke:#000000;stroke-width:2;stroke-miterlimit:10;}
	.st10{fill:none;stroke:#202123;stroke-width:1.5;stroke-linecap:round;stroke-linejoin:round;}
	.st11{fill:#F5C43C;stroke:#000000;stroke-width:2;stroke-miterlimit:10;}
</style>
<g>
	<defs>
		<circle id="SVGID_1_" cx="139.9" cy="138.4" r="135.5"/>
	</defs>
	<clipPath id="SVGID_00000116936032212181185840000006654255694899867561_">
		<use xlink:href="#SVGID_1_"  style="overflow:visible;"/>
	</clipPath>
	<g style="clip-path:url(#SVGID_00000116936032212181185840000006654255694899867561_);">
		<circle class="st1" cx="139.9" cy="138.4" r="135.5"/>
		<g id="man">
			<path class="st1" d="M127.7,540.2h36.5c4.6-2.5,8.7-8.2,10-16.7c1.8-11.8,15-18.2,17.8-27.8s-11.8-23.2-11.8-23.2l-2.4-3.2
				l-2.5-3.3l-24.2,5.7c0,0-0.6,5.8-1,13.1c-0.3,5.3-0.4,11.4-0.1,16.8c0.7,12.8-3.6,26.6-15,29.1
				C126.5,532.7,126.9,537.7,127.7,540.2z"/>
			<path class="st2" d="M-48.5,80.6c0,0,78,195.6,129.3,287.5c51.3,91.9,67.3,117.6,67.3,117.6s29.4-11.8,32.1-19.8
				c0,0-19.6-177.5-54-220.7C106.8,220.8,84,147.4,83,121.8s-7-76.4-7-76.4L-48.5,80.6z"/>
			<path class="st3" d="M76.5-128.9L42.9-232.8c0,0-80.6,30.4-84.3,144.2c-1.5,25.9-7.7,132.2,3.6,220.2c0,0,62.8,24.5,139.7-23.8
				L76.5-128.9z"/>
			<path class="st4" d="M215.7,188.8l-112.1,16c-14.6,2-28.2-8.1-30.3-22.8l-6.9-48.6c-2-14.6,8.1-28.2,22.8-30.3l112.1-16
				c14.6-2,28.2,8.1,30.3,22.7l6.9,48.6C240.5,173.1,230.4,186.7,215.7,188.8z"/>
			<path class="st5" d="M81.2,131.3l7,49.2c1.3,9.2,7.3,17.1,15.8,20.8c2.8,1.2,5.7,2,8.7,2.2l0,0c1.9,0.2,3.9,0.1,5.8-0.2l111.9-16
				c14.7-2.2,24.8-15.7,22.8-30.4l-7-49.2c-2.1-14.7-15.7-24.9-30.4-22.8l-38.5,5.5l-1.5-10.5c-0.7-4.8-5.2-8.2-10-7.5l-4.2,0.6
				l-23.5,3.4l-5.8,0.8c-4.8,0.7-8.2,5.2-7.5,10l1.5,10.5l-22.3,3.2c-0.9,0.1-1.7,0.3-2.6,0.5l0,0c-8.4,2.1-15.4,8.1-18.6,16.2l0,0
				C81.1,122,80.5,126.7,81.2,131.3z M171.9,91.2l-40.1,5.7l-1.5-10.5c-0.3-1.8,1-3.5,2.8-3.8l10.1-1.4l18.4-2.6l5-0.7
				c0.3-0.1,0.7-0.1,1,0c1.4,0.2,2.5,1.4,2.8,2.8L171.9,91.2z"/>
			<path class="st6" d="M132,63.3c-1.9,8.2-4,12-2.6,12.9c1.6,1,3.5-0.4,5.1-2.7c0,0,0.4,13.6,10.1,13.6S165.3,85,162.9,75
				s-8.6-21.8-12.6-28.3l-6.2-10.2l-15.6,8.1c0,0,6.2,8.3,6.5,11.6C135,56.2,133.3,57.4,132,63.3z"/>
			<path class="st3" d="M145.4,50.1c-6.5,1.1-13.1,1.5-19.7,1.1c0,0-28.1-86.8-31.7-94.8S10.5-145.3,10.5-145.3l32.4-87.4
				c0,0,19,11.1,39.1,45.8c24.8,42.8,52.1,111.8,56.9,123c14.5,33.5,19.5,108.6,19.5,108.6C154.5,47.3,150.1,49.2,145.4,50.1z"/>
		</g>
		<path class="st7" d="M-29.1-274.2c0,0,2.1,5.6,7.5,5.8s9.5-5,9.5-5S-23.7-276.1-29.1-274.2z"/>
	</g>
</g>
<path class="st8" d="M292.2,220.3"/>
<circle class="st9" cx="221.3" cy="143.7" r="4.2"/>
<line class="st10" x1="36" y1="118.1" x2="43.7" y2="118.1"/>
<line class="st10" x1="39.9" y1="114.3" x2="39.9" y2="122.6"/>
<circle class="st11" cx="61.5" cy="82.4" r="3.3"/>
</svg>
