<svg id="Layer_1" data-name="Layer 1" xmlns="http://www.w3.org/2000/svg" viewBox="0 0 85.6 62.89"><defs><style>.cls-1{fill:#f9f9f9;stroke:#000;stroke-miterlimit:10;stroke-width:2px;}.cls-2{fill:#202123;}</style></defs><title>1_thingVideo</title><rect class="cls-1" x="1" y="1" width="83.6" height="60.89" rx="2.89"/><line class="cls-1" x1="16.47" y1="1" x2="16.47" y2="62"/><line class="cls-1" x1="68.14" y1="1" x2="68.14" y2="61.89"/><line class="cls-1" x1="1" y1="15.48" x2="16.47" y2="15.48"/><line class="cls-1" x1="1" y1="31.44" x2="16.47" y2="31.44"/><line class="cls-1" x1="1" y1="47.41" x2="16.47" y2="47.41"/><line class="cls-1" x1="68.14" y1="15.48" x2="83.61" y2="15.48"/><line class="cls-1" x1="68.14" y1="31.44" x2="83.61" y2="31.44"/><line class="cls-1" x1="68.14" y1="47.41" x2="83.61" y2="47.41"/><path class="cls-2" d="M472,464.18V448.62a1.9,1.9,0,0,1,2.85-1.65l13.48,7.78,13.48,7.78a1.91,1.91,0,0,1,0,3.3l-13.48,7.78-13.48,7.78a1.9,1.9,0,0,1-2.85-1.65Z" transform="translate(-444.11 -433)"/></svg>