<svg id="Layer_1" data-name="Layer 1" xmlns="http://www.w3.org/2000/svg" viewBox="0 0 86.95 71.87"><defs><style>.cls-1{fill:#f5c43c;}.cls-2{fill:#f9f9f9;stroke:#202123;stroke-miterlimit:10;stroke-width:2px;}</style></defs><title>1_thingMusik</title><path class="cls-1" d="M503.49,575.69c0-.75,0-1.48-.11-2.2V560a3.17,3.17,0,0,0-3.17-3.18h-3.6a3.16,3.16,0,0,0-3.12,2.69,7.39,7.39,0,0,0-1.33-.12c-6.26,0-11.34,7.32-11.34,16.35S485.9,592,492.16,592a8.27,8.27,0,0,0,1.49-.15,3.16,3.16,0,0,0,3,2.08h3.6a3.17,3.17,0,0,0,3.17-3.18v-12.9C503.45,577.17,503.49,576.44,503.49,575.69Z" transform="translate(-474.55 -523.1)"/><path d="M500.21,595h-3.6a4.17,4.17,0,0,1-3.53-2,7.49,7.49,0,0,1-.92,0c-6.81,0-12.34-7.78-12.34-17.35s5.53-17.35,12.34-17.35c.19,0,.39,0,.6,0a4.15,4.15,0,0,1,3.85-2.59h3.6a4.18,4.18,0,0,1,4.17,4.18v13.54a21.44,21.44,0,0,1,.11,2.2c0,.69,0,1.42-.11,2.29v12.81A4.18,4.18,0,0,1,500.21,595Zm-5.92-4.22.29.79a2.19,2.19,0,0,0,2,1.43h3.6a2.18,2.18,0,0,0,2.17-2.18v-12.9c.08-.9.11-1.57.11-2.2a20.7,20.7,0,0,0-.11-2.1V560a2.18,2.18,0,0,0-2.17-2.18h-3.6a2.14,2.14,0,0,0-2.13,1.84l-.16,1-1-.17a7.18,7.18,0,0,0-1.16-.1c-5.7,0-10.34,6.88-10.34,15.35S486.46,591,492.16,591a6.56,6.56,0,0,0,1.3-.14Z" transform="translate(-474.55 -523.1)"/><path class="cls-1" d="M543.14,559.34a7.39,7.39,0,0,0-1.33.12,3.17,3.17,0,0,0-3.13-2.69h-3.59a3.17,3.17,0,0,0-3.17,3.18v13.54c-.07.72-.11,1.45-.11,2.2s0,1.48.11,2.2v12.9a3.17,3.17,0,0,0,3.17,3.18h3.59a3.16,3.16,0,0,0,3-2.08,8.27,8.27,0,0,0,1.49.15c6.26,0,11.34-7.32,11.34-16.35S549.4,559.34,543.14,559.34Z" transform="translate(-474.55 -523.1)"/><path d="M538.69,595h-3.6a4.18,4.18,0,0,1-4.17-4.18v-12.9a21.3,21.3,0,0,1-.11-2.2c0-.7,0-1.42.11-2.29V560a4.18,4.18,0,0,1,4.17-4.18h3.6a4.15,4.15,0,0,1,3.85,2.59c.21,0,.41,0,.6,0,6.81,0,12.34,7.78,12.34,17.35S550,593,543.14,593a7.49,7.49,0,0,1-.92,0A4.17,4.17,0,0,1,538.69,595Zm-3.6-37.2a2.18,2.18,0,0,0-2.17,2.18v13.54c-.08.9-.11,1.57-.11,2.2a20.7,20.7,0,0,0,.11,2.1v13a2.18,2.18,0,0,0,2.17,2.18h3.6a2.2,2.2,0,0,0,2-1.43l.29-.79.83.15a6.56,6.56,0,0,0,1.3.14c5.7,0,10.34-6.88,10.34-15.35s-4.64-15.35-10.34-15.35a7.18,7.18,0,0,0-1.16.1l-1,.17-.16-1a2.14,2.14,0,0,0-2.13-1.84Z" transform="translate(-474.55 -523.1)"/><path class="cls-2" d="M558,577.87a2.5,2.5,0,0,1-2.5-2.4c-.66-16.78-5.49-29.31-14.35-37.24a37.21,37.21,0,0,0-25.08-9.11h-.16c-1.44,0-35.36,1-35.36,46.24a2.5,2.5,0,0,1-5,0c0-49,37.91-51.16,40.21-51.24a42,42,0,0,1,28.73,10.37c9.91,8.87,15.29,22.58,16,40.77a2.51,2.51,0,0,1-2.4,2.6Z" transform="translate(-474.55 -523.1)"/></svg>