<svg id="Layer_1" data-name="Layer 1" xmlns="http://www.w3.org/2000/svg" viewBox="0 0 67.42 89.34"><defs><style>.cls-1{fill:#202123;}.cls-2{fill:#f5c43c;stroke:#000;stroke-miterlimit:10;stroke-width:2px;}.cls-3{fill:#fefefe;}</style></defs><title>1_thingFile</title><path class="cls-1" d="M619,510.14l-42.72-.27a1.39,1.39,0,0,1-1.39-1.41l.54-86.27a1.39,1.39,0,0,1,1.41-1.39l64.08.4a1.38,1.38,0,0,1,1,.42,1.4,1.4,0,0,1,.4,1l-.65,64.94a1.43,1.43,0,0,1-.41,1L620,509.73A1.41,1.41,0,0,1,619,510.14Zm-41.3-3.06,40.73.25L638.82,487l.63-63-61.27-.38Z" transform="translate(-574.85 -420.8)"/><path class="cls-1" d="M619,510.14a1.42,1.42,0,0,1-1.4-1.41l.07-10.61c0-8.38,3.77-12.1,12.07-12l10.52.06a1.41,1.41,0,0,1,1,2.4L620,509.73A1.41,1.41,0,0,1,619,510.14Zm10.72-21.26c-6.7,0-9.2,2.47-9.25,9.26l0,7.2,16.46-16.42Z" transform="translate(-574.85 -420.8)"/><rect class="cls-2" x="597.99" y="401.27" width="21.55" height="63.81" transform="translate(-403.08 618.4) rotate(-89.64)"/><path class="cls-3" d="M595.89,439.22h-2.42l0-2.17h2.42Zm2.48,0,.08-12.26,4.16,0a4.91,4.91,0,0,1,5.08,5.14v2a5,5,0,0,1-1.47,3.67,5.1,5.1,0,0,1-3.68,1.41Zm2.49-10.34-.06,8.46h1.61a2.45,2.45,0,0,0,2.07-.9,3.42,3.42,0,0,0,.75-2.3v-2a3.52,3.52,0,0,0-.72-2.34,2.53,2.53,0,0,0-2.06-.89Zm18.46,5.44a5.1,5.1,0,0,1-1.43,3.73,5.31,5.31,0,0,1-7.3-.05,5.28,5.28,0,0,1-1.39-3.74l0-2.2a5,5,0,0,1,1.44-3.7,4.68,4.68,0,0,1,3.62-1.46,4.86,4.86,0,0,1,3.67,1.5,5.07,5.07,0,0,1,1.39,3.72Zm-2.4-2.24a3.92,3.92,0,0,0-.7-2.37,2.52,2.52,0,0,0-3.88,0,3.85,3.85,0,0,0-.7,2.36l0,2.22a4,4,0,0,0,.7,2.4,2.5,2.5,0,0,0,3.86,0,3.87,3.87,0,0,0,.72-2.38Zm13.45,3.16,0,.06a4,4,0,0,1-1.21,3.12,4.76,4.76,0,0,1-3.41,1.14,4.7,4.7,0,0,1-3.56-1.45,5.07,5.07,0,0,1-1.33-3.67V432a5.08,5.08,0,0,1,1.36-3.64,4.47,4.47,0,0,1,3.46-1.41,5,5,0,0,1,3.5,1.17,4.15,4.15,0,0,1,1.23,3.2l0,.06-2.37,0a2.7,2.7,0,0,0-.56-1.87,2.29,2.29,0,0,0-1.79-.64,2,2,0,0,0-1.72.86,3.85,3.85,0,0,0-.67,2.28v2.45a3.65,3.65,0,0,0,.66,2.31,2.18,2.18,0,0,0,1.82.89,2.13,2.13,0,0,0,1.69-.6,2.78,2.78,0,0,0,.56-1.83Z" transform="translate(-574.85 -420.8)"/><path class="cls-1" d="M629.93,459.15l-42.71-.61a1.41,1.41,0,0,1,0-2.81l42.71.62a1.4,1.4,0,1,1,0,2.8Z" transform="translate(-574.85 -420.8)"/><path class="cls-1" d="M629.88,468.87l-42.72-.27a1.4,1.4,0,1,1,0-2.8l42.72.27a1.4,1.4,0,1,1,0,2.8Z" transform="translate(-574.85 -420.8)"/><path class="cls-1" d="M629.82,478.76l-42.72-.27a1.4,1.4,0,0,1-1.39-1.4,1.41,1.41,0,0,1,1.41-1.4l42.72.27a1.4,1.4,0,0,1,0,2.8Z" transform="translate(-574.85 -420.8)"/><path class="cls-1" d="M608.4,488.5,587,488.36a1.4,1.4,0,1,1,0-2.8l21.36.13a1.41,1.41,0,0,1,0,2.81Z" transform="translate(-574.85 -420.8)"/></svg>