<svg id="Layer_1" data-name="Layer 1" xmlns="http://www.w3.org/2000/svg" viewBox="0 0 91.99 66.08"><defs><style>.cls-1{fill:#f5c43c;stroke:#000;stroke-miterlimit:10;stroke-width:2px;}.cls-2{fill:#fff;}</style></defs><title>1_thingBook</title><path class="cls-1" d="M3.14,1H88.85A2.14,2.14,0,0,1,91,3.14V63a2.13,2.13,0,0,1-2.13,2.13H3.13A2.13,2.13,0,0,1,1,63V3.14A2.14,2.14,0,0,1,3.14,1Z"/><path d="M799.06,581.47H713.34a2.94,2.94,0,0,1-2.94-2.94V518.71a2.94,2.94,0,0,1,2.94-2.94h85.72a2.94,2.94,0,0,1,2.94,2.94v59.82A2.94,2.94,0,0,1,799.06,581.47Zm-85.72-64.09a1.34,1.34,0,0,0-1.33,1.33v59.82a1.34,1.34,0,0,0,1.33,1.33h85.72a1.34,1.34,0,0,0,1.33-1.33V518.71a1.34,1.34,0,0,0-1.33-1.33Z" transform="translate(-710.21 -515.58)"/><path class="cls-2" d="M750.06,520.85H715.48v55.54H756.2V527A6.14,6.14,0,0,0,750.06,520.85Z" transform="translate(-710.21 -515.58)"/><path d="M756.2,577.2H715.48a.81.81,0,0,1-.81-.81V520.85a.81.81,0,0,1,.81-.81h34.58a7,7,0,0,1,7,7v49.4A.81.81,0,0,1,756.2,577.2Zm-39.91-1.62h39.1V527a5.34,5.34,0,0,0-5.33-5.34H716.29Z" transform="translate(-710.21 -515.58)"/><path class="cls-2" d="M785.66,520.85H762.34A6.14,6.14,0,0,0,756.2,527v49.4h40.72V520.85Z" transform="translate(-710.21 -515.58)"/><path d="M796.92,577.2H756.2a.81.81,0,0,1-.81-.81V527a7,7,0,0,1,7-7h34.58a.81.81,0,0,1,.81.81v55.54A.81.81,0,0,1,796.92,577.2ZM757,575.58h39.11V521.65H762.34A5.34,5.34,0,0,0,757,527Z" transform="translate(-710.21 -515.58)"/><line class="cls-2" x1="13.08" y1="14.22" x2="38.18" y2="14.22"/><path d="M748.39,530.6h-25.1a.81.81,0,1,1,0-1.61h25.1a.81.81,0,0,1,0,1.61Z" transform="translate(-710.21 -515.58)"/><line class="cls-2" x1="13.08" y1="26.77" x2="38.18" y2="26.77"/><path d="M748.39,543.15h-25.1a.81.81,0,1,1,0-1.61h25.1a.81.81,0,0,1,0,1.61Z" transform="translate(-710.21 -515.58)"/><line class="cls-2" x1="13.08" y1="39.32" x2="38.18" y2="39.32"/><path d="M748.39,555.7h-25.1a.81.81,0,1,1,0-1.61h25.1a.81.81,0,0,1,0,1.61Z" transform="translate(-710.21 -515.58)"/><line class="cls-2" x1="13.08" y1="51.87" x2="38.18" y2="51.87"/><path d="M748.39,568.25h-25.1a.81.81,0,1,1,0-1.61h25.1a.81.81,0,0,1,0,1.61Z" transform="translate(-710.21 -515.58)"/><line class="cls-2" x1="53.81" y1="14.22" x2="78.9" y2="14.22"/><path d="M789.11,530.6H764a.81.81,0,1,1,0-1.61h25.1a.81.81,0,1,1,0,1.61Z" transform="translate(-710.21 -515.58)"/><line class="cls-2" x1="53.81" y1="26.77" x2="78.9" y2="26.77"/><path d="M789.11,543.15H764a.81.81,0,1,1,0-1.61h25.1a.81.81,0,1,1,0,1.61Z" transform="translate(-710.21 -515.58)"/><line class="cls-2" x1="53.81" y1="39.32" x2="78.9" y2="39.32"/><path d="M789.11,555.7H764a.81.81,0,1,1,0-1.61h25.1a.81.81,0,1,1,0,1.61Z" transform="translate(-710.21 -515.58)"/><line class="cls-2" x1="53.81" y1="51.87" x2="78.9" y2="51.87"/><path d="M789.11,568.25H764a.81.81,0,1,1,0-1.61h25.1a.81.81,0,1,1,0,1.61Z" transform="translate(-710.21 -515.58)"/></svg>