<svg id="Layer_1" data-name="Layer 1" xmlns="http://www.w3.org/2000/svg" viewBox="0 0 369.89 214.53"><defs><style>.cls-1,.cls-2,.cls-8{fill:#f9f9f9;}.cls-1,.cls-2,.cls-5{stroke:#000;}.cls-1,.cls-3{stroke-linecap:round;stroke-linejoin:round;}.cls-1,.cls-2,.cls-3,.cls-5,.cls-8{stroke-width:2px;}.cls-2,.cls-5,.cls-8{stroke-miterlimit:10;}.cls-3{fill:none;}.cls-3,.cls-8{stroke:#202123;}.cls-4{fill:#202123;}.cls-5,.cls-7{fill:#f5c43c;}.cls-6{fill:#fefefe;}.cls-9{fill:#fff;}</style></defs><title>1_things</title><rect class="cls-1" x="156.47" y="156" width="80.42" height="57.53" rx="6"/><rect class="cls-1" x="156.47" y="156" width="80.42" height="57.53" rx="6.83"/><polyline class="cls-1" points="167.81 168.92 195.85 192.66 224.42 169.07"/><line class="cls-1" x1="179.36" y1="189.25" x2="166.83" y2="201.47"/><line class="cls-1" x1="213.07" y1="189.25" x2="225.6" y2="202.55"/><circle class="cls-2" cx="337.56" cy="69.33" r="31.33"/><line class="cls-3" x1="306.22" y1="69.33" x2="367.35" y2="69.33"/><line class="cls-3" x1="337.56" y1="98.75" x2="337.56" y2="38"/><path class="cls-3" d="M781.67,425S766,429.2,766,457.86c0,18.72,15.67,29.81,15.67,29.81" transform="translate(-444.11 -387)"/><path class="cls-3" d="M781.67,425s15.66,4.2,15.66,32.86c0,18.72-15.66,29.81-15.66,29.81" transform="translate(-444.11 -387)"/><path class="cls-4" d="M619,510.14l-42.72-.27a1.39,1.39,0,0,1-1.39-1.41l.54-86.27a1.39,1.39,0,0,1,1.41-1.39l64.08.4a1.38,1.38,0,0,1,1,.42,1.4,1.4,0,0,1,.4,1l-.65,64.94a1.43,1.43,0,0,1-.41,1L620,509.73A1.41,1.41,0,0,1,619,510.14Zm-41.3-3.06,40.73.25L638.82,487l.63-63-61.27-.38Z" transform="translate(-444.11 -387)"/><path class="cls-4" d="M619,510.14a1.42,1.42,0,0,1-1.4-1.41l.07-10.61c0-8.38,3.77-12.1,12.07-12l10.52.06a1.41,1.41,0,0,1,1,2.4L620,509.73A1.41,1.41,0,0,1,619,510.14Zm10.72-21.26c-6.7,0-9.2,2.47-9.25,9.26l0,7.2,16.46-16.42Z" transform="translate(-444.11 -387)"/><rect class="cls-5" x="597.99" y="401.27" width="21.55" height="63.81" transform="translate(-272.34 652.2) rotate(-89.64)"/><path class="cls-6" d="M595.89,439.22h-2.42l0-2.17h2.42Zm2.48,0,.08-12.26,4.16,0a4.91,4.91,0,0,1,5.08,5.14v2a5,5,0,0,1-1.47,3.67,5.1,5.1,0,0,1-3.68,1.41Zm2.49-10.34-.06,8.46h1.61a2.45,2.45,0,0,0,2.07-.9,3.42,3.42,0,0,0,.75-2.3v-2a3.52,3.52,0,0,0-.72-2.34,2.53,2.53,0,0,0-2.06-.89Zm18.46,5.44a5.1,5.1,0,0,1-1.43,3.73,5.31,5.31,0,0,1-7.3-.05,5.28,5.28,0,0,1-1.39-3.74l0-2.2a5,5,0,0,1,1.44-3.7,4.68,4.68,0,0,1,3.62-1.46,4.86,4.86,0,0,1,3.67,1.5,5.07,5.07,0,0,1,1.39,3.72Zm-2.4-2.24a3.92,3.92,0,0,0-.7-2.37,2.52,2.52,0,0,0-3.88,0,3.85,3.85,0,0,0-.7,2.36l0,2.22a4,4,0,0,0,.7,2.4,2.5,2.5,0,0,0,3.86,0,3.87,3.87,0,0,0,.72-2.38Zm13.45,3.16,0,.06a4,4,0,0,1-1.21,3.12,4.76,4.76,0,0,1-3.41,1.14,4.7,4.7,0,0,1-3.56-1.45,5.07,5.07,0,0,1-1.33-3.67V432a5.08,5.08,0,0,1,1.36-3.64,4.47,4.47,0,0,1,3.46-1.41,5,5,0,0,1,3.5,1.17,4.15,4.15,0,0,1,1.23,3.2l0,.06-2.37,0a2.7,2.7,0,0,0-.56-1.87,2.29,2.29,0,0,0-1.79-.64,2,2,0,0,0-1.72.86,3.85,3.85,0,0,0-.67,2.28v2.45a3.65,3.65,0,0,0,.66,2.31,2.18,2.18,0,0,0,1.82.89,2.13,2.13,0,0,0,1.69-.6,2.78,2.78,0,0,0,.56-1.83Z" transform="translate(-444.11 -387)"/><path class="cls-4" d="M629.93,459.15l-42.71-.61a1.41,1.41,0,0,1,0-2.81l42.71.62a1.4,1.4,0,1,1,0,2.8Z" transform="translate(-444.11 -387)"/><path class="cls-4" d="M629.88,468.87l-42.72-.27a1.4,1.4,0,1,1,0-2.8l42.72.27a1.4,1.4,0,1,1,0,2.8Z" transform="translate(-444.11 -387)"/><path class="cls-4" d="M629.82,478.76l-42.72-.27a1.4,1.4,0,0,1-1.39-1.4,1.41,1.41,0,0,1,1.41-1.4l42.72.27a1.4,1.4,0,0,1,0,2.8Z" transform="translate(-444.11 -387)"/><path class="cls-4" d="M608.4,488.5,587,488.36a1.4,1.4,0,1,1,0-2.8l21.36.13a1.41,1.41,0,0,1,0,2.81Z" transform="translate(-444.11 -387)"/><rect class="cls-2" x="1" y="47" width="83.6" height="60.89" rx="2.89"/><line class="cls-2" x1="16.47" y1="47" x2="16.47" y2="108"/><line class="cls-2" x1="68.14" y1="47" x2="68.14" y2="107.89"/><line class="cls-2" x1="1" y1="61.48" x2="16.47" y2="61.48"/><line class="cls-2" x1="1" y1="77.44" x2="16.47" y2="77.44"/><line class="cls-2" x1="1" y1="93.41" x2="16.47" y2="93.41"/><line class="cls-2" x1="68.14" y1="61.48" x2="83.61" y2="61.48"/><line class="cls-2" x1="68.14" y1="77.44" x2="83.61" y2="77.44"/><line class="cls-2" x1="68.14" y1="93.41" x2="83.61" y2="93.41"/><path class="cls-4" d="M472,464.18V448.62a1.9,1.9,0,0,1,2.85-1.65l13.48,7.78,13.48,7.78a1.91,1.91,0,0,1,0,3.3l-13.48,7.78-13.48,7.78a1.9,1.9,0,0,1-2.85-1.65Z" transform="translate(-444.11 -387)"/><path class="cls-7" d="M503.49,575.69c0-.75,0-1.48-.11-2.2V560a3.17,3.17,0,0,0-3.17-3.18h-3.6a3.16,3.16,0,0,0-3.12,2.69,7.39,7.39,0,0,0-1.33-.12c-6.26,0-11.34,7.32-11.34,16.35S485.9,592,492.16,592a8.27,8.27,0,0,0,1.49-.15,3.16,3.16,0,0,0,3,2.08h3.6a3.17,3.17,0,0,0,3.17-3.18v-12.9C503.45,577.17,503.49,576.44,503.49,575.69Z" transform="translate(-444.11 -387)"/><path d="M500.21,595h-3.6a4.17,4.17,0,0,1-3.53-2,7.49,7.49,0,0,1-.92,0c-6.81,0-12.34-7.78-12.34-17.35s5.53-17.35,12.34-17.35c.19,0,.39,0,.6,0a4.15,4.15,0,0,1,3.85-2.59h3.6a4.18,4.18,0,0,1,4.17,4.18v13.54a21.44,21.44,0,0,1,.11,2.2c0,.69,0,1.42-.11,2.29v12.81A4.18,4.18,0,0,1,500.21,595Zm-5.92-4.22.29.79a2.19,2.19,0,0,0,2,1.43h3.6a2.18,2.18,0,0,0,2.17-2.18v-12.9c.08-.9.11-1.57.11-2.2a20.7,20.7,0,0,0-.11-2.1V560a2.18,2.18,0,0,0-2.17-2.18h-3.6a2.14,2.14,0,0,0-2.13,1.84l-.16,1-1-.17a7.18,7.18,0,0,0-1.16-.1c-5.7,0-10.34,6.88-10.34,15.35S486.46,591,492.16,591a6.56,6.56,0,0,0,1.3-.14Z" transform="translate(-444.11 -387)"/><path class="cls-7" d="M543.14,559.34a7.39,7.39,0,0,0-1.33.12,3.17,3.17,0,0,0-3.13-2.69h-3.59a3.17,3.17,0,0,0-3.17,3.18v13.54c-.07.72-.11,1.45-.11,2.2s0,1.48.11,2.2v12.9a3.17,3.17,0,0,0,3.17,3.18h3.59a3.16,3.16,0,0,0,3-2.08,8.27,8.27,0,0,0,1.49.15c6.26,0,11.34-7.32,11.34-16.35S549.4,559.34,543.14,559.34Z" transform="translate(-444.11 -387)"/><path d="M538.69,595h-3.6a4.18,4.18,0,0,1-4.17-4.18v-12.9a21.3,21.3,0,0,1-.11-2.2c0-.7,0-1.42.11-2.29V560a4.18,4.18,0,0,1,4.17-4.18h3.6a4.15,4.15,0,0,1,3.85,2.59c.21,0,.41,0,.6,0,6.81,0,12.34,7.78,12.34,17.35S550,593,543.14,593a7.49,7.49,0,0,1-.92,0A4.17,4.17,0,0,1,538.69,595Zm-3.6-37.2a2.18,2.18,0,0,0-2.17,2.18v13.54c-.08.9-.11,1.57-.11,2.2a20.7,20.7,0,0,0,.11,2.1v13a2.18,2.18,0,0,0,2.17,2.18h3.6a2.2,2.2,0,0,0,2-1.43l.29-.79.83.15a6.56,6.56,0,0,0,1.3.14c5.7,0,10.34-6.88,10.34-15.35s-4.64-15.35-10.34-15.35a7.18,7.18,0,0,0-1.16.1l-1,.17-.16-1a2.14,2.14,0,0,0-2.13-1.84Z" transform="translate(-444.11 -387)"/><path class="cls-8" d="M558,577.87a2.5,2.5,0,0,1-2.5-2.4c-.66-16.78-5.49-29.31-14.35-37.24a37.21,37.21,0,0,0-25.08-9.11h-.16c-1.44,0-35.36,1-35.36,46.24a2.5,2.5,0,0,1-5,0c0-49,37.91-51.16,40.21-51.24a42,42,0,0,1,28.73,10.37c9.91,8.87,15.29,22.58,16,40.77a2.51,2.51,0,0,1-2.4,2.6Z" transform="translate(-444.11 -387)"/><path class="cls-5" d="M269.23,129.58h85.71a2.14,2.14,0,0,1,2.14,2.14v59.82a2.13,2.13,0,0,1-2.13,2.13H269.23a2.13,2.13,0,0,1-2.13-2.13V131.71A2.14,2.14,0,0,1,269.23,129.58Z"/><path d="M799.06,581.47H713.34a2.94,2.94,0,0,1-2.94-2.94V518.71a2.94,2.94,0,0,1,2.94-2.94h85.72a2.94,2.94,0,0,1,2.94,2.94v59.82A2.94,2.94,0,0,1,799.06,581.47Zm-85.72-64.09a1.34,1.34,0,0,0-1.33,1.33v59.82a1.34,1.34,0,0,0,1.33,1.33h85.72a1.34,1.34,0,0,0,1.33-1.33V518.71a1.34,1.34,0,0,0-1.33-1.33Z" transform="translate(-444.11 -387)"/><path class="cls-9" d="M750.06,520.85H715.48v55.54H756.2V527A6.14,6.14,0,0,0,750.06,520.85Z" transform="translate(-444.11 -387)"/><path d="M756.2,577.2H715.48a.81.81,0,0,1-.81-.81V520.85a.81.81,0,0,1,.81-.81h34.58a7,7,0,0,1,7,7v49.4A.81.81,0,0,1,756.2,577.2Zm-39.91-1.62h39.1V527a5.34,5.34,0,0,0-5.33-5.34H716.29Z" transform="translate(-444.11 -387)"/><path class="cls-9" d="M785.66,520.85H762.34A6.14,6.14,0,0,0,756.2,527v49.4h40.72V520.85Z" transform="translate(-444.11 -387)"/><path d="M796.92,577.2H756.2a.81.81,0,0,1-.81-.81V527a7,7,0,0,1,7-7h34.58a.81.81,0,0,1,.81.81v55.54A.81.81,0,0,1,796.92,577.2ZM757,575.58h39.11V521.65H762.34A5.34,5.34,0,0,0,757,527Z" transform="translate(-444.11 -387)"/><line class="cls-9" x1="279.18" y1="142.79" x2="304.28" y2="142.79"/><path d="M748.39,530.6h-25.1a.81.81,0,1,1,0-1.61h25.1a.81.81,0,0,1,0,1.61Z" transform="translate(-444.11 -387)"/><line class="cls-9" x1="279.18" y1="155.34" x2="304.28" y2="155.34"/><path d="M748.39,543.15h-25.1a.81.81,0,1,1,0-1.61h25.1a.81.81,0,0,1,0,1.61Z" transform="translate(-444.11 -387)"/><line class="cls-9" x1="279.18" y1="167.89" x2="304.28" y2="167.89"/><path d="M748.39,555.7h-25.1a.81.81,0,1,1,0-1.61h25.1a.81.81,0,0,1,0,1.61Z" transform="translate(-444.11 -387)"/><line class="cls-9" x1="279.18" y1="180.44" x2="304.28" y2="180.44"/><path d="M748.39,568.25h-25.1a.81.81,0,1,1,0-1.61h25.1a.81.81,0,0,1,0,1.61Z" transform="translate(-444.11 -387)"/><line class="cls-9" x1="319.9" y1="142.79" x2="345" y2="142.79"/><path d="M789.11,530.6H764a.81.81,0,1,1,0-1.61h25.1a.81.81,0,1,1,0,1.61Z" transform="translate(-444.11 -387)"/><line class="cls-9" x1="319.9" y1="155.34" x2="345" y2="155.34"/><path d="M789.11,543.15H764a.81.81,0,1,1,0-1.61h25.1a.81.81,0,1,1,0,1.61Z" transform="translate(-444.11 -387)"/><line class="cls-9" x1="319.9" y1="167.89" x2="345" y2="167.89"/><path d="M789.11,555.7H764a.81.81,0,1,1,0-1.61h25.1a.81.81,0,1,1,0,1.61Z" transform="translate(-444.11 -387)"/><line class="cls-9" x1="319.9" y1="180.44" x2="345" y2="180.44"/><path d="M789.11,568.25H764a.81.81,0,1,1,0-1.61h25.1a.81.81,0,1,1,0,1.61Z" transform="translate(-444.11 -387)"/><path class="cls-1" d="M721.05,450.37a27,27,0,0,0,8-19.19,2.9,2.9,0,0,0-5.79,0,21.34,21.34,0,0,1-21.34,21.34h-.32a21.34,21.34,0,0,1-21.34-21.34,2.9,2.9,0,0,0-5.79,0,27.14,27.14,0,0,0,24.4,27V478H686a2.9,2.9,0,1,0,0,5.79h31.52a2.9,2.9,0,1,0,0-5.79H704.61V458.18A26.93,26.93,0,0,0,721.05,450.37Z" transform="translate(-444.11 -387)"/><path class="cls-1" d="M709,430.24v-3.69h8.43v-3.73H709v-3.69h8.43V415.4H709v-3.69h8.43V408H709v-3.7h8.43v-.69a15.6,15.6,0,0,0-15.6-15.6h-.32A15.61,15.61,0,0,0,686,403.6v.69h8.43V408H686v3.72h8.43v3.69H686v3.73h8.43v3.69H686v3.73h8.43v3.69H686v.94a15.61,15.61,0,0,0,15.6,15.61h.32a15.6,15.6,0,0,0,15.6-15.61v-.94Z" transform="translate(-444.11 -387)"/></svg>