<svg id="Layer_1" data-name="Layer 1" xmlns="http://www.w3.org/2000/svg" viewBox="0 0 306.75 522.47"><defs><style>.cls-1,.cls-2{fill:#fff;}.cls-12,.cls-16,.cls-2,.cls-3,.cls-6,.cls-8{stroke:#202123;}.cls-2,.cls-3{stroke-linecap:round;stroke-linejoin:round;}.cls-12,.cls-13,.cls-15,.cls-16,.cls-17,.cls-2,.cls-3,.cls-6,.cls-7,.cls-8{stroke-width:2px;}.cls-3{fill:none;}.cls-17,.cls-4{fill:#89a6f5;}.cls-5{fill:#e8e8e8;}.cls-15,.cls-6,.cls-7{fill:#64c3d9;}.cls-12,.cls-13,.cls-15,.cls-16,.cls-17,.cls-6,.cls-7,.cls-8{stroke-miterlimit:10;}.cls-13,.cls-7{stroke:#f9f9f9;}.cls-8{fill:#f5c43c;}.cls-11,.cls-9{fill:#202123;}.cls-10{fill:#0c6bf4;}.cls-11{opacity:0.3;}.cls-12,.cls-13{fill:#5c4799;}.cls-14{fill:#262628;}.cls-15{stroke:#050505;}.cls-16{fill:#f53b69;}.cls-17{stroke:#000;}</style></defs><title>3_human</title><circle class="cls-1" cx="179.13" cy="127.01" r="127.01"/><circle class="cls-2" cx="150.07" cy="76.77" r="6.12"/><circle class="cls-2" cx="202.98" cy="76.77" r="6.12"/><path class="cls-3" d="M1437.25,445.59A127.32,127.32,0,0,1,1212.94,407" transform="translate(-1156.08 -241.71)"/><path class="cls-3" d="M1361.27,246.25a127.17,127.17,0,0,1,99.81,138.23" transform="translate(-1156.08 -241.71)"/><path class="cls-3" d="M1223.24,309.13a132.11,132.11,0,0,1,9-13.73,126.63,126.63,0,0,1,79.46-49.81" transform="translate(-1156.08 -241.71)"/><path class="cls-4" d="M1348.9,362.35s33.26-3.44,43.55,31,14,78,14,78H1260.61s3.5-43.54,13.79-78,43.33-31,43.33-31Z" transform="translate(-1156.08 -241.71)"/><line class="cls-3" x1="173.6" y1="162.7" x2="161.98" y2="121.11"/><path class="cls-2" d="M1270.73,472.35h23.07s-1.46-12.45-11.72-12.45S1270.73,472.35,1270.73,472.35Z" transform="translate(-1156.08 -241.71)"/><path class="cls-2" d="M1370.72,472.35h23.08s-1.46-12.45-11.72-12.45S1370.72,472.35,1370.72,472.35Z" transform="translate(-1156.08 -241.71)"/><line class="cls-3" x1="180.9" y1="162.7" x2="192.52" y2="121.11"/><line class="cls-3" x1="129.8" y1="153.64" x2="129.8" y2="160.64"/><line class="cls-3" x1="223.8" y1="152.64" x2="223.8" y2="159.64"/><path class="cls-2" d="M1317.89,343v19.41s1.57,8.5,14.55,8.5,15.45-8.95,15.45-8.95V342.3Z" transform="translate(-1156.08 -241.71)"/><path class="cls-2" d="M1303,309" transform="translate(-1156.08 -241.71)"/><path class="cls-2" d="M1361.63,309.06" transform="translate(-1156.08 -241.71)"/><path class="cls-5" d="M1319.37,343.35s2,13.71,13.52,13.71c12,0,14.44-13.71,14.44-13.71Z" transform="translate(-1156.08 -241.71)"/><path class="cls-6" d="M1283.36,473l-.87-64.13a8.67,8.67,0,0,1,8.65-8.65h87.1a8.67,8.67,0,0,1,8.65,8.65L1386,473" transform="translate(-1156.08 -241.71)"/><circle class="cls-7" cx="177.49" cy="205.24" r="5.85"/><path class="cls-3" d="M1348.9,361.44s33.26-2.49,43.55,32,14,79,14,79H1260.61s3.5-44.49,13.79-79,43.33-31.59,43.33-31.59" transform="translate(-1156.08 -241.71)"/><circle class="cls-8" cx="232.07" cy="37.28" r="3.06"/><line class="cls-3" x1="90.8" y1="114.14" x2="98.8" y2="114.14"/><line class="cls-3" x1="94.8" y1="110.14" x2="94.8" y2="118.14"/><circle class="cls-6" cx="78.22" cy="95.67" r="3.06"/><path class="cls-2" d="M1332.67,351c-9.45-.17-26.85-12.75-26.85-28.34V298.35c0-5.69,4-10.35,8.82-10.35h36c4.85,0,8.82,4.66,8.82,10.35v22.94C1359.51,337.63,1343.51,351.19,1332.67,351Z" transform="translate(-1156.08 -241.71)"/><path class="cls-9" d="M1304.75,311.4c.29.67,1.37.92,1.69.26,4.35-9.18,6-14.54,7.78-17.47a50.62,50.62,0,0,0,3.15-5.92l.55,2.06c4.69,7.36,20.78,9.4,20.78,9.4,10.9,2.13,16.49,7.35,18.2,11,.16.36.32.72.47,1.08.7,1.68,2.43,1,3.43-.48,1.43-2.16,2.42-10.45,2.42-10.45.62-3.94.66-14.2,1.27-21.06.38-4.32,2.24-8.3-4.71-8.86-5.47-.44-16.29-2-20.64-2.7-12.14-2.26-17.51,2.49-17.51,2.49-1.13,1.57-2.73,3.14-4,5a1.73,1.73,0,0,0-.3-.16,9.52,9.52,0,0,0-1.56-.51l0-.17-1,0a7.45,7.45,0,0,0-1.79.08c-2.75.16-6.88.55-9.36,1.5-4,1.52-5.91,3.19-5,10.28.36,2.69.65,5.48.88,7.9a9.37,9.37,0,0,0,.41,2Z" transform="translate(-1156.08 -241.71)"/><circle class="cls-1" cx="178.13" cy="394.89" r="127.01"/><path class="cls-10" d="M1270,656.13" transform="translate(-1156.08 -241.71)"/><path class="cls-3" d="M1431.38,718.69a127.31,127.31,0,0,1-220.82-55.2" transform="translate(-1156.08 -241.71)"/><path class="cls-3" d="M1370.44,514.25a127.15,127.15,0,0,1,89.24,145.28" transform="translate(-1156.08 -241.71)"/><path class="cls-3" d="M1244,547.25a126.69,126.69,0,0,1,77.09-37.35" transform="translate(-1156.08 -241.71)"/><path class="cls-9" d="M1365.88,564.43c-.41,4.6-1.91,18.92-4.88,23.57V578l-6.17-14.29,9.73-.62A1.24,1.24,0,0,1,1365.88,564.43Z" transform="translate(-1156.08 -241.71)"/><path class="cls-9" d="M1302,564s.44,18.44,4,24V578l6.17-14.29Z" transform="translate(-1156.08 -241.71)"/><path class="cls-4" d="M1350,628.51s33.26-2.44,43.55,32,14,78,14,78H1261.71s3.5-43.53,13.79-78,43.33-32,43.33-32Z" transform="translate(-1156.08 -241.71)"/><path class="cls-11" d="M1350,628.51s33.26-2.44,43.55,32,14,78,14,78H1261.71s3.5-43.53,13.79-78,43.33-32,43.33-32Z" transform="translate(-1156.08 -241.71)"/><line class="cls-3" x1="173.7" y1="430.49" x2="162.08" y2="388.89"/><path class="cls-2" d="M1271.94,739.51H1295s-1.46-12.45-11.72-12.45S1271.94,739.51,1271.94,739.51Z" transform="translate(-1156.08 -241.71)"/><path class="cls-2" d="M1373,739.51h23.08s-1.47-12.45-11.72-12.45S1373,739.51,1373,739.51Z" transform="translate(-1156.08 -241.71)"/><line class="cls-3" x1="184.93" y1="429.73" x2="194.69" y2="387.65"/><line class="cls-3" x1="131.34" y1="415.8" x2="131.34" y2="427.8"/><line class="cls-3" x1="224.34" y1="415.8" x2="224.34" y2="425.8"/><path class="cls-2" d="M1318.89,610v19.41s1.57,8.5,14.55,8.5,15.45-8.95,15.45-8.95V609.3Z" transform="translate(-1156.08 -241.71)"/><path class="cls-5" d="M1320.37,610.35s2,13.71,13.52,13.71c12,0,14.44-13.71,14.44-13.71Z" transform="translate(-1156.08 -241.71)"/><circle class="cls-2" cx="151.07" cy="346.77" r="6.12"/><circle class="cls-2" cx="203.98" cy="346.77" r="6.12"/><path class="cls-2" d="M1333.67,618c-9.45-.17-26.85-12.75-26.85-28.34V565.35c0-5.69,4-10.35,8.82-10.35h36c4.85,0,8.82,4.66,8.82,10.35v22.94C1360.51,604.63,1344.51,618.19,1333.67,618Z" transform="translate(-1156.08 -241.71)"/><path class="cls-12" d="M1284.46,739.74l-.87-64.13a8.67,8.67,0,0,1,8.65-8.65h87.1a8.67,8.67,0,0,1,8.65,8.65l-.88,64.13" transform="translate(-1156.08 -241.71)"/><circle class="cls-13" cx="178.59" cy="472.03" r="5.85"/><path class="cls-3" d="M1350,628.22s33.26-2.3,43.55,32.16,14,79.13,14,79.13H1261.71s3.5-44.68,13.79-79.13,43.33-31.69,43.33-31.69" transform="translate(-1156.08 -241.71)"/><path class="cls-14" d="M1311.05,552.83a5.88,5.88,0,0,0,3,7.33,79.52,79.52,0,0,0,24.55,7.32,81.88,81.88,0,0,0,23.22-.54,5.84,5.84,0,0,0,4.76-6.77c-1.16-6.42-4.92-18.91-25.53-24.17C1322.5,531.28,1313.71,545.59,1311.05,552.83Z" transform="translate(-1156.08 -241.71)"/><path class="cls-14" d="M1322,558l-15,23s-14.62-7.35-6-22C1311,542,1322,558,1322,558Z" transform="translate(-1156.08 -241.71)"/><circle class="cls-15" cx="250.53" cy="320.69" r="3.06"/><line class="cls-3" x1="88.84" y1="470.3" x2="96.84" y2="470.3"/><line class="cls-3" x1="92.84" y1="466.3" x2="92.84" y2="474.3"/><circle class="cls-16" cx="72.47" cy="444.74" r="3.06"/><path class="cls-2" d="M1335.38,637.75s4.17-.44,7.62,7.25l8.82-16.45a5.82,5.82,0,0,0-2.27-6.24Z" transform="translate(-1156.08 -241.71)"/><path class="cls-2" d="M1333.86,637.75s-2.9,1.13-5.86,7.25l-12.15-16.45a5.8,5.8,0,0,1,2.27-6.24Z" transform="translate(-1156.08 -241.71)"/><path class="cls-17" d="M1230.09,497.06l-13.81-7.94a2.28,2.28,0,0,0-3.42,2v6.3a1.63,1.63,0,0,1-1.64,1.64h-51.51a2.63,2.63,0,0,0-2.63,2.63v10.5a2.62,2.62,0,0,0,2.63,2.62h51.51a1.64,1.64,0,0,1,1.64,1.64v6.41a2.28,2.28,0,0,0,3.42,2l13.8-7.94,13.78-7.94a2.27,2.27,0,0,0,0-3.94Z" transform="translate(-1156.08 -241.71)"/></svg>