<svg id="Layer_1" data-name="Layer 1" xmlns="http://www.w3.org/2000/svg" viewBox="0 0 334.09 281.98"><defs><style>.cls-1{fill:#fff;}.cls-2{fill:#64c3d9;}.cls-11,.cls-18,.cls-19,.cls-20,.cls-3{fill:none;stroke-linecap:round;}.cls-3{stroke:#dfe9ea;stroke-width:3px;}.cls-19,.cls-3,.cls-9{stroke-miterlimit:10;}.cls-16,.cls-4{font-size:12px;}.cls-13,.cls-16,.cls-4,.cls-5{fill:#878787;}.cls-4{font-family:NotoSansCJKkr-Medium-KSCpc-EUC-H, Noto Sans CJK KR;}.cls-5{font-size:11px;}.cls-13,.cls-16,.cls-5{font-family:NotoSansCJKkr-Regular-KSCpc-EUC-H, Noto Sans CJK KR;}.cls-6{letter-spacing:-0.02em;}.cls-7{letter-spacing:-0.16em;}.cls-8{letter-spacing:0.02em;}.cls-9{fill:#f5c43c;}.cls-11,.cls-9{stroke:#202123;}.cls-19,.cls-20,.cls-9{stroke-width:1.5px;}.cls-10{font-size:11.61px;fill:#231f20;font-family:NotoSansCJKkr-Bold-KSCpc-EUC-H, Noto Sans CJK KR;}.cls-11,.cls-18,.cls-20{stroke-linejoin:round;}.cls-11,.cls-18{stroke-width:2px;}.cls-12{fill:#dfe9ea;}.cls-13{font-size:10.45px;}.cls-14{letter-spacing:-0.01em;}.cls-15{letter-spacing:0em;}.cls-17{font-size:10px;fill:#1e1e1e;font-family:NotoSansCJKkr-DemiLight-KSCpc-EUC-H, Noto Sans CJK KR;}.cls-18,.cls-20{stroke:#fff;}.cls-19{stroke:#878787;}</style></defs><title>2_site</title><rect class="cls-1" x="1" y="1" width="332.09" height="279.98" rx="9.69"/><path class="cls-2" d="M10,1.14H324.38A8.83,8.83,0,0,1,333.21,10V34.14a0,0,0,0,1,0,0H1.21a0,0,0,0,1,0,0V10A8.83,8.83,0,0,1,10,1.14Z"/><line class="cls-3" x1="12.71" y1="61.14" x2="321.71" y2="61.14"/><line class="cls-3" x1="12.71" y1="90.14" x2="321.71" y2="90.14"/><text class="cls-4" transform="translate(18.56 54.05)">비즈마이크로 코웍 디자인 수정</text><text class="cls-5" transform="translate(35.49 83.65)"><tspan class="cls-6">이혜</tspan><tspan x="19.8" y="0">미</tspan><tspan class="cls-7" x="29.92" y="0"> </tspan><tspan class="cls-8" x="31.24" y="0">과</tspan><tspan x="41.58" y="0">장</tspan></text><rect class="cls-9" x="278.74" y="245.24" width="42.25" height="19.89" rx="2.5"/><text class="cls-10" transform="translate(283.84 259.2)">보내기</text><rect class="cls-11" x="1" y="1" width="332.09" height="279.98" rx="9.69"/><rect class="cls-12" x="12.85" y="107.28" width="113.18" height="24.38" rx="3.5"/><rect class="cls-12" x="136.09" y="107.28" width="185.73" height="24.38" rx="3.5"/><rect class="cls-12" x="12.66" y="141.57" width="309.16" height="24.38" rx="3.5"/><rect class="cls-12" x="12.37" y="178.72" width="309.16" height="56.3" rx="3.5"/><text class="cls-13" transform="translate(21.56 123.37)">진행중</text><text class="cls-13" transform="translate(147.51 123.37)">50%</text><text class="cls-13" transform="translate(35.49 157.2)"># Bizmic<tspan class="cls-14" x="40.69" y="0">r</tspan><tspan class="cls-15" x="44.63" y="0">o 코웍스 기획채널</tspan></text><text class="cls-16" transform="translate(51.01 198.92)">작업시작일</text><text class="cls-17" transform="translate(52.95 222.14)">2021.04.12</text><text class="cls-17" transform="translate(218.99 222.14)">2021.04.15</text><text class="cls-16" transform="translate(216.05 198.92)">완료예정일</text><line class="cls-18" x1="166.71" y1="185.64" x2="166.71" y2="228.64"/><circle class="cls-19" cx="24.96" cy="79.04" r="4.08"/><line class="cls-19" x1="27.69" y1="82.07" x2="30.58" y2="85.12"/><circle class="cls-19" cx="25" cy="153.09" r="3.87"/><line class="cls-19" x1="27.59" y1="155.96" x2="30.33" y2="158.85"/><polyline class="cls-20" points="106.38 118.15 110.86 122.64 115.21 118.15"/><polyline class="cls-20" points="301.38 118.15 305.86 122.64 310.21 118.15"/></svg>