<svg id="Layer_1" data-name="Layer 1" xmlns="http://www.w3.org/2000/svg" viewBox="0 0 472.33 317.46"><defs><style>.cls-1,.cls-5{fill:#fff;}.cls-2{fill:#0c6bf4;}.cls-3{fill:#c7d3ef;opacity:0.3;}.cls-4{fill:#89a6f5;}.cls-12,.cls-13,.cls-14,.cls-19,.cls-21,.cls-24,.cls-25,.cls-26,.cls-5,.cls-6,.cls-7,.cls-9{stroke:#202123;}.cls-13,.cls-22,.cls-23,.cls-25,.cls-27,.cls-5,.cls-6,.cls-7{stroke-linecap:round;stroke-linejoin:round;}.cls-16,.cls-17,.cls-21,.cls-26,.cls-5,.cls-6{stroke-width:2px;}.cls-13,.cls-22,.cls-23,.cls-25,.cls-27,.cls-6,.cls-7{fill:none;}.cls-7,.cls-9{stroke-width:2.3px;}.cls-8{fill:#e8e8e8;}.cls-10,.cls-19,.cls-21,.cls-9{fill:#f53b69;}.cls-10,.cls-12,.cls-14,.cls-16,.cls-17,.cls-18,.cls-19,.cls-21,.cls-24,.cls-26,.cls-9{stroke-miterlimit:10;}.cls-10,.cls-17{stroke:#fff;}.cls-10{stroke-width:3px;}.cls-11{fill:#202123;}.cls-12,.cls-16,.cls-17,.cls-26{fill:#f5c43c;}.cls-14,.cls-18{fill:#64c3d9;}.cls-15{fill:#677593;}.cls-16{stroke:#000;}.cls-18{stroke:#050505;}.cls-20{fill:#262628;}.cls-22,.cls-23,.cls-27{stroke:#89a6f5;}.cls-23{stroke-dasharray:4.07 4.07;}.cls-24{fill:#f9f9f9;}.cls-24,.cls-25{stroke-width:1.5px;}.cls-27{stroke-dasharray:4;}</style></defs><title>2_human</title><circle class="cls-1" cx="344.58" cy="189.73" r="127.01"/><path class="cls-2" d="M1206.54,443.62" transform="translate(-927.21 -234.36)"/><circle class="cls-1" cx="127.12" cy="127.01" r="127.01"/><path class="cls-3" d="M934.41,320.43s67.79,147.11,186.93,64.26C1229.6,309.41,1362.68,335.18,1397,445c0,0-17,103-125.85,105.44-109.84-5.06-123.44-102-123.44-102s-40.2,49.39-105.49,41.39C969.79,480.94,905.17,410.88,934.41,320.43Z" transform="translate(-927.21 -234.36)"/><path class="cls-4" d="M1071,351s35-2,45,32c10.63,36.14,14.61,81,14.61,81H977.78s4.86-46.51,14.22-83c7.77-30.28,46-30,46-30" transform="translate(-927.21 -234.36)"/><path class="cls-5" d="M989.84,464h23.08s-1.47-12.45-11.72-12.45S989.84,464,989.84,464Z" transform="translate(-927.21 -234.36)"/><path class="cls-5" d="M1093.84,464h23.07s-1.46-12.45-11.72-12.45S1093.84,464,1093.84,464Z" transform="translate(-927.21 -234.36)"/><circle class="cls-5" cx="97.37" cy="70.49" r="6.61"/><circle class="cls-5" cx="153.49" cy="70.49" r="6.61"/><path class="cls-6" d="M1070.53,351.1s34.93-3.57,45.74,32.18S1131,464.21,1131,464.21H977.78s3.68-45.18,14.49-80.93,45.51-32.18,45.51-32.18Z" transform="translate(-927.21 -234.36)"/><line class="cls-7" x1="122.18" y1="160.46" x2="110.13" y2="117.33"/><line class="cls-7" x1="129.75" y1="160.46" x2="141.8" y2="117.33"/><line class="cls-6" x1="174.23" y1="148.02" x2="174.23" y2="157.28"/><line class="cls-6" x1="76.23" y1="148.02" x2="76.23" y2="157.28"/><path class="cls-5" d="M1037.16,331.13v20.12s1.64,8.81,15.09,8.81,16-9.28,16-9.28V330.42Z" transform="translate(-927.21 -234.36)"/><path class="cls-5" d="M1021.69,310.43" transform="translate(-927.21 -234.36)"/><path class="cls-5" d="M1021.69,295.89" transform="translate(-927.21 -234.36)"/><path class="cls-5" d="M1082.51,296" transform="translate(-927.21 -234.36)"/><path class="cls-8" d="M1038.7,331.51s2.1,14.22,14,14.22c12.45,0,15-14.22,15-14.22Z" transform="translate(-927.21 -234.36)"/><path class="cls-9" d="M1107.79,463.88l.91-66.49a9,9,0,0,0-9-9h-90.3a9,9,0,0,0-9,9l.91,66.49Z" transform="translate(-927.21 -234.36)"/><circle class="cls-10" cx="126.22" cy="202.56" r="6.07"/><path class="cls-5" d="M1052.49,339.37c-9.8-.17-27.84-13.22-27.84-29.38V284.78c0-5.9,4.12-10.73,9.14-10.73h37.39c5,0,9.14,4.83,9.14,10.73v23.79C1080.32,325.51,1063.72,339.57,1052.49,339.37Z" transform="translate(-927.21 -234.36)"/><path class="cls-11" d="M1023.54,298.31c.31.7,1.43,1,1.75.27,4.52-9.51,6.24-15.07,8.07-18.11a52.62,52.62,0,0,0,3.27-6.14l.57,2.13c4.86,7.64,21.54,9.75,21.54,9.75,11.3,2.21,17.1,7.63,18.87,11.46.17.36.33.73.49,1.11.73,1.74,2.51,1.07,3.55-.5,1.48-2.24,2.51-10.83,2.51-10.83.65-4.09.68-14.72,1.31-21.83.4-4.48,2.33-8.61-4.87-9.19-5.68-.45-16.9-2.11-21.41-2.8-12.58-2.34-18.14,2.59-18.14,2.59-1.18,1.62-2.84,3.25-4.11,5.19a2,2,0,0,0-.32-.17,10.84,10.84,0,0,0-1.61-.53l0-.17s-.39,0-1,0a7.53,7.53,0,0,0-1.86.08c-2.85.16-7.13.57-9.69,1.55-4.11,1.58-6.13,3.31-5.15,10.66.37,2.79.67,5.68.9,8.2a9.35,9.35,0,0,0,.43,2.09Z" transform="translate(-927.21 -234.36)"/><path class="cls-7" d="M1156.36,438.24a127.3,127.3,0,0,1-224.3-38.62" transform="translate(-927.21 -234.36)"/><path class="cls-7" d="M1080.39,238.89a127.18,127.18,0,0,1,99.8,138.24" transform="translate(-927.21 -234.36)"/><path class="cls-7" d="M942.36,301.78a131.57,131.57,0,0,1,9-13.74,126.68,126.68,0,0,1,79.46-49.8" transform="translate(-927.21 -234.36)"/><circle class="cls-12" cx="180.06" cy="37.28" r="3.06"/><line class="cls-13" x1="38.79" y1="114.14" x2="46.79" y2="114.14"/><line class="cls-13" x1="42.79" y1="110.14" x2="42.79" y2="118.14"/><circle class="cls-14" cx="26.21" cy="95.67" r="3.06"/><path class="cls-7" d="M1368,506.18A127.31,127.31,0,0,1,1147.14,451" transform="translate(-927.21 -234.36)"/><path class="cls-7" d="M1307,301.73A127.2,127.2,0,0,1,1396.26,447" transform="translate(-927.21 -234.36)"/><path class="cls-7" d="M1180.54,334.74a126.61,126.61,0,0,1,77.1-37.35" transform="translate(-927.21 -234.36)"/><path class="cls-15" d="M1286.58,416s33.26-2.44,43.55,32,14,78,14,78H1198.28s3.51-43.54,13.8-78,43.32-32,43.32-32Z" transform="translate(-927.21 -234.36)"/><line class="cls-7" x1="340.15" y1="224.33" x2="328.53" y2="182.73"/><path class="cls-5" d="M1208.51,527h23.08s-1.47-12.45-11.72-12.45S1208.51,527,1208.51,527Z" transform="translate(-927.21 -234.36)"/><path class="cls-5" d="M1309.61,527h23.08s-1.47-12.45-11.73-12.45S1309.61,527,1309.61,527Z" transform="translate(-927.21 -234.36)"/><line class="cls-7" x1="347.45" y1="224.33" x2="359.07" y2="182.73"/><line class="cls-6" x1="296.79" y1="210.64" x2="296.79" y2="222.64"/><line class="cls-6" x1="389.79" y1="210.64" x2="389.79" y2="220.64"/><path class="cls-16" d="M1221,527.23l-.88-64.13a8.68,8.68,0,0,1,8.65-8.65h87.1a8.67,8.67,0,0,1,8.65,8.65l-.87,64.13" transform="translate(-927.21 -234.36)"/><circle class="cls-17" cx="344.04" cy="266.86" r="5.85"/><path class="cls-6" d="M1286.58,415.71s33.26-2.3,43.55,32.15,14,79.14,14,79.14H1198.28s3.51-44.68,13.8-79.14,43.32-31.68,43.32-31.68" transform="translate(-927.21 -234.36)"/><circle class="cls-18" cx="415.98" cy="115.53" r="3.06"/><line class="cls-13" x1="254.29" y1="265.14" x2="262.29" y2="265.14"/><line class="cls-13" x1="258.29" y1="261.14" x2="258.29" y2="269.14"/><circle class="cls-19" cx="237.92" cy="239.57" r="3.06"/><circle class="cls-5" cx="315.4" cy="135.93" r="6.61"/><circle class="cls-5" cx="371.51" cy="135.93" r="6.61"/><path class="cls-5" d="M1255.19,396.57v20.12s1.63,8.81,15.08,8.81,16-9.27,16-9.27V395.86Z" transform="translate(-927.21 -234.36)"/><path class="cls-8" d="M1256.72,397s2.11,14.22,14,14.22c12.44,0,15-14.22,15-14.22Z" transform="translate(-927.21 -234.36)"/><path class="cls-5" d="M1270.51,404.81c-9.8-.17-27.83-13.22-27.83-29.38V350.22c0-5.9,4.11-10.72,9.14-10.72h37.38c5,0,9.14,4.82,9.14,10.72V374C1298.34,391,1281.74,405,1270.51,404.81Z" transform="translate(-927.21 -234.36)"/><path class="cls-11" d="M1300.56,349.4s2.3,8.37-1.26,13.93l-.91-.7-7-14.44Z" transform="translate(-927.21 -234.36)"/><path class="cls-20" d="M1247.62,337.32a5.87,5.87,0,0,0,3,7.32,79.17,79.17,0,0,0,24.54,7.32,82,82,0,0,0,23.23-.54,5.84,5.84,0,0,0,4.76-6.76c-1.17-6.42-6.41-16.64-27-21.9C1257.58,318,1250.28,330.07,1247.62,337.32Z" transform="translate(-927.21 -234.36)"/><path class="cls-20" d="M1255.87,345.86l-14.53,17.52s-13.34-11.49-3.45-20.72C1247.52,333.67,1255.87,345.86,1255.87,345.86Z" transform="translate(-927.21 -234.36)"/><path class="cls-21" d="M1148.89,412.7l9.28-5.34a1.53,1.53,0,0,1,2.29,1.33v4.24a1.1,1.1,0,0,0,1.1,1.1h34.61a1.76,1.76,0,0,1,1.76,1.76v7a1.76,1.76,0,0,1-1.76,1.77h-34.61a1.1,1.1,0,0,0-1.1,1.1V430a1.52,1.52,0,0,1-2.29,1.32L1148.9,426l-9.26-5.33a1.53,1.53,0,0,1,0-2.65Z" transform="translate(-927.21 -234.36)"/><path class="cls-22" d="M1080.5,324.5s.64-.33,1.82-.81" transform="translate(-927.21 -234.36)"/><path class="cls-23" d="M1086.15,322.3c11-3.51,36-7.82,58.35,15.2,30.39,31.37,38.68,87.73,103.07,73.91" transform="translate(-927.21 -234.36)"/><path class="cls-22" d="M1249.56,411l1.94-.47" transform="translate(-927.21 -234.36)"/><rect class="cls-24" x="205.31" y="117.64" width="38.68" height="23.25" rx="2.43"/><path class="cls-25" d="M1133.9,353.31l16.16,12.79a2.77,2.77,0,0,0,3.51,0l16.06-12.81" transform="translate(-927.21 -234.36)"/><line class="cls-25" x1="206.69" y1="139.45" x2="219.41" y2="129.21"/><line class="cls-25" x1="242.42" y1="138.92" x2="229.95" y2="129.28"/><path class="cls-26" d="M1187.92,387.3l-9.28-5.34a1.53,1.53,0,0,0-2.3,1.33v4.23a1.11,1.11,0,0,1-1.1,1.11h-34.6a1.76,1.76,0,0,0-1.77,1.76v7.05a1.76,1.76,0,0,0,1.77,1.76h34.6a1.11,1.11,0,0,1,1.1,1.11v4.3a1.53,1.53,0,0,0,2.3,1.33l9.26-5.33,9.26-5.33a1.53,1.53,0,0,0,0-2.66Z" transform="translate(-927.21 -234.36)"/><path class="cls-27" d="M1251.5,400.5s-23.79-17.17-56,9c-32,26-59,23-76-3" transform="translate(-927.21 -234.36)"/></svg>