<svg id="Layer_1" data-name="Layer 1" xmlns="http://www.w3.org/2000/svg" viewBox="0 0 214.9 45.66"><defs><style>.cls-1{fill:#f9f9f9;stroke:#000;stroke-miterlimit:10;stroke-width:2px;}</style></defs><title>1_arrowWhite</title><path class="cls-1" d="M726.85,489.89l-16.61-9.55a2.74,2.74,0,0,0-4.11,2.37v7.58a2,2,0,0,1-2,2H535a3.15,3.15,0,0,0-3.15,3.15v12.63a3.16,3.16,0,0,0,3.15,3.16H704.16a2,2,0,0,1,2,2v7.71a2.74,2.74,0,0,0,4.11,2.37l16.59-9.55,16.57-9.53a2.74,2.74,0,0,0,0-4.75Z" transform="translate(-530.87 -478.97)"/></svg>