<svg id="Layer_1" data-name="Layer 1" xmlns="http://www.w3.org/2000/svg" xmlns:xlink="http://www.w3.org/1999/xlink" viewBox="0 0 294.58 373.24"><defs><style>.cls-1{fill:#f9f9f9;}.cls-10,.cls-2{fill:none;}.cls-3{clip-path:url(#clip-path);}.cls-4{clip-path:url(#clip-path-2);}.cls-5{fill:#fff;}.cls-10,.cls-5{stroke:#202123;}.cls-10,.cls-5,.cls-8,.cls-9{stroke-linecap:round;stroke-linejoin:round;}.cls-10,.cls-11,.cls-12,.cls-5,.cls-8,.cls-9{stroke-width:2px;}.cls-6{fill:#e8e8e8;}.cls-7{fill:#202123;}.cls-11,.cls-8{fill:#f5c43c;}.cls-11,.cls-12,.cls-13,.cls-8,.cls-9{stroke:#000;}.cls-12,.cls-9{fill:#89a6f5;}.cls-11,.cls-12,.cls-13{stroke-miterlimit:10;}.cls-14{font-size:23.1px;}.cls-14,.cls-19{font-family:NotoSansCJKkr-Medium-KSCpc-EUC-H, Noto Sans CJK KR;}.cls-15{letter-spacing:-0.04em;}.cls-16{letter-spacing:0.04em;}.cls-17{letter-spacing:-0.04em;}.cls-18{letter-spacing:0.02em;}.cls-19{font-size:18.24px;}.cls-20{letter-spacing:0.02em;}.cls-21{letter-spacing:-0.16em;}.cls-22{letter-spacing:-0.18em;}.cls-23{letter-spacing:0em;}</style><clipPath id="clip-path" transform="translate(-288.42 -348.7)"><circle class="cls-1" cx="435.29" cy="491.67" r="142.33"/></clipPath><clipPath id="clip-path-2" transform="translate(-288.42 -348.7)"><circle class="cls-2" cx="435.29" cy="491.67" r="142.33"/></clipPath></defs><title>1_human</title><circle class="cls-1" cx="146.86" cy="142.97" r="142.33"/><g class="cls-3"><path class="cls-1" d="M406,511.09c-.42,9.07-1.72,31.35-4.82,44.4a6.7,6.7,0,0,1-2.7,3.94l-19.64,13.7a6.77,6.77,0,0,0,2.87,12.24L483.1,600.54a6.76,6.76,0,0,0,6.48-10.66l-21.68-30a6.93,6.93,0,0,1-1.16-2.67c-1.57-8.1-8.83-47.52-4.3-63.13,4.31-14.84-39.41,4.92-52.58,11.16A6.77,6.77,0,0,0,406,511.09Z" transform="translate(-288.42 -348.7)"/><path class="cls-1" d="M406,511.93s10.6,25.53,30.58,25,24.52-23.15,24.52-23.15Z" transform="translate(-288.42 -348.7)"/><path class="cls-1" d="M394.05,491.26s-6.45-32.21-10.95-42-8.26-53.27,41.64-55.52c0,0,19.13,2.25,29.64-4.12,0,0,0,6.37-2.63,8.63a33.16,33.16,0,0,1,30.76,10.87c13.51,15-9,67.53-7.87,79.91Z" transform="translate(-288.42 -348.7)"/><path class="cls-1" d="M434.27,527c-14.48-.26-41.12-19.53-41.12-43.4V446.39c0-8.72,6.08-15.85,13.51-15.85h55.22c7.43,0,13.51,7.13,13.51,15.85v35.13C475.39,506.55,450.87,527.32,434.27,527Z" transform="translate(-288.42 -348.7)"/><path class="cls-1" d="M524.57,664.6H336.88l-.95-1.05c4.8-42.79,14.89-93.85,23-97.24,0,0,.93-.34,2.73-.9h.05a184.17,184.17,0,0,1,26.4-5.82h.1q5.67-.89,12.35-1.58c0,.28,4.17,6.51,10.75,12.78a32.46,32.46,0,0,0,43.4,1.5A83.38,83.38,0,0,0,467,558.73c4.1.48,8.31,1,12.61,1.71,10.45,1.61,21.47,3.8,33,6.7,1.36.34,2.74.69,4.11,1.06h0c.55.13,1.09.28,1.64.43,0,0,.13.57.46,3.94h0C519.55,580.21,521.24,602.24,524.57,664.6Z" transform="translate(-288.42 -348.7)"/><path class="cls-1" d="M360.39,565.64l-.14,0a27,27,0,0,0-2.86.83l-.21.06-.17.06-.11,0c-9.43,3.27-32.41,14.85-64.52,55A13.44,13.44,0,0,0,290.82,636a51.38,51.38,0,0,0,44,28.53q.51,0,1,0c.35,0,.71,0,1.06,0H386.7c.54-31.76.93-59.38,1.17-78.32.1-8.36.17-15,.23-19.61s.08-7.1.08-7.1h-.1C378.27,560.75,366.22,564,360.39,565.64Z" transform="translate(-288.42 -348.7)"/><path class="cls-1" d="M518.39,568.63a29.15,29.15,0,0,0-5.11-1.47h0c-6.63-1.67-21.6-5.27-33.6-6.72h0c0,.27,0,6,.11,15.87h0c.05,6.32.13,14.36.21,23.76.17,17.5.41,39.73.74,64.52h53.94c.84,0,1.68,0,2.52-.07a51.4,51.4,0,0,0,43.26-27.94,14.87,14.87,0,0,0-1.75-16C549.11,583.66,528,572.17,518.39,568.63Z" transform="translate(-288.42 -348.7)"/><line class="cls-1" x1="106.95" y1="211.43" x2="135.93" y2="315.76"/><line class="cls-1" x1="185.78" y1="211.43" x2="151" y2="315.76"/></g><g class="cls-4"><path class="cls-5" d="M406,511.09c-.42,9.07-1.72,31.35-4.82,44.4a6.7,6.7,0,0,1-2.7,3.94l-19.64,13.7a6.77,6.77,0,0,0,2.87,12.24L483.1,600.54a6.76,6.76,0,0,0,6.48-10.66l-21.68-30a6.93,6.93,0,0,1-1.16-2.67c-1.57-8.1-8.83-47.52-4.3-63.13,4.31-14.84-39.41,4.92-52.58,11.16A6.77,6.77,0,0,0,406,511.09Z" transform="translate(-288.42 -348.7)"/><path class="cls-6" d="M406,511.93s10.6,25.53,30.58,25,24.52-23.15,24.52-23.15Z" transform="translate(-288.42 -348.7)"/><path class="cls-7" d="M394.05,491.26s-6.45-32.21-10.95-42-8.26-53.27,41.64-55.52c0,0,19.13,2.25,29.64-4.12,0,0,0,6.37-2.63,8.63a33.16,33.16,0,0,1,30.76,10.87c13.51,15-9,67.53-7.87,79.91Z" transform="translate(-288.42 -348.7)"/><path class="cls-5" d="M434.27,527c-14.48-.26-41.12-19.53-41.12-43.4V446.39c0-8.72,6.08-15.85,13.51-15.85h55.22c7.43,0,13.51,7.13,13.51,15.85v35.13C475.39,506.55,450.87,527.32,434.27,527Z" transform="translate(-288.42 -348.7)"/><path class="cls-8" d="M524.57,664.6H336.88l-.95-1.05c4.8-42.79,14.89-93.85,23-97.24,0,0,.93-.34,2.73-.9h.05a184.17,184.17,0,0,1,26.4-5.82h.1q5.67-.89,12.35-1.58c0,.28,4.17,6.51,10.75,12.78a32.46,32.46,0,0,0,43.4,1.5A83.38,83.38,0,0,0,467,558.73c4.1.48,8.31,1,12.61,1.71,10.45,1.61,21.47,3.8,33,6.7,1.36.34,2.74.69,4.11,1.06h0c.55.13,1.09.28,1.64.43,0,0,.13.57.46,3.94h0C519.55,580.21,521.24,602.24,524.57,664.6Z" transform="translate(-288.42 -348.7)"/><path class="cls-9" d="M360.39,565.64l-.14,0a27,27,0,0,0-2.86.83l-.21.06-.17.06-.11,0c-9.43,3.27-32.41,14.85-64.52,55A13.44,13.44,0,0,0,290.82,636a51.38,51.38,0,0,0,44,28.53q.51,0,1,0c.35,0,.71,0,1.06,0H386.7c.54-31.76.93-59.38,1.17-78.32.1-8.36.17-15,.23-19.61s.08-7.1.08-7.1h-.1C378.27,560.75,366.22,564,360.39,565.64Z" transform="translate(-288.42 -348.7)"/><path class="cls-9" d="M518.39,568.63a29.15,29.15,0,0,0-5.11-1.47h0c-6.63-1.67-21.6-5.27-33.6-6.72h0c0,.27,0,6,.11,15.87h0c.05,6.32.13,14.36.21,23.76.17,17.5.41,39.73.74,64.52h53.94c.84,0,1.68,0,2.52-.07a51.4,51.4,0,0,0,43.26-27.94,14.87,14.87,0,0,0-1.75-16C549.11,583.66,528,572.17,518.39,568.63Z" transform="translate(-288.42 -348.7)"/></g><path class="cls-10" d="M445.9,349.7A142.39,142.39,0,0,1,575.14,465.23" transform="translate(-288.42 -348.7)"/><path class="cls-10" d="M338.54,387.25a141.61,141.61,0,0,1,70.31-35.43" transform="translate(-288.42 -348.7)"/><path class="cls-10" d="M295.43,518.11a141.88,141.88,0,0,1,21.4-105.34" transform="translate(-288.42 -348.7)"/><path class="cls-10" d="M563,554.45a142.35,142.35,0,0,1-192.63,63.9" transform="translate(-288.42 -348.7)"/><circle class="cls-11" cx="193.39" cy="191.75" r="5.22"/><circle class="cls-12" cx="44.33" cy="58.65" r="6.38"/><path class="cls-13" d="M477.52,377.86h-4.46V373.4a.67.67,0,1,0-1.34,0v4.46h-4.46a.67.67,0,1,0,0,1.34h4.46v4.45a.67.67,0,1,0,1.34,0V379.2h4.46a.67.67,0,0,0,0-1.34Z" transform="translate(-288.42 -348.7)"/><text class="cls-14" transform="translate(79.36 324)"><tspan class="cls-15">Q</tspan><tspan class="cls-16" x="16.49" y="0">.</tspan><tspan class="cls-17" x="24.3" y="0">고</tspan><tspan class="cls-16" x="44.63" y="0">객</tspan><tspan class="cls-18" x="66.8" y="0">문</tspan><tspan x="88.52" y="0">의</tspan></text><text class="cls-19" transform="translate(10.77 354.14)">해<tspan class="cls-20" x="16.78" y="0">외</tspan><tspan x="33.92" y="0">주식</tspan><tspan class="cls-21" x="67.48" y="0"> </tspan><tspan x="69.66" y="0">계좌개설</tspan><tspan class="cls-22" x="136.78" y="0">은</tspan><tspan class="cls-23" x="150.27" y="0" xml:space="preserve"> 어떻</tspan><tspan class="cls-21" x="188.93" y="0">게</tspan><tspan x="202.79" y="0" xml:space="preserve"> 하나요?</tspan></text></svg>