<svg id="Layer_1" data-name="Layer 1" xmlns="http://www.w3.org/2000/svg" viewBox="0 0 316.21 440.98"><defs><style>.cls-1,.cls-14,.cls-2{fill:#f9f9f9;}.cls-1,.cls-14{stroke:#000;}.cls-1,.cls-4,.cls-5{stroke-miterlimit:10;}.cls-1,.cls-14,.cls-15,.cls-3,.cls-4,.cls-5{stroke-width:2px;}.cls-3{fill:none;}.cls-15,.cls-3,.cls-4,.cls-5{stroke:#202123;}.cls-14,.cls-15,.cls-3{stroke-linecap:round;stroke-linejoin:round;}.cls-4{fill:#89a6f5;}.cls-5{fill:#ebf5f7;}.cls-6{font-size:18.24px;font-family:NotoSansCJKkr-Medium-KSCpc-EUC-H, Noto Sans CJK KR;}.cls-7{letter-spacing:0.02em;}.cls-8{letter-spacing:-0.16em;}.cls-9{letter-spacing:-0.18em;}.cls-10{letter-spacing:-0.52em;}.cls-11{letter-spacing:0em;}.cls-12{letter-spacing:-0.08em;}.cls-13{letter-spacing:0em;}.cls-15{fill:#eaeaea;}</style></defs><title>2_question</title><line class="cls-1" x1="180.58" y1="304.8" x2="180.58" y2="375.63"/><circle class="cls-2" cx="149.91" cy="217.57" r="94.9"/><path class="cls-3" d="M885.61,450a94.94,94.94,0,0,1,10.06,115.15" transform="translate(-665.73 -296.6)"/><path class="cls-3" d="M816.3,419.26a94.36,94.36,0,0,1,50.34,14.88" transform="translate(-665.73 -296.6)"/><path class="cls-3" d="M735.61,463.17a94.59,94.59,0,0,1,58.48-41.42" transform="translate(-665.73 -296.6)"/><path class="cls-3" d="M849.06,603a94.91,94.91,0,0,1-122.79-56.88" transform="translate(-665.73 -296.6)"/><path class="cls-4" d="M874.83,557a22.75,22.75,0,0,0,.16-2.62c0-.47,0-.94,0-1.4l-4.47-1.4a18.42,18.42,0,0,0-1.58-5.21l3-3.54a23.93,23.93,0,0,0-2.34-3.32L865,540.88a19.68,19.68,0,0,0-4.42-3.3l.25-4.57a24.23,24.23,0,0,0-3.9-1.34l-2.76,3.7a20.2,20.2,0,0,0-5.58-.14l-2.56-3.84a25.13,25.13,0,0,0-4,1.14v4.57a19.75,19.75,0,0,0-4.6,3.07l-4.39-1.64a23.4,23.4,0,0,0-2.52,3.19l2.76,3.69a18.89,18.89,0,0,0-1.86,5.12L827,551.7a22.8,22.8,0,0,0-.15,2.63c0,.47,0,.93,0,1.39l4.47,1.41a18.78,18.78,0,0,0,1.58,5.2l-3,3.54a23.18,23.18,0,0,0,2.35,3.32l4.47-1.42a20,20,0,0,0,4.42,3.31l-.25,4.56a24.57,24.57,0,0,0,3.9,1.34l2.76-3.7a20.07,20.07,0,0,0,3.31.27,18.84,18.84,0,0,0,2.27-.13l2.56,3.84a23.83,23.83,0,0,0,4-1.14v-4.57a19.55,19.55,0,0,0,4.6-3.07l4.39,1.64a23.63,23.63,0,0,0,2.53-3.19l-2.77-3.69a18.5,18.5,0,0,0,1.86-5.11Zm-23.94,6.56a9.18,9.18,0,1,1,9.45-9.18A9.32,9.32,0,0,1,850.89,563.51Z" transform="translate(-665.73 -296.6)"/><path class="cls-4" d="M857.44,470.21a43.92,43.92,0,0,0-2.92-4.07c-.56-.7-1.14-1.37-1.73-2l-8.11,3.11a36.47,36.47,0,0,0-8.48-5.87l0-8.68a45,45,0,0,0-7.33-2.19l-4.74,7.28a37.12,37.12,0,0,0-10.31.24L808.77,451a44.14,44.14,0,0,0-7.21,2.54l.44,8.68a37.82,37.82,0,0,0-5.08,3.44,36.43,36.43,0,0,0-3.11,2.82l-8.26-2.72A45.81,45.81,0,0,0,781.2,472l5.47,6.76a36.49,36.49,0,0,0-2.95,9.88l-8.27,2.66a44.48,44.48,0,0,0,.18,7.65l8.38,2.25a36.36,36.36,0,0,0,3.42,9.74l-5.12,7a43.15,43.15,0,0,0,2.91,4.06c.56.7,1.14,1.37,1.73,2l8.11-3.1a36.12,36.12,0,0,0,8.48,5.86l0,8.68a45,45,0,0,0,7.33,2.19l4.74-7.28a36.74,36.74,0,0,0,10.31-.24l5.08,7.05a44.58,44.58,0,0,0,7.22-2.54l-.45-8.68a35.73,35.73,0,0,0,5.08-3.44,36.43,36.43,0,0,0,3.11-2.82l8.26,2.72a44.11,44.11,0,0,0,4.35-6.29l-5.46-6.76A36.61,36.61,0,0,0,856,499.5l8.27-2.65a45.6,45.6,0,0,0-.17-7.66l-8.39-2.25a36.29,36.29,0,0,0-3.42-9.73Zm-26.61,37.46a17.46,17.46,0,1,1,2.63-24.55A17.46,17.46,0,0,1,830.83,507.67Z" transform="translate(-665.73 -296.6)"/><rect class="cls-5" x="1" y="379.27" width="314.21" height="60.71" rx="27"/><text class="cls-6" transform="translate(16.9 417.36)">해<tspan class="cls-7" x="16.78" y="0">외</tspan><tspan x="33.92" y="0">주식</tspan><tspan class="cls-8" x="67.48" y="0"> </tspan><tspan x="69.66" y="0">계좌개설</tspan><tspan class="cls-9" x="136.78" y="0">은</tspan><tspan x="150.27" y="0" xml:space="preserve">   </tspan><tspan class="cls-10" x="162.58" y="0"> </tspan><tspan class="cls-11" x="157.2" y="0">“어디서</tspan><tspan class="cls-12" x="216.98" y="0"> </tspan><tspan class="cls-13" x="220.63" y="0">하나요”</tspan></text><line class="cls-3" x1="150.23" y1="122.1" x2="150.23" y2="61.39"/><rect class="cls-5" x="1" y="1" width="314.21" height="60.71" rx="27"/><text class="cls-6" transform="translate(22.27 37.09)">해<tspan class="cls-7" x="16.78" y="0">외</tspan><tspan x="33.92" y="0">주식</tspan><tspan class="cls-8" x="67.48" y="0"> </tspan><tspan x="69.66" y="0">계좌개설</tspan><tspan class="cls-9" x="136.78" y="0">은</tspan><tspan x="150.27" y="0" xml:space="preserve">   </tspan><tspan class="cls-10" x="162.58" y="0"> </tspan><tspan class="cls-11" x="157.2" y="0">“어떻게</tspan><tspan class="cls-12" x="216.98" y="0"> </tspan><tspan class="cls-13" x="220.63" y="0">하나요”</tspan></text><path class="cls-14" d="M787.66,491.45H829.2a5.33,5.33,0,0,1,5.32,5.33v74.55a5.32,5.32,0,0,1-5.32,5.33H767.42a5.32,5.32,0,0,1-5.32-5.33V517.55Z" transform="translate(-665.73 -296.6)"/><path class="cls-15" d="M787.66,491.45v21a5.16,5.16,0,0,1-5.15,5.15H762.1Z" transform="translate(-665.73 -296.6)"/><line class="cls-3" x1="111.39" y1="238.52" x2="153.05" y2="238.52"/><line class="cls-3" x1="111.39" y1="252.02" x2="153.05" y2="252.02"/><line class="cls-14" x1="111.39" y1="265.51" x2="153.05" y2="265.51"/></svg>