<svg id="Layer_1" data-name="Layer 1" xmlns="http://www.w3.org/2000/svg" viewBox="0 0 475.14 103.19"><defs><style>.cls-1{fill:#f5c43c;stroke:#000;stroke-miterlimit:10;stroke-width:2px;}</style></defs><title>3_arrowYellowTop</title><path class="cls-1" d="M1469.2,317.94a2.54,2.54,0,0,0-1-.22H1030a1.57,1.57,0,0,1-1.57-1.57v-6a2.18,2.18,0,0,0-3.26-1.89L1012,315.83l-13.14,7.57a2.18,2.18,0,0,0,0,3.77l13.16,7.57,13.17,7.59a2.18,2.18,0,0,0,3.26-1.89v-6.12a1.57,1.57,0,0,1,1.57-1.57h426.27v76c0,.23,1.13.42,2.52.42h9.59c1.38,0,2.51-.19,2.51-.42V318.34C1470.87,318.15,1470.17,318,1469.2,317.94Z" transform="translate(-996.73 -306.95)"/></svg>