<svg id="Layer_1" data-name="Layer 1" xmlns="http://www.w3.org/2000/svg" viewBox="0 0 475.14 103.19"><defs><style>.cls-1{fill:#89a6f5;stroke:#000;stroke-miterlimit:10;stroke-width:2px;}</style></defs><title>3_arrowBlueBottom</title><path class="cls-1" d="M1469.2,712.83a2.54,2.54,0,0,1-1,.23H1030a1.56,1.56,0,0,0-1.57,1.56v6a2.18,2.18,0,0,1-3.26,1.89L1012,714.94l-13.14-7.57a2.18,2.18,0,0,1,0-3.77L1012,696l13.17-7.59a2.18,2.18,0,0,1,3.26,1.89v6.12A1.57,1.57,0,0,0,1030,698h426.27v-76c0-.23,1.13-.42,2.52-.42h9.59c1.38,0,2.51.19,2.51.42v90.38C1470.87,712.62,1470.17,712.77,1469.2,712.83Z" transform="translate(-996.73 -620.63)"/></svg>