<svg id="Layer_1" data-name="Layer 1" xmlns="http://www.w3.org/2000/svg" viewBox="0 0 451.34 36.67"><defs><style>.cls-1{fill:#f5c43c;stroke:#000;stroke-miterlimit:10;stroke-width:2px;}</style></defs><title>3_arrowYellowSt</title><path class="cls-1" d="M1360.88,436.13l-13.19-7.59a2.18,2.18,0,0,0-3.26,1.89v6a1.57,1.57,0,0,1-1.57,1.57H928.28a2.51,2.51,0,0,0-2.51,2.5v10a2.51,2.51,0,0,0,2.51,2.5h414.58a1.57,1.57,0,0,1,1.57,1.57v6.12a2.18,2.18,0,0,0,3.26,1.89l13.17-7.59,13.16-7.57a2.18,2.18,0,0,0,0-3.77Z" transform="translate(-924.77 -427.25)"/></svg>