<svg id="Layer_1" data-name="Layer 1" xmlns="http://www.w3.org/2000/svg" viewBox="0 0 451.34 36.67"><defs><style>.cls-1{fill:#89a6f5;stroke:#000;stroke-miterlimit:10;stroke-width:2px;}</style></defs><title>3_arrowBlueSt</title><path class="cls-1" d="M1360.88,568.8l-13.19-7.59a2.18,2.18,0,0,0-3.26,1.89v6a1.56,1.56,0,0,1-1.57,1.56H928.28a2.52,2.52,0,0,0-2.51,2.51v10a2.51,2.51,0,0,0,2.51,2.51h414.58a1.57,1.57,0,0,1,1.57,1.57v6.12a2.17,2.17,0,0,0,3.26,1.88l13.17-7.58,13.16-7.57a2.18,2.18,0,0,0,0-3.77Z" transform="translate(-924.77 -559.92)"/></svg>