<?xml version="1.0" encoding="utf-8"?>
<!-- Generator: Adobe Illustrator 25.4.0, SVG Export Plug-In . SVG Version: 6.00 Build 0)  -->
<svg version="1.1" id="레이어_1" xmlns="http://www.w3.org/2000/svg" xmlns:xlink="http://www.w3.org/1999/xlink" x="0px"
	 y="0px" viewBox="0 0 130.4 73.3" style="enable-background:new 0 0 130.4 73.3;" xml:space="preserve">
<style type="text/css">
	.st0{fill:#F9F9F9;stroke:#202123;stroke-width:2;stroke-linecap:round;stroke-linejoin:round;}
	.st1{fill:#EAEAEA;stroke:#202123;stroke-width:2;stroke-linecap:round;stroke-linejoin:round;}
	.st2{fill:none;stroke:#202123;stroke-width:2;stroke-linecap:round;stroke-linejoin:round;}
	.st3{font-family:'NotoSansCJKkr-Regular-KSCpc-EUC-H';}
	.st4{font-size:14.83px;}
</style>
<path class="st0" d="M25.8,10.9h24.8c1.8,0,3.2,1.4,3.2,3.2v44.4c0,1.8-1.4,3.2-3.2,3.2l0,0H13.7c-1.8,0-3.2-1.4-3.2-3.2l0,0v-32
	L25.8,10.9z"/>
<path class="st1" d="M25.8,10.9v12.5c0,1.7-1.4,3.1-3.1,3.1l0,0H10.5L25.8,10.9z"/>
<line class="st2" x1="19.5" y1="36.9" x2="44.3" y2="36.9"/>
<line class="st2" x1="19.5" y1="44.9" x2="44.3" y2="44.9"/>
<line class="st2" x1="19.5" y1="53" x2="44.3" y2="53"/>
<text transform="matrix(1 0 0 1 64.1804 57.4707)" class="st3 st4">지점안내</text>
</svg>
