<?xml version="1.0" encoding="utf-8"?>
<!-- Generator: Adobe Illustrator 25.4.0, SVG Export Plug-In . SVG Version: 6.00 Build 0)  -->
<svg version="1.1" id="레이어_1" xmlns="http://www.w3.org/2000/svg" xmlns:xlink="http://www.w3.org/1999/xlink" x="0px"
	 y="0px" viewBox="0 0 202.5 69.7" style="enable-background:new 0 0 202.5 69.7;" xml:space="preserve">
<style type="text/css">
	.st0{fill:#F9F9F9;stroke:#202123;stroke-width:2;stroke-linecap:round;stroke-linejoin:round;}
	.st1{fill:#EAEAEA;stroke:#202123;stroke-width:2;stroke-linecap:round;stroke-linejoin:round;}
	.st2{fill:none;stroke:#202123;stroke-width:2;stroke-linecap:round;stroke-linejoin:round;}
	.st3{font-family:'NotoSansCJKkr-Regular-KSCpc-EUC-H';}
	.st4{font-size:14.83px;}
</style>
<path class="st0" d="M27.3,9h24.8c1.8,0,3.2,1.4,3.2,3.2l0,0v44.4c0,1.8-1.4,3.2-3.2,3.2l0,0H15.2c-1.8,0-3.2-1.4-3.2-3.2l0,0v-32
	L27.3,9z"/>
<path class="st1" d="M27.3,9v12.5c0,1.7-1.4,3.1-3,3.1l0,0H12L27.3,9z"/>
<line class="st2" x1="21" y1="35" x2="45.8" y2="35"/>
<line class="st2" x1="21" y1="43.1" x2="45.8" y2="43.1"/>
<line class="st2" x1="21" y1="51.1" x2="45.8" y2="51.1"/>
<text transform="matrix(1 0 0 1 65.7056 55.6748)" class="st3 st4">계좌개설 업무메뉴얼</text>
</svg>
