<svg id="Layer_1" data-name="Layer 1" xmlns="http://www.w3.org/2000/svg" viewBox="0 0 495.63 310.44"><defs><style>.cls-1{fill:#fff;}.cls-2{fill:#64c3d9;}.cls-3,.cls-4,.cls-8{fill:none;stroke-linecap:round;}.cls-3,.cls-4{stroke:#202123;stroke-linejoin:round;}.cls-4,.cls-8{stroke-width:2px;}.cls-5{font-size:18px;font-family:NotoSansCJKkr-Bold-KSCpc-EUC-H, Noto Sans CJK KR;letter-spacing:-0.01em;}.cls-11,.cls-5{fill:#202123;}.cls-6{letter-spacing:0.01em;}.cls-7{letter-spacing:-0.05em;}.cls-8{stroke:#dfe9ea;stroke-miterlimit:10;}.cls-12,.cls-9{font-size:14.46px;fill:#878787;font-family:NotoSansCJKkr-Medium-KSCpc-EUC-H, Noto Sans CJK KR;}.cls-9{letter-spacing:0.03em;}.cls-10{letter-spacing:-0.05em;}.cls-11{font-size:13.5px;font-family:NotoSansCJKkr-Regular-KSCpc-EUC-H, Noto Sans CJK KR;letter-spacing:-0.05em;}.cls-12{letter-spacing:0.05em;}</style></defs><title>2_popup</title><rect class="cls-1" x="1" y="1" width="493.63" height="308.44" rx="9.21"/><path class="cls-2" d="M1347.5,330.5h-494V289.83a10.34,10.34,0,0,1,10.33-10.33h473.34a10.34,10.34,0,0,1,10.33,10.33Z" transform="translate(-852.37 -278.36)"/><line class="cls-3" x1="474.18" y1="9.8" x2="480.04" y2="15.66"/><line class="cls-3" x1="480.04" y1="9.8" x2="474.18" y2="15.66"/><line class="cls-3" x1="446.94" y1="15.6" x2="452.72" y2="15.6"/><path class="cls-3" d="M1314,290.07v-1.28a.49.49,0,0,1,.48-.48h4.37a.48.48,0,0,1,.47.48v3.64a.47.47,0,0,1-.47.48h-1.54" transform="translate(-852.37 -278.36)"/><rect class="cls-3" x="459.43" y="11.92" width="5.32" height="4.6" rx="0.5"/><rect class="cls-4" x="1" y="1" width="493.63" height="308.44" rx="9.69"/><text class="cls-5" transform="translate(195.84 38.36)">주<tspan class="cls-6" x="16.38" y="0">간보</tspan><tspan x="49.86" y="0">고양</tspan><tspan class="cls-7" x="82.62" y="0">식</tspan></text><rect class="cls-8" x="35.34" y="72.95" width="426.06" height="190.86" rx="2.42"/><line class="cls-8" x1="50.76" y1="110.06" x2="445.01" y2="110.06"/><line class="cls-8" x1="50.76" y1="149.58" x2="445.01" y2="149.58"/><line class="cls-8" x1="50.76" y1="189.11" x2="445.01" y2="189.11"/><line class="cls-8" x1="50.76" y1="228.63" x2="445.01" y2="228.63"/><text class="cls-9" transform="translate(84.03 97.44)">항<tspan class="cls-10" x="13.74" y="0">목</tspan></text><text class="cls-9" transform="translate(221.58 97.44)">금<tspan class="cls-10" x="13.74" y="0">주</tspan></text><text class="cls-11" transform="translate(207.39 139.71)">개발일정 1</text><text class="cls-11" transform="translate(363.47 139.71)">개발일정 2</text><text class="cls-12" transform="translate(377.51 97.44)">차<tspan class="cls-10" x="14.03" y="0">주</tspan></text></svg>