<svg id="Layer_1" data-name="Layer 1" xmlns="http://www.w3.org/2000/svg" xmlns:xlink="http://www.w3.org/1999/xlink" viewBox="0 0 550.45 562.85"><defs><style>.cls-1,.cls-10,.cls-17,.cls-19,.cls-20,.cls-21,.cls-22{fill:none;}.cls-2{fill:#0c6bf4;}.cls-11,.cls-3{fill:#fff;}.cls-4{clip-path:url(#clip-path);}.cls-5{fill:#d2def9;}.cls-6{fill:#b1afbc;}.cls-7{fill:#adacb5;}.cls-8{fill:#e9e8f7;}.cls-24,.cls-9{fill:#89a6f5;}.cls-10,.cls-11,.cls-14,.cls-16,.cls-17,.cls-18,.cls-23,.cls-24{stroke:#202123;}.cls-10,.cls-11,.cls-17,.cls-19,.cls-20,.cls-21,.cls-22{stroke-linecap:round;stroke-linejoin:round;}.cls-10,.cls-11,.cls-14,.cls-15,.cls-19,.cls-20,.cls-21,.cls-22{stroke-width:3px;}.cls-12{fill:#e8e8e8;}.cls-13{fill:#202123;}.cls-14,.cls-15{fill:#5c4799;}.cls-14,.cls-15,.cls-16,.cls-18,.cls-23,.cls-24{stroke-miterlimit:10;}.cls-15{stroke:#f9f9f9;}.cls-16{fill:#f5c43c;}.cls-16,.cls-17,.cls-18{stroke-width:2px;}.cls-18,.cls-23{fill:#f53b69;}.cls-19,.cls-20,.cls-21{stroke:#f53b69;}.cls-20{stroke-dasharray:5.01 5.01;}.cls-21{stroke-dasharray:4.89 4.89;}.cls-22{stroke:#89a6f5;stroke-dasharray:5;}.cls-23{stroke-width:1.5px;}</style><clipPath id="clip-path" transform="translate(-339.05 -195.36)"><circle class="cls-1" cx="626.99" cy="438.99" r="211.89"/></clipPath></defs><title>2_human</title><path class="cls-2" d="M863.52,648.05" transform="translate(-339.05 -195.36)"/><circle class="cls-3" cx="287.94" cy="243.64" r="211.89"/><g class="cls-4"><rect class="cls-5" x="423.47" y="195.48" width="208.97" height="272.7" rx="5.55" transform="translate(-338.63 -196.02) rotate(0.07)"/><rect class="cls-6" x="520.24" y="195.48" width="10.32" height="284.03" transform="translate(-338.62 -196.02) rotate(0.07)"/><rect class="cls-7" x="400.16" y="465.64" width="236.74" height="14.71" rx="5.55" transform="translate(-338.45 -196.01) rotate(0.07)"/><path class="cls-8" d="M499.29,195.36s.45,145.36-53.3,190.28c0,0,42.55,130.18,51.17,204.2L356,589.66s20.13-137.95,55-201.75c0,0-82.65-53.22-70.86-192.52Z" transform="translate(-339.05 -195.36)"/><path class="cls-8" d="M713.7,195.63s.45,145.36-53.3,190.28c0,0,42.55,130.19,51.17,204.2l-141.13-.18s20.13-137.94,55-201.75c0,0-82.65-53.22-70.87-192.52Z" transform="translate(-339.05 -195.36)"/><rect class="cls-6" x="613.14" y="379.93" width="54.96" height="14.15" rx="6.5" transform="translate(-338.56 -196.16) rotate(0.07)"/><rect class="cls-6" x="400.36" y="379.66" width="54.96" height="14.15" rx="6.5" transform="translate(-338.56 -195.9) rotate(0.07)"/></g><path class="cls-9" d="M771.79,595.05c46.48-38.94,32.58-61.31,16.89-78.88-20.63-23.11-52-55-83.46-74.12-20.1-12.26-57.3-14.34-57.3-14.34s-78.36-1.07-108.13,17.76c-19.44,12.28-49.09,43.1-69.37,66a48.67,48.67,0,0,0-4.37,58.77,175.39,175.39,0,0,0,19.24,24.64Z" transform="translate(-339.05 -195.36)"/><path class="cls-10" d="M771.79,595.05c46.48-38.94,32.58-61.31,16.89-78.88-20.63-23.11-52-55-83.46-74.12-20.1-12.26-57.3-14.34-57.3-14.34s-78.36-1.07-108.13,17.76c-19.44,12.28-49.09,43.1-69.37,66a48.67,48.67,0,0,0-4.37,58.77,175.39,175.39,0,0,0,19.24,24.64Z" transform="translate(-339.05 -195.36)"/><line class="cls-10" x1="207.41" y1="280.54" x2="207.39" y2="293.54"/><line class="cls-10" x1="366.4" y1="282.74" x2="366.39" y2="295.74"/><path class="cls-10" d="M780.58,535.29s-83.28,9.19-129.2,30.9l-2.94,28.34,123.36.15" transform="translate(-339.05 -195.36)"/><path class="cls-10" d="M502.8,534.85s57.15,9.45,103,31.28l2.71,28.35-122.73-.16" transform="translate(-339.05 -195.36)"/><path class="cls-10" d="M836.06,398.94c22.69,114.8-52,226.22-166.77,248.91-47.18,9.32-93.71,2.62-133.81-16.89" transform="translate(-339.05 -195.36)"/><path class="cls-10" d="M505.39,267.33c23.5-17.16,51.29-29.1,81.67-35.11a211.91,211.91,0,0,1,200.8,68.48" transform="translate(-339.05 -195.36)"/><path class="cls-10" d="M426.89,507.89a218.65,218.65,0,0,1-6.73-26.56,211.29,211.29,0,0,1,28.48-153.84,220.19,220.19,0,0,1,15-22.41" transform="translate(-339.05 -195.36)"/><circle class="cls-11" cx="235.58" cy="155.84" r="11.11"/><circle class="cls-11" cx="329.84" cy="155.84" r="11.11"/><path class="cls-11" d="M595.76,395.35v33.79S598.5,444,621.1,444,648,428.36,648,428.36v-34.2Z" transform="translate(-339.05 -195.36)"/><path class="cls-12" d="M598.34,396s3.53,23.88,23.54,23.88C642.78,419.87,647,396,647,396Z" transform="translate(-339.05 -195.36)"/><path class="cls-11" d="M621.49,409.19C605,408.9,574.74,387,574.74,359.85V317.5c0-9.91,6.91-18,15.36-18h62.79c8.44,0,15.35,8.11,15.35,18v39.95C668.24,385.91,640.37,409.52,621.49,409.19Z" transform="translate(-339.05 -195.36)"/><path class="cls-2" d="M621.42,280.38a6,6,0,1,0-6-6,6.06,6.06,0,0,0,6,6Z" transform="translate(-339.05 -195.36)"/><path class="cls-13" d="M574.06,340c.51,1.18,2.4,1.62,3,.46,7.64-16.06,10.56-25.45,13.67-30.58a90.38,90.38,0,0,0,5.53-10.36l.95,3.61c8.2,12.9,36.37,16.51,36.37,16.51,19.08,3.76,28.87,12.91,31.85,19.39.28.61.55,1.24.82,1.88,1.23,2.93,4.24,1.82,6-.84,2.52-3.78,4.27-18.29,4.27-18.29,1.1-6.9,1.18-24.86,2.26-36.87.68-7.57,4-14.54-8.21-15.53-9.59-.78-28.54-3.61-36.15-4.77-21.26-4-30.66,4.32-30.66,4.32-2,2.75-4.8,5.49-7,8.76a3.25,3.25,0,0,0-.52-.28,17.88,17.88,0,0,0-2.73-.89l.09-.3-1.77.05a13.18,13.18,0,0,0-3.14.13c-4.82.28-12.05.95-16.38,2.61-6.94,2.65-10.36,5.56-8.73,18,.62,4.72,1.12,9.6,1.51,13.85a16.57,16.57,0,0,0,.72,3.55Z" transform="translate(-339.05 -195.36)"/><path class="cls-14" d="M524.23,607.61l-1.58-127a17.19,17.19,0,0,1,17.16-17.12l172.55.22a17.19,17.19,0,0,1,17.11,17.16l-1.89,127.05" transform="translate(-339.05 -195.36)"/><circle class="cls-15" cx="287.3" cy="360.86" r="11.59"/><rect class="cls-14" x="522.53" y="606.19" width="205.49" height="10.99" rx="3.5" transform="translate(-338.28 -196.15) rotate(0.07)"/><circle class="cls-16" cx="88.74" cy="361.48" r="9.56"/><line class="cls-17" x1="431.7" y1="254.14" x2="443.7" y2="254.14"/><line class="cls-17" x1="437.7" y1="247.64" x2="437.7" y2="260.64"/><circle class="cls-18" cx="150.49" cy="174.7" r="10.2"/><line class="cls-19" x1="362.95" y1="268.09" x2="362.95" y2="265.59"/><line class="cls-20" x1="362.95" y1="260.58" x2="362.95" y2="22.65"/><polyline class="cls-19" points="362.95 20.14 362.95 17.64 365.45 17.64"/><line class="cls-21" x1="370.34" y1="17.64" x2="544.01" y2="17.64"/><line class="cls-19" x1="546.45" y1="17.64" x2="548.95" y2="17.64"/><polyline class="cls-22" points="362.95 192.3 464.95 192.3 464.95 257.64 548.95 257.64"/><rect class="cls-23" x="347.95" y="4.64" width="37" height="26" rx="4.94"/><circle class="cls-3" cx="377.79" cy="17.98" r="3.16"/><circle class="cls-3" cx="366.62" cy="17.98" r="3.16"/><circle class="cls-3" cx="355.44" cy="17.98" r="3.16"/><rect class="cls-24" x="445.95" y="179.64" width="37" height="26" rx="4.94"/><circle class="cls-3" cx="475.79" cy="192.98" r="3.16"/><circle class="cls-3" cx="464.62" cy="192.98" r="3.16"/><circle class="cls-3" cx="453.44" cy="192.98" r="3.16"/><polyline class="cls-22" points="325.95 421.87 325.95 511.14 482.95 511.14"/><circle class="cls-9" cx="393.95" cy="510.64" r="5.66"/><circle class="cls-9" cx="462.95" cy="510.64" r="5.66"/><circle class="cls-9" cx="407.95" cy="510.64" r="7"/><circle class="cls-9" cx="446.95" cy="510.64" r="7"/><circle class="cls-9" cx="426.95" cy="510.64" r="10"/><circle class="cls-9" cx="380.95" cy="510.64" r="5"/><circle class="cls-9" cx="476.95" cy="510.64" r="5"/><circle class="cls-9" cx="367.95" cy="510.64" r="4"/><circle class="cls-9" cx="357.95" cy="510.64" r="3"/><circle class="cls-16" cx="456.25" cy="460.68" r="6.7"/><circle class="cls-18" cx="381" cy="556.91" r="4.95"/></svg>