<?xml version="1.0" encoding="utf-8"?>
<!-- Generator: Adobe Illustrator 25.4.0, SVG Export Plug-In . SVG Version: 6.00 Build 0)  -->
<svg version="1.1" id="Layer_1" xmlns="http://www.w3.org/2000/svg" xmlns:xlink="http://www.w3.org/1999/xlink" x="0px" y="0px"
	 viewBox="0 0 648.6 672.7" style="enable-background:new 0 0 648.6 672.7;" xml:space="preserve">
<style type="text/css">
	.st0{fill:#D9D7E4;}
	.st1{fill:none;stroke:#B4B3BC;stroke-width:2;stroke-miterlimit:10;}
	.st2{fill:#FFFFFF;}
	.st3{fill:#64C3D9;}
	.st4{fill:#DEDEDE;}
	.st5{fill:#B3B5B7;}
	.st6{fill:none;stroke:#7F7F7F;stroke-width:2;stroke-linecap:round;stroke-linejoin:round;}
	.st7{fill:none;stroke:#B3B5B7;stroke-width:2;stroke-linecap:round;stroke-linejoin:round;}
	.st8{fill:none;stroke:#F9F9F9;stroke-width:2;stroke-linecap:round;stroke-linejoin:round;}
</style>
<path class="st0" d="M12.2,1h624.3c6.2,0,11.2,5,11.2,11.2v648.4c0,6.2-5,11.2-11.2,11.2H12.2c-6.2,0-11.2-5-11.2-11.2V12.2
	C1,6,6,1,12.2,1z"/>
<path class="st1" d="M11.1,1h626.3c5.6,0,10.2,4.5,10.2,10.1v650.4c0,5.6-4.5,10.2-10.2,10.2H11.1c-5.6,0-10.1-4.5-10.1-10.2V11.1
	C1,5.5,5.5,1,11.1,1z"/>
<path class="st2" d="M16.1,77.6h524.2c1.6,0,2.9,1.3,2.9,2.9v28.6c0,1.6-1.3,2.9-2.9,2.9H16.1c-1.6,0-2.9-1.3-2.9-2.9V80.6
	C13.2,78.9,14.5,77.6,16.1,77.6z"/>
<path class="st1" d="M16.1,77.6h524.2c1.6,0,2.9,1.3,2.9,2.9v28.6c0,1.6-1.3,2.9-2.9,2.9H16.1c-1.6,0-2.9-1.3-2.9-2.9V80.6
	C13.2,78.9,14.5,77.6,16.1,77.6z"/>
<path class="st3" d="M552,77.6h82.2c1.6,0,2.9,1.3,2.9,2.9v28.6c0,1.6-1.3,2.9-2.9,2.9H552c-1.6,0-2.9-1.3-2.9-2.9V80.6
	C549,78.9,550.4,77.6,552,77.6z"/>
<path class="st2" d="M16.1,11.2h618c1.6,0,2.9,1.3,2.9,2.9v28.6c0,1.6-1.3,2.9-2.9,2.9h-618c-1.6,0-2.9-1.3-2.9-2.9V14.1
	C13.2,12.5,14.5,11.2,16.1,11.2z"/>
<path class="st1" d="M16.1,11.2h618c1.6,0,2.9,1.3,2.9,2.9v28.6c0,1.6-1.3,2.9-2.9,2.9h-618c-1.6,0-2.9-1.3-2.9-2.9V14.1
	C13.2,12.5,14.5,11.2,16.1,11.2z"/>
<path class="st4" d="M31.4,21.5h151.3c3.8,0,6.9,3.1,6.9,6.9l0,0c0,3.8-3.1,6.9-6.9,6.9H31.4c-3.8,0-6.9-3.1-6.9-6.9l0,0
	C24.5,24.6,27.6,21.5,31.4,21.5z"/>
<path class="st4" d="M211.6,21.5h40.9c3.8,0,6.9,3.1,6.9,6.9l0,0c0,3.8-3.1,6.9-6.9,6.9h-40.9c-3.8,0-6.9-3.1-6.9-6.9l0,0
	C204.8,24.6,207.9,21.5,211.6,21.5z"/>
<path class="st4" d="M287.5,21.5h91.7c3.8,0,6.9,3.1,6.9,6.9l0,0c0,3.8-3.1,6.9-6.9,6.9h-91.7c-3.8,0-6.9-3.1-6.9-6.9l0,0
	C280.6,24.6,283.7,21.5,287.5,21.5z"/>
<path class="st5" d="M30.7,56.3h59.4c3.4,0,6.2,2.8,6.2,6.2l0,0c0,3.4-2.8,6.2-6.2,6.2H30.7c-3.4,0-6.2-2.8-6.2-6.2l0,0
	C24.5,59.1,27.3,56.3,30.7,56.3z"/>
<path class="st5" d="M135,58.6h48.1c2.1,0,3.8,1.7,3.8,3.8v0.3c0,2.1-1.7,3.8-3.8,3.8H135c-2.1,0-3.8-1.7-3.8-3.8v-0.3
	C131.1,60.3,132.8,58.6,135,58.6z"/>
<path class="st4" d="M117.1,91.1h124.6c2.1,0,3.8,1.7,3.8,3.8v0.3c0,2.1-1.7,3.8-3.8,3.8H117.1c-2.1,0-3.8-1.7-3.8-3.8V95
	C113.2,92.8,114.9,91.1,117.1,91.1z"/>
<path class="st5" d="M28.5,91.1h17.4c2.2,0,4,1.8,4,4v0c0,2.2-1.8,4-4,4H28.5c-2.2,0-4-1.8-4-4v0C24.5,92.9,26.3,91.1,28.5,91.1z"/>
<line class="st6" x1="104.7" y1="56.3" x2="104.7" y2="68.8"/>
<path class="st3" d="M115.4,56.4h6.8c1.5,0,2.7,1.2,2.7,2.7v6.8c0,1.5-1.2,2.7-2.7,2.7h-6.8c-1.5,0-2.7-1.2-2.7-2.7v-6.8
	C112.6,57.7,113.9,56.4,115.4,56.4z"/>
<path class="st2" d="M119,65.7v-4.5h-1.3v-0.6c0.2,0,0.4,0,0.6-0.1c0.2-0.1,0.3-0.1,0.5-0.2c0.1-0.1,0.2-0.2,0.3-0.4
	c0.1-0.1,0.1-0.3,0.1-0.5h0.6v6.3H119z"/>
<path class="st2" d="M201.7,59.3h3.5c0.2,0,0.3,0.1,0.3,0.3c0,0,0,0.1,0,0.1l-1.8,3l-1.8,3.1c-0.1,0.1-0.2,0.2-0.4,0.1
	c0,0-0.1-0.1-0.1-0.1l-1.8-3l-1.8-3c-0.1-0.1,0-0.3,0.1-0.4c0,0,0.1,0,0.1,0L201.7,59.3z"/>
<path class="st5" d="M96.4,91.5h3.5c0.2,0,0.3,0.1,0.3,0.3c0,0,0,0.1,0,0.1l-1.8,3l-1.8,3c-0.1,0.1-0.2,0.2-0.4,0.1
	c0,0-0.1-0.1-0.1-0.1l-1.8-3l-1.8-3c-0.1-0.1,0-0.3,0.1-0.4c0,0,0.1,0,0.1,0L96.4,91.5z"/>
<circle class="st7" cx="526.5" cy="93.5" r="5.5"/>
<line class="st7" x1="530.2" y1="97.6" x2="534.2" y2="101.8"/>
<path class="st8" d="M587.3,86.8h11.5c0.3,0,0.6,0.3,0.7,0.6c0,0.1,0,0.3-0.1,0.4l-4.4,7c-0.1,0.1-0.1,0.2-0.1,0.3v6.4
	c-0.1,0.3-0.4,0.6-0.7,0.5c-0.1,0-0.2-0.1-0.3-0.2l-2.7-2.7c-0.1-0.1-0.2-0.3-0.2-0.4V95c0-0.1,0-0.2-0.1-0.3l-4.1-7
	c-0.2-0.3,0-0.7,0.3-0.8C587.1,86.8,587.2,86.8,587.3,86.8z"/>
</svg>
