<?xml version="1.0" encoding="utf-8"?>
<!-- Generator: Adobe Illustrator 25.4.0, SVG Export Plug-In . SVG Version: 6.00 Build 0)  -->
<svg version="1.1" id="Layer_1" xmlns="http://www.w3.org/2000/svg" xmlns:xlink="http://www.w3.org/1999/xlink" x="0px" y="0px"
	 viewBox="0 0 111.7 111.7" style="enable-background:new 0 0 111.7 111.7;" xml:space="preserve">
<style type="text/css">
	.st0{fill:none;stroke:#202123;stroke-width:2.3;stroke-linecap:round;stroke-linejoin:round;}
	.st1{fill:#F9F9F9;}
	.st2{fill:#F5C43C;stroke:#202123;stroke-linecap:round;stroke-linejoin:round;}
	.st3{fill:#202123;}
	.st4{fill:#64C3D9;stroke:#202123;stroke-miterlimit:10;}
</style>
<path class="st0" d="M106.6,35.5c11.2,28.1-2.5,60-30.6,71.2c-11,4.4-23.1,5.1-34.5,2"/>
<path class="st0" d="M16.5,17.9C36-2.3,67.6-4.5,89.7,12.9"/>
<path class="st0" d="M8.1,82.6c-1.1-2.1-2.1-4.2-3-6.4c-5.2-12.9-5.2-27.4-0.1-40.4"/>
<ellipse class="st1" cx="55.8" cy="55.8" rx="53.3" ry="53.8"/>
<circle class="st2" cx="97.8" cy="24.6" r="2.8"/>
<path class="st3" d="M24.6,90.9h-2.2v-2.2c0-0.3-0.2-0.5-0.5-0.5s-0.5,0.2-0.5,0.5v2.2h-2.2c-0.3,0-0.5,0.2-0.5,0.5s0.2,0.5,0.5,0.5
	h2.2v2.8c0,0.3,0.2,0.5,0.5,0.5s0.5-0.2,0.5-0.5v-2.8h2.2c0.3,0,0.5-0.2,0.5-0.5S24.8,90.9,24.6,90.9z"/>
<circle class="st4" cx="8.8" cy="25.6" r="3.3"/>
</svg>
