<svg id="Layer_1" data-name="Layer 1" xmlns="http://www.w3.org/2000/svg" xmlns:xlink="http://www.w3.org/1999/xlink" viewBox="0 0 602.63 844.22"><defs><style>.cls-1,.cls-17,.cls-22,.cls-4{fill:none;}.cls-2{fill:#d9d7e4;}.cls-3{fill:#fff;}.cls-4{stroke:#b4b3bc;}.cls-17,.cls-22,.cls-4{stroke-miterlimit:10;stroke-width:2px;}.cls-5{fill:#d1d1d1;}.cls-6{fill:#f5c43c;}.cls-7{fill:#89a6f5;}.cls-8{fill:#f53b69;}.cls-9{fill:#d3d4e3;}.cls-10{clip-path:url(#clip-path);}.cls-11{fill:#f9f9f9;}.cls-12{opacity:0.5;}.cls-13{clip-path:url(#clip-path-2);}.cls-14{clip-path:url(#clip-path-3);}.cls-15{clip-path:url(#clip-path-4);}.cls-16{fill:#ccc;}.cls-17{stroke:#ccc;}.cls-18{fill:#e8e8e8;}.cls-19{clip-path:url(#clip-path-5);}.cls-20{clip-path:url(#clip-path-6);}.cls-21{clip-path:url(#clip-path-7);}.cls-22{stroke:#c1c1c1;}</style><clipPath id="clip-path" transform="translate(-821.68 -113.34)"><rect class="cls-1" x="838.24" y="578.4" width="278.72" height="173.83" rx="6.21"/></clipPath><clipPath id="clip-path-2" transform="translate(-821.68 -113.34)"><rect class="cls-1" x="888.07" y="134.88" width="334.22" height="211.41" rx="2.5"/></clipPath><clipPath id="clip-path-3" transform="translate(-821.68 -113.34)"><rect class="cls-1" x="888.07" y="363.71" width="162.28" height="165.62" rx="2.5"/></clipPath><clipPath id="clip-path-4" transform="translate(-821.68 -113.34)"><circle class="cls-1" cx="1283.42" cy="222.38" r="14.23"/></clipPath><clipPath id="clip-path-5" transform="translate(-821.68 -113.34)"><circle class="cls-1" cx="1283.42" cy="269.38" r="14.23"/></clipPath><clipPath id="clip-path-6" transform="translate(-821.68 -113.34)"><circle class="cls-1" cx="1283.42" cy="316.38" r="14.23"/></clipPath><clipPath id="clip-path-7" transform="translate(-821.68 -113.34)"><circle class="cls-1" cx="1283.42" cy="363.38" r="14.23"/></clipPath></defs><title>1_screen</title><rect class="cls-2" x="1" y="449.58" width="600.32" height="393.65" rx="6.21"/><rect class="cls-3" x="307.03" y="465.06" width="278.72" height="173.83" rx="6.21"/><rect class="cls-4" x="1" y="449.58" width="600.32" height="393.65" rx="6.21"/><rect class="cls-4" x="307.03" y="465.06" width="278.72" height="173.83" rx="6.21"/><rect class="cls-3" x="18.95" y="653.92" width="278.72" height="173.83" rx="6.21"/><rect class="cls-4" x="18.95" y="653.92" width="278.72" height="173.83" rx="6.21"/><rect class="cls-3" x="307.03" y="653.92" width="278.72" height="173.83" rx="6.21"/><rect class="cls-4" x="307.03" y="653.92" width="278.72" height="173.83" rx="6.21"/><rect class="cls-3" x="16.56" y="465.06" width="278.72" height="173.83" rx="6.21"/><path class="cls-5" d="M1295.64,652h-21V631.26a4.41,4.41,0,0,0-4.59-4.39h-8.12a4.47,4.47,0,0,0-4.67,4.39V652h-21a5,5,0,0,0-4.82,4.84V665a4.63,4.63,0,0,0,4.82,4.42h21v21.2a4.62,4.62,0,0,0,4.67,4.58H1270a4.56,4.56,0,0,0,4.59-4.58v-21.2h21a4.57,4.57,0,0,0,4.75-4.42v-8.12A4.93,4.93,0,0,0,1295.64,652Z" transform="translate(-821.68 -113.34)"/><path class="cls-5" d="M1295.64,843.29h-21V822.51a4.4,4.4,0,0,0-4.59-4.39h-8.12a4.47,4.47,0,0,0-4.67,4.39v20.78h-21a5,5,0,0,0-4.82,4.84v8.12a4.63,4.63,0,0,0,4.82,4.42h21v21.2a4.63,4.63,0,0,0,4.67,4.58H1270a4.56,4.56,0,0,0,4.59-4.58v-21.2h21a4.57,4.57,0,0,0,4.75-4.42v-8.12A4.93,4.93,0,0,0,1295.64,843.29Z" transform="translate(-821.68 -113.34)"/><path class="cls-5" d="M1008.77,843.29h-21V822.51a4.4,4.4,0,0,0-4.6-4.39H975a4.46,4.46,0,0,0-4.67,4.39v20.78h-21a5,5,0,0,0-4.82,4.84v8.12a4.63,4.63,0,0,0,4.82,4.42h21v21.2a4.62,4.62,0,0,0,4.67,4.58h8.11a4.56,4.56,0,0,0,4.6-4.58v-21.2h21a4.56,4.56,0,0,0,4.74-4.42v-8.12A4.92,4.92,0,0,0,1008.77,843.29Z" transform="translate(-821.68 -113.34)"/><path class="cls-6" d="M886.28,589.11a3,3,0,0,1,3,3v8.78a3,3,0,0,1-3,3h-8.79a3,3,0,0,1-3-3v-8.78a3,3,0,0,1,3-3Z" transform="translate(-821.68 -113.34)"/><path class="cls-7" d="M860.79,589.11a3,3,0,0,1,3,3v8.78a3,3,0,0,1-3,3H852a3,3,0,0,1-3-3v-8.78a3,3,0,0,1,3-3Z" transform="translate(-821.68 -113.34)"/><path class="cls-8" d="M877.48,629.14a3,3,0,0,1-3-3v-8.79a3,3,0,0,1,3-3h8.79a3,3,0,0,1,3,3v8.79a3,3,0,0,1-3,3Z" transform="translate(-821.68 -113.34)"/><path class="cls-9" d="M852,629.14a3,3,0,0,1-3-3v-8.79a3,3,0,0,1,3-3h8.79a3,3,0,0,1,3,3v8.79a3,3,0,0,1-3,3Z" transform="translate(-821.68 -113.34)"/><path class="cls-6" d="M860.79,641.2a3,3,0,0,1,3,3V653a3,3,0,0,1-3,3H852a3,3,0,0,1-3-3v-8.78a3,3,0,0,1,3-3Z" transform="translate(-821.68 -113.34)"/><g class="cls-10"><rect class="cls-5" x="16.89" y="623.52" width="278.33" height="15.87"/></g><path class="cls-11" d="M1110.9,744.19a2.31,2.31,0,1,1-2.3-2.3A2.3,2.3,0,0,1,1110.9,744.19Z" transform="translate(-821.68 -113.34)"/><rect class="cls-3" x="24.44" y="629.83" width="14.01" height="2.05"/><g class="cls-12"><rect class="cls-6" x="55.47" y="628.04" width="5.65" height="5.64" rx="1.15"/><rect class="cls-8" x="45.77" y="628.04" width="5.64" height="5.64" rx="1.15"/><rect class="cls-11" x="84.56" y="628.03" width="5.64" height="5.64" rx="1.15"/><rect class="cls-6" x="74.86" y="628.03" width="5.65" height="5.64" rx="1.15"/><rect class="cls-7" x="65.16" y="628.04" width="5.64" height="5.64" rx="1.15"/></g><rect class="cls-4" x="16.56" y="465.06" width="278.72" height="173.83" rx="6.21"/><rect class="cls-1" x="2.17" y="3" width="545.44" height="430.54" rx="6.05"/><rect class="cls-2" x="1" y="1.33" width="416.14" height="430.54" rx="6.21"/><rect class="cls-3" x="239.59" y="250.37" width="162.28" height="165.62" rx="2.75"/><rect class="cls-4" x="1" y="1.33" width="416.14" height="430.54" rx="6.21"/><rect class="cls-2" x="418.12" y="1" width="183.51" height="430.54" rx="6.21"/><rect class="cls-4" x="418.12" y="1" width="183.51" height="430.54" rx="6.21"/><rect class="cls-3" x="66.38" y="21.54" width="334.22" height="211.41" rx="2.5"/><rect class="cls-3" x="433.86" y="21.66" width="155.96" height="394" rx="2.5"/><rect class="cls-4" x="433.86" y="21.66" width="155.96" height="394" rx="2.5"/><rect class="cls-3" x="66.38" y="250.37" width="162.28" height="165.62" rx="2.5"/><g class="cls-13"><path class="cls-5" d="M1049.8,275.63A49.85,49.85,0,1,0,1000.16,226,49.81,49.81,0,0,0,1049.8,275.63Z" transform="translate(-821.68 -113.34)"/><path class="cls-5" d="M1139.09,368.53c-16.16-43.35-42.35-80-89.29-80-46.59,0-72.75,36.69-88.91,80.07a142.1,142.1,0,0,0,178.2-.07Z" transform="translate(-821.68 -113.34)"/></g><rect class="cls-4" x="239.59" y="250.37" width="162.28" height="165.62" rx="2.75"/><g class="cls-14"><path class="cls-5" d="M971.26,465.58a33.93,33.93,0,1,0-33.79-33.79A33.9,33.9,0,0,0,971.26,465.58Z" transform="translate(-821.68 -113.34)"/><path class="cls-5" d="M1032,528.83c-11-29.51-28.83-54.47-60.78-54.47-31.72,0-49.53,25-60.53,54.51a96.73,96.73,0,0,0,121.31,0Z" transform="translate(-821.68 -113.34)"/></g><circle class="cls-3" cx="461.74" cy="109.05" r="14.23"/><g class="cls-15"><circle class="cls-16" cx="1283.42" cy="220.52" r="5.59" transform="translate(-31.15 1312.53) rotate(-77.51)"/><path class="cls-16" d="M1290.6,236.89h-14.35v-2.11a7.17,7.17,0,0,1,7.17-7.17h0a7.17,7.17,0,0,1,7.18,7.17Z" transform="translate(-821.68 -113.34)"/></g><circle class="cls-17" cx="461.74" cy="109.05" r="14.23"/><rect class="cls-16" x="484.32" y="99.33" width="55" height="12.33" rx="3.84"/><rect class="cls-18" x="484.32" y="115.73" width="91" height="5.5" rx="2.75"/><circle class="cls-3" cx="461.74" cy="156.05" r="14.23"/><g class="cls-19"><circle class="cls-16" cx="1283.42" cy="267.52" r="5.59" transform="translate(-77.04 1349.36) rotate(-77.51)"/><path class="cls-16" d="M1290.6,283.89h-14.35v-2.11a7.17,7.17,0,0,1,7.17-7.17h0a7.17,7.17,0,0,1,7.18,7.17Z" transform="translate(-821.68 -113.34)"/></g><circle class="cls-17" cx="461.74" cy="156.05" r="14.23"/><rect class="cls-16" x="484.32" y="146.33" width="63.5" height="12.33" rx="3.42"/><rect class="cls-18" x="484.32" y="162.73" width="75" height="5.5" rx="2.75"/><circle class="cls-3" cx="461.74" cy="203.05" r="14.23"/><g class="cls-20"><circle class="cls-16" cx="1283.42" cy="314.52" r="5.59" transform="translate(-122.92 1386.2) rotate(-77.51)"/><path class="cls-16" d="M1290.6,330.89h-14.35v-2.11a7.17,7.17,0,0,1,7.17-7.17h0a7.17,7.17,0,0,1,7.18,7.17Z" transform="translate(-821.68 -113.34)"/></g><circle class="cls-17" cx="461.74" cy="203.05" r="14.23"/><rect class="cls-16" x="484.32" y="193.33" width="42.5" height="12.33" rx="2.34"/><rect class="cls-18" x="484.32" y="209.73" width="90.25" height="5.5" rx="2.75"/><circle class="cls-3" cx="461.74" cy="250.05" r="14.23"/><g class="cls-21"><circle class="cls-16" cx="1283.42" cy="361.52" r="5.59" transform="translate(-168.81 1423.03) rotate(-77.51)"/><path class="cls-16" d="M1290.6,377.89h-14.35v-2.11a7.17,7.17,0,0,1,7.17-7.17h0a7.17,7.17,0,0,1,7.18,7.17Z" transform="translate(-821.68 -113.34)"/></g><circle class="cls-17" cx="461.74" cy="250.05" r="14.23"/><rect class="cls-16" x="484.32" y="240.33" width="55.5" height="12.33" rx="2.67"/><rect class="cls-18" x="484.32" y="256.73" width="30" height="5.5" rx="2.75"/><rect class="cls-22" x="447.32" y="324.76" width="129" height="66.9" rx="5.5"/><path class="cls-3" d="M862.4,181.86H847a1,1,0,0,1-1-1v-9.81a1,1,0,0,1,1-1H862.4a1,1,0,0,1,1,1v9.81A1,1,0,0,1,862.4,181.86Zm-14.68-1.71h13.93v-8.31H847.72Z" transform="translate(-821.68 -113.34)"/><rect class="cls-3" x="32" y="67.13" width="2.01" height="2.88" rx="0.09"/><rect class="cls-3" x="29.09" y="69.81" width="7.82" height="1.81" rx="0.58"/><path class="cls-3" d="M854.68,222.5a8.46,8.46,0,1,0,8.45,8.45A8.46,8.46,0,0,0,854.68,222.5Zm6.86,8.45a6.88,6.88,0,0,1-1,3.52L849.89,226A6.86,6.86,0,0,1,861.54,231Zm-6.86,6.87a6.86,6.86,0,0,1-5.79-10.55l10.71,8.46A6.83,6.83,0,0,1,854.68,237.82Z" transform="translate(-821.68 -113.34)"/><path class="cls-3" d="M854.09,338.67a4.43,4.43,0,1,1,4.43-4.43A4.44,4.44,0,0,1,854.09,338.67Zm0-7.37a2.94,2.94,0,1,0,2.94,2.94A2.94,2.94,0,0,0,854.09,331.3Z" transform="translate(-821.68 -113.34)"/><path class="cls-3" d="M859.56,345.78H848.62v-2.14a5.48,5.48,0,0,1,9.22-4,.74.74,0,0,1,0,1.05.73.73,0,0,1-1,0,4,4,0,0,0-6.71,2.91v.65h8v-.65a.76.76,0,0,1,.75-.75.75.75,0,0,1,.74.75Z" transform="translate(-821.68 -113.34)"/><rect class="cls-3" x="38.28" y="226.03" width="1.22" height="4.19" rx="0.41"/><rect class="cls-3" x="36.79" y="227.52" width="4.19" height="1.22" rx="0.41"/><path class="cls-2" d="M851.61,444.42s-3.82.93-4.27,3.18.08,2.48.08,2.48l8.71.08a6.46,6.46,0,0,0-2.18-4.51C851.77,443.77,851.61,444.42,851.61,444.42Z" transform="translate(-821.68 -113.34)"/><circle class="cls-2" cx="30.01" cy="326.83" r="3.29"/><path class="cls-3" d="M851.64,444.42a4,4,0,1,1,4-4A4,4,0,0,1,851.64,444.42Zm0-6.64a2.65,2.65,0,1,0,2.65,2.65A2.65,2.65,0,0,0,851.64,437.78Z" transform="translate(-821.68 -113.34)"/><path class="cls-3" d="M856.57,450.82h-9.86V448.9a4.94,4.94,0,0,1,8.31-3.6.67.67,0,0,1-.92,1,3.59,3.59,0,0,0-6.05,2.62v.58h7.18v-.58a.67.67,0,1,1,1.34,0Z" transform="translate(-821.68 -113.34)"/><path class="cls-3" d="M846.71,450.82h9.86V448.9a4.93,4.93,0,0,0-8.3-3.6.67.67,0,0,0,0,.95.68.68,0,0,0,1,0,3.54,3.54,0,0,1,2.45-1,3.59,3.59,0,0,1,3.59,3.59v.58h-7.18v-.58a.67.67,0,0,0-1.34,0Z" transform="translate(-821.68 -113.34)"/><path class="cls-2" d="M859.07,415.71s-4.24,1-4.74,3.54.09,2.75.09,2.75l9.66.08a7.18,7.18,0,0,0-2.41-5C859.25,415,859.07,415.71,859.07,415.71Z" transform="translate(-821.68 -113.34)"/><circle class="cls-2" cx="37.48" cy="297.66" r="3.65"/><path class="cls-3" d="M859.1,445.71a4.43,4.43,0,1,1,4.43-4.43A4.43,4.43,0,0,1,859.1,445.71Zm0-7.37a2.94,2.94,0,1,0,2.94,2.94A2.94,2.94,0,0,0,859.1,438.34Z" transform="translate(-821.68 -113.34)"/><path class="cls-3" d="M864.57,452.82H853.63v-2.13a5.47,5.47,0,0,1,9.22-4,.74.74,0,1,1-1,1.08,4,4,0,0,0-6.71,2.91v.64h8v-.64a.75.75,0,0,1,.75-.75.74.74,0,0,1,.74.75Z" transform="translate(-821.68 -113.34)"/><path class="cls-3" d="M853.63,452.82h10.94v-2.13a5.48,5.48,0,0,0-5.47-5.48,5.41,5.41,0,0,0-3.74,1.49.73.73,0,0,0,0,1.05.74.74,0,0,0,1,0,4,4,0,0,1,6.71,2.91v.64h-8v-.64a.75.75,0,0,0-.75-.75.74.74,0,0,0-.74.75Z" transform="translate(-821.68 -113.34)"/><path class="cls-3" d="M854.09,392.09a4.43,4.43,0,1,1,4.43-4.43A4.44,4.44,0,0,1,854.09,392.09Zm0-7.37a2.94,2.94,0,1,0,2.94,2.94A2.94,2.94,0,0,0,854.09,384.72Z" transform="translate(-821.68 -113.34)"/><path class="cls-3" d="M859.56,399.2H848.62v-2.14a5.48,5.48,0,0,1,9.22-4,.74.74,0,1,1-1,1.08,4,4,0,0,0-6.71,2.91v.65h8v-.65a.76.76,0,0,1,.75-.75.75.75,0,0,1,.74.75Z" transform="translate(-821.68 -113.34)"/><rect class="cls-3" x="36.79" y="280.93" width="4.19" height="1.22" rx="0.41"/><path class="cls-3" d="M854.74,286.81h-.31a4.63,4.63,0,0,1-4.63-4.63v-4.62a4.63,4.63,0,0,1,4.63-4.63h.31a4.63,4.63,0,0,1,4.63,4.63v4.62A4.63,4.63,0,0,1,854.74,286.81Zm-.31-11.88a2.63,2.63,0,0,0-2.63,2.63v4.62a2.63,2.63,0,0,0,2.63,2.63h.31a2.63,2.63,0,0,0,2.63-2.63v-4.62a2.63,2.63,0,0,0-2.63-2.63Z" transform="translate(-821.68 -113.34)"/><path class="cls-3" d="M854.58,290.75a8.19,8.19,0,0,1-8.17-8.18,1,1,0,0,1,2,0,6.18,6.18,0,1,0,12.35,0,1,1,0,1,1,2,0A8.19,8.19,0,0,1,854.58,290.75Z" transform="translate(-821.68 -113.34)"/><rect class="cls-3" x="31.96" y="175.73" width="1.88" height="4.57"/><rect class="cls-3" x="27.68" y="179.86" width="10.45" height="2.63" rx="1.31"/><path class="cls-5" d="M1167.36,437.48h-17.59V420.09a3.69,3.69,0,0,0-3.85-3.67h-6.78a3.74,3.74,0,0,0-3.91,3.67v17.39H1117.7a4.16,4.16,0,0,0-4,4v6.79a3.87,3.87,0,0,0,4,3.7h17.53v17.73a3.87,3.87,0,0,0,3.91,3.83h6.78a3.82,3.82,0,0,0,3.85-3.83V452h17.59a3.81,3.81,0,0,0,4-3.7v-6.79A4.11,4.11,0,0,0,1167.36,437.48Z" transform="translate(-821.68 -113.34)"/><rect class="cls-4" x="66.38" y="21.54" width="334.22" height="211.41" rx="2.5"/><rect class="cls-4" x="66.38" y="250.37" width="162.28" height="165.62" rx="2.5"/></svg>