<svg id="Layer_1" data-name="Layer 1" xmlns="http://www.w3.org/2000/svg" viewBox="0 0 648.62 672.67"><defs><style>.cls-1{fill:#d9d7e4;}.cls-10,.cls-11,.cls-12,.cls-15,.cls-18,.cls-19,.cls-2,.cls-23,.cls-24,.cls-25,.cls-27,.cls-29,.cls-9{fill:none;}.cls-16,.cls-2,.cls-4{stroke:#b4b3bc;}.cls-16,.cls-18,.cls-19,.cls-2,.cls-23,.cls-24,.cls-25,.cls-27,.cls-29,.cls-4{stroke-miterlimit:10;}.cls-10,.cls-11,.cls-18,.cls-19,.cls-2,.cls-4,.cls-9{stroke-width:2px;}.cls-14,.cls-22,.cls-3,.cls-30{fill:#fff;}.cls-16,.cls-17,.cls-4{fill:#f9f9f9;}.cls-5{fill:#ebf5f7;}.cls-6{fill:#64c3d9;}.cls-7{fill:#dedede;}.cls-8{fill:#b3b5b7;}.cls-9{stroke:#7f7f7f;}.cls-10,.cls-11,.cls-12,.cls-15,.cls-17,.cls-18,.cls-19,.cls-22,.cls-9{stroke-linecap:round;}.cls-10,.cls-11,.cls-12,.cls-15,.cls-17,.cls-22,.cls-9{stroke-linejoin:round;}.cls-10,.cls-12,.cls-17,.cls-18,.cls-22{stroke:#b3b5b7;}.cls-11{stroke:#f9f9f9;}.cls-13{fill:#5c4799;}.cls-14{font-size:10.06px;font-family:YDIYGO330;}.cls-15{stroke:#d3d3d3;}.cls-16{stroke-width:1.5px;}.cls-19,.cls-25{stroke:#f53b69;}.cls-20{fill:#8d929c;}.cls-21{fill:#f5c43c;}.cls-23{stroke:#64c3d9;}.cls-24{stroke:#5c4799;}.cls-26{fill:#f53b69;}.cls-27{stroke:#89a6f5;}.cls-28{fill:#89a6f5;}.cls-29{stroke:#f5c43c;}.cls-30{font-size:7.97px;font-family:NotoSansCJKkr-Medium-KSCpc-EUC-H, Noto Sans CJK KR;}</style></defs><title>1_site</title><rect class="cls-1" x="1" y="1" width="646.62" height="670.67" rx="11.16"/><rect class="cls-2" x="1" y="1" width="646.62" height="670.67" rx="10.15"/><rect class="cls-3" x="13.21" y="77.61" width="530.09" height="34.5" rx="2.94"/><rect class="cls-2" x="13.21" y="77.61" width="530.09" height="34.5" rx="2.94"/><rect class="cls-4" x="13.21" y="120.8" width="196.2" height="171.48" rx="2.94"/><rect class="cls-4" x="215.61" y="120.93" width="196.2" height="171.48" rx="2.94"/><rect class="cls-4" x="13.21" y="489.19" width="196.2" height="173.4" rx="2.94"/><rect class="cls-4" x="215.85" y="489.19" width="196.2" height="173.4" rx="2.94"/><rect class="cls-5" x="13.21" y="299.95" width="398.83" height="183.95" rx="2.94"/><rect class="cls-2" x="13.21" y="299.95" width="398.83" height="183.95" rx="2.94"/><rect class="cls-4" x="418.97" y="121.4" width="219.14" height="541.78" rx="2.94"/><rect class="cls-6" x="549.05" y="77.61" width="88.09" height="34.5" rx="2.94"/><rect class="cls-3" x="13.21" y="11.16" width="623.93" height="34.5" rx="2.94"/><rect class="cls-2" x="13.21" y="11.16" width="623.93" height="34.5" rx="2.94"/><rect class="cls-7" x="24.5" y="21.55" width="165.06" height="13.71" rx="6.86"/><rect class="cls-7" x="204.79" y="21.55" width="54.66" height="13.71" rx="6.86"/><rect class="cls-7" x="280.64" y="21.55" width="105.43" height="13.71" rx="6.86"/><rect class="cls-8" x="24.5" y="56.33" width="71.86" height="12.46" rx="6.23"/><rect class="cls-8" x="37.43" y="128.64" width="71.86" height="12.46" rx="6.23"/><rect class="cls-8" x="131.12" y="58.56" width="55.77" height="7.99" rx="3.84"/><rect class="cls-7" x="113.23" y="91.12" width="132.26" height="7.99" rx="3.84"/><rect class="cls-7" x="54.43" y="162.69" width="132.26" height="7.99" rx="3.84"/><rect class="cls-7" x="26.4" y="532.24" width="132.26" height="7.99" rx="3.84"/><rect class="cls-7" x="226.77" y="532.24" width="153.82" height="7.99" rx="3.84"/><rect class="cls-7" x="226.77" y="567.18" width="161.01" height="7.99" rx="3.84"/><rect class="cls-7" x="226.77" y="600.17" width="132.26" height="7.99" rx="3.84"/><rect class="cls-7" x="226.77" y="632.98" width="166.11" height="7.99" rx="3.84"/><rect class="cls-7" x="167.9" y="534.26" width="34.54" height="3.95" rx="1.97"/><rect class="cls-7" x="167.9" y="569.92" width="34.54" height="3.95" rx="1.97"/><rect class="cls-7" x="167.9" y="602.19" width="34.54" height="3.95" rx="1.97"/><rect class="cls-7" x="167.9" y="634.47" width="34.54" height="3.95" rx="1.97"/><rect class="cls-7" x="26.4" y="567.9" width="132.26" height="7.99" rx="3.84"/><rect class="cls-7" x="26.4" y="600.17" width="132.26" height="7.99" rx="3.84"/><rect class="cls-7" x="26.4" y="632.44" width="132.26" height="7.99" rx="3.84"/><rect class="cls-7" x="226.77" y="162.69" width="101.55" height="7.99" rx="3.84"/><rect class="cls-7" x="542.31" y="193" width="61.84" height="7.99" rx="3.84"/><rect class="cls-7" x="542.31" y="203.64" width="41.92" height="3.46" rx="1.73"/><rect class="cls-7" x="542.31" y="467.67" width="41.92" height="3.46" rx="1.73"/><rect class="cls-7" x="542.31" y="473.08" width="26.91" height="3.46" rx="1.73"/><rect class="cls-7" x="542.31" y="478.49" width="17.58" height="3.46" rx="1.73"/><rect class="cls-7" x="542.31" y="325.53" width="61.84" height="7.99" rx="3.84"/><rect class="cls-7" x="542.31" y="457.07" width="61.84" height="7.99" rx="3.84"/><rect class="cls-7" x="542.31" y="602.43" width="17.58" height="3.46" rx="1.73"/><rect class="cls-7" x="542.31" y="589.75" width="61.84" height="7.99" rx="3.84"/><rect class="cls-7" x="454.4" y="388.29" width="61.84" height="7.99" rx="3.84"/><rect class="cls-7" x="482.89" y="260.93" width="33.35" height="7.99" rx="3.84"/><rect class="cls-7" x="474.32" y="271.57" width="41.92" height="3.46" rx="1.73"/><rect class="cls-7" x="490.61" y="277.61" width="25.63" height="3.46" rx="1.73"/><rect class="cls-7" x="490.61" y="399.25" width="25.63" height="3.46" rx="1.73"/><rect class="cls-7" x="454.4" y="515.28" width="61.84" height="7.99" rx="3.84"/><rect class="cls-7" x="490.61" y="526.24" width="25.63" height="3.46" rx="1.73"/><rect class="cls-7" x="505.46" y="531.95" width="10.78" height="3.46" rx="1.73"/><rect class="cls-7" x="226.77" y="196.68" width="101.55" height="7.99" rx="3.84"/><rect class="cls-7" x="226.77" y="230.68" width="101.55" height="7.99" rx="3.84"/><rect class="cls-7" x="226.77" y="264.67" width="101.55" height="7.99" rx="3.84"/><rect class="cls-7" x="54.43" y="196.68" width="132.26" height="7.99" rx="3.84"/><rect class="cls-7" x="54.43" y="230.68" width="132.26" height="7.99" rx="3.84"/><rect class="cls-7" x="54.43" y="264.67" width="132.26" height="7.99" rx="3.84"/><rect class="cls-8" x="24.5" y="91.12" width="25.37" height="7.99" rx="4"/><line class="cls-9" x1="104.65" y1="56.33" x2="104.65" y2="68.79"/><rect class="cls-6" x="112.64" y="56.44" width="12.22" height="12.22" rx="2.72"/><path class="cls-3" d="M430.22,262.84v-4.48h-1.33v-.62a2.61,2.61,0,0,0,.57-.09,1.59,1.59,0,0,0,.49-.24,1.07,1.07,0,0,0,.31-.35,1.16,1.16,0,0,0,.14-.48H431v6.26Z" transform="translate(-311.19 -197.16)"/><rect class="cls-6" x="25.65" y="159.35" width="14.67" height="14.67" rx="2.72"/><path class="cls-3" d="M344.51,367.6v-5.38h-1.6v-.75a2.93,2.93,0,0,0,.68-.1,2.37,2.37,0,0,0,.6-.29,1.52,1.52,0,0,0,.36-.42,1.38,1.38,0,0,0,.17-.58h.71v7.52Z" transform="translate(-311.19 -197.16)"/><path class="cls-3" d="M512.91,256.5h3.54a.29.29,0,0,1,.25.43l-1.77,3L513.16,263a.28.28,0,0,1-.49,0l-1.78-3-1.77-3a.29.29,0,0,1,.25-.43Z" transform="translate(-311.19 -197.16)"/><path class="cls-8" d="M407.55,288.69h3.54a.29.29,0,0,1,.25.43l-1.77,3-1.78,3.05a.28.28,0,0,1-.49,0l-1.77-3-1.77-3a.29.29,0,0,1,.25-.43Z" transform="translate(-311.19 -197.16)"/><path class="cls-8" d="M500.75,332v-3.54a.28.28,0,0,1,.43-.24l3,1.76,3.05,1.78a.28.28,0,0,1,0,.49l-3,1.77-3,1.77a.29.29,0,0,1-.43-.25Z" transform="translate(-311.19 -197.16)"/><path class="cls-8" d="M924.34,332v-3.54a.27.27,0,0,1,.42-.24l3,1.76,3.05,1.78a.28.28,0,0,1,0,.49l-3,1.77-3,1.77a.28.28,0,0,1-.42-.25Z" transform="translate(-311.19 -197.16)"/><path class="cls-8" d="M500.75,700.7v-3.54a.28.28,0,0,1,.43-.24l3,1.76,3.05,1.78a.28.28,0,0,1,0,.49l-3,1.77-3,1.77a.29.29,0,0,1-.43-.25Z" transform="translate(-311.19 -197.16)"/><path class="cls-8" d="M704.21,700.7v-3.54a.28.28,0,0,1,.43-.24l3,1.76,3.05,1.78a.28.28,0,0,1,0,.49l-3,1.77-3,1.77a.29.29,0,0,1-.43-.25Z" transform="translate(-311.19 -197.16)"/><circle class="cls-10" cx="526.53" cy="93.5" r="5.54"/><line class="cls-10" x1="530.24" y1="97.62" x2="534.16" y2="101.76"/><path class="cls-11" d="M898.5,283.93H910a.63.63,0,0,1,.53,1l-4.37,7a.59.59,0,0,0-.1.34v6.39A.63.63,0,0,1,905,299l-2.73-2.73a.67.67,0,0,1-.18-.44v-3.68a.68.68,0,0,0-.08-.31l-4.08-7A.63.63,0,0,1,898.5,283.93Z" transform="translate(-311.19 -197.16)"/><circle class="cls-12" cx="28.12" cy="132.01" r="3"/><path class="cls-12" d="M28.28,135h0a5.09,5.09,0,0,1,5.09,5.09v.33a0,0,0,0,1,0,0H22.86a0,0,0,0,1,0,0v0A5.42,5.42,0,0,1,28.28,135Z"/><path class="cls-12" d="M337.84,332.17l1.47,3s1.54-3,1.56-3" transform="translate(-311.19 -197.16)"/><rect class="cls-8" x="37.43" y="497.12" width="71.86" height="12.46" rx="6.23"/><rect class="cls-8" x="241.04" y="497.12" width="71.86" height="12.46" rx="6.23"/><rect class="cls-8" x="241.37" y="128.64" width="71.86" height="12.46" rx="6.23"/><rect class="cls-8" x="430.11" y="128.64" width="71.86" height="12.46" rx="6.23"/><rect class="cls-13" x="25.41" y="193.34" width="14.67" height="14.67" rx="2.72"/><text class="cls-14" transform="translate(29.91 203.29)">2</text><rect class="cls-6" x="25.41" y="227.34" width="14.67" height="14.67" rx="2.72"/><text class="cls-14" transform="translate(29.91 237.28)">3</text><rect class="cls-13" x="25.41" y="261.34" width="14.67" height="14.67" rx="2.72"/><text class="cls-14" transform="translate(29.91 271.28)">4</text><line class="cls-15" x1="19.71" y1="149.58" x2="201.72" y2="149.58"/><line class="cls-15" x1="19.71" y1="183.68" x2="201.72" y2="183.68"/><line class="cls-15" x1="19.71" y1="217.78" x2="201.72" y2="217.78"/><line class="cls-15" x1="19.71" y1="251.87" x2="201.72" y2="251.87"/><line class="cls-16" x1="20.43" y1="515.44" x2="202.44" y2="515.44"/><line class="cls-15" x1="20.43" y1="549.54" x2="202.44" y2="549.54"/><line class="cls-15" x1="20.43" y1="583.64" x2="202.44" y2="583.64"/><line class="cls-15" x1="20.43" y1="617.73" x2="202.44" y2="617.73"/><line class="cls-16" x1="222.71" y1="515.44" x2="404.71" y2="515.44"/><line class="cls-15" x1="222.71" y1="549.54" x2="404.71" y2="549.54"/><line class="cls-15" x1="222.71" y1="583.64" x2="404.71" y2="583.64"/><line class="cls-15" x1="222.71" y1="617.73" x2="404.71" y2="617.73"/><line class="cls-15" x1="222.22" y1="149.58" x2="404.23" y2="149.58"/><line class="cls-15" x1="424.86" y1="149.58" x2="631.96" y2="149.58"/><line class="cls-15" x1="222.22" y1="183.68" x2="404.23" y2="183.68"/><line class="cls-15" x1="222.22" y1="217.78" x2="404.23" y2="217.78"/><line class="cls-15" x1="222.22" y1="251.87" x2="404.23" y2="251.87"/><rect class="cls-17" x="541.06" y="330.67" width="3.67" height="9.77" rx="1.27" transform="translate(567.27 -404.5) rotate(90)"/><rect class="cls-17" x="540.19" y="328.13" width="3.67" height="9.13" rx="1.52" transform="translate(10.69 -461.14) rotate(38.21)"/><rect class="cls-17" x="226.82" y="129.78" width="3.67" height="10.46" rx="1.09"/><line class="cls-12" x1="226.82" y1="132.61" x2="230.49" y2="132.61"/><line class="cls-12" x1="226.82" y1="135.53" x2="230.49" y2="135.53"/><line class="cls-12" x1="226.82" y1="138.46" x2="230.49" y2="138.46"/><path class="cls-18" d="M701.57,366.88a2.89,2.89,0,0,1-2.89,2.89h-5.49a2.89,2.89,0,0,1-2.89-2.89v-5.49a2.89,2.89,0,0,1,2.89-2.89h5.49a2.85,2.85,0,0,1,1.39.36" transform="translate(-311.19 -197.16)"/><polyline class="cls-19" points="393.02 157.54 384.92 169.13 381.82 164.88"/><path class="cls-18" d="M701.57,402.48a2.89,2.89,0,0,1-2.89,2.89h-5.49a2.89,2.89,0,0,1-2.89-2.89V397a2.89,2.89,0,0,1,2.89-2.89h5.49a2.85,2.85,0,0,1,1.39.36" transform="translate(-311.19 -197.16)"/><polyline class="cls-19" points="393.02 193.14 384.92 204.73 381.82 200.48"/><path class="cls-18" d="M701.57,435a2.89,2.89,0,0,1-2.89,2.89h-5.49A2.89,2.89,0,0,1,690.3,435v-5.49a2.89,2.89,0,0,1,2.89-2.89h5.49a2.85,2.85,0,0,1,1.39.36" transform="translate(-311.19 -197.16)"/><polyline class="cls-19" points="393.02 225.7 384.92 237.29 381.82 233.04"/><path class="cls-18" d="M701.57,468.65a2.89,2.89,0,0,1-2.89,2.89h-5.49a2.89,2.89,0,0,1-2.89-2.89v-5.49a2.89,2.89,0,0,1,2.89-2.89h5.49a3,3,0,0,1,1.39.35" transform="translate(-311.19 -197.16)"/><polyline class="cls-19" points="393.02 259.31 384.92 270.9 381.82 266.64"/><rect class="cls-4" x="75.46" y="317.69" width="316.04" height="25.48" rx="2.94"/><rect class="cls-20" x="75.46" y="317.69" width="29.19" height="25.48" rx="2.94"/><path class="cls-21" d="M400.92,522.12l1,3.06a.67.67,0,0,0,.65.48h3.23a.69.69,0,0,1,.4,1.24l-2.61,1.89a.7.7,0,0,0-.25.77l1,3.07a.69.69,0,0,1-1.06.76l-2.61-1.89a.66.66,0,0,0-.8,0l-2.61,1.89a.69.69,0,0,1-1.06-.76l1-3.07a.7.7,0,0,0-.25-.77l-2.61-1.89a.69.69,0,0,1,.41-1.24H398a.67.67,0,0,0,.65-.48l1-3.06A.68.68,0,0,1,400.92,522.12Z" transform="translate(-311.19 -197.16)"/><rect class="cls-4" x="75.46" y="357.79" width="316.04" height="25.48" rx="2.94"/><rect class="cls-20" x="75.46" y="357.79" width="29.19" height="25.48" rx="2.94"/><path class="cls-21" d="M400.92,562.22l1,3.07a.68.68,0,0,0,.65.47h3.23a.69.69,0,0,1,.4,1.24l-2.61,1.89a.7.7,0,0,0-.25.77l1,3.07a.69.69,0,0,1-1.06.76l-2.61-1.89a.66.66,0,0,0-.8,0l-2.61,1.89a.69.69,0,0,1-1.06-.76l1-3.07a.7.7,0,0,0-.25-.77L394.34,567a.69.69,0,0,1,.41-1.24H398a.68.68,0,0,0,.65-.47l1-3.07A.68.68,0,0,1,400.92,562.22Z" transform="translate(-311.19 -197.16)"/><rect class="cls-4" x="75.46" y="397.89" width="316.04" height="25.48" rx="2.94"/><rect class="cls-20" x="75.46" y="397.89" width="29.19" height="25.48" rx="2.94"/><path class="cls-21" d="M400.92,602.32l1,3.07a.68.68,0,0,0,.65.47h3.23a.69.69,0,0,1,.4,1.24l-2.61,1.9a.68.68,0,0,0-.25.76l1,3.07a.69.69,0,0,1-1.06.77l-2.61-1.9a.69.69,0,0,0-.8,0l-2.61,1.9a.69.69,0,0,1-1.06-.77l1-3.07A.68.68,0,0,0,397,609l-2.61-1.9a.69.69,0,0,1,.41-1.24H398a.68.68,0,0,0,.65-.47l1-3.07A.68.68,0,0,1,400.92,602.32Z" transform="translate(-311.19 -197.16)"/><rect class="cls-4" x="75.46" y="438" width="316.04" height="25.48" rx="2.94"/><rect class="cls-20" x="75.46" y="438" width="29.19" height="25.48" rx="2.94"/><path class="cls-21" d="M400.92,642.42l1,3.07a.69.69,0,0,0,.65.48h3.23a.68.68,0,0,1,.4,1.23l-2.61,1.9a.69.69,0,0,0-.25.77l1,3.06a.69.69,0,0,1-1.06.77l-2.61-1.9a.69.69,0,0,0-.8,0l-2.61,1.9a.69.69,0,0,1-1.06-.77l1-3.06a.69.69,0,0,0-.25-.77l-2.61-1.9a.68.68,0,0,1,.41-1.23H398a.69.69,0,0,0,.65-.48l1-3.07A.68.68,0,0,1,400.92,642.42Z" transform="translate(-311.19 -197.16)"/><path class="cls-8" d="M687,527.58V524a.28.28,0,0,1,.43-.24l3,1.77,3.05,1.77a.28.28,0,0,1,0,.49l-3,1.77-3,1.77a.28.28,0,0,1-.43-.24Z" transform="translate(-311.19 -197.16)"/><path class="cls-8" d="M687,567.69v-3.54a.29.29,0,0,1,.43-.25l3,1.77,3.05,1.77a.28.28,0,0,1,0,.49l-3,1.77-3,1.77a.28.28,0,0,1-.43-.24Z" transform="translate(-311.19 -197.16)"/><path class="cls-8" d="M687,607.79v-3.54a.29.29,0,0,1,.43-.25l3,1.77,3.05,1.77a.29.29,0,0,1,0,.5l-3,1.77-3,1.77a.29.29,0,0,1-.43-.25Z" transform="translate(-311.19 -197.16)"/><path class="cls-8" d="M687,649v-3.54a.29.29,0,0,1,.43-.25l3,1.77,3.05,1.77a.29.29,0,0,1,0,.5l-3,1.77-3,1.77a.29.29,0,0,1-.43-.25Z" transform="translate(-311.19 -197.16)"/><rect class="cls-7" x="120.56" y="326.43" width="200.88" height="7.99" rx="3.84"/><rect class="cls-7" x="120.56" y="366.53" width="111.66" height="7.99" rx="3.84"/><rect class="cls-7" x="120.56" y="407.09" width="174.6" height="7.99" rx="3.84"/><rect class="cls-7" x="120.56" y="446.74" width="143.94" height="7.99" rx="3.84"/><line class="cls-22" x1="25.01" y1="500.75" x2="31.41" y2="500.75"/><line class="cls-22" x1="25.01" y1="503.35" x2="31.41" y2="503.35"/><line class="cls-22" x1="25.01" y1="505.95" x2="31.41" y2="505.95"/><line class="cls-22" x1="22.86" y1="500.75" x2="23.67" y2="500.75"/><line class="cls-22" x1="22.86" y1="503.35" x2="23.67" y2="503.35"/><line class="cls-22" x1="22.86" y1="505.95" x2="23.67" y2="505.95"/><path class="cls-12" d="M537.54,695.28H545a1.81,1.81,0,0,1,1.94,1.84v4.31a2.09,2.09,0,0,1-1.91,2v2.69l-2.61-2.51h-4.89a2.2,2.2,0,0,1-2-2.19v-4.31A1.9,1.9,0,0,1,537.54,695.28Z" transform="translate(-311.19 -197.16)"/><line class="cls-12" x1="232.19" y1="500.92" x2="227.88" y2="500.92"/><line class="cls-12" x1="232.19" y1="502.93" x2="227.88" y2="502.93"/><line class="cls-15" x1="528.17" y1="661.58" x2="528.17" y2="150.13"/><line class="cls-23" x1="490.61" y1="197" x2="528.17" y2="197"/><circle class="cls-6" cx="839.36" cy="394.14" r="3.37" transform="translate(-398.21 155.84) rotate(-22.61)"/><rect class="cls-6" x="460.75" y="182" width="29.86" height="29.86" rx="7.89"/><line class="cls-24" x1="566.1" y1="264.74" x2="528.54" y2="264.74"/><circle class="cls-13" cx="839.73" cy="461.88" r="3.37" transform="translate(-220.69 862.34) rotate(-67.39)"/><rect class="cls-13" x="566.1" y="249.74" width="29.86" height="29.86" rx="7.89"/><line class="cls-25" x1="566.1" y1="391.99" x2="528.54" y2="391.99"/><circle class="cls-26" cx="839.73" cy="589.14" r="3.37" transform="translate(-338.16 940.66) rotate(-67.39)"/><rect class="cls-26" x="877.29" y="574.15" width="29.86" height="29.86" rx="7.89" transform="translate(1473.25 981.01) rotate(-180)"/><line class="cls-27" x1="566.1" y1="519.24" x2="528.54" y2="519.24"/><circle class="cls-28" cx="839.73" cy="716.39" r="3.37" transform="translate(-455.63 1018.99) rotate(-67.39)"/><rect class="cls-28" x="877.29" y="701.4" width="29.86" height="29.86" rx="7.89" transform="translate(1473.25 1235.51) rotate(-180)"/><line class="cls-24" x1="490.61" y1="329.03" x2="528.17" y2="329.03"/><circle class="cls-13" cx="839.36" cy="526.18" r="3.37" transform="translate(-448.97 165.99) rotate(-22.61)"/><rect class="cls-13" x="460.75" y="314.04" width="29.86" height="29.86" rx="7.89"/><line class="cls-25" x1="490.61" y1="461.07" x2="528.17" y2="461.07"/><circle class="cls-26" cx="839.36" cy="658.21" r="3.37" transform="translate(-499.74 176.14) rotate(-22.61)"/><rect class="cls-26" x="460.75" y="446.07" width="29.86" height="29.86" rx="7.89"/><line class="cls-29" x1="490.61" y1="593.11" x2="528.17" y2="593.11"/><circle class="cls-21" cx="839.36" cy="790.25" r="3.37" transform="translate(-550.5 186.29) rotate(-22.61)"/><rect class="cls-21" x="460.75" y="578.11" width="29.86" height="29.86" rx="7.89"/><text class="cls-30" transform="translate(466.04 198.94)">06.22</text><text class="cls-30" transform="translate(571.43 267.26)">06.23</text><text class="cls-30" transform="translate(465.32 331.14)">06.23</text><text class="cls-30" transform="translate(571.43 395.34)">06.24</text><text class="cls-30" transform="translate(465.32 463.47)">06.24</text><text class="cls-30" transform="translate(571.43 522.16)">06.25</text><text class="cls-30" transform="translate(465.32 595.93)">06.26</text></svg>