<svg id="Layer_1" data-name="Layer 1" xmlns="http://www.w3.org/2000/svg" viewBox="0 0 111.69 111.7"><defs><style>.cls-1,.cls-5{fill:none;}.cls-1,.cls-3,.cls-4,.cls-5,.cls-6,.cls-8{stroke:#202123;}.cls-1,.cls-5,.cls-6{stroke-linecap:round;}.cls-1,.cls-6{stroke-linejoin:round;}.cls-1{stroke-width:2.3px;}.cls-2{fill:#f9f9f9;}.cls-3,.cls-6{fill:#f5c43c;}.cls-3,.cls-4,.cls-5,.cls-8{stroke-miterlimit:10;}.cls-3,.cls-4,.cls-5{stroke-width:2px;}.cls-4{fill:#fff;}.cls-7{fill:#202123;}.cls-8{fill:#64c3d9;}</style></defs><title>2_bell</title><path class="cls-1" d="M1543.8,384.33a54.79,54.79,0,0,1-65.13,73.17" transform="translate(-1437.2 -348.85)"/><path class="cls-1" d="M1453.68,366.74a54.75,54.75,0,0,1,73.22-5" transform="translate(-1437.2 -348.85)"/><path class="cls-1" d="M1445.26,431.48a57.57,57.57,0,0,1-3-6.41,54.52,54.52,0,0,1-.12-40.37" transform="translate(-1437.2 -348.85)"/><ellipse class="cls-2" cx="55.84" cy="55.85" rx="53.34" ry="53.76"/><circle class="cls-3" cx="56.73" cy="32.13" r="3.98"/><ellipse class="cls-4" cx="56.73" cy="75.29" rx="8.34" ry="9.86"/><path class="cls-3" d="M1497,426.23h16.71a3.22,3.22,0,0,0,2.78-4.85l-5-8.59a6.06,6.06,0,0,1-.82-3V398.12a14.53,14.53,0,0,0-1.56-6.6c-4.55-8.86-14.13-9-14.13-9h-2.26s-9.58.14-14.13,9a14.42,14.42,0,0,0-1.57,6.6v11.65a6,6,0,0,1-.82,3l-5,8.59a3.22,3.22,0,0,0,2.78,4.85H1497Z" transform="translate(-1437.2 -348.85)"/><path class="cls-5" d="M1475.29,386.77a19.25,19.25,0,0,0-6.42,22.79" transform="translate(-1437.2 -348.85)"/><path class="cls-5" d="M1471.37,379.58s-18.66,12.94-10,34.52" transform="translate(-1437.2 -348.85)"/><path class="cls-5" d="M1512.71,386.77a19.25,19.25,0,0,1,6.42,22.79" transform="translate(-1437.2 -348.85)"/><path class="cls-5" d="M1516.63,379.58s18.66,12.94,10,34.52" transform="translate(-1437.2 -348.85)"/><circle class="cls-6" cx="97.8" cy="24.65" r="2.81"/><path class="cls-7" d="M1461.75,439.75h-2.25V437.5a.5.5,0,0,0-1,0v2.25h-2.25a.5.5,0,0,0,0,1h2.25v2.75a.5.5,0,0,0,1,0v-2.75h2.25a.5.5,0,0,0,0-1Z" transform="translate(-1437.2 -348.85)"/><circle class="cls-8" cx="8.8" cy="25.65" r="3.28"/></svg>