<?xml version="1.0" encoding="utf-8"?>
<!-- Generator: Adobe Illustrator 25.4.0, SVG Export Plug-In . SVG Version: 6.00 Build 0)  -->
<svg version="1.1" id="레이어_1" xmlns="http://www.w3.org/2000/svg" xmlns:xlink="http://www.w3.org/1999/xlink" x="0px"
	 y="0px" viewBox="0 0 224 547" style="enable-background:new 0 0 224 547;" xml:space="preserve">
<style type="text/css">
	.st0{fill:#F9F9F9;stroke:#B4B3BC;stroke-width:2;stroke-miterlimit:10;}
	.st1{fill:#DEDEDE;}
	.st2{fill:#B3B5B7;}
	.st3{fill:none;stroke:#D3D3D3;stroke-linecap:round;stroke-linejoin:round;}
	.st4{fill:none;stroke:#64C3D9;stroke-miterlimit:10;}
	.st5{fill:#64C3D9;}
	.st6{fill:none;stroke:#5C4799;stroke-miterlimit:10;}
	.st7{fill:#5C4799;}
	.st8{fill:none;stroke:#F53B69;stroke-miterlimit:10;}
	.st9{fill:#F53B69;}
	.st10{fill:none;stroke:#89A6F5;stroke-miterlimit:10;}
	.st11{fill:#89A6F5;}
	.st12{fill:none;stroke:#F5C43C;stroke-miterlimit:10;}
	.st13{fill:#F5C43C;}
	.st14{fill:#FFFFFF;}
	.st15{font-family:'NotoSansCJKkr-Medium-KSCpc-EUC-H';}
	.st16{font-size:7.97px;}
</style>
<path class="st0" d="M5.8,2.42h213.26c1.62,0,2.94,1.32,2.94,2.94v535.9c0,1.62-1.32,2.94-2.94,2.94H5.8
	c-1.62,0-2.94-1.32-2.94-2.94V5.36C2.86,3.74,4.17,2.42,5.8,2.42z"/>
<path class="st1" d="M130.04,74.02h54.16c2.12,0,3.84,1.72,3.84,3.84v0.31c0,2.12-1.72,3.84-3.84,3.84h-54.16
	c-2.12,0-3.84-1.72-3.84-3.84v-0.31C126.2,75.74,127.91,74.02,130.04,74.02z"/>
<path class="st1" d="M127.93,84.66h38.46c0.96,0,1.73,0.77,1.73,1.73v0c0,0.96-0.77,1.73-1.73,1.73h-38.46
	c-0.96,0-1.73-0.77-1.73-1.73v0C126.2,85.43,126.97,84.66,127.93,84.66z"/>
<path class="st1" d="M127.93,348.69h38.46c0.96,0,1.73,0.77,1.73,1.73v0c0,0.96-0.77,1.73-1.73,1.73h-38.46
	c-0.96,0-1.73-0.77-1.73-1.73v0C126.2,349.46,126.97,348.69,127.93,348.69z"/>
<path class="st1" d="M127.93,354.1h23.45c0.96,0,1.73,0.77,1.73,1.73v0c0,0.96-0.77,1.73-1.73,1.73h-23.45
	c-0.96,0-1.73-0.77-1.73-1.73v0C126.2,354.87,126.97,354.1,127.93,354.1z"/>
<path class="st1" d="M127.93,359.51h14.12c0.96,0,1.73,0.77,1.73,1.73v0c0,0.96-0.77,1.73-1.73,1.73h-14.12
	c-0.96,0-1.73-0.77-1.73-1.73v0C126.2,360.28,126.97,359.51,127.93,359.51z"/>
<path class="st1" d="M130.04,206.55h54.16c2.12,0,3.84,1.72,3.84,3.84v0.31c0,2.12-1.72,3.84-3.84,3.84h-54.16
	c-2.12,0-3.84-1.72-3.84-3.84v-0.31C126.2,208.27,127.91,206.55,130.04,206.55z"/>
<path class="st1" d="M130.04,338.09h54.16c2.12,0,3.84,1.72,3.84,3.84v0.31c0,2.12-1.72,3.84-3.84,3.84h-54.16
	c-2.12,0-3.84-1.72-3.84-3.84v-0.31C126.2,339.81,127.91,338.09,130.04,338.09z"/>
<path class="st1" d="M127.93,483.45h14.12c0.96,0,1.73,0.77,1.73,1.73v0c0,0.96-0.77,1.73-1.73,1.73h-14.12
	c-0.96,0-1.73-0.77-1.73-1.73v0C126.2,484.22,126.97,483.45,127.93,483.45z"/>
<path class="st1" d="M130.04,470.77h54.16c2.12,0,3.84,1.72,3.84,3.84v0.31c0,2.12-1.72,3.84-3.84,3.84h-54.16
	c-2.12,0-3.84-1.72-3.84-3.84v-0.31C126.2,472.49,127.91,470.77,130.04,470.77z"/>
<path class="st1" d="M42.13,269.31h54.16c2.12,0,3.84,1.72,3.84,3.84v0.31c0,2.12-1.72,3.84-3.84,3.84H42.13
	c-2.12,0-3.84-1.72-3.84-3.84v-0.31C38.29,271.03,40,269.31,42.13,269.31z"/>
<path class="st1" d="M70.62,141.95h25.67c2.12,0,3.84,1.72,3.84,3.84v0.31c0,2.12-1.72,3.84-3.84,3.84H70.62
	c-2.12,0-3.84-1.72-3.84-3.84v-0.31C66.78,143.67,68.49,141.95,70.62,141.95z"/>
<path class="st1" d="M59.94,152.59H98.4c0.96,0,1.73,0.77,1.73,1.73v0c0,0.96-0.77,1.73-1.73,1.73H59.94
	c-0.96,0-1.73-0.77-1.73-1.73v0C58.21,153.36,58.98,152.59,59.94,152.59z"/>
<path class="st1" d="M76.23,158.63H98.4c0.96,0,1.73,0.77,1.73,1.73v0c0,0.96-0.77,1.73-1.73,1.73H76.23
	c-0.96,0-1.73-0.77-1.73-1.73v0C74.5,159.4,75.27,158.63,76.23,158.63z"/>
<path class="st1" d="M76.23,280.27H98.4c0.96,0,1.73,0.77,1.73,1.73v0c0,0.96-0.77,1.73-1.73,1.73H76.23
	c-0.96,0-1.73-0.77-1.73-1.73v0C74.5,281.04,75.27,280.27,76.23,280.27z"/>
<path class="st1" d="M42.13,396.3h54.16c2.12,0,3.84,1.72,3.84,3.84v0.31c0,2.12-1.72,3.84-3.84,3.84H42.13
	c-2.12,0-3.84-1.72-3.84-3.84v-0.31C38.29,398.02,40,396.3,42.13,396.3z"/>
<path class="st1" d="M76.23,407.26H98.4c0.96,0,1.73,0.77,1.73,1.73v0c0,0.96-0.77,1.73-1.73,1.73H76.23
	c-0.96,0-1.73-0.77-1.73-1.73v0C74.5,408.03,75.27,407.26,76.23,407.26z"/>
<path class="st1" d="M91.08,412.97h7.32c0.96,0,1.73,0.77,1.73,1.73v0c0,0.96-0.77,1.73-1.73,1.73h-7.32
	c-0.96,0-1.73-0.77-1.73-1.73v0C89.35,413.74,90.12,412.97,91.08,412.97z"/>
<path class="st2" d="M197.04,15.86v-3.54c-0.01-0.15,0.1-0.28,0.25-0.29c0.06,0,0.12,0.01,0.17,0.05l3,1.76l3.05,1.78
	c0.14,0.07,0.18,0.25,0.11,0.38c-0.03,0.05-0.06,0.08-0.11,0.11l-3,1.77l-3,1.77c-0.13,0.08-0.31,0.03-0.38-0.1
	c-0.03-0.04-0.04-0.1-0.04-0.15L197.04,15.86z"/>
<path class="st2" d="M20.23,9.66h59.4c3.44,0,6.23,2.79,6.23,6.23v0c0,3.44-2.79,6.23-6.23,6.23h-59.4c-3.44,0-6.23-2.79-6.23-6.23
	v0C14,12.45,16.78,9.66,20.23,9.66z"/>
<line class="st3" x1="8.75" y1="30.6" x2="215.85" y2="30.6"/>
<line class="st3" x1="112.06" y1="542.6" x2="112.06" y2="31.15"/>
<line class="st4" x1="74.5" y1="78.02" x2="112.06" y2="78.02"/>
<circle class="st5" cx="112.05" cy="78.01" r="3.37"/>
<path class="st5" d="M52.53,63.02h14.08c4.36,0,7.89,3.53,7.89,7.89v14.08c0,4.36-3.53,7.89-7.89,7.89H52.53
	c-4.36,0-7.89-3.53-7.89-7.89V70.91C44.64,66.55,48.17,63.02,52.53,63.02z"/>
<line class="st6" x1="149.99" y1="145.76" x2="112.43" y2="145.76"/>
<circle class="st7" cx="112.42" cy="145.74" r="3.37"/>
<path class="st7" d="M157.88,130.76h14.08c4.36,0,7.89,3.53,7.89,7.89v14.08c0,4.36-3.53,7.89-7.89,7.89h-14.08
	c-4.36,0-7.89-3.53-7.89-7.89v-14.08C149.99,134.29,153.52,130.76,157.88,130.76z"/>
<line class="st8" x1="149.99" y1="273.01" x2="112.43" y2="273.01"/>
<circle class="st9" cx="112.43" cy="272.99" r="3.37"/>
<path class="st9" d="M171.96,287.88h-14.08c-4.36,0-7.89-3.53-7.89-7.89v-14.08c0-4.36,3.53-7.89,7.89-7.89h14.08
	c4.36,0,7.89,3.53,7.89,7.89v14.08C179.85,284.35,176.31,287.88,171.96,287.88z"/>
<line class="st10" x1="149.99" y1="400.26" x2="112.43" y2="400.26"/>
<circle class="st11" cx="112.43" cy="400.24" r="3.37"/>
<path class="st11" d="M171.96,415.13h-14.08c-4.36,0-7.89-3.53-7.89-7.89v-14.08c0-4.36,3.53-7.89,7.89-7.89h14.08
	c4.36,0,7.89,3.53,7.89,7.89v14.08C179.85,411.6,176.31,415.13,171.96,415.13z"/>
<line class="st6" x1="74.5" y1="210.05" x2="112.06" y2="210.05"/>
<circle class="st7" cx="112.06" cy="210.05" r="3.37"/>
<path class="st7" d="M52.53,195.06h14.08c4.36,0,7.89,3.53,7.89,7.89v14.08c0,4.36-3.53,7.89-7.89,7.89H52.53
	c-4.36,0-7.89-3.53-7.89-7.89v-14.08C44.64,198.59,48.17,195.06,52.53,195.06z"/>
<line class="st8" x1="74.5" y1="342.09" x2="112.06" y2="342.09"/>
<circle class="st9" cx="112.05" cy="342.09" r="3.37"/>
<path class="st9" d="M52.53,327.09h14.08c4.36,0,7.89,3.53,7.89,7.89v14.08c0,4.36-3.53,7.89-7.89,7.89H52.53
	c-4.36,0-7.89-3.53-7.89-7.89v-14.08C44.64,330.62,48.17,327.09,52.53,327.09z"/>
<line class="st12" x1="74.5" y1="474.13" x2="112.06" y2="474.13"/>
<circle class="st13" cx="112.05" cy="474.13" r="3.37"/>
<path class="st13" d="M52.53,459.13h14.08c4.36,0,7.89,3.53,7.89,7.89v14.08c0,4.36-3.53,7.89-7.89,7.89H52.53
	c-4.36,0-7.89-3.53-7.89-7.89v-14.08C44.64,462.66,48.17,459.13,52.53,459.13z"/>
<text transform="matrix(1 0 0 1 49.9254 79.9603)" class="st14 st15 st16">06.22</text>
<text transform="matrix(1 0 0 1 155.3152 148.2803)" class="st14 st15 st16">06.23</text>
<text transform="matrix(1 0 0 1 49.2053 212.1603)" class="st14 st15 st16">06.23</text>
<text transform="matrix(1 0 0 1 155.3152 276.3603)" class="st14 st15 st16">06.24</text>
<text transform="matrix(1 0 0 1 49.2053 344.4903)" class="st14 st15 st16">06.24</text>
<text transform="matrix(1 0 0 1 155.3152 403.1803)" class="st14 st15 st16">06.25</text>
<text transform="matrix(1 0 0 1 49.2053 476.9503)" class="st14 st15 st16">06.26</text>
</svg>
