<?xml version="1.0" encoding="utf-8"?>
<!-- Generator: Adobe Illustrator 25.4.0, SVG Export Plug-In . SVG Version: 6.00 Build 0)  -->
<svg version="1.1" id="레이어_1" xmlns="http://www.w3.org/2000/svg" xmlns:xlink="http://www.w3.org/1999/xlink" x="0px"
	 y="0px" viewBox="0 0 404 548" style="enable-background:new 0 0 404 548;" xml:space="preserve">
<style type="text/css">
	.st0{fill:#F9F9F9;stroke:#B4B3BC;stroke-width:2;stroke-miterlimit:10;}
	.st1{fill:#EBF5F7;}
	.st2{fill:none;stroke:#B4B3BC;stroke-width:2;stroke-miterlimit:10;}
	.st3{fill:#B3B5B7;}
	.st4{fill:#DEDEDE;}
	.st5{fill:#64C3D9;}
	.st6{fill:#FFFFFF;}
	.st7{fill:none;stroke:#B3B5B7;stroke-linecap:round;stroke-linejoin:round;}
	.st8{fill:#5C4799;}
	.st9{font-family:'YDIYGO330';}
	.st10{font-size:10.06px;}
	.st11{fill:none;stroke:#D3D3D3;stroke-linecap:round;stroke-linejoin:round;}
	.st12{fill:none;stroke:#B4B3BC;stroke-width:1.5;stroke-miterlimit:10;}
	.st13{fill:#F9F9F9;stroke:#B3B5B7;stroke-linecap:round;stroke-linejoin:round;}
	.st14{fill:none;stroke:#B3B5B7;stroke-width:2;stroke-linecap:round;stroke-miterlimit:10;}
	.st15{fill:none;stroke:#F53B69;stroke-width:2;stroke-linecap:round;stroke-miterlimit:10;}
	.st16{fill:#8D929C;}
	.st17{fill:#F5C43C;}
</style>
<path class="st0" d="M5.23,2.51h190.32c1.62,0,2.94,1.32,2.94,2.94v165.6c0,1.62-1.32,2.94-2.94,2.94H5.23
	c-1.62,0-2.94-1.32-2.94-2.94V5.45C2.29,3.83,3.61,2.51,5.23,2.51z"/>
<path class="st0" d="M207.63,2.64h190.32c1.62,0,2.94,1.32,2.94,2.94v165.6c0,1.62-1.32,2.94-2.94,2.94H207.63
	c-1.62,0-2.94-1.32-2.94-2.94V5.58C204.69,3.96,206.01,2.64,207.63,2.64z"/>
<path class="st0" d="M5.23,370.9h190.32c1.62,0,2.94,1.32,2.94,2.94v167.52c0,1.62-1.32,2.94-2.94,2.94H5.23
	c-1.62,0-2.94-1.32-2.94-2.94V373.84C2.29,372.22,3.61,370.9,5.23,370.9z"/>
<path class="st0" d="M207.87,370.9h190.32c1.62,0,2.94,1.32,2.94,2.94v167.52c0,1.62-1.32,2.94-2.94,2.94H207.87
	c-1.62,0-2.94-1.32-2.94-2.94V373.84C204.93,372.22,206.25,370.9,207.87,370.9z"/>
<path class="st1" d="M5.23,181.66h392.95c1.62,0,2.94,1.32,2.94,2.94v178.07c0,1.62-1.32,2.94-2.94,2.94H5.23
	c-1.62,0-2.94-1.32-2.94-2.94V184.6C2.29,182.98,3.61,181.66,5.23,181.66z"/>
<path class="st2" d="M5.23,181.66h392.95c1.62,0,2.94,1.32,2.94,2.94v178.07c0,1.62-1.32,2.94-2.94,2.94H5.23
	c-1.62,0-2.94-1.32-2.94-2.94V184.6C2.29,182.98,3.61,181.66,5.23,181.66z"/>
<path class="st3" d="M32.74,10.35h59.4c3.44,0,6.23,2.79,6.23,6.23v0c0,3.44-2.79,6.23-6.23,6.23h-59.4c-3.44,0-6.23-2.79-6.23-6.23
	v0C26.51,13.14,29.3,10.35,32.74,10.35z"/>
<path class="st4" d="M47.35,44.4h124.58c2.12,0,3.84,1.72,3.84,3.84v0.31c0,2.12-1.72,3.84-3.84,3.84H47.35
	c-2.12,0-3.84-1.72-3.84-3.84v-0.31C43.51,46.12,45.23,44.4,47.35,44.4z"/>
<path class="st4" d="M19.32,413.95H143.9c2.12,0,3.84,1.72,3.84,3.84v0.31c0,2.12-1.72,3.84-3.84,3.84H19.32
	c-2.12,0-3.84-1.72-3.84-3.84v-0.31C15.48,415.67,17.2,413.95,19.32,413.95z"/>
<path class="st4" d="M219.69,413.95h146.14c2.12,0,3.84,1.72,3.84,3.84v0.31c0,2.12-1.72,3.84-3.84,3.84H219.69
	c-2.12,0-3.84-1.72-3.84-3.84v-0.31C215.85,415.67,217.57,413.95,219.69,413.95z"/>
<path class="st4" d="M219.69,448.89h153.33c2.12,0,3.84,1.72,3.84,3.84v0.31c0,2.12-1.72,3.84-3.84,3.84H219.69
	c-2.12,0-3.84-1.72-3.84-3.84v-0.31C215.85,450.61,217.57,448.89,219.69,448.89z"/>
<path class="st4" d="M219.69,481.88h124.58c2.12,0,3.84,1.72,3.84,3.84v0.31c0,2.12-1.72,3.84-3.84,3.84H219.69
	c-2.12,0-3.84-1.72-3.84-3.84v-0.31C215.85,483.6,217.57,481.88,219.69,481.88z"/>
<path class="st4" d="M219.69,514.69h158.43c2.12,0,3.84,1.72,3.84,3.84v0.31c0,2.12-1.72,3.84-3.84,3.84H219.69
	c-2.12,0-3.84-1.72-3.84-3.84v-0.31C215.85,516.41,217.57,514.69,219.69,514.69z"/>
<path class="st4" d="M158.95,415.97h30.6c1.09,0,1.97,0.88,1.97,1.97v0.01c0,1.09-0.88,1.97-1.97,1.97h-30.6
	c-1.09,0-1.97-0.88-1.97-1.97v-0.01C156.98,416.85,157.87,415.97,158.95,415.97z"/>
<path class="st4" d="M158.95,451.63h30.6c1.09,0,1.97,0.88,1.97,1.97v0.01c0,1.09-0.88,1.97-1.97,1.97h-30.6
	c-1.09,0-1.97-0.88-1.97-1.97v-0.01C156.98,452.51,157.87,451.63,158.95,451.63z"/>
<path class="st4" d="M158.95,483.9h30.6c1.09,0,1.97,0.88,1.97,1.97v0.01c0,1.09-0.88,1.97-1.97,1.97h-30.6
	c-1.09,0-1.97-0.88-1.97-1.97v-0.01C156.98,484.78,157.87,483.9,158.95,483.9z"/>
<path class="st4" d="M158.95,516.18h30.6c1.09,0,1.97,0.88,1.97,1.97v0.01c0,1.09-0.88,1.97-1.97,1.97h-30.6
	c-1.09,0-1.97-0.88-1.97-1.97v-0.01C156.98,517.06,157.87,516.18,158.95,516.18z"/>
<path class="st4" d="M19.32,449.61H143.9c2.12,0,3.84,1.72,3.84,3.84v0.31c0,2.12-1.72,3.84-3.84,3.84H19.32
	c-2.12,0-3.84-1.72-3.84-3.84v-0.31C15.48,451.33,17.2,449.61,19.32,449.61z"/>
<path class="st4" d="M19.32,481.88H143.9c2.12,0,3.84,1.72,3.84,3.84v0.31c0,2.12-1.72,3.84-3.84,3.84H19.32
	c-2.12,0-3.84-1.72-3.84-3.84v-0.31C15.48,483.6,17.2,481.88,19.32,481.88z"/>
<path class="st4" d="M19.32,514.15H143.9c2.12,0,3.84,1.72,3.84,3.84v0.31c0,2.12-1.72,3.84-3.84,3.84H19.32
	c-2.12,0-3.84-1.72-3.84-3.84v-0.31C15.48,515.87,17.2,514.15,19.32,514.15z"/>
<path class="st4" d="M219.69,44.4h93.87c2.12,0,3.84,1.72,3.84,3.84v0.31c0,2.12-1.72,3.84-3.84,3.84h-93.87
	c-2.12,0-3.84-1.72-3.84-3.84v-0.31C215.85,46.12,217.57,44.4,219.69,44.4z"/>
<path class="st4" d="M219.69,78.39h93.87c2.12,0,3.84,1.72,3.84,3.84v0.31c0,2.12-1.72,3.84-3.84,3.84h-93.87
	c-2.12,0-3.84-1.72-3.84-3.84v-0.31C215.85,80.11,217.57,78.39,219.69,78.39z"/>
<path class="st4" d="M219.69,112.39h93.87c2.12,0,3.84,1.72,3.84,3.84v0.31c0,2.12-1.72,3.84-3.84,3.84h-93.87
	c-2.12,0-3.84-1.72-3.84-3.84v-0.31C215.85,114.11,217.57,112.39,219.69,112.39z"/>
<path class="st4" d="M219.69,146.38h93.87c2.12,0,3.84,1.72,3.84,3.84v0.31c0,2.12-1.72,3.84-3.84,3.84h-93.87
	c-2.12,0-3.84-1.72-3.84-3.84v-0.31C215.85,148.1,217.57,146.38,219.69,146.38z"/>
<path class="st4" d="M47.35,78.39h124.58c2.12,0,3.84,1.72,3.84,3.84v0.31c0,2.12-1.72,3.84-3.84,3.84H47.35
	c-2.12,0-3.84-1.72-3.84-3.84v-0.31C43.51,80.11,45.23,78.39,47.35,78.39z"/>
<path class="st4" d="M47.35,112.39h124.58c2.12,0,3.84,1.72,3.84,3.84v0.31c0,2.12-1.72,3.84-3.84,3.84H47.35
	c-2.12,0-3.84-1.72-3.84-3.84v-0.31C43.51,114.11,45.23,112.39,47.35,112.39z"/>
<path class="st4" d="M47.35,146.38h124.58c2.12,0,3.84,1.72,3.84,3.84v0.31c0,2.12-1.72,3.84-3.84,3.84H47.35
	c-2.12,0-3.84-1.72-3.84-3.84v-0.31C43.51,148.1,45.23,146.38,47.35,146.38z"/>
<path class="st5" d="M17.45,41.06h9.23c1.5,0,2.72,1.22,2.72,2.72v9.23c0,1.5-1.22,2.72-2.72,2.72h-9.23c-1.5,0-2.72-1.22-2.72-2.72
	v-9.23C14.73,42.28,15.95,41.06,17.45,41.06z"/>
<path class="st6" d="M22.4,52.15v-5.38h-1.6v-0.75c0.23-0.01,0.46-0.04,0.68-0.1c0.21-0.07,0.41-0.17,0.6-0.29
	c0.14-0.12,0.27-0.26,0.36-0.42c0.1-0.18,0.16-0.38,0.17-0.58h0.71v7.52L22.4,52.15z"/>
<path class="st3" d="M178.64,16.55v-3.54c0-0.15,0.12-0.28,0.28-0.28c0.05,0,0.11,0.01,0.15,0.04l3,1.76l3.05,1.78
	c0.14,0.07,0.18,0.25,0.11,0.38c-0.03,0.05-0.06,0.08-0.11,0.11l-3,1.77l-3,1.77c-0.14,0.08-0.32,0.03-0.39-0.11
	c-0.02-0.04-0.04-0.09-0.04-0.14L178.64,16.55z"/>
<path class="st3" d="M178.64,385.25v-3.54c0-0.15,0.12-0.28,0.28-0.28c0.05,0,0.11,0.01,0.15,0.04l3,1.76l3.05,1.78
	c0.14,0.07,0.18,0.25,0.11,0.38c-0.03,0.05-0.06,0.08-0.11,0.11l-3,1.77l-3,1.77c-0.14,0.08-0.32,0.03-0.39-0.11
	c-0.02-0.04-0.04-0.09-0.04-0.14L178.64,385.25z"/>
<path class="st3" d="M382.1,385.25v-3.54c0-0.15,0.12-0.28,0.28-0.28c0.05,0,0.11,0.01,0.15,0.04l3,1.76l3.05,1.78
	c0.14,0.07,0.18,0.25,0.11,0.38c-0.03,0.05-0.06,0.08-0.11,0.11l-3,1.77l-3,1.77c-0.14,0.08-0.32,0.03-0.39-0.11
	c-0.02-0.04-0.04-0.09-0.04-0.14L382.1,385.25z"/>
<circle class="st7" cx="17.2" cy="13.72" r="3"/>
<path class="st7" d="M17.36,16.71L17.36,16.71c2.81,0,5.09,2.28,5.09,5.09v0.33l0,0H11.94l0,0l0,0
	C11.94,19.14,14.37,16.71,17.36,16.71z"/>
<path class="st7" d="M15.73,16.72l1.47,3c0,0,1.54-3,1.56-3"/>
<path class="st3" d="M32.74,378.83h59.4c3.44,0,6.23,2.79,6.23,6.23v0c0,3.44-2.79,6.23-6.23,6.23h-59.4
	c-3.44,0-6.23-2.79-6.23-6.23v0C26.51,381.62,29.3,378.83,32.74,378.83z"/>
<path class="st3" d="M236.35,378.83h59.4c3.44,0,6.23,2.79,6.23,6.23v0c0,3.44-2.79,6.23-6.23,6.23h-59.4
	c-3.44,0-6.23-2.79-6.23-6.23v0C230.12,381.62,232.91,378.83,236.35,378.83z"/>
<path class="st3" d="M236.68,10.35h59.4c3.44,0,6.23,2.79,6.23,6.23v0c0,3.44-2.79,6.23-6.23,6.23h-59.4
	c-3.44,0-6.23-2.79-6.23-6.23v0C230.45,13.14,233.24,10.35,236.68,10.35z"/>
<path class="st8" d="M17.21,75.05h9.23c1.5,0,2.72,1.22,2.72,2.72V87c0,1.5-1.22,2.72-2.72,2.72h-9.23c-1.5,0-2.72-1.22-2.72-2.72
	v-9.23C14.49,76.27,15.71,75.05,17.21,75.05z"/>
<text transform="matrix(1 0 0 1 18.9947 85.0021)" class="st6 st9 st10">2</text>
<path class="st5" d="M17.21,109.05h9.23c1.5,0,2.72,1.22,2.72,2.72V121c0,1.5-1.22,2.72-2.72,2.72h-9.23c-1.5,0-2.72-1.22-2.72-2.72
	v-9.23C14.49,110.27,15.71,109.05,17.21,109.05z"/>
<text transform="matrix(1 0 0 1 18.9947 118.9921)" class="st6 st9 st10">3</text>
<path class="st8" d="M17.21,143.05h9.23c1.5,0,2.72,1.22,2.72,2.72V155c0,1.5-1.22,2.72-2.72,2.72h-9.23c-1.5,0-2.72-1.22-2.72-2.72
	v-9.23C14.49,144.27,15.71,143.05,17.21,143.05z"/>
<text transform="matrix(1 0 0 1 18.9947 152.9921)" class="st6 st9 st10">4</text>
<line class="st11" x1="8.79" y1="31.29" x2="190.8" y2="31.29"/>
<line class="st11" x1="8.79" y1="65.39" x2="190.8" y2="65.39"/>
<line class="st11" x1="8.79" y1="99.49" x2="190.8" y2="99.49"/>
<line class="st11" x1="8.79" y1="133.58" x2="190.8" y2="133.58"/>
<line class="st12" x1="9.51" y1="397.15" x2="191.52" y2="397.15"/>
<line class="st11" x1="9.51" y1="431.25" x2="191.52" y2="431.25"/>
<line class="st11" x1="9.51" y1="465.35" x2="191.52" y2="465.35"/>
<line class="st11" x1="9.51" y1="499.44" x2="191.52" y2="499.44"/>
<line class="st12" x1="211.79" y1="397.15" x2="393.79" y2="397.15"/>
<line class="st11" x1="211.79" y1="431.25" x2="393.79" y2="431.25"/>
<line class="st11" x1="211.79" y1="465.35" x2="393.79" y2="465.35"/>
<line class="st11" x1="211.79" y1="499.44" x2="393.79" y2="499.44"/>
<line class="st11" x1="211.3" y1="31.29" x2="393.31" y2="31.29"/>
<line class="st11" x1="211.3" y1="65.39" x2="393.31" y2="65.39"/>
<line class="st11" x1="211.3" y1="99.49" x2="393.31" y2="99.49"/>
<line class="st11" x1="211.3" y1="133.58" x2="393.31" y2="133.58"/>
<path class="st13" d="M225.68,19.54v1.13c0,0.7-0.57,1.27-1.27,1.27h-7.23c-0.7,0-1.27-0.57-1.27-1.27v-1.13
	c0-0.7,0.57-1.27,1.27-1.27h7.23C225.12,18.27,225.68,18.84,225.68,19.54z"/>
<path class="st13" d="M222.46,13.47l0.49,0.39c0.66,0.52,0.77,1.47,0.25,2.13l-3.77,4.79c-0.52,0.66-1.47,0.77-2.13,0.25l-0.49-0.39
	c-0.66-0.52-0.77-1.47-0.25-2.13l3.77-4.79C220.84,13.07,221.8,12.95,222.46,13.47z"/>
<path class="st13" d="M216.99,11.49h1.49c0.6,0,1.09,0.49,1.09,1.09v8.28c0,0.6-0.49,1.09-1.09,1.09h-1.49
	c-0.6,0-1.09-0.49-1.09-1.09v-8.28C215.9,11.98,216.39,11.49,216.99,11.49z"/>
<line class="st7" x1="215.9" y1="14.32" x2="219.57" y2="14.32"/>
<line class="st7" x1="215.9" y1="17.24" x2="219.57" y2="17.24"/>
<line class="st7" x1="215.9" y1="20.17" x2="219.57" y2="20.17"/>
<path class="st14" d="M379.46,51.43c0,1.6-1.29,2.89-2.89,2.89l0,0h-5.49c-1.6,0-2.89-1.29-2.89-2.89v0v-5.49
	c0-1.6,1.29-2.89,2.89-2.89l0,0h5.49c0.49,0,0.96,0.12,1.39,0.36"/>
<polyline class="st15" points="382.1,39.25 374,50.84 370.9,46.59 "/>
<path class="st14" d="M379.46,87.03c0,1.6-1.29,2.89-2.89,2.89l0,0h-5.49c-1.6,0-2.89-1.29-2.89-2.89v0v-5.48
	c0-1.6,1.29-2.89,2.89-2.89l0,0h5.49c0.49,0,0.96,0.12,1.39,0.36"/>
<polyline class="st15" points="382.1,74.85 374,86.44 370.9,82.19 "/>
<path class="st14" d="M379.46,119.55c0,1.6-1.29,2.89-2.89,2.89l0,0h-5.49c-1.6,0-2.89-1.29-2.89-2.89v0v-5.49
	c0-1.6,1.29-2.89,2.89-2.89l0,0h5.49c0.49,0,0.96,0.12,1.39,0.36"/>
<polyline class="st15" points="382.1,107.41 374,119 370.9,114.75 "/>
<path class="st14" d="M379.46,153.2c0,1.6-1.29,2.89-2.89,2.89l0,0h-5.49c-1.6,0-2.89-1.29-2.89-2.89v0v-5.49
	c0-1.6,1.29-2.89,2.89-2.89l0,0h5.49c0.48,0,0.96,0.12,1.39,0.35"/>
<polyline class="st15" points="382.1,141.02 374,152.61 370.9,148.35 "/>
<path class="st0" d="M67.48,199.4h310.16c1.62,0,2.94,1.32,2.94,2.94v19.6c0,1.62-1.32,2.94-2.94,2.94H67.48
	c-1.62,0-2.94-1.32-2.94-2.94v-19.6C64.54,200.72,65.86,199.4,67.48,199.4z"/>
<path class="st16" d="M67.48,199.4h23.31c1.62,0,2.94,1.32,2.94,2.94v19.6c0,1.62-1.32,2.94-2.94,2.94H67.48
	c-1.62,0-2.94-1.32-2.94-2.94v-19.6C64.54,200.72,65.86,199.4,67.48,199.4z"/>
<path class="st17" d="M78.81,206.67l1,3.06c0.08,0.29,0.35,0.48,0.65,0.48h3.23c0.38,0.01,0.68,0.33,0.67,0.71
	c-0.01,0.21-0.11,0.41-0.27,0.53l-2.61,1.89c-0.24,0.18-0.34,0.49-0.25,0.77l1,3.07c0.11,0.37-0.1,0.75-0.46,0.86
	c-0.2,0.06-0.42,0.02-0.6-0.1l-2.61-1.89c-0.24-0.18-0.56-0.18-0.8,0l-2.61,1.89c-0.31,0.22-0.74,0.15-0.96-0.16
	c-0.12-0.17-0.16-0.39-0.1-0.6l1-3.07c0.09-0.28-0.01-0.59-0.25-0.77l-2.61-1.89c-0.3-0.23-0.36-0.66-0.13-0.97
	c0.13-0.17,0.33-0.27,0.54-0.27h3.25c0.3,0,0.57-0.19,0.65-0.48l1-3.06c0.13-0.35,0.53-0.53,0.88-0.39
	C78.6,206.35,78.75,206.49,78.81,206.67z"/>
<path class="st0" d="M67.48,239.5h310.16c1.62,0,2.94,1.32,2.94,2.94v19.6c0,1.62-1.32,2.94-2.94,2.94H67.48
	c-1.62,0-2.94-1.32-2.94-2.94v-19.6C64.54,240.82,65.86,239.5,67.48,239.5z"/>
<path class="st16" d="M67.48,239.5h23.31c1.62,0,2.94,1.32,2.94,2.94v19.6c0,1.62-1.32,2.94-2.94,2.94H67.48
	c-1.62,0-2.94-1.32-2.94-2.94v-19.6C64.54,240.82,65.86,239.5,67.48,239.5z"/>
<path class="st17" d="M78.81,246.77l1,3.07c0.09,0.28,0.35,0.47,0.65,0.47h3.23c0.38,0.01,0.68,0.33,0.67,0.71
	c-0.01,0.21-0.11,0.41-0.27,0.53l-2.61,1.89c-0.24,0.18-0.34,0.49-0.25,0.77l1,3.07c0.11,0.37-0.1,0.75-0.46,0.86
	c-0.2,0.06-0.42,0.02-0.6-0.1l-2.61-1.89c-0.24-0.18-0.56-0.18-0.8,0l-2.61,1.89c-0.31,0.22-0.74,0.15-0.96-0.16
	c-0.12-0.17-0.16-0.39-0.1-0.6l1-3.07c0.09-0.28-0.01-0.59-0.25-0.77l-2.61-1.89c-0.3-0.23-0.36-0.66-0.13-0.97
	c0.13-0.17,0.33-0.27,0.54-0.27h3.25c0.3,0,0.56-0.19,0.65-0.47l1-3.07c0.13-0.35,0.53-0.53,0.88-0.39
	C78.6,246.45,78.75,246.59,78.81,246.77z"/>
<path class="st0" d="M67.48,279.6h310.16c1.62,0,2.94,1.32,2.94,2.94v19.6c0,1.62-1.32,2.94-2.94,2.94H67.48
	c-1.62,0-2.94-1.32-2.94-2.94v-19.6C64.54,280.92,65.86,279.6,67.48,279.6z"/>
<path class="st16" d="M67.48,279.6h23.31c1.62,0,2.94,1.32,2.94,2.94v19.6c0,1.62-1.32,2.94-2.94,2.94H67.48
	c-1.62,0-2.94-1.32-2.94-2.94v-19.6C64.54,280.92,65.86,279.6,67.48,279.6z"/>
<path class="st17" d="M78.81,286.87l1,3.07c0.09,0.28,0.35,0.47,0.65,0.47h3.23c0.38,0.01,0.68,0.33,0.67,0.71
	c-0.01,0.21-0.11,0.41-0.27,0.53l-2.61,1.9c-0.24,0.17-0.34,0.48-0.25,0.76l1,3.07c0.12,0.36-0.08,0.75-0.45,0.87
	c-0.21,0.07-0.44,0.03-0.61-0.1l-2.61-1.9c-0.24-0.17-0.56-0.17-0.8,0l-2.61,1.9c-0.31,0.22-0.74,0.15-0.96-0.16
	c-0.13-0.18-0.16-0.4-0.1-0.61l1-3.07c0.1-0.27,0.02-0.57-0.2-0.76l-2.61-1.9c-0.3-0.23-0.36-0.66-0.13-0.97
	c0.13-0.17,0.33-0.27,0.54-0.27h3.2c0.3,0,0.56-0.19,0.65-0.47l1-3.07c0.13-0.35,0.53-0.53,0.88-0.39
	C78.6,286.55,78.75,286.69,78.81,286.87z"/>
<path class="st0" d="M67.48,319.71h310.16c1.62,0,2.94,1.32,2.94,2.94v19.6c0,1.62-1.32,2.94-2.94,2.94H67.48
	c-1.62,0-2.94-1.32-2.94-2.94v-19.6C64.54,321.03,65.86,319.71,67.48,319.71z"/>
<path class="st16" d="M67.48,319.71h23.31c1.62,0,2.94,1.32,2.94,2.94v19.6c0,1.62-1.32,2.94-2.94,2.94H67.48
	c-1.62,0-2.94-1.32-2.94-2.94v-19.6C64.54,321.03,65.86,319.71,67.48,319.71z"/>
<path class="st17" d="M78.81,326.97l1,3.07c0.09,0.28,0.35,0.48,0.65,0.48h3.23c0.38,0,0.68,0.3,0.68,0.68
	c0,0.22-0.1,0.42-0.28,0.55l-2.61,1.9c-0.24,0.18-0.34,0.49-0.25,0.77l1,3.06c0.12,0.36-0.08,0.75-0.45,0.87
	c-0.21,0.07-0.44,0.03-0.61-0.1l-2.61-1.9c-0.24-0.17-0.56-0.17-0.8,0l-2.61,1.9c-0.31,0.22-0.74,0.15-0.96-0.16
	c-0.13-0.18-0.16-0.4-0.1-0.61l1-3.06c0.09-0.28-0.01-0.59-0.25-0.77l-2.61-1.9c-0.3-0.22-0.37-0.65-0.15-0.95
	c0.13-0.18,0.34-0.28,0.56-0.28h3.25c0.3,0,0.56-0.2,0.65-0.48l1-3.07c0.13-0.35,0.53-0.53,0.88-0.39
	C78.6,326.65,78.75,326.79,78.81,326.97z"/>
<path class="st3" d="M364.89,212.13v-3.58c0-0.15,0.12-0.28,0.28-0.28c0.05,0,0.11,0.01,0.15,0.04l3,1.77l3.05,1.77
	c0.14,0.07,0.18,0.25,0.11,0.38c-0.03,0.05-0.06,0.08-0.11,0.11l-3,1.77l-3,1.77c-0.13,0.08-0.3,0.04-0.39-0.09
	c-0.03-0.05-0.04-0.1-0.04-0.15L364.89,212.13z"/>
<path class="st3" d="M364.89,252.24v-3.54c0-0.16,0.13-0.29,0.29-0.29c0.05,0,0.09,0.01,0.14,0.04l3,1.77l3.05,1.77
	c0.14,0.07,0.18,0.25,0.11,0.38c-0.03,0.05-0.06,0.08-0.11,0.11l-3,1.77l-3,1.77c-0.13,0.08-0.3,0.04-0.39-0.09
	c-0.03-0.05-0.04-0.1-0.04-0.15L364.89,252.24z"/>
<path class="st3" d="M364.89,292.34v-3.54c0-0.16,0.13-0.29,0.29-0.29c0.05,0,0.09,0.01,0.14,0.04l3,1.77l3.05,1.77
	c0.14,0.08,0.18,0.26,0.1,0.4c-0.03,0.04-0.06,0.08-0.1,0.1l-3,1.77l-3,1.77c-0.14,0.08-0.32,0.03-0.39-0.11
	c-0.02-0.04-0.04-0.09-0.04-0.14L364.89,292.34z"/>
<path class="st3" d="M364.89,333.55v-3.54c0-0.16,0.13-0.29,0.29-0.29c0.05,0,0.09,0.01,0.14,0.04l3,1.77l3.05,1.77
	c0.14,0.08,0.18,0.26,0.1,0.4c-0.03,0.04-0.06,0.08-0.1,0.1l-3,1.77l-3,1.77c-0.14,0.08-0.32,0.03-0.39-0.11
	c-0.02-0.04-0.04-0.09-0.04-0.14L364.89,333.55z"/>
<path class="st4" d="M113.48,208.14h193.2c2.12,0,3.84,1.72,3.84,3.84v0.31c0,2.12-1.72,3.84-3.84,3.84h-193.2
	c-2.12,0-3.84-1.72-3.84-3.84v-0.31C109.64,209.86,111.36,208.14,113.48,208.14z"/>
<path class="st4" d="M113.48,248.24h103.98c2.12,0,3.84,1.72,3.84,3.84v0.31c0,2.12-1.72,3.84-3.84,3.84H113.48
	c-2.12,0-3.84-1.72-3.84-3.84v-0.31C109.64,249.96,111.36,248.24,113.48,248.24z"/>
<path class="st4" d="M113.48,288.8H280.4c2.12,0,3.84,1.72,3.84,3.84v0.31c0,2.12-1.72,3.84-3.84,3.84H113.48
	c-2.12,0-3.84-1.72-3.84-3.84v-0.31C109.64,290.52,111.36,288.8,113.48,288.8z"/>
<path class="st4" d="M113.48,328.45h136.26c2.12,0,3.84,1.72,3.84,3.84v0.31c0,2.12-1.72,3.84-3.84,3.84H113.48
	c-2.12,0-3.84-1.72-3.84-3.84v-0.31C109.64,330.17,111.36,328.45,113.48,328.45z"/>
<line class="st7" x1="14.09" y1="382.46" x2="20.49" y2="382.46"/>
<line class="st7" x1="14.09" y1="385.06" x2="20.49" y2="385.06"/>
<line class="st7" x1="14.09" y1="387.66" x2="20.49" y2="387.66"/>
<line class="st7" x1="11.94" y1="382.46" x2="12.75" y2="382.46"/>
<line class="st7" x1="11.94" y1="385.06" x2="12.75" y2="385.06"/>
<line class="st7" x1="11.94" y1="387.66" x2="12.75" y2="387.66"/>
<path class="st7" d="M215.43,379.83h7.46c1-0.07,1.86,0.68,1.94,1.67c0,0.05,0.01,0.11,0,0.17v4.31c-0.04,1.05-0.86,1.91-1.91,2
	v2.69l-2.61-2.51h-4.89c-1.13-0.1-2-1.05-2-2.19v-4.31c0.04-1.05,0.92-1.87,1.97-1.83C215.41,379.83,215.42,379.83,215.43,379.83z"
	/>
<line class="st7" x1="221.27" y1="382.63" x2="216.96" y2="382.63"/>
<line class="st7" x1="221.27" y1="384.64" x2="216.96" y2="384.64"/>
</svg>
