<?xml version="1.0" encoding="utf-8"?>
<!-- Generator: Adobe Illustrator 25.4.0, SVG Export Plug-In . SVG Version: 6.00 Build 0)  -->
<svg version="1.1" id="Layer_1" xmlns="http://www.w3.org/2000/svg" xmlns:xlink="http://www.w3.org/1999/xlink" x="0px" y="0px"
	 viewBox="0 0 73.1 60.1" style="enable-background:new 0 0 73.1 60.1;" xml:space="preserve">
<style type="text/css">
	.st0{fill:#F5C43C;stroke:#202123;stroke-width:2;stroke-miterlimit:10;}
	.st1{fill:#FFFFFF;stroke:#202123;stroke-width:2;stroke-miterlimit:10;}
	.st2{fill:none;stroke:#202123;stroke-width:2;stroke-linecap:round;stroke-miterlimit:10;}
</style>
<circle class="st0" cx="36.4" cy="6" r="4"/>
<ellipse class="st1" cx="36.4" cy="49.2" rx="8.3" ry="9.9"/>
<path class="st0" d="M39.5,51.3h16.7c1.8,0,3.2-1.4,3.2-3.2c0-0.6-0.2-1.1-0.4-1.6l-5-8.6c-0.5-0.9-0.8-1.9-0.8-3V23.2
	c0-2.3-0.5-4.6-1.6-6.6c-4.6-8.9-14.1-9-14.1-9h-2.3c0,0-9.6,0.1-14.1,9c-1,2-1.6,4.3-1.6,6.6v11.6c0,1.1-0.3,2.1-0.8,3l-5,8.6
	c-0.9,1.5-0.4,3.5,1.1,4.4c0.5,0.3,1.1,0.4,1.6,0.4L39.5,51.3L39.5,51.3z"/>
<path class="st2" d="M17.7,11.8c-7.1,5.2-9.8,14.6-6.4,22.8"/>
<path class="st2" d="M13.8,4.6c0,0-18.7,12.9-10,34.5"/>
<path class="st2" d="M55.2,11.8c7.1,5.2,9.8,14.6,6.4,22.8"/>
<path class="st2" d="M59.1,4.6c0,0,18.7,12.9,10,34.5"/>
</svg>
