<svg id="Layer_1" data-name="Layer 1" xmlns="http://www.w3.org/2000/svg" viewBox="0 0 594.64 472.72"><defs><style>.cls-1{fill:#fff;}.cls-2{fill:#64c3d9;}.cls-13,.cls-3,.cls-6,.cls-7{fill:none;}.cls-16,.cls-3,.cls-6{stroke:#202123;}.cls-12,.cls-13,.cls-14,.cls-3,.cls-6,.cls-7{stroke-linecap:round;stroke-linejoin:round;}.cls-15,.cls-3{stroke-width:2px;}.cls-4{font-size:19px;fill:#202123;font-family:NotoSansCJKkr-Bold-KSCpc-EUC-H, Noto Sans CJK KR;}.cls-12,.cls-14,.cls-15,.cls-5{fill:#f9f9f9;}.cls-6{stroke-width:1.5px;}.cls-14,.cls-7{stroke:#d3d3d3;}.cls-8{fill:#999;}.cls-9{fill:#b3b5b7;}.cls-10{fill:#bfbfbf;}.cls-11{fill:#ddd;}.cls-12,.cls-13{stroke:#565656;}.cls-15{stroke:#000;}.cls-15,.cls-16{stroke-miterlimit:10;}.cls-16{fill:#f53b69;stroke-width:1.2px;}</style></defs><title>2_timeline</title><rect class="cls-1" x="100.01" y="1" width="493.63" height="470.72" rx="9.21"/><path class="cls-2" d="M1531.18,349.28h-494V308.61a10.33,10.33,0,0,1,10.34-10.33h473.33a10.32,10.32,0,0,1,10.33,10.33Z" transform="translate(-937.04 -297.13)"/><rect class="cls-3" x="100.01" y="1" width="493.63" height="470.72" rx="9.69"/><text class="cls-4" transform="translate(312.12 37.36)">타임라인</text><rect class="cls-5" x="118.7" y="71.02" width="457.09" height="81.03" rx="2.94"/><rect class="cls-6" x="118.7" y="71.02" width="457.09" height="81.03" rx="2.94"/><rect class="cls-5" x="117.19" y="171.33" width="457.09" height="81.03" rx="2.94"/><rect class="cls-7" x="117.19" y="171.33" width="457.09" height="81.03" rx="2.94"/><rect class="cls-5" x="117.02" y="269.98" width="457.09" height="81.03" rx="2.94"/><rect class="cls-7" x="117.02" y="269.98" width="457.09" height="81.03" rx="2.94"/><rect class="cls-5" x="116.84" y="368.62" width="457.09" height="81.03" rx="2.94"/><rect class="cls-7" x="116.84" y="368.62" width="457.09" height="81.03" rx="2.94"/><rect class="cls-8" x="127.52" y="82.36" width="114.86" height="12.46" rx="6.23"/><rect class="cls-9" x="127.52" y="181.36" width="114.86" height="12.46" rx="6.23"/><rect class="cls-9" x="127.52" y="279.36" width="291.86" height="12.46" rx="6.23"/><rect class="cls-9" x="127.52" y="378.36" width="182.86" height="12.46" rx="6.23"/><rect class="cls-10" x="133.52" y="99.72" width="41.94" height="9.09" rx="4.55"/><rect class="cls-11" x="133.52" y="198.72" width="209.53" height="5.44" rx="1.69"/><rect class="cls-11" x="133.52" y="209.5" width="185.58" height="5.44" rx="1.86"/><rect class="cls-11" x="133.52" y="220.27" width="144.87" height="5.44" rx="1.69"/><rect class="cls-11" x="133.52" y="297.72" width="209.53" height="5.44" rx="1.69"/><rect class="cls-11" x="133.52" y="308.5" width="261.58" height="5.44" rx="1.86"/><path class="cls-12" d="M1081.76,435.24a12.39,12.39,0,0,1-8.27-2.94,2.94,2.94,0,0,0-2.93,2.94,2.87,2.87,0,0,0,.17,1,3,3,0,0,0,.54.94,3.34,3.34,0,0,0,.33.32l4.47,4.44a.15.15,0,0,0,.2,0l4.64-4.6h0a2.92,2.92,0,0,0,.68-1.07A3,3,0,0,0,1081.76,435.24Z" transform="translate(-937.04 -297.13)"/><polyline class="cls-13" points="162.81 138.5 167.26 145.17 176.15 135.17"/><path class="cls-13" d="M1133.2,432.3h7.47a1.81,1.81,0,0,1,1.94,1.85v4.31a2.09,2.09,0,0,1-1.91,2v2.68l-2.61-2.5h-4.89a2.2,2.2,0,0,1-2-2.19v-4.31A1.9,1.9,0,0,1,1133.2,432.3Z" transform="translate(-937.04 -297.13)"/><path class="cls-14" d="M1081.76,533.24a12.39,12.39,0,0,1-8.27-2.94,2.94,2.94,0,0,0-2.93,2.94,2.87,2.87,0,0,0,.17,1,3,3,0,0,0,.54.94,3.34,3.34,0,0,0,.33.32l4.47,4.44a.15.15,0,0,0,.2,0l4.64-4.6h0a2.92,2.92,0,0,0,.68-1.07A3,3,0,0,0,1081.76,533.24Z" transform="translate(-937.04 -297.13)"/><polyline class="cls-7" points="162.81 236.5 167.26 243.17 176.15 233.17"/><path class="cls-7" d="M1133.2,530.3h7.47a1.81,1.81,0,0,1,1.94,1.85v4.31a2.09,2.09,0,0,1-1.91,2v2.68l-2.61-2.5h-4.89a2.2,2.2,0,0,1-2-2.19v-4.31A1.9,1.9,0,0,1,1133.2,530.3Z" transform="translate(-937.04 -297.13)"/><path class="cls-14" d="M1081.76,632.24a12.39,12.39,0,0,1-8.27-2.94,2.94,2.94,0,0,0-2.93,2.94,2.87,2.87,0,0,0,.17,1,3,3,0,0,0,.54.94,3.34,3.34,0,0,0,.33.32l4.47,4.44a.15.15,0,0,0,.2,0l4.64-4.6h0a2.92,2.92,0,0,0,.68-1.07A3,3,0,0,0,1081.76,632.24Z" transform="translate(-937.04 -297.13)"/><polyline class="cls-7" points="162.81 335.5 167.26 342.17 176.15 332.17"/><path class="cls-7" d="M1133.2,629.3h7.47a1.81,1.81,0,0,1,1.94,1.85v4.31a2.09,2.09,0,0,1-1.91,2v2.68l-2.61-2.5h-4.89a2.2,2.2,0,0,1-2-2.19v-4.31A1.9,1.9,0,0,1,1133.2,629.3Z" transform="translate(-937.04 -297.13)"/><path class="cls-14" d="M1081.76,731.24a12.39,12.39,0,0,1-8.27-2.94,2.94,2.94,0,0,0-2.93,2.94,2.87,2.87,0,0,0,.17,1,3,3,0,0,0,.54.94,3.34,3.34,0,0,0,.33.32l4.47,4.44a.14.14,0,0,0,.2,0l4.64-4.6h0a2.92,2.92,0,0,0,.68-1.07A3,3,0,0,0,1081.76,731.24Z" transform="translate(-937.04 -297.13)"/><polyline class="cls-7" points="162.81 434.5 167.26 441.17 176.15 431.17"/><path class="cls-7" d="M1133.2,728.3h7.47a1.81,1.81,0,0,1,1.94,1.85v4.31a2.09,2.09,0,0,1-1.91,2v2.68l-2.61-2.5h-4.89a2.2,2.2,0,0,1-2-2.19v-4.31A1.9,1.9,0,0,1,1133.2,728.3Z" transform="translate(-937.04 -297.13)"/><path class="cls-15" d="M1011.05,538.59l-13.81-8a2.29,2.29,0,0,0-3.42,2v6.3a1.63,1.63,0,0,1-1.64,1.64H940.67a2.63,2.63,0,0,0-2.63,2.63v10.5a2.62,2.62,0,0,0,2.63,2.62h51.51a1.64,1.64,0,0,1,1.64,1.64v6.42a2.28,2.28,0,0,0,3.42,2L1011,558.4l13.79-7.93a2.28,2.28,0,0,0,0-4Z" transform="translate(-937.04 -297.13)"/><rect class="cls-16" x="109.59" y="66.92" width="14.37" height="14.37" rx="2.72"/><path d="M1050.16,367h2.06l2.39,3.95,1.12,2h.06a26.12,26.12,0,0,1-.25-3.17V367h1.93v8.47h-2.06l-2.39-4-1.1-2h-.07c.1.95.24,2.14.24,3.17v2.8h-1.93Z" transform="translate(-937.04 -297.13)"/></svg>