<svg id="Layer_1" data-name="Layer 1" xmlns="http://www.w3.org/2000/svg" viewBox="0 0 631.5 421.18"><defs><style>.cls-1{fill:#d9d7e4;}.cls-2,.cls-6{fill:none;}.cls-2{stroke:#b4b3bc;}.cls-2,.cls-8{stroke-miterlimit:10;stroke-width:2px;}.cls-3{fill:#ddd;}.cls-4{fill:#aaa;}.cls-5{fill:#b7b7b7;}.cls-6{stroke:#f53b69;stroke-linecap:round;stroke-linejoin:round;stroke-width:5px;}.cls-7{font-size:17.69px;fill:#202123;font-family:NotoSansCJKkr-Regular-KSCpc-EUC-H, Noto Sans CJK KR;}.cls-8{fill:#89a6f5;stroke:#000;}</style></defs><title>1_preVersion</title><path class="cls-1" d="M928,418.89H298V363.47a9.62,9.62,0,0,1,9.62-9.62H918.36a9.62,9.62,0,0,1,9.62,9.62Z" transform="translate(-296.85 -326.82)"/><rect class="cls-2" x="1" y="26.84" width="629.5" height="393.33" rx="9.69"/><rect class="cls-3" x="32.15" y="117.18" width="117" height="18.5" rx="9.25"/><rect class="cls-3" x="167.15" y="117.18" width="189" height="18.5" rx="9.25"/><rect class="cls-4" x="239.15" y="51.54" width="162" height="23.78" rx="11.4"/><rect class="cls-3" x="455.15" y="117.18" width="144" height="18.5" rx="9.25"/><rect class="cls-3" x="32.15" y="153.18" width="72" height="18.5" rx="9.25"/><rect class="cls-3" x="122.15" y="153.18" width="135" height="18.5" rx="9.25"/><rect class="cls-3" x="275.15" y="153.18" width="324" height="18.5" rx="9.25"/><rect class="cls-3" x="32.15" y="189.18" width="63" height="18.5" rx="9.25"/><rect class="cls-3" x="338.15" y="189.18" width="99" height="18.5" rx="9.25"/><rect class="cls-3" x="455.15" y="189.18" width="144" height="18.5" rx="9.25"/><rect class="cls-3" x="32.15" y="225.18" width="72" height="18.5" rx="9.25"/><rect class="cls-3" x="122.15" y="225.18" width="225" height="18.5" rx="9.25"/><rect class="cls-3" x="356.15" y="225.18" width="243" height="18.5" rx="9.25"/><rect class="cls-3" x="32.15" y="261.18" width="117" height="18.5" rx="9.25"/><rect class="cls-3" x="167.15" y="261.18" width="270" height="18.5" rx="9.25"/><rect class="cls-3" x="455.15" y="261.18" width="144" height="18.5" rx="9.25"/><rect class="cls-3" x="32.15" y="297.18" width="72" height="18.5" rx="9.25"/><rect class="cls-3" x="122.15" y="297.18" width="135" height="18.5" rx="9.25"/><rect class="cls-3" x="275.15" y="297.18" width="324" height="18.5" rx="9.25"/><rect class="cls-5" x="374.4" y="117.18" width="63" height="18.5" rx="9.25"/><line class="cls-6" x1="365.4" y1="126.43" x2="446.4" y2="126.43"/><rect class="cls-5" x="113.15" y="189.18" width="198" height="18.5" rx="9.25"/><text class="cls-7" transform="translate(1 15.57)">이전버전</text><polyline class="cls-6" points="369.65 249.68 378.65 266.68 414.65 231.68"/><circle class="cls-6" cx="243.65" cy="194.68" r="27"/><circle class="cls-8" cx="601" cy="31.01" r="6.15"/></svg>