<svg id="Layer_1" data-name="Layer 1" xmlns="http://www.w3.org/2000/svg" viewBox="0 0 675.51 421.18"><defs><style>.cls-1,.cls-3{fill:none;}.cls-1{stroke:#b4b3bc;}.cls-1,.cls-3,.cls-7,.cls-8,.cls-9{stroke-miterlimit:10;}.cls-1,.cls-3,.cls-8{stroke-width:2px;}.cls-2{fill:#64c3d9;}.cls-3,.cls-8{stroke:#202123;}.cls-4{fill:#fff;}.cls-5{fill:#ddd;}.cls-6,.cls-7{fill:#f5c43c;}.cls-7,.cls-9{stroke:#000;}.cls-7{stroke-width:3px;}.cls-8{fill:#f53b69;}.cls-10{font-size:17.69px;fill:#202123;font-family:NotoSansCJKkr-Regular-KSCpc-EUC-H, Noto Sans CJK KR;}</style></defs><title>2_NowVersion</title><rect class="cls-1" x="45.02" y="26.84" width="629.5" height="393.33" rx="9.21"/><path class="cls-2" d="M1589,418.89H959V363a9.18,9.18,0,0,1,9.18-9.18H1579.8A9.18,9.18,0,0,1,1589,363Z" transform="translate(-913.83 -326.82)"/><rect class="cls-3" x="45.02" y="26.84" width="629.5" height="393.33" rx="9.69"/><rect class="cls-4" x="279.17" y="51.54" width="162" height="23.78" rx="11.4"/><rect class="cls-5" x="81.17" y="117.18" width="117" height="18.5" rx="9.25"/><rect class="cls-5" x="216.17" y="117.18" width="189" height="18.5" rx="9.25"/><rect class="cls-2" x="423.17" y="117.18" width="63" height="18.5" rx="9.25"/><rect class="cls-5" x="504.17" y="117.18" width="144" height="18.5" rx="9.25"/><rect class="cls-5" x="81.17" y="153.18" width="72" height="18.5" rx="9.25"/><rect class="cls-5" x="171.17" y="153.18" width="135" height="18.5" rx="9.25"/><rect class="cls-5" x="324.17" y="153.18" width="324" height="18.5" rx="9.25"/><rect class="cls-5" x="81.17" y="189.18" width="63" height="18.5" rx="9.25"/><rect class="cls-2" x="162.17" y="189.18" width="81" height="18.5" rx="9.25"/><rect class="cls-2" x="261.17" y="189.18" width="108" height="18.5" rx="9.25"/><rect class="cls-5" x="387.17" y="189.18" width="99" height="18.5" rx="9.25"/><rect class="cls-5" x="504.17" y="189.18" width="144" height="18.5" rx="9.25"/><rect class="cls-5" x="81.17" y="225.18" width="72" height="18.5" rx="9.25"/><rect class="cls-5" x="171.17" y="225.18" width="225" height="18.5" rx="9.25"/><rect class="cls-5" x="405.17" y="225.18" width="243" height="18.5" rx="9.25"/><rect class="cls-5" x="81.17" y="261.18" width="117" height="18.5" rx="9.25"/><rect class="cls-5" x="216.17" y="261.18" width="153" height="18.5" rx="9.25"/><rect class="cls-6" x="378.17" y="261.18" width="103" height="18.5" rx="9.25"/><rect class="cls-5" x="499.17" y="261.18" width="144" height="18.5" rx="9.25"/><rect class="cls-5" x="81.17" y="297.18" width="72" height="18.5" rx="9.25"/><rect class="cls-5" x="171.17" y="297.18" width="135" height="18.5" rx="9.25"/><rect class="cls-5" x="324.17" y="297.18" width="324" height="18.5" rx="9.25"/><path class="cls-7" d="M1007.48,379.36l-17.16-9.86a2.83,2.83,0,0,0-4.24,2.45v7.83a2,2,0,0,1-2,2H918.59a3.26,3.26,0,0,0-3.26,3.26v13a3.26,3.26,0,0,0,3.26,3.26H984a2,2,0,0,1,2,2v8a2.83,2.83,0,0,0,4.24,2.46l17.14-9.87,17.12-9.85a2.83,2.83,0,0,0,0-4.91Z" transform="translate(-913.83 -326.82)"/><circle class="cls-8" cx="26.59" cy="105.4" r="4.64"/><path class="cls-9" d="M1033.6,367.6h-4v-4a.59.59,0,0,0-.6-.59.58.58,0,0,0-.59.59v4h-4a.58.58,0,0,0-.59.59.59.59,0,0,0,.59.6h4v4a.59.59,0,0,0,.59.6.6.6,0,0,0,.6-.6v-4h4a.6.6,0,0,0,.6-.6A.59.59,0,0,0,1033.6,367.6Z" transform="translate(-913.83 -326.82)"/><text class="cls-10" transform="translate(610.03 15.57)">현재버전</text></svg>