<?xml version="1.0" encoding="utf-8"?>
<!-- Generator: Adobe Illustrator 25.4.0, SVG Export Plug-In . SVG Version: 6.00 Build 0)  -->
<svg version="1.1" id="Layer_1" xmlns="http://www.w3.org/2000/svg" xmlns:xlink="http://www.w3.org/1999/xlink" x="0px" y="0px"
	 viewBox="0 0 65.7 73.1" style="enable-background:new 0 0 65.7 73.1;" xml:space="preserve">
<style type="text/css">
	.st0{fill:#202123;}
	.st1{fill:#89A6F5;stroke:#000000;stroke-linecap:round;stroke-linejoin:round;}
	.st2{fill:#F53B69;stroke:#000000;stroke-miterlimit:10;}
</style>
<path class="st0" d="M32.2,22.8L32.2,22.8c-0.4,0-0.7-0.3-0.7-0.7l0.4-19.6c0-0.4,0.3-0.6,0.7-0.6l0,0c0.4,0,0.6,0.3,0.6,0.7
	c0,0,0,0,0,0l-0.3,19.6C32.8,22.5,32.5,22.8,32.2,22.8z"/>
<path class="st0" d="M58.9,35.5c-0.1,0-0.3,0-0.4-0.1l-26-11.5c-0.3-0.2-0.6-0.5-0.6-0.8c0-0.4,0.2-0.7,0.5-0.9L53.1,9.4
	c0.5-0.2,1.1,0.1,1.3,0.6c0.1,0.4,0,0.8-0.3,1.1L35,22.9l24.3,10.7c0.5,0.2,0.7,0.8,0.5,1.3C59.6,35.3,59.3,35.5,58.9,35.5z"/>
<path class="st0" d="M35.7,58.3c-0.2,0-0.3,0-0.5-0.1L14.9,46.6c-0.2-0.1-0.4-0.4-0.5-0.6c-0.1-0.3,0-0.6,0.2-0.8l16-22.7
	c0.4-0.4,1-0.4,1.4,0c0.3,0.3,0.4,0.8,0.2,1.1L16.8,45.4L35.5,56l8.8-11c0.3-0.4,1-0.5,1.4-0.1c0.4,0.3,0.5,1,0.2,1.4l-9.3,11.6
	C36.3,58.1,36,58.3,35.7,58.3z"/>
<path class="st0" d="M11.1,29.1c-0.1,0-0.2,0-0.2-0.1l-9.2-8.7c-0.1-0.1-0.1-0.3,0-0.5c0,0,0,0,0,0c0.1-0.1,0.3-0.1,0.5,0
	c0,0,0,0,0,0l9.1,8.5l20.9-5.7c0.2,0,0.4,0.1,0.4,0.2c0,0.2-0.1,0.3-0.2,0.4L11.1,29.1L11.1,29.1z"/>
<path class="st0" d="M28.4,20.6c-0.1,0-0.2-0.1-0.3-0.2l-10-18.1c-0.1-0.2,0-0.3,0.1-0.4c0,0,0,0,0,0c0.2-0.1,0.3,0,0.4,0.1
	c0,0,0,0,0,0l10,18.1c0.1,0.2,0,0.3-0.1,0.4c0,0,0,0,0,0C28.5,20.6,28.5,20.6,28.4,20.6z"/>
<path class="st0" d="M26.8,22.1c-0.1,0-0.2,0-0.3-0.1l-15.7-8.4c-0.3-0.1-0.5-0.5-0.3-0.9c0.1-0.3,0.5-0.5,0.9-0.3
	c0,0,0.1,0,0.1,0.1l15.7,8.4c0.3,0.2,0.4,0.6,0.3,0.9C27.2,22,27,22.1,26.8,22.1z"/>
<circle class="st1" cx="31.4" cy="23" r="7.1"/>
<circle class="st1" cx="58.9" cy="34.5" r="4.5"/>
<path class="st1" d="M47.5,45.6c0,1.3-1.1,2.4-2.4,2.4s-2.4-1.1-2.4-2.4c0-1.3,1.1-2.4,2.4-2.4C46.4,43.2,47.5,44.3,47.5,45.6
	C47.5,45.6,47.5,45.6,47.5,45.6z"/>
<path class="st1" d="M13.2,13c0,1.1-0.9,2-2,1.9c-1.1,0-2-0.9-1.9-2c0-1.1,0.9-1.9,2-2C12.3,11,13.2,11.9,13.2,13z"/>
<circle class="st1" cx="14.5" cy="45.7" r="8.3"/>
<path class="st2" d="M57.3,10.2c0,2.1-1.7,3.7-3.7,3.7c-2.1,0-3.7-1.7-3.7-3.7s1.7-3.7,3.7-3.7l0,0C55.6,6.5,57.3,8.2,57.3,10.2z"/>
<circle class="st1" cx="32.5" cy="2.5" r="2"/>
<path class="st2" d="M19.7,2.2c0,0.7-0.5,1.2-1.2,1.2c-0.7,0-1.2-0.5-1.2-1.2S17.8,1,18.4,1c0,0,0,0,0,0C19.1,1,19.7,1.5,19.7,2.2z"
	/>
<circle class="st2" cx="1.9" cy="20.1" r="1.4"/>
<path class="st2" d="M24.5,68.3c0,1.5-1.2,2.7-2.7,2.7c-1.5,0-2.7-1.2-2.7-2.7c0-1.5,1.2-2.7,2.7-2.7l0,0
	C23.2,65.6,24.5,66.8,24.5,68.3z"/>
</svg>
