<?xml version="1.0" encoding="utf-8"?>
<!-- Generator: Adobe Illustrator 25.4.0, SVG Export Plug-In . SVG Version: 6.00 Build 0)  -->
<svg version="1.1" id="Layer_1" xmlns="http://www.w3.org/2000/svg" xmlns:xlink="http://www.w3.org/1999/xlink" x="0px" y="0px"
	 viewBox="0 0 55.2 53.4" style="enable-background:new 0 0 55.2 53.4;" xml:space="preserve">
<style type="text/css">
	.st0{fill:#FFFFFF;stroke:#202123;stroke-linecap:round;stroke-linejoin:round;}
	.st1{fill:#00A6F7;}
	.st2{fill:#89A6F5;stroke:#000000;stroke-linecap:round;stroke-linejoin:round;}
	.st3{fill:#89A6F5;stroke:#000000;stroke-width:0.8;stroke-linecap:round;stroke-linejoin:round;}
	.st4{fill:#89A6F5;stroke:#000000;stroke-width:0.7;stroke-linecap:round;stroke-linejoin:round;}
</style>
<path class="st0" d="M40,35.4v0.5c0,1.1-5.3,2-11.8,2s-11.8-0.9-11.8-2v-7.2H40L40,35.4z"/>
<ellipse class="st0" cx="28.2" cy="28.6" rx="12" ry="2.6"/>
<path class="st1" d="M33.3,28.6c0,0.5-2.3,0.9-5.1,0.9s-5.1-0.4-5.1-0.9s2.3-0.9,5.1-0.9S33.3,28.2,33.3,28.6z"/>
<path class="st2" d="M35.8,29.4v0.3c0,0.8-3.7,1.4-8.2,1.4s-8.2-0.6-8.2-1.4v-5h16.3L35.8,29.4z"/>
<path class="st0" d="M39.5,23.3v0.5c0,1.1-5.3,2-11.8,2s-11.8-0.9-11.8-2v-7.2h23.6L39.5,23.3z"/>
<path class="st0" d="M39.7,16.4c0,1.4-5.4,2.5-12,2.5s-12-1.1-12-2.5s5.4-2.5,12-2.5S39.7,15,39.7,16.4z"/>
<ellipse class="st1" cx="27.7" cy="17.4" rx="5.1" ry="0.9"/>
<path class="st2" d="M35.8,17.4v0.3c0,0.8-3.7,1.4-8.2,1.4s-8.2-0.6-8.2-1.4v-5h16.3L35.8,17.4z"/>
<path class="st0" d="M39.5,11.2v0.5c0,1.1-5.3,2-11.8,2s-11.8-0.9-11.8-2V4.5h23.6L39.5,11.2z"/>
<path class="st0" d="M39.7,4.2c0,1.3-5.4,2.4-12,2.4s-12-1-12-2.4s5.4-2.4,12-2.4S39.7,2.9,39.7,4.2z"/>
<ellipse class="st3" cx="27.7" cy="4.5" rx="5.1" ry="0.9"/>
<path class="st0" d="M25.5,49.9v0.5c0,1.1-5.3,2-11.8,2s-11.8-0.9-11.8-2v-7.2h23.6L25.5,49.9z"/>
<ellipse class="st0" cx="13.7" cy="43.1" rx="12" ry="2.6"/>
<path class="st1" d="M18.8,43.1c0,0.5-2.3,0.9-5.1,0.9s-5.1-0.4-5.1-0.9s2.3-0.9,5.1-0.9S18.8,42.7,18.8,43.1z"/>
<path class="st2" d="M21.3,43.9v0.3c0,0.8-3.7,1.4-8.2,1.4S5,45,5,44.3v-5h16.3L21.3,43.9z"/>
<path class="st0" d="M25,37.8v0.5c0,1.1-5.3,2-11.8,2s-11.8-0.9-11.8-2v-7.2H25L25,37.8z"/>
<path class="st0" d="M25.2,30.9c0,1.4-5.4,2.5-12,2.5s-12-1.1-12-2.5s5.4-2.5,12-2.5S25.2,29.5,25.2,30.9z"/>
<ellipse class="st1" cx="13.2" cy="31.9" rx="5.1" ry="0.9"/>
<path class="st2" d="M21.3,31.8v0.3c0,0.8-3.7,1.4-8.2,1.4S5,32.9,5,32.2v-5h16.3L21.3,31.8z"/>
<path class="st0" d="M25,25.7v0.5c0,1.1-5.3,2-11.8,2s-11.8-0.9-11.8-2V19H25L25,25.7z"/>
<path class="st0" d="M25.2,18.7c0,1.3-5.4,2.4-12,2.4s-12-1-12-2.4s5.4-2.4,12-2.4S25.2,17.4,25.2,18.7z"/>
<ellipse class="st3" cx="13.2" cy="19" rx="5.1" ry="0.9"/>
<path class="st0" d="M54.5,49.9v0.5c0,1.1-5.3,2-11.8,2s-11.8-0.9-11.8-2v-7.2h23.6L54.5,49.9z"/>
<ellipse class="st0" cx="42.7" cy="43.1" rx="12" ry="2.6"/>
<path class="st1" d="M47.8,43.1c0,0.5-2.3,0.9-5.1,0.9s-5.1-0.4-5.1-0.9s2.3-0.9,5.1-0.9S47.8,42.7,47.8,43.1z"/>
<path class="st2" d="M50.3,43.9v0.3c0,0.8-3.7,1.4-8.2,1.4S34,45,34,44.3v-5h16.3L50.3,43.9z"/>
<path class="st0" d="M54,37.8v0.5c0,1.1-5.3,2-11.8,2s-11.8-0.9-11.8-2v-7.2H54L54,37.8z"/>
<path class="st0" d="M54.2,30.9c0,1.4-5.4,2.5-12,2.5s-12-1.1-12-2.5s5.4-2.5,12-2.5S54.2,29.5,54.2,30.9z"/>
<ellipse class="st1" cx="42.2" cy="31.9" rx="5.1" ry="0.9"/>
<path class="st2" d="M50.3,31.8v0.3c0,0.8-3.7,1.4-8.2,1.4S34,32.9,34,32.2v-5h16.3L50.3,31.8z"/>
<path class="st0" d="M54,25.7v0.5c0,1.1-5.3,2-11.8,2s-11.8-0.9-11.8-2V19H54L54,25.7z"/>
<path class="st0" d="M54.2,18.7c0,1.3-5.4,2.4-12,2.4s-12-1-12-2.4s5.4-2.4,12-2.4S54.2,17.4,54.2,18.7z"/>
<ellipse class="st4" cx="42.2" cy="19" rx="5.1" ry="0.9"/>
</svg>
