<?xml version="1.0" encoding="utf-8"?>
<!-- Generator: Adobe Illustrator 25.4.0, SVG Export Plug-In . SVG Version: 6.00 Build 0)  -->
<svg version="1.1" id="Layer_1" xmlns="http://www.w3.org/2000/svg" xmlns:xlink="http://www.w3.org/1999/xlink" x="0px" y="0px"
	 viewBox="0 0 116.4 83.3" style="enable-background:new 0 0 116.4 83.3;" xml:space="preserve">
<style type="text/css">
	.st0{fill:none;}
	.st1{fill:#403D57;}
	.st2{fill:#89A6F5;stroke:#000000;stroke-linecap:round;stroke-linejoin:round;}
	.st3{fill:#FFFFFF;stroke:#202123;stroke-linecap:round;stroke-linejoin:round;}
	.st4{fill:#89A6F5;}
</style>
<line class="st0" x1="101" y1="11.8" x2="108.7" y2="40.9"/>
<rect x="104.2" y="11.3" transform="matrix(0.9662 -0.2576 0.2576 0.9662 -3.2678 27.901)" class="st1" width="1.3" height="30.2"/>
<line class="st0" x1="7.9" y1="36.6" x2="15.7" y2="65.7"/>
<rect x="11.2" y="36.1" transform="matrix(0.9662 -0.2576 0.2576 0.9662 -12.7968 4.7731)" class="st1" width="1.3" height="30.2"/>
<line class="st0" x1="66.4" y1="17.9" x2="76.3" y2="54.8"/>
<rect x="77.1" y="16.6" transform="matrix(0.9659 -0.2589 0.2589 0.9659 -6.6072 21.3549)" class="st1" width="1.3" height="38.3"/>
<line class="st0" x1="51.5" y1="23.9" x2="60.1" y2="56"/>
<rect x="55.1" y="23.5" transform="matrix(0.9662 -0.2576 0.2576 0.9662 -8.4322 15.7234)" class="st1" width="1.3" height="33.2"/>
<line class="st0" x1="58.4" y1="20" x2="68.2" y2="56.9"/>
<rect x="69" y="18.8" transform="matrix(0.9659 -0.2589 0.2589 0.9659 -7.4545 19.3385)" class="st1" width="1.3" height="38.3"/>
<line class="st0" x1="94.9" y1="18.6" x2="100.6" y2="40"/>
<rect x="97.1" y="18.3" transform="matrix(0.9662 -0.2576 0.2576 0.9662 -4.2638 26.1746)" class="st1" width="1.3" height="22.2"/>
<line class="st0" x1="33.7" y1="33.9" x2="39.7" y2="56.2"/>
<rect x="36" y="33.6" transform="matrix(0.9662 -0.2576 0.2576 0.9662 -10.3916 10.972)" class="st1" width="1.3" height="23.2"/>
<line class="st0" x1="26.4" y1="35.8" x2="32.1" y2="57.2"/>
<rect x="28.6" y="35.5" transform="matrix(0.9662 -0.2576 0.2576 0.9662 -11.016 9.0964)" class="st1" width="1.3" height="22.2"/>
<line class="st0" x1="76.5" y1="23.5" x2="82.3" y2="44.9"/>
<rect x="78.7" y="23.2" transform="matrix(0.9662 -0.2576 0.2576 0.9662 -6.1421 21.6098)" class="st1" width="1.3" height="22.2"/>
<path class="st2" d="M10.6,68.9c-0.1-0.1-0.1-0.2-0.1-0.3c-0.3-1.1,0.3-2.2,1.3-2.5c0,0,0,0,0,0c5.5-1.7,6.2-7,6.7-15.6
	c0.5-8.3,1.1-17.7,10.9-20.3c8-2.1,14,5,19.8,12c6.2,7.4,12.6,15.1,21.5,12.7c9.5-2.5,11.8-12.6,13.9-21.4c0.6-2.7,1.2-5.3,2-7.6
	c5.1-14.9,17.8-17,18.3-17.1c1.1-0.1,2.1,0.7,2.2,1.8c0.1,1-0.6,2-1.6,2.2c-0.5,0.1-10.8,1.9-15.1,14.4c-0.7,2.1-1.3,4.6-1.9,7.2
	c-2.2,9.5-4.9,21.2-16.7,24.4c-11.3,3-18.9-6-25.6-14C40.7,38.2,36,32.6,30.4,34c-6.6,1.8-7.4,7.5-8,16.7c-0.5,7.8-1,16.6-9.6,19.2
	C12,70.2,11,69.8,10.6,68.9z"/>
<path class="st3" d="M2.3,37.6c-0.1-0.2-0.1-0.3-0.2-0.5c-0.2-1.1,0.4-2.1,1.5-2.4c8.7-2,13.5,5.4,17.8,11.9
	c5.1,7.7,8.7,12.3,15.2,10.5c5.5-1.5,6.8-8.7,8.3-17.1c1.8-10.2,3.9-21.8,15.1-24.8c11.8-3.1,20,5.7,26.6,12.8
	c1.8,2,3.6,3.8,5.2,5.3c10,8.8,19.8,5.2,20.2,5c1-0.4,2.2,0.1,2.6,1.2c0,0,0,0,0,0c0.4,1-0.1,2.2-1.1,2.6
	c-0.5,0.2-12.5,4.7-24.3-5.7c-1.8-1.6-3.6-3.5-5.5-5.6C77.5,24.2,70.5,16.6,61,19.1c-8.8,2.3-10.6,12.2-12.2,21.7
	c-1.6,8.9-3.2,18.1-11.2,20.2c-9.8,2.6-15-5.3-19.6-12.2c-4.7-7.2-8-11.5-13.6-10.2C3.6,38.8,2.7,38.4,2.3,37.6z"/>
<path class="st4" d="M42.1,19.7c-1.6-0.9-2.1-2.9-1.2-4.5c0.9-1.6,2.9-2.1,4.5-1.2c1.6,0.9,2.1,2.9,1.2,4.5c0,0,0,0,0,0
	C45.6,20.1,43.6,20.6,42.1,19.7z"/>
<path class="st4" d="M31.9,82.9c-1.6-0.9-2.1-2.9-1.2-4.5c0.9-1.6,2.9-2.1,4.5-1.2c1.6,0.9,2.1,2.9,1.2,4.5
	C35.5,83.3,33.5,83.8,31.9,82.9C31.9,82.9,31.9,82.9,31.9,82.9z"/>
<path class="st4" d="M85.5,15c-0.5-0.3-0.6-0.9-0.4-1.4c0.3-0.5,0.9-0.6,1.4-0.4c0.5,0.3,0.6,0.9,0.4,1.4c0,0,0,0,0,0
	C86.5,15.2,85.9,15.3,85.5,15C85.5,15,85.5,15,85.5,15z"/>
<path class="st4" d="M50.9,69.8c-0.5-0.3-0.6-0.9-0.4-1.4c0.3-0.5,0.9-0.6,1.4-0.4s0.6,0.9,0.4,1.4C52,69.9,51.4,70.1,50.9,69.8
	C50.9,69.8,50.9,69.8,50.9,69.8z"/>
<path class="st4" d="M95.3,4.6c-0.5-0.3-0.6-0.9-0.4-1.4s0.9-0.6,1.4-0.4c0.5,0.3,0.6,0.9,0.4,1.4c0,0,0,0,0,0
	C96.3,4.7,95.7,4.9,95.3,4.6z"/>
<path class="st4" d="M86.2,3.9c-0.7-0.4-1-1.3-0.6-2c0.4-0.7,1.3-1,2-0.6c0.7,0.4,1,1.3,0.6,2c0,0,0,0,0,0.1
	C87.8,4,86.9,4.3,86.2,3.9z"/>
<path class="st4" d="M39.8,27.5c-0.7-0.4-1-1.3-0.6-2c0.4-0.7,1.3-1,2-0.6c0.7,0.4,1,1.3,0.6,2c0,0,0,0,0,0.1
	C41.3,27.6,40.5,27.9,39.8,27.5z"/>
<path class="st4" d="M35.3,71.4c-0.7-0.4-1-1.3-0.6-2c0.4-0.7,1.3-1,2-0.6c0.7,0.4,1,1.3,0.6,2c0,0,0,0,0,0.1
	C36.8,71.6,36,71.8,35.3,71.4z"/>
<path class="st4" d="M21,77.7c-0.5-0.3-0.6-0.9-0.4-1.4c0.3-0.5,0.9-0.6,1.4-0.4c0.5,0.3,0.6,0.9,0.4,1.4c0,0,0,0,0,0
	C22.1,77.9,21.5,78,21,77.7C21,77.7,21,77.7,21,77.7z"/>
<path class="st4" d="M52.3,5.6c-0.5-0.3-0.7-0.9-0.4-1.3c0.3-0.5,0.9-0.7,1.3-0.4c0,0,0,0,0.1,0c0.5,0.3,0.6,0.9,0.4,1.4
	c0,0,0,0,0,0C53.4,5.8,52.8,5.9,52.3,5.6C52.3,5.6,52.3,5.6,52.3,5.6z"/>
</svg>
