<?xml version="1.0" encoding="utf-8"?>
<!-- Generator: Adobe Illustrator 25.4.0, SVG Export Plug-In . SVG Version: 6.00 Build 0)  -->
<svg version="1.1" id="Layer_1" xmlns="http://www.w3.org/2000/svg" xmlns:xlink="http://www.w3.org/1999/xlink" x="0px" y="0px"
	 viewBox="0 0 153.6 87.4" style="enable-background:new 0 0 153.6 87.4;" xml:space="preserve">
<style type="text/css">
	.st0{fill:#F9F9F9;}
	.st1{opacity:0.2;fill:#89A6F5;enable-background:new    ;}
	.st2{fill:none;stroke:#202123;stroke-linecap:round;stroke-linejoin:round;}
	.st3{stroke:#000000;stroke-miterlimit:10;}
	.st4{fill:#F5C43C;stroke:#000000;stroke-linecap:round;stroke-linejoin:round;}
	.st5{fill:#FFFFFF;stroke:#202123;stroke-linecap:round;stroke-linejoin:round;}
	.st6{fill:#F53B69;stroke:#000000;stroke-miterlimit:10;}
	.st7{fill:#F5C43C;stroke:#000000;stroke-miterlimit:10;}
	.st8{opacity:0.1;fill:#89A6F5;enable-background:new    ;}
	.st9{fill:#89A6F5;}
	.st10{fill:#89A6F5;stroke:#000000;stroke-width:0.5;stroke-miterlimit:10;}
	.st11{fill:#89A6F5;stroke:#000000;stroke-linecap:round;stroke-linejoin:round;}
</style>
<circle class="st0" cx="71.1" cy="40.9" r="38.5"/>
<path class="st1" d="M100.3,16.3c0,0-5.3,37.5-64,40.3c0,0,15.3,33.8,52,18.4C121.6,57.4,104.6,19.4,100.3,16.3z"/>
<path class="st2" d="M41.5,65C28.2,48.7,30.6,24.6,47,11.3c1.4-1.2,2.9-2.2,4.5-3.2"/>
<path class="st3" d="M113,81.8h-3.2v-3.2c0-0.3-0.2-0.5-0.5-0.5c-0.3,0-0.5,0.2-0.5,0.5c0,0,0,0,0,0v3.2h-3.2
	c-0.3,0-0.5,0.2-0.5,0.5c0,0.3,0.2,0.5,0.5,0.5c0,0,0,0,0,0h3.2V86c0,0.3,0.2,0.5,0.5,0.5c0,0,0,0,0,0c0.3,0,0.5-0.2,0.5-0.5v-3.2
	h3.2c0.3,0,0.5-0.2,0.5-0.5c0,0,0,0,0,0C113.6,82,113.3,81.8,113,81.8C113.1,81.8,113,81.8,113,81.8z"/>
<path class="st4" d="M84.8,35c6,0,10.8-4.8,10.8-10.8s-4.8-10.8-10.8-10.8c-6,0-10.8,4.8-10.8,10.8c0,0.8,0.1,1.5,0.2,2.3l-13.8,6.9
	c-3.9-4.5-10.7-5-15.2-1.1c-4.5,3.9-5,10.7-1.1,15.2s10.7,5,15.2,1.1c0.4-0.3,0.8-0.7,1.1-1.1l13.8,6.9c-0.2,0.7-0.2,1.5-0.2,2.3
	c-0.1,6,4.8,11,10.8,11c6,0.1,11-4.8,11-10.8c0.1-6-4.8-11-10.8-11c-3.2,0-6.2,1.3-8.3,3.7L63,42.7c0.3-1.5,0.3-3,0-4.5l13.8-6.9
	C78.7,33.6,81.7,35,84.8,35z"/>
<circle class="st5" cx="84.8" cy="56.6" r="5.4"/>
<circle class="st5" cx="52.4" cy="40.4" r="5.4"/>
<circle class="st5" cx="84.8" cy="24.2" r="5.4"/>
<circle class="st6" cx="6.9" cy="16.7" r="4.6"/>
<circle class="st7" cx="144" cy="58.1" r="7"/>
<path class="st8" d="M36.3,56.6c58.7-2.8,64-40.3,64-40.3c7.3,6.1,20.3,41.1-12,58.7c0,0-14.1,8.3-33.4,0.8
	C39.6,67.4,36.3,56.6,36.3,56.6z"/>
<path class="st9" d="M57.6,87.4"/>
<path class="st2" d="M71.1,2.7c21.1,0,38.2,17.1,38.2,38.2S92.1,79.1,71.1,79.1c-5.7,0-11.4-1.3-16.6-3.8"/>
<circle class="st10" cx="44.9" cy="73.1" r="3.2"/>
<path class="st5" d="M147.5,16.1c0,1-0.1,2.1-0.3,3.1l-2.5,0.7c-0.3,1-0.8,2-1.5,2.9l1,2.4c-0.9,1.1-2,2-3.2,2.7l-2.3-1.3
	c-1,0.5-2,0.8-3.1,1l-1,2.4c-0.3,0-0.7,0-1.1,0c-1,0-2.1-0.1-3.1-0.3l-0.7-2.5c-1-0.3-2-0.8-2.9-1.5l-2.4,0.9c-1.1-0.9-2-2-2.7-3.1
	l1.3-2.3c-0.5-1-0.8-2-1-3.1l-2.4-1c0-0.4,0-0.7,0-1.1c0-1,0.1-2.1,0.3-3.1l2.5-0.7c0.3-1,0.8-2,1.5-2.9L123,7c0.9-1.1,2-2,3.2-2.7
	l2.3,1.3c1-0.5,2-0.8,3.1-1l1-2.4c0.4,0,0.7,0,1.1,0c1,0,2.1,0.1,3.1,0.3l0.7,2.5c1,0.3,2,0.8,2.9,1.5l2.4-0.9c1.1,0.9,2,2,2.7,3.2
	l-1.3,2.3c0.5,1,0.8,2,1,3.1l2.4,1C147.5,15.4,147.5,15.7,147.5,16.1z"/>
<circle class="st11" cx="133.4" cy="16.1" r="8"/>
</svg>
