<svg id="Layer_1" data-name="Layer 1" xmlns="http://www.w3.org/2000/svg" xmlns:xlink="http://www.w3.org/1999/xlink" viewBox="0 0 514.78 481.94"><defs><style>.cls-1,.cls-12{fill:none;}.cls-10,.cls-2,.cls-23,.cls-8{fill:#f9f9f9;}.cls-20,.cls-3,.cls-5{fill:#fff;}.cls-4{clip-path:url(#clip-path);}.cls-12,.cls-20,.cls-5,.cls-8{stroke:#202123;}.cls-12,.cls-19,.cls-20,.cls-23,.cls-5,.cls-8,.cls-9{stroke-linecap:round;stroke-linejoin:round;}.cls-10,.cls-11,.cls-12,.cls-19,.cls-23,.cls-5,.cls-8,.cls-9{stroke-width:2px;}.cls-6{fill:#e8e8e8;}.cls-7{fill:#202123;}.cls-21,.cls-9{fill:#89a6f5;}.cls-10,.cls-13,.cls-14,.cls-15,.cls-19,.cls-21,.cls-23,.cls-9{stroke:#000;}.cls-10,.cls-11,.cls-13,.cls-14,.cls-15,.cls-21{stroke-miterlimit:10;}.cls-11,.cls-14{fill:#f53b69;}.cls-11{stroke:#fff;}.cls-13,.cls-19{fill:#f5c43c;}.cls-16{font-size:15px;font-family:NotoSansCJKkr-Medium-KSCpc-EUC-H, Noto Sans CJK KR;}.cls-17{clip-path:url(#clip-path-2);}.cls-18{clip-path:url(#clip-path-3);}.cls-22{clip-path:url(#clip-path-4);}.cls-24{clip-path:url(#clip-path-5);}</style><clipPath id="clip-path" transform="translate(-390.22 -274.49)"><circle class="cls-1" cx="532.1" cy="605.34" r="103.71"/></clipPath><clipPath id="clip-path-2" transform="translate(-390.22 -274.49)"><circle class="cls-2" cx="760.82" cy="605.33" r="103.71"/></clipPath><clipPath id="clip-path-3" transform="translate(-390.22 -274.49)"><circle class="cls-1" cx="760.82" cy="605.33" r="103.71"/></clipPath><clipPath id="clip-path-4" transform="translate(-390.22 -274.49)"><circle class="cls-1" cx="820.26" cy="644.24" r="22.32" transform="translate(-112.31 177.15) rotate(-11.54)"/></clipPath><clipPath id="clip-path-5" transform="translate(-390.22 -274.49)"><circle class="cls-1" cx="646.46" cy="390.76" r="115.24"/></clipPath></defs><title>1_human</title><circle class="cls-3" cx="141.88" cy="330.84" r="103.71"/><g class="cls-4"><path class="cls-5" d="M511.2,610.21c-.3,6.61-1.25,22.84-3.51,32.35a4.89,4.89,0,0,1-2,2.87l-14.31,10a4.93,4.93,0,0,0,2.09,8.92l73.88,11.06a4.93,4.93,0,0,0,4.72-7.77L556.31,645.8a5,5,0,0,1-.85-1.95c-1.14-5.9-6.44-34.62-3.13-46C555.47,587,523.61,601.44,514,606A5,5,0,0,0,511.2,610.21Z" transform="translate(-390.22 -274.49)"/><path class="cls-6" d="M511.18,610.82s7.73,18.6,22.28,18.19,17.87-16.87,17.87-16.87Z" transform="translate(-390.22 -274.49)"/><path class="cls-7" d="M502.49,595.76s-4.7-23.47-8-30.58-6-38.82,30.34-40.46c0,0,13.95,1.64,21.6-3,0,0,0,4.65-1.91,6.29A24.18,24.18,0,0,1,567,535.93c9.84,10.93-6.56,49.21-5.74,58.23Z" transform="translate(-390.22 -274.49)"/><path class="cls-5" d="M531.8,621.82c-10.55-.18-30-14.23-30-31.62V563.06c0-6.35,4.43-11.55,9.85-11.55h40.24c5.41,0,9.84,5.2,9.84,11.55v25.6C561.76,606.9,543.89,622,531.8,621.82Z" transform="translate(-390.22 -274.49)"/><path class="cls-7" d="M501.83,577.55s.06-16.31,13-18.81,41.82,7.94,45.92-4-55.88-11.68-58.9-4.1S501.83,577.55,501.83,577.55Z" transform="translate(-390.22 -274.49)"/><path class="cls-8" d="M597.6,722.07H460.83l-.69-.77c3.5-31.18,10.85-68.38,16.74-70.85,0,0,.68-.25,2-.66h0a135.08,135.08,0,0,1,19.24-4.24h.07c2.76-.42,5.76-.81,9-1.14a49.14,49.14,0,0,0,7.84,9.31,23.65,23.65,0,0,0,31.62,1.09,60.66,60.66,0,0,0,9-9.87c3,.36,6.05.76,9.18,1.25,7.62,1.17,15.65,2.77,24,4.88,1,.25,2,.5,3,.78h0c.4.09.8.2,1.19.31,0,0,.1.41.34,2.87h0C593.94,660.58,595.17,676.63,597.6,722.07Z" transform="translate(-390.22 -274.49)"/><path class="cls-9" d="M478,650l-.1,0a19.86,19.86,0,0,0-2.09.6l-.14,0-.13,0-.08,0c-6.87,2.38-23.61,10.82-47,40.06a9.8,9.8,0,0,0-1.13,10.47A37.42,37.42,0,0,0,459.32,722c.24,0,.49,0,.74,0s.51,0,.77,0h36.31c.39-23.14.67-43.27.85-57.07.07-6.1.12-11,.17-14.29s0-5.18,0-5.18h-.07A145.05,145.05,0,0,0,478,650Z" transform="translate(-390.22 -274.49)"/><path class="cls-9" d="M593.09,652.14a19.9,19.9,0,0,0-3.72-1.07s0,0,0,0a221.78,221.78,0,0,0-24.49-4.9h0c0,.2,0,4.37.08,11.56h0c0,4.61.1,10.47.16,17.31.12,12.76.3,29,.54,47h39.3c.62,0,1.23,0,1.84-.05a37.47,37.47,0,0,0,31.52-20.36A10.81,10.81,0,0,0,637,690C615.48,663.09,600.08,654.72,593.09,652.14Z" transform="translate(-390.22 -274.49)"/><path class="cls-8" d="M533.2,660.06s12.67-2.54,13.52,11.82l11-27s1.69-5.91-3.38-9.29Z" transform="translate(-390.22 -274.49)"/><path class="cls-8" d="M530.94,660.06s-14.9-.85-14.63,11L505.6,644.85s-1.69-5.91,3.38-9.29Z" transform="translate(-390.22 -274.49)"/><path class="cls-10" d="M467.11,756.42,466,675.33a11,11,0,0,1,10.94-10.93H587.06A11,11,0,0,1,598,675.33l-1.11,81.09" transform="translate(-390.22 -274.49)"/><circle class="cls-11" cx="140.37" cy="449.04" r="7.4"/></g><path class="cls-12" d="M583,515a103.78,103.78,0,0,1,49.54,116.2" transform="translate(-390.22 -274.49)"/><path class="cls-12" d="M500.57,506.52a103.2,103.2,0,0,1,57.35-1.63" transform="translate(-390.22 -274.49)"/><path class="cls-12" d="M431.65,579.52a103.38,103.38,0,0,1,46.7-62.88" transform="translate(-390.22 -274.49)"/><path class="cls-12" d="M597,686.27a103.72,103.72,0,0,1-146.86-17.42" transform="translate(-390.22 -274.49)"/><circle class="cls-13" cx="213.08" cy="345.65" r="6.34"/><circle class="cls-14" cx="70.33" cy="281.45" r="4.65"/><path class="cls-15" d="M478,585h-4.55v-4.55a.68.68,0,1,0-1.36,0V585h-4.55a.69.69,0,0,0,0,1.37h4.55V591a.68.68,0,1,0,1.36,0v-4.54H478a.69.69,0,0,0,0-1.37Z" transform="translate(-390.22 -274.49)"/><rect class="cls-10" x="1" y="328.54" width="86.92" height="35.12" rx="9.01"/><text class="cls-16" transform="translate(9.91 351.99) scale(0.98 1)">운영사용자</text><circle class="cls-2" cx="370.6" cy="330.83" r="103.71"/><g class="cls-17"><path class="cls-2" d="M739.48,619.48c-.31,6.61-1.26,22.84-3.52,32.35a4.83,4.83,0,0,1-2,2.87l-14.31,10a4.93,4.93,0,0,0,2.09,8.92l73.88,11.06a4.93,4.93,0,0,0,4.72-7.77l-15.8-21.82a5,5,0,0,1-.84-2c-1.15-5.9-6.44-34.62-3.14-46,3.14-10.81-28.71,3.59-38.31,8.13A4.92,4.92,0,0,0,739.48,619.48Z" transform="translate(-390.22 -274.49)"/><path class="cls-2" d="M739.46,620.09s7.72,18.6,22.28,18.19,17.87-16.87,17.87-16.87Z" transform="translate(-390.22 -274.49)"/><path class="cls-2" d="M730.77,605s-4.7-23.47-8-30.58-6-38.82,30.34-40.46c0,0,13.94,1.64,21.6-3,0,0,0,4.65-1.92,6.29a24.16,24.16,0,0,1,22.42,7.93c9.84,10.93-6.56,49.21-5.74,58.23Z" transform="translate(-390.22 -274.49)"/><path class="cls-2" d="M760.07,631.09c-10.54-.18-30-14.23-30-31.62V572.33c0-6.35,4.43-11.55,9.84-11.55H780.2c5.41,0,9.84,5.2,9.84,11.55v25.6C790,616.17,772.17,631.31,760.07,631.09Z" transform="translate(-390.22 -274.49)"/><path class="cls-2" d="M825.87,731.34H689.11l-.69-.77c3.49-31.18,10.85-68.38,16.74-70.85,0,0,.68-.25,2-.66h0a135.08,135.08,0,0,1,19.24-4.24h.07c2.76-.42,5.76-.81,9-1.14a49.43,49.43,0,0,0,7.83,9.3,23.66,23.66,0,0,0,31.63,1.1,60.66,60.66,0,0,0,9-9.87c3,.36,6.06.76,9.19,1.25,7.62,1.17,15.65,2.77,24,4.88,1,.25,2,.5,3,.77h0l1.19.32s.1.41.34,2.86h0C822.22,669.85,823.45,685.9,825.87,731.34Z" transform="translate(-390.22 -274.49)"/><path class="cls-2" d="M706.24,659.23a.38.38,0,0,0-.1,0,18.58,18.58,0,0,0-2.09.6l-.15,0-.12,0-.08,0c-6.88,2.38-23.62,10.82-47,40.06a9.78,9.78,0,0,0-1.13,10.47A37.42,37.42,0,0,0,687.6,731.3l.74,0c.25,0,.51,0,.77,0h36.31c.39-23.14.67-43.27.84-57.07.08-6.1.13-10.95.17-14.29s.06-5.18.06-5.18h-.07A143.62,143.62,0,0,0,706.24,659.23Z" transform="translate(-390.22 -274.49)"/><path class="cls-2" d="M821.37,661.41a20.11,20.11,0,0,0-3.72-1.07h0a218.75,218.75,0,0,0-24.48-4.9h0c0,.2,0,4.37.08,11.56h0c0,4.61.1,10.47.16,17.31.12,12.76.3,28.95.53,47h39.31c.61,0,1.22,0,1.83-.05a37.48,37.48,0,0,0,31.53-20.36,10.83,10.83,0,0,0-1.27-11.65C843.76,672.36,828.35,664,821.37,661.41Z" transform="translate(-390.22 -274.49)"/><line class="cls-2" x1="341.51" y1="380.72" x2="362.63" y2="456.74"/><line class="cls-2" x1="398.95" y1="380.72" x2="373.61" y2="456.74"/></g><g class="cls-18"><path class="cls-5" d="M739.48,619.48c-.31,6.61-1.26,22.84-3.52,32.35a4.83,4.83,0,0,1-2,2.87l-14.31,10a4.93,4.93,0,0,0,2.09,8.92l73.88,11.06a4.93,4.93,0,0,0,4.72-7.77l-15.8-21.82a5,5,0,0,1-.84-2c-1.15-5.9-6.44-34.62-3.14-46,3.14-10.81-28.71,3.59-38.31,8.13A4.92,4.92,0,0,0,739.48,619.48Z" transform="translate(-390.22 -274.49)"/><path class="cls-6" d="M739.46,620.09s7.72,18.6,22.28,18.19,17.87-16.87,17.87-16.87Z" transform="translate(-390.22 -274.49)"/><path class="cls-7" d="M730.77,605s-4.7-23.47-8-30.58-6-38.82,30.34-40.46c0,0,13.94,1.64,21.6-3,0,0,0,4.65-1.92,6.29a24.16,24.16,0,0,1,22.42,7.93c9.84,10.93-6.56,49.21-5.74,58.23Z" transform="translate(-390.22 -274.49)"/><path class="cls-5" d="M760.07,631.09c-10.54-.18-30-14.23-30-31.62V572.33c0-6.35,4.43-11.55,9.84-11.55H780.2c5.41,0,9.84,5.2,9.84,11.55v25.6C790,616.17,772.17,631.31,760.07,631.09Z" transform="translate(-390.22 -274.49)"/><path class="cls-19" d="M825.87,731.34H689.11l-.69-.77c3.49-31.18,10.85-68.38,16.74-70.85,0,0,.68-.25,2-.66h0a135.08,135.08,0,0,1,19.24-4.24h.07c2.76-.42,5.76-.81,9-1.14a49.43,49.43,0,0,0,7.83,9.3,23.66,23.66,0,0,0,31.63,1.1,60.66,60.66,0,0,0,9-9.87c3,.36,6.06.76,9.19,1.25,7.62,1.17,15.65,2.77,24,4.88,1,.25,2,.5,3,.77h0l1.19.32s.1.41.34,2.86h0C822.22,669.85,823.45,685.9,825.87,731.34Z" transform="translate(-390.22 -274.49)"/><path class="cls-8" d="M706.24,659.23a.38.38,0,0,0-.1,0,18.58,18.58,0,0,0-2.09.6l-.15,0-.12,0-.08,0c-6.88,2.38-23.62,10.82-47,40.06a9.78,9.78,0,0,0-1.13,10.47A37.42,37.42,0,0,0,687.6,731.3l.74,0c.25,0,.51,0,.77,0h36.31c.39-23.14.67-43.27.84-57.07.08-6.1.13-10.95.17-14.29s.06-5.18.06-5.18h-.07A143.62,143.62,0,0,0,706.24,659.23Z" transform="translate(-390.22 -274.49)"/><path class="cls-8" d="M821.37,661.41a20.11,20.11,0,0,0-3.72-1.07h0a218.75,218.75,0,0,0-24.48-4.9h0c0,.2,0,4.37.08,11.56h0c0,4.61.1,10.47.16,17.31.12,12.76.3,28.95.53,47h39.31c.61,0,1.22,0,1.83-.05a37.48,37.48,0,0,0,31.53-20.36,10.83,10.83,0,0,0-1.27-11.65C843.76,672.36,828.35,664,821.37,661.41Z" transform="translate(-390.22 -274.49)"/><line class="cls-9" x1="341.51" y1="380.72" x2="362.63" y2="456.74"/><line class="cls-9" x1="398.95" y1="380.72" x2="373.61" y2="456.74"/></g><path class="cls-12" d="M765.4,709a103.77,103.77,0,0,1-103.49-72.43" transform="translate(-390.22 -274.49)"/><path class="cls-12" d="M839.84,672.52A103.15,103.15,0,0,1,792,704.23" transform="translate(-390.22 -274.49)"/><path class="cls-12" d="M859.72,574.12a103.3,103.3,0,0,1-6.38,78.06" transform="translate(-390.22 -274.49)"/><path class="cls-12" d="M663,570.94a103.73,103.73,0,0,1,133.86-62.88" transform="translate(-390.22 -274.49)"/><g id="magnifier"><circle class="cls-3" cx="820.26" cy="644.24" r="22.32" transform="translate(-502.54 -97.35) rotate(-11.54)"/><rect class="cls-20" x="800.47" y="663.3" width="5.06" height="14.13" transform="matrix(-0.83, -0.55, 0.55, -0.83, 713.14, 1397.85)"/><rect class="cls-21" x="787.59" y="673.94" width="7.67" height="27.86" rx="2.59" transform="translate(682.23 1423.61) rotate(-146.54)"/><path class="cls-21" d="M797.92,629.33a26.86,26.86,0,1,0,37.25-7.43A26.86,26.86,0,0,0,797.92,629.33Zm3.77,2.52a22.33,22.33,0,1,1,6.18,31A22.33,22.33,0,0,1,801.69,631.85Z" transform="translate(-390.22 -274.49)"/><g class="cls-22"><rect x="818.6" y="648.79" width="19.5" height="1.05" transform="translate(-594.35 170.44) rotate(-26.89)"/><rect x="811.39" y="635.44" width="1.05" height="21.55" transform="translate(-607.51 504.2) rotate(-45.85)"/><rect x="799.6" y="633.31" width="1.05" height="8.46" transform="translate(-425.08 954.19) rotate(-73.85)"/><rect x="839.98" y="642.11" width="1.05" height="7.08" transform="translate(-357.94 1056.78) rotate(-77.84)"/><path class="cls-21" d="M834.26,645.47a2.84,2.84,0,1,1,3.35,2.22A2.83,2.83,0,0,1,834.26,645.47Z" transform="translate(-390.22 -274.49)"/><path class="cls-21" d="M816.87,654.29a2.84,2.84,0,1,1,3.35,2.22A2.83,2.83,0,0,1,816.87,654.29Z" transform="translate(-390.22 -274.49)"/><path class="cls-21" d="M801.4,639.29a2.84,2.84,0,1,1,3.35,2.21A2.84,2.84,0,0,1,801.4,639.29Z" transform="translate(-390.22 -274.49)"/></g></g><circle class="cls-14" cx="425.64" cy="317.35" r="4.65"/><circle class="cls-13" cx="272.77" cy="327.45" r="3.8"/><rect class="cls-23" x="414" y="247.54" width="99.78" height="35.12" rx="9.01"/><text class="cls-16" transform="translate(422.91 271.99) scale(0.98 1)">데이터분석가</text><circle class="cls-2" cx="256.24" cy="116.27" r="115.24"/><g class="cls-24"><path class="cls-5" d="M622.79,395.4s-.91,28-4.49,40.56l-28.38,19.8,106.83,16-25.48-35.2s-7.69-37.57-3.66-51.46S622.79,395.4,622.79,395.4Z" transform="translate(-390.22 -274.49)"/><path class="cls-6" d="M622.63,399.27s8.45,20.33,24.36,19.88,19.54-18.44,19.54-18.44Z" transform="translate(-390.22 -274.49)"/><path class="cls-7" d="M651.93,305.15c39.75,1.69,36.76,36.46,33.17,44.23s-6.93,25.69-6.93,25.69l-65.7.94c.9-9.86-17.84-34.31-4.69-54.43a27.33,27.33,0,0,1,22.64-12.84S640.9,304.69,651.93,305.15Z" transform="translate(-390.22 -274.49)"/><path class="cls-5" d="M645.17,411.3c-11.53-.21-32.75-15.56-32.75-34.57V347.06c0-6.94,4.84-12.62,10.76-12.62h44c5.91,0,10.75,5.68,10.75,12.62v28C677.92,395,658.39,411.53,645.17,411.3Z" transform="translate(-390.22 -274.49)"/><path class="cls-7" d="M680.05,352.55s-4.66-5.71-18.77-8.45-50-4.07-45-16.89c11.26-29.1,56-2,59.32,6.33S680.05,352.55,680.05,352.55Z" transform="translate(-390.22 -274.49)"/><path class="cls-8" d="M712.18,444.44l0,0a19.68,19.68,0,0,0-4.55-1.23v.05A280.94,280.94,0,0,0,674.73,437c-1.16-.16-2.32-.29-3.46-.43-7,9.31-12.62,13.56-18.51,16.52-1.31.66-2.63,1.25-4,1.82-1.17.5-2.37,1-3.61,1.47a23.22,23.22,0,0,1-4.54-1.14c-.85-.31-1.68-.66-2.51-1.05-11.29-5.33-19.83-17.87-19.83-18.21-1.58.17-3.12.34-4.6.53a155.37,155.37,0,0,0-26.34,5.37h0c-.82.1-29.91,4.1-74.43,71.37A46.52,46.52,0,0,0,556.68,544h179a46.54,46.54,0,0,0,44-31.32C745.89,461.53,721.77,448,712.18,444.44Z" transform="translate(-390.22 -274.49)"/><path class="cls-19" d="M631.62,552h24.54c-2.58-31.71-5.22-63.41-6.56-79.32-.27-3.29-.49-5.9-.64-7.7h0c2.77-1.95,5.19-5.74,6.57-8.23a1.91,1.91,0,0,0-1.46-2.84c-6.9-.7-18.23.44-18.23.44-3.77.29.08,6.55,4.68,9.87-.18,1.52-.44,3.9-.79,7C638,486.44,634.51,519,631.62,552Z" transform="translate(-390.22 -274.49)"/><path class="cls-8" d="M646.73,453.44s14.08-2.82,15,13.14l12.21-30s1.87-6.57-3.76-10.33Z" transform="translate(-390.22 -274.49)"/><path class="cls-8" d="M644.21,453.44s-16.55-.94-16.25,12.2l-11.9-29.09s-1.88-6.57,3.75-10.33Z" transform="translate(-390.22 -274.49)"/></g><path class="cls-12" d="M553,323.35A115.29,115.29,0,0,1,687.4,283" transform="translate(-390.22 -274.49)"/><path class="cls-12" d="M533.44,413.35a114.67,114.67,0,0,1,5.3-63.53" transform="translate(-390.22 -274.49)"/><path class="cls-12" d="M605.52,498.48a114.83,114.83,0,0,1-63.65-59.35" transform="translate(-390.22 -274.49)"/><path class="cls-12" d="M743.86,329.16a115.26,115.26,0,0,1-37.42,160" transform="translate(-390.22 -274.49)"/><path class="cls-7" d="M649.49,409.7l.21,0c.58-.11,1.16-.25,1.76-.41l.23-.07c.59-.17,1.19-.36,1.79-.58l.23-.08c.61-.23,1.22-.47,1.83-.75l.18-.08c.63-.29,1.26-.6,1.9-.93l.08-.05a43.17,43.17,0,0,0,18.58-20.08c-7.47,5.44-15.21,1-15.21,1H661a12.81,12.81,0,0,0-12.1-8.73h-5.32a12.81,12.81,0,0,0-12.1,8.73h0c-7.05,4.5-17.7-4.59-17.7-4.59l.1.36,0,.13c2.9,8.68,9.72,16.06,16.89,20.8h0l.09.06a41.35,41.35,0,0,0,5.86,3.24l.06,0a28.93,28.93,0,0,0,5.57,1.9l.13,0c.55.12,1.1.22,1.63.29h.15a14,14,0,0,0,1.55.12,17.61,17.61,0,0,0,1.76-.07h.13C648.32,409.89,648.9,409.81,649.49,409.7Z" transform="translate(-390.22 -274.49)"/><path class="cls-3" d="M649.43,390.15h-6.38c-1.47,0-3.33-2.4-3.33-3.86a7,7,0,0,1,3.33-1.46h6.38c1.47,0,3.6,1.21,4,2.08C653.38,386.91,652.49,390.15,649.43,390.15Z" transform="translate(-390.22 -274.49)"/><circle class="cls-13" cx="316.1" cy="94.24" r="7.04"/><circle class="cls-21" cx="169.68" cy="56.47" r="5.16"/><path class="cls-15" d="M732.05,352.47h-3.61v-3.61a.54.54,0,0,0-1.08,0v3.61h-3.61a.55.55,0,0,0-.54.55.54.54,0,0,0,.54.54h3.61v3.61a.54.54,0,1,0,1.08,0v-3.61h3.61a.55.55,0,0,0,.55-.54A.55.55,0,0,0,732.05,352.47Z" transform="translate(-390.22 -274.49)"/><path class="cls-15" d="M578.14,419.11h-3.61V415.5A.55.55,0,0,0,574,415a.54.54,0,0,0-.54.54v3.61h-3.61a.54.54,0,0,0,0,1.08h3.61v3.61a.54.54,0,0,0,.54.54.55.55,0,0,0,.55-.54v-3.61h3.61a.54.54,0,1,0,0-1.08Z" transform="translate(-390.22 -274.49)"/><rect class="cls-10" x="307" y="6.54" width="82.78" height="33.97" rx="9.01"/><text class="cls-16" transform="translate(314.48 29.29) scale(0.98 1)">협업사용자</text></svg>