<svg id="Layer_1" data-name="Layer 1" xmlns="http://www.w3.org/2000/svg" viewBox="0 0 684.78 393"><defs><style>.cls-1{fill:#d9d7e4;}.cls-2{fill:#fff;}.cls-10,.cls-3,.cls-8,.cls-9{fill:none;}.cls-3{stroke:#b4b3bc;stroke-width:2px;}.cls-14,.cls-16,.cls-17,.cls-24,.cls-3,.cls-8,.cls-9{stroke-miterlimit:10;}.cls-4{fill:#5c4799;}.cls-5{fill:#64c3d9;}.cls-20,.cls-24,.cls-6{fill:#aaa;}.cls-7{fill:#e2e2e2;}.cls-24,.cls-8,.cls-9{stroke:#aaa;}.cls-10,.cls-16,.cls-9{stroke-linecap:round;}.cls-10{stroke:#fff;stroke-linejoin:round;stroke-width:1.5px;}.cls-11{fill:#202123;}.cls-12{fill:#ececec;}.cls-13{fill:#dcdcdc;}.cls-14{fill:#d7e2f2;stroke:#a6b4c9;stroke-width:3px;}.cls-15{fill:#ebf5f7;}.cls-16{fill:#f9f9f9;stroke:#b3b5b7;stroke-width:0.5px;}.cls-17{fill:#ffc800;stroke:#ffc800;}.cls-18{fill:#cecece;}.cls-19{fill:#c6c6c6;}.cls-20{font-size:10.15px;font-family:YDIYGO330;}.cls-21{letter-spacing:-0.04em;}.cls-22{letter-spacing:-0.08em;}.cls-23{letter-spacing:-0.14em;}.cls-24{stroke-width:0.1px;}</style></defs><title>1_mail</title><rect class="cls-1" x="1" y="1" width="682.78" height="391" rx="16.67"/><rect class="cls-2" x="14.44" y="38.81" width="652.84" height="340.8" rx="4.5"/><circle class="cls-2" cx="20.08" cy="20.08" r="4.7"/><circle class="cls-2" cx="36.81" cy="20.08" r="4.7"/><circle class="cls-2" cx="53.54" cy="20.08" r="4.7"/><rect class="cls-2" x="75.27" y="15.68" width="188.75" height="8.22" rx="4.11"/><rect class="cls-3" x="1" y="1" width="682.78" height="391" rx="16.67"/><path class="cls-4" d="M395.34,358.21a3.27,3.27,0,0,0,.46-1.67,3.3,3.3,0,1,0-3.3,3.3,3.27,3.27,0,0,0,1.89-.6l4.67,4.68,1-1Z" transform="translate(-368.44 -283)"/><path class="cls-5" d="M400,347.93a3.27,3.27,0,0,1-.46-1.67,3.31,3.31,0,1,1,3.31,3.3,3.22,3.22,0,0,1-1.89-.6l-4.68,4.68-1-1Z" transform="translate(-368.44 -283)"/><path class="cls-4" d="M410.26,354.26a3.31,3.31,0,1,0,2.85-1.62,3.34,3.34,0,0,0-1.9.59l-4.67-4.67-1,1Z" transform="translate(-368.44 -283)"/><path class="cls-5" d="M405.62,364.54a3.27,3.27,0,1,1-.95-1l4.67-4.67,1,1Z" transform="translate(-368.44 -283)"/><path class="cls-5" d="M399.62,357.08a1.34,1.34,0,0,0,.2-.72,1.4,1.4,0,1,0-.6,1.16l2,2,.42-.42Z" transform="translate(-368.44 -283)"/><path class="cls-4" d="M401.6,352.7a1.44,1.44,0,0,1-.2-.72,1.41,1.41,0,1,1,1.41,1.41,1.38,1.38,0,0,1-.8-.25l-2,2-.43-.42Z" transform="translate(-368.44 -283)"/><path class="cls-5" d="M406,355.4a1.42,1.42,0,0,0-.19.71,1.41,1.41,0,1,0,1.4-1.41,1.39,1.39,0,0,0-.8.26l-2-2-.43.42Z" transform="translate(-368.44 -283)"/><path class="cls-4" d="M404,359.78a1.33,1.33,0,0,1,.2.71,1.42,1.42,0,1,1-.6-1.15l2-2,.42.42Z" transform="translate(-368.44 -283)"/><rect class="cls-2" x="24.06" y="164.96" width="20.72" height="17.11" rx="1.91"/><path class="cls-6" d="M392.12,463.16V449.87a2.3,2.3,0,0,1,2.29-2.3h16.9a2.3,2.3,0,0,1,2.3,2.3v13.29a2.3,2.3,0,0,1-2.3,2.29h-16.9A2.3,2.3,0,0,1,392.12,463.16Zm20.72-13.29a1.53,1.53,0,0,0-1.53-1.52h-16.9a1.52,1.52,0,0,0-1.52,1.52v13.29a1.52,1.52,0,0,0,1.52,1.52h16.9a1.53,1.53,0,0,0,1.53-1.52Z" transform="translate(-368.44 -283)"/><path class="cls-7" d="M413.22,451.31H392.5v-1.44a1.92,1.92,0,0,1,1.91-1.91h16.9a1.91,1.91,0,0,1,1.91,1.91Z" transform="translate(-368.44 -283)"/><path class="cls-6" d="M392.12,451.31v-1.44a2.3,2.3,0,0,1,2.29-2.3h16.9a2.3,2.3,0,0,1,2.3,2.3v1.44a.39.39,0,0,1-.39.39H392.5A.38.38,0,0,1,392.12,451.31Zm20.72-1.44a1.53,1.53,0,0,0-1.53-1.52h-16.9a1.52,1.52,0,0,0-1.52,1.52v1.06h19.95Z" transform="translate(-368.44 -283)"/><path class="cls-6" d="M410,449.12v0Z" transform="translate(-368.44 -283)"/><path class="cls-6" d="M409.64,449.12v-2.29a.39.39,0,1,1,.77,0v2.29a.39.39,0,1,1-.77,0Z" transform="translate(-368.44 -283)"/><path class="cls-6" d="M407.16,449.12v0Z" transform="translate(-368.44 -283)"/><path class="cls-6" d="M406.77,449.12v-2.29a.39.39,0,1,1,.78,0v2.29a.39.39,0,1,1-.78,0Z" transform="translate(-368.44 -283)"/><path class="cls-6" d="M404.29,449.12v0Z" transform="translate(-368.44 -283)"/><path class="cls-6" d="M403.91,449.12v-2.29a.39.39,0,1,1,.77,0v2.29a.39.39,0,1,1-.77,0Z" transform="translate(-368.44 -283)"/><path class="cls-6" d="M401.43,449.12v0Z" transform="translate(-368.44 -283)"/><path class="cls-6" d="M401,449.12v-2.29a.4.4,0,0,1,.39-.39.39.39,0,0,1,.38.39v2.29a.38.38,0,0,1-.38.39A.39.39,0,0,1,401,449.12Z" transform="translate(-368.44 -283)"/><path class="cls-6" d="M398.56,449.12v0Z" transform="translate(-368.44 -283)"/><path class="cls-6" d="M398.18,449.12v-2.29a.39.39,0,1,1,.77,0v2.29a.39.39,0,1,1-.77,0Z" transform="translate(-368.44 -283)"/><path class="cls-6" d="M395.7,449.12v0Z" transform="translate(-368.44 -283)"/><path class="cls-6" d="M395.31,449.12v-2.29a.4.4,0,0,1,.39-.39.39.39,0,0,1,.38.39v2.29a.38.38,0,0,1-.38.39A.39.39,0,0,1,395.31,449.12Z" transform="translate(-368.44 -283)"/><path class="cls-8" d="M396.06,507.58l5.89-1.79,7.58-10.08a1.35,1.35,0,0,0-.27-1.88l-1.94-1.45-.32-.24L405.44,491a1.34,1.34,0,0,0-1.87.27L396,501.33l-.07,6.15Z" transform="translate(-368.44 -283)"/><line class="cls-9" x1="27.49" y1="224.58" x2="40.19" y2="224.58"/><rect class="cls-7" x="24.49" y="255.53" width="14.23" height="12.26"/><path class="cls-6" d="M407.16,551.19H392.93a.4.4,0,0,1-.4-.4V538.53a.39.39,0,0,1,.4-.39h14.23a.39.39,0,0,1,.4.39v12.26A.4.4,0,0,1,407.16,551.19Zm-13.83-.8h13.43V538.93H393.33Z" transform="translate(-368.44 -283)"/><rect class="cls-2" x="30.12" y="250.88" width="14.23" height="12.26"/><path class="cls-6" d="M412.79,546.54H398.57a.4.4,0,0,1-.4-.4V533.88a.4.4,0,0,1,.4-.4h14.22a.4.4,0,0,1,.4.4v12.26A.4.4,0,0,1,412.79,546.54Zm-13.83-.8h13.43V534.28H399Z" transform="translate(-368.44 -283)"/><path class="cls-10" d="M520.94,343.52a5.7,5.7,0,1,0-9.28-1.8l-.57,3.59,3.6-.57h0A5.69,5.69,0,0,0,520.94,343.52Z" transform="translate(-368.44 -283)"/><rect class="cls-2" x="24.53" y="122.02" width="19.39" height="13.87" rx="3.2"/><rect class="cls-2" x="24.53" y="122.02" width="19.39" height="13.87" rx="2.43"/><path class="cls-11" d="M410.44,419.37H394.9a2.41,2.41,0,0,1-2.41-2.4v-10a2.41,2.41,0,0,1,2.41-2.4h15.54a2.41,2.41,0,0,1,2.4,2.4v10A2.41,2.41,0,0,1,410.44,419.37ZM394.9,405.5a1.45,1.45,0,0,0-1.45,1.44v10a1.45,1.45,0,0,0,1.45,1.44h15.54a1.45,1.45,0,0,0,1.44-1.44v-10a1.45,1.45,0,0,0-1.44-1.44Z" transform="translate(-368.44 -283)"/><path class="cls-11" d="M402.41,414.44a.47.47,0,0,1-.31-.12l-6.72-5.78a.48.48,0,0,1,.63-.73l6.41,5.52L409,408a.48.48,0,0,1,.61.75l-6.94,5.63A.48.48,0,0,1,402.41,414.44Z" transform="translate(-368.44 -283)"/><line class="cls-11" x1="30.02" y1="130.13" x2="27" y2="133.08"/><path class="cls-11" d="M395.44,416.56a.52.52,0,0,1-.35-.14.49.49,0,0,1,0-.68l3-2.95a.48.48,0,1,1,.67.69l-3,2.94A.43.43,0,0,1,395.44,416.56Z" transform="translate(-368.44 -283)"/><line class="cls-11" x1="38.14" y1="130.13" x2="41.16" y2="133.34"/><path class="cls-11" d="M409.61,416.82a.47.47,0,0,1-.35-.15l-3-3.21a.47.47,0,0,1,0-.68.49.49,0,0,1,.68,0l3,3.21a.49.49,0,0,1,0,.68A.5.5,0,0,1,409.61,416.82Z" transform="translate(-368.44 -283)"/><polygon class="cls-2" points="76.42 290.76 76.44 289.26 83.49 284.86 90.53 289.26 90.53 291.02 76.42 290.76"/><rect class="cls-2" x="90.81" y="56.8" width="301.3" height="11.46" rx="2.46"/><path class="cls-12" d="M758.5,351.38H461.31a2.17,2.17,0,0,1-2.17-2.17v-7.36a2.17,2.17,0,0,1,2.17-2.17H758.5a2.17,2.17,0,0,1,2.17,2.17v7.36A2.17,2.17,0,0,1,758.5,351.38Z" transform="translate(-368.44 -283)"/><path class="cls-2" d="M758.46,348.74l-1.06.81-2-2.59-.72-.95a1.86,1.86,0,0,0,.41-.23,1.69,1.69,0,0,0,.54-.71l.76,1Z" transform="translate(-368.44 -283)"/><path class="cls-2" d="M756.37,342.65a2.89,2.89,0,1,0-.93,4.31,4.53,4.53,0,0,0,.4-.26,2.91,2.91,0,0,0,.53-4.05Zm-1.24,3.13a1.86,1.86,0,0,1-.41.23,1.74,1.74,0,1,1,.95-.94A1.69,1.69,0,0,1,755.13,345.78Z" transform="translate(-368.44 -283)"/><path class="cls-12" d="M1016.42,351.71a6.17,6.17,0,0,1-1.88.78,6.49,6.49,0,1,1,1.88-.78Z" transform="translate(-368.44 -283)"/><path class="cls-2" d="M1015,345.42a2,2,0,1,1-2-2A2,2,0,0,1,1015,345.42Z" transform="translate(-368.44 -283)"/><path class="cls-2" d="M1016.42,350.89v.82a6.17,6.17,0,0,1-1.88.78,6.49,6.49,0,0,1-5-.79v-.81a3.43,3.43,0,0,1,6.85,0Z" transform="translate(-368.44 -283)"/><path class="cls-13" d="M993.87,352.68h-4.53v-1.6a.24.24,0,0,0-.14-.22c-.16-.09-.33-.18-.48-.28a.25.25,0,0,0-.26,0l-1.39.8-2.27-3.91,1.4-.81a.24.24,0,0,0,.11-.23c0-.09,0-.18,0-.28s0-.18,0-.28a.25.25,0,0,0-.11-.23l-1.4-.8,2.27-3.92,1.39.8a.25.25,0,0,0,.26,0c.15-.1.32-.2.49-.29a.23.23,0,0,0,.13-.21v-1.6h4.53v1.6a.25.25,0,0,0,.14.22,4.76,4.76,0,0,1,.49.28.23.23,0,0,0,.26,0l1.39-.8,2.26,3.92-1.4.8a.26.26,0,0,0-.11.23,2.72,2.72,0,0,1,0,.28,2.53,2.53,0,0,1,0,.28.26.26,0,0,0,.11.23l1.4.81-2.26,3.91-1.39-.8a.25.25,0,0,0-.26,0l-.49.28a.24.24,0,0,0-.14.22Zm-3.4-1.13h2.27v-.47a1.37,1.37,0,0,1,.75-1.22,3.64,3.64,0,0,0,.39-.23,1.38,1.38,0,0,1,1.44,0l.41.24,1.14-2-.42-.24a1.37,1.37,0,0,1-.67-1.27v-.44a1.35,1.35,0,0,1,.67-1.26l.42-.24-1.14-2-.41.24a1.34,1.34,0,0,1-1.43-.05l-.39-.22a1.37,1.37,0,0,1-.76-1.22v-.48h-2.27v.48a1.38,1.38,0,0,1-.75,1.22l-.39.22a1.36,1.36,0,0,1-1.44.05l-.41-.24-1.13,2,.41.23a1.4,1.4,0,0,1,.68,1.27v.44a1.39,1.39,0,0,1-.68,1.27l-.41.24,1.13,2,.41-.24a1.38,1.38,0,0,1,1.44,0c.13.08.25.16.39.23a1.36,1.36,0,0,1,.75,1.22Zm1.14-2.07a3.35,3.35,0,1,1,3.34-3.35A3.35,3.35,0,0,1,991.61,349.48Zm0-5.57a2.22,2.22,0,1,0,2.22,2.22A2.22,2.22,0,0,0,991.61,343.91Z" transform="translate(-368.44 -283)"/><path class="cls-14" d="M430.79,412" transform="translate(-368.44 -283)"/><rect class="cls-15" x="61.42" y="115.51" width="586.44" height="23.65" rx="3.03"/><rect class="cls-16" x="79.93" y="123.79" width="7.11" height="7.11" rx="1.45"/><path class="cls-16" d="M485.49,413.89h-6.17a.36.36,0,0,1-.28-.59l2.23-2.73a.36.36,0,0,0,0-.46L479,407.37a.35.35,0,0,1,.28-.58h6.17a.34.34,0,0,1,.28.13l2.61,3.19a.39.39,0,0,1,0,.46l-2.61,3.19A.37.37,0,0,1,485.49,413.89Z" transform="translate(-368.44 -283)"/><path class="cls-17" d="M467.83,407.64l.73,1.48,1.64.24a.48.48,0,0,1,.26.81l-1.19,1.15.28,1.63a.47.47,0,0,1-.68.5l-1.46-.77-1.47.77a.47.47,0,0,1-.68-.5l.28-1.63-1.18-1.15a.47.47,0,0,1,.26-.81l1.63-.24.73-1.48A.48.48,0,0,1,467.83,407.64Z" transform="translate(-368.44 -283)"/><rect class="cls-6" x="125.22" y="125.89" width="56.6" height="2.89" rx="0.81"/><rect class="cls-6" x="396.35" y="125.89" width="227.51" height="2.89" rx="0.81"/><rect class="cls-6" x="199.1" y="125.89" width="175.66" height="2.89" rx="0.81"/><path class="cls-14" d="M430.79,491.09" transform="translate(-368.44 -283)"/><rect class="cls-15" x="61.42" y="194.62" width="586.44" height="23.65" rx="3.03"/><rect class="cls-16" x="79.93" y="202.89" width="7.11" height="7.11" rx="1.45"/><path class="cls-16" d="M485.49,493h-6.17a.36.36,0,0,1-.28-.59l2.23-2.74a.35.35,0,0,0,0-.45L479,486.48a.36.36,0,0,1,.28-.59h6.17a.35.35,0,0,1,.28.14l2.61,3.19a.38.38,0,0,1,0,.45l-2.61,3.2A.37.37,0,0,1,485.49,493Z" transform="translate(-368.44 -283)"/><path class="cls-17" d="M467.83,486.75l.73,1.48,1.64.24a.48.48,0,0,1,.26.81l-1.19,1.15.28,1.63a.47.47,0,0,1-.68.49l-1.46-.76-1.47.76a.47.47,0,0,1-.68-.49l.28-1.63-1.18-1.15a.47.47,0,0,1,.26-.81l1.63-.24.73-1.48A.48.48,0,0,1,467.83,486.75Z" transform="translate(-368.44 -283)"/><rect class="cls-6" x="125.22" y="205" width="56.6" height="2.89" rx="0.81"/><rect class="cls-6" x="396.35" y="205" width="174.67" height="2.89" rx="0.81"/><rect class="cls-6" x="199.1" y="205" width="175.66" height="2.89" rx="0.81"/><path class="cls-14" d="M430.79,530.87" transform="translate(-368.44 -283)"/><rect class="cls-2" x="61.42" y="234.4" width="586.44" height="23.65" rx="3.03"/><rect class="cls-16" x="79.93" y="242.67" width="7.11" height="7.11" rx="1.45"/><path class="cls-16" d="M485.49,532.78h-6.17a.36.36,0,0,1-.28-.59l2.23-2.74a.35.35,0,0,0,0-.45L479,526.26a.36.36,0,0,1,.28-.59h6.17a.37.37,0,0,1,.28.13l2.61,3.2a.37.37,0,0,1,0,.45l-2.61,3.19A.35.35,0,0,1,485.49,532.78Z" transform="translate(-368.44 -283)"/><path class="cls-17" d="M467.83,526.53l.73,1.48,1.64.24a.47.47,0,0,1,.26.8l-1.19,1.16.28,1.62a.47.47,0,0,1-.68.5l-1.46-.77-1.47.77a.47.47,0,0,1-.68-.5l.28-1.62-1.18-1.16a.47.47,0,0,1,.26-.8l1.63-.24.73-1.48A.48.48,0,0,1,467.83,526.53Z" transform="translate(-368.44 -283)"/><rect class="cls-6" x="125.22" y="244.78" width="56.6" height="2.89" rx="0.81"/><rect class="cls-6" x="396.35" y="244.78" width="77.8" height="2.89" rx="0.81"/><rect class="cls-6" x="199.1" y="244.78" width="175.66" height="2.89" rx="0.81"/><path class="cls-14" d="M430.79,554.65" transform="translate(-368.44 -283)"/><rect class="cls-15" x="61.42" y="258.17" width="586.44" height="23.65" rx="3.03"/><rect class="cls-16" x="79.93" y="266.45" width="7.11" height="7.11" rx="1.45"/><path class="cls-16" d="M485.49,556.55h-6.17A.35.35,0,0,1,479,556l2.23-2.74a.36.36,0,0,0,0-.46L479,550a.35.35,0,0,1,.28-.58h6.17a.37.37,0,0,1,.28.13l2.61,3.19a.39.39,0,0,1,0,.46l-2.61,3.19A.37.37,0,0,1,485.49,556.55Z" transform="translate(-368.44 -283)"/><path class="cls-17" d="M467.83,550.31l.73,1.48,1.64.23a.48.48,0,0,1,.26.81L469.27,554l.28,1.63a.47.47,0,0,1-.68.5l-1.46-.77-1.47.77a.47.47,0,0,1-.68-.5l.28-1.63-1.18-1.15a.48.48,0,0,1,.26-.81l1.63-.23.73-1.48A.47.47,0,0,1,467.83,550.31Z" transform="translate(-368.44 -283)"/><rect class="cls-18" x="125.22" y="268.56" width="56.6" height="2.89" rx="0.81"/><rect class="cls-18" x="396.35" y="268.56" width="192.29" height="2.89" rx="0.81"/><rect class="cls-18" x="199.1" y="268.56" width="175.66" height="2.89" rx="0.81"/><path class="cls-14" d="M430.79,578.42" transform="translate(-368.44 -283)"/><rect class="cls-2" x="61.42" y="281.95" width="586.44" height="23.65" rx="3.03"/><rect class="cls-16" x="79.93" y="290.22" width="7.11" height="7.11" rx="1.45"/><path class="cls-16" d="M485.49,580.33h-6.17a.36.36,0,0,1-.28-.59l2.23-2.74a.35.35,0,0,0,0-.45L479,573.81a.36.36,0,0,1,.28-.59h6.17a.35.35,0,0,1,.28.14l2.61,3.19a.38.38,0,0,1,0,.45l-2.61,3.2A.37.37,0,0,1,485.49,580.33Z" transform="translate(-368.44 -283)"/><path class="cls-17" d="M467.83,574.08l.73,1.48,1.64.24a.48.48,0,0,1,.26.81l-1.19,1.15.28,1.63a.47.47,0,0,1-.68.5l-1.46-.77-1.47.76a.47.47,0,0,1-.68-.49l.28-1.63-1.18-1.15a.47.47,0,0,1,.26-.81l1.63-.24.73-1.48A.48.48,0,0,1,467.83,574.08Z" transform="translate(-368.44 -283)"/><rect class="cls-6" x="125.22" y="292.33" width="56.6" height="2.89" rx="0.81"/><rect class="cls-6" x="396.35" y="292.33" width="130.64" height="2.89" rx="0.81"/><rect class="cls-6" x="199.1" y="292.33" width="175.66" height="2.89" rx="0.81"/><path class="cls-14" d="M430.79,602.2" transform="translate(-368.44 -283)"/><rect class="cls-15" x="61.42" y="305.73" width="586.44" height="23.65" rx="3.03"/><rect class="cls-16" x="79.93" y="314" width="7.11" height="7.11" rx="1.45"/><path class="cls-16" d="M485.49,604.11h-6.17a.36.36,0,0,1-.28-.59l2.23-2.74a.35.35,0,0,0,0-.45L479,597.59a.36.36,0,0,1,.28-.59h6.17a.37.37,0,0,1,.28.13l2.61,3.2a.38.38,0,0,1,0,.45L485.77,604A.35.35,0,0,1,485.49,604.11Z" transform="translate(-368.44 -283)"/><path class="cls-17" d="M467.83,597.86l.73,1.48,1.64.24a.47.47,0,0,1,.26.8l-1.19,1.16.28,1.62a.47.47,0,0,1-.68.5l-1.46-.77-1.47.77a.47.47,0,0,1-.68-.5l.28-1.62-1.18-1.16a.47.47,0,0,1,.26-.8l1.63-.24.73-1.48A.48.48,0,0,1,467.83,597.86Z" transform="translate(-368.44 -283)"/><rect class="cls-18" x="125.22" y="316.11" width="56.6" height="2.89" rx="0.81"/><rect class="cls-18" x="396.35" y="316.11" width="201.09" height="2.89" rx="0.81"/><rect class="cls-18" x="199.1" y="316.11" width="175.66" height="2.89" rx="0.81"/><path class="cls-14" d="M430.79,626" transform="translate(-368.44 -283)"/><rect class="cls-2" x="61.42" y="329.5" width="586.44" height="23.65" rx="3.03"/><rect class="cls-16" x="79.93" y="337.78" width="7.11" height="7.11" rx="1.45"/><path class="cls-16" d="M485.49,627.88h-6.17a.35.35,0,0,1-.28-.58l2.23-2.74a.36.36,0,0,0,0-.46L479,621.37a.36.36,0,0,1,.28-.59h6.17a.37.37,0,0,1,.28.13l2.61,3.19a.39.39,0,0,1,0,.46l-2.61,3.19A.34.34,0,0,1,485.49,627.88Z" transform="translate(-368.44 -283)"/><path class="cls-17" d="M467.83,621.64l.73,1.48,1.64.24a.47.47,0,0,1,.26.8l-1.19,1.15.28,1.63a.47.47,0,0,1-.68.5l-1.46-.77-1.47.77a.47.47,0,0,1-.68-.5l.28-1.63-1.18-1.15a.47.47,0,0,1,.26-.8l1.63-.24.73-1.48A.48.48,0,0,1,467.83,621.64Z" transform="translate(-368.44 -283)"/><rect class="cls-6" x="125.22" y="339.89" width="56.6" height="2.89" rx="0.81"/><rect class="cls-6" x="396.35" y="339.89" width="95.42" height="2.89" rx="0.81"/><rect class="cls-6" x="199.1" y="339.89" width="175.66" height="2.89" rx="0.81"/><rect class="cls-13" x="102.82" y="94.17" width="79" height="8.47"/><rect class="cls-13" x="79.93" y="94.17" width="10.76" height="8.47"/><path class="cls-2" d="M459.15,377.17c-.43.47-.88.92-1.32,1.38l-1.33,1.35c-.46.47-.93.93-1.39,1.39,0,0,0,0,0,0l-1.25,1.21-.06.06-.06-.06-1.24-1.21,0,0L451,379.9l-1.33-1.35c-.43-.46-.88-.91-1.31-1.38.46.4.91.83,1.37,1.24l1.37,1.26c.5.47,1,.95,1.51,1.44h0l1.13,1.08,1.13-1.08h0c.5-.48,1-1,1.51-1.43l1.36-1.26C458.23,378,458.69,377.57,459.15,377.17Z" transform="translate(-368.44 -283)"/><path class="cls-2" d="M452.65,381.09l0,0-.17.22c-.27.35-.54.68-.82,1s-.7.79-1.05,1.17-.71.74-1.08,1.1-.73.71-1.11,1c.33-.44.67-.85,1-1.25l1-1.17c.35-.38.71-.75,1.07-1.1s.59-.57.89-.83l.21-.18Z" transform="translate(-368.44 -283)"/><path class="cls-2" d="M459.12,385.64c-.38-.32-.74-.67-1.11-1s-.72-.73-1.07-1.1-.71-.77-1.05-1.17-.56-.66-.82-1l-.18-.22v0h0l.21.19c.3.26.59.54.88.83s.72.72,1.08,1.1.7.77,1,1.17S458.8,385.2,459.12,385.64Z" transform="translate(-368.44 -283)"/><rect class="cls-13" x="235.77" y="94.17" width="79" height="8.47"/><path class="cls-13" d="M586.2,380a1.79,1.79,0,1,1-1.79-1.79A1.8,1.8,0,0,1,586.2,380Z" transform="translate(-368.44 -283)"/><path class="cls-13" d="M587.51,385v.66h-6.2V385a3.1,3.1,0,0,1,6.2,0Z" transform="translate(-368.44 -283)"/><path class="cls-13" d="M590.79,379a1.79,1.79,0,1,1-1.79-1.79A1.8,1.8,0,0,1,590.79,379Z" transform="translate(-368.44 -283)"/><path class="cls-13" d="M592.1,383.9v.66h-6.2v-.66a3.1,3.1,0,0,1,6.2,0Z" transform="translate(-368.44 -283)"/><rect class="cls-13" x="368.73" y="94.17" width="79" height="8.47"/><path class="cls-13" d="M725.05,377.18H714.29v8.46h10.76l3.22-4.23Zm.09,4.87a.64.64,0,0,1-.64-.64.64.64,0,1,1,.64.64Z" transform="translate(-368.44 -283)"/><rect class="cls-3" x="14.21" y="38.85" width="652.84" height="340.8" rx="4.5"/><rect class="cls-19" x="155.24" y="149.05" width="56.6" height="2.89" rx="0.81"/><path class="cls-19" d="M382.18,149.05H583.44a1.45,1.45,0,0,1,1.45,1.45v0a1.45,1.45,0,0,1-1.45,1.45H382.18a.81.81,0,0,1-.81-.81v-1.27A.81.81,0,0,1,382.18,149.05Z"/><rect class="cls-19" x="230.12" y="149.05" width="135.66" height="2.89" rx="0.81"/><text class="cls-20" transform="translate(135.65 152.52)"><tspan class="cls-21">R</tspan><tspan class="cls-22" x="5.9" y="0">e</tspan><tspan class="cls-23" x="10.69" y="0"> </tspan><tspan x="12.83" y="0">:</tspan></text><rect class="cls-19" x="174.24" y="163.05" width="56.6" height="2.89" rx="0.81"/><path class="cls-19" d="M401.18,163.05H562.44a1.45,1.45,0,0,1,1.45,1.45v0a1.45,1.45,0,0,1-1.45,1.45H401.18a.81.81,0,0,1-.81-.81v-1.27a.81.81,0,0,1,.81-.81Z"/><rect class="cls-19" x="249.12" y="163.05" width="135.66" height="2.89" rx="0.81"/><text class="cls-20" transform="translate(154.65 166.52)"><tspan class="cls-21">R</tspan><tspan class="cls-22" x="5.9" y="0">e</tspan><tspan class="cls-23" x="10.69" y="0"> </tspan><tspan x="12.83" y="0">:</tspan></text><rect class="cls-19" x="193.24" y="178.05" width="56.6" height="2.89" rx="0.81"/><path class="cls-19" d="M370.18,178.05H591.44a1.45,1.45,0,0,1,1.45,1.45v0a1.45,1.45,0,0,1-1.45,1.45H370.18a.81.81,0,0,1-.81-.81v-1.27a.81.81,0,0,1,.81-.81Z"/><rect class="cls-19" x="268.12" y="178.05" width="85.66" height="2.89" rx="0.81"/><text class="cls-20" transform="translate(173.65 181.52)"><tspan class="cls-21">R</tspan><tspan class="cls-22" x="5.9" y="0">e</tspan><tspan class="cls-23" x="10.69" y="0"> </tspan><tspan x="12.83" y="0">:</tspan></text><path class="cls-24" d="M494.18,436.48a1.49,1.49,0,0,1-.21-2.09l4.11-5a1,1,0,0,1,1.61,1.31l-3.37,4.14a.25.25,0,0,1-.34,0,.24.24,0,0,1,0-.33l3.37-4.14a.56.56,0,1,0-.87-.71l-4.11,5A1,1,0,0,0,495.9,436l4.71-5.78a1.58,1.58,0,0,0-.23-2.19l0,0a1.45,1.45,0,0,0-1.09-.33,1.47,1.47,0,0,0-1,.54l-4,4.91a.24.24,0,1,1-.37-.3l4-4.91a2,2,0,0,1,2.77-.28l0,0a2,2,0,0,1,.29,2.85l-4.71,5.78A1.49,1.49,0,0,1,494.18,436.48Z" transform="translate(-368.44 -283)"/><rect class="cls-19" x="155.24" y="226.05" width="56.6" height="2.89" rx="0.81"/><path class="cls-19" d="M382.18,226.05H583.44a1.45,1.45,0,0,1,1.45,1.45v0a1.45,1.45,0,0,1-1.45,1.45H382.18a.81.81,0,0,1-.81-.81v-1.27a.81.81,0,0,1,.81-.81Z"/><rect class="cls-19" x="230.12" y="226.05" width="135.66" height="2.89" rx="0.81"/><text class="cls-20" transform="translate(135.65 229.52)"><tspan class="cls-21">R</tspan><tspan class="cls-22" x="5.9" y="0">e</tspan><tspan class="cls-23" x="10.69" y="0"> </tspan><tspan x="12.83" y="0">:</tspan></text><path class="cls-24" d="M494.18,513.48a1.49,1.49,0,0,1-.21-2.09l4.11-5a1,1,0,0,1,1.61,1.31l-3.37,4.14a.25.25,0,0,1-.34,0,.24.24,0,0,1,0-.33l3.37-4.14a.56.56,0,0,0-.87-.71l-4.11,5A1,1,0,1,0,495.9,513l4.71-5.78a1.58,1.58,0,0,0-.23-2.19l0,0a1.45,1.45,0,0,0-1.09-.33,1.47,1.47,0,0,0-1,.54l-4,4.91a.24.24,0,1,1-.37-.3l4-4.91a2,2,0,0,1,2.77-.28l0,0a2,2,0,0,1,.29,2.85l-4.71,5.78A1.49,1.49,0,0,1,494.18,513.48Z" transform="translate(-368.44 -283)"/></svg>