<svg id="Layer_1" data-name="Layer 1" xmlns="http://www.w3.org/2000/svg" viewBox="0 0 686 472.72"><defs><style>.cls-1{fill:#fff;}.cls-10,.cls-2{fill:#64c3d9;}.cls-12,.cls-16,.cls-3,.cls-6{fill:none;stroke-linecap:round;stroke-linejoin:round;}.cls-10,.cls-12,.cls-15,.cls-16,.cls-3{stroke:#202123;}.cls-11,.cls-3{stroke-width:2px;}.cls-4{font-size:19px;fill:#202123;font-family:NotoSansCJKkr-Bold-KSCpc-EUC-H, Noto Sans CJK KR;}.cls-11,.cls-5{fill:#f9f9f9;}.cls-6{stroke:#d3d3d3;}.cls-7{font-size:12px;fill:#aaa;font-family:NotoSansCJKkr-Regular-KSCpc-EUC-H, Noto Sans CJK KR;}.cls-8{fill:#b3b5b7;}.cls-9{fill:#ddd;}.cls-10,.cls-11,.cls-15{stroke-miterlimit:10;}.cls-11{stroke:#000;}.cls-12{stroke-width:1.5px;}.cls-13{fill:#999;}.cls-14{fill:#bfbfbf;}.cls-15{fill:#f5c43c;}</style></defs><title>3_timeline</title><rect class="cls-1" x="79.47" y="1" width="493.63" height="470.72" rx="9.21"/><path class="cls-2" d="M1607.64,335.14h-494V294.48A10.33,10.33,0,0,1,1124,284.14H1597.3a10.34,10.34,0,0,1,10.34,10.34Z" transform="translate(-1034.04 -283)"/><rect class="cls-3" x="79.47" y="1" width="493.63" height="470.72" rx="9.69"/><text class="cls-4" transform="translate(291.57 38.36)">타임라인</text><rect class="cls-5" x="96.64" y="171.33" width="457.09" height="81.03" rx="2.94"/><rect class="cls-6" x="96.64" y="171.33" width="457.09" height="81.03" rx="2.94"/><text class="cls-7" transform="translate(430.5 208.61)">2021.06.01 수요일</text><text class="cls-7" transform="translate(479.63 223.61)">12:00:25</text><rect class="cls-5" x="96.47" y="269.98" width="457.09" height="81.03" rx="2.94"/><rect class="cls-6" x="96.47" y="269.98" width="457.09" height="81.03" rx="2.94"/><rect class="cls-5" x="96.3" y="368.62" width="457.09" height="81.03" rx="2.94"/><rect class="cls-6" x="96.3" y="368.62" width="457.09" height="81.03" rx="2.94"/><rect class="cls-8" x="106.97" y="181.36" width="114.86" height="12.46" rx="6.23"/><rect class="cls-8" x="106.97" y="279.36" width="291.86" height="12.46" rx="6.23"/><rect class="cls-8" x="106.97" y="378.36" width="182.86" height="12.46" rx="6.23"/><rect class="cls-9" x="112.97" y="198.72" width="209.53" height="5.44" rx="1.69"/><rect class="cls-9" x="112.97" y="209.5" width="185.58" height="5.44" rx="1.86"/><rect class="cls-9" x="112.97" y="220.27" width="144.87" height="5.44" rx="1.69"/><rect class="cls-9" x="112.97" y="297.72" width="209.53" height="5.44" rx="1.69"/><rect class="cls-9" x="112.97" y="308.5" width="261.58" height="5.44" rx="1.86"/><text class="cls-7" transform="translate(429.83 303.95)">2021.05.31 화요일</text><text class="cls-7" transform="translate(476.47 318.95)">09:00:45</text><text class="cls-7" transform="translate(429.83 404.95)">2021.05.31 화요일</text><text class="cls-7" transform="translate(478.96 419.95)">06:00:50</text><circle class="cls-10" cx="410.04" cy="115.78" r="3.48"/><path class="cls-11" d="M1108.05,506.59l-13.81-7.94a2.28,2.28,0,0,0-3.42,2v6.3a1.63,1.63,0,0,1-1.64,1.64h-51.51a2.63,2.63,0,0,0-2.63,2.63v10.5a2.62,2.62,0,0,0,2.63,2.62h51.51a1.64,1.64,0,0,1,1.64,1.64v6.41a2.28,2.28,0,0,0,3.42,2l13.79-7.94,13.79-7.94a2.27,2.27,0,0,0,0-3.94Z" transform="translate(-1034.04 -283)"/><rect class="cls-5" x="228.16" y="71.02" width="457.09" height="81.03" rx="2.94"/><rect class="cls-12" x="228.16" y="71.02" width="457.09" height="81.03" rx="2.94"/><rect class="cls-13" x="236.97" y="82.36" width="114.86" height="12.46" rx="6.23"/><rect class="cls-14" x="242.97" y="99.72" width="41.94" height="9.09" rx="4.55"/><text class="cls-7" transform="translate(560.99 107.81)">2021.06.01 수요일</text><text class="cls-7" transform="translate(610.12 122.81)">14:00:00</text><circle class="cls-15" cx="239.1" cy="166.44" r="3.48"/><circle class="cls-10" cx="131.04" cy="69.78" r="3.48"/><line class="cls-16" x1="157.94" y1="148.92" x2="165.78" y2="148.92"/><line class="cls-16" x1="161.86" y1="145" x2="161.86" y2="152.84"/><path class="cls-3" d="M1273.5,309.5l-77.75,77.75a11.66,11.66,0,0,0,0,16.5l76.75,76.75" transform="translate(-1034.04 -283)"/></svg>