<?xml version="1.0" encoding="utf-8"?>
<!-- Generator: Adobe Illustrator 25.4.0, SVG Export Plug-In . SVG Version: 6.00 Build 0)  -->
<svg version="1.1" id="Layer_1" xmlns="http://www.w3.org/2000/svg" xmlns:xlink="http://www.w3.org/1999/xlink" x="0px" y="0px"
	 viewBox="0 0 285.3 203" style="enable-background:new 0 0 285.3 203;" xml:space="preserve">
<style type="text/css">
	.st0{fill:#F9F9F9;stroke:#000000;stroke-width:2;stroke-miterlimit:10;}
	.st1{fill:#1A2E35;}
	.st2{fill:none;stroke:#474A4F;stroke-width:2;stroke-linecap:round;stroke-linejoin:round;}
	.st3{fill:#89A6F5;}
	.st4{fill:#E1E1E1;}
	.st5{fill:#F53B69;}
	.st6{fill:none;stroke:#000000;stroke-width:2;stroke-linecap:round;stroke-linejoin:round;}
	.st7{fill:#F9F9F9;stroke:#202123;stroke-width:2;stroke-linecap:round;stroke-linejoin:round;}
	.st8{fill:#F53B69;stroke:#000000;stroke-width:2;stroke-miterlimit:10;}
	.st9{fill:#89A6F5;stroke:#000000;stroke-width:2;stroke-linecap:round;stroke-linejoin:round;}
	.st10{fill:#FF735D;}
	.st11{fill:#F5C43C;stroke:#000000;stroke-width:2;stroke-miterlimit:10;}
	.st12{fill:none;stroke:#AAAAAA;stroke-width:2;stroke-linecap:round;stroke-linejoin:round;}
	.st13{font-family:'YDIYGO330';}
	.st14{font-size:10.33px;}
</style>
<path class="st0" d="M3,96.7v92.8c0,4.3,3.5,7.8,7.8,7.8h218.8c4.3,0,7.8-3.5,7.8-7.8v0V96.7c0-4.3-3.5-7.8-7.8-7.8l0,0H10.8
	C6.5,88.9,3,92.3,3,96.7z"/>
<path class="st1" d="M19.5,163.7v3.4h-0.3V164h-0.8v-0.3H19.5z"/>
<path class="st1" d="M20.3,165.4c0-1.1,0.6-1.7,1.4-1.7s1.4,0.6,1.4,1.7s-0.6,1.7-1.4,1.7S20.3,166.5,20.3,165.4z M22.7,165.4
	c0-0.9-0.4-1.4-1-1.4s-1,0.5-1,1.4s0.4,1.4,1,1.4S22.7,166.3,22.7,165.4L22.7,165.4z"/>
<path class="st1" d="M20.9,145.5v0.3h-2.4v-0.2l1.4-1.4c0.4-0.4,0.5-0.6,0.5-0.8c0-0.4-0.3-0.6-0.8-0.6c-0.4,0-0.7,0.1-0.9,0.4
	l-0.2-0.2c0.3-0.3,0.8-0.5,1.2-0.5c0.7,0,1.1,0.4,1.1,0.9c0,0.4-0.2,0.8-0.6,1.1l-1.2,1.1H20.9z"/>
<path class="st1" d="M21.3,144.2c0-1.1,0.6-1.7,1.4-1.7s1.4,0.6,1.4,1.7s-0.6,1.7-1.4,1.7S21.3,145.2,21.3,144.2z M23.7,144.2
	c0-0.9-0.4-1.4-1-1.4s-1,0.5-1,1.4s0.4,1.4,1,1.4S23.7,145.1,23.7,144.2L23.7,144.2z"/>
<path class="st1" d="M20.8,123.6c0,0.6-0.4,1-1.2,1c-0.5,0-0.9-0.1-1.2-0.4l0.2-0.3c0.3,0.3,0.7,0.4,1.1,0.4c0.6,0,0.9-0.3,0.9-0.7
	s-0.3-0.7-0.9-0.7h-0.2v-0.3l0.9-1.2h-1.8v-0.3h2.2v0.2l-1,1.2C20.5,122.7,20.8,123.1,20.8,123.6z"/>
<path class="st1" d="M21.3,122.9c0-1.1,0.6-1.7,1.4-1.7s1.4,0.6,1.4,1.7s-0.6,1.7-1.4,1.7S21.3,124,21.3,122.9z M23.7,122.9
	c0-0.9-0.4-1.4-1-1.4s-1,0.5-1,1.4s0.4,1.4,1,1.4S23.7,123.8,23.7,122.9L23.7,122.9z"/>
<path class="st1" d="M34.6,176.7c0-1.1,0.6-1.7,1.4-1.7s1.4,0.6,1.4,1.7s-0.6,1.7-1.4,1.7S34.6,177.7,34.6,176.7z M37,176.7
	c0-0.9-0.4-1.4-1-1.4s-1,0.5-1,1.4s0.4,1.4,1,1.4S37,177.5,37,176.7z"/>
<path class="st1" d="M59.9,174.9v3.4h-0.4v-3.1h-0.8v-0.3L59.9,174.9z"/>
<path class="st1" d="M86.6,178.1v0.3h-2.4v-0.2l1.4-1.4c0.4-0.4,0.5-0.6,0.5-0.9c0-0.4-0.3-0.6-0.8-0.6c-0.4,0-0.7,0.1-0.9,0.4
	l-0.2-0.2c0.3-0.3,0.8-0.5,1.2-0.5c0.7,0,1.1,0.4,1.1,0.9c0,0.4-0.2,0.8-0.6,1.1l-1.2,1.1H86.6z"/>
<path class="st1" d="M111.9,177.4c0,0.6-0.4,1-1.2,1c-0.5,0-0.9-0.1-1.2-0.4l0.2-0.3c0.3,0.3,0.7,0.4,1.1,0.4c0.6,0,0.9-0.3,0.9-0.7
	s-0.3-0.7-0.9-0.7h-0.2v-0.3l0.9-1.2h-1.8v-0.3h2.2v0.2l-1,1.2C111.5,176.4,111.9,176.8,111.9,177.4z"/>
<path class="st1" d="M137.8,177.5h-0.7v0.9h-0.4v-0.9h-1.9v-0.2l1.8-2.3h0.4l-1.8,2.2h1.5v-0.8h0.3v0.8h0.7L137.8,177.5z"/>
<path class="st1" d="M162.5,177.3c0,0.6-0.4,1-1.2,1c-0.5,0-0.9-0.1-1.2-0.4l0.2-0.3c0.3,0.3,0.6,0.4,1,0.4c0.6,0,0.9-0.3,0.9-0.7
	s-0.3-0.7-1.1-0.7h-0.7l0.2-1.7h1.9v0.3h-1.6l-0.1,1.1h0.4C162.2,176.3,162.5,176.8,162.5,177.3z"/>
<path class="st1" d="M188.1,177.3c0,0.6-0.5,1.1-1.1,1.1c0,0-0.1,0-0.1,0c-0.9,0-1.4-0.6-1.4-1.7s0.6-1.8,1.6-1.8
	c0.3,0,0.6,0,0.8,0.2l-0.1,0.3c-0.2-0.1-0.4-0.2-0.7-0.2c-0.7,0-1.2,0.5-1.2,1.4c0,0.1,0,0.2,0,0.3c0.2-0.4,0.6-0.6,1-0.6
	c0.5-0.1,1.1,0.2,1.2,0.8C188.1,177.2,188.1,177.2,188.1,177.3z M187.8,177.3c0-0.5-0.3-0.7-0.9-0.7c-0.4-0.1-0.8,0.3-0.9,0.7
	c0,0,0,0,0,0.1c0,0.4,0.3,0.7,0.9,0.7C187.3,178.1,187.7,177.8,187.8,177.3C187.7,177.4,187.7,177.4,187.8,177.3L187.8,177.3z"/>
<path class="st1" d="M213.3,174.9v0.2l-1.4,3.2h-0.4l1.4-3.1h-1.8v0.6h-0.3v-1L213.3,174.9z"/>
<line class="st2" x1="37.7" y1="165.6" x2="214.8" y2="165.6"/>
<path class="st3" d="M38.9,165.6c0,0.6-0.5,1.1-1.1,1.1c-0.6,0-1.1-0.5-1.1-1.1c0-0.6,0.5-1.1,1.1-1.1
	C38.3,164.4,38.9,164.9,38.9,165.6C38.9,165.6,38.9,165.6,38.9,165.6z"/>
<path class="st3" d="M64.1,165.6c0,0.6-0.5,1.1-1.1,1.1c-0.6,0-1.1-0.5-1.1-1.1c0-0.6,0.5-1.1,1.1-1.1
	C63.6,164.4,64.1,165,64.1,165.6z"/>
<path class="st3" d="M89.4,165.6c0,0.6-0.5,1.1-1.1,1.1c-0.6,0-1.1-0.5-1.1-1.1c0-0.6,0.5-1.1,1.1-1.1
	C88.9,164.4,89.4,165,89.4,165.6z"/>
<path class="st3" d="M114.6,165.6c0,0.6-0.5,1.1-1.1,1.1c-0.6,0-1.1-0.5-1.1-1.1c0-0.6,0.5-1.1,1.1-1.1
	C114.1,164.4,114.6,164.9,114.6,165.6C114.6,165.6,114.6,165.6,114.6,165.6z"/>
<path class="st3" d="M139.9,165.6c0,0.6-0.5,1.1-1.1,1.1c-0.6,0-1.1-0.5-1.1-1.1c0-0.6,0.5-1.1,1.1-1.1
	C139.4,164.4,139.9,165,139.9,165.6z"/>
<path class="st3" d="M190.4,165.6c0,0.6-0.5,1.1-1.1,1.1c-0.6,0-1.1-0.5-1.1-1.1c0-0.6,0.5-1.1,1.1-1.1
	C189.9,164.4,190.4,164.9,190.4,165.6C190.4,165.6,190.4,165.6,190.4,165.6z"/>
<path class="st3" d="M165.1,165.6c0,0.6-0.5,1.1-1.1,1.1s-1.1-0.5-1.1-1.1c0-0.6,0.5-1.1,1.1-1.1S165.1,165,165.1,165.6
	C165.1,165.6,165.1,165.6,165.1,165.6z"/>
<path class="st3" d="M215.7,165.6c0,0.6-0.5,1.1-1.1,1.1c-0.6,0-1.1-0.5-1.1-1.1c0-0.6,0.5-1.1,1.1-1.1
	C215.2,164.4,215.7,165,215.7,165.6z"/>
<path class="st4" d="M48.1,165.6c0,0.4-0.3,0.7-0.8,0.8c-0.4,0-0.8-0.3-0.8-0.8s0.3-0.8,0.8-0.8C47.8,164.8,48.1,165.2,48.1,165.6z"
	/>
<path class="st4" d="M73.6,165.6c0,0.4-0.3,0.8-0.8,0.8s-0.8-0.3-0.8-0.8s0.3-0.8,0.8-0.8S73.6,165.2,73.6,165.6z"/>
<path class="st4" d="M99.2,165.6c0,0.4-0.3,0.7-0.8,0.7c-0.4,0-0.7-0.3-0.7-0.8s0.3-0.7,0.8-0.7c0,0,0,0,0,0
	C98.8,164.8,99.2,165.2,99.2,165.6z"/>
<path class="st4" d="M124.7,165.6c0,0.4-0.3,0.7-0.7,0.8c-0.4,0-0.8-0.3-0.8-0.8s0.3-0.8,0.8-0.8
	C124.4,164.8,124.7,165.2,124.7,165.6z"/>
<path class="st4" d="M150.2,165.6c0,0.4-0.3,0.7-0.7,0.8c-0.4,0-0.8-0.3-0.8-0.8s0.3-0.8,0.8-0.8
	C149.9,164.8,150.2,165.2,150.2,165.6z"/>
<path class="st4" d="M175.7,165.6c0,0.4-0.3,0.8-0.8,0.8s-0.8-0.3-0.8-0.8s0.3-0.8,0.8-0.8C175.4,164.8,175.7,165.2,175.7,165.6z"/>
<path class="st4" d="M201.3,165.6c0,0.4-0.3,0.7-0.8,0.8c-0.4,0-0.8-0.3-0.8-0.8s0.3-0.8,0.8-0.8C201,164.8,201.3,165.2,201.3,165.6
	z"/>
<line class="st2" x1="36.6" y1="122.7" x2="213.7" y2="122.7"/>
<line class="st2" x1="37.1" y1="143.7" x2="214.2" y2="143.7"/>
<path class="st5" d="M63.6,156.1c0,1.5-1.2,2.8-2.8,2.8c-1.5,0-2.8-1.2-2.8-2.8s1.2-2.8,2.8-2.8c0,0,0,0,0,0
	C62.4,153.3,63.6,154.6,63.6,156.1L63.6,156.1z"/>
<path class="st5" d="M85.8,143c0,1.5-1.2,2.8-2.8,2.8c-1.5,0-2.8-1.2-2.8-2.8c0-1.5,1.2-2.8,2.8-2.8C84.6,140.2,85.8,141.5,85.8,143
	C85.8,143,85.8,143,85.8,143z"/>
<path class="st5" d="M113.3,144.2c0,1.5-1.2,2.8-2.8,2.8c-1.5,0-2.8-1.2-2.8-2.8s1.2-2.8,2.8-2.8c0,0,0,0,0,0
	C112.1,141.4,113.3,142.7,113.3,144.2z"/>
<path class="st5" d="M140.2,120.4c0,1.5-1.2,2.8-2.8,2.8c-1.5,0-2.8-1.2-2.8-2.8c0-1.5,1.2-2.8,2.8-2.8S140.2,118.9,140.2,120.4
	C140.2,120.4,140.2,120.4,140.2,120.4z"/>
<path class="st5" d="M165.4,135.5c0,1.5-1.2,2.8-2.8,2.8c-1.5,0-2.8-1.2-2.8-2.8c0-1.5,1.2-2.8,2.8-2.8
	C164.1,132.7,165.3,134,165.4,135.5C165.4,135.5,165.4,135.5,165.4,135.5z"/>
<path class="st5" d="M190.7,139.6c0,1.5-1.2,2.8-2.8,2.8c-1.5,0-2.8-1.2-2.8-2.8c0-1.5,1.2-2.8,2.8-2.8c0,0,0,0,0,0
	C189.5,136.8,190.7,138,190.7,139.6C190.7,139.6,190.7,139.6,190.7,139.6z"/>
<path class="st5" d="M214.6,156.1c-0.2,0-0.4,0-0.7,0c-0.6,0-1.3-0.1-1.9-0.2c-2.4-0.5-4.7-1.5-6.6-3.1c-1.3-1.2-2.5-2.6-3.2-4.2
	c-1-1.9-2.1-3.6-3.4-5.3c-1.4-1.9-3.5-3.3-5.8-4c-1.3-0.3-2.6-0.3-3.8,0.1c-1.3,0.4-2.5,1.1-3.5,2c-2.2,1.8-3.8,4.4-5.9,6.7
	c-1,1.3-2.3,2.3-3.8,3c-1.6,0.7-3.3,0.8-5,0.4c-1.7-0.6-3.1-1.8-3.8-3.5c-0.7-1.6-1.3-3.3-1.7-5.1c-0.3-1.8-0.9-3.5-1.5-5.1
	c-0.3-0.8-0.9-1.5-1.6-2c-0.8-0.4-1.7-0.6-2.6-0.5c-1.9,0.2-3.8,0.5-5.6,1c-1,0.2-2,0.3-3,0.3c-1,0-2.1-0.2-3-0.6
	c-1-0.5-1.8-1.1-2.4-2c-0.6-0.9-1.1-1.8-1.4-2.7c-0.8-1.9-1.3-3.9-2.1-5.8c-0.3-0.9-0.8-1.9-1.3-2.7c-0.5-0.8-1.3-1.5-2.2-1.8
	l-0.7-0.2l-0.7-0.1c-0.5,0-0.9,0.1-1.4,0.3c-0.8,0.5-1.5,1.3-2,2.1c-1,1.8-1.8,3.8-2.4,5.9c-0.6,2-1.1,4.1-1.6,6.3
	c-0.8,3.5-1.5,7-2.4,10.4c-0.4,1.7-1,3.4-1.6,5c-0.6,1.7-1.5,3.3-2.7,4.6c-0.7,0.7-1.6,1.1-2.5,1.1c-0.9,0-1.8-0.3-2.6-0.8
	c-1.4-1-2.7-2.2-3.6-3.7c-1.8-2.8-3.2-5.8-4.4-8.9c-1.2-2.9-2.6-5.8-4.9-7.8c-2.2-2-5.3-2.7-8.2-2c-1.4,0.4-2.7,0.9-3.9,1.7
	c-1.2,0.7-2.3,1.6-3.4,2.5c-2.1,1.7-4,3.6-5.7,5.7l0,0l0,0c-2.6,2.6-5.4,4.9-8.4,7c-2.7,1.9-5.6,3.5-8.6,4.7
	c-2.7,1.1-5.5,1.6-8.4,1.4c-2.4-0.3-4.7-0.9-7-1.7c-3.1-1.2-6.2-2.6-9.1-4.2c-1-0.5-1.8-1-2.3-1.3s-0.8-0.5-0.8-0.5l0.8,0.4l2.3,1.2
	c2.9,1.5,6,2.9,9.1,4c2.3,0.8,4.6,1.4,7,1.6c2.8,0.2,5.6-0.3,8.2-1.4c3-1.2,5.9-2.8,8.5-4.7c3-2.1,5.7-4.4,8.3-7l0,0
	c1.7-2.1,3.7-4,5.7-5.8c1.1-0.9,2.2-1.8,3.5-2.5c1.2-0.8,2.6-1.4,4-1.8c3.1-0.8,6.3,0,8.7,2.1c2.4,2.1,3.8,5.1,5.1,8.1
	c1.1,3.1,2.6,6,4.3,8.7c0.9,1.4,2,2.6,3.4,3.5c0.7,0.4,1.5,0.7,2.2,0.7c0.8,0,1.5-0.4,2-0.9c1.1-1.3,2-2.7,2.5-4.4
	c0.6-1.6,1.1-3.3,1.5-5c0.9-3.4,1.6-6.9,2.4-10.4c0.5-2.1,1-4.2,1.6-6.3c0.6-2.1,1.4-4.1,2.4-6c0.5-1,1.3-1.8,2.3-2.4
	c0.5-0.3,1.1-0.4,1.7-0.3l0.8,0.1c0.3,0.1,0.5,0.2,0.8,0.2c1,0.4,1.9,1.2,2.5,2.1c0.6,0.9,1,1.8,1.4,2.8c0.7,1.9,1.3,3.9,2.1,5.7
	s1.8,3.6,3.5,4.4s3.7,0.5,5.6,0.2c1.9-0.5,3.8-0.8,5.7-1c1-0.1,2,0.1,2.9,0.6c0.8,0.5,1.5,1.3,1.9,2.2c0.7,1.7,1.2,3.5,1.5,5.3
	c0.3,1.7,0.9,3.4,1.6,5c0.6,1.5,1.9,2.7,3.5,3.2c1.5,0.4,3.2,0.3,4.6-0.4c1.4-0.7,2.7-1.6,3.7-2.8c2.1-2.3,3.7-4.9,5.9-6.7
	c1.1-0.9,2.3-1.6,3.7-2.1c1.3-0.4,2.7-0.4,4-0.1c2.4,0.7,4.5,2.2,5.9,4.2c1.3,1.7,2.5,3.5,3.4,5.4c0.8,1.6,1.8,3,3.1,4.2
	c1.9,1.6,4.1,2.7,6.5,3.2c0.6,0.1,1.2,0.2,1.9,0.3L214.6,156.1z"/>
<line class="st6" x1="19.3" y1="103.2" x2="63.6" y2="103.2"/>
<path class="st0" d="M169.1,8.1v91.8c0,3.9,3.2,7.1,7.1,7.1h98.6c3.9,0,7.1-3.2,7.1-7.1c0,0,0,0,0,0V8.1c0-3.9-3.2-7.1-7.1-7.1l0,0
	h-98.6C172.2,1,169.1,4.2,169.1,8.1z"/>
<path class="st7" d="M224.9,13c-19.2,0-34.8,15.6-34.8,34.8c0,19.2,15.6,34.8,34.8,34.8c19.2,0,34.8-15.6,34.8-34.8
	C259.7,28.6,244.2,13,224.9,13z M225.5,68.7c-11.8,0-21.4-9.6-21.4-21.4s9.6-21.4,21.4-21.4s21.4,9.6,21.4,21.4c0,0,0,0,0,0
	C246.8,59.1,237.3,68.7,225.5,68.7z"/>
<path class="st8" d="M225.5,13c0,3.7,0,8.7,0,12.9c11.8,0,21.4,9.6,21.4,21.4c0,2.2-0.3,4.3-1,6.4l12.6,3.4
	c5.2-18.5-5.7-37.7-24.2-42.9C231.4,13.5,228.4,13.1,225.5,13L225.5,13z"/>
<path class="st9" d="M204.1,47.3c0-8.4,4.9-16.1,12.6-19.5l-5.3-12c-12.9,5.4-21.3,18.1-21.3,32.1c0,0.5,0,1,0,1.5h14
	C204.1,48.6,204.1,48,204.1,47.3z"/>
<path class="st10" d="M225.5,68.7c-1.5,0-3-0.2-4.5-0.5c-0.5,3.1-1.6,9.1-2.3,13.8c17.7,3.3,35-7.5,39.8-24.8l-12.6-3.4
	C243,62.6,234.8,68.6,225.5,68.7z"/>
<path class="st11" d="M225.5,68.7c-1.5,0-3-0.2-4.5-0.5c-0.5,3.1-1.6,9.1-2.3,13.8c17.7,3.3,35-7.5,39.8-24.8l-12.6-3.4
	C243,62.6,234.8,68.6,225.5,68.7z"/>
<line class="st12" x1="200.7" y1="91.4" x2="249.3" y2="91.4"/>
<line class="st12" x1="213.7" y1="96.8" x2="233.1" y2="96.8"/>
<text transform="matrix(1 0 0 1 216.3247 51.05)" class="st13 st14">50%</text>
</svg>
