<?xml version="1.0" encoding="utf-8"?>
<!-- Generator: Adobe Illustrator 25.4.0, SVG Export Plug-In . SVG Version: 6.00 Build 0)  -->
<svg version="1.1" id="Layer_1" xmlns="http://www.w3.org/2000/svg" xmlns:xlink="http://www.w3.org/1999/xlink" x="0px" y="0px"
	 viewBox="0 0 131.8 134.1" style="enable-background:new 0 0 131.8 134.1;" xml:space="preserve">
<style type="text/css">
	.st0{fill:#FFFFFF;}
	.st1{fill:none;stroke:#202123;stroke-width:2;stroke-linecap:round;stroke-linejoin:round;}
	.st2{fill:#B7B9BD;}
	.st3{fill:#246ABF;}
	.st4{fill:#202123;}
	.st5{fill:#FF0000;}
	.st6{fill:#E70000;}
	.st7{fill:#EF0000;}
	.st8{fill:#F37726;}
	.st9{fill:#616262;}
	.st10{fill:#767677;}
	.st11{fill:#9E9E9E;}
	.st12{fill:#4E4E4E;}
</style>
<circle class="st0" cx="67.1" cy="66.8" r="64.5"/>
<path class="st1" d="M120.3,101.8c-1.3,1.9-2.6,3.8-4.1,5.6c-22.5,27.5-63.1,31.6-90.7,9C5.2,99.7-2.9,72.4,4.9,47.3
	c0,0,3.2-9.8,9.2-17.3"/>
<path class="st1" d="M127.8,85.9c10.7-33.9-8.2-70-42.1-80.7C72.9,1.1,59,1.2,46.2,5.5"/>
<path class="st2" d="M88.3,30.2c-12.6,0-22.8,6.9-22.8,15.4S75.7,61,88.3,61S111,54.1,111,45.6S100.9,30.2,88.3,30.2z M91.4,57.3
	c-9.5,0-17.2-4.7-17.2-10.5s7.7-10.5,17.2-10.5s17.3,4.7,17.3,10.5S100.9,57.3,91.4,57.3z"/>
<path class="st3" d="M100.6,54.2c0,0,6.8,0.6,6.8-6.8s-6.2-7.4-6.2-7.4H84v25.8h8.6v-9.8h3.7c2.6,2.7,4.3,6.2,4.9,9.8h7
	c0.6,0,1.1-0.5,1.1-1.1c0-0.1,0-0.3-0.1-0.4C105.6,55.9,100.6,54.2,100.6,54.2z M100,47.6c0,1.3-1,2.3-2.3,2.3l0,0h-5.1V45h5.1
	c1.3,0,2.3,1,2.3,2.3c0,0,0,0,0,0V47.6z"/>
<path class="st4" d="M24.6,45.7l14.2,2.5l13.7-4.4c0,0,1.4-1.9-1.8-3.8S24.6,45.7,24.6,45.7z"/>
<path class="st4" d="M24.6,59.8l14.2,3.5l13.7-4.4c0,0,1.4-1.9-1.8-3.8S24.6,59.8,24.6,59.8z"/>
<path class="st5" d="M24,36.3v8.3c0,0.6,0.5,1.2,1.2,1.2c0,0,0.1,0,0.1,0c5.2-0.5,24.7-2.8,27.4-6.4c0.2-0.2,0.2-0.4,0.2-0.7V31
	c0-0.7-0.5-1.2-1.2-1.2c-0.2,0-0.3,0-0.5,0.1c-2.4,1.1-4.9,1.9-7.4,2.5c-6.2,1.3-12.4,2.2-18.8,2.7C24.5,35.2,24,35.7,24,36.3z"/>
<path class="st6" d="M24.3,50.2v8.3c0,0.7,0.5,1.2,1.2,1.2c0,0,0.1,0,0.1,0c5.2-0.5,24.7-2.8,27.4-6.4c0.2-0.2,0.2-0.4,0.2-0.7v-7.7
	c0-0.7-0.5-1.2-1.2-1.2c-0.2,0-0.3,0-0.5,0.1c-2.4,1.1-4.9,1.9-7.4,2.5c-6.2,1.5-15.6,2.5-18.8,2.7C24.8,49,24.3,49.6,24.3,50.2z"/>
<path class="st7" d="M24.6,64v8.3c0,0.6,0.5,1.2,1.2,1.2c0,0,0.1,0,0.1,0c5.2-0.5,24.7-2.8,27.4-6.4c0.2-0.2,0.2-0.5,0.2-0.7v-7.7
	c0-0.7-0.5-1.2-1.2-1.2c-0.2,0-0.3,0-0.5,0.1c-2.4,1.1-4.9,1.9-7.4,2.5c-6.2,1.3-12.4,2.2-18.8,2.7C25.1,62.9,24.6,63.4,24.6,64z"/>
<path class="st8" d="M56.9,87.8c-0.1,0.1-0.3,0.1-0.4,0c-0.1-0.1-0.1-0.2,0-0.3c1.8-2.8,6.2-8.5,13.4-8.5c8.7,0,12.9,4.5,15.4,8.9
	c0.1,0.1,0,0.3-0.1,0.3c-0.1,0.1-0.2,0.1-0.3,0c-4.3-3.2-9.4-4.9-14.7-4.8C63.1,83.4,58.8,86.1,56.9,87.8z"/>
<path class="st8" d="M56.9,101.4c-0.1-0.1-0.3-0.1-0.4,0c-0.1,0.1-0.1,0.2,0,0.3c1.8,2.8,6.2,8.5,13.4,8.5c8.7,0,12.9-4.5,15.4-8.9
	c0.1-0.1,0-0.3-0.1-0.3c-0.1-0.1-0.2-0.1-0.3,0c-4.3,3.2-9.4,4.9-14.7,4.8C63.1,105.8,58.8,103,56.9,101.4z"/>
<circle class="st9" cx="56.2" cy="80.7" r="1.7"/>
<circle class="st10" cx="82.3" cy="77.8" r="2.5"/>
<circle class="st11" cx="58.6" cy="112.8" r="3.4"/>
<path class="st12" d="M57,96.1c0,0.6-0.2,1.1-0.6,1.5c-0.9,0.7-2.1,0.7-2.9,0c-0.4-0.4-0.7-0.9-0.6-1.5v-0.6h0.9v0.4
	c0,0.4,0.1,0.7,0.3,1c0.2,0.2,0.5,0.3,0.8,0.3c0.3,0,0.6-0.1,0.8-0.3c0.3-0.3,0.4-0.6,0.3-1v-5.3H57L57,96.1z"/>
<path class="st12" d="M62.1,97.9v-0.7c-0.2,0.2-0.4,0.4-0.7,0.6c-0.3,0.2-0.7,0.3-1.1,0.3c-0.5,0-0.9-0.2-1.3-0.5
	c-0.4-0.4-0.6-0.9-0.6-1.5v-3.5h0.9v3.2c0,0.4,0.1,0.7,0.3,1c0.3,0.2,0.6,0.4,1,0.3c0.4,0,0.7-0.2,1-0.4c0.3-0.3,0.4-0.7,0.4-1.1v-3
	h1v5.2L62.1,97.9z"/>
<path class="st12" d="M69,93.2c0.9,1.2,0.9,2.9,0,4.1c-0.5,0.5-1.1,0.8-1.8,0.8c-0.3,0-0.7-0.1-1-0.2c-0.3-0.1-0.6-0.3-0.8-0.6v2
	h-0.9v-6.7h0.9v0.5c0.2-0.2,0.5-0.4,0.8-0.5c0.3-0.1,0.7-0.2,1-0.2C67.9,92.4,68.5,92.7,69,93.2z M68.3,96.7c0.6-0.9,0.6-2.1,0-3
	c-0.7-0.7-1.7-0.7-2.4,0c0,0,0,0,0,0c-0.6,0.9-0.6,2.1,0,3C66.4,97.4,67.5,97.4,68.3,96.7C68.2,96.8,68.3,96.8,68.3,96.7z"/>
<path class="st12" d="M72.8,98.4c-0.1,0.2-0.2,0.3-0.3,0.5c-0.1,0.1-0.2,0.2-0.4,0.3c-0.1,0.1-0.3,0.1-0.5,0.2c-0.2,0-0.3,0-0.5,0
	h-0.3v-0.8h0.5c0.1,0,0.3-0.1,0.4-0.1c0.1-0.1,0.2-0.2,0.2-0.3l0.2-0.5l-2.2-5h1l1.6,3.8l1.6-3.8h1L72.8,98.4z"/>
<path class="st12" d="M77.6,97.9c-0.2,0-0.3,0-0.5-0.1c-0.1-0.1-0.2-0.2-0.3-0.3c-0.1-0.1-0.2-0.2-0.2-0.4c0-0.2,0-0.4,0-0.6v-3
	h-0.7v-0.8h0.7v-1.6h0.9v1.7h0.8v0.8h-0.8v2.9c0,0.1,0,0.2,0,0.3c0,0.1,0.1,0.2,0.2,0.3c0.1,0.1,0.2,0.1,0.3,0.1c0.1,0,0.2,0,0.3,0
	v0.8L77.6,97.9z"/>
<path class="st12" d="M79.9,95.5c0,0.5,0.2,0.9,0.5,1.3c0.3,0.3,0.7,0.5,1.2,0.5c0.4,0,0.7-0.1,1-0.3c0.2-0.1,0.3-0.3,0.4-0.5h1
	c-0.3,1-1.3,1.6-2.4,1.5c-0.7,0-1.4-0.3-1.9-0.8c-1-1.2-1-2.8,0-4c0.5-0.5,1.2-0.8,1.9-0.8c0.7,0,1.3,0.2,1.8,0.7
	c0.6,0.6,0.9,1.5,0.8,2.3L79.9,95.5z M83.2,94.8c0-0.4-0.2-0.9-0.5-1.2c-0.3-0.3-0.7-0.5-1.2-0.4c-0.4,0-0.8,0.1-1.1,0.4
	c-0.3,0.3-0.5,0.8-0.5,1.2L83.2,94.8z"/>
<path class="st12" d="M87.9,93.4c-0.2,0-0.3,0-0.5,0c-0.1,0-0.3,0.1-0.4,0.1c-0.3,0.1-0.5,0.4-0.7,0.7c-0.2,0.4-0.3,0.8-0.2,1.2v2.5
	h-0.9v-5.2h0.9v0.7h0.1c0.1-0.2,0.2-0.4,0.4-0.5c0.2-0.1,0.4-0.2,0.6-0.3c0.2-0.1,0.3-0.1,0.5-0.1h0.3L87.9,93.4z"/>
</svg>
