<?xml version="1.0" encoding="utf-8"?>
<!-- Generator: Adobe Illustrator 25.4.0, SVG Export Plug-In . SVG Version: 6.00 Build 0)  -->
<svg version="1.1" id="레이어_1" xmlns="http://www.w3.org/2000/svg" xmlns:xlink="http://www.w3.org/1999/xlink" x="0px"
	 y="0px" viewBox="0 0 48.9 63.7" style="enable-background:new 0 0 48.9 63.7;" xml:space="preserve">
<style type="text/css">
	.st0{fill:#F9F9F9;stroke:#000000;stroke-width:2;stroke-miterlimit:10;}
	.st1{fill:#F5C43C;}
</style>
<path class="st0" d="M6.8,1.7h35.4c2.9,0,5.2,2.3,5.2,5.2v50.3c0,2.9-2.3,5.2-5.2,5.2H6.8c-2.9,0-5.2-2.3-5.2-5.2V6.8
	C1.6,4,3.9,1.7,6.8,1.7z"/>
<path class="st1" d="M5.7,34v19.1c0,3,2.4,5.4,5.4,5.4h26.1c3.1,0,5.5-2.5,5.5-5.5V24.2c0-1.5-1.2-2.6-2.6-2.6
	c-0.7,0-1.4,0.3-1.9,0.8l-5,5.6c-1.9,2.2-5.2,2.5-7.5,0.7l-0.5-0.4c-1.8-1.4-4.3-1.3-6,0.2l-2.8,2.3c-2.1,1.8-5.1,2.2-7.7,1.1l0,0
	c-1.1-0.5-2.3,0-2.8,1C5.8,33.3,5.7,33.7,5.7,34z"/>
</svg>
