<svg id="Layer_1" data-name="Layer 1" xmlns="http://www.w3.org/2000/svg" viewBox="0 0 254 111.55"><defs><style>.cls-1,.cls-4{fill:#f9f9f9;stroke-miterlimit:10;}.cls-1{stroke:#000;stroke-width:2px;}.cls-2{font-size:14.51px;font-family:NotoSansCJKkr-Medium-KSCpc-EUC-H, Noto Sans CJK KR;}.cls-3{font-size:18px;}.cls-4{stroke:#202123;stroke-width:3px;}</style></defs><title>2_arrow</title><rect class="cls-1" x="1" y="1" width="252" height="33.97" rx="9.01"/><text class="cls-2" transform="translate(16.7 23.75) scale(0.98 1)">손쉽게 <tspan class="cls-3" x="43.31" y="0">데이터 모델 </tspan><tspan x="135.2" y="0">공유환경 제공</tspan></text><path class="cls-4" d="M1010.7,461.56,988.48,448.8A3.67,3.67,0,0,0,983,452v10.14a2.64,2.64,0,0,1-2.64,2.64l-144.81.06a4.21,4.21,0,0,0-4.22,4.22v16.88a4.22,4.22,0,0,0,4.22,4.22l144.82-.06a2.64,2.64,0,0,1,2.64,2.63V503a3.67,3.67,0,0,0,5.5,3.17l22.17-12.78,22.15-12.77a3.67,3.67,0,0,0,0-6.35Z" transform="translate(-811 -396.63)"/></svg>