<?xml version="1.0" encoding="utf-8"?>
<!-- Generator: Adobe Illustrator 25.4.0, SVG Export Plug-In . SVG Version: 6.00 Build 0)  -->
<svg version="1.1" id="Layer_1" xmlns="http://www.w3.org/2000/svg" xmlns:xlink="http://www.w3.org/1999/xlink" x="0px" y="0px"
	 viewBox="0 0 112.9 133.4" style="enable-background:new 0 0 112.9 133.4;" xml:space="preserve">
<style type="text/css">
	.st0{fill:#89A6F5;stroke:#000000;stroke-width:2;stroke-linecap:round;stroke-linejoin:round;}
</style>
<path class="st0" d="M90.3,106.1l-8.3,3.3c-0.9,0.4-1.3,1.4-1,2.3c0.1,0.3,0.3,0.5,0.5,0.7l11.6,9.2l11.6,9.2
	c0.8,0.6,1.9,0.5,2.5-0.3c0.2-0.2,0.3-0.5,0.4-0.8l2.2-14.7l2.2-14.7c0.1-1-0.5-1.9-1.5-2c-0.3,0-0.6,0-0.9,0.1l-5.1,2.4
	c-0.4,0.2-0.8,0.1-1-0.3l-1.3-2c0,0-0.1-0.1-0.1-0.1C84.1,55.4,50.7,20.6,8.4,1.2c-1.2-0.5-2.6,0-3.1,1.2c0,0.1-0.1,0.2-0.1,0.3
	l-3,9.7c-0.3,1.1,0.2,2.3,1.2,2.8c38.6,18,69.1,49.8,85.5,89.2L90.3,106.1z"/>
</svg>
