<?xml version="1.0" encoding="utf-8"?>
<!-- Generator: Adobe Illustrator 25.4.0, SVG Export Plug-In . SVG Version: 6.00 Build 0)  -->
<svg version="1.1" id="Layer_1" xmlns="http://www.w3.org/2000/svg" xmlns:xlink="http://www.w3.org/1999/xlink" x="0px" y="0px"
	 viewBox="0 0 188 33.5" style="enable-background:new 0 0 188 33.5;" xml:space="preserve">
<style type="text/css">
	.st0{fill:#89A6F5;stroke:#000000;stroke-width:2;stroke-miterlimit:10;}
</style>
<path class="st0" d="M184.7,15.8l-11.4-6.6l-11.4-6.6c-0.9-0.5-2-0.2-2.6,0.7c-0.2,0.3-0.3,0.6-0.3,1v5.2c0,0.8-0.6,1.4-1.4,1.4
	H31.3c-0.8,0-1.4-0.6-1.4-1.4V4.3c0-1-0.8-1.9-1.9-1.9c-0.3,0-0.7,0.1-1,0.3L15.6,9.2L4.2,15.8c-0.9,0.5-1.2,1.7-0.7,2.6
	c0.2,0.3,0.4,0.5,0.7,0.7l11.4,6.6l11.4,6.6c0.9,0.5,2.1,0.2,2.6-0.7c0.2-0.3,0.3-0.6,0.3-0.9v-5.3c0-0.8,0.6-1.4,1.4-1.4h126.4
	c0.8,0,1.4,0.6,1.4,1.4v5.3c0,1,0.8,1.9,1.9,1.9c0.3,0,0.7-0.1,0.9-0.3l11.4-6.6l11.4-6.6c0.9-0.5,1.2-1.7,0.7-2.6
	C185.2,16.2,185,16,184.7,15.8z"/>
</svg>
