<svg id="Layer_1" data-name="Layer 1" xmlns="http://www.w3.org/2000/svg" xmlns:xlink="http://www.w3.org/1999/xlink" viewBox="0 0 493.16 375.24"><defs><style>.cls-1,.cls-9{fill:none;}.cls-13,.cls-2,.cls-7{fill:#f9f9f9;}.cls-3{clip-path:url(#clip-path);}.cls-10,.cls-17,.cls-4{fill:#fff;}.cls-17,.cls-4,.cls-7,.cls-9{stroke:#202123;}.cls-12,.cls-17,.cls-4,.cls-7,.cls-8,.cls-9{stroke-linecap:round;stroke-linejoin:round;}.cls-12,.cls-13,.cls-14,.cls-4,.cls-7,.cls-8,.cls-9{stroke-width:2px;}.cls-5{fill:#e8e8e8;}.cls-6{fill:#202123;}.cls-8{fill:#f5c43c;}.cls-12,.cls-13,.cls-18,.cls-8{stroke:#000;}.cls-11{clip-path:url(#clip-path-2);}.cls-12,.cls-18{fill:#89a6f5;}.cls-13,.cls-14,.cls-18{stroke-miterlimit:10;}.cls-14{fill:#f53b69;stroke:#fff;}.cls-15{clip-path:url(#clip-path-3);}.cls-16{clip-path:url(#clip-path-4);}.cls-17,.cls-18{stroke-width:1.5px;}.cls-19{clip-path:url(#clip-path-5);}</style><clipPath id="clip-path" transform="translate(-1049.62 -312.54)"><circle class="cls-1" cx="1461.55" cy="587.93" r="69.43"/></clipPath><clipPath id="clip-path-2" transform="translate(-1049.62 -312.54)"><circle class="cls-1" cx="1120.82" cy="587.56" r="68.79"/></clipPath><clipPath id="clip-path-3" transform="translate(-1049.62 -312.54)"><circle class="cls-2" cx="1289.51" cy="382.35" r="68.79"/></clipPath><clipPath id="clip-path-4" transform="translate(-1049.62 -312.54)"><circle class="cls-1" cx="1289.51" cy="382.35" r="68.79"/></clipPath><clipPath id="clip-path-5" transform="translate(-1049.62 -312.54)"><circle class="cls-1" cx="1328.94" cy="408.16" r="14.81" transform="translate(-54.79 274.15) rotate(-11.54)"/></clipPath></defs><title>3_human</title><circle class="cls-2" cx="411.93" cy="275.39" r="69.43"/><g class="cls-3"><path class="cls-4" d="M1447.29,590.73s-.55,16.88-2.71,24.44l-17.1,11.93,64.37,9.63-15.35-21.21s-4.64-22.63-2.21-31S1447.29,590.73,1447.29,590.73Z" transform="translate(-1049.62 -312.54)"/><path class="cls-5" d="M1447.19,593.06s5.09,12.25,14.68,12,11.77-11.11,11.77-11.11Z" transform="translate(-1049.62 -312.54)"/><path class="cls-6" d="M1464.85,536.35c23.94,1,22.14,22,20,26.65s-4.18,15.48-4.18,15.48l-39.58.56c.54-5.94-10.75-20.67-2.83-32.79a16.46,16.46,0,0,1,13.64-7.74A36.63,36.63,0,0,1,1464.85,536.35Z" transform="translate(-1049.62 -312.54)"/><path class="cls-4" d="M1460.77,600.3c-7-.12-19.73-9.37-19.73-20.82V561.6c0-4.18,2.91-7.6,6.48-7.6H1474c3.57,0,6.48,3.42,6.48,7.6v16.87C1480.5,590.48,1468.74,600.45,1460.77,600.3Z" transform="translate(-1049.62 -312.54)"/><path class="cls-6" d="M1481.78,564.91s-2.8-3.44-11.31-5.09-30.13-2.45-27.14-10.18c6.79-17.53,33.76-1.18,35.75,3.82A51.77,51.77,0,0,1,1481.78,564.91Z" transform="translate(-1049.62 -312.54)"/><path class="cls-7" d="M1501.15,620.28h0a11.77,11.77,0,0,0-2.74-.75v0a169.3,169.3,0,0,0-19.8-3.77l-2.08-.26c-4.22,5.61-7.61,8.17-11.16,10-.79.39-1.58.75-2.39,1.09s-1.43.59-2.18.88a13,13,0,0,1-2.73-.68c-.51-.19-1-.4-1.51-.63-6.81-3.22-12-10.77-12-11-.95.1-1.88.2-2.77.32a93.45,93.45,0,0,0-15.88,3.23h0c-.49.06-18,2.47-44.84,43a28,28,0,0,0,26.37,18.55h107.83a28.06,28.06,0,0,0,26.5-18.87C1521.46,630.57,1506.93,622.41,1501.15,620.28Z" transform="translate(-1049.62 -312.54)"/><path class="cls-8" d="M1452.61,685.07h14.78c-1.55-19.1-3.14-38.2-4-47.79-.16-2-.29-3.55-.39-4.64h0a15.83,15.83,0,0,0,4-5,1.15,1.15,0,0,0-.88-1.71,71.52,71.52,0,0,0-11,.26c-2.27.18,0,3.95,2.82,5.95-.11.92-.27,2.35-.48,4.22C1456.47,645.58,1454.35,665.22,1452.61,685.07Z" transform="translate(-1049.62 -312.54)"/><path class="cls-7" d="M1461.71,625.7s8.48-1.7,9,7.91l7.35-18.09s1.13-4-2.26-6.22Z" transform="translate(-1049.62 -312.54)"/><path class="cls-7" d="M1460.19,625.7s-10-.57-9.79,7.35l-7.17-17.53s-1.13-4,2.26-6.22Z" transform="translate(-1049.62 -312.54)"/></g><path class="cls-9" d="M1405.21,547.32a69.47,69.47,0,0,1,81-24.29" transform="translate(-1049.62 -312.54)"/><path class="cls-9" d="M1393.45,601.54a69.19,69.19,0,0,1,3.2-38.28" transform="translate(-1049.62 -312.54)"/><path class="cls-9" d="M1436.88,652.84a69.2,69.2,0,0,1-38.35-35.76" transform="translate(-1049.62 -312.54)"/><path class="cls-9" d="M1520.23,550.82a69.46,69.46,0,0,1-22.54,96.41" transform="translate(-1049.62 -312.54)"/><path class="cls-6" d="M1463.37,599.34l.13,0c.35-.07.7-.15,1.06-.25l.14,0c.36-.1.72-.22,1.08-.35l.14,0c.36-.13.73-.28,1.1-.45l.11,0c.38-.17.76-.36,1.14-.56l0,0a26,26,0,0,0,11.2-12.1,8.81,8.81,0,0,1-9.17.61h0a7.72,7.72,0,0,0-7.29-5.26h-3.21a7.72,7.72,0,0,0-7.29,5.26h0c-4.24,2.71-10.66-2.76-10.66-2.76l.06.21,0,.08c1.75,5.23,5.86,9.68,10.18,12.54h0l.05,0a25,25,0,0,0,3.53,2l0,0a18,18,0,0,0,3.36,1.14h.07c.34.08.66.13,1,.18h.1c.32,0,.63.06.93.07s.7,0,1.06,0h.08A9.48,9.48,0,0,0,1463.37,599.34Z" transform="translate(-1049.62 -312.54)"/><path class="cls-10" d="M1463.34,587.56h-3.85c-.88,0-2-1.44-2-2.32a4.22,4.22,0,0,1,2-.88h3.85a3.24,3.24,0,0,1,2.38,1.25A2.65,2.65,0,0,1,1463.34,587.56Z" transform="translate(-1049.62 -312.54)"/><circle class="cls-10" cx="71.21" cy="275.02" r="68.79"/><g class="cls-11"><path class="cls-4" d="M1107,590.79c-.2,4.39-.83,15.15-2.33,21.46a3.24,3.24,0,0,1-1.31,1.9l-9.49,6.62a3.27,3.27,0,0,0,1.39,5.92l49,7.33a3.27,3.27,0,0,0,3.13-5.15l-10.48-14.47a3.45,3.45,0,0,1-.56-1.29c-.76-3.92-4.27-23-2.08-30.52,2.09-7.17-19,2.38-25.41,5.4A3.26,3.26,0,0,0,1107,590.79Z" transform="translate(-1049.62 -312.54)"/><path class="cls-5" d="M1106.94,591.2s5.13,12.34,14.78,12.06,11.86-11.19,11.86-11.19Z" transform="translate(-1049.62 -312.54)"/><path class="cls-6" d="M1101.18,581.21s-3.12-15.57-5.29-20.28-4-25.75,20.12-26.84c0,0,9.25,1.09,14.33-2,0,0,0,3.08-1.27,4.17a16,16,0,0,1,14.87,5.26c6.52,7.25-4.36,32.63-3.81,38.62Z" transform="translate(-1049.62 -312.54)"/><path class="cls-4" d="M1120.62,598.5c-7-.13-19.87-9.44-19.87-21v-18c0-4.21,2.93-7.66,6.52-7.66H1134c3.59,0,6.53,3.45,6.53,7.66v17C1140.49,588.6,1128.64,598.64,1120.62,598.5Z" transform="translate(-1049.62 -312.54)"/><path class="cls-6" d="M1100.75,569.13s0-10.81,8.6-12.48,27.74,5.27,30.46-2.61-37.06-7.75-39.06-2.72S1100.75,569.13,1100.75,569.13Z" transform="translate(-1049.62 -312.54)"/><path class="cls-7" d="M1164.26,665h-90.71l-.46-.51c2.32-20.68,7.2-45.35,11.1-47,0,0,.45-.16,1.32-.43h0a89.83,89.83,0,0,1,12.77-2.81h0c1.83-.28,3.82-.54,6-.76a32.65,32.65,0,0,0,5.2,6.17,15.67,15.67,0,0,0,21,.73,41,41,0,0,0,6-6.54q3,.34,6.09.82c5,.78,10.38,1.84,15.94,3.24l2,.51h0l.79.21s.07.28.22,1.9h0C1161.84,624.2,1162.65,634.84,1164.26,665Z" transform="translate(-1049.62 -312.54)"/><path class="cls-12" d="M1084.91,617.16l-.06,0a10.45,10.45,0,0,0-1.39.4l-.1,0-.08,0,0,0c-4.56,1.58-15.67,7.18-31.19,26.57a6.51,6.51,0,0,0-.75,6.95A24.85,24.85,0,0,0,1072.55,665h25.08c.26-15.35.45-28.7.56-37.85,0-4,.09-7.26.12-9.48s0-3.43,0-3.43h0A94.52,94.52,0,0,0,1084.91,617.16Z" transform="translate(-1049.62 -312.54)"/><path class="cls-12" d="M1161.27,618.6a14.28,14.28,0,0,0-2.46-.71h0a146.12,146.12,0,0,0-16.24-3.25h0c0,.14,0,2.9,0,7.67h0c0,3,.07,6.94.11,11.48.08,8.46.19,19.2.35,31.18h26.07c.41,0,.81,0,1.22,0a24.84,24.84,0,0,0,20.91-13.51,7.16,7.16,0,0,0-.85-7.72C1176.12,625.87,1165.91,620.31,1161.27,618.6Z" transform="translate(-1049.62 -312.54)"/><path class="cls-7" d="M1121.55,623.85s8.4-1.68,9,7.85l7.28-17.93a5.74,5.74,0,0,0-2.24-6.16Z" transform="translate(-1049.62 -312.54)"/><path class="cls-7" d="M1120.05,623.85s-9.88-.56-9.7,7.29l-7.11-17.37a5.74,5.74,0,0,1,2.24-6.16Z" transform="translate(-1049.62 -312.54)"/><path class="cls-13" d="M1077.71,687.77,1077,634a7.28,7.28,0,0,1,7.25-7.26h73a7.29,7.29,0,0,1,7.26,7.26l-.74,53.78" transform="translate(-1049.62 -312.54)"/><circle class="cls-14" cx="70.21" cy="353.42" r="4.91"/></g><path class="cls-9" d="M1154.59,527.61a68.83,68.83,0,0,1,32.86,77.07" transform="translate(-1049.62 -312.54)"/><path class="cls-9" d="M1099.91,522a68.36,68.36,0,0,1,38-1.08" transform="translate(-1049.62 -312.54)"/><path class="cls-9" d="M1054.2,570.44a68.6,68.6,0,0,1,31-41.71" transform="translate(-1049.62 -312.54)"/><path class="cls-9" d="M1163.85,641.24a68.82,68.82,0,0,1-97.41-11.55" transform="translate(-1049.62 -312.54)"/><circle class="cls-2" cx="239.89" cy="69.81" r="68.79"/><g class="cls-15"><path class="cls-2" d="M1275.36,391.73c-.21,4.39-.84,15.15-2.33,21.46a3.24,3.24,0,0,1-1.31,1.9l-9.49,6.62a3.27,3.27,0,0,0,1.39,5.92l49,7.33a3.27,3.27,0,0,0,3.13-5.15l-10.48-14.47a3.3,3.3,0,0,1-.56-1.29c-.76-3.92-4.27-23-2.08-30.51,2.08-7.17-19.05,2.37-25.41,5.39A3.25,3.25,0,0,0,1275.36,391.73Z" transform="translate(-1049.62 -312.54)"/><path class="cls-2" d="M1275.34,392.14s5.13,12.34,14.78,12.06S1302,393,1302,393Z" transform="translate(-1049.62 -312.54)"/><path class="cls-2" d="M1269.58,382.15s-3.12-15.57-5.3-20.28-4-25.75,20.13-26.84c0,0,9.25,1.09,14.32-2,0,0,0,3.08-1.27,4.17a16,16,0,0,1,14.87,5.26c6.53,7.25-4.35,32.63-3.8,38.62Z" transform="translate(-1049.62 -312.54)"/><path class="cls-2" d="M1289,399.44c-7-.13-19.88-9.44-19.88-21v-18c0-4.21,2.94-7.66,6.53-7.66h26.69c3.59,0,6.53,3.45,6.53,7.66v17C1308.89,389.54,1297,399.58,1289,399.44Z" transform="translate(-1049.62 -312.54)"/><path class="cls-2" d="M1332.66,465.92H1242l-.46-.51c2.32-20.68,7.19-45.35,11.1-47,0,0,.45-.16,1.32-.43h0a89.59,89.59,0,0,1,12.76-2.81h0c1.83-.28,3.82-.54,6-.76a32.87,32.87,0,0,0,5.2,6.18,15.68,15.68,0,0,0,21,.72,40.49,40.49,0,0,0,6-6.54q3,.35,6.1.82c5,.78,10.38,1.84,15.94,3.24l2,.52h0l.79.2s.06.28.22,1.9h0C1330.23,425.14,1331.05,435.78,1332.66,465.92Z" transform="translate(-1049.62 -312.54)"/><path class="cls-2" d="M1253.31,418.1l-.07,0a10,10,0,0,0-1.38.4l-.1,0-.08,0h-.06c-4.56,1.59-15.66,7.18-31.18,26.57a6.51,6.51,0,0,0-.75,6.95A24.83,24.83,0,0,0,1241,465.9H1266c.26-15.35.44-28.7.56-37.85.05-4,.09-7.26.11-9.48s0-3.43,0-3.43h0A94.66,94.66,0,0,0,1253.31,418.1Z" transform="translate(-1049.62 -312.54)"/><path class="cls-2" d="M1329.67,419.54a14.31,14.31,0,0,0-2.47-.71h0a145.87,145.87,0,0,0-16.23-3.25h0c0,.14,0,2.9,0,7.67h0c0,3.05.06,6.94.1,11.48.08,8.46.2,19.2.36,31.18h26.07c.41,0,.81,0,1.22,0a24.83,24.83,0,0,0,20.9-13.51,7.15,7.15,0,0,0-.84-7.72C1344.52,426.81,1334.3,421.25,1329.67,419.54Z" transform="translate(-1049.62 -312.54)"/><line class="cls-2" x1="220.6" y1="102.89" x2="234.61" y2="153.31"/><line class="cls-2" x1="258.7" y1="102.89" x2="241.89" y2="153.31"/></g><g class="cls-16"><path class="cls-4" d="M1275.36,391.73c-.21,4.39-.84,15.15-2.33,21.46a3.24,3.24,0,0,1-1.31,1.9l-9.49,6.62a3.27,3.27,0,0,0,1.39,5.92l49,7.33a3.27,3.27,0,0,0,3.13-5.15l-10.48-14.47a3.3,3.3,0,0,1-.56-1.29c-.76-3.92-4.27-23-2.08-30.51,2.08-7.17-19.05,2.37-25.41,5.39A3.25,3.25,0,0,0,1275.36,391.73Z" transform="translate(-1049.62 -312.54)"/><path class="cls-5" d="M1275.34,392.14s5.13,12.34,14.78,12.06S1302,393,1302,393Z" transform="translate(-1049.62 -312.54)"/><path class="cls-6" d="M1269.58,382.15s-3.12-15.57-5.3-20.28-4-25.75,20.13-26.84c0,0,9.25,1.09,14.32-2,0,0,0,3.08-1.27,4.17a16,16,0,0,1,14.87,5.26c6.53,7.25-4.35,32.63-3.8,38.62Z" transform="translate(-1049.62 -312.54)"/><path class="cls-4" d="M1289,399.44c-7-.13-19.88-9.44-19.88-21v-18c0-4.21,2.94-7.66,6.53-7.66h26.69c3.59,0,6.53,3.45,6.53,7.66v17C1308.89,389.54,1297,399.58,1289,399.44Z" transform="translate(-1049.62 -312.54)"/><path class="cls-8" d="M1332.66,465.92H1242l-.46-.51c2.32-20.68,7.19-45.35,11.1-47,0,0,.45-.16,1.32-.43h0a89.59,89.59,0,0,1,12.76-2.81h0c1.83-.28,3.82-.54,6-.76a32.87,32.87,0,0,0,5.2,6.18,15.68,15.68,0,0,0,21,.72,40.49,40.49,0,0,0,6-6.54q3,.35,6.1.82c5,.78,10.38,1.84,15.94,3.24l2,.52h0l.79.2s.06.28.22,1.9h0C1330.23,425.14,1331.05,435.78,1332.66,465.92Z" transform="translate(-1049.62 -312.54)"/><path class="cls-7" d="M1253.31,418.1l-.07,0a10,10,0,0,0-1.38.4l-.1,0-.08,0h-.06c-4.56,1.59-15.66,7.18-31.18,26.57a6.51,6.51,0,0,0-.75,6.95A24.83,24.83,0,0,0,1241,465.9H1266c.26-15.35.44-28.7.56-37.85.05-4,.09-7.26.11-9.48s0-3.43,0-3.43h0A94.66,94.66,0,0,0,1253.31,418.1Z" transform="translate(-1049.62 -312.54)"/><path class="cls-7" d="M1329.67,419.54a14.31,14.31,0,0,0-2.47-.71h0a145.87,145.87,0,0,0-16.23-3.25h0c0,.14,0,2.9,0,7.67h0c0,3.05.06,6.94.1,11.48.08,8.46.2,19.2.36,31.18h26.07c.41,0,.81,0,1.22,0a24.83,24.83,0,0,0,20.9-13.51,7.15,7.15,0,0,0-.84-7.72C1344.52,426.81,1334.3,421.25,1329.67,419.54Z" transform="translate(-1049.62 -312.54)"/><line class="cls-12" x1="220.6" y1="102.89" x2="234.61" y2="153.31"/><line class="cls-12" x1="258.7" y1="102.89" x2="241.89" y2="153.31"/></g><path class="cls-9" d="M1292.55,451.08a68.8,68.8,0,0,1-68.64-48" transform="translate(-1049.62 -312.54)"/><path class="cls-9" d="M1341.92,426.91a68.57,68.57,0,0,1-31.71,21" transform="translate(-1049.62 -312.54)"/><path class="cls-9" d="M1355.11,361.65a68.57,68.57,0,0,1-4.23,51.77" transform="translate(-1049.62 -312.54)"/><path class="cls-9" d="M1224.61,359.54a68.81,68.81,0,0,1,88.78-41.71" transform="translate(-1049.62 -312.54)"/><g id="magnifier"><circle class="cls-10" cx="1328.94" cy="408.16" r="14.81" transform="translate(-1104.41 -38.39) rotate(-11.54)"/><rect class="cls-17" x="1315.81" y="420.79" width="3.35" height="9.37" transform="matrix(-0.83, -0.55, 0.55, -0.83, 1132.47, 1194.27)"/><rect class="cls-18" x="1307.27" y="427.86" width="5.09" height="18.48" rx="1.84" transform="translate(1111.96 1211.37) rotate(-146.54)"/><path class="cls-18" d="M1314.12,398.27a17.81,17.81,0,1,0,24.7-4.93A17.82,17.82,0,0,0,1314.12,398.27Zm2.5,1.67a14.8,14.8,0,1,1,4.1,20.53A14.8,14.8,0,0,1,1316.62,399.94Z" transform="translate(-1049.62 -312.54)"/><g class="cls-19"><rect x="1327.83" y="411.17" width="12.93" height="0.69" transform="translate(-1091.45 335.54) rotate(-26.89)"/><rect x="1323.05" y="402.32" width="0.69" height="14.3" transform="translate(-941.8 761.31) rotate(-45.85)"/><rect x="1315.23" y="400.91" width="0.69" height="5.61" transform="translate(-487.84 1242.48) rotate(-73.85)"/><rect x="1342.02" y="406.74" width="0.69" height="4.7" transform="translate(-389.95 1322.61) rotate(-77.84)"/><path class="cls-18" d="M1338.22,409a1.88,1.88,0,1,1,2.22,1.47A1.88,1.88,0,0,1,1338.22,409Z" transform="translate(-1049.62 -312.54)"/><path class="cls-18" d="M1326.68,414.82a1.89,1.89,0,1,1,2.23,1.48A1.88,1.88,0,0,1,1326.68,414.82Z" transform="translate(-1049.62 -312.54)"/><path class="cls-18" d="M1316.42,404.87a1.89,1.89,0,1,1,2.23,1.47A1.89,1.89,0,0,1,1316.42,404.87Z" transform="translate(-1049.62 -312.54)"/></g></g></svg>