<svg id="Layer_1" data-name="Layer 1" xmlns="http://www.w3.org/2000/svg" viewBox="0 0 146 178.78"><defs><style>.cls-1{fill:#e5b438;}.cls-1,.cls-2,.cls-3,.cls-5{stroke:#202123;stroke-miterlimit:10;stroke-width:5px;}.cls-2{fill:#fff;}.cls-3{fill:#f5c43c;}.cls-4,.cls-5{fill:none;stroke-linecap:round;}.cls-4{stroke:#f9f9f9;stroke-linejoin:round;stroke-width:7px;opacity:0.5;}</style></defs><title>3_alram</title><circle class="cls-1" cx="73" cy="14.64" r="12.14"/><ellipse class="cls-2" cx="73" cy="146.22" rx="25.43" ry="30.05"/><path class="cls-3" d="M726.83,285.08h50.94a9.81,9.81,0,0,0,8.46-14.77l-15.34-26.2a18.13,18.13,0,0,1-2.5-9.2V199.38a44,44,0,0,0-4.78-20.11c-13.86-27-43.08-27.45-43.08-27.45h-6.88s-29.21.43-43.07,27.45a44,44,0,0,0-4.79,20.11v35.53a18.22,18.22,0,0,1-2.49,9.2L648,270.31a9.81,9.81,0,0,0,8.47,14.77h70.41Z" transform="translate(-644.09 -132.5)"/><path class="cls-4" d="M751.5,235.5v-42s-2-18-22-18" transform="translate(-644.09 -132.5)"/><line class="cls-5" x1="137.41" y1="34" x2="16.41" y2="169"/><line class="cls-4" x1="108.41" y1="116" x2="110.41" y2="120"/></svg>