<svg id="Layer_1" data-name="Layer 1" xmlns="http://www.w3.org/2000/svg" viewBox="0 0 777.33 446"><defs><style>.cls-1{fill:#d9d7e4;}.cls-2,.cls-3,.cls-5{fill:#f9f9f9;}.cls-2,.cls-3,.cls-4,.cls-5,.cls-9{stroke:#b4b3bc;}.cls-13,.cls-2,.cls-3,.cls-4,.cls-5,.cls-7{stroke-miterlimit:10;}.cls-12,.cls-2,.cls-4,.cls-7,.cls-9{stroke-width:2px;}.cls-10,.cls-12,.cls-4,.cls-7,.cls-9{fill:none;}.cls-5{stroke-width:1.5px;}.cls-6{fill:#b4b3bc;}.cls-7{stroke:#cbcbd1;}.cls-11,.cls-13,.cls-8{fill:#9c9ca0;}.cls-10,.cls-12,.cls-9{stroke-linecap:round;stroke-linejoin:round;}.cls-10,.cls-12{stroke:#f9f9f9;}.cls-11{fill-rule:evenodd;}.cls-13{stroke:#9c9ca0;stroke-width:0.3px;}</style></defs><title>1_Tool</title><rect class="cls-1" x="1" y="1" width="775.33" height="444" rx="16.67"/><path class="cls-2" d="M786.13,298V276.87a7.26,7.26,0,0,0-7.26-7.25H681.76a7.26,7.26,0,0,0-7.26,7.25V649.29a7.46,7.46,0,0,0,7.46,7.46h562.41a7.46,7.46,0,0,0,7.46-7.46V305.46a7.46,7.46,0,0,0-7.46-7.46Z" transform="translate(-492.5 -226.42)"/><rect class="cls-2" x="19.43" y="43.67" width="153.57" height="387" rx="7.83"/><rect class="cls-3" x="82.22" y="244.31" width="30.25" height="29.62"/><rect class="cls-4" x="1" y="1" width="775.33" height="444" rx="16.67"/><rect class="cls-5" x="334.5" y="13.17" width="63" height="18" rx="6.17"/><rect class="cls-5" x="406.5" y="13.17" width="63" height="18" rx="6.17"/><rect class="cls-5" x="478.5" y="13.17" width="63" height="18" rx="6.17"/><rect class="cls-5" x="550.5" y="13.17" width="63" height="18" rx="6.17"/><rect class="cls-5" x="622.5" y="13.17" width="63" height="18" rx="6.17"/><rect class="cls-5" x="694.5" y="13.17" width="63" height="18" rx="6.17"/><rect class="cls-6" x="28" y="66.67" width="45" height="18" rx="8.44"/><rect class="cls-6" x="28" y="160.67" width="45" height="18" rx="8.44"/><rect class="cls-6" x="28.5" y="296.58" width="45" height="18" rx="8.44"/><circle class="cls-6" cx="35" cy="102.67" r="1.8"/><circle class="cls-6" cx="35" cy="120.67" r="1.8"/><circle class="cls-6" cx="35" cy="138.67" r="1.8"/><line class="cls-7" x1="44" y1="102.67" x2="116" y2="102.67"/><line class="cls-7" x1="44" y1="120.67" x2="98" y2="120.67"/><line class="cls-7" x1="44" y1="138.67" x2="80" y2="138.67"/><rect class="cls-3" x="34" y="188.14" width="30.25" height="29.62"/><rect class="cls-3" x="34" y="244.31" width="30.25" height="29.62"/><rect class="cls-8" x="40.84" y="197.51" width="6.75" height="4.32"/><rect class="cls-8" x="49.13" y="197.51" width="4.32" height="1.71"/><rect class="cls-8" x="49.13" y="200.12" width="8.02" height="1.71"/><rect class="cls-8" x="40.84" y="203.22" width="16.31" height="1.71"/><rect class="cls-8" x="40.84" y="206.11" width="9.62" height="1.71"/><rect class="cls-3" x="81.87" y="188.14" width="30.25" height="29.62"/><rect class="cls-8" x="97.95" y="197.51" width="6.75" height="4.32"/><rect class="cls-8" x="91.78" y="197.51" width="4.32" height="1.71"/><rect class="cls-8" x="88.08" y="200.12" width="8.02" height="1.71"/><rect class="cls-8" x="88.72" y="203.22" width="16.31" height="1.71"/><rect class="cls-8" x="95.4" y="206.11" width="9.62" height="1.71"/><rect class="cls-3" x="129.75" y="188.14" width="30.25" height="29.62"/><rect class="cls-8" x="138.04" y="197.51" width="5.96" height="4.32"/><rect class="cls-8" x="145.32" y="197.51" width="5.96" height="4.32"/><rect class="cls-8" x="138.04" y="203.22" width="5.96" height="1.71"/><rect class="cls-8" x="145.32" y="203.22" width="5.96" height="1.71"/><rect class="cls-8" x="138.04" y="206.33" width="5.96" height="1.71"/><rect class="cls-8" x="41.64" y="253.86" width="4.02" height="4.32"/><rect class="cls-8" x="41.64" y="259.57" width="4.02" height="1.71"/><rect class="cls-8" x="41.64" y="262.68" width="4.02" height="1.71"/><rect class="cls-8" x="46.99" y="253.86" width="4.02" height="4.32"/><rect class="cls-8" x="46.99" y="259.57" width="4.02" height="1.71"/><rect class="cls-8" x="46.99" y="262.68" width="4.02" height="1.71"/><rect class="cls-8" x="52.34" y="253.86" width="4.02" height="4.32"/><rect class="cls-8" x="52.34" y="259.57" width="4.02" height="1.71"/><rect class="cls-8" x="52.34" y="262.68" width="4.02" height="1.71"/><rect class="cls-8" x="88.4" y="253.86" width="3.35" height="4.32"/><rect class="cls-8" x="88.4" y="259.57" width="3.35" height="1.71"/><rect class="cls-8" x="88.4" y="262.68" width="3.35" height="1.71"/><rect class="cls-8" x="93.25" y="253.86" width="3.35" height="4.32"/><rect class="cls-8" x="93.25" y="259.57" width="3.35" height="1.71"/><rect class="cls-8" x="93.25" y="262.68" width="3.35" height="1.71"/><rect class="cls-8" x="98.09" y="253.86" width="3.35" height="4.32"/><rect class="cls-8" x="98.09" y="259.57" width="3.35" height="1.71"/><rect class="cls-8" x="98.09" y="262.68" width="3.35" height="1.71"/><rect class="cls-8" x="102.94" y="253.86" width="3.35" height="4.32"/><rect class="cls-8" x="102.94" y="259.57" width="3.35" height="1.71"/><rect class="cls-8" x="102.94" y="262.68" width="3.35" height="1.71"/><rect class="cls-8" x="145.32" y="206.33" width="5.96" height="1.71"/><rect class="cls-3" x="129.75" y="244.31" width="30.25" height="29.62"/><rect class="cls-3" x="129.75" y="379.31" width="30.25" height="29.62"/><polygon class="cls-8" points="146.36 252.33 143.67 252.33 141.73 252.33 139.04 252.33 137.1 252.33 137.1 254.28 137.1 256.02 139.04 256.02 139.04 254.28 141.73 254.28 141.73 263.59 140.08 263.59 140.08 265.53 141.73 265.53 143.67 265.53 145.32 265.53 145.32 263.59 143.67 263.59 143.67 254.28 146.36 254.28 146.36 256.02 148.3 256.02 148.3 254.28 148.3 252.33 146.36 252.33"/><rect class="cls-3" x="82.01" y="379.22" width="30.25" height="29.62"/><polygon class="cls-8" points="100.8 387.43 98.11 387.43 96.16 387.43 93.48 387.43 91.53 387.43 91.53 389.37 91.53 391.11 93.48 391.11 93.48 389.37 96.16 389.37 96.16 398.69 94.51 398.69 94.51 400.63 96.16 400.63 98.11 400.63 99.76 400.63 99.76 398.69 98.11 398.69 98.11 389.37 100.8 389.37 100.8 391.11 102.74 391.11 102.74 389.37 102.74 387.43 100.8 387.43"/><polygon class="cls-8" points="151.45 257.27 149.77 257.27 148.56 257.27 146.87 257.27 145.66 257.27 145.66 258.49 145.66 259.58 146.87 259.58 146.87 258.49 148.56 258.49 148.56 264.32 147.52 264.32 147.52 265.53 148.56 265.53 149.77 265.53 150.81 265.53 150.81 264.32 149.77 264.32 149.77 258.49 151.45 258.49 151.45 259.58 152.67 259.58 152.67 258.49 152.67 257.27 151.45 257.27"/><line class="cls-9" x1="286" y1="62.58" x2="277.5" y2="54.08"/><line class="cls-9" x1="277.5" y1="62.58" x2="286" y2="54.08"/><line class="cls-9" x1="318.75" y1="64.34" x2="318.75" y2="52.32"/><line class="cls-9" x1="312.74" y1="58.33" x2="324.76" y2="58.33"/><rect class="cls-3" x="196" y="93.08" width="98" height="30" rx="10.68"/><path class="cls-6" d="M206.17,93.08H230a0,0,0,0,1,0,0v30a0,0,0,0,1,0,0H206.17A10.17,10.17,0,0,1,196,112.92v-9.67A10.17,10.17,0,0,1,206.17,93.08Z"/><line class="cls-10" x1="205.5" y1="103.08" x2="223.5" y2="103.08"/><line class="cls-10" x1="205.5" y1="108.08" x2="223.5" y2="108.08"/><line class="cls-10" x1="205.5" y1="113.08" x2="223.5" y2="113.08"/><rect class="cls-3" x="34.07" y="323.06" width="30.25" height="29.62"/><path class="cls-11" d="M537,571.49a.64.64,0,0,0,.28.57.66.66,0,0,0,.64,0l4.33-2.82-4.76-2.86Z" transform="translate(-492.5 -226.42)"/><polygon class="cls-11" points="51.09 330.01 55.57 332.67 50.12 341.75 45.64 339.09 51.09 330.01"/><rect class="cls-3" x="82.01" y="323.06" width="30.25" height="29.62"/><rect class="cls-8" x="90.14" y="330.87" width="14" height="14" rx="1.24"/><line class="cls-12" x1="97.14" y1="341.62" x2="97.14" y2="334.12"/><line class="cls-12" x1="93.39" y1="337.87" x2="100.89" y2="337.87"/><rect class="cls-3" x="129.77" y="323.06" width="30.25" height="29.62"/><circle class="cls-3" cx="144.9" cy="337.87" r="7.07"/><path class="cls-8" d="M636.08,564.29v-2.41a.23.23,0,0,1,.35-.2l2.09,1.2,2.08,1.2a.24.24,0,0,1,0,.41l-2.08,1.21-2.09,1.2a.23.23,0,0,1-.35-.21Z" transform="translate(-492.5 -226.42)"/><rect class="cls-3" x="34.07" y="378.93" width="30.25" height="29.62"/><rect class="cls-8" x="40.25" y="388.48" width="3.35" height="4.32"/><rect class="cls-8" x="40.25" y="394.19" width="3.35" height="1.71"/><rect class="cls-8" x="40.25" y="397.3" width="3.35" height="1.71"/><rect class="cls-8" x="45.09" y="388.48" width="3.35" height="4.32"/><rect class="cls-8" x="45.09" y="394.19" width="3.35" height="1.71"/><rect class="cls-8" x="45.09" y="397.3" width="3.35" height="1.71"/><rect class="cls-8" x="49.94" y="388.48" width="3.35" height="4.32"/><rect class="cls-8" x="49.94" y="394.19" width="3.35" height="1.71"/><rect class="cls-8" x="49.94" y="397.3" width="3.35" height="1.71"/><rect class="cls-8" x="54.78" y="388.48" width="3.35" height="4.32"/><rect class="cls-8" x="54.78" y="394.19" width="3.35" height="1.71"/><rect class="cls-8" x="54.78" y="397.3" width="3.35" height="1.71"/><path class="cls-13" d="M639,629.59H627.7a.24.24,0,0,1-.24-.24v-9.94a.24.24,0,0,1,.24-.24h3.67v-6.93a.24.24,0,0,1,.24-.24h14.94a.24.24,0,0,1,.24.24v13.2a.24.24,0,0,1-.24.24h-7.36v3.67A.24.24,0,0,1,639,629.59Zm-11-.47h10.77v-3.68a.24.24,0,0,1,.24-.24h7.36V612.48H631.85v6.93a.24.24,0,0,1-.24.24h-3.67Z" transform="translate(-492.5 -226.42)"/><path class="cls-13" d="M631.61,620.37a.24.24,0,0,1-.24-.24v-.72a.24.24,0,0,1,.24-.24h.72a.24.24,0,0,1,0,.48h-.48v.48A.24.24,0,0,1,631.61,620.37Z" transform="translate(-492.5 -226.42)"/><path class="cls-13" d="M631.61,623.29a.24.24,0,0,1-.24-.24V621.8a.24.24,0,0,1,.48,0v1.25A.24.24,0,0,1,631.61,623.29Z" transform="translate(-492.5 -226.42)"/><path class="cls-13" d="M632.33,625.68h-.72a.24.24,0,0,1-.24-.24v-.72a.24.24,0,0,1,.48,0v.48h.48a.24.24,0,0,1,0,.48Z" transform="translate(-492.5 -226.42)"/><path class="cls-13" d="M636.08,625.68h-1.61a.24.24,0,0,1,0-.48h1.61a.24.24,0,0,1,0,.48Z" transform="translate(-492.5 -226.42)"/><path class="cls-13" d="M639,625.68h-.72a.24.24,0,0,1,0-.48h.48v-.48a.23.23,0,0,1,.24-.23.23.23,0,0,1,.24.23v.72A.24.24,0,0,1,639,625.68Z" transform="translate(-492.5 -226.42)"/><path class="cls-13" d="M639,623.29a.23.23,0,0,1-.24-.24V621.8a.24.24,0,0,1,.24-.24.24.24,0,0,1,.24.24v1.25A.24.24,0,0,1,639,623.29Z" transform="translate(-492.5 -226.42)"/><path class="cls-13" d="M639,620.37a.24.24,0,0,1-.24-.24v-.48h-.48a.24.24,0,0,1,0-.48H639a.24.24,0,0,1,.24.24v.72A.24.24,0,0,1,639,620.37Z" transform="translate(-492.5 -226.42)"/><path class="cls-13" d="M636.08,619.65h-1.61a.24.24,0,0,1,0-.48h1.61a.24.24,0,0,1,0,.48Z" transform="translate(-492.5 -226.42)"/><path class="cls-13" d="M635.28,622.67a.21.21,0,0,1-.18-.09.24.24,0,0,1,0-.34l7.55-6.43a.23.23,0,0,1,.33,0,.24.24,0,0,1,0,.34l-7.55,6.44A.22.22,0,0,1,635.28,622.67Z" transform="translate(-492.5 -226.42)"/><path class="cls-13" d="M642.68,618.72h0a.24.24,0,0,1-.21-.26l.21-2.28-2.27-.21a.24.24,0,1,1,0-.47l2.51.23a.23.23,0,0,1,.16.08.25.25,0,0,1,.06.18l-.23,2.51A.25.25,0,0,1,642.68,618.72Z" transform="translate(-492.5 -226.42)"/></svg>