<?xml version="1.0" encoding="utf-8"?>
<!-- Generator: Adobe Illustrator 25.4.0, SVG Export Plug-In . SVG Version: 6.00 Build 0)  -->
<svg version="1.1" id="레이어_1" xmlns="http://www.w3.org/2000/svg" xmlns:xlink="http://www.w3.org/1999/xlink" x="0px"
	 y="0px" viewBox="0 0 586 267" style="enable-background:new 0 0 586 267;" xml:space="preserve">
<style type="text/css">
	.st0{clip-path:url(#SVGID_00000067196259185877119610000004274601338606299560_);}
	.st1{fill:#FFFFFF;stroke:#202123;stroke-width:2;stroke-linecap:round;stroke-linejoin:round;}
	.st2{fill:#E8E8E8;}
	.st3{fill:#202123;}
	.st4{fill:#F9F9F9;stroke:#202123;stroke-width:2;stroke-linecap:round;stroke-linejoin:round;}
	.st5{fill:#89A6F5;stroke:#000000;stroke-width:2;stroke-linecap:round;stroke-linejoin:round;}
	.st6{fill:none;stroke:#202123;stroke-width:2;stroke-linecap:round;stroke-linejoin:round;}
	.st7{fill:#F5C43C;stroke:#000000;stroke-width:2;stroke-miterlimit:10;}
	.st8{fill:#F53B69;stroke:#000000;stroke-width:2;stroke-miterlimit:10;}
	.st9{stroke:#000000;stroke-width:2;stroke-miterlimit:10;}
	.st10{clip-path:url(#SVGID_00000119832980644105510640000016846358837188198824_);}
	.st11{fill:#F5C43C;stroke:#000000;stroke-width:2;stroke-linecap:round;stroke-linejoin:round;}
	.st12{fill:#FFFFFF;}
	.st13{fill:#89A6F5;stroke:#000000;stroke-width:2;stroke-miterlimit:10;}
	.st14{fill:#89A6F5;stroke:#202123;stroke-width:2;stroke-miterlimit:10;}
	.st15{fill:#F5C43C;stroke:#202123;stroke-width:2;stroke-miterlimit:10;}
</style>
<g>
	<defs>
		<circle id="SVGID_1_" cx="465.75" cy="131.49" r="110.51"/>
	</defs>
	<clipPath id="SVGID_00000133513380192627505270000002844495655590718618_">
		<use xlink:href="#SVGID_1_"  style="overflow:visible;"/>
	</clipPath>
	<g style="clip-path:url(#SVGID_00000133513380192627505270000002844495655590718618_);">
		<path class="st1" d="M443.48,136.68c-0.33,7.05-1.34,24.34-3.75,34.48c-0.3,1.24-1.05,2.33-2.1,3.05l-15.24,10.64
			c-2.38,1.66-2.96,4.93-1.31,7.31c0.83,1.19,2.11,1.98,3.54,2.19l78.71,11.78c2.87,0.41,5.53-1.58,5.94-4.45
			c0.19-1.35-0.14-2.71-0.94-3.82l-16.79-23.26c-0.45-0.61-0.76-1.32-0.9-2.07c-1.23-6.29-6.86-36.89-3.34-49
			c3.34-11.52-30.6,3.82-40.83,8.67C444.72,133.02,443.57,134.75,443.48,136.68z"/>
		<path class="st2" d="M443.45,137.33c0,0,8.24,19.82,23.75,19.39s19-18,19-18L443.45,137.33z"/>
		<path class="st3" d="M434.2,121.28c0,0-5-25-8.51-32.58s-6.41-41.36,32.33-43.1c0,0,14.86,1.74,23-3.21c0,0,0,5-2,6.7
			c8.89-1.56,17.96,1.64,23.89,8.45c10.48,11.65-7,52.43-6.12,62L434.2,121.28z"/>
		<path class="st1" d="M465.42,149.02c-11.24-0.2-31.92-15.17-31.92-33.7V86.44c0-6.76,4.72-12.3,10.48-12.3h42.88
			c5.77,0,10.48,5.54,10.48,12.3v27.29C497.34,133.16,478.31,149.28,465.42,149.02z"/>
		<path class="st3" d="M433.54,101.88c0,0,0.06-17.37,13.82-20s44.56,8.47,48.93-4.2s-59.54-12.46-62.75-4.37
			S433.54,101.88,433.54,101.88z"/>
		<path class="st4" d="M535.54,255.86H389.81l-0.74-0.81c3.73-33.22,11.56-72.86,17.84-75.49c0,0,0.72-0.27,2.11-0.7l0,0
			c6.71-2.01,13.57-3.52,20.5-4.52h0.07c2.94-0.45,6.14-0.87,9.6-1.22c2.36,3.63,5.17,6.96,8.35,9.9c9.28,8.95,23.82,9.45,33.7,1.16
			c3.57-3.14,6.79-6.67,9.59-10.51c3.19,0.38,6.46,0.81,9.79,1.33c8.12,1.25,16.68,2.95,25.61,5.2c1.06,0.26,2.13,0.54,3.19,0.82
			l0,0l1.27,0.34c0,0,0.1,0.44,0.36,3l0,0C531.64,190.35,532.94,207.45,535.54,255.86z"/>
		<path class="st5" d="M408.06,179.02h-0.11c-0.75,0.17-1.49,0.38-2.22,0.64h-0.16c-0.04,0.01-0.09,0.01-0.13,0h-0.09
			c-7.32,2.54-25.16,11.54-50.09,42.69c-2.54,3.16-3.01,7.52-1.21,11.15c6.47,13.08,19.57,21.58,34.15,22.16h0.78h39.56
			c0.42-24.65,0.72-46.1,0.9-60.8c0.08-6.49,0.14-11.67,0.19-15.23s0.05-5.51,0.05-5.51h-0.14
			C422.27,175.24,415.09,176.87,408.06,179.02z"/>
		<path class="st5" d="M530.73,181.36c-1.29-0.51-2.63-0.89-4-1.14l0,0c-8.59-2.23-17.3-3.96-26.08-5.2l0,0
			c0,0.21,0,4.65,0.09,12.32l0,0c0,4.92,0.1,11.16,0.17,18.45c0.13,13.59,0.31,30.85,0.57,50.09h41.87c0.66,0,1.31,0,2-0.05
			c14.27-0.69,27.09-8.97,33.59-21.69c2.01-4.06,1.46-8.93-1.4-12.44C554.59,193.02,538.17,184.1,530.73,181.36z"/>
	</g>
</g>
<path class="st6" d="M519.99,35.18c43.6,24.57,65.25,75.37,52.79,123.84"/>
<path class="st6" d="M432.15,26.2c19.79-6.34,40.98-6.94,61.1-1.74"/>
<path class="st6" d="M358.72,104.02c7.15-27.99,25.02-52.06,49.75-67"/>
<path class="st6" d="M534.86,217.72c-47.64,38.17-117.2,30.5-155.37-17.14c-0.37-0.47-0.74-0.94-1.11-1.41"/>
<path class="st4" d="M466.92,189.79c0,0,13.5-2.7,14.4,12.6l11.7-28.8c0,0,1.8-6.3-3.6-9.9L466.92,189.79z"/>
<path class="st4" d="M464.54,189.79c0,0-15.88-0.9-15.59,11.7l-11.41-27.9c0,0-1.8-6.3,3.6-9.9L464.54,189.79z"/>
<circle class="st7" cx="528.61" cy="147.27" r="6.75"/>
<circle class="st8" cx="398.51" cy="75.87" r="4.95"/>
<path class="st9" d="M560.14,124.87h-4.85v-4.85c0-0.4-0.33-0.73-0.73-0.73c-0.4,0.01-0.72,0.33-0.72,0.73v4.85h-4.85
	c-0.4,0-0.72,0.32-0.73,0.72c0,0.4,0.33,0.73,0.73,0.73h4.85v4.85c0,0.4,0.32,0.72,0.72,0.72c0.4,0,0.72-0.32,0.73-0.72v-4.85h4.85
	c0.4-0.01,0.72-0.33,0.72-0.73C560.86,125.19,560.53,124.87,560.14,124.87L560.14,124.87z"/>
<g>
	<defs>
		<circle id="SVGID_00000025407371269871599120000005812267513781799324_" cx="138.26" cy="131.49" r="122.78"/>
	</defs>
	<clipPath id="SVGID_00000115507960124758542010000003876128646353277366_">
		<use xlink:href="#SVGID_00000025407371269871599120000005812267513781799324_"  style="overflow:visible;"/>
	</clipPath>
	<g style="clip-path:url(#SVGID_00000115507960124758542010000003876128646353277366_);">
		<path class="st1" d="M113.04,136.43c0,0-1,29.85-4.78,43.22l-30.24,21.1l113.82,17l-27.14-37.51c0,0-8.2-40-3.9-54.83
			S113.04,136.43,113.04,136.43z"/>
		<path class="st2" d="M112.88,140.55c0,0,9,21.67,26,21.19s20.81-19.65,20.81-19.65L112.88,140.55z"/>
		<path class="st3" d="M144.09,40.27c42.36,1.8,39.17,38.85,35.35,47.13s-7.39,27.37-7.39,27.37l-70,1c0.95-10.51-19-36.55-5-58
			c5.22-8.34,14.29-13.48,24.12-13.68C121.17,44.09,132.34,39.78,144.09,40.27z"/>
		<path class="st1" d="M136.89,153.37c-12.29-0.22-34.9-16.58-34.9-36.83V84.93c0-7.4,5.16-13.45,11.46-13.45h46.87
			c6.31,0,11.47,6,11.47,13.45v29.82C171.79,136.02,150.98,153.62,136.89,153.37z"/>
		<path class="st3" d="M174.05,90.77c0,0-5-6.08-20-9s-53.29-4.34-48-18c12-31,59.69-2.09,63.21,6.75S174.05,90.77,174.05,90.77z"/>
		<path class="st4" d="M208.29,188.68L208.29,188.68c-1.56-0.63-3.19-1.08-4.85-1.32v0.06c-11.52-2.92-23.21-5.15-35-6.68
			l-3.69-0.45c-7.47,9.92-13.45,14.45-19.73,17.6c-1.39,0.7-2.79,1.33-4.24,1.94c-1.25,0.52-2.52,1-3.84,1.56
			c-1.65-0.24-3.27-0.65-4.84-1.22c-0.91-0.32-1.8-0.69-2.67-1.11c-12-5.68-21.13-19-21.13-19.4c-1.68,0.17-3.32,0.36-4.9,0.56
			c-9.5,1.1-18.89,3.01-28.07,5.72l0,0c-0.88,0.11-31.88,4.38-79.31,76.05c7.07,19.67,25.73,32.79,46.64,32.79h190.63
			c21.14,0.02,39.96-13.38,46.85-33.37C244.2,206.89,218.54,192.46,208.29,188.68z"/>
		<path class="st11" d="M122.45,303.27h26.15c-2.75-33.78-5.56-67.55-7-84.51c-0.29-3.5-0.52-6.28-0.69-8.2l0,0
			c3-2.09,5.53-6.12,7-8.77c0.56-0.95,0.23-2.18-0.72-2.74c-0.26-0.15-0.54-0.24-0.84-0.26c-7.35-0.74-19.42,0.47-19.42,0.47
			c-4,0.31,0.08,7,5,10.52c-0.19,1.62-0.48,4.15-0.85,7.45C129.29,233.43,125.54,268.16,122.45,303.27z"/>
		<path class="st4" d="M138.54,198.27c0,0,15-3,16,14l13-32c0,0,2-7-4-11L138.54,198.27z"/>
		<path class="st4" d="M135.87,198.27c0,0-17.64-1-17.32,13l-12.68-31c0,0-2-7,4-11L135.87,198.27z"/>
	</g>
</g>
<path class="st6" d="M38.64,59.66c32.53-45.08,91.28-62.69,143.25-42.94"/>
<path class="st6" d="M17.84,155.55c-4.53-22.65-2.55-46.12,5.7-67.69"/>
<path class="st6" d="M94.64,246.26c-30.03-11.37-54.38-34.08-67.82-63.24"/>
<path class="st6" d="M242.04,65.86c36.25,57.32,19.17,133.16-38.15,169.41c-0.57,0.36-1.15,0.72-1.72,1.07"/>
<path class="st3" d="M141.54,151.66h0.22c0.62-0.12,1.25-0.27,1.88-0.45l0.25-0.06c0.63-0.18,1.26-0.39,1.9-0.62l0.25-0.09
	c0.64-0.24,1.29-0.51,1.94-0.8l0.2-0.08c0.67-0.31,1.35-0.64,2-1h0.09c8.75-4.8,15.69-12.31,19.8-21.4c-8,5.8-16.22,1.08-16.22,1.08
	h-0.06c-1.87-5.54-7.05-9.28-12.9-9.3h-5.67c-5.85,0.02-11.03,3.76-12.89,9.3l0,0c-7.51,4.8-18.86-4.89-18.86-4.89l0.11,0.39
	l0.05,0.13c3.09,9.26,10.36,17.11,18,22.17l0,0l0.11,0.07c1.99,1.32,4.07,2.47,6.24,3.46h0.06c1.91,0.87,3.9,1.54,5.94,2h0.13
	c0.59,0.13,1.17,0.23,1.74,0.31h0.16c0.55,0.07,1.1,0.11,1.65,0.13c0.61,0,1.24,0,1.88-0.07h0.14
	C140.25,151.87,140.87,151.78,141.54,151.66z"/>
<path class="st12" d="M141.43,130.83h-6.8c-1.56,0-3.55-2.55-3.55-4.11c0,0,2-1.56,3.55-1.56h6.8c1.56,0,3.84,1.3,4.2,2.22
	C145.63,127.38,144.69,130.83,141.43,130.83z"/>
<circle class="st7" cx="202.04" cy="108.02" r="7.5"/>
<circle class="st13" cx="46.04" cy="67.77" r="5.5"/>
<path class="st9" d="M229.46,90.69h-3.84v-3.84c0-0.32-0.26-0.58-0.58-0.58s-0.58,0.26-0.58,0.58c0,0,0,0.01,0,0.01v3.84h-3.84
	c-0.32,0-0.58,0.26-0.58,0.58s0.26,0.58,0.58,0.58c0,0,0.01,0,0.01,0h3.84v3.84c0,0.32,0.26,0.58,0.58,0.58s0.58-0.26,0.58-0.58
	c0,0,0-0.01,0-0.01v-3.84h3.84c0.32,0,0.58-0.26,0.58-0.58S229.78,90.69,229.46,90.69C229.46,90.69,229.46,90.69,229.46,90.69z"/>
<path class="st9" d="M65.46,161.69h-3.84v-3.84c0-0.32-0.26-0.58-0.58-0.58c-0.32,0-0.58,0.26-0.58,0.58v3.84h-3.84
	c-0.32,0-0.58,0.26-0.58,0.58c0,0.32,0.26,0.58,0.58,0.58c0,0,0.01,0,0.01,0h3.84v3.84c0,0.32,0.26,0.58,0.58,0.58
	c0.32,0,0.58-0.26,0.58-0.58v-3.84h3.84c0.32,0,0.58-0.26,0.58-0.58C66.03,161.95,65.77,161.69,65.46,161.69z"/>
<path class="st14" d="M395.23,111.56h-41.39c-2.7,0.01-4.89,2.2-4.9,4.9v39.47c0,2.14,2.74,2.67,4,0.93l6-8.58
	c0.82-1.17,2.16-1.87,3.59-1.87h31.26c2.9-0.01,5.25-2.36,5.26-5.26v-25.78C399.04,113.26,397.33,111.56,395.23,111.56z"/>
<circle class="st12" cx="361.55" cy="128.94" r="3.08"/>
<circle class="st12" cx="372.44" cy="128.94" r="3.08"/>
<circle class="st12" cx="383.33" cy="128.94" r="3.08"/>
<path class="st15" d="M272.13,60.02h55.23c3.61,0,6.54,2.93,6.54,6.54v52.67c0,2.86-3.66,3.56-5.34,1.24l-8-11.44
	c-1.09-1.57-2.88-2.5-4.79-2.5h-41.71c-3.87,0-7-3.13-7-7v-34.4C267.04,62.32,269.31,60.03,272.13,60.02L272.13,60.02z"/>
<circle class="st12" cx="317.07" cy="83.25" r="4.11"/>
<circle class="st12" cx="302.54" cy="83.25" r="4.11"/>
<circle class="st12" cx="288" cy="83.25" r="4.11"/>
</svg>
