<svg id="Layer_1" data-name="Layer 1" xmlns="http://www.w3.org/2000/svg" viewBox="0 0 56.58 97.76"><defs><style>.cls-1{fill:#f9f9f9;stroke:#000;stroke-linecap:round;stroke-linejoin:round;stroke-width:2px;}</style></defs><title>1_thingMike</title><path class="cls-1" d="M721.05,450.37a27,27,0,0,0,8-19.19,2.9,2.9,0,0,0-5.79,0,21.34,21.34,0,0,1-21.34,21.34h-.32a21.34,21.34,0,0,1-21.34-21.34,2.9,2.9,0,0,0-5.79,0,27.14,27.14,0,0,0,24.4,27V478H686a2.9,2.9,0,1,0,0,5.79h31.52a2.9,2.9,0,1,0,0-5.79H704.61V458.18A26.93,26.93,0,0,0,721.05,450.37Z" transform="translate(-673.42 -387)"/><path class="cls-1" d="M709,430.24v-3.69h8.43v-3.73H709v-3.69h8.43V415.4H709v-3.69h8.43V408H709v-3.7h8.43v-.69a15.6,15.6,0,0,0-15.6-15.6h-.32A15.61,15.61,0,0,0,686,403.6v.69h8.43V408H686v3.72h8.43v3.69H686v3.73h8.43v3.69H686v3.73h8.43v3.69H686v.94a15.61,15.61,0,0,0,15.6,15.61h.32a15.6,15.6,0,0,0,15.6-15.61v-.94Z" transform="translate(-673.42 -387)"/></svg>