<svg id="Layer_1" data-name="Layer 1" xmlns="http://www.w3.org/2000/svg" viewBox="0 0 306.36 221.99"><defs><style>.cls-1{fill:#f9f9f9;}.cls-2{fill:none;stroke-linecap:round;stroke-linejoin:round;}.cls-2,.cls-3,.cls-4{stroke:#202123;}.cls-2,.cls-3,.cls-4,.cls-9{stroke-width:2px;}.cls-3{fill:#adc5f7;}.cls-3,.cls-4,.cls-9{stroke-miterlimit:10;}.cls-4,.cls-9{fill:#89a6f5;}.cls-5{fill:#3d85fd;}.cls-6{fill:#233863;}.cls-7{fill:#202123;}.cls-8{opacity:0.3;}.cls-9{stroke:#000;}</style></defs><title>2_work</title><circle class="cls-1" cx="195.42" cy="111.33" r="110.5"/><path class="cls-2" d="M922.61,454.68a110.35,110.35,0,0,1,209.84,37.59" transform="translate(-827.08 -390.17)"/><path class="cls-2" d="M1010.52,611.16a110.15,110.15,0,0,1-84.19-55.63" transform="translate(-827.08 -390.17)"/><path class="cls-2" d="M1128,533.7a110,110,0,0,1-51.48,64" transform="translate(-827.08 -390.17)"/><path class="cls-3" d="M1092.81,545.67a30.54,30.54,0,0,0,.19-3.33q0-.9-.06-1.77l-5.67-1.79a23.93,23.93,0,0,0-2-6.6l3.76-4.49a30.21,30.21,0,0,0-3-4.21l-5.67,1.8a25.48,25.48,0,0,0-5.62-4.19l.32-5.79a30.41,30.41,0,0,0-4.95-1.7l-3.5,4.69a26.45,26.45,0,0,0-4.2-.34,27.49,27.49,0,0,0-2.88.16l-3.24-4.87a31.38,31.38,0,0,0-5,1.45v5.79a25.56,25.56,0,0,0-5.84,3.9l-5.56-2.08a29.14,29.14,0,0,0-3.21,4.05l3.51,4.68a23.82,23.82,0,0,0-2.36,6.48l-5.76,1.49a28.39,28.39,0,0,0-.2,3.34q0,.88.06,1.77l5.67,1.78a23.85,23.85,0,0,0,2,6.6l-3.76,4.49a29.63,29.63,0,0,0,3,4.21l5.67-1.8a25.23,25.23,0,0,0,5.61,4.2l-.32,5.78a30.77,30.77,0,0,0,5,1.71l3.5-4.7a25.33,25.33,0,0,0,4.2.34,24.77,24.77,0,0,0,2.88-.16l3.25,4.87a31.24,31.24,0,0,0,5-1.44v-5.8a25.17,25.17,0,0,0,5.83-3.9l5.57,2.09a30.46,30.46,0,0,0,3.2-4l-3.51-4.68a24,24,0,0,0,2.37-6.49ZM1062.43,554a11.65,11.65,0,1,1,12-11.64A11.82,11.82,0,0,1,1062.43,554Z" transform="translate(-827.08 -390.17)"/><path class="cls-4" d="M1066.59,443.05a58.74,58.74,0,0,0-3.7-5.16c-.71-.88-1.45-1.73-2.2-2.56l-10.28,3.94a46,46,0,0,0-10.76-7.45l0-11a56.52,56.52,0,0,0-9.31-2.77l-6,9.24a46.19,46.19,0,0,0-13.07.3l-6.45-8.94a56.82,56.82,0,0,0-9.15,3.21l.56,11a47.42,47.42,0,0,0-6.44,4.37,45,45,0,0,0-4,3.58l-10.48-3.45a56.42,56.42,0,0,0-5.51,8l6.93,8.57a46.68,46.68,0,0,0-3.74,12.54l-10.49,3.37a57.19,57.19,0,0,0,.22,9.7l10.64,2.86a46,46,0,0,0,4.34,12.35l-6.5,8.88a54.85,54.85,0,0,0,3.7,5.16c.71.88,1.44,1.73,2.19,2.56l10.28-3.94a46.18,46.18,0,0,0,10.77,7.44l0,11a56.41,56.41,0,0,0,9.3,2.77l6-9.24a46.63,46.63,0,0,0,13.08-.3L1033,528a56,56,0,0,0,9.16-3.22l-.57-11a45.86,45.86,0,0,0,6.44-4.36,48.42,48.42,0,0,0,4-3.58l10.47,3.45a56.23,56.23,0,0,0,5.52-8l-6.93-8.58a46.23,46.23,0,0,0,3.73-12.53l10.49-3.37a56.15,56.15,0,0,0-.22-9.7l-10.64-2.86a45.91,45.91,0,0,0-4.34-12.35Zm-33.76,47.52a22.15,22.15,0,1,1,3.34-31.14A22.14,22.14,0,0,1,1032.83,490.57Z" transform="translate(-827.08 -390.17)"/><path class="cls-5" d="M1036.32,536.66,964,536.58a10.06,10.06,0,0,1-10.08-10l0-46.59A10.08,10.08,0,0,1,964,470l72.35.09a10.07,10.07,0,0,1,10.09,10l0,46.58A10.07,10.07,0,0,1,1036.32,536.66Z" transform="translate(-827.08 -390.17)"/><path class="cls-6" d="M963.94,537.58a11.11,11.11,0,0,1-7.82-3.23,10.89,10.89,0,0,1-3.26-7.77l.06-46.58A11.06,11.06,0,0,1,964,469l72.35.09h0a11.06,11.06,0,0,1,11.07,11l0,46.59a11.07,11.07,0,0,1-11.12,11h0L964,537.58Zm72.38-.92Zm.09-65.54h0L964,471a9,9,0,0,0-9.1,9l-.05,46.58a8.85,8.85,0,0,0,2.66,6.34,9.1,9.1,0,0,0,6.39,2.65h0l72.36.08a9.06,9.06,0,0,0,6.42-2.63,8.86,8.86,0,0,0,2.67-6.34l0-46.58A9,9,0,0,0,1036.41,471.12Z" transform="translate(-827.08 -390.17)"/><path class="cls-1" d="M1036.32,536.66,964,536.58a10.06,10.06,0,0,1-10.08-10l0-46.59A10.08,10.08,0,0,1,964,470l72.35.09a10.07,10.07,0,0,1,10.09,10l0,46.58A10.07,10.07,0,0,1,1036.32,536.66Z" transform="translate(-827.08 -390.17)"/><path class="cls-7" d="M963.94,537.58a11.11,11.11,0,0,1-7.82-3.23,10.89,10.89,0,0,1-3.26-7.77l.06-46.58A11.06,11.06,0,0,1,964,469l72.35.09h0a11.06,11.06,0,0,1,11.07,11l0,46.59a11.07,11.07,0,0,1-11.12,11h0L964,537.58Zm72.38-.92Zm.09-65.54h0L964,471a9,9,0,0,0-9.1,9l-.05,46.58a8.85,8.85,0,0,0,2.66,6.34,9.1,9.1,0,0,0,6.39,2.65h0l72.36.08a9.06,9.06,0,0,0,6.42-2.63,8.86,8.86,0,0,0,2.67-6.34l0-46.58A9,9,0,0,0,1036.41,471.12Z" transform="translate(-827.08 -390.17)"/><g class="cls-8"><path class="cls-7" d="M1036.32,536.66,964,536.58a10.06,10.06,0,0,1-10.08-10l0-46.59A10.08,10.08,0,0,1,964,470l72.35.09a10.07,10.07,0,0,1,10.09,10l0,46.58A10.07,10.07,0,0,1,1036.32,536.66Z" transform="translate(-827.08 -390.17)"/><path class="cls-7" d="M963.94,537.58a11.11,11.11,0,0,1-7.82-3.23,10.89,10.89,0,0,1-3.26-7.77l.06-46.58A11.06,11.06,0,0,1,964,469l72.35.09h0a11.06,11.06,0,0,1,11.07,11l0,46.59a11.07,11.07,0,0,1-11.12,11h0L964,537.58Zm72.38-.92Zm.09-65.54h0L964,471a9,9,0,0,0-9.1,9l-.05,46.58a8.85,8.85,0,0,0,2.66,6.34,9.1,9.1,0,0,0,6.39,2.65h0l72.36.08a9.06,9.06,0,0,0,6.42-2.63,8.86,8.86,0,0,0,2.67-6.34l0-46.58A9,9,0,0,0,1036.41,471.12Z" transform="translate(-827.08 -390.17)"/></g><rect class="cls-1" x="966.51" y="460.89" width="67.31" height="92.55" rx="7.42" transform="translate(-335.23 1116.57) rotate(-89.93)"/><path class="cls-7" d="M961.26,541.45a8.11,8.11,0,0,1-8.07-8.11l.06-52.46a8.1,8.1,0,0,1,8.11-8.09l77.69.09h0a8.1,8.1,0,0,1,8.07,8.11l-.06,52.46a8.11,8.11,0,0,1-8.1,8.09l-77.7-.09Zm77.72-1.26v0a6.75,6.75,0,0,0,6.75-6.75l.06-52.45a6.75,6.75,0,0,0-6.72-6.76h0l-77.7-.09a6.75,6.75,0,0,0-6.75,6.74l-.06,52.46a6.76,6.76,0,0,0,6.72,6.76h0Z" transform="translate(-827.08 -390.17)"/><rect class="cls-1" x="966.5" y="465.1" width="67.31" height="92.55" rx="7.42" transform="translate(-339.45 1120.76) rotate(-89.93)"/><path class="cls-7" d="M961.25,545.65a8.11,8.11,0,0,1-8.08-8.1l.06-52.46a8.13,8.13,0,0,1,8.11-8.09l77.7.09h0a8.09,8.09,0,0,1,8.07,8.1l-.06,52.46a8.1,8.1,0,0,1-8.11,8.09v0l-77.7-.09Zm77.8-67.21h0l-77.7-.09a6.76,6.76,0,0,0-6.76,6.74l-.06,52.46a6.76,6.76,0,0,0,6.73,6.75h0l77.7.09h0a6.76,6.76,0,0,0,6.76-6.74l.06-52.46A6.76,6.76,0,0,0,1039.05,478.44Z" transform="translate(-827.08 -390.17)"/><path class="cls-1" d="M1039.86,465.14l-19.6,0a6.64,6.64,0,0,0-6.62,6.6v9.38L964,481a10.11,10.11,0,0,0-10.11,10.08l-.06,47.12a10.14,10.14,0,0,0,10.09,10.11l72.35.08a10.12,10.12,0,0,0,10.11-10.08l0-46.15v-1l0-19.47A6.64,6.64,0,0,0,1039.86,465.14Z" transform="translate(-827.08 -390.17)"/><path class="cls-7" d="M963.89,549.36a11.12,11.12,0,0,1-11.07-11.12l0-47.12A11.12,11.12,0,0,1,964,480l48.62.05v-8.36a7.65,7.65,0,0,1,7.63-7.61l19.6,0h0a7.63,7.63,0,0,1,7.59,7.63l-.08,66.59a11.13,11.13,0,0,1-11.12,11.09l-72.35-.08Zm76-83.2-19.6,0a5.62,5.62,0,0,0-5.6,5.59v9.38a1,1,0,0,1-1,1L964,482.05a9.11,9.11,0,0,0-9.09,9.08l0,47.11a9.08,9.08,0,0,0,9,9.09h0l72.35.09a9.13,9.13,0,0,0,9.1-9.08l.07-66.58a5.6,5.6,0,0,0-5.57-5.6Zm0-1Z" transform="translate(-827.08 -390.17)"/><path class="cls-7" d="M1002.72,520.63l-7.79-7.84a1.69,1.69,0,1,1,2.4-2.38l5.43,5.47,5.56-5.44a1.69,1.69,0,1,1,2.36,2.41Z" transform="translate(-827.08 -390.17)"/><path class="cls-7" d="M1002.79,519.94a1.68,1.68,0,0,1-1.68-1.69l0-17.1a1.69,1.69,0,1,1,3.38,0l-.06,17.09A1.68,1.68,0,0,1,1002.79,519.94Z" transform="translate(-827.08 -390.17)"/><path class="cls-7" d="M1015.2,528.1,990.13,528a3.64,3.64,0,0,1-3.62-3.64l0-9.11a1.69,1.69,0,0,1,3.38,0l0,9.11a.25.25,0,0,0,.25.25l25.07.08a.45.45,0,0,0,.45-.45l0-8.91a1.69,1.69,0,0,1,3.38,0l0,8.92A3.83,3.83,0,0,1,1015.2,528.1Z" transform="translate(-827.08 -390.17)"/><path class="cls-9" d="M901.09,496.06l-13.81-7.94a2.28,2.28,0,0,0-3.42,2v6.3a1.63,1.63,0,0,1-1.64,1.64H830.71a2.63,2.63,0,0,0-2.63,2.63v10.5a2.62,2.62,0,0,0,2.63,2.62h51.51a1.64,1.64,0,0,1,1.64,1.64v6.41a2.28,2.28,0,0,0,3.42,2l13.8-7.94,13.78-7.94a2.27,2.27,0,0,0,0-3.94Z" transform="translate(-827.08 -390.17)"/></svg>