<svg id="Layer_1" data-name="Layer 1" xmlns="http://www.w3.org/2000/svg" xmlns:xlink="http://www.w3.org/1999/xlink" viewBox="0 0 802.71 164.16"><defs><style>.cls-1,.cls-10,.cls-11,.cls-5{fill:none;}.cls-2,.cls-4{fill:#fff;}.cls-3{clip-path:url(#clip-path);}.cls-4,.cls-5{stroke:#c1c1c1;}.cls-12,.cls-13,.cls-4,.cls-5{stroke-miterlimit:10;}.cls-4{stroke-width:3px;}.cls-10,.cls-5{stroke-width:2px;}.cls-6{fill:#c1c1c1;}.cls-7{font-size:25px;fill:#202123;font-family:NotoSansCJKkr-Regular-KSCpc-EUC-H, Noto Sans CJK KR;}.cls-8{letter-spacing:-0.04em;}.cls-9{letter-spacing:-0.02em;}.cls-10,.cls-11,.cls-12,.cls-13{stroke:#202123;}.cls-10,.cls-11{stroke-linecap:round;stroke-linejoin:round;}.cls-11,.cls-12,.cls-13{stroke-width:1.5px;}.cls-12{fill:#f5c43c;}.cls-13{fill:#89a6f5;}</style><clipPath id="clip-path" transform="translate(-457.45 -838.25)"><circle class="cls-1" cx="556.33" cy="920.33" r="81.08"/></clipPath></defs><title>4_WriteMail</title><circle class="cls-2" cx="98.88" cy="82.08" r="81.08"/><g class="cls-3"><rect class="cls-4" x="1.5" y="61.92" width="799.71" height="48.19" rx="2.83"/><ellipse class="cls-5" cx="26.68" cy="85.23" rx="12.2" ry="11.72"/><rect class="cls-6" x="25.77" y="79.14" width="2.5" height="12.44" rx="0.77"/><rect class="cls-6" x="20.54" y="84.16" width="12.94" height="2.4" rx="0.77"/><text class="cls-7" transform="translate(49.81 93.92)">/<tspan class="cls-8" x="9.8" y="2">메</tspan><tspan x="31.8" y="2">일쓰</tspan><tspan class="cls-9" x="77.8" y="2">기</tspan></text></g><path class="cls-10" d="M516,990.66a81.09,81.09,0,1,1,90.83-133.81" transform="translate(-457.45 -838.25)"/><path class="cls-10" d="M539.5,999.66a79.5,79.5,0,0,1-15.64-5" transform="translate(-457.45 -838.25)"/><path class="cls-10" d="M625.6,878.17a81.1,81.1,0,0,1-69.27,123.24" transform="translate(-457.45 -838.25)"/><line class="cls-11" x1="127.8" y1="130.75" x2="138.8" y2="130.75"/><line class="cls-11" x1="133.3" y1="124.75" x2="133.3" y2="136.75"/><circle class="cls-12" cx="29.66" cy="62.99" r="4.68"/><circle class="cls-13" cx="157.66" cy="23.99" r="4.68"/></svg>