<?xml version="1.0" encoding="utf-8"?>
<!-- Generator: Adobe Illustrator 25.4.0, SVG Export Plug-In . SVG Version: 6.00 Build 0)  -->
<svg version="1.1" id="Layer_1" xmlns="http://www.w3.org/2000/svg" xmlns:xlink="http://www.w3.org/1999/xlink" x="0px" y="0px"
	 viewBox="0 0 313.1 222.2" style="enable-background:new 0 0 313.1 222.2;" xml:space="preserve">
<style type="text/css">
	.st0{fill:#F9F9F9;}
	.st1{fill:#CEDAEF;}
	.st2{fill:#89A6F5;stroke:#000000;stroke-width:1.5;stroke-miterlimit:10;}
	.st3{fill:none;stroke:#202123;stroke-width:1.5;stroke-linecap:round;stroke-linejoin:round;}
	.st4{fill:#F5C43C;stroke:#000000;stroke-width:1.5;stroke-miterlimit:10;}
	.st5{fill:#F9F9F9;stroke:#202123;stroke-width:3;stroke-miterlimit:10;}
	.st6{fill:none;stroke:#202123;stroke-width:3;stroke-linecap:round;stroke-linejoin:round;}
</style>
<circle class="st0" cx="160.1" cy="111" r="109.7"/>
<path class="st1" d="M76,40.7c0,0-5.6,97.1,80.4,84.1s90,28,89,50s-59.8,56.6-106.9,43.8s-78.7-44.8-85.9-86.3S59.6,62.6,76,40.7z"
	/>
<circle class="st2" cx="193.4" cy="192" r="4.7"/>
<line class="st3" x1="23.3" y1="28.7" x2="34.3" y2="28.7"/>
<line class="st3" x1="28.3" y1="22.7" x2="28.3" y2="34.7"/>
<line class="st3" x1="301.3" y1="74.7" x2="312.3" y2="74.7"/>
<line class="st3" x1="306.3" y1="68.7" x2="306.3" y2="80.7"/>
<circle class="st4" cx="5.4" cy="63" r="4.7"/>
<path d="M146.1,91.6h-22.3c-1.6,0-2.9-1.3-2.9-2.9s1.3-2.9,2.9-2.9h22.3c1.6,0,2.9,1.3,2.9,2.9S147.7,91.6,146.1,91.6L146.1,91.6z"
	/>
<path d="M146.1,103.5h-5.6c-1.6,0.1-3-1.1-3.1-2.7c-0.1-1.6,1.1-3,2.7-3.1c0.1,0,0.2,0,0.3,0h5.6c1.6-0.1,3,1.1,3.1,2.7
	c0.1,1.6-1.1,3-2.7,3.1C146.3,103.5,146.2,103.5,146.1,103.5z"/>
<path d="M117.9,103.5H90.6c-1.6-0.1-2.8-1.5-2.7-3.1c0.1-1.5,1.3-2.6,2.7-2.7h27.3c1.6,0.1,2.8,1.5,2.7,3.1
	C120.5,102.3,119.3,103.4,117.9,103.5z"/>
<path d="M146.1,115.4h-22.3c-1.6-0.1-2.8-1.5-2.7-3.1c0.1-1.5,1.3-2.6,2.7-2.7h22.3c1.6-0.1,3,1.1,3.1,2.7c0.1,1.6-1.1,3-2.7,3.1
	C146.3,115.5,146.2,115.5,146.1,115.4L146.1,115.4z"/>
<path d="M109.9,115.4H98.8c-1.6,0.1-3-1.1-3.1-2.7c-0.1-1.6,1.1-3,2.7-3.1c0.1,0,0.2,0,0.3,0h11.2c1.6,0.1,2.8,1.5,2.7,3.1
	C112.5,114.2,111.4,115.4,109.9,115.4z"/>
<path d="M146.1,127.4h-28c-1.6,0.1-3-1.1-3.1-2.7c-0.1-1.6,1.1-3,2.7-3.1c0.1,0,0.2,0,0.3,0h28c1.6-0.1,3,1.1,3.1,2.7
	c0.1,1.6-1.1,3-2.7,3.1C146.3,127.4,146.2,127.4,146.1,127.4z"/>
<path d="M146.1,139.3h-6.9c-1.6,0-2.9-1.3-2.9-2.9s1.3-2.9,2.9-2.9l0,0h6.9c1.6,0,2.9,1.3,2.9,2.9S147.7,139.3,146.1,139.3z"/>
<path d="M130.7,139.3h-23.9c-1.6,0-2.9-1.3-2.9-2.9s1.3-2.9,2.9-2.9h23.9c1.6,0,2.9,1.3,2.9,2.9S132.3,139.3,130.7,139.3z"/>
<path d="M146.1,151.2h-15.4c-1.6,0-2.9-1.3-2.9-2.9s1.3-2.9,2.9-2.9l0,0h15.4c1.6,0,2.9,1.3,2.9,2.9S147.7,151.2,146.1,151.2z"/>
<path class="st5" d="M168.7,77.7h117.8c4,0,7.2,3.2,7.2,7.2v65c0,4-3.2,7.2-7.2,7.2H168.7c-4,0-7.2-3.2-7.2-7.2V85
	C161.4,81,164.7,77.7,168.7,77.7z"/>
<path class="st6" d="M164.3,80.1l57.1,45.8c3.5,2.9,8.5,2.9,12,0.1l57.4-45.8"/>
<line class="st6" x1="164.1" y1="153.1" x2="209.7" y2="117.3"/>
<line class="st6" x1="290.1" y1="154.1" x2="245.7" y2="117.6"/>
</svg>
