<?xml version="1.0" encoding="utf-8"?>
<!-- Generator: Adobe Illustrator 25.4.0, SVG Export Plug-In . SVG Version: 6.00 Build 0)  -->
<svg version="1.1" id="Layer_1" xmlns="http://www.w3.org/2000/svg" xmlns:xlink="http://www.w3.org/1999/xlink" x="0px" y="0px"
	 viewBox="0 0 169.1 164.2" style="enable-background:new 0 0 169.1 164.2;" xml:space="preserve">
<style type="text/css">
	.st0{fill:#FFFFFF;}
	.st1{clip-path:url(#SVGID_00000151506686295887794520000012213634858131339154_);}
	.st2{fill:#FFFFFF;stroke:#C1C1C1;stroke-width:3;stroke-miterlimit:10;}
	.st3{fill:none;stroke:#C1C1C1;stroke-width:2;stroke-miterlimit:10;}
	.st4{fill:#C1C1C1;}
	.st5{fill:#202123;}
	.st6{font-family:'NotoSansCJKkr-Regular-KSCpc-EUC-H';}
	.st7{font-size:25px;}
	.st8{letter-spacing:-1;}
	.st9{fill:none;stroke:#202123;stroke-width:1.5;stroke-linecap:round;stroke-linejoin:round;}
	.st10{fill:#F5C43C;stroke:#202123;stroke-width:1.5;stroke-miterlimit:10;}
</style>
<circle class="st0" cx="84" cy="82.1" r="81.1"/>
<g>
	<g>
		<defs>
			<circle id="SVGID_1_" cx="84" cy="82.1" r="81.1"/>
		</defs>
		<clipPath id="SVGID_00000168086347143714697430000010003052315854184603_">
			<use xlink:href="#SVGID_1_"  style="overflow:visible;"/>
		</clipPath>
		<g style="clip-path:url(#SVGID_00000168086347143714697430000010003052315854184603_);">
			<path class="st2" d="M-10.6,61.9h794c1.6,0,2.8,1.3,2.8,2.8v42.5c0,1.6-1.3,2.8-2.8,2.8h-794c-1.6,0-2.8-1.3-2.8-2.8V64.8
				C-13.4,63.2-12.2,61.9-10.6,61.9z"/>
			<ellipse class="st3" cx="11.8" cy="85.2" rx="12.2" ry="11.7"/>
			<path class="st4" d="M11.6,79.1h1c0.4,0,0.8,0.3,0.8,0.8v10.9c0,0.4-0.3,0.8-0.8,0.8h-1c-0.4,0-0.8-0.3-0.8-0.8V79.9
				C10.8,79.5,11.2,79.1,11.6,79.1z"/>
			<path class="st4" d="M6.4,84.2h11.4c0.4,0,0.8,0.3,0.8,0.8v0.9c0,0.4-0.3,0.8-0.8,0.8H6.4c-0.4,0-0.8-0.3-0.8-0.8V85
				C5.6,84.5,6,84.2,6.4,84.2z"/>
			<text transform="matrix(1 0 0 1 34.8806 93.92)" class="st5 st6 st7">/</text>
			<text transform="matrix(1 0 0 1 44.6806 95.92)" class="st5 st6 st7 st8">메</text>
			<text transform="matrix(1 0 0 1 66.6806 95.92)" class="st5 st6 st7">일쓰</text>
			<text transform="matrix(1 0 0 1 112.6806 95.92)" class="st5 st6 st7">기</text>
		</g>
	</g>
</g>
<line class="st9" x1="112.9" y1="130.8" x2="123.9" y2="130.8"/>
<line class="st9" x1="118.4" y1="124.8" x2="118.4" y2="136.8"/>
<circle class="st10" cx="14.7" cy="63" r="4.7"/>
</svg>
